<svg width="199" height="19" viewBox="0 0 199 19" fill="none" xmlns="http://www.w3.org/2000/svg">
<g opacity="0.2">
<mask id="path-1-outside-1_41_62" maskUnits="userSpaceOnUse" x="-1" y="-1" width="201" height="21" fill="black">
<rect fill="white" x="-1" y="-1" width="201" height="21"/>
<path d="M17.144 1.224H20.624V18H18.656V3.192H18.104L4.376 18H0.896V1.224H2.864V16.032H3.512L17.144 1.224ZM42.5467 15.288C42.5707 14.784 42.5947 14.304 42.5947 13.824H44.5867C44.5627 14.328 44.5387 14.856 44.5147 15.384C44.4427 16.872 43.2427 18.096 41.7307 18.144C39.3067 18.264 36.8827 18.312 34.4827 18.312C32.0587 18.312 29.6347 18.264 27.2347 18.144C25.7227 18.096 24.5227 16.872 24.4507 15.384C24.2347 11.544 24.2587 7.704 24.4507 3.864C24.5227 2.352 25.7227 1.152 27.2347 1.08C29.6347 0.959999 32.0587 0.912 34.4827 0.912C36.8827 0.912 39.3067 0.959999 41.7307 1.08C43.2427 1.152 44.4427 2.352 44.5147 3.864C44.5387 4.368 44.5627 4.896 44.5867 5.424H42.5947C42.5947 4.92 42.5707 4.44 42.5467 3.96C42.5227 3.72 42.4267 3.504 42.2587 3.336C42.0907 3.168 41.8747 3.072 41.6347 3.048C39.2587 2.952 36.8587 2.88 34.4827 2.88C32.1067 2.88 29.6827 2.952 27.3067 3.048C27.0907 3.072 26.8507 3.168 26.6827 3.336C26.5147 3.504 26.4187 3.72 26.4187 3.96C26.2267 7.704 26.2267 11.52 26.4187 15.288C26.4187 15.504 26.5147 15.744 26.6827 15.912C26.8507 16.08 27.0907 16.176 27.3067 16.176C29.6827 16.296 32.1067 16.344 34.4827 16.344C36.8587 16.344 39.2587 16.296 41.6347 16.176C41.8747 16.176 42.0907 16.08 42.2587 15.912C42.4267 15.744 42.5227 15.504 42.5467 15.288ZM67.3824 1.224L55.0464 9.624L67.3824 18L63.8784 18.024L53.0064 10.608H49.6224V18.024H47.6544V1.224H49.6224V8.64H52.9824L63.8544 1.248L67.3824 1.224ZM87.0399 1.224H89.0319V10.44C89.0079 11.784 88.9599 13.776 88.8879 15.072C88.8159 16.584 87.5919 17.784 86.1039 17.856C83.6799 17.952 81.2559 18 78.8559 18C76.4319 18 74.5119 17.952 72.0879 17.856C70.5999 17.784 69.3759 16.584 69.3039 15.072C69.2799 14.544 69.2559 14.04 69.2559 13.512H71.2239C71.2479 13.992 71.2479 14.472 71.2719 14.976C71.2959 15.216 71.3919 15.432 71.5599 15.6C71.7279 15.768 71.9439 15.864 72.1839 15.864C74.5599 15.984 76.4799 16.032 78.8559 16.032C81.2319 16.032 83.6319 15.984 86.0079 15.864C86.2479 15.864 86.4639 15.768 86.6319 15.6C86.7999 15.432 86.8959 15.216 86.9199 14.976C86.9679 13.92 87.0159 12 87.0399 10.608H72.0639C70.5519 10.536 69.3519 9.336 69.2799 7.824V1.224H71.2479V7.728C71.2719 7.968 71.3679 8.184 71.5359 8.352C71.7039 8.52 71.9199 8.616 72.1599 8.616H87.0399V1.224ZM110.844 15.288C110.868 14.784 110.892 14.304 110.892 13.824H112.884C112.86 14.328 112.836 14.856 112.812 15.384C112.74 16.872 111.54 18.096 110.028 18.144C107.604 18.264 105.18 18.312 102.78 18.312C100.356 18.312 97.9316 18.264 95.5316 18.144C94.0196 18.096 92.8196 16.872 92.7476 15.384C92.5316 11.544 92.5556 7.704 92.7476 3.864C92.8196 2.352 94.0196 1.152 95.5316 1.08C97.9316 0.959999 100.356 0.912 102.78 0.912C105.18 0.912 107.604 0.959999 110.028 1.08C111.54 1.152 112.74 2.352 112.812 3.864C112.836 4.368 112.86 4.896 112.884 5.424H110.892C110.892 4.92 110.868 4.44 110.844 3.96C110.82 3.72 110.724 3.504 110.556 3.336C110.388 3.168 110.172 3.072 109.932 3.048C107.556 2.952 105.156 2.88 102.78 2.88C100.404 2.88 97.9796 2.952 95.6036 3.048C95.3876 3.072 95.1476 3.168 94.9796 3.336C94.8116 3.504 94.7156 3.72 94.7156 3.96C94.5236 7.704 94.5236 11.52 94.7156 15.288C94.7156 15.504 94.8116 15.744 94.9796 15.912C95.1476 16.08 95.3876 16.176 95.6036 16.176C97.9796 16.296 100.404 16.344 102.78 16.344C105.156 16.344 107.556 16.296 109.932 16.176C110.172 16.176 110.388 16.08 110.556 15.912C110.724 15.744 110.82 15.504 110.844 15.288ZM134.023 15.288C134.047 14.784 134.071 14.304 134.071 13.824H136.063C136.039 14.328 136.015 14.856 135.991 15.384C135.919 16.872 134.719 18.096 133.207 18.144C130.783 18.264 128.359 18.312 125.959 18.312C123.535 18.312 121.111 18.264 118.711 18.144C117.199 18.096 115.999 16.872 115.927 15.384C115.711 11.544 115.735 7.704 115.927 3.864C115.999 2.352 117.199 1.152 118.711 1.08C121.111 0.959999 123.535 0.912 125.959 0.912C128.359 0.912 130.783 0.959999 133.207 1.08C134.719 1.152 135.919 2.352 135.991 3.864C136.015 4.368 136.039 4.896 136.063 5.424H134.071C134.071 4.92 134.047 4.44 134.023 3.96C133.999 3.72 133.903 3.504 133.735 3.336C133.567 3.168 133.351 3.072 133.111 3.048C130.735 2.952 128.335 2.88 125.959 2.88C123.583 2.88 121.159 2.952 118.783 3.048C118.567 3.072 118.327 3.168 118.159 3.336C117.991 3.504 117.895 3.72 117.895 3.96C117.703 7.704 117.703 11.52 117.895 15.288C117.895 15.504 117.991 15.744 118.159 15.912C118.327 16.08 118.567 16.176 118.783 16.176C121.159 16.296 123.583 16.344 125.959 16.344C128.335 16.344 130.735 16.296 133.111 16.176C133.351 16.176 133.567 16.08 133.735 15.912C133.903 15.744 133.999 15.504 134.023 15.288ZM137.571 1.224H153.363V3.192H146.451V18H144.459V3.192H137.571V1.224ZM173.846 7.968C174.734 8.424 175.334 9.336 175.382 10.392V15.216C175.31 16.728 174.11 17.928 172.622 18H155.654V1.224H171.374C172.886 1.296 174.086 2.496 174.158 4.008V6.816C174.134 7.224 174.038 7.608 173.846 7.968ZM157.622 3.192V7.608H171.278C171.518 7.608 171.734 7.512 171.902 7.344C172.07 7.176 172.166 6.96 172.19 6.72V4.104C172.166 3.864 172.07 3.648 171.902 3.48C171.734 3.312 171.518 3.216 171.278 3.192H157.622ZM173.414 15.144V10.488C173.414 10.248 173.318 10.032 173.15 9.864C172.982 9.696 172.742 9.6 172.502 9.6L157.622 9.624V16.032H172.526C172.742 16.032 172.982 15.936 173.15 15.768C173.318 15.6 173.414 15.36 173.414 15.144ZM198.757 3.864C198.949 7.704 198.949 11.544 198.757 15.384C198.685 16.872 197.485 18.096 195.973 18.144C193.549 18.264 191.125 18.312 188.725 18.312C186.301 18.312 183.877 18.264 181.477 18.144C179.965 18.096 178.765 16.872 178.693 15.384C178.477 11.544 178.477 7.704 178.693 3.864C178.765 2.352 179.965 1.152 181.477 1.08C183.877 0.959999 186.301 0.912 188.725 0.912C191.125 0.912 193.549 0.959999 195.973 1.08C197.485 1.152 198.685 2.352 198.757 3.864ZM196.789 15.288C196.981 11.52 196.981 7.704 196.789 3.96C196.765 3.72 196.669 3.504 196.501 3.336C196.333 3.168 196.117 3.072 195.877 3.048C193.501 2.952 191.101 2.88 188.725 2.88C186.349 2.88 183.925 2.952 181.549 3.048C181.333 3.072 181.093 3.168 180.925 3.336C180.757 3.504 180.661 3.72 180.661 3.96C180.469 7.704 180.469 11.52 180.661 15.288C180.661 15.504 180.757 15.744 180.925 15.912C181.093 16.08 181.333 16.176 181.549 16.176C183.925 16.296 186.349 16.344 188.725 16.344C191.101 16.344 193.501 16.296 195.877 16.176C196.117 16.176 196.333 16.08 196.501 15.912C196.669 15.744 196.765 15.504 196.789 15.288Z"/>
</mask>
<path d="M17.144 1.224V0.223999H16.7054L16.4083 0.54671L17.144 1.224ZM20.624 1.224H21.624V0.223999H20.624V1.224ZM20.624 18V19H21.624V18H20.624ZM18.656 18H17.656V19H18.656V18ZM18.656 3.192H19.656V2.192H18.656V3.192ZM18.104 3.192V2.192H17.6674L17.3707 2.51214L18.104 3.192ZM4.376 18V19H4.81255L5.10934 18.6799L4.376 18ZM0.896 18H-0.104V19H0.896V18ZM0.896 1.224V0.223999H-0.104V1.224H0.896ZM2.864 1.224H3.864V0.223999H2.864V1.224ZM2.864 16.032H1.864V17.032H2.864V16.032ZM3.512 16.032V17.032H3.95063L4.24772 16.7093L3.512 16.032ZM17.144 2.224H20.624V0.223999H17.144V2.224ZM19.624 1.224V18H21.624V1.224H19.624ZM20.624 17H18.656V19H20.624V17ZM19.656 18V3.192H17.656V18H19.656ZM18.656 2.192H18.104V4.192H18.656V2.192ZM17.3707 2.51214L3.64266 17.3201L5.10934 18.6799L18.8373 3.87186L17.3707 2.51214ZM4.376 17H0.896V19H4.376V17ZM1.896 18V1.224H-0.104V18H1.896ZM0.896 2.224H2.864V0.223999H0.896V2.224ZM1.864 1.224V16.032H3.864V1.224H1.864ZM2.864 17.032H3.512V15.032H2.864V17.032ZM4.24772 16.7093L17.8797 1.90129L16.4083 0.54671L2.77628 15.3547L4.24772 16.7093ZM42.5467 15.288L43.5406 15.3984L43.5441 15.3671L43.5456 15.3356L42.5467 15.288ZM42.5947 13.824V12.824H41.5947V13.824H42.5947ZM44.5867 13.824L45.5856 13.8716L45.6354 12.824H44.5867V13.824ZM44.5147 15.384L45.5135 15.4323L45.5137 15.4294L44.5147 15.384ZM41.7307 18.144L41.699 17.1445L41.6901 17.1448L41.6812 17.1452L41.7307 18.144ZM27.2347 18.144L27.2846 17.1452L27.2755 17.1448L27.2664 17.1445L27.2347 18.144ZM24.4507 15.384L25.4496 15.3357L25.4491 15.3278L24.4507 15.384ZM24.4507 3.864L25.4494 3.91394L25.4496 3.91156L24.4507 3.864ZM27.2347 1.08L27.2823 2.07887L27.2846 2.07875L27.2347 1.08ZM41.7307 1.08L41.6812 2.07878L41.6831 2.07887L41.7307 1.08ZM44.5147 3.864L43.5158 3.91156V3.91157L44.5147 3.864ZM44.5867 5.424V6.424H45.6332L45.5857 5.37859L44.5867 5.424ZM42.5947 5.424H41.5947V6.424H42.5947V5.424ZM42.5467 3.96L43.5454 3.91006L43.5442 3.88523L43.5417 3.86049L42.5467 3.96ZM42.2587 3.336L41.5516 4.04311L41.5516 4.04311L42.2587 3.336ZM41.6347 3.048L41.7342 2.05296L41.7047 2.05001L41.6751 2.04881L41.6347 3.048ZM27.3067 3.048L27.2663 2.04881L27.2312 2.05023L27.1963 2.05412L27.3067 3.048ZM26.6827 3.336L27.3898 4.04311L27.3898 4.04311L26.6827 3.336ZM26.4187 3.96L27.4174 4.01121L27.4187 3.98562V3.96H26.4187ZM26.4187 15.288H27.4187V15.2625L27.4174 15.2371L26.4187 15.288ZM27.3067 16.176L27.3571 15.1773L27.3319 15.176H27.3067V16.176ZM41.6347 16.176V15.176H41.6095L41.5842 15.1773L41.6347 16.176ZM43.5456 15.3356C43.5692 14.8382 43.5947 14.3326 43.5947 13.824H41.5947C41.5947 14.2754 41.5721 14.7298 41.5478 15.2404L43.5456 15.3356ZM42.5947 14.824H44.5867V12.824H42.5947V14.824ZM43.5878 13.7764C43.5638 14.2817 43.5397 14.8108 43.5157 15.3386L45.5137 15.4294C45.5377 14.9012 45.5616 14.3743 45.5856 13.8716L43.5878 13.7764ZM43.5159 15.3357C43.4683 16.3181 42.675 17.1135 41.699 17.1445L41.7624 19.1435C43.8104 19.0785 45.4171 17.4259 45.5135 15.4323L43.5159 15.3357ZM41.6812 17.1452C39.2768 17.2643 36.8696 17.312 34.4827 17.312V19.312C36.8958 19.312 39.3366 19.2637 41.7801 19.1428L41.6812 17.1452ZM34.4827 17.312C32.0716 17.312 29.6646 17.2642 27.2846 17.1452L27.1847 19.1428C29.6047 19.2638 32.0458 19.312 34.4827 19.312V17.312ZM27.2664 17.1445C26.2904 17.1135 25.4971 16.3181 25.4495 15.3357L23.4519 15.4323C23.5483 17.4259 25.155 19.0785 27.203 19.1435L27.2664 17.1445ZM25.4491 15.3278C25.2354 11.5291 25.2589 7.7251 25.4494 3.91394L23.4519 3.81406C23.2585 7.6829 23.2339 11.5589 23.4523 15.4402L25.4491 15.3278ZM25.4496 3.91156C25.497 2.91446 26.2851 2.12635 27.2823 2.07887L27.1871 0.0811308C25.1602 0.17765 23.5483 1.78954 23.4518 3.81643L25.4496 3.91156ZM27.2846 2.07875C29.6646 1.95975 32.0716 1.912 34.4827 1.912V-0.0880003C32.0458 -0.0880003 29.6047 -0.0397521 27.1847 0.0812466L27.2846 2.07875ZM34.4827 1.912C36.8696 1.912 39.2768 1.95974 41.6812 2.07878L41.7801 0.0812221C39.3366 -0.0397439 36.8958 -0.0880003 34.4827 -0.0880003V1.912ZM41.6831 2.07887C42.6802 2.12635 43.4683 2.91446 43.5158 3.91156L45.5136 3.81643C45.417 1.78954 43.8051 0.17765 41.7783 0.0811308L41.6831 2.07887ZM43.5158 3.91157C43.5398 4.41429 43.5637 4.94119 43.5877 5.46941L45.5857 5.37859C45.5617 4.85081 45.5376 4.3217 45.5136 3.81643L43.5158 3.91157ZM44.5867 4.424H42.5947V6.424H44.5867V4.424ZM43.5947 5.424C43.5947 4.89116 43.5693 4.38679 43.5454 3.91006L41.5479 4.00994C41.5721 4.49321 41.5947 4.94884 41.5947 5.424H43.5947ZM43.5417 3.86049C43.4967 3.41055 43.3105 2.97363 42.9658 2.62889L41.5516 4.04311C41.5513 4.04287 41.5504 4.04184 41.5492 4.04017C41.5481 4.03852 41.5474 4.03723 41.5472 4.03676C41.5466 4.03539 41.5499 4.04171 41.5517 4.05951L43.5417 3.86049ZM42.9658 2.62889C42.6211 2.28416 42.1841 2.09796 41.7342 2.05296L41.5352 4.04304C41.553 4.04482 41.5593 4.0481 41.5579 4.04747C41.5575 4.04726 41.5562 4.0466 41.5545 4.04546C41.5528 4.0443 41.5518 4.04335 41.5516 4.04311L42.9658 2.62889ZM41.6751 2.04881C39.293 1.95257 36.8779 1.88 34.4827 1.88V3.88C36.8395 3.88 39.2244 3.95143 41.5943 4.04718L41.6751 2.04881ZM34.4827 1.88C32.0876 1.88 29.6486 1.95256 27.2663 2.04881L27.3471 4.04718C29.7168 3.95144 32.1258 3.88 34.4827 3.88V1.88ZM27.1963 2.05412C26.7982 2.09834 26.3327 2.27182 25.9756 2.62889L27.3898 4.04311C27.3814 4.05145 27.376 4.05511 27.3754 4.05555C27.3748 4.05597 27.3771 4.05434 27.3828 4.05181C27.3885 4.04929 27.3953 4.04682 27.4026 4.04486C27.4099 4.04288 27.4151 4.0421 27.4171 4.04188L27.1963 2.05412ZM25.9756 2.62889C25.6327 2.9718 25.4187 3.43745 25.4187 3.96H27.4187C27.4187 3.97548 27.4152 3.99549 27.4068 4.01492C27.3988 4.03358 27.3904 4.04248 27.3898 4.04311L25.9756 2.62889ZM25.42 3.90878C25.2262 7.68701 25.2263 11.5371 25.42 15.3389L27.4174 15.2371C27.2271 11.5029 27.2271 7.72099 27.4174 4.01121L25.42 3.90878ZM25.4187 15.288C25.4187 15.7722 25.6222 16.2657 25.9756 16.6191L27.3898 15.2049C27.4051 15.2202 27.4094 15.2302 27.4108 15.2334C27.4119 15.236 27.4135 15.2406 27.4151 15.248C27.4166 15.2552 27.4187 15.2685 27.4187 15.288H25.4187ZM25.9756 16.6191C26.329 16.9725 26.8225 17.176 27.3067 17.176V15.176C27.3262 15.176 27.3394 15.1781 27.3467 15.1796C27.3541 15.1812 27.3587 15.1828 27.3613 15.1839C27.3645 15.1852 27.3745 15.1896 27.3898 15.2049L25.9756 16.6191ZM27.2562 17.1747C29.6525 17.2957 32.0937 17.344 34.4827 17.344V15.344C32.1197 15.344 29.7129 15.2963 27.3571 15.1773L27.2562 17.1747ZM34.4827 17.344C36.8718 17.344 39.289 17.2957 41.6851 17.1747L41.5842 15.1773C39.2284 15.2963 36.8455 15.344 34.4827 15.344V17.344ZM41.6347 17.176C42.1572 17.176 42.6229 16.962 42.9658 16.6191L41.5516 15.2049C41.5522 15.2043 41.5611 15.1959 41.5798 15.1879C41.5992 15.1795 41.6192 15.176 41.6347 15.176V17.176ZM42.9658 16.6191C43.3229 16.262 43.4963 15.7965 43.5406 15.3984L41.5528 15.1776C41.5526 15.1795 41.5518 15.1848 41.5498 15.1921C41.5479 15.1993 41.5454 15.2062 41.5429 15.2119C41.5404 15.2175 41.5387 15.2199 41.5391 15.2193C41.5396 15.2186 41.5432 15.2132 41.5516 15.2049L42.9658 16.6191ZM67.3824 1.224L67.9452 2.05057L70.6604 0.201675L67.3756 0.224022L67.3824 1.224ZM55.0464 9.624L54.4835 8.79743L53.2679 9.62518L54.4846 10.4513L55.0464 9.624ZM67.3824 18L67.3892 19L70.6029 18.978L67.9441 17.1727L67.3824 18ZM63.8784 18.024L63.3149 18.8501L63.5729 19.0261L63.8852 19.024L63.8784 18.024ZM53.0064 10.608L53.5699 9.78189L53.315 9.608H53.0064V10.608ZM49.6224 10.608V9.608H48.6224V10.608H49.6224ZM49.6224 18.024V19.024H50.6224V18.024H49.6224ZM47.6544 18.024H46.6544V19.024H47.6544V18.024ZM47.6544 1.224V0.223999H46.6544V1.224H47.6544ZM49.6224 1.224H50.6224V0.223999H49.6224V1.224ZM49.6224 8.64H48.6224V9.64H49.6224V8.64ZM52.9824 8.64V9.64H53.2901L53.5446 9.46696L52.9824 8.64ZM63.8544 1.248L63.8476 0.248023L63.5435 0.250091L63.2921 0.421039L63.8544 1.248ZM66.8195 0.397431L54.4835 8.79743L55.6092 10.4506L67.9452 2.05057L66.8195 0.397431ZM54.4846 10.4513L66.8206 18.8273L67.9441 17.1727L55.6081 8.79668L54.4846 10.4513ZM67.3755 17L63.8715 17.024L63.8852 19.024L67.3892 19L67.3755 17ZM64.4419 17.1979L53.5699 9.78189L52.4429 11.4341L63.3149 18.8501L64.4419 17.1979ZM53.0064 9.608H49.6224V11.608H53.0064V9.608ZM48.6224 10.608V18.024H50.6224V10.608H48.6224ZM49.6224 17.024H47.6544V19.024H49.6224V17.024ZM48.6544 18.024V1.224H46.6544V18.024H48.6544ZM47.6544 2.224H49.6224V0.223999H47.6544V2.224ZM48.6224 1.224V8.64H50.6224V1.224H48.6224ZM49.6224 9.64H52.9824V7.64H49.6224V9.64ZM53.5446 9.46696L64.4166 2.07496L63.2921 0.421039L52.4201 7.81304L53.5446 9.46696ZM63.8612 2.24798L67.3892 2.22398L67.3756 0.224022L63.8476 0.248023L63.8612 2.24798ZM87.0399 1.224V0.223999H86.0399V1.224H87.0399ZM89.0319 1.224H90.0319V0.223999H89.0319V1.224ZM89.0319 10.44L90.0317 10.4579L90.0319 10.4489V10.44H89.0319ZM88.8879 15.072L87.8894 15.0165L87.889 15.0244L88.8879 15.072ZM86.1039 17.856L86.1434 18.8553L86.1522 18.8548L86.1039 17.856ZM72.0879 17.856L72.0395 18.8549L72.0483 18.8552L72.0879 17.856ZM69.3039 15.072L68.3049 15.1174L68.305 15.1196L69.3039 15.072ZM69.2559 13.512V12.512H68.2559V13.512H69.2559ZM71.2239 13.512L72.2226 13.4621L72.1751 12.512H71.2239V13.512ZM71.2719 14.976L70.273 15.0236L70.2742 15.0496L70.2768 15.0755L71.2719 14.976ZM71.5599 15.6L70.8528 16.3071V16.3071L71.5599 15.6ZM72.1839 15.864L72.2343 14.8653L72.2091 14.864H72.1839V15.864ZM86.0079 15.864V14.864H85.9826L85.9574 14.8653L86.0079 15.864ZM86.6319 15.6L85.9248 14.8929V14.8929L86.6319 15.6ZM86.9199 14.976L87.9149 15.0755L87.9176 15.0485L87.9188 15.0214L86.9199 14.976ZM87.0399 10.608L88.0397 10.6252L88.0573 9.608H87.0399V10.608ZM72.0639 10.608L72.0163 11.6069L72.0401 11.608H72.0639V10.608ZM69.2799 7.824H68.2799V7.8478L68.281 7.87156L69.2799 7.824ZM69.2799 1.224V0.223999H68.2799V1.224H69.2799ZM71.2479 1.224H72.2479V0.223999H71.2479V1.224ZM71.2479 7.728H70.2479V7.77787L70.2528 7.8275L71.2479 7.728ZM87.0399 8.616V9.616H88.0399V8.616H87.0399ZM87.0399 2.224H89.0319V0.223999H87.0399V2.224ZM88.0319 1.224V10.44H90.0319V1.224H88.0319ZM88.032 10.4221C88.008 11.766 87.9603 13.7412 87.8894 15.0165L89.8863 15.1275C89.9595 13.8108 90.0077 11.802 90.0317 10.4579L88.032 10.4221ZM87.889 15.0244C87.8418 16.0158 87.0351 16.8098 86.0555 16.8572L86.1522 18.8548C88.1487 18.7582 89.7899 17.1522 89.8867 15.1196L87.889 15.0244ZM86.0643 16.8568C83.6534 16.9523 81.2426 17 78.8559 17V19C81.2691 19 83.7063 18.9517 86.1434 18.8552L86.0643 16.8568ZM78.8559 17C76.448 17 74.5415 16.9524 72.1274 16.8568L72.0483 18.8552C74.4822 18.9516 76.4158 19 78.8559 19V17ZM72.1362 16.8572C71.1567 16.8098 70.35 16.0158 70.3027 15.0244L68.305 15.1196C68.4018 17.1522 70.0431 18.7582 72.0395 18.8548L72.1362 16.8572ZM70.3028 15.0266C70.2786 14.4932 70.2559 14.013 70.2559 13.512H68.2559C68.2559 14.067 68.2812 14.5948 68.3049 15.1174L70.3028 15.0266ZM69.2559 14.512H71.2239V12.512H69.2559V14.512ZM70.2251 13.5619C70.2364 13.7873 70.2421 14.0149 70.2482 14.2597C70.2541 14.5007 70.2604 14.7582 70.273 15.0236L72.2707 14.9284C72.2594 14.6898 72.2536 14.4553 72.2476 14.2103C72.2416 13.9691 72.2354 13.7167 72.2226 13.4621L70.2251 13.5619ZM70.2768 15.0755C70.3218 15.5254 70.508 15.9624 70.8528 16.3071L72.267 14.8929C72.2672 14.8931 72.2682 14.8942 72.2693 14.8958C72.2705 14.8975 72.2711 14.8988 72.2713 14.8992C72.272 14.9006 72.2687 14.8943 72.2669 14.8765L70.2768 15.0755ZM70.8528 16.3071C71.1957 16.65 71.6613 16.864 72.1839 16.864V14.864C72.1994 14.864 72.2194 14.8675 72.2388 14.8759C72.2575 14.8839 72.2663 14.8923 72.267 14.8929L70.8528 16.3071ZM72.1334 16.8627C74.5264 16.9836 76.4632 17.032 78.8559 17.032V15.032C76.4966 15.032 74.5934 14.9844 72.2343 14.8653L72.1334 16.8627ZM78.8559 17.032C81.245 17.032 83.6622 16.9837 86.0583 16.8627L85.9574 14.8653C83.6015 14.9843 81.2187 15.032 78.8559 15.032V17.032ZM86.0079 16.864C86.5304 16.864 86.9961 16.65 87.339 16.3071L85.9248 14.8929C85.9254 14.8923 85.9343 14.8839 85.953 14.8759C85.9724 14.8675 85.9924 14.864 86.0079 14.864V16.864ZM87.339 16.3071C87.6837 15.9624 87.8699 15.5255 87.9149 15.0755L85.9248 14.8765C85.9231 14.8943 85.9198 14.9006 85.9204 14.8992C85.9206 14.8988 85.9213 14.8975 85.9224 14.8958C85.9236 14.8942 85.9245 14.8931 85.9248 14.8929L87.339 16.3071ZM87.9188 15.0214C87.9675 13.9509 88.0157 12.0195 88.0397 10.6252L86.04 10.5908C86.0161 11.9805 85.9682 13.8891 85.9209 14.9306L87.9188 15.0214ZM87.0399 9.608H72.0639V11.608H87.0399V9.608ZM72.1114 9.60913C71.1143 9.56165 70.3262 8.77354 70.2787 7.77643L68.281 7.87156C68.3775 9.89846 69.9894 11.5103 72.0163 11.6069L72.1114 9.60913ZM70.2799 7.824V1.224H68.2799V7.824H70.2799ZM69.2799 2.224H71.2479V0.223999H69.2799V2.224ZM70.2479 1.224V7.728H72.2479V1.224H70.2479ZM70.2528 7.8275C70.2978 8.27745 70.484 8.71437 70.8288 9.05911L72.243 7.64489C72.2432 7.64513 72.2442 7.64616 72.2453 7.64783C72.2465 7.64948 72.2471 7.65077 72.2474 7.65124C72.248 7.65261 72.2447 7.64629 72.2429 7.6285L70.2528 7.8275ZM70.8288 9.05911C71.1717 9.40202 71.6373 9.616 72.1599 9.616V7.616C72.1754 7.616 72.1954 7.61953 72.2148 7.62785C72.2335 7.63585 72.2423 7.64426 72.243 7.64489L70.8288 9.05911ZM72.1599 9.616H87.0399V7.616H72.1599V9.616ZM88.0399 8.616V1.224H86.0399V8.616H88.0399ZM110.844 15.288L111.837 15.3984L111.841 15.3671L111.842 15.3356L110.844 15.288ZM110.892 13.824V12.824H109.892V13.824H110.892ZM112.884 13.824L113.882 13.8716L113.932 12.824H112.884V13.824ZM112.812 15.384L113.81 15.4323L113.811 15.4294L112.812 15.384ZM110.028 18.144L109.996 17.1445L109.987 17.1448L109.978 17.1452L110.028 18.144ZM95.5316 18.144L95.5815 17.1452L95.5724 17.1448L95.5633 17.1445L95.5316 18.144ZM92.7476 15.384L93.7464 15.3357L93.746 15.3278L92.7476 15.384ZM92.7476 3.864L93.7463 3.91394L93.7464 3.91156L92.7476 3.864ZM95.5316 1.08L95.5791 2.07887L95.5815 2.07875L95.5316 1.08ZM110.028 1.08L109.978 2.07878L109.98 2.07887L110.028 1.08ZM112.812 3.864L111.813 3.91156V3.91157L112.812 3.864ZM112.884 5.424V6.424H113.93L113.883 5.37859L112.884 5.424ZM110.892 5.424H109.892V6.424H110.892V5.424ZM110.844 3.96L111.842 3.91006L111.841 3.88523L111.839 3.86049L110.844 3.96ZM110.556 3.336L109.848 4.04311V4.04311L110.556 3.336ZM109.932 3.048L110.031 2.05296L110.002 2.05001L109.972 2.04881L109.932 3.048ZM95.6036 3.048L95.5632 2.04881L95.5281 2.05023L95.4931 2.05412L95.6036 3.048ZM94.9796 3.336L95.6867 4.04311V4.04311L94.9796 3.336ZM94.7156 3.96L95.7142 4.01121L95.7156 3.98562V3.96H94.7156ZM94.7156 15.288H95.7156V15.2625L95.7143 15.2371L94.7156 15.288ZM95.6036 16.176L95.654 15.1773L95.6288 15.176H95.6036V16.176ZM109.932 16.176V15.176H109.906L109.881 15.1773L109.932 16.176ZM111.842 15.3356C111.866 14.8382 111.892 14.3326 111.892 13.824H109.892C109.892 14.2754 109.869 14.7298 109.845 15.2404L111.842 15.3356ZM110.892 14.824H112.884V12.824H110.892V14.824ZM111.885 13.7764C111.861 14.2817 111.837 14.8108 111.813 15.3386L113.811 15.4294C113.835 14.9012 113.858 14.3743 113.882 13.8716L111.885 13.7764ZM111.813 15.3357C111.765 16.3181 110.972 17.1135 109.996 17.1445L110.059 19.1435C112.107 19.0785 113.714 17.4259 113.81 15.4323L111.813 15.3357ZM109.978 17.1452C107.574 17.2643 105.166 17.312 102.78 17.312V19.312C105.193 19.312 107.633 19.2637 110.077 19.1428L109.978 17.1452ZM102.78 17.312C100.368 17.312 97.9615 17.2642 95.5815 17.1452L95.4816 19.1428C97.9016 19.2638 100.343 19.312 102.78 19.312V17.312ZM95.5633 17.1445C94.5873 17.1135 93.7939 16.3181 93.7464 15.3357L91.7487 15.4323C91.8452 17.4259 93.4518 19.0785 95.4998 19.1435L95.5633 17.1445ZM93.746 15.3278C93.5323 11.5291 93.5558 7.7251 93.7463 3.91394L91.7488 3.81406C91.5554 7.6829 91.5308 11.5589 91.7491 15.4402L93.746 15.3278ZM93.7464 3.91156C93.7939 2.91446 94.582 2.12635 95.5791 2.07887L95.484 0.0811308C93.4571 0.17765 91.8452 1.78954 91.7487 3.81643L93.7464 3.91156ZM95.5815 2.07875C97.9615 1.95975 100.368 1.912 102.78 1.912V-0.0880003C100.343 -0.0880003 97.9016 -0.0397521 95.4816 0.0812466L95.5815 2.07875ZM102.78 1.912C105.166 1.912 107.574 1.95974 109.978 2.07878L110.077 0.0812221C107.633 -0.0397439 105.193 -0.0880003 102.78 -0.0880003V1.912ZM109.98 2.07887C110.977 2.12635 111.765 2.91446 111.813 3.91156L113.81 3.81643C113.714 1.78954 112.102 0.17765 110.075 0.0811308L109.98 2.07887ZM111.813 3.91157C111.837 4.41429 111.861 4.94119 111.885 5.46941L113.883 5.37859C113.859 4.85081 113.834 4.3217 113.81 3.81643L111.813 3.91157ZM112.884 4.424H110.892V6.424H112.884V4.424ZM111.892 5.424C111.892 4.89116 111.866 4.38679 111.842 3.91006L109.845 4.00994C109.869 4.49321 109.892 4.94884 109.892 5.424H111.892ZM111.839 3.86049C111.794 3.41055 111.607 2.97363 111.263 2.62889L109.848 4.04311C109.848 4.04287 109.847 4.04184 109.846 4.04017C109.845 4.03852 109.844 4.03723 109.844 4.03676C109.843 4.03539 109.847 4.04171 109.849 4.05951L111.839 3.86049ZM111.263 2.62889C110.918 2.28416 110.481 2.09796 110.031 2.05296L109.832 4.04304C109.85 4.04482 109.856 4.0481 109.855 4.04747C109.854 4.04726 109.853 4.0466 109.851 4.04546C109.85 4.0443 109.849 4.04335 109.848 4.04311L111.263 2.62889ZM109.972 2.04881C107.59 1.95257 105.175 1.88 102.78 1.88V3.88C105.136 3.88 107.521 3.95143 109.891 4.04718L109.972 2.04881ZM102.78 1.88C100.384 1.88 97.9455 1.95256 95.5632 2.04881L95.6439 4.04718C98.0136 3.95144 100.423 3.88 102.78 3.88V1.88ZM95.4931 2.05412C95.0951 2.09834 94.6295 2.27182 94.2725 2.62889L95.6867 4.04311C95.6783 4.05145 95.6729 4.05511 95.6723 4.05555C95.6716 4.05597 95.674 4.05434 95.6797 4.05181C95.6854 4.04929 95.6922 4.04682 95.6995 4.04486C95.7068 4.04288 95.712 4.0421 95.714 4.04188L95.4931 2.05412ZM94.2725 2.62889C93.9295 2.9718 93.7156 3.43745 93.7156 3.96H95.7156C95.7156 3.97548 95.712 3.99549 95.7037 4.01492C95.6957 4.03358 95.6873 4.04248 95.6867 4.04311L94.2725 2.62889ZM93.7169 3.90878C93.5231 7.68701 93.5231 11.5371 93.7169 15.3389L95.7143 15.2371C95.524 11.5029 95.524 7.72099 95.7142 4.01121L93.7169 3.90878ZM93.7156 15.288C93.7156 15.7722 93.9191 16.2657 94.2725 16.6191L95.6867 15.2049C95.702 15.2202 95.7063 15.2302 95.7076 15.2334C95.7087 15.236 95.7104 15.2406 95.7119 15.248C95.7135 15.2552 95.7156 15.2685 95.7156 15.288H93.7156ZM94.2725 16.6191C94.6259 16.9725 95.1193 17.176 95.6036 17.176V15.176C95.6231 15.176 95.6363 15.1781 95.6436 15.1796C95.651 15.1812 95.6555 15.1828 95.6582 15.1839C95.6613 15.1852 95.6714 15.1896 95.6867 15.2049L94.2725 16.6191ZM95.5531 17.1747C97.9494 17.2957 100.391 17.344 102.78 17.344V15.344C100.417 15.344 98.0098 15.2963 95.654 15.1773L95.5531 17.1747ZM102.78 17.344C105.169 17.344 107.586 17.2957 109.982 17.1747L109.881 15.1773C107.525 15.2963 105.142 15.344 102.78 15.344V17.344ZM109.932 17.176C110.454 17.176 110.92 16.962 111.263 16.6191L109.848 15.2049C109.849 15.2043 109.858 15.1959 109.877 15.1879C109.896 15.1795 109.916 15.176 109.932 15.176V17.176ZM111.263 16.6191C111.62 16.262 111.793 15.7965 111.837 15.3984L109.85 15.1776C109.849 15.1795 109.849 15.1848 109.847 15.1921C109.845 15.1993 109.842 15.2062 109.84 15.2119C109.837 15.2175 109.836 15.2199 109.836 15.2193C109.836 15.2186 109.84 15.2132 109.848 15.2049L111.263 16.6191ZM134.023 15.288L135.017 15.3984L135.021 15.3671L135.022 15.3356L134.023 15.288ZM134.071 13.824V12.824H133.071V13.824H134.071ZM136.063 13.824L137.062 13.8716L137.112 12.824H136.063V13.824ZM135.991 15.384L136.99 15.4323L136.99 15.4294L135.991 15.384ZM133.207 18.144L133.176 17.1445L133.167 17.1448L133.158 17.1452L133.207 18.144ZM118.711 18.144L118.761 17.1452L118.752 17.1448L118.743 17.1445L118.711 18.144ZM115.927 15.384L116.926 15.3357L116.926 15.3278L115.927 15.384ZM115.927 3.864L116.926 3.91394L116.926 3.91156L115.927 3.864ZM118.711 1.08L118.759 2.07887L118.761 2.07875L118.711 1.08ZM133.207 1.08L133.158 2.07878L133.16 2.07887L133.207 1.08ZM135.991 3.864L134.992 3.91156V3.91157L135.991 3.864ZM136.063 5.424V6.424H137.11L137.062 5.37859L136.063 5.424ZM134.071 5.424H133.071V6.424H134.071V5.424ZM134.023 3.96L135.022 3.91006L135.021 3.88523L135.018 3.86049L134.023 3.96ZM133.735 3.336L133.028 4.04311L133.028 4.04311L133.735 3.336ZM133.111 3.048L133.211 2.05296L133.181 2.05001L133.152 2.04881L133.111 3.048ZM118.783 3.048L118.743 2.04881L118.708 2.05023L118.673 2.05412L118.783 3.048ZM118.159 3.336L118.866 4.04311V4.04311L118.159 3.336ZM117.895 3.96L118.894 4.01121L118.895 3.98562V3.96H117.895ZM117.895 15.288H118.895V15.2625L118.894 15.2371L117.895 15.288ZM118.783 16.176L118.834 15.1773L118.808 15.176H118.783V16.176ZM133.111 16.176V15.176H133.086L133.061 15.1773L133.111 16.176ZM135.022 15.3356C135.046 14.8382 135.071 14.3326 135.071 13.824H133.071C133.071 14.2754 133.049 14.7298 133.024 15.2404L135.022 15.3356ZM134.071 14.824H136.063V12.824H134.071V14.824ZM135.064 13.7764C135.04 14.2817 135.016 14.8108 134.992 15.3386L136.99 15.4294C137.014 14.9012 137.038 14.3743 137.062 13.8716L135.064 13.7764ZM134.992 15.3357C134.945 16.3181 134.152 17.1135 133.176 17.1445L133.239 19.1435C135.287 19.0785 136.894 17.4259 136.99 15.4323L134.992 15.3357ZM133.158 17.1452C130.753 17.2643 128.346 17.312 125.959 17.312V19.312C128.372 19.312 130.813 19.2637 133.257 19.1428L133.158 17.1452ZM125.959 17.312C123.548 17.312 121.141 17.2642 118.761 17.1452L118.661 19.1428C121.081 19.2638 123.522 19.312 125.959 19.312V17.312ZM118.743 17.1445C117.767 17.1135 116.974 16.3181 116.926 15.3357L114.928 15.4323C115.025 17.4259 116.632 19.0785 118.68 19.1435L118.743 17.1445ZM116.926 15.3278C116.712 11.5291 116.735 7.7251 116.926 3.91394L114.928 3.81406C114.735 7.6829 114.711 11.5589 114.929 15.4402L116.926 15.3278ZM116.926 3.91156C116.974 2.91446 117.762 2.12635 118.759 2.07887L118.664 0.0811308C116.637 0.17765 115.025 1.78954 114.928 3.81643L116.926 3.91156ZM118.761 2.07875C121.141 1.95975 123.548 1.912 125.959 1.912V-0.0880003C123.522 -0.0880003 121.081 -0.0397521 118.661 0.0812466L118.761 2.07875ZM125.959 1.912C128.346 1.912 130.753 1.95974 133.158 2.07878L133.257 0.0812221C130.813 -0.0397439 128.372 -0.0880003 125.959 -0.0880003V1.912ZM133.16 2.07887C134.157 2.12635 134.945 2.91446 134.992 3.91156L136.99 3.81643C136.894 1.78954 135.282 0.17765 133.255 0.0811308L133.16 2.07887ZM134.992 3.91157C135.016 4.41429 135.04 4.94119 135.064 5.46941L137.062 5.37859C137.038 4.85081 137.014 4.3217 136.99 3.81643L134.992 3.91157ZM136.063 4.424H134.071V6.424H136.063V4.424ZM135.071 5.424C135.071 4.89116 135.046 4.38679 135.022 3.91006L133.025 4.00994C133.049 4.49321 133.071 4.94884 133.071 5.424H135.071ZM135.018 3.86049C134.973 3.41055 134.787 2.97363 134.442 2.62889L133.028 4.04311C133.028 4.04287 133.027 4.04184 133.026 4.04017C133.025 4.03852 133.024 4.03723 133.024 4.03676C133.023 4.03539 133.026 4.04171 133.028 4.05951L135.018 3.86049ZM134.442 2.62889C134.098 2.28416 133.661 2.09796 133.211 2.05296L133.012 4.04304C133.03 4.04482 133.036 4.0481 133.034 4.04747C133.034 4.04726 133.033 4.0466 133.031 4.04546C133.029 4.0443 133.028 4.04335 133.028 4.04311L134.442 2.62889ZM133.152 2.04881C130.77 1.95257 128.354 1.88 125.959 1.88V3.88C128.316 3.88 130.701 3.95143 133.071 4.04718L133.152 2.04881ZM125.959 1.88C123.564 1.88 121.125 1.95256 118.743 2.04881L118.824 4.04718C121.193 3.95144 123.602 3.88 125.959 3.88V1.88ZM118.673 2.05412C118.275 2.09834 117.809 2.27182 117.452 2.62889L118.866 4.04311C118.858 4.05145 118.853 4.05511 118.852 4.05555C118.851 4.05597 118.854 4.05434 118.859 4.05181C118.865 4.04929 118.872 4.04682 118.879 4.04486C118.886 4.04288 118.892 4.0421 118.894 4.04188L118.673 2.05412ZM117.452 2.62889C117.109 2.9718 116.895 3.43745 116.895 3.96H118.895C118.895 3.97548 118.892 3.99549 118.883 4.01492C118.875 4.03358 118.867 4.04248 118.866 4.04311L117.452 2.62889ZM116.897 3.90878C116.703 7.68701 116.703 11.5371 116.897 15.3389L118.894 15.2371C118.704 11.5029 118.704 7.72099 118.894 4.01121L116.897 3.90878ZM116.895 15.288C116.895 15.7722 117.099 16.2657 117.452 16.6191L118.866 15.2049C118.882 15.2202 118.886 15.2302 118.887 15.2334C118.888 15.236 118.89 15.2406 118.892 15.248C118.893 15.2552 118.895 15.2685 118.895 15.288H116.895ZM117.452 16.6191C117.806 16.9725 118.299 17.176 118.783 17.176V15.176C118.803 15.176 118.816 15.1781 118.823 15.1796C118.831 15.1812 118.835 15.1828 118.838 15.1839C118.841 15.1852 118.851 15.1896 118.866 15.2049L117.452 16.6191ZM118.733 17.1747C121.129 17.2957 123.57 17.344 125.959 17.344V15.344C123.596 15.344 121.189 15.2963 118.834 15.1773L118.733 17.1747ZM125.959 17.344C128.348 17.344 130.766 17.2957 133.162 17.1747L133.061 15.1773C130.705 15.2963 128.322 15.344 125.959 15.344V17.344ZM133.111 17.176C133.634 17.176 134.099 16.962 134.442 16.6191L133.028 15.2049C133.029 15.2043 133.038 15.1959 133.056 15.1879C133.076 15.1795 133.096 15.176 133.111 15.176V17.176ZM134.442 16.6191C134.799 16.262 134.973 15.7965 135.017 15.3984L133.029 15.1776C133.029 15.1795 133.028 15.1848 133.026 15.1921C133.024 15.1993 133.022 15.2062 133.019 15.2119C133.017 15.2175 133.015 15.2199 133.016 15.2193C133.016 15.2186 133.02 15.2132 133.028 15.2049L134.442 16.6191ZM137.571 1.224V0.223999H136.571V1.224H137.571ZM153.363 1.224H154.363V0.223999H153.363V1.224ZM153.363 3.192V4.192H154.363V3.192H153.363ZM146.451 3.192V2.192H145.451V3.192H146.451ZM146.451 18V19H147.451V18H146.451ZM144.459 18H143.459V19H144.459V18ZM144.459 3.192H145.459V2.192H144.459V3.192ZM137.571 3.192H136.571V4.192H137.571V3.192ZM137.571 2.224H153.363V0.223999H137.571V2.224ZM152.363 1.224V3.192H154.363V1.224H152.363ZM153.363 2.192H146.451V4.192H153.363V2.192ZM145.451 3.192V18H147.451V3.192H145.451ZM146.451 17H144.459V19H146.451V17ZM145.459 18V3.192H143.459V18H145.459ZM144.459 2.192H137.571V4.192H144.459V2.192ZM138.571 3.192V1.224H136.571V3.192H138.571ZM173.846 7.968L172.963 7.49741L172.485 8.3936L173.389 8.85757L173.846 7.968ZM175.382 10.392H176.382V10.3693L176.381 10.3466L175.382 10.392ZM175.382 15.216L176.381 15.2636L176.382 15.2398V15.216H175.382ZM172.622 18V19H172.646L172.67 18.9988L172.622 18ZM155.654 18H154.654V19H155.654V18ZM155.654 1.224V0.223999H154.654V1.224H155.654ZM171.374 1.224L171.421 0.22513L171.398 0.223999H171.374V1.224ZM174.158 4.008H175.158V3.9842L175.157 3.96044L174.158 4.008ZM174.158 6.816L175.156 6.87472L175.158 6.84539V6.816H174.158ZM157.622 3.192V2.192H156.622V3.192H157.622ZM157.622 7.608H156.622V8.608H157.622V7.608ZM171.902 7.344L172.609 8.05111V8.0511L171.902 7.344ZM172.19 6.72L173.185 6.8195L173.19 6.76987V6.72H172.19ZM172.19 4.104H173.19V4.05412L173.185 4.0045L172.19 4.104ZM171.278 3.192L171.377 2.19696L171.328 2.192H171.278V3.192ZM173.15 9.864L172.443 10.5711V10.5711L173.15 9.864ZM172.502 9.6V8.6L172.5 8.6L172.502 9.6ZM157.622 9.624L157.62 8.624L156.622 8.62561V9.624H157.622ZM157.622 16.032H156.622V17.032H157.622V16.032ZM173.15 15.768L172.443 15.0609V15.0609L173.15 15.768ZM173.389 8.85757C173.956 9.14877 174.351 9.73751 174.383 10.4374L176.381 10.3466C176.317 8.93449 175.512 7.69923 174.303 7.07843L173.389 8.85757ZM174.382 10.392V15.216H176.382V10.392H174.382ZM174.383 15.1684C174.335 16.1706 173.542 16.9543 172.573 17.0012L172.67 18.9988C174.677 18.9017 176.284 17.2854 176.381 15.2636L174.383 15.1684ZM172.622 17H155.654V19H172.622V17ZM156.654 18V1.224H154.654V18H156.654ZM155.654 2.224H171.374V0.223999H155.654V2.224ZM171.326 2.22287C172.323 2.27035 173.111 3.05846 173.159 4.05556L175.157 3.96044C175.06 1.93354 173.448 0.32165 171.421 0.22513L171.326 2.22287ZM173.158 4.008V6.816H175.158V4.008H173.158ZM173.16 6.75728C173.143 7.04197 173.078 7.28187 172.963 7.49741L174.728 8.43859C174.997 7.93413 175.125 7.40602 175.156 6.87472L173.16 6.75728ZM156.622 3.192V7.608H158.622V3.192H156.622ZM157.622 8.608H171.278V6.608H157.622V8.608ZM171.278 8.608C171.8 8.608 172.266 8.39402 172.609 8.05111L171.195 6.63689C171.195 6.63626 171.204 6.62785 171.223 6.61985C171.242 6.61153 171.262 6.608 171.278 6.608V8.608ZM172.609 8.0511C172.954 7.70637 173.14 7.26945 173.185 6.8195L171.195 6.6205C171.193 6.63829 171.19 6.64461 171.19 6.64324C171.191 6.64277 171.191 6.64148 171.192 6.63983C171.194 6.63816 171.194 6.63713 171.195 6.63689L172.609 8.0511ZM173.19 6.72V4.104H171.19V6.72H173.19ZM173.185 4.0045C173.14 3.55455 172.954 3.11763 172.609 2.77289L171.195 4.18711C171.194 4.18687 171.194 4.18584 171.192 4.18417C171.191 4.18252 171.191 4.18123 171.19 4.18076C171.19 4.17938 171.193 4.18571 171.195 4.2035L173.185 4.0045ZM172.609 2.77289C172.264 2.42816 171.827 2.24196 171.377 2.19696L171.178 4.18704C171.196 4.18882 171.202 4.1921 171.201 4.19147C171.201 4.19126 171.199 4.1906 171.198 4.18946C171.196 4.1883 171.195 4.18735 171.195 4.18711L172.609 2.77289ZM171.278 2.192H157.622V4.192H171.278V2.192ZM174.414 15.144V10.488H172.414V15.144H174.414ZM174.414 10.488C174.414 9.96545 174.2 9.4998 173.857 9.15689L172.443 10.5711C172.442 10.5705 172.434 10.5616 172.426 10.5429C172.417 10.5235 172.414 10.5035 172.414 10.488H174.414ZM173.857 9.15689C173.494 8.79373 172.996 8.6 172.502 8.6V10.6C172.49 10.6 172.482 10.5979 172.477 10.5957C172.472 10.5936 172.459 10.5874 172.443 10.5711L173.857 9.15689ZM172.5 8.6L157.62 8.624L157.623 10.624L172.503 10.6L172.5 8.6ZM156.622 9.624V16.032H158.622V9.624H156.622ZM157.622 17.032H172.526V15.032H157.622V17.032ZM172.526 17.032C173.01 17.032 173.504 16.8285 173.857 16.4751L172.443 15.0609C172.458 15.0456 172.468 15.0412 172.471 15.0399C172.474 15.0388 172.478 15.0372 172.486 15.0356C172.493 15.0341 172.506 15.032 172.526 15.032V17.032ZM173.857 16.4751C174.21 16.1217 174.414 15.6282 174.414 15.144H172.414C172.414 15.1245 172.416 15.1112 172.417 15.104C172.419 15.0966 172.421 15.092 172.422 15.0894C172.423 15.0862 172.427 15.0762 172.443 15.0609L173.857 16.4751ZM198.757 3.864L197.758 3.91156L197.758 3.91394L198.757 3.864ZM198.757 15.384L197.758 15.3341L197.758 15.3357L198.757 15.384ZM195.973 18.144L195.941 17.1445L195.932 17.1448L195.923 17.1452L195.973 18.144ZM181.477 18.144L181.527 17.1452L181.518 17.1448L181.509 17.1445L181.477 18.144ZM178.693 15.384L179.692 15.3357L179.691 15.3278L178.693 15.384ZM178.693 3.864L179.691 3.92016L179.692 3.91156L178.693 3.864ZM181.477 1.08L181.524 2.07887L181.527 2.07875L181.477 1.08ZM195.973 1.08L195.923 2.07878L195.925 2.07887L195.973 1.08ZM196.789 15.288L197.783 15.3984L197.786 15.3687L197.788 15.3389L196.789 15.288ZM196.789 3.96L197.788 3.90878L197.786 3.88459L197.784 3.86049L196.789 3.96ZM196.501 3.336L195.794 4.04311L195.794 4.04311L196.501 3.336ZM195.877 3.048L195.976 2.05296L195.947 2.05001L195.917 2.04881L195.877 3.048ZM181.549 3.048L181.508 2.04881L181.473 2.05023L181.438 2.05412L181.549 3.048ZM180.925 3.336L181.632 4.04311L181.632 4.04311L180.925 3.336ZM180.661 3.96L181.66 4.01121L181.661 3.98562V3.96H180.661ZM180.661 15.288H181.661V15.2625L181.66 15.2371L180.661 15.288ZM181.549 16.176L181.599 15.1773L181.574 15.176H181.549V16.176ZM195.877 16.176V15.176H195.852L195.826 15.1773L195.877 16.176ZM197.758 3.91394C197.948 7.72067 197.948 11.5273 197.758 15.3341L199.756 15.4339C199.949 11.5607 199.949 7.68733 199.756 3.81406L197.758 3.91394ZM197.758 15.3357C197.711 16.3181 196.917 17.1135 195.941 17.1445L196.005 19.1435C198.053 19.0785 199.659 17.4259 199.756 15.4323L197.758 15.3357ZM195.923 17.1452C193.519 17.2643 191.112 17.312 188.725 17.312V19.312C191.138 19.312 193.579 19.2637 196.022 19.1428L195.923 17.1452ZM188.725 17.312C186.314 17.312 183.907 17.2642 181.527 17.1452L181.427 19.1428C183.847 19.2638 186.288 19.312 188.725 19.312V17.312ZM181.509 17.1445C180.533 17.1135 179.739 16.3181 179.692 15.3357L177.694 15.4323C177.791 17.4259 179.397 19.0785 181.445 19.1435L181.509 17.1445ZM179.691 15.3278C179.477 11.5252 179.477 7.72275 179.691 3.92016L177.694 3.80784C177.476 7.68525 177.476 11.5627 177.694 15.4402L179.691 15.3278ZM179.692 3.91156C179.739 2.91446 180.527 2.12635 181.524 2.07887L181.429 0.0811308C179.402 0.17765 177.791 1.78954 177.694 3.81643L179.692 3.91156ZM181.527 2.07875C183.907 1.95975 186.314 1.912 188.725 1.912V-0.0880003C186.288 -0.0880003 183.847 -0.0397521 181.427 0.0812466L181.527 2.07875ZM188.725 1.912C191.112 1.912 193.519 1.95974 195.923 2.07878L196.022 0.0812221C193.579 -0.0397439 191.138 -0.0880003 188.725 -0.0880003V1.912ZM195.925 2.07887C196.922 2.12635 197.711 2.91446 197.758 3.91156L199.756 3.81643C199.659 1.78954 198.047 0.17765 196.02 0.0811308L195.925 2.07887ZM197.788 15.3389C197.981 11.5371 197.981 7.68701 197.788 3.90878L195.79 4.01121C195.98 7.72098 195.98 11.5029 195.79 15.2371L197.788 15.3389ZM197.784 3.86049C197.739 3.41055 197.553 2.97363 197.208 2.62889L195.794 4.04311C195.794 4.04287 195.793 4.04184 195.791 4.04017C195.79 4.03852 195.79 4.03723 195.789 4.03676C195.789 4.03539 195.792 4.04171 195.794 4.05951L197.784 3.86049ZM197.208 2.62889C196.863 2.28416 196.426 2.09796 195.976 2.05296L195.777 4.04304C195.795 4.04482 195.801 4.0481 195.8 4.04747C195.8 4.04726 195.798 4.0466 195.797 4.04546C195.795 4.0443 195.794 4.04335 195.794 4.04311L197.208 2.62889ZM195.917 2.04881C193.535 1.95257 191.12 1.88 188.725 1.88V3.88C191.082 3.88 193.467 3.95143 195.837 4.04718L195.917 2.04881ZM188.725 1.88C186.33 1.88 183.891 1.95256 181.508 2.04881L181.589 4.04718C183.959 3.95144 186.368 3.88 188.725 3.88V1.88ZM181.438 2.05412C181.04 2.09834 180.575 2.27182 180.218 2.62889L181.632 4.04311C181.624 4.05145 181.618 4.05511 181.618 4.05555C181.617 4.05597 181.619 4.05434 181.625 4.05181C181.631 4.04929 181.638 4.04682 181.645 4.04486C181.652 4.04288 181.657 4.0421 181.659 4.04188L181.438 2.05412ZM180.218 2.62889C179.875 2.9718 179.661 3.43745 179.661 3.96H181.661C181.661 3.97548 181.657 3.99549 181.649 4.01492C181.641 4.03358 181.633 4.04248 181.632 4.04311L180.218 2.62889ZM179.662 3.90878C179.468 7.68701 179.468 11.5371 179.662 15.3389L181.66 15.2371C181.469 11.5029 181.469 7.72099 181.66 4.01121L179.662 3.90878ZM179.661 15.288C179.661 15.7722 179.864 16.2657 180.218 16.6191L181.632 15.2049C181.647 15.2202 181.652 15.2302 181.653 15.2334C181.654 15.236 181.656 15.2406 181.657 15.248C181.659 15.2552 181.661 15.2685 181.661 15.288H179.661ZM180.218 16.6191C180.571 16.9725 181.065 17.176 181.549 17.176V15.176C181.568 15.176 181.582 15.1781 181.589 15.1796C181.596 15.1812 181.601 15.1828 181.603 15.1839C181.607 15.1852 181.617 15.1896 181.632 15.2049L180.218 16.6191ZM181.498 17.1747C183.895 17.2957 186.336 17.344 188.725 17.344V15.344C186.362 15.344 183.955 15.2963 181.599 15.1773L181.498 17.1747ZM188.725 17.344C191.114 17.344 193.531 17.2957 195.927 17.1747L195.826 15.1773C193.471 15.2963 191.088 15.344 188.725 15.344V17.344ZM195.877 17.176C196.399 17.176 196.865 16.962 197.208 16.6191L195.794 15.2049C195.794 15.2043 195.803 15.1959 195.822 15.1879C195.841 15.1795 195.861 15.176 195.877 15.176V17.176ZM197.208 16.6191C197.565 16.262 197.739 15.7965 197.783 15.3984L195.795 15.1776C195.795 15.1795 195.794 15.1848 195.792 15.1921C195.79 15.1993 195.788 15.2062 195.785 15.2119C195.783 15.2175 195.781 15.2199 195.781 15.2193C195.782 15.2186 195.785 15.2132 195.794 15.2049L197.208 16.6191Z" fill="#B4B4B4" mask="url(#path-1-outside-1_41_62)"/>
</g>
</svg>
