<svg width="793" height="71" viewBox="0 0 793 71" fill="none" xmlns="http://www.w3.org/2000/svg">
<g opacity="0.2">
<mask id="path-1-outside-1_20_122" maskUnits="userSpaceOnUse" x="-1" y="-1" width="795" height="73" fill="black">
<rect fill="white" x="-1" y="-1" width="795" height="73"/>
<path d="M65.576 1.89599H79.496V69H71.624V9.768H69.416L14.504 69H0.584V1.89599H8.456V61.128H11.048L65.576 1.89599ZM167.187 58.152C167.283 56.136 167.379 54.216 167.379 52.296H175.347C175.251 54.312 175.155 56.424 175.059 58.536C174.771 64.488 169.971 69.384 163.923 69.576C154.227 70.056 144.531 70.248 134.931 70.248C125.235 70.248 115.539 70.056 105.939 69.576C99.8907 69.384 95.0908 64.488 94.8028 58.536C93.9388 43.176 94.0348 27.816 94.8028 12.456C95.0908 6.408 99.8907 1.608 105.939 1.32C115.539 0.839996 125.235 0.647999 134.931 0.647999C144.531 0.647999 154.227 0.839996 163.923 1.32C169.971 1.608 174.771 6.408 175.059 12.456C175.155 14.472 175.251 16.584 175.347 18.696H167.379C167.379 16.68 167.283 14.76 167.187 12.84C167.091 11.88 166.707 11.016 166.035 10.344C165.363 9.672 164.499 9.288 163.539 9.192C154.035 8.808 144.435 8.51999 134.931 8.51999C125.427 8.51999 115.731 8.808 106.227 9.192C105.363 9.288 104.403 9.672 103.731 10.344C103.059 11.016 102.675 11.88 102.675 12.84C101.907 27.816 101.907 43.08 102.675 58.152C102.675 59.016 103.059 59.976 103.731 60.648C104.403 61.32 105.363 61.704 106.227 61.704C115.731 62.184 125.427 62.376 134.931 62.376C144.435 62.376 154.035 62.184 163.539 61.704C164.499 61.704 165.363 61.32 166.035 60.648C166.707 59.976 167.091 59.016 167.187 58.152ZM266.53 1.89599L217.186 35.496L266.53 69L252.514 69.096L209.026 39.432H195.49V69.096H187.618V1.89599H195.49V31.56H208.93L252.418 1.992L266.53 1.89599ZM345.16 1.89599H353.128V38.76C353.032 44.136 352.84 52.104 352.552 57.288C352.264 63.336 347.368 68.136 341.416 68.424C331.72 68.808 322.024 69 312.424 69C302.728 69 295.048 68.808 285.352 68.424C279.4 68.136 274.504 63.336 274.216 57.288C274.12 55.176 274.023 53.16 274.023 51.048H281.896C281.992 52.968 281.992 54.888 282.088 56.904C282.184 57.864 282.568 58.728 283.24 59.4C283.912 60.072 284.776 60.456 285.736 60.456C295.24 60.936 302.92 61.128 312.424 61.128C321.927 61.128 331.528 60.936 341.032 60.456C341.992 60.456 342.856 60.072 343.528 59.4C344.2 58.728 344.584 57.864 344.68 56.904C344.872 52.68 345.064 45 345.16 39.432H285.256C279.208 39.144 274.408 34.344 274.12 28.296V1.89599H281.992V27.912C282.088 28.872 282.472 29.736 283.144 30.408C283.816 31.08 284.68 31.464 285.64 31.464H345.16V1.89599ZM440.374 58.152C440.47 56.136 440.566 54.216 440.566 52.296H448.534C448.438 54.312 448.342 56.424 448.246 58.536C447.958 64.488 443.158 69.384 437.11 69.576C427.414 70.056 417.718 70.248 408.118 70.248C398.422 70.248 388.726 70.056 379.126 69.576C373.078 69.384 368.278 64.488 367.99 58.536C367.126 43.176 367.222 27.816 367.99 12.456C368.278 6.408 373.078 1.608 379.126 1.32C388.726 0.839996 398.422 0.647999 408.118 0.647999C417.718 0.647999 427.414 0.839996 437.11 1.32C443.158 1.608 447.958 6.408 448.246 12.456C448.342 14.472 448.438 16.584 448.534 18.696H440.566C440.566 16.68 440.47 14.76 440.374 12.84C440.278 11.88 439.894 11.016 439.222 10.344C438.55 9.672 437.686 9.288 436.726 9.192C427.222 8.808 417.622 8.51999 408.118 8.51999C398.614 8.51999 388.918 8.808 379.414 9.192C378.55 9.288 377.59 9.672 376.918 10.344C376.246 11.016 375.862 11.88 375.862 12.84C375.094 27.816 375.094 43.08 375.862 58.152C375.862 59.016 376.246 59.976 376.918 60.648C377.59 61.32 378.55 61.704 379.414 61.704C388.918 62.184 398.614 62.376 408.118 62.376C417.622 62.376 427.222 62.184 436.726 61.704C437.686 61.704 438.55 61.32 439.222 60.648C439.894 59.976 440.278 59.016 440.374 58.152ZM533.093 58.152C533.189 56.136 533.285 54.216 533.285 52.296H541.253C541.157 54.312 541.061 56.424 540.965 58.536C540.677 64.488 535.877 69.384 529.829 69.576C520.133 70.056 510.437 70.248 500.837 70.248C491.141 70.248 481.445 70.056 471.845 69.576C465.797 69.384 460.997 64.488 460.709 58.536C459.845 43.176 459.941 27.816 460.709 12.456C460.997 6.408 465.797 1.608 471.845 1.32C481.445 0.839996 491.141 0.647999 500.837 0.647999C510.437 0.647999 520.133 0.839996 529.829 1.32C535.877 1.608 540.677 6.408 540.965 12.456C541.061 14.472 541.157 16.584 541.253 18.696H533.285C533.285 16.68 533.189 14.76 533.093 12.84C532.997 11.88 532.613 11.016 531.941 10.344C531.269 9.672 530.405 9.288 529.445 9.192C519.941 8.808 510.341 8.51999 500.837 8.51999C491.333 8.51999 481.637 8.808 472.133 9.192C471.269 9.288 470.309 9.672 469.637 10.344C468.965 11.016 468.581 11.88 468.581 12.84C467.813 27.816 467.813 43.08 468.581 58.152C468.581 59.016 468.965 59.976 469.637 60.648C470.309 61.32 471.269 61.704 472.133 61.704C481.637 62.184 491.333 62.376 500.837 62.376C510.341 62.376 519.941 62.184 529.445 61.704C530.405 61.704 531.269 61.32 531.941 60.648C532.613 59.976 532.997 59.016 533.093 58.152ZM547.284 1.89599H610.452V9.768H582.804V69H574.836V9.768H547.284V1.89599ZM692.383 28.872C695.935 30.696 698.335 34.344 698.527 38.568V57.864C698.239 63.912 693.439 68.712 687.487 69H619.615V1.89599H682.495C688.543 2.184 693.343 6.984 693.631 13.032V24.264C693.535 25.896 693.151 27.432 692.383 28.872ZM627.487 9.768V27.432H682.111C683.071 27.432 683.935 27.048 684.607 26.376C685.279 25.704 685.663 24.84 685.759 23.88V13.416C685.663 12.456 685.279 11.592 684.607 10.92C683.935 10.248 683.071 9.86399 682.111 9.768H627.487ZM690.655 57.576V38.952C690.655 37.992 690.271 37.128 689.599 36.456C688.927 35.784 687.967 35.4 687.007 35.4L627.487 35.496V61.128H687.103C687.967 61.128 688.927 60.744 689.599 60.072C690.271 59.4 690.655 58.44 690.655 57.576ZM792.028 12.456C792.796 27.816 792.796 43.176 792.028 58.536C791.74 64.488 786.94 69.384 780.892 69.576C771.196 70.056 761.5 70.248 751.9 70.248C742.204 70.248 732.508 70.056 722.908 69.576C716.859 69.384 712.06 64.488 711.772 58.536C710.908 43.176 710.908 27.816 711.772 12.456C712.06 6.408 716.859 1.608 722.908 1.32C732.508 0.839996 742.204 0.647999 751.9 0.647999C761.5 0.647999 771.196 0.839996 780.892 1.32C786.94 1.608 791.74 6.408 792.028 12.456ZM784.156 58.152C784.924 43.08 784.924 27.816 784.156 12.84C784.06 11.88 783.676 11.016 783.004 10.344C782.332 9.672 781.468 9.288 780.508 9.192C771.004 8.808 761.404 8.51999 751.9 8.51999C742.396 8.51999 732.7 8.808 723.196 9.192C722.332 9.288 721.372 9.672 720.7 10.344C720.028 11.016 719.644 11.88 719.644 12.84C718.876 27.816 718.876 43.08 719.644 58.152C719.644 59.016 720.028 59.976 720.7 60.648C721.372 61.32 722.332 61.704 723.196 61.704C732.7 62.184 742.396 62.376 751.9 62.376C761.404 62.376 771.004 62.184 780.508 61.704C781.468 61.704 782.332 61.32 783.004 60.648C783.676 59.976 784.06 59.016 784.156 58.152Z"/>
</mask>
<path d="M65.576 1.89599V0.895994H65.1374L64.8403 1.21871L65.576 1.89599ZM79.496 1.89599H80.496V0.895994H79.496V1.89599ZM79.496 69V70H80.496V69H79.496ZM71.624 69H70.624V70H71.624V69ZM71.624 9.768H72.624V8.768H71.624V9.768ZM69.416 9.768V8.768H68.9795L68.6827 9.08814L69.416 9.768ZM14.504 69V70H14.9406L15.2373 69.6799L14.504 69ZM0.584 69H-0.416V70H0.584V69ZM0.584 1.89599V0.895994H-0.416V1.89599H0.584ZM8.456 1.89599H9.456V0.895994H8.456V1.89599ZM8.456 61.128H7.456V62.128H8.456V61.128ZM11.048 61.128V62.128H11.4866L11.7837 61.8053L11.048 61.128ZM65.576 2.89599H79.496V0.895994H65.576V2.89599ZM78.496 1.89599V69H80.496V1.89599H78.496ZM79.496 68H71.624V70H79.496V68ZM72.624 69V9.768H70.624V69H72.624ZM71.624 8.768H69.416V10.768H71.624V8.768ZM68.6827 9.08814L13.7707 68.3201L15.2373 69.6799L70.1493 10.4479L68.6827 9.08814ZM14.504 68H0.584V70H14.504V68ZM1.584 69V1.89599H-0.416V69H1.584ZM0.584 2.89599H8.456V0.895994H0.584V2.89599ZM7.456 1.89599V61.128H9.456V1.89599H7.456ZM8.456 62.128H11.048V60.128H8.456V62.128ZM11.7837 61.8053L66.3117 2.57328L64.8403 1.21871L10.3123 60.4507L11.7837 61.8053ZM167.187 58.152L168.181 58.2624L168.184 58.2311L168.186 58.1996L167.187 58.152ZM167.379 52.296V51.296H166.379V52.296H167.379ZM175.347 52.296L176.346 52.3436L176.396 51.296H175.347V52.296ZM175.059 58.536L176.058 58.5843L176.058 58.5814L175.059 58.536ZM163.923 69.576L163.891 68.5765L163.882 68.5768L163.873 68.5772L163.923 69.576ZM105.939 69.576L105.989 68.5772L105.98 68.5768L105.97 68.5765L105.939 69.576ZM94.8028 58.536L95.8016 58.4877L95.8012 58.4798L94.8028 58.536ZM94.8028 12.456L95.8015 12.5059L95.8016 12.5036L94.8028 12.456ZM105.939 1.32L105.986 2.31887L105.989 2.31875L105.939 1.32ZM163.923 1.32L163.873 2.31877L163.875 2.31886L163.923 1.32ZM175.059 12.456L174.06 12.5036L174.06 12.5036L175.059 12.456ZM175.347 18.696V19.696H176.393L176.346 18.6506L175.347 18.696ZM167.379 18.696H166.379V19.696H167.379V18.696ZM167.187 12.84L168.186 12.7901L168.184 12.7652L168.182 12.7405L167.187 12.84ZM166.035 10.344L165.328 11.0511L165.328 11.0511L166.035 10.344ZM163.539 9.192L163.638 8.19696L163.609 8.19401L163.579 8.19281L163.539 9.192ZM106.227 9.192L106.186 8.19281L106.151 8.19423L106.116 8.19811L106.227 9.192ZM103.731 10.344L104.438 11.0511L104.438 11.0511L103.731 10.344ZM102.675 12.84L103.673 12.8912L103.675 12.8656V12.84H102.675ZM102.675 58.152H103.675V58.1265L103.673 58.1011L102.675 58.152ZM106.227 61.704L106.277 60.7053L106.252 60.704H106.227V61.704ZM163.539 61.704V60.704H163.514L163.488 60.7053L163.539 61.704ZM168.186 58.1996C168.281 56.1902 168.379 54.2446 168.379 52.296H166.379C166.379 54.1874 166.284 56.0818 166.188 58.1044L168.186 58.1996ZM167.379 53.296H175.347V51.296H167.379V53.296ZM174.348 52.2484C174.252 54.2657 174.156 56.3788 174.06 58.4906L176.058 58.5814C176.154 56.4692 176.25 54.3583 176.346 52.3436L174.348 52.2484ZM174.06 58.4877C173.796 63.9341 169.403 68.4015 163.891 68.5765L163.954 70.5755C170.538 70.3665 175.745 65.0419 176.058 58.5843L174.06 58.4877ZM163.873 68.5772C154.197 69.0563 144.518 69.248 134.931 69.248V71.248C144.544 71.248 154.257 71.0557 163.972 70.5748L163.873 68.5772ZM134.931 69.248C125.248 69.248 115.569 69.0562 105.989 68.5772L105.889 70.5748C115.509 71.0558 125.222 71.248 134.931 71.248V69.248ZM105.97 68.5765C100.458 68.4015 96.0651 63.9341 95.8016 58.4877L93.8039 58.5843C94.1164 65.0419 99.323 70.3665 105.907 70.5755L105.97 68.5765ZM95.8012 58.4798C94.9395 43.1611 95.0349 27.8371 95.8015 12.5059L93.804 12.4061C93.0346 27.7949 92.938 43.1909 93.8043 58.5922L95.8012 58.4798ZM95.8016 12.5036C96.0651 6.97046 100.453 2.58235 105.986 2.31886L105.891 0.321128C99.3283 0.633649 94.1164 5.84554 93.8039 12.4084L95.8016 12.5036ZM105.989 2.31875C115.569 1.83975 125.248 1.648 134.931 1.648V-0.352001C125.222 -0.352001 115.509 -0.159755 105.889 0.321244L105.989 2.31875ZM134.931 1.648C144.518 1.648 154.197 1.83974 163.873 2.31877L163.972 0.321219C154.257 -0.159747 144.544 -0.352001 134.931 -0.352001V1.648ZM163.875 2.31886C169.408 2.58235 173.796 6.97046 174.06 12.5036L176.058 12.4084C175.745 5.84554 170.533 0.633649 163.97 0.321128L163.875 2.31886ZM174.06 12.5036C174.156 14.5183 174.252 16.6292 174.348 18.7414L176.346 18.6506C176.25 16.5388 176.154 14.4257 176.058 12.4084L174.06 12.5036ZM175.347 17.696H167.379V19.696H175.347V17.696ZM168.379 18.696C168.379 16.6512 168.281 14.7068 168.186 12.7901L166.188 12.8899C166.284 14.8132 166.379 16.7088 166.379 18.696H168.379ZM168.182 12.7405C168.065 11.5705 167.591 10.4856 166.742 9.63689L165.328 11.0511C165.823 11.5464 166.117 12.1894 166.192 12.9395L168.182 12.7405ZM166.742 9.63689C165.893 8.78816 164.808 8.31395 163.638 8.19696L163.439 10.187C164.189 10.262 164.832 10.5558 165.328 11.0511L166.742 9.63689ZM163.579 8.19281C154.069 7.80857 144.454 7.51999 134.931 7.51999V9.51999C144.416 9.51999 154 9.80743 163.498 10.1912L163.579 8.19281ZM134.931 7.51999C125.408 7.51999 115.697 7.80856 106.186 8.19281L106.267 10.1912C115.765 9.80744 125.446 9.51999 134.931 9.51999V7.51999ZM106.116 8.19811C105.07 8.31434 103.885 8.77582 103.024 9.63689L104.438 11.0511C104.921 10.5682 105.655 10.2617 106.337 10.1859L106.116 8.19811ZM103.024 9.63689C102.177 10.4838 101.675 11.5974 101.675 12.84H103.675C103.675 12.1625 103.941 11.5482 104.438 11.0511L103.024 9.63689ZM101.676 12.7888C100.906 27.799 100.906 43.0971 101.676 58.2029L103.673 58.1011C102.907 43.0629 102.907 27.833 103.673 12.8912L101.676 12.7888ZM101.675 58.152C101.675 59.2842 102.166 60.4977 103.024 61.3551L104.438 59.9409C103.951 59.4543 103.675 58.7478 103.675 58.152H101.675ZM103.024 61.3551C103.881 62.2125 105.095 62.704 106.227 62.704V60.704C105.631 60.704 104.924 60.4275 104.438 59.9409L103.024 61.3551ZM106.176 62.7027C115.701 63.1837 125.414 63.376 134.931 63.376V61.376C125.44 61.376 115.761 61.1843 106.277 60.7053L106.176 62.7027ZM134.931 63.376C144.448 63.376 154.065 63.1837 163.589 62.7027L163.488 60.7053C154.004 61.1843 144.422 61.376 134.931 61.376V63.376ZM163.539 62.704C164.781 62.704 165.895 62.202 166.742 61.3551L165.328 59.9409C164.831 60.438 164.216 60.704 163.539 60.704V62.704ZM166.742 61.3551C167.603 60.494 168.064 59.3085 168.181 58.2624L166.193 58.0416C166.117 58.7235 165.811 59.458 165.328 59.9409L166.742 61.3551ZM266.53 1.89599L267.092 2.72256L269.808 0.87367L266.523 0.896017L266.53 1.89599ZM217.186 35.496L216.623 34.6694L215.407 35.4972L216.624 36.3233L217.186 35.496ZM266.53 69L266.536 70L269.75 69.978L267.091 68.1727L266.53 69ZM252.514 69.096L251.95 69.9221L252.208 70.0981L252.52 70.096L252.514 69.096ZM209.026 39.432L209.589 38.6059L209.334 38.432H209.026V39.432ZM195.49 39.432V38.432H194.49V39.432H195.49ZM195.49 69.096V70.096H196.49V69.096H195.49ZM187.618 69.096H186.618V70.096H187.618V69.096ZM187.618 1.89599V0.895994H186.618V1.89599H187.618ZM195.49 1.89599H196.49V0.895994H195.49V1.89599ZM195.49 31.56H194.49V32.56H195.49V31.56ZM208.93 31.56V32.56H209.237L209.492 32.387L208.93 31.56ZM252.418 1.992L252.411 0.992022L252.107 0.99409L251.855 1.16504L252.418 1.992ZM265.967 1.06943L216.623 34.6694L217.748 36.3226L267.092 2.72256L265.967 1.06943ZM216.624 36.3233L265.968 69.8273L267.091 68.1727L217.747 34.6687L216.624 36.3233ZM266.523 68L252.507 68.096L252.52 70.096L266.536 70L266.523 68ZM253.077 68.2699L209.589 38.6059L208.462 40.2581L251.95 69.9221L253.077 68.2699ZM209.026 38.432H195.49V40.432H209.026V38.432ZM194.49 39.432V69.096H196.49V39.432H194.49ZM195.49 68.096H187.618V70.096H195.49V68.096ZM188.618 69.096V1.89599H186.618V69.096H188.618ZM187.618 2.89599H195.49V0.895994H187.618V2.89599ZM194.49 1.89599V31.56H196.49V1.89599H194.49ZM195.49 32.56H208.93V30.56H195.49V32.56ZM209.492 32.387L252.98 2.81896L251.855 1.16504L208.367 30.733L209.492 32.387ZM252.424 2.99198L266.536 2.89597L266.523 0.896017L252.411 0.992022L252.424 2.99198ZM345.16 1.89599V0.895994H344.16V1.89599H345.16ZM353.128 1.89599H354.128V0.895994H353.128V1.89599ZM353.128 38.76L354.127 38.7779L354.128 38.7689V38.76H353.128ZM352.552 57.288L351.553 57.2325L351.553 57.2404L352.552 57.288ZM341.416 68.424L341.455 69.4233L341.464 69.4228L341.416 68.424ZM285.352 68.424L285.303 69.4229L285.312 69.4232L285.352 68.424ZM274.216 57.288L273.217 57.3334L273.217 57.3356L274.216 57.288ZM274.023 51.048V50.048H273.023V51.048H274.023ZM281.896 51.048L282.894 50.9981L282.847 50.048H281.896V51.048ZM282.088 56.904L281.089 56.9516L281.09 56.9776L281.092 57.0035L282.088 56.904ZM283.24 59.4L282.532 60.1071L282.532 60.1071L283.24 59.4ZM285.736 60.456L285.786 59.4573L285.761 59.456H285.736V60.456ZM341.032 60.456V59.456H341.006L340.981 59.4573L341.032 60.456ZM343.528 59.4L342.82 58.6929L342.82 58.6929L343.528 59.4ZM344.68 56.904L345.675 57.0035L345.677 56.9765L345.678 56.9494L344.68 56.904ZM345.16 39.432L346.159 39.4492L346.177 38.432H345.16V39.432ZM285.256 39.432L285.208 40.4309L285.232 40.432H285.256V39.432ZM274.12 28.296H273.12V28.3198L273.121 28.3436L274.12 28.296ZM274.12 1.89599V0.895994H273.12V1.89599H274.12ZM281.992 1.89599H282.992V0.895994H281.992V1.89599ZM281.992 27.912H280.992V27.9619L280.996 28.0115L281.992 27.912ZM345.16 31.464V32.464H346.16V31.464H345.16ZM345.16 2.89599H353.128V0.895994H345.16V2.89599ZM352.128 1.89599V38.76H354.128V1.89599H352.128ZM352.128 38.7421C352.032 44.118 351.84 52.0692 351.553 57.2325L353.55 57.3435C353.839 52.1388 354.031 44.154 354.127 38.7779L352.128 38.7421ZM351.553 57.2404C351.289 62.7678 346.811 67.1618 341.367 67.4252L341.464 69.4228C347.924 69.1102 353.238 63.9042 353.55 57.3356L351.553 57.2404ZM341.376 67.4248C331.693 67.8083 322.01 68 312.424 68V70C322.037 70 331.746 69.8077 341.455 69.4232L341.376 67.4248ZM312.424 68C302.744 68 295.077 67.8084 285.391 67.4248L285.312 69.4232C295.018 69.8076 302.711 70 312.424 70V68ZM285.4 67.4252C279.956 67.1618 275.478 62.7678 275.214 57.2404L273.217 57.3356C273.529 63.9042 278.843 69.1102 285.303 69.4228L285.4 67.4252ZM275.214 57.2426C275.118 55.1252 275.023 53.133 275.023 51.048H273.023C273.023 53.187 273.121 55.2268 273.217 57.3334L275.214 57.2426ZM274.023 52.048H281.896V50.048H274.023V52.048ZM280.897 51.0979C280.944 52.0433 280.968 52.9909 280.992 53.9647C281.016 54.9347 281.04 55.9302 281.089 56.9516L283.086 56.8564C283.039 55.8618 283.015 54.8893 282.991 53.9153C282.967 52.9451 282.943 51.9727 282.894 50.9981L280.897 51.0979ZM281.092 57.0035C281.209 58.1734 281.684 59.2584 282.532 60.1071L283.947 58.6929C283.451 58.1976 283.158 57.5545 283.083 56.8045L281.092 57.0035ZM282.532 60.1071C283.379 60.954 284.493 61.456 285.736 61.456V59.456C285.058 59.456 284.444 59.19 283.947 58.6929L282.532 60.1071ZM285.685 61.4547C295.206 61.9356 302.903 62.128 312.424 62.128V60.128C302.936 60.128 295.273 59.9364 285.786 59.4573L285.685 61.4547ZM312.424 62.128C321.941 62.128 331.558 61.9357 341.082 61.4547L340.981 59.4573C331.497 59.9363 321.914 60.128 312.424 60.128V62.128ZM341.032 61.456C342.274 61.456 343.388 60.954 344.235 60.1071L342.82 58.6929C342.323 59.19 341.709 59.456 341.032 59.456V61.456ZM344.235 60.1071C345.083 59.2584 345.558 58.1735 345.675 57.0035L343.684 56.8045C343.609 57.5545 343.316 58.1976 342.82 58.6929L344.235 60.1071ZM345.678 56.9494C345.871 52.7109 346.063 45.0195 346.159 39.4492L344.16 39.4148C344.064 44.9805 343.872 52.6491 343.681 56.8586L345.678 56.9494ZM345.16 38.432H285.256V40.432H345.16V38.432ZM285.303 38.4331C279.77 38.1696 275.382 33.7815 275.118 28.2484L273.121 28.3436C273.433 34.9065 278.645 40.1183 285.208 40.4309L285.303 38.4331ZM275.12 28.296V1.89599H273.12V28.296H275.12ZM274.12 2.89599H281.992V0.895994H274.12V2.89599ZM280.992 1.89599V27.912H282.992V1.89599H280.992ZM280.996 28.0115C281.113 29.1814 281.588 30.2664 282.436 31.1151L283.851 29.7009C283.355 29.2056 283.062 28.5625 282.987 27.8125L280.996 28.0115ZM282.436 31.1151C283.283 31.962 284.397 32.464 285.64 32.464V30.464C284.962 30.464 284.348 30.198 283.851 29.7009L282.436 31.1151ZM285.64 32.464H345.16V30.464H285.64V32.464ZM346.16 31.464V1.89599H344.16V31.464H346.16ZM440.374 58.152L441.368 58.2624L441.372 58.2311L441.373 58.1996L440.374 58.152ZM440.566 52.296V51.296H439.566V52.296H440.566ZM448.534 52.296L449.533 52.3436L449.583 51.296H448.534V52.296ZM448.246 58.536L449.245 58.5843L449.245 58.5814L448.246 58.536ZM437.11 69.576L437.079 68.5765L437.07 68.5768L437.061 68.5772L437.11 69.576ZM379.126 69.576L379.176 68.5772L379.167 68.5768L379.158 68.5765L379.126 69.576ZM367.99 58.536L368.989 58.4877L368.989 58.4798L367.99 58.536ZM367.99 12.456L368.989 12.5059L368.989 12.5036L367.99 12.456ZM379.126 1.32L379.174 2.31887L379.176 2.31875L379.126 1.32ZM437.11 1.32L437.061 2.31877L437.063 2.31886L437.11 1.32ZM448.246 12.456L447.247 12.5036L447.247 12.5036L448.246 12.456ZM448.534 18.696V19.696H449.581L449.533 18.6506L448.534 18.696ZM440.566 18.696H439.566V19.696H440.566V18.696ZM440.374 12.84L441.373 12.7901L441.372 12.7652L441.369 12.7405L440.374 12.84ZM439.222 10.344L438.515 11.0511L438.515 11.0511L439.222 10.344ZM436.726 9.192L436.826 8.19696L436.796 8.19401L436.767 8.19281L436.726 9.192ZM379.414 9.192L379.374 8.19281L379.339 8.19423L379.304 8.19811L379.414 9.192ZM376.918 10.344L377.625 11.0511L377.625 11.0511L376.918 10.344ZM375.862 12.84L376.861 12.8912L376.862 12.8656V12.84H375.862ZM375.862 58.152H376.862V58.1265L376.861 58.1011L375.862 58.152ZM379.414 61.704L379.465 60.7053L379.439 60.704H379.414V61.704ZM436.726 61.704V60.704H436.701L436.676 60.7053L436.726 61.704ZM441.373 58.1996C441.469 56.1902 441.566 54.2446 441.566 52.296H439.566C439.566 54.1874 439.472 56.0818 439.375 58.1044L441.373 58.1996ZM440.566 53.296H448.534V51.296H440.566V53.296ZM447.535 52.2484C447.439 54.2657 447.343 56.3788 447.247 58.4906L449.245 58.5814C449.341 56.4692 449.437 54.3583 449.533 52.3436L447.535 52.2484ZM447.247 58.4877C446.984 63.9341 442.591 68.4015 437.079 68.5765L437.142 70.5755C443.726 70.3665 448.933 65.0419 449.245 58.5843L447.247 58.4877ZM437.061 68.5772C427.384 69.0563 417.705 69.248 408.118 69.248V71.248C417.731 71.248 427.444 71.0557 437.16 70.5748L437.061 68.5772ZM408.118 69.248C398.435 69.248 388.756 69.0562 379.176 68.5772L379.076 70.5748C388.696 71.0558 398.409 71.248 408.118 71.248V69.248ZM379.158 68.5765C373.646 68.4015 369.253 63.9341 368.989 58.4877L366.991 58.5843C367.304 65.0419 372.511 70.3665 379.095 70.5755L379.158 68.5765ZM368.989 58.4798C368.127 43.1611 368.222 27.8371 368.989 12.5059L366.991 12.4061C366.222 27.7949 366.126 43.1909 366.992 58.5922L368.989 58.4798ZM368.989 12.5036C369.253 6.97046 373.641 2.58235 379.174 2.31886L379.079 0.321128C372.516 0.633649 367.304 5.84554 366.991 12.4084L368.989 12.5036ZM379.176 2.31875C388.756 1.83975 398.435 1.648 408.118 1.648V-0.352001C398.409 -0.352001 388.696 -0.159755 379.076 0.321244L379.176 2.31875ZM408.118 1.648C417.705 1.648 427.384 1.83974 437.061 2.31877L437.16 0.321219C427.444 -0.159747 417.731 -0.352001 408.118 -0.352001V1.648ZM437.063 2.31886C442.596 2.58235 446.984 6.97046 447.247 12.5036L449.245 12.4084C448.933 5.84554 443.721 0.633649 437.158 0.321128L437.063 2.31886ZM447.247 12.5036C447.343 14.5183 447.439 16.6292 447.535 18.7414L449.533 18.6506C449.437 16.5388 449.341 14.4257 449.245 12.4084L447.247 12.5036ZM448.534 17.696H440.566V19.696H448.534V17.696ZM441.566 18.696C441.566 16.6512 441.469 14.7068 441.373 12.7901L439.376 12.8899C439.472 14.8132 439.566 16.7088 439.566 18.696H441.566ZM441.369 12.7405C441.252 11.5705 440.778 10.4856 439.929 9.63689L438.515 11.0511C439.01 11.5464 439.304 12.1894 439.379 12.9395L441.369 12.7405ZM439.929 9.63689C439.081 8.78816 437.996 8.31395 436.826 8.19696L436.627 10.187C437.377 10.262 438.02 10.5558 438.515 11.0511L439.929 9.63689ZM436.767 8.19281C427.257 7.80857 417.641 7.51999 408.118 7.51999V9.51999C417.603 9.51999 427.188 9.80743 436.686 10.1912L436.767 8.19281ZM408.118 7.51999C398.595 7.51999 388.884 7.80856 379.374 8.19281L379.455 10.1912C388.952 9.80744 398.633 9.51999 408.118 9.51999V7.51999ZM379.304 8.19811C378.258 8.31434 377.072 8.77582 376.211 9.63689L377.625 11.0511C378.108 10.5682 378.843 10.2617 379.525 10.1859L379.304 8.19811ZM376.211 9.63689C375.364 10.4838 374.862 11.5974 374.862 12.84H376.862C376.862 12.1625 377.128 11.5482 377.625 11.0511L376.211 9.63689ZM374.864 12.7888C374.094 27.799 374.094 43.0971 374.864 58.2029L376.861 58.1011C376.095 43.0629 376.095 27.833 376.861 12.8912L374.864 12.7888ZM374.862 58.152C374.862 59.2842 375.354 60.4977 376.211 61.3551L377.625 59.9409C377.139 59.4543 376.862 58.7478 376.862 58.152H374.862ZM376.211 61.3551C377.069 62.2125 378.282 62.704 379.414 62.704V60.704C378.818 60.704 378.112 60.4275 377.625 59.9409L376.211 61.3551ZM379.364 62.7027C388.888 63.1837 398.601 63.376 408.118 63.376V61.376C398.627 61.376 388.948 61.1843 379.465 60.7053L379.364 62.7027ZM408.118 63.376C417.635 63.376 427.253 63.1837 436.777 62.7027L436.676 60.7053C427.192 61.1843 417.609 61.376 408.118 61.376V63.376ZM436.726 62.704C437.969 62.704 439.082 62.202 439.929 61.3551L438.515 59.9409C438.018 60.438 437.404 60.704 436.726 60.704V62.704ZM439.929 61.3551C440.79 60.494 441.252 59.3085 441.368 58.2624L439.38 58.0416C439.305 58.7235 438.998 59.458 438.515 59.9409L439.929 61.3551ZM533.093 58.152L534.087 58.2624L534.09 58.2311L534.092 58.1996L533.093 58.152ZM533.285 52.296V51.296H532.285V52.296H533.285ZM541.253 52.296L542.252 52.3436L542.302 51.296H541.253V52.296ZM540.965 58.536L541.964 58.5843L541.964 58.5814L540.965 58.536ZM529.829 69.576L529.797 68.5765L529.788 68.5768L529.78 68.5772L529.829 69.576ZM471.845 69.576L471.895 68.5772L471.886 68.5768L471.877 68.5765L471.845 69.576ZM460.709 58.536L461.708 58.4877L461.707 58.4798L460.709 58.536ZM460.709 12.456L461.708 12.5059L461.708 12.5036L460.709 12.456ZM471.845 1.32L471.893 2.31887L471.895 2.31875L471.845 1.32ZM529.829 1.32L529.78 2.31877L529.781 2.31886L529.829 1.32ZM540.965 12.456L539.966 12.5036L539.966 12.5036L540.965 12.456ZM541.253 18.696V19.696H542.299L542.252 18.6506L541.253 18.696ZM533.285 18.696H532.285V19.696H533.285V18.696ZM533.093 12.84L534.092 12.7901L534.091 12.7652L534.088 12.7405L533.093 12.84ZM531.941 10.344L531.234 11.0511L531.234 11.0511L531.941 10.344ZM529.445 9.192L529.545 8.19696L529.515 8.19401L529.485 8.19281L529.445 9.192ZM472.133 9.192L472.093 8.19281L472.058 8.19423L472.023 8.19811L472.133 9.192ZM469.637 10.344L470.344 11.0511L470.344 11.0511L469.637 10.344ZM468.581 12.84L469.58 12.8912L469.581 12.8656V12.84H468.581ZM468.581 58.152H469.581V58.1265L469.58 58.1011L468.581 58.152ZM472.133 61.704L472.183 60.7053L472.158 60.704H472.133V61.704ZM529.445 61.704V60.704H529.42L529.395 60.7053L529.445 61.704ZM534.092 58.1996C534.188 56.1902 534.285 54.2446 534.285 52.296H532.285C532.285 54.1874 532.19 56.0818 532.094 58.1044L534.092 58.1996ZM533.285 53.296H541.253V51.296H533.285V53.296ZM540.254 52.2484C540.158 54.2657 540.062 56.3788 539.966 58.4906L541.964 58.5814C542.06 56.4692 542.156 54.3583 542.252 52.3436L540.254 52.2484ZM539.966 58.4877C539.703 63.9341 535.309 68.4015 529.797 68.5765L529.861 70.5755C536.445 70.3665 541.651 65.0419 541.964 58.5843L539.966 58.4877ZM529.78 68.5772C520.103 69.0563 510.424 69.248 500.837 69.248V71.248C510.45 71.248 520.163 71.0557 529.878 70.5748L529.78 68.5772ZM500.837 69.248C491.154 69.248 481.475 69.0562 471.895 68.5772L471.795 70.5748C481.415 71.0558 491.128 71.248 500.837 71.248V69.248ZM471.877 68.5765C466.365 68.4015 461.971 63.9341 461.708 58.4877L459.71 58.5843C460.023 65.0419 465.229 70.3665 471.813 70.5755L471.877 68.5765ZM461.707 58.4798C460.846 43.1611 460.941 27.8371 461.708 12.5059L459.71 12.4061C458.941 27.7949 458.844 43.1909 459.711 58.5922L461.707 58.4798ZM461.708 12.5036C461.971 6.97046 466.359 2.58235 471.893 2.31886L471.797 0.321128C465.235 0.633649 460.023 5.84554 459.71 12.4084L461.708 12.5036ZM471.895 2.31875C481.475 1.83975 491.154 1.648 500.837 1.648V-0.352001C491.128 -0.352001 481.415 -0.159755 471.795 0.321244L471.895 2.31875ZM500.837 1.648C510.424 1.648 520.103 1.83974 529.78 2.31877L529.878 0.321219C520.163 -0.159747 510.45 -0.352001 500.837 -0.352001V1.648ZM529.781 2.31886C535.315 2.58235 539.703 6.97046 539.966 12.5036L541.964 12.4084C541.651 5.84554 536.439 0.633649 529.877 0.321128L529.781 2.31886ZM539.966 12.5036C540.062 14.5183 540.158 16.6292 540.254 18.7414L542.252 18.6506C542.156 16.5388 542.06 14.4257 541.964 12.4084L539.966 12.5036ZM541.253 17.696H533.285V19.696H541.253V17.696ZM534.285 18.696C534.285 16.6512 534.188 14.7068 534.092 12.7901L532.094 12.8899C532.19 14.8132 532.285 16.7088 532.285 18.696H534.285ZM534.088 12.7405C533.971 11.5705 533.497 10.4856 532.648 9.63689L531.234 11.0511C531.729 11.5464 532.023 12.1894 532.098 12.9395L534.088 12.7405ZM532.648 9.63689C531.799 8.78816 530.714 8.31395 529.545 8.19696L529.345 10.187C530.096 10.262 530.739 10.5558 531.234 11.0511L532.648 9.63689ZM529.485 8.19281C519.975 7.80857 510.36 7.51999 500.837 7.51999V9.51999C510.322 9.51999 519.907 9.80743 529.405 10.1912L529.485 8.19281ZM500.837 7.51999C491.314 7.51999 481.603 7.80856 472.093 8.19281L472.173 10.1912C481.671 9.80744 491.352 9.51999 500.837 9.51999V7.51999ZM472.023 8.19811C470.977 8.31434 469.791 8.77582 468.93 9.63689L470.344 11.0511C470.827 10.5682 471.561 10.2617 472.243 10.1859L472.023 8.19811ZM468.93 9.63689C468.083 10.4838 467.581 11.5974 467.581 12.84H469.581C469.581 12.1625 469.847 11.5482 470.344 11.0511L468.93 9.63689ZM467.582 12.7888C466.813 27.799 466.813 43.0971 467.582 58.2029L469.58 58.1011C468.813 43.0629 468.813 27.833 469.58 12.8912L467.582 12.7888ZM467.581 58.152C467.581 59.2842 468.072 60.4977 468.93 61.3551L470.344 59.9409C469.858 59.4543 469.581 58.7478 469.581 58.152H467.581ZM468.93 61.3551C469.787 62.2125 471.001 62.704 472.133 62.704V60.704C471.537 60.704 470.831 60.4275 470.344 59.9409L468.93 61.3551ZM472.083 62.7027C481.607 63.1837 491.32 63.376 500.837 63.376V61.376C491.346 61.376 481.667 61.1843 472.183 60.7053L472.083 62.7027ZM500.837 63.376C510.354 63.376 519.971 63.1837 529.495 62.7027L529.395 60.7053C519.911 61.1843 510.328 61.376 500.837 61.376V63.376ZM529.445 62.704C530.688 62.704 531.801 62.202 532.648 61.3551L531.234 59.9409C530.737 60.438 530.122 60.704 529.445 60.704V62.704ZM532.648 61.3551C533.509 60.494 533.971 59.3085 534.087 58.2624L532.099 58.0416C532.023 58.7235 531.717 59.458 531.234 59.9409L532.648 61.3551ZM547.284 1.89599V0.895994H546.284V1.89599H547.284ZM610.452 1.89599H611.452V0.895994H610.452V1.89599ZM610.452 9.768V10.768H611.452V9.768H610.452ZM582.804 9.768V8.768H581.804V9.768H582.804ZM582.804 69V70H583.804V69H582.804ZM574.836 69H573.836V70H574.836V69ZM574.836 9.768H575.836V8.768H574.836V9.768ZM547.284 9.768H546.284V10.768H547.284V9.768ZM547.284 2.89599H610.452V0.895994H547.284V2.89599ZM609.452 1.89599V9.768H611.452V1.89599H609.452ZM610.452 8.768H582.804V10.768H610.452V8.768ZM581.804 9.768V69H583.804V9.768H581.804ZM582.804 68H574.836V70H582.804V68ZM575.836 69V9.768H573.836V69H575.836ZM574.836 8.768H547.284V10.768H574.836V8.768ZM548.284 9.768V1.89599H546.284V9.768H548.284ZM692.383 28.872L691.501 28.4014L691.023 29.2976L691.926 29.7616L692.383 28.872ZM698.527 38.568H699.527V38.5453L699.526 38.5226L698.527 38.568ZM698.527 57.864L699.526 57.9116L699.527 57.8878V57.864H698.527ZM687.487 69V70H687.511L687.536 69.9988L687.487 69ZM619.615 69H618.615V70H619.615V69ZM619.615 1.89599V0.895994H618.615V1.89599H619.615ZM682.495 1.89599L682.543 0.897126L682.519 0.895994H682.495V1.89599ZM693.631 13.032H694.631V13.0082L694.63 12.9844L693.631 13.032ZM693.631 24.264L694.63 24.3227L694.631 24.2934V24.264H693.631ZM627.487 9.768V8.768H626.487V9.768H627.487ZM627.487 27.432H626.487V28.432H627.487V27.432ZM684.607 26.376L685.314 27.0831L685.314 27.0831L684.607 26.376ZM685.759 23.88L686.754 23.9795L686.759 23.9299V23.88H685.759ZM685.759 13.416H686.759V13.3661L686.754 13.3165L685.759 13.416ZM682.111 9.768L682.211 8.77296L682.161 8.768H682.111V9.768ZM689.599 36.456L688.892 37.1631L688.892 37.1631L689.599 36.456ZM687.007 35.4L687.007 34.4L687.006 34.4L687.007 35.4ZM627.487 35.496L627.486 34.496L626.487 34.4976V35.496H627.487ZM627.487 61.128H626.487V62.128H627.487V61.128ZM689.599 60.072L688.892 59.3649L688.892 59.3649L689.599 60.072ZM691.926 29.7616C695.158 31.4208 697.352 34.7455 697.528 38.6134L699.526 38.5226C699.318 33.9425 696.713 29.9712 692.84 27.9824L691.926 29.7616ZM697.527 38.568V57.864H699.527V38.568H697.527ZM697.528 57.8164C697.265 63.3546 692.872 67.7383 687.439 68.0012L687.536 69.9988C694.007 69.6857 699.214 64.4694 699.526 57.9116L697.528 57.8164ZM687.487 68H619.615V70H687.487V68ZM620.615 69V1.89599H618.615V69H620.615ZM619.615 2.89599H682.495V0.895994H619.615V2.89599ZM682.448 2.89486C687.981 3.15835 692.369 7.54645 692.632 13.0796L694.63 12.9844C694.318 6.42154 689.106 1.20965 682.543 0.897126L682.448 2.89486ZM692.631 13.032V24.264H694.631V13.032H692.631ZM692.633 24.2053C692.544 25.714 692.192 27.1059 691.501 28.4014L693.266 29.3426C694.111 27.7581 694.526 26.078 694.63 24.3227L692.633 24.2053ZM626.487 9.768V27.432H628.487V9.768H626.487ZM627.487 28.432H682.111V26.432H627.487V28.432ZM682.111 28.432C683.354 28.432 684.467 27.93 685.314 27.0831L683.9 25.6689C683.403 26.166 682.789 26.432 682.111 26.432V28.432ZM685.314 27.0831C686.163 26.2344 686.637 25.1495 686.754 23.9795L684.764 23.7805C684.689 24.5305 684.395 25.1736 683.9 25.6689L685.314 27.0831ZM686.759 23.88V13.416H684.759V23.88H686.759ZM686.754 13.3165C686.637 12.1465 686.163 11.0616 685.314 10.2129L683.9 11.6271C684.395 12.1224 684.689 12.7654 684.764 13.5155L686.754 13.3165ZM685.314 10.2129C684.466 9.36415 683.381 8.88995 682.211 8.77296L682.012 10.763C682.762 10.838 683.405 11.1318 683.9 11.6271L685.314 10.2129ZM682.111 8.768H627.487V10.768H682.111V8.768ZM691.655 57.576V38.952H689.655V57.576H691.655ZM691.655 38.952C691.655 37.7094 691.153 36.5958 690.306 35.7489L688.892 37.1631C689.389 37.6602 689.655 38.2746 689.655 38.952H691.655ZM690.306 35.7489C689.439 34.8817 688.221 34.4 687.007 34.4V36.4C687.713 36.4 688.415 36.6863 688.892 37.1631L690.306 35.7489ZM687.006 34.4L627.486 34.496L627.489 36.496L687.009 36.4L687.006 34.4ZM626.487 35.496V61.128H628.487V35.496H626.487ZM627.487 62.128H687.103V60.128H627.487V62.128ZM687.103 62.128C688.235 62.128 689.449 61.6365 690.306 60.7791L688.892 59.3649C688.406 59.8515 687.699 60.128 687.103 60.128V62.128ZM690.306 60.7791C691.164 59.9217 691.655 58.7082 691.655 57.576H689.655C689.655 58.1718 689.379 58.8783 688.892 59.3649L690.306 60.7791ZM792.028 12.456L791.029 12.5036L791.029 12.5059L792.028 12.456ZM792.028 58.536L791.029 58.4861L791.029 58.4877L792.028 58.536ZM780.892 69.576L780.86 68.5765L780.851 68.5768L780.842 68.5772L780.892 69.576ZM722.908 69.576L722.957 68.5772L722.948 68.5768L722.939 68.5765L722.908 69.576ZM711.772 58.536L712.77 58.4877L712.77 58.4798L711.772 58.536ZM711.772 12.456L712.77 12.5122L712.77 12.5036L711.772 12.456ZM722.908 1.32L722.955 2.31887L722.957 2.31875L722.908 1.32ZM780.892 1.32L780.842 2.31877L780.844 2.31886L780.892 1.32ZM784.156 58.152L785.149 58.2624L785.153 58.2327L785.154 58.2029L784.156 58.152ZM784.156 12.84L785.154 12.7888L785.153 12.7646L785.151 12.7405L784.156 12.84ZM783.004 10.344L782.296 11.0511L782.296 11.0511L783.004 10.344ZM780.508 9.192L780.607 8.19696L780.577 8.19401L780.548 8.19281L780.508 9.192ZM723.196 9.192L723.155 8.19281L723.12 8.19423L723.085 8.19811L723.196 9.192ZM720.7 10.344L721.407 11.0511L721.407 11.0511L720.7 10.344ZM719.644 12.84L720.642 12.8912L720.644 12.8656V12.84H719.644ZM719.644 58.152H720.644V58.1265L720.642 58.1011L719.644 58.152ZM723.196 61.704L723.246 60.7053L723.221 60.704H723.196V61.704ZM780.508 61.704V60.704H780.482L780.457 60.7053L780.508 61.704ZM791.029 12.5059C791.795 27.8327 791.795 43.1593 791.029 58.4861L793.026 58.5859C793.796 43.1927 793.796 27.7993 793.026 12.4061L791.029 12.5059ZM791.029 58.4877C790.765 63.9341 786.372 68.4015 780.86 68.5765L780.923 70.5755C787.507 70.3665 792.714 65.0419 793.026 58.5843L791.029 58.4877ZM780.842 68.5772C771.166 69.0563 761.486 69.248 751.9 69.248V71.248C761.513 71.248 771.225 71.0557 780.941 70.5748L780.842 68.5772ZM751.9 69.248C742.216 69.248 732.537 69.0562 722.957 68.5772L722.858 70.5748C732.478 71.0558 742.191 71.248 751.9 71.248V69.248ZM722.939 68.5765C717.427 68.4015 713.034 63.9341 712.77 58.4877L710.773 58.5843C711.085 65.0419 716.292 70.3665 722.876 70.5755L722.939 68.5765ZM712.77 58.4798C711.908 43.1572 711.908 27.8347 712.77 12.5122L710.773 12.3998C709.907 27.7972 709.907 43.1947 710.773 58.5922L712.77 58.4798ZM712.77 12.5036C713.034 6.97046 717.422 2.58235 722.955 2.31886L722.86 0.321128C716.297 0.633649 711.085 5.84554 710.773 12.4084L712.77 12.5036ZM722.957 2.31875C732.537 1.83975 742.216 1.648 751.9 1.648V-0.352001C742.191 -0.352001 732.478 -0.159755 722.858 0.321244L722.957 2.31875ZM751.9 1.648C761.486 1.648 771.166 1.83974 780.842 2.31877L780.941 0.321219C771.225 -0.159747 761.513 -0.352001 751.9 -0.352001V1.648ZM780.844 2.31886C786.377 2.58235 790.765 6.97046 791.029 12.5036L793.026 12.4084C792.714 5.84554 787.502 0.633649 780.939 0.321128L780.844 2.31886ZM785.154 58.2029C785.924 43.0971 785.924 27.799 785.154 12.7888L783.157 12.8912C783.923 27.833 783.923 43.0629 783.157 58.1011L785.154 58.2029ZM785.151 12.7405C785.034 11.5705 784.559 10.4856 783.711 9.63689L782.296 11.0511C782.792 11.5464 783.085 12.1894 783.16 12.9395L785.151 12.7405ZM783.711 9.63689C782.862 8.78816 781.777 8.31395 780.607 8.19696L780.408 10.187C781.158 10.262 781.801 10.5558 782.296 11.0511L783.711 9.63689ZM780.548 8.19281C771.038 7.80857 761.423 7.51999 751.9 7.51999V9.51999C761.384 9.51999 770.969 9.80743 780.467 10.1912L780.548 8.19281ZM751.9 7.51999C742.376 7.51999 732.665 7.80856 723.155 8.19281L723.236 10.1912C732.734 9.80744 742.415 9.51999 751.9 9.51999V7.51999ZM723.085 8.19811C722.039 8.31434 720.853 8.77582 719.992 9.63689L721.407 11.0511C721.89 10.5682 722.624 10.2617 723.306 10.1859L723.085 8.19811ZM719.992 9.63689C719.145 10.4838 718.644 11.5974 718.644 12.84H720.644C720.644 12.1625 720.91 11.5482 721.407 11.0511L719.992 9.63689ZM718.645 12.7888C717.875 27.799 717.875 43.0971 718.645 58.2029L720.642 58.1011C719.876 43.0629 719.876 27.833 720.642 12.8912L718.645 12.7888ZM718.644 58.152C718.644 59.2842 719.135 60.4977 719.992 61.3551L721.407 59.9409C720.92 59.4543 720.644 58.7478 720.644 58.152H718.644ZM719.992 61.3551C720.85 62.2125 722.063 62.704 723.196 62.704V60.704C722.6 60.704 721.893 60.4275 721.407 59.9409L719.992 61.3551ZM723.145 62.7027C732.669 63.1837 742.383 63.376 751.9 63.376V61.376C742.408 61.376 732.73 61.1843 723.246 60.7053L723.145 62.7027ZM751.9 63.376C761.417 63.376 771.034 63.1837 780.558 62.7027L780.457 60.7053C770.973 61.1843 761.39 61.376 751.9 61.376V63.376ZM780.508 62.704C781.75 62.704 782.864 62.202 783.711 61.3551L782.296 59.9409C781.799 60.438 781.185 60.704 780.508 60.704V62.704ZM783.711 61.3551C784.572 60.494 785.033 59.3085 785.149 58.2624L783.162 58.0416C783.086 58.7235 782.779 59.458 782.296 59.9409L783.711 61.3551Z" fill="#B4B4B4" mask="url(#path-1-outside-1_20_122)"/>
</g>
</svg>
