<svg width="375" height="2295" viewBox="0 0 375 2295" fill="none" xmlns="http://www.w3.org/2000/svg">
<path d="M-8 22C-8 9.84969 1.84974 0 14 0H201.214H251.159C256.709 0 262.055 2.09819 266.124 5.87391L370.965 103.166C375.451 107.329 378 113.172 378 119.292V2273C378 2285.15 368.15 2295 356 2295H14C1.84973 2295 -8 2285.15 -8 2273V22Z" fill="#39A3D4" fill-opacity="0.22"/>
<mask id="path-2-outside-1_107_22" maskUnits="userSpaceOnUse" x="64" y="14" width="147" height="44" fill="black">
<rect fill="white" x="64" y="14" width="147" height="44"/>
<path d="M82.2629 16.224L89.9429 33H87.7829L86.1269 29.4H74.0309L72.3749 33H70.2149L77.8949 16.224H82.2629ZM74.9429 27.408H85.2149L80.9909 18.192H79.1669L74.9429 27.408ZM110.381 22.968C111.269 23.424 111.869 24.336 111.917 25.392V30.216C111.845 31.728 110.645 32.928 109.157 33H92.189V16.224H107.909C109.421 16.296 110.621 17.496 110.693 19.008V21.816C110.669 22.224 110.573 22.608 110.381 22.968ZM94.157 18.192V22.608H107.813C108.053 22.608 108.269 22.512 108.437 22.344C108.605 22.176 108.701 21.96 108.725 21.72V19.104C108.701 18.864 108.605 18.648 108.437 18.48C108.269 18.312 108.053 18.216 107.813 18.192H94.157ZM109.949 30.144V25.488C109.949 25.248 109.853 25.032 109.685 24.864C109.517 24.696 109.277 24.6 109.037 24.6L94.157 24.624V31.032H109.061C109.277 31.032 109.517 30.936 109.685 30.768C109.853 30.6 109.949 30.36 109.949 30.144ZM112.872 16.224H128.664V18.192H121.752V33H119.76V18.192H112.872V16.224ZM151.019 18.864C151.211 22.704 151.211 26.544 151.019 30.384C150.947 31.872 149.747 33.096 148.235 33.144C145.811 33.264 143.387 33.312 140.987 33.312C138.563 33.312 136.139 33.264 133.739 33.144C132.227 33.096 131.027 31.872 130.955 30.384C130.739 26.544 130.739 22.704 130.955 18.864C131.027 17.352 132.227 16.152 133.739 16.08C136.139 15.96 138.563 15.912 140.987 15.912C143.387 15.912 145.811 15.96 148.235 16.08C149.747 16.152 150.947 17.352 151.019 18.864ZM149.051 30.288C149.243 26.52 149.243 22.704 149.051 18.96C149.027 18.72 148.931 18.504 148.763 18.336C148.595 18.168 148.379 18.072 148.139 18.048C145.763 17.952 143.363 17.88 140.987 17.88C138.611 17.88 136.187 17.952 133.811 18.048C133.595 18.072 133.355 18.168 133.187 18.336C133.019 18.504 132.923 18.72 132.923 18.96C132.731 22.704 132.731 26.52 132.923 30.288C132.923 30.504 133.019 30.744 133.187 30.912C133.355 31.08 133.595 31.176 133.811 31.176C136.187 31.296 138.611 31.344 140.987 31.344C143.363 31.344 145.763 31.296 148.139 31.176C148.379 31.176 148.595 31.08 148.763 30.912C148.931 30.744 149.027 30.504 149.051 30.288ZM174.448 19.008V23.832C174.376 25.344 173.176 26.544 171.664 26.616H156.688V33H154.72V16.224H171.688C173.176 16.296 174.376 17.496 174.448 19.008ZM172.216 24.36C172.384 24.192 172.48 23.976 172.48 23.736V19.104C172.48 18.864 172.384 18.648 172.216 18.48C172.048 18.312 171.808 18.216 171.592 18.192H156.688V24.624L171.568 24.648C171.808 24.624 172.048 24.528 172.216 24.36ZM194.445 22.608C195.957 22.68 197.157 23.88 197.229 25.392V30.216C197.157 31.728 195.957 32.928 194.469 33H177.501V16.224H179.469V22.608H194.445ZM195.261 30.144V25.488C195.261 25.248 195.165 25.032 194.997 24.864C194.829 24.696 194.589 24.6 194.349 24.6L179.469 24.624V31.032H194.373C194.589 31.032 194.829 30.936 194.997 30.768C195.165 30.6 195.261 30.36 195.261 30.144ZM201.189 33H199.221V16.224H201.189V33ZM65.728 39.224H85.456V56H83.488V41.192H67.696V56H65.728V41.192V39.224ZM109.011 42.008V46.832C108.939 48.344 107.739 49.544 106.227 49.616H91.2507V56H89.2827V39.224H106.251C107.739 39.296 108.939 40.496 109.011 42.008ZM106.779 47.36C106.947 47.192 107.043 46.976 107.043 46.736V42.104C107.043 41.864 106.947 41.648 106.779 41.48C106.611 41.312 106.371 41.216 106.155 41.192H91.2507V47.624L106.131 47.648C106.371 47.624 106.611 47.528 106.779 47.36ZM132.128 41.864C132.32 45.704 132.32 49.544 132.128 53.384C132.056 54.872 130.856 56.096 129.344 56.144C126.92 56.264 124.496 56.312 122.096 56.312C119.672 56.312 117.248 56.264 114.848 56.144C113.336 56.096 112.136 54.872 112.064 53.384C111.848 49.544 111.848 45.704 112.064 41.864C112.136 40.352 113.336 39.152 114.848 39.08C117.248 38.96 119.672 38.912 122.096 38.912C124.496 38.912 126.92 38.96 129.344 39.08C130.856 39.152 132.056 40.352 132.128 41.864ZM130.16 53.288C130.352 49.52 130.352 45.704 130.16 41.96C130.136 41.72 130.04 41.504 129.872 41.336C129.704 41.168 129.488 41.072 129.248 41.048C126.872 40.952 124.472 40.88 122.096 40.88C119.72 40.88 117.296 40.952 114.92 41.048C114.704 41.072 114.464 41.168 114.296 41.336C114.128 41.504 114.032 41.72 114.032 41.96C113.84 45.704 113.84 49.52 114.032 53.288C114.032 53.504 114.128 53.744 114.296 53.912C114.464 54.08 114.704 54.176 114.92 54.176C117.296 54.296 119.72 54.344 122.096 54.344C124.472 54.344 126.872 54.296 129.248 54.176C129.488 54.176 129.704 54.08 129.872 53.912C130.04 53.744 130.136 53.504 130.16 53.288ZM151.622 41.192H137.798V46.64H151.622V48.608H137.798V54.032H151.622V56H135.83V39.224H151.622V41.192ZM174.566 39.224L162.23 47.624L174.566 56L171.062 56.024L160.19 48.608H156.806V56.024H154.838V39.224H156.806V46.64H160.166L171.038 39.248L174.566 39.224ZM175.215 39.224H191.007V41.192H184.095V56H182.103V41.192H175.215V39.224ZM201.138 39.224L208.818 56H206.658L205.002 52.4H192.906L191.25 56H189.09L196.77 39.224H201.138ZM193.818 50.408H204.09L199.866 41.192H198.042L193.818 50.408Z"/>
</mask>
<path d="M82.2629 16.224L83.1722 15.8077L82.9049 15.224H82.2629V16.224ZM89.9429 33V34H91.5005L90.8522 32.5837L89.9429 33ZM87.7829 33L86.8744 33.4179L87.1422 34H87.7829V33ZM86.1269 29.4L87.0354 28.9821L86.7676 28.4H86.1269V29.4ZM74.0309 29.4V28.4H73.3902L73.1224 28.9821L74.0309 29.4ZM72.3749 33V34H73.0156L73.2834 33.4179L72.3749 33ZM70.2149 33L69.3057 32.5837L68.6573 34H70.2149V33ZM77.8949 16.224V15.224H77.2529L76.9857 15.8077L77.8949 16.224ZM74.9429 27.408L74.0338 26.9913L73.3845 28.408H74.9429V27.408ZM85.2149 27.408V28.408H86.7733L86.124 26.9913L85.2149 27.408ZM80.9909 18.192L81.9 17.7753L81.6326 17.192H80.9909V18.192ZM79.1669 18.192V17.192H78.5252L78.2578 17.7753L79.1669 18.192ZM81.3537 16.6403L89.0337 33.4163L90.8522 32.5837L83.1722 15.8077L81.3537 16.6403ZM89.9429 32H87.7829V34H89.9429V32ZM88.6914 32.5821L87.0354 28.9821L85.2184 29.8179L86.8744 33.4179L88.6914 32.5821ZM86.1269 28.4H74.0309V30.4H86.1269V28.4ZM73.1224 28.9821L71.4664 32.5821L73.2834 33.4179L74.9394 29.8179L73.1224 28.9821ZM72.3749 32H70.2149V34H72.3749V32ZM71.1242 33.4163L78.8042 16.6403L76.9857 15.8077L69.3057 32.5837L71.1242 33.4163ZM77.8949 17.224H82.2629V15.224H77.8949V17.224ZM74.9429 28.408H85.2149V26.408H74.9429V28.408ZM86.124 26.9913L81.9 17.7753L80.0818 18.6087L84.3058 27.8247L86.124 26.9913ZM80.9909 17.192H79.1669V19.192H80.9909V17.192ZM78.2578 17.7753L74.0338 26.9913L75.852 27.8247L80.076 18.6087L78.2578 17.7753ZM110.381 22.968L109.499 22.4974L109.021 23.3936L109.924 23.8576L110.381 22.968ZM111.917 25.392H112.917V25.3693L112.916 25.3466L111.917 25.392ZM111.917 30.216L112.916 30.2636L112.917 30.2398V30.216H111.917ZM109.157 33V34H109.181L109.205 33.9988L109.157 33ZM92.189 33H91.189V34H92.189V33ZM92.189 16.224V15.224H91.189V16.224H92.189ZM107.909 16.224L107.957 15.2251L107.933 15.224H107.909V16.224ZM110.693 19.008H111.693V18.9842L111.692 18.9604L110.693 19.008ZM110.693 21.816L111.691 21.8747L111.693 21.8454V21.816H110.693ZM94.157 18.192V17.192H93.157V18.192H94.157ZM94.157 22.608H93.157V23.608H94.157V22.608ZM108.437 22.344L109.144 23.0511V23.0511L108.437 22.344ZM108.725 21.72L109.72 21.8195L109.725 21.7699V21.72H108.725ZM108.725 19.104H109.725V19.0541L109.72 19.0045L108.725 19.104ZM107.813 18.192L107.912 17.197L107.863 17.192H107.813V18.192ZM109.685 24.864L108.978 25.5711L108.978 25.5711L109.685 24.864ZM109.037 24.6V23.6L109.035 23.6L109.037 24.6ZM94.157 24.624L94.1554 23.624L93.157 23.6256V24.624H94.157ZM94.157 31.032H93.157V32.032H94.157V31.032ZM109.685 30.768L108.978 30.0609L108.978 30.0609L109.685 30.768ZM109.924 23.8576C110.491 24.1488 110.886 24.7375 110.918 25.4374L112.916 25.3466C112.852 23.9345 112.047 22.6992 110.838 22.0784L109.924 23.8576ZM110.917 25.392V30.216H112.917V25.392H110.917ZM110.918 30.1684C110.87 31.1706 110.077 31.9543 109.109 32.0012L109.205 33.9988C111.213 33.9017 112.82 32.2854 112.916 30.2636L110.918 30.1684ZM109.157 32H92.189V34H109.157V32ZM93.189 33V16.224H91.189V33H93.189ZM92.189 17.224H107.909V15.224H92.189V17.224ZM107.861 17.2229C108.859 17.2703 109.647 18.0585 109.694 19.0556L111.692 18.9604C111.595 16.9335 109.983 15.3216 107.957 15.2251L107.861 17.2229ZM109.693 19.008V21.816H111.693V19.008H109.693ZM109.695 21.7573C109.678 22.042 109.614 22.2819 109.499 22.4974L111.263 23.4386C111.532 22.9341 111.66 22.406 111.691 21.8747L109.695 21.7573ZM93.157 18.192V22.608H95.157V18.192H93.157ZM94.157 23.608H107.813V21.608H94.157V23.608ZM107.813 23.608C108.336 23.608 108.801 23.394 109.144 23.0511L107.73 21.6369C107.73 21.6363 107.739 21.6279 107.758 21.6199C107.777 21.6115 107.797 21.608 107.813 21.608V23.608ZM109.144 23.0511C109.489 22.7064 109.675 22.2695 109.72 21.8195L107.73 21.6205C107.728 21.6383 107.725 21.6446 107.725 21.6432C107.726 21.6428 107.726 21.6415 107.728 21.6398C107.729 21.6382 107.73 21.6371 107.73 21.6369L109.144 23.0511ZM109.725 21.72V19.104H107.725V21.72H109.725ZM109.72 19.0045C109.675 18.5545 109.489 18.1176 109.144 17.7729L107.73 19.1871C107.73 19.1869 107.729 19.1858 107.728 19.1842C107.726 19.1825 107.726 19.1812 107.725 19.1808C107.725 19.1794 107.728 19.1857 107.73 19.2035L109.72 19.0045ZM109.144 17.7729C108.799 17.4282 108.362 17.242 107.912 17.197L107.713 19.187C107.731 19.1888 107.738 19.1921 107.736 19.1915C107.736 19.1913 107.734 19.1906 107.733 19.1895C107.731 19.1883 107.73 19.1873 107.73 19.1871L109.144 17.7729ZM107.813 17.192H94.157V19.192H107.813V17.192ZM110.949 30.144V25.488H108.949V30.144H110.949ZM110.949 25.488C110.949 24.9654 110.735 24.4998 110.392 24.1569L108.978 25.5711C108.977 25.5705 108.969 25.5616 108.961 25.5429C108.952 25.5235 108.949 25.5035 108.949 25.488H110.949ZM110.392 24.1569C110.029 23.7937 109.531 23.6 109.037 23.6V25.6C109.025 25.6 109.018 25.5979 109.012 25.5957C109.007 25.5936 108.994 25.5874 108.978 25.5711L110.392 24.1569ZM109.035 23.6L94.1554 23.624L94.1586 25.624L109.039 25.6L109.035 23.6ZM93.157 24.624V31.032H95.157V24.624H93.157ZM94.157 32.032H109.061V30.032H94.157V32.032ZM109.061 32.032C109.545 32.032 110.039 31.8285 110.392 31.4751L108.978 30.0609C108.993 30.0456 109.003 30.0412 109.006 30.0399C109.009 30.0388 109.014 30.0372 109.021 30.0356C109.028 30.0341 109.041 30.032 109.061 30.032V32.032ZM110.392 31.4751C110.745 31.1217 110.949 30.6282 110.949 30.144H108.949C108.949 30.1245 108.951 30.1112 108.953 30.104C108.954 30.0966 108.956 30.092 108.957 30.0894C108.958 30.0862 108.963 30.0762 108.978 30.0609L110.392 31.4751ZM112.872 16.224V15.224H111.872V16.224H112.872ZM128.664 16.224H129.664V15.224H128.664V16.224ZM128.664 18.192V19.192H129.664V18.192H128.664ZM121.752 18.192V17.192H120.752V18.192H121.752ZM121.752 33V34H122.752V33H121.752ZM119.76 33H118.76V34H119.76V33ZM119.76 18.192H120.76V17.192H119.76V18.192ZM112.872 18.192H111.872V19.192H112.872V18.192ZM112.872 17.224H128.664V15.224H112.872V17.224ZM127.664 16.224V18.192H129.664V16.224H127.664ZM128.664 17.192H121.752V19.192H128.664V17.192ZM120.752 18.192V33H122.752V18.192H120.752ZM121.752 32H119.76V34H121.752V32ZM120.76 33V18.192H118.76V33H120.76ZM119.76 17.192H112.872V19.192H119.76V17.192ZM113.872 18.192V16.224H111.872V18.192H113.872ZM151.019 18.864L150.02 18.9116L150.02 18.9139L151.019 18.864ZM151.019 30.384L150.02 30.3341L150.02 30.3357L151.019 30.384ZM148.235 33.144L148.203 32.1445L148.194 32.1448L148.185 32.1452L148.235 33.144ZM133.739 33.144L133.789 32.1452L133.779 32.1448L133.77 32.1445L133.739 33.144ZM130.955 30.384L131.953 30.3357L131.953 30.3278L130.955 30.384ZM130.955 18.864L131.953 18.9202L131.953 18.9116L130.955 18.864ZM133.739 16.08L133.786 17.0789L133.789 17.0788L133.739 16.08ZM148.235 16.08L148.185 17.0788L148.187 17.0789L148.235 16.08ZM149.051 30.288L150.044 30.3984L150.048 30.3687L150.049 30.3389L149.051 30.288ZM149.051 18.96L150.049 18.9088L150.048 18.8846L150.046 18.8605L149.051 18.96ZM148.763 18.336L148.055 19.0431V19.0431L148.763 18.336ZM148.139 18.048L148.238 17.053L148.209 17.05L148.179 17.0488L148.139 18.048ZM133.811 18.048L133.77 17.0488L133.735 17.0502L133.7 17.0541L133.811 18.048ZM133.187 18.336L133.894 19.0431V19.0431L133.187 18.336ZM132.923 18.96L133.921 19.0112L133.923 18.9856V18.96H132.923ZM132.923 30.288H133.923V30.2625L133.921 30.2371L132.923 30.288ZM133.811 31.176L133.861 30.1773L133.836 30.176H133.811V31.176ZM148.139 31.176V30.176H148.113L148.088 30.1773L148.139 31.176ZM150.02 18.9139C150.21 22.7207 150.21 26.5273 150.02 30.3341L152.017 30.4339C152.211 26.5607 152.211 22.6873 152.017 18.8141L150.02 18.9139ZM150.02 30.3357C149.972 31.3181 149.179 32.1135 148.203 32.1445L148.266 34.1435C150.314 34.0785 151.921 32.4259 152.017 30.4323L150.02 30.3357ZM148.185 32.1452C145.781 32.2643 143.373 32.312 140.987 32.312V34.312C143.4 34.312 145.841 34.2637 148.284 34.1428L148.185 32.1452ZM140.987 32.312C138.576 32.312 136.169 32.2642 133.789 32.1452L133.689 34.1428C136.109 34.2638 138.55 34.312 140.987 34.312V32.312ZM133.77 32.1445C132.794 32.1135 132.001 31.3181 131.953 30.3357L129.956 30.4323C130.052 32.4259 131.659 34.0785 133.707 34.1435L133.77 32.1445ZM131.953 30.3278C131.739 26.5252 131.739 22.7227 131.953 18.9202L129.956 18.8078C129.738 22.6852 129.738 26.5627 129.956 30.4402L131.953 30.3278ZM131.953 18.9116C132.001 17.9145 132.789 17.1263 133.786 17.0789L133.691 15.0811C131.664 15.1777 130.052 16.7895 129.956 18.8164L131.953 18.9116ZM133.789 17.0788C136.169 16.9598 138.576 16.912 140.987 16.912V14.912C138.55 14.912 136.109 14.9602 133.689 15.0812L133.789 17.0788ZM140.987 16.912C143.373 16.912 145.781 16.9597 148.185 17.0788L148.284 15.0812C145.841 14.9603 143.4 14.912 140.987 14.912V16.912ZM148.187 17.0789C149.184 17.1263 149.972 17.9145 150.02 18.9116L152.017 18.8164C151.921 16.7895 150.309 15.1777 148.282 15.0811L148.187 17.0789ZM150.049 30.3389C150.243 26.5371 150.243 22.687 150.049 18.9088L148.052 19.0112C148.242 22.721 148.242 26.5029 148.052 30.2371L150.049 30.3389ZM150.046 18.8605C150.001 18.4106 149.814 17.9736 149.47 17.6289L148.055 19.0431C148.055 19.0429 148.054 19.0418 148.053 19.0402C148.052 19.0385 148.051 19.0372 148.051 19.0368C148.05 19.0354 148.054 19.0417 148.056 19.0595L150.046 18.8605ZM149.47 17.6289C149.125 17.2842 148.688 17.098 148.238 17.053L148.039 19.043C148.057 19.0448 148.063 19.0481 148.062 19.0475C148.061 19.0473 148.06 19.0466 148.058 19.0455C148.057 19.0443 148.056 19.0433 148.055 19.0431L149.47 17.6289ZM148.179 17.0488C145.797 16.9526 143.382 16.88 140.987 16.88V18.88C143.343 18.88 145.728 18.9514 148.098 19.0472L148.179 17.0488ZM140.987 16.88C138.591 16.88 136.153 16.9526 133.77 17.0488L133.851 19.0472C136.221 18.9514 138.63 18.88 140.987 18.88V16.88ZM133.7 17.0541C133.302 17.0983 132.837 17.2718 132.479 17.6289L133.894 19.0431C133.885 19.0515 133.88 19.0551 133.879 19.0555C133.879 19.056 133.881 19.0543 133.887 19.0518C133.892 19.0493 133.899 19.0468 133.907 19.0449C133.914 19.0429 133.919 19.0421 133.921 19.0419L133.7 17.0541ZM132.479 17.6289C132.137 17.9718 131.923 18.4374 131.923 18.96H133.923C133.923 18.9755 133.919 18.9955 133.911 19.0149C133.903 19.0336 133.894 19.0425 133.894 19.0431L132.479 17.6289ZM131.924 18.9088C131.73 22.687 131.73 26.5371 131.924 30.3389L133.921 30.2371C133.731 26.5029 133.731 22.721 133.921 19.0112L131.924 18.9088ZM131.923 30.288C131.923 30.7722 132.126 31.2657 132.479 31.6191L133.894 30.2049C133.909 30.2202 133.913 30.2302 133.915 30.2334C133.916 30.236 133.917 30.2406 133.919 30.248C133.921 30.2552 133.923 30.2685 133.923 30.288H131.923ZM132.479 31.6191C132.833 31.9725 133.326 32.176 133.811 32.176V30.176C133.83 30.176 133.843 30.1781 133.851 30.1796C133.858 30.1812 133.863 30.1828 133.865 30.1839C133.868 30.1852 133.878 30.1896 133.894 30.2049L132.479 31.6191ZM133.76 32.1747C136.156 32.2957 138.598 32.344 140.987 32.344V30.344C138.624 30.344 136.217 30.2963 133.861 30.1773L133.76 32.1747ZM140.987 32.344C143.376 32.344 145.793 32.2957 148.189 32.1747L148.088 30.1773C145.732 30.2963 143.349 30.344 140.987 30.344V32.344ZM148.139 32.176C148.661 32.176 149.127 31.962 149.47 31.6191L148.055 30.2049C148.056 30.2043 148.065 30.1959 148.084 30.1879C148.103 30.1795 148.123 30.176 148.139 30.176V32.176ZM149.47 31.6191C149.827 31.262 150 30.7965 150.044 30.3984L148.057 30.1776C148.056 30.1795 148.056 30.1848 148.054 30.1921C148.052 30.1993 148.049 30.2062 148.047 30.2119C148.044 30.2175 148.043 30.2199 148.043 30.2193C148.043 30.2186 148.047 30.2132 148.055 30.2049L149.47 31.6191ZM174.448 19.008H175.448V18.9842L175.447 18.9604L174.448 19.008ZM174.448 23.832L175.447 23.8796L175.448 23.8558V23.832H174.448ZM171.664 26.616V27.616H171.688L171.712 27.6149L171.664 26.616ZM156.688 26.616V25.616H155.688V26.616H156.688ZM156.688 33V34H157.688V33H156.688ZM154.72 33H153.72V34H154.72V33ZM154.72 16.224V15.224H153.72V16.224H154.72ZM171.688 16.224L171.737 15.2252L171.712 15.224H171.688V16.224ZM172.216 24.36L171.509 23.6529L171.509 23.6529L172.216 24.36ZM172.216 18.48L171.509 19.1871L171.509 19.1871L172.216 18.48ZM171.592 18.192L171.703 17.1981L171.648 17.192H171.592V18.192ZM156.688 18.192V17.192H155.688V18.192H156.688ZM156.688 24.624H155.688V25.6224L156.687 25.624L156.688 24.624ZM171.568 24.648L171.567 25.648L171.617 25.6481L171.668 25.643L171.568 24.648ZM173.448 19.008V23.832H175.448V19.008H173.448ZM173.449 23.7844C173.402 24.7815 172.614 25.5696 171.617 25.6171L171.712 27.6149C173.739 27.5183 175.351 25.9065 175.447 23.8796L173.449 23.7844ZM171.664 25.616H156.688V27.616H171.664V25.616ZM155.688 26.616V33H157.688V26.616H155.688ZM156.688 32H154.72V34H156.688V32ZM155.72 33V16.224H153.72V33H155.72ZM154.72 17.224H171.688V15.224H154.72V17.224ZM171.64 17.2228C172.609 17.2697 173.402 18.0534 173.449 19.0556L175.447 18.9604C175.351 16.9386 173.744 15.3223 171.737 15.2252L171.64 17.2228ZM172.923 25.0671C173.266 24.7242 173.48 24.2586 173.48 23.736H171.48C171.48 23.7205 171.484 23.7005 171.492 23.6811C171.5 23.6624 171.508 23.6535 171.509 23.6529L172.923 25.0671ZM173.48 23.736V19.104H171.48V23.736H173.48ZM173.48 19.104C173.48 18.5814 173.266 18.1158 172.923 17.7729L171.509 19.1871C171.508 19.1865 171.5 19.1776 171.492 19.1589C171.484 19.1395 171.48 19.1195 171.48 19.104H173.48ZM172.923 17.7729C172.566 17.4158 172.101 17.2423 171.703 17.1981L171.482 19.1859C171.484 19.1861 171.489 19.1869 171.496 19.1889C171.504 19.1908 171.51 19.1933 171.516 19.1958C171.522 19.1983 171.524 19.2 171.524 19.1995C171.523 19.1991 171.517 19.1955 171.509 19.1871L172.923 17.7729ZM171.592 17.192H156.688V19.192H171.592V17.192ZM155.688 18.192V24.624H157.688V18.192H155.688ZM156.687 25.624L171.567 25.648L171.57 23.648L156.69 23.624L156.687 25.624ZM171.668 25.643C172.087 25.6011 172.559 25.4311 172.923 25.0671L171.509 23.6529C171.526 23.6363 171.533 23.6354 171.522 23.6401C171.517 23.6423 171.51 23.645 171.5 23.6475C171.49 23.65 171.48 23.6519 171.469 23.653L171.668 25.643ZM194.445 22.608L194.493 21.6091L194.469 21.608H194.445V22.608ZM197.229 25.392H198.229V25.3682L198.228 25.3444L197.229 25.392ZM197.229 30.216L198.228 30.2636L198.229 30.2398V30.216H197.229ZM194.469 33V34H194.494L194.518 33.9988L194.469 33ZM177.501 33H176.501V34H177.501V33ZM177.501 16.224V15.224H176.501V16.224H177.501ZM179.469 16.224H180.469V15.224H179.469V16.224ZM179.469 22.608H178.469V23.608H179.469V22.608ZM194.997 24.864L194.29 25.5711V25.5711L194.997 24.864ZM194.349 24.6V23.6L194.348 23.6L194.349 24.6ZM179.469 24.624L179.468 23.624L178.469 23.6256V24.624H179.469ZM179.469 31.032H178.469V32.032H179.469V31.032ZM194.997 30.768L194.29 30.0609V30.0609L194.997 30.768ZM201.189 33V34H202.189V33H201.189ZM199.221 33H198.221V34H199.221V33ZM199.221 16.224V15.224H198.221V16.224H199.221ZM201.189 16.224H202.189V15.224H201.189V16.224ZM194.398 23.6069C195.395 23.6543 196.183 24.4425 196.231 25.4396L198.228 25.3444C198.132 23.3175 196.52 21.7057 194.493 21.6091L194.398 23.6069ZM196.229 25.392V30.216H198.229V25.392H196.229ZM196.231 30.1684C196.183 31.1706 195.39 31.9543 194.421 32.0012L194.518 33.9988C196.525 33.9017 198.132 32.2854 198.228 30.2636L196.231 30.1684ZM194.469 32H177.501V34H194.469V32ZM178.501 33V16.224H176.501V33H178.501ZM177.501 17.224H179.469V15.224H177.501V17.224ZM178.469 16.224V22.608H180.469V16.224H178.469ZM179.469 23.608H194.445V21.608H179.469V23.608ZM196.261 30.144V25.488H194.261V30.144H196.261ZM196.261 25.488C196.261 24.9654 196.047 24.4998 195.705 24.1569L194.29 25.5711C194.29 25.5705 194.281 25.5616 194.273 25.5429C194.265 25.5235 194.261 25.5035 194.261 25.488H196.261ZM195.705 24.1569C195.341 23.7937 194.844 23.6 194.349 23.6V25.6C194.337 25.6 194.33 25.5979 194.325 25.5957C194.319 25.5936 194.307 25.5874 194.29 25.5711L195.705 24.1569ZM194.348 23.6L179.468 23.624L179.471 25.624L194.351 25.6L194.348 23.6ZM178.469 24.624V31.032H180.469V24.624H178.469ZM179.469 32.032H194.373V30.032H179.469V32.032ZM194.373 32.032C194.858 32.032 195.351 31.8285 195.705 31.4751L194.29 30.0609C194.306 30.0456 194.316 30.0412 194.319 30.0399C194.321 30.0388 194.326 30.0372 194.333 30.0356C194.341 30.0341 194.354 30.032 194.373 30.032V32.032ZM195.705 31.4751C196.058 31.1217 196.261 30.6282 196.261 30.144H194.261C194.261 30.1245 194.264 30.1112 194.265 30.104C194.267 30.0966 194.268 30.092 194.269 30.0894C194.271 30.0862 194.275 30.0762 194.29 30.0609L195.705 31.4751ZM201.189 32H199.221V34H201.189V32ZM200.221 33V16.224H198.221V33H200.221ZM199.221 17.224H201.189V15.224H199.221V17.224ZM200.189 16.224V33H202.189V16.224H200.189ZM65.728 39.224V38.224H64.728V39.224H65.728ZM85.456 39.224H86.456V38.224H85.456V39.224ZM85.456 56V57H86.456V56H85.456ZM83.488 56H82.488V57H83.488V56ZM83.488 41.192H84.488V40.192H83.488V41.192ZM67.696 41.192V40.192H66.696V41.192H67.696ZM67.696 56V57H68.696V56H67.696ZM65.728 56H64.728V57H65.728V56ZM65.728 40.224H85.456V38.224H65.728V40.224ZM84.456 39.224V56H86.456V39.224H84.456ZM85.456 55H83.488V57H85.456V55ZM84.488 56V41.192H82.488V56H84.488ZM83.488 40.192H67.696V42.192H83.488V40.192ZM66.696 41.192V56H68.696V41.192H66.696ZM67.696 55H65.728V57H67.696V55ZM66.728 56V41.192H64.728V56H66.728ZM66.728 41.192V39.224H64.728V41.192H66.728ZM109.011 42.008H110.011V41.9842L110.01 41.9604L109.011 42.008ZM109.011 46.832L110.01 46.8796L110.011 46.8558V46.832H109.011ZM106.227 49.616V50.616H106.251L106.274 50.6149L106.227 49.616ZM91.2507 49.616V48.616H90.2507V49.616H91.2507ZM91.2507 56V57H92.2507V56H91.2507ZM89.2827 56H88.2827V57H89.2827V56ZM89.2827 39.224V38.224H88.2827V39.224H89.2827ZM106.251 39.224L106.299 38.2252L106.275 38.224H106.251V39.224ZM106.779 47.36L106.072 46.6529L106.072 46.6529L106.779 47.36ZM106.779 41.48L106.072 42.1871L106.072 42.1871L106.779 41.48ZM106.155 41.192L106.265 40.1981L106.21 40.192H106.155V41.192ZM91.2507 41.192V40.192H90.2507V41.192H91.2507ZM91.2507 47.624H90.2507V48.6224L91.2491 48.624L91.2507 47.624ZM106.131 47.648L106.129 48.648L106.18 48.6481L106.23 48.643L106.131 47.648ZM108.011 42.008V46.832H110.011V42.008H108.011ZM108.012 46.7844C107.964 47.7815 107.176 48.5696 106.179 48.6171L106.274 50.6149C108.301 50.5183 109.913 48.9065 110.01 46.8796L108.012 46.7844ZM106.227 48.616H91.2507V50.616H106.227V48.616ZM90.2507 49.616V56H92.2507V49.616H90.2507ZM91.2507 55H89.2827V57H91.2507V55ZM90.2827 56V39.224H88.2827V56H90.2827ZM89.2827 40.224H106.251V38.224H89.2827V40.224ZM106.202 40.2228C107.171 40.2697 107.964 41.0534 108.012 42.0556L110.01 41.9604C109.913 39.9386 108.306 38.3223 106.299 38.2252L106.202 40.2228ZM107.486 48.0671C107.829 47.7242 108.043 47.2586 108.043 46.736H106.043C106.043 46.7205 106.046 46.7005 106.055 46.6811C106.063 46.6624 106.071 46.6535 106.072 46.6529L107.486 48.0671ZM108.043 46.736V42.104H106.043V46.736H108.043ZM108.043 42.104C108.043 41.5814 107.829 41.1158 107.486 40.7729L106.072 42.1871C106.071 42.1865 106.063 42.1776 106.055 42.1589C106.046 42.1395 106.043 42.1195 106.043 42.104H108.043ZM107.486 40.7729C107.129 40.4158 106.663 40.2423 106.265 40.1981L106.044 42.1859C106.046 42.1861 106.051 42.1869 106.059 42.1889C106.066 42.1908 106.073 42.1933 106.079 42.1958C106.084 42.1983 106.087 42.2 106.086 42.1995C106.085 42.1991 106.08 42.1955 106.072 42.1871L107.486 40.7729ZM106.155 40.192H91.2507V42.192H106.155V40.192ZM90.2507 41.192V47.624H92.2507V41.192H90.2507ZM91.2491 48.624L106.129 48.648L106.132 46.648L91.2523 46.624L91.2491 48.624ZM106.23 48.643C106.649 48.6011 107.122 48.4311 107.486 48.0671L106.072 46.6529C106.088 46.6363 106.096 46.6354 106.085 46.6401C106.08 46.6423 106.073 46.645 106.063 46.6475C106.053 46.65 106.042 46.6519 106.031 46.653L106.23 48.643ZM132.128 41.864L131.129 41.9116L131.129 41.9139L132.128 41.864ZM132.128 53.384L131.129 53.3341L131.129 53.3357L132.128 53.384ZM129.344 56.144L129.312 55.1445L129.303 55.1448L129.295 55.1452L129.344 56.144ZM114.848 56.144L114.898 55.1452L114.889 55.1448L114.88 55.1445L114.848 56.144ZM112.064 53.384L113.063 53.3357L113.062 53.3278L112.064 53.384ZM112.064 41.864L113.062 41.9202L113.063 41.9116L112.064 41.864ZM114.848 39.08L114.896 40.0789L114.898 40.0788L114.848 39.08ZM129.344 39.08L129.295 40.0788L129.296 40.0789L129.344 39.08ZM130.16 53.288L131.154 53.3984L131.157 53.3687L131.159 53.3389L130.16 53.288ZM130.16 41.96L131.159 41.9088L131.157 41.8846L131.155 41.8605L130.16 41.96ZM129.872 41.336L129.165 42.0431V42.0431L129.872 41.336ZM129.248 41.048L129.347 40.053L129.318 40.05L129.288 40.0488L129.248 41.048ZM114.92 41.048L114.88 40.0488L114.844 40.0502L114.81 40.0541L114.92 41.048ZM114.296 41.336L115.003 42.0431L115.003 42.0431L114.296 41.336ZM114.032 41.96L115.031 42.0112L115.032 41.9856V41.96H114.032ZM114.032 53.288H115.032V53.2625L115.031 53.2371L114.032 53.288ZM114.92 54.176L114.97 53.1773L114.945 53.176H114.92V54.176ZM129.248 54.176V53.176H129.223L129.198 53.1773L129.248 54.176ZM131.129 41.9139C131.32 45.7207 131.32 49.5273 131.129 53.3341L133.127 53.4339C133.32 49.5607 133.32 45.6873 133.127 41.8141L131.129 41.9139ZM131.129 53.3357C131.082 54.3181 130.288 55.1135 129.312 55.1445L129.376 57.1435C131.424 57.0785 133.03 55.4259 133.127 53.4323L131.129 53.3357ZM129.295 55.1452C126.89 55.2643 124.483 55.312 122.096 55.312V57.312C124.509 57.312 126.95 57.2637 129.393 57.1428L129.295 55.1452ZM122.096 55.312C119.685 55.312 117.278 55.2642 114.898 55.1452L114.798 57.1428C117.218 57.2638 119.659 57.312 122.096 57.312V55.312ZM114.88 55.1445C113.904 55.1135 113.11 54.3181 113.063 53.3357L111.065 53.4323C111.162 55.4259 112.768 57.0785 114.816 57.1435L114.88 55.1445ZM113.062 53.3278C112.848 49.5252 112.848 45.7227 113.062 41.9202L111.066 41.8078C110.847 45.6852 110.847 49.5627 111.066 53.4402L113.062 53.3278ZM113.063 41.9116C113.11 40.9145 113.898 40.1263 114.896 40.0789L114.8 38.0811C112.774 38.1777 111.162 39.7895 111.065 41.8164L113.063 41.9116ZM114.898 40.0788C117.278 39.9598 119.685 39.912 122.096 39.912V37.912C119.659 37.912 117.218 37.9602 114.798 38.0812L114.898 40.0788ZM122.096 39.912C124.483 39.912 126.89 39.9597 129.295 40.0788L129.393 38.0812C126.95 37.9603 124.509 37.912 122.096 37.912V39.912ZM129.296 40.0789C130.294 40.1263 131.082 40.9145 131.129 41.9116L133.127 41.8164C133.03 39.7895 131.418 38.1777 129.392 38.0811L129.296 40.0789ZM131.159 53.3389C131.352 49.5371 131.352 45.687 131.159 41.9088L129.161 42.0112C129.352 45.721 129.352 49.5029 129.161 53.2371L131.159 53.3389ZM131.155 41.8605C131.11 41.4106 130.924 40.9736 130.579 40.6289L129.165 42.0431C129.165 42.0429 129.164 42.0418 129.163 42.0402C129.161 42.0385 129.161 42.0372 129.16 42.0368C129.16 42.0354 129.163 42.0417 129.165 42.0595L131.155 41.8605ZM130.579 40.6289C130.234 40.2842 129.797 40.098 129.347 40.053L129.148 42.043C129.166 42.0448 129.173 42.0481 129.171 42.0475C129.171 42.0473 129.169 42.0466 129.168 42.0455C129.166 42.0443 129.165 42.0433 129.165 42.0431L130.579 40.6289ZM129.288 40.0488C126.906 39.9526 124.491 39.88 122.096 39.88V41.88C124.453 41.88 126.838 41.9514 129.208 42.0472L129.288 40.0488ZM122.096 39.88C119.701 39.88 117.262 39.9526 114.88 40.0488L114.96 42.0472C117.33 41.9514 119.739 41.88 122.096 41.88V39.88ZM114.81 40.0541C114.411 40.0983 113.946 40.2718 113.589 40.6289L115.003 42.0431C114.995 42.0515 114.989 42.0551 114.989 42.0555C114.988 42.056 114.99 42.0543 114.996 42.0518C115.002 42.0493 115.009 42.0468 115.016 42.0449C115.023 42.0429 115.028 42.0421 115.03 42.0419L114.81 40.0541ZM113.589 40.6289C113.246 40.9718 113.032 41.4374 113.032 41.96H115.032C115.032 41.9755 115.028 41.9955 115.02 42.0149C115.012 42.0336 115.004 42.0425 115.003 42.0431L113.589 40.6289ZM113.033 41.9088C112.84 45.687 112.84 49.5371 113.033 53.3389L115.031 53.2371C114.84 49.5029 114.84 45.721 115.031 42.0112L113.033 41.9088ZM113.032 53.288C113.032 53.7722 113.235 54.2657 113.589 54.6191L115.003 53.2049C115.018 53.2202 115.023 53.2302 115.024 53.2334C115.025 53.236 115.027 53.2406 115.028 53.248C115.03 53.2552 115.032 53.2685 115.032 53.288H113.032ZM113.589 54.6191C113.942 54.9725 114.436 55.176 114.92 55.176V53.176C114.939 53.176 114.953 53.1781 114.96 53.1796C114.967 53.1812 114.972 53.1828 114.975 53.1839C114.978 53.1852 114.988 53.1896 115.003 53.2049L113.589 54.6191ZM114.87 55.1747C117.266 55.2957 119.707 55.344 122.096 55.344V53.344C119.733 53.344 117.326 53.2962 114.97 53.1773L114.87 55.1747ZM122.096 55.344C124.485 55.344 126.902 55.2957 129.298 55.1747L129.198 53.1773C126.842 53.2963 124.459 53.344 122.096 53.344V55.344ZM129.248 55.176C129.771 55.176 130.236 54.962 130.579 54.6191L129.165 53.2049C129.165 53.2043 129.174 53.1959 129.193 53.1879C129.212 53.1795 129.232 53.176 129.248 53.176V55.176ZM130.579 54.6191C130.936 54.262 131.11 53.7965 131.154 53.3984L129.166 53.1776C129.166 53.1795 129.165 53.1848 129.163 53.1921C129.161 53.1993 129.159 53.2062 129.156 53.2119C129.154 53.2175 129.152 53.2199 129.152 53.2193C129.153 53.2186 129.157 53.2132 129.165 53.2049L130.579 54.6191ZM151.622 41.192V42.192H152.622V41.192H151.622ZM137.798 41.192V40.192H136.798V41.192H137.798ZM137.798 46.64H136.798V47.64H137.798V46.64ZM151.622 46.64H152.622V45.64H151.622V46.64ZM151.622 48.608V49.608H152.622V48.608H151.622ZM137.798 48.608V47.608H136.798V48.608H137.798ZM137.798 54.032H136.798V55.032H137.798V54.032ZM151.622 54.032H152.622V53.032H151.622V54.032ZM151.622 56V57H152.622V56H151.622ZM135.83 56H134.83V57H135.83V56ZM135.83 39.224V38.224H134.83V39.224H135.83ZM151.622 39.224H152.622V38.224H151.622V39.224ZM151.622 40.192H137.798V42.192H151.622V40.192ZM136.798 41.192V46.64H138.798V41.192H136.798ZM137.798 47.64H151.622V45.64H137.798V47.64ZM150.622 46.64V48.608H152.622V46.64H150.622ZM151.622 47.608H137.798V49.608H151.622V47.608ZM136.798 48.608V54.032H138.798V48.608H136.798ZM137.798 55.032H151.622V53.032H137.798V55.032ZM150.622 54.032V56H152.622V54.032H150.622ZM151.622 55H135.83V57H151.622V55ZM136.83 56V39.224H134.83V56H136.83ZM135.83 40.224H151.622V38.224H135.83V40.224ZM150.622 39.224V41.192H152.622V39.224H150.622ZM174.566 39.224L175.129 40.0506L177.844 38.2017L174.559 38.224L174.566 39.224ZM162.23 47.624L161.667 46.7974L160.452 47.6252L161.668 48.4513L162.23 47.624ZM174.566 56L174.573 57L177.786 56.978L175.128 55.1727L174.566 56ZM171.062 56.024L170.498 56.8501L170.756 57.0261L171.069 57.024L171.062 56.024ZM160.19 48.608L160.753 47.7819L160.499 47.608H160.19V48.608ZM156.806 48.608V47.608H155.806V48.608H156.806ZM156.806 56.024V57.024H157.806V56.024H156.806ZM154.838 56.024H153.838V57.024H154.838V56.024ZM154.838 39.224V38.224H153.838V39.224H154.838ZM156.806 39.224H157.806V38.224H156.806V39.224ZM156.806 46.64H155.806V47.64H156.806V46.64ZM160.166 46.64V47.64H160.474L160.728 47.467L160.166 46.64ZM171.038 39.248L171.031 38.248L170.727 38.2501L170.476 38.421L171.038 39.248ZM174.003 38.3974L161.667 46.7974L162.793 48.4506L175.129 40.0506L174.003 38.3974ZM161.668 48.4513L174.004 56.8273L175.128 55.1727L162.792 46.7967L161.668 48.4513ZM174.559 55L171.055 55.024L171.069 57.024L174.573 57L174.559 55ZM171.625 55.1979L160.753 47.7819L159.626 49.4341L170.498 56.8501L171.625 55.1979ZM160.19 47.608H156.806V49.608H160.19V47.608ZM155.806 48.608V56.024H157.806V48.608H155.806ZM156.806 55.024H154.838V57.024H156.806V55.024ZM155.838 56.024V39.224H153.838V56.024H155.838ZM154.838 40.224H156.806V38.224H154.838V40.224ZM155.806 39.224V46.64H157.806V39.224H155.806ZM156.806 47.64H160.166V45.64H156.806V47.64ZM160.728 47.467L171.6 40.075L170.476 38.421L159.604 45.813L160.728 47.467ZM171.045 40.248L174.573 40.224L174.559 38.224L171.031 38.248L171.045 40.248ZM175.215 39.224V38.224H174.215V39.224H175.215ZM191.007 39.224H192.007V38.224H191.007V39.224ZM191.007 41.192V42.192H192.007V41.192H191.007ZM184.095 41.192V40.192H183.095V41.192H184.095ZM184.095 56V57H185.095V56H184.095ZM182.103 56H181.103V57H182.103V56ZM182.103 41.192H183.103V40.192H182.103V41.192ZM175.215 41.192H174.215V42.192H175.215V41.192ZM175.215 40.224H191.007V38.224H175.215V40.224ZM190.007 39.224V41.192H192.007V39.224H190.007ZM191.007 40.192H184.095V42.192H191.007V40.192ZM183.095 41.192V56H185.095V41.192H183.095ZM184.095 55H182.103V57H184.095V55ZM183.103 56V41.192H181.103V56H183.103ZM182.103 40.192H175.215V42.192H182.103V40.192ZM176.215 41.192V39.224H174.215V41.192H176.215ZM201.138 39.224L202.047 38.8077L201.78 38.224H201.138V39.224ZM208.818 56V57H210.376L209.727 55.5837L208.818 56ZM206.658 56L205.749 56.4179L206.017 57H206.658V56ZM205.002 52.4L205.91 51.9821L205.643 51.4H205.002V52.4ZM192.906 52.4V51.4H192.265L191.997 51.9821L192.906 52.4ZM191.25 56V57H191.891L192.158 56.4179L191.25 56ZM189.09 56L188.181 55.5837L187.532 57H189.09V56ZM196.77 39.224V38.224H196.128L195.861 38.8077L196.77 39.224ZM193.818 50.408L192.909 49.9913L192.26 51.408H193.818V50.408ZM204.09 50.408V51.408H205.648L204.999 49.9913L204.09 50.408ZM199.866 41.192L200.775 40.7753L200.508 40.192H199.866V41.192ZM198.042 41.192V40.192H197.4L197.133 40.7753L198.042 41.192ZM200.229 39.6402L207.909 56.4163L209.727 55.5837L202.047 38.8077L200.229 39.6402ZM208.818 55H206.658V57H208.818V55ZM207.566 55.5821L205.91 51.9821L204.093 52.8179L205.749 56.4179L207.566 55.5821ZM205.002 51.4H192.906V53.4H205.002V51.4ZM191.997 51.9821L190.341 55.5821L192.158 56.4179L193.814 52.8179L191.997 51.9821ZM191.25 55H189.09V57H191.25V55ZM189.999 56.4163L197.679 39.6402L195.861 38.8077L188.181 55.5837L189.999 56.4163ZM196.77 40.224H201.138V38.224H196.77V40.224ZM193.818 51.408H204.09V49.408H193.818V51.408ZM204.999 49.9913L200.775 40.7753L198.957 41.6087L203.181 50.8247L204.999 49.9913ZM199.866 40.192H198.042V42.192H199.866V40.192ZM197.133 40.7753L192.909 49.9913L194.727 50.8247L198.951 41.6087L197.133 40.7753Z" fill="black" fill-opacity="0.12" mask="url(#path-2-outside-1_107_22)"/>
</svg>
