<svg width="574" height="163" viewBox="0 0 574 163" fill="none" xmlns="http://www.w3.org/2000/svg">
<mask id="path-1-outside-1_26_156" maskUnits="userSpaceOnUse" x="-1" y="-1" width="576" height="165" fill="black">
<rect fill="white" x="-1" y="-1" width="576" height="165"/>
<path d="M67.0516 1.89599L97.7716 69H89.1316L82.5076 54.6H34.1236L27.4996 69H18.8596L49.5796 1.89599H67.0516ZM37.7716 46.632H78.8596L61.9636 9.768H54.6676L37.7716 46.632ZM179.524 28.872C183.076 30.696 185.476 34.344 185.668 38.568V57.864C185.38 63.912 180.58 68.712 174.628 69H106.756V1.89599H169.636C175.684 2.184 180.484 6.984 180.772 13.032V24.264C180.676 25.896 180.292 27.432 179.524 28.872ZM114.628 9.768V27.432H169.252C170.212 27.432 171.076 27.048 171.748 26.376C172.42 25.704 172.804 24.84 172.9 23.88V13.416C172.804 12.456 172.42 11.592 171.748 10.92C171.076 10.248 170.212 9.86399 169.252 9.768H114.628ZM177.796 57.576V38.952C177.796 37.992 177.412 37.128 176.74 36.456C176.068 35.784 175.108 35.4 174.148 35.4L114.628 35.496V61.128H174.244C175.108 61.128 176.068 60.744 176.74 60.072C177.412 59.4 177.796 58.44 177.796 57.576ZM189.487 1.89599H252.655V9.768H225.007V69H217.039V9.768H189.487V1.89599ZM342.074 12.456C342.842 27.816 342.842 43.176 342.074 58.536C341.786 64.488 336.986 69.384 330.938 69.576C321.242 70.056 311.546 70.248 301.946 70.248C292.25 70.248 282.554 70.056 272.954 69.576C266.906 69.384 262.106 64.488 261.818 58.536C260.954 43.176 260.954 27.816 261.818 12.456C262.106 6.408 266.906 1.608 272.954 1.32C282.554 0.839996 292.25 0.647999 301.946 0.647999C311.546 0.647999 321.242 0.839996 330.938 1.32C336.986 1.608 341.786 6.408 342.074 12.456ZM334.202 58.152C334.97 43.08 334.97 27.816 334.202 12.84C334.106 11.88 333.722 11.016 333.05 10.344C332.378 9.672 331.514 9.288 330.554 9.192C321.05 8.808 311.45 8.51999 301.946 8.51999C292.442 8.51999 282.746 8.808 273.242 9.192C272.378 9.288 271.418 9.672 270.746 10.344C270.074 11.016 269.69 11.88 269.69 12.84C268.922 27.816 268.922 43.08 269.69 58.152C269.69 59.016 270.074 59.976 270.746 60.648C271.418 61.32 272.378 61.704 273.242 61.704C282.746 62.184 292.442 62.376 301.946 62.376C311.45 62.376 321.05 62.184 330.554 61.704C331.514 61.704 332.378 61.32 333.05 60.648C333.722 59.976 334.106 59.016 334.202 58.152ZM435.793 13.032V32.328C435.505 38.376 430.705 43.176 424.657 43.464H364.753V69H356.881V1.89599H424.753C430.705 2.184 435.505 6.984 435.793 13.032ZM426.865 34.44C427.537 33.768 427.921 32.904 427.921 31.944V13.416C427.921 12.456 427.537 11.592 426.865 10.92C426.193 10.248 425.233 9.86399 424.369 9.768H364.753V35.496L424.273 35.592C425.233 35.496 426.193 35.112 426.865 34.44ZM515.782 27.432C521.83 27.72 526.63 32.52 526.918 38.568V57.864C526.63 63.912 521.83 68.712 515.878 69H448.006V1.89599H455.878V27.432H515.782ZM519.046 57.576V38.952C519.046 37.992 518.662 37.128 517.99 36.456C517.318 35.784 516.358 35.4 515.398 35.4L455.878 35.496V61.128H515.494C516.358 61.128 517.318 60.744 517.99 60.072C518.662 59.4 519.046 58.44 519.046 57.576ZM542.758 69H534.886V1.89599H542.758V69ZM0.912125 93.896H79.8241V161H71.9521V101.768H8.78413V161H0.912125V101.768V93.896ZM174.043 105.032V124.328C173.755 130.376 168.955 135.176 162.907 135.464H103.003V161H95.1309V93.896H163.003C168.955 94.184 173.755 98.984 174.043 105.032ZM165.115 126.44C165.787 125.768 166.171 124.904 166.171 123.944V105.416C166.171 104.456 165.787 103.592 165.115 102.92C164.443 102.248 163.483 101.864 162.619 101.768H103.003V127.496L162.523 127.592C163.483 127.496 164.443 127.112 165.115 126.44ZM266.512 104.456C267.28 119.816 267.28 135.176 266.512 150.536C266.224 156.488 261.424 161.384 255.376 161.576C245.68 162.056 235.984 162.248 226.384 162.248C216.688 162.248 206.992 162.056 197.392 161.576C191.344 161.384 186.544 156.488 186.256 150.536C185.392 135.176 185.392 119.816 186.256 104.456C186.544 98.408 191.344 93.608 197.392 93.32C206.992 92.84 216.688 92.648 226.384 92.648C235.984 92.648 245.68 92.84 255.376 93.32C261.424 93.608 266.224 98.408 266.512 104.456ZM258.64 150.152C259.408 135.08 259.408 119.816 258.64 104.84C258.544 103.88 258.16 103.016 257.488 102.344C256.816 101.672 255.952 101.288 254.992 101.192C245.488 100.808 235.888 100.52 226.384 100.52C216.88 100.52 207.184 100.808 197.68 101.192C196.816 101.288 195.856 101.672 195.184 102.344C194.512 103.016 194.128 103.88 194.128 104.84C193.36 119.816 193.36 135.08 194.128 150.152C194.128 151.016 194.512 151.976 195.184 152.648C195.856 153.32 196.816 153.704 197.68 153.704C207.184 154.184 216.88 154.376 226.384 154.376C235.888 154.376 245.488 154.184 254.992 153.704C255.952 153.704 256.816 153.32 257.488 152.648C258.16 151.976 258.544 151.016 258.64 150.152ZM344.486 101.768H289.19V123.56H344.486V131.432H289.19V153.128H344.486V161H281.318V93.896H344.486V101.768ZM436.264 93.896L386.92 127.496L436.264 161L422.248 161.096L378.76 131.432H365.224V161.096H357.352V93.896H365.224V123.56H378.664L422.152 93.992L436.264 93.896ZM438.862 93.896H502.03V101.768H474.382V161H466.414V101.768H438.862V93.896ZM542.552 93.896L573.272 161H564.632L558.008 146.6H509.624L503 161H494.36L525.08 93.896H542.552ZM513.272 138.632H554.36L537.464 101.768H530.168L513.272 138.632Z"/>
</mask>
<path d="M67.0516 1.89599L67.9609 1.47974L67.6936 0.895994H67.0516V1.89599ZM97.7716 69V70H99.3292L98.6809 68.5837L97.7716 69ZM89.1316 69L88.2231 69.4179L88.4909 70H89.1316V69ZM82.5076 54.6L83.4161 54.1821L83.1483 53.6H82.5076V54.6ZM34.1236 54.6V53.6H33.4829L33.2151 54.1821L34.1236 54.6ZM27.4996 69V70H28.1404L28.4081 69.4179L27.4996 69ZM18.8596 69L17.9504 68.5837L17.302 70H18.8596V69ZM49.5796 1.89599V0.895994H48.9376L48.6704 1.47974L49.5796 1.89599ZM37.7716 46.632L36.8625 46.2153L36.2133 47.632H37.7716V46.632ZM78.8596 46.632V47.632H80.418L79.7687 46.2153L78.8596 46.632ZM61.9636 9.768L62.8727 9.35134L62.6053 8.768H61.9636V9.768ZM54.6676 9.768V8.768H54.0259L53.7586 9.35134L54.6676 9.768ZM66.1424 2.31225L96.8624 69.4163L98.6809 68.5837L67.9609 1.47974L66.1424 2.31225ZM97.7716 68H89.1316V70H97.7716V68ZM90.0401 68.5821L83.4161 54.1821L81.5992 55.0179L88.2231 69.4179L90.0401 68.5821ZM82.5076 53.6H34.1236V55.6H82.5076V53.6ZM33.2151 54.1821L26.5911 68.5821L28.4081 69.4179L35.0321 55.0179L33.2151 54.1821ZM27.4996 68H18.8596V70H27.4996V68ZM19.7689 69.4163L50.4889 2.31225L48.6704 1.47974L17.9504 68.5837L19.7689 69.4163ZM49.5796 2.89599H67.0516V0.895994H49.5796V2.89599ZM37.7716 47.632H78.8596V45.632H37.7716V47.632ZM79.7687 46.2153L62.8727 9.35134L61.0546 10.1847L77.9506 47.0487L79.7687 46.2153ZM61.9636 8.768H54.6676V10.768H61.9636V8.768ZM53.7586 9.35134L36.8625 46.2153L38.6807 47.0487L55.5767 10.1847L53.7586 9.35134ZM179.524 28.872L178.642 28.4014L178.164 29.2976L179.067 29.7616L179.524 28.872ZM185.668 38.568H186.668V38.5453L186.667 38.5226L185.668 38.568ZM185.668 57.864L186.667 57.9116L186.668 57.8878V57.864H185.668ZM174.628 69V70H174.652L174.676 69.9988L174.628 69ZM106.756 69H105.756V70H106.756V69ZM106.756 1.89599V0.895994H105.756V1.89599H106.756ZM169.636 1.89599L169.683 0.897126L169.66 0.895994H169.636V1.89599ZM180.772 13.032H181.772V13.0082L181.771 12.9844L180.772 13.032ZM180.772 24.264L181.77 24.3227L181.772 24.2934V24.264H180.772ZM114.628 9.768V8.768H113.628V9.768H114.628ZM114.628 27.432H113.628V28.432H114.628V27.432ZM171.748 26.376L172.455 27.0831V27.0831L171.748 26.376ZM172.9 23.88L173.895 23.9795L173.9 23.9299V23.88H172.9ZM172.9 13.416H173.9V13.3661L173.895 13.3165L172.9 13.416ZM169.252 9.768L169.351 8.77296L169.302 8.768H169.252V9.768ZM176.74 36.456L176.033 37.1631L176.74 36.456ZM174.148 35.4V34.4H174.146L174.148 35.4ZM114.628 35.496L114.626 34.496L113.628 34.4976V35.496H114.628ZM114.628 61.128H113.628V62.128H114.628V61.128ZM176.74 60.072L176.033 59.3649V59.3649L176.74 60.072ZM179.067 29.7616C182.298 31.4208 184.493 34.7455 184.669 38.6134L186.667 38.5226C186.459 33.9425 183.854 29.9712 179.981 27.9824L179.067 29.7616ZM184.668 38.568V57.864H186.668V38.568H184.668ZM184.669 57.8164C184.405 63.3546 180.012 67.7383 174.58 68.0012L174.676 69.9988C181.148 69.6857 186.354 64.4694 186.667 57.9116L184.669 57.8164ZM174.628 68H106.756V70H174.628V68ZM107.756 69V1.89599H105.756V69H107.756ZM106.756 2.89599H169.636V0.895994H106.756V2.89599ZM169.588 2.89486C175.121 3.15835 179.51 7.54646 179.773 13.0796L181.771 12.9844C181.458 6.42154 176.246 1.20965 169.683 0.897126L169.588 2.89486ZM179.772 13.032V24.264H181.772V13.032H179.772ZM179.774 24.2053C179.685 25.714 179.332 27.1059 178.642 28.4014L180.406 29.3426C181.251 27.7581 181.667 26.078 181.77 24.3227L179.774 24.2053ZM113.628 9.768V27.432H115.628V9.768H113.628ZM114.628 28.432H169.252V26.432H114.628V28.432ZM169.252 28.432C170.494 28.432 171.608 27.93 172.455 27.0831L171.041 25.6689C170.544 26.166 169.929 26.432 169.252 26.432V28.432ZM172.455 27.0831C173.304 26.2344 173.778 25.1495 173.895 23.9795L171.905 23.7805C171.83 24.5305 171.536 25.1736 171.041 25.6689L172.455 27.0831ZM173.9 23.88V13.416H171.9V23.88H173.9ZM173.895 13.3165C173.778 12.1465 173.304 11.0616 172.455 10.2129L171.041 11.6271C171.536 12.1224 171.83 12.7654 171.905 13.5155L173.895 13.3165ZM172.455 10.2129C171.606 9.36415 170.521 8.88995 169.351 8.77296L169.152 10.763C169.902 10.838 170.546 11.1318 171.041 11.6271L172.455 10.2129ZM169.252 8.768H114.628V10.768H169.252V8.768ZM178.796 57.576V38.952H176.796V57.576H178.796ZM178.796 38.952C178.796 37.7094 178.294 36.5958 177.447 35.7489L176.033 37.1631C176.53 37.6602 176.796 38.2746 176.796 38.952H178.796ZM177.447 35.7489C176.58 34.8817 175.362 34.4 174.148 34.4V36.4C174.854 36.4 175.556 36.6863 176.033 37.1631L177.447 35.7489ZM174.146 34.4L114.626 34.496L114.629 36.496L174.149 36.4L174.146 34.4ZM113.628 35.496V61.128H115.628V35.496H113.628ZM114.628 62.128H174.244V60.128H114.628V62.128ZM174.244 62.128C175.376 62.128 176.59 61.6365 177.447 60.7791L176.033 59.3649C175.546 59.8515 174.84 60.128 174.244 60.128V62.128ZM177.447 60.7791C178.304 59.9217 178.796 58.7082 178.796 57.576H176.796C176.796 58.1718 176.519 58.8783 176.033 59.3649L177.447 60.7791ZM189.487 1.89599V0.895994H188.487V1.89599H189.487ZM252.655 1.89599H253.655V0.895994H252.655V1.89599ZM252.655 9.768V10.768H253.655V9.768H252.655ZM225.007 9.768V8.768H224.007V9.768H225.007ZM225.007 69V70H226.007V69H225.007ZM217.039 69H216.039V70H217.039V69ZM217.039 9.768H218.039V8.768H217.039V9.768ZM189.487 9.768H188.487V10.768H189.487V9.768ZM189.487 2.89599H252.655V0.895994H189.487V2.89599ZM251.655 1.89599V9.768H253.655V1.89599H251.655ZM252.655 8.768H225.007V10.768H252.655V8.768ZM224.007 9.768V69H226.007V9.768H224.007ZM225.007 68H217.039V70H225.007V68ZM218.039 69V9.768H216.039V69H218.039ZM217.039 8.768H189.487V10.768H217.039V8.768ZM190.487 9.768V1.89599H188.487V9.768H190.487ZM342.074 12.456L341.076 12.5036L341.076 12.5059L342.074 12.456ZM342.074 58.536L341.076 58.4861L341.076 58.4877L342.074 58.536ZM330.938 69.576L330.907 68.5765L330.898 68.5768L330.889 68.5772L330.938 69.576ZM272.954 69.576L273.004 68.5772L272.995 68.5768L272.986 68.5765L272.954 69.576ZM261.818 58.536L262.817 58.4877L262.817 58.4798L261.818 58.536ZM261.818 12.456L262.817 12.5122L262.817 12.5036L261.818 12.456ZM272.954 1.32L273.002 2.31887L273.004 2.31875L272.954 1.32ZM330.938 1.32L330.889 2.31877L330.891 2.31886L330.938 1.32ZM334.202 58.152L335.196 58.2624L335.2 58.2327L335.201 58.2029L334.202 58.152ZM334.202 12.84L335.201 12.7888L335.2 12.7646L335.197 12.7405L334.202 12.84ZM333.05 10.344L332.343 11.0511V11.0511L333.05 10.344ZM330.554 9.192L330.654 8.19696L330.624 8.19401L330.595 8.19281L330.554 9.192ZM273.242 9.192L273.202 8.19281L273.167 8.19423L273.132 8.19811L273.242 9.192ZM270.746 10.344L271.453 11.0511V11.0511L270.746 10.344ZM269.69 12.84L270.689 12.8912L270.69 12.8656V12.84H269.69ZM269.69 58.152H270.69V58.1265L270.689 58.1011L269.69 58.152ZM273.242 61.704L273.293 60.7053L273.268 60.704H273.242V61.704ZM330.554 61.704V60.704H330.529L330.504 60.7053L330.554 61.704ZM341.076 12.5059C341.842 27.8327 341.842 43.1593 341.076 58.4861L343.073 58.5859C343.843 43.1927 343.843 27.7993 343.073 12.4061L341.076 12.5059ZM341.076 58.4877C340.812 63.9341 336.419 68.4015 330.907 68.5765L330.97 70.5755C337.554 70.3665 342.761 65.0419 343.073 58.5843L341.076 58.4877ZM330.889 68.5772C321.212 69.0563 311.533 69.248 301.946 69.248V71.248C311.56 71.248 321.272 71.0557 330.988 70.5748L330.889 68.5772ZM301.946 69.248C292.263 69.248 282.584 69.0563 273.004 68.5772L272.904 70.5748C282.524 71.0557 292.237 71.248 301.946 71.248V69.248ZM272.986 68.5765C267.474 68.4015 263.081 63.9341 262.817 58.4877L260.82 58.5843C261.132 65.0419 266.339 70.3665 272.923 70.5755L272.986 68.5765ZM262.817 58.4798C261.955 43.1572 261.955 27.8347 262.817 12.5122L260.82 12.3998C259.954 27.7972 259.954 43.1947 260.82 58.5922L262.817 58.4798ZM262.817 12.5036C263.081 6.97046 267.469 2.58235 273.002 2.31886L272.907 0.321128C266.344 0.633648 261.132 5.84554 260.82 12.4084L262.817 12.5036ZM273.004 2.31875C282.584 1.83975 292.263 1.648 301.946 1.648V-0.352001C292.237 -0.352001 282.524 -0.159755 272.904 0.321244L273.004 2.31875ZM301.946 1.648C311.533 1.648 321.212 1.83974 330.889 2.31877L330.988 0.321219C321.272 -0.159747 311.56 -0.352001 301.946 -0.352001V1.648ZM330.891 2.31886C336.424 2.58235 340.812 6.97046 341.076 12.5036L343.073 12.4084C342.761 5.84554 337.549 0.633648 330.986 0.321128L330.891 2.31886ZM335.201 58.2029C335.971 43.0971 335.971 27.799 335.201 12.7888L333.204 12.8912C333.97 27.833 333.97 43.0629 333.204 58.1011L335.201 58.2029ZM335.197 12.7405C335.08 11.5705 334.606 10.4856 333.758 9.63689L332.343 11.0511C332.839 11.5464 333.132 12.1894 333.207 12.9395L335.197 12.7405ZM333.758 9.63689C332.909 8.78816 331.824 8.31395 330.654 8.19696L330.455 10.187C331.205 10.262 331.848 10.5558 332.343 11.0511L333.758 9.63689ZM330.595 8.19281C321.085 7.80857 311.47 7.51999 301.946 7.51999V9.51999C311.431 9.51999 321.016 9.80743 330.514 10.1912L330.595 8.19281ZM301.946 7.51999C292.423 7.51999 282.712 7.80856 273.202 8.19281L273.283 10.1912C282.78 9.80744 292.461 9.51999 301.946 9.51999V7.51999ZM273.132 8.19811C272.086 8.31434 270.9 8.77582 270.039 9.63689L271.453 11.0511C271.936 10.5682 272.671 10.2617 273.353 10.1859L273.132 8.19811ZM270.039 9.63689C269.192 10.4838 268.69 11.5974 268.69 12.84H270.69C270.69 12.1625 270.956 11.5482 271.453 11.0511L270.039 9.63689ZM268.692 12.7888C267.922 27.799 267.922 43.0971 268.692 58.2029L270.689 58.1011C269.923 43.0629 269.923 27.833 270.689 12.8912L268.692 12.7888ZM268.69 58.152C268.69 59.2842 269.182 60.4977 270.039 61.3551L271.453 59.9409C270.967 59.4543 270.69 58.7478 270.69 58.152H268.69ZM270.039 61.3551C270.897 62.2125 272.11 62.704 273.242 62.704V60.704C272.647 60.704 271.94 60.4275 271.453 59.9409L270.039 61.3551ZM273.192 62.7027C282.716 63.1837 292.429 63.376 301.946 63.376V61.376C292.455 61.376 282.777 61.1842 273.293 60.7053L273.192 62.7027ZM301.946 63.376C311.464 63.376 321.081 63.1837 330.605 62.7027L330.504 60.7053C321.02 61.1843 311.437 61.376 301.946 61.376V63.376ZM330.554 62.704C331.797 62.704 332.911 62.202 333.758 61.3551L332.343 59.9409C331.846 60.438 331.232 60.704 330.554 60.704V62.704ZM333.758 61.3551C334.619 60.494 335.08 59.3085 335.196 58.2624L333.208 58.0416C333.133 58.7235 332.826 59.458 332.343 59.9409L333.758 61.3551ZM435.793 13.032H436.793V13.0082L436.792 12.9844L435.793 13.032ZM435.793 32.328L436.792 32.3756L436.793 32.3518V32.328H435.793ZM424.657 43.464V44.464H424.681L424.704 44.4629L424.657 43.464ZM364.753 43.464V42.464H363.753V43.464H364.753ZM364.753 69V70H365.753V69H364.753ZM356.881 69H355.881V70H356.881V69ZM356.881 1.89599V0.895994H355.881V1.89599H356.881ZM424.753 1.89599L424.801 0.897163L424.777 0.895994H424.753V1.89599ZM426.865 34.44L426.158 33.7329V33.7329L426.865 34.44ZM426.865 10.92L426.158 11.6271V11.6271L426.865 10.92ZM424.369 9.768L424.479 8.77411L424.424 8.768H424.369V9.768ZM364.753 9.768V8.768H363.753V9.768H364.753ZM364.753 35.496H363.753V36.4944L364.751 36.496L364.753 35.496ZM424.273 35.592L424.271 36.592L424.322 36.5921L424.372 36.587L424.273 35.592ZM434.793 13.032V32.328H436.793V13.032H434.793ZM434.794 32.2804C434.531 37.8135 430.142 42.2016 424.609 42.4651L424.704 44.4629C431.267 44.1503 436.479 38.9385 436.792 32.3756L434.794 32.2804ZM424.657 42.464H364.753V44.464H424.657V42.464ZM363.753 43.464V69H365.753V43.464H363.753ZM364.753 68H356.881V70H364.753V68ZM357.881 69V1.89599H355.881V69H357.881ZM356.881 2.89599H424.753V0.895994H356.881V2.89599ZM424.705 2.89483C430.137 3.1577 434.53 7.54141 434.794 13.0796L436.792 12.9844C436.479 6.42659 431.273 1.21029 424.801 0.897163L424.705 2.89483ZM427.572 35.1471C428.419 34.3002 428.921 33.1866 428.921 31.944H426.921C426.921 32.6214 426.655 33.2358 426.158 33.7329L427.572 35.1471ZM428.921 31.944V13.416H426.921V31.944H428.921ZM428.921 13.416C428.921 12.1734 428.419 11.0598 427.572 10.2129L426.158 11.6271C426.655 12.1242 426.921 12.7386 426.921 13.416H428.921ZM427.572 10.2129C426.711 9.35182 425.525 8.89034 424.479 8.77411L424.258 10.7619C424.94 10.8377 425.675 11.1442 426.158 11.6271L427.572 10.2129ZM424.369 8.768H364.753V10.768H424.369V8.768ZM363.753 9.768V35.496H365.753V9.768H363.753ZM364.751 36.496L424.271 36.592L424.274 34.592L364.755 34.496L364.751 36.496ZM424.372 36.587C425.511 36.4731 426.704 36.0151 427.572 35.1471L426.158 33.7329C425.682 34.2089 424.954 34.5189 424.173 34.597L424.372 36.587ZM515.782 27.432L515.829 26.4331L515.806 26.432H515.782V27.432ZM526.918 38.568H527.918V38.5442L527.917 38.5204L526.918 38.568ZM526.918 57.864L527.917 57.9116L527.918 57.8878V57.864H526.918ZM515.878 69V70H515.902L515.926 69.9988L515.878 69ZM448.006 69H447.006V70H448.006V69ZM448.006 1.89599V0.895994H447.006V1.89599H448.006ZM455.878 1.89599H456.878V0.895994H455.878V1.89599ZM455.878 27.432H454.878V28.432H455.878V27.432ZM517.99 36.456L517.283 37.1631L517.99 36.456ZM515.398 35.4V34.4H515.396L515.398 35.4ZM455.878 35.496L455.876 34.496L454.878 34.4976V35.496H455.878ZM455.878 61.128H454.878V62.128H455.878V61.128ZM517.99 60.072L517.283 59.3649V59.3649L517.99 60.072ZM542.758 69V70H543.758V69H542.758ZM534.886 69H533.886V70H534.886V69ZM534.886 1.89599V0.895994H533.886V1.89599H534.886ZM542.758 1.89599H543.758V0.895994H542.758V1.89599ZM515.734 28.4309C521.267 28.6943 525.656 33.0825 525.919 38.6156L527.917 38.5204C527.604 31.9575 522.392 26.7456 515.829 26.4331L515.734 28.4309ZM525.918 38.568V57.864H527.918V38.568H525.918ZM525.919 57.8164C525.655 63.3546 521.262 67.7383 515.83 68.0012L515.926 69.9988C522.398 69.6857 527.604 64.4694 527.917 57.9116L525.919 57.8164ZM515.878 68H448.006V70H515.878V68ZM449.006 69V1.89599H447.006V69H449.006ZM448.006 2.89599H455.878V0.895994H448.006V2.89599ZM454.878 1.89599V27.432H456.878V1.89599H454.878ZM455.878 28.432H515.782V26.432H455.878V28.432ZM520.046 57.576V38.952H518.046V57.576H520.046ZM520.046 38.952C520.046 37.7094 519.544 36.5958 518.697 35.7489L517.283 37.1631C517.78 37.6602 518.046 38.2746 518.046 38.952H520.046ZM518.697 35.7489C517.83 34.8817 516.612 34.4 515.398 34.4V36.4C516.104 36.4 516.806 36.6863 517.283 37.1631L518.697 35.7489ZM515.396 34.4L455.876 34.496L455.88 36.496L515.399 36.4L515.396 34.4ZM454.878 35.496V61.128H456.878V35.496H454.878ZM455.878 62.128H515.494V60.128H455.878V62.128ZM515.494 62.128C516.626 62.128 517.84 61.6365 518.697 60.7791L517.283 59.3649C516.796 59.8515 516.09 60.128 515.494 60.128V62.128ZM518.697 60.7791C519.554 59.9217 520.046 58.7082 520.046 57.576H518.046C518.046 58.1718 517.769 58.8783 517.283 59.3649L518.697 60.7791ZM542.758 68H534.886V70H542.758V68ZM535.886 69V1.89599H533.886V69H535.886ZM534.886 2.89599H542.758V0.895994H534.886V2.89599ZM541.758 1.89599V69H543.758V1.89599H541.758ZM0.912125 93.896V92.896H-0.0878754V93.896H0.912125ZM79.8241 93.896H80.8241V92.896H79.8241V93.896ZM79.8241 161V162H80.8241V161H79.8241ZM71.9521 161H70.9521V162H71.9521V161ZM71.9521 101.768H72.9521V100.768H71.9521V101.768ZM8.78412 101.768V100.768H7.78412V101.768H8.78412ZM8.78412 161V162H9.78412V161H8.78412ZM0.912125 161H-0.0878754V162H0.912125V161ZM0.912125 94.896H79.8241V92.896H0.912125V94.896ZM78.8241 93.896V161H80.8241V93.896H78.8241ZM79.8241 160H71.9521V162H79.8241V160ZM72.9521 161V101.768H70.9521V161H72.9521ZM71.9521 100.768H8.78412V102.768H71.9521V100.768ZM7.78412 101.768V161H9.78412V101.768H7.78412ZM8.78412 160H0.912125V162H8.78412V160ZM1.91212 161V101.768H-0.0878754V161H1.91212ZM1.91212 101.768V93.896H-0.0878754V101.768H1.91212ZM174.043 105.032H175.043V105.008L175.042 104.984L174.043 105.032ZM174.043 124.328L175.042 124.376L175.043 124.352V124.328H174.043ZM162.907 135.464V136.464H162.931L162.954 136.463L162.907 135.464ZM103.003 135.464V134.464H102.003V135.464H103.003ZM103.003 161V162H104.003V161H103.003ZM95.1309 161H94.1309V162H95.1309V161ZM95.1309 93.896V92.896H94.1309V93.896H95.1309ZM163.003 93.896L163.051 92.8972L163.027 92.896H163.003V93.896ZM165.115 126.44L164.408 125.733L165.115 126.44ZM165.115 102.92L164.408 103.627L165.115 102.92ZM162.619 101.768L162.729 100.774L162.674 100.768H162.619V101.768ZM103.003 101.768V100.768H102.003V101.768H103.003ZM103.003 127.496H102.003V128.494L103.001 128.496L103.003 127.496ZM162.523 127.592L162.521 128.592L162.572 128.592L162.622 128.587L162.523 127.592ZM173.043 105.032V124.328H175.043V105.032H173.043ZM173.044 124.28C172.781 129.814 168.392 134.202 162.859 134.465L162.954 136.463C169.517 136.15 174.729 130.938 175.042 124.376L173.044 124.28ZM162.907 134.464H103.003V136.464H162.907V134.464ZM102.003 135.464V161H104.003V135.464H102.003ZM103.003 160H95.1309V162H103.003V160ZM96.1309 161V93.896H94.1309V161H96.1309ZM95.1309 94.896H163.003V92.896H95.1309V94.896ZM162.955 94.8948C168.387 95.1577 172.78 99.5414 173.044 105.08L175.042 104.984C174.729 98.4266 169.523 93.2103 163.051 92.8972L162.955 94.8948ZM165.822 127.147C166.669 126.3 167.171 125.187 167.171 123.944H165.171C165.171 124.621 164.905 125.236 164.408 125.733L165.822 127.147ZM167.171 123.944V105.416H165.171V123.944H167.171ZM167.171 105.416C167.171 104.173 166.669 103.06 165.822 102.213L164.408 103.627C164.905 104.124 165.171 104.739 165.171 105.416H167.171ZM165.822 102.213C164.961 101.352 163.775 100.89 162.729 100.774L162.508 102.762C163.19 102.838 163.925 103.144 164.408 103.627L165.822 102.213ZM162.619 100.768H103.003V102.768H162.619V100.768ZM102.003 101.768V127.496H104.003V101.768H102.003ZM103.001 128.496L162.521 128.592L162.524 126.592L103.004 126.496L103.001 128.496ZM162.622 128.587C163.761 128.473 164.954 128.015 165.822 127.147L164.408 125.733C163.932 126.209 163.204 126.519 162.423 126.597L162.622 128.587ZM266.512 104.456L265.513 104.504L265.513 104.506L266.512 104.456ZM266.512 150.536L265.513 150.486L265.513 150.488L266.512 150.536ZM255.376 161.576L255.344 160.577L255.335 160.577L255.326 160.577L255.376 161.576ZM197.392 161.576L197.442 160.577L197.433 160.577L197.424 160.577L197.392 161.576ZM186.256 150.536L187.255 150.488L187.254 150.48L186.256 150.536ZM186.256 104.456L187.254 104.512L187.255 104.504L186.256 104.456ZM197.392 93.32L197.439 94.3189L197.442 94.3187L197.392 93.32ZM255.376 93.32L255.326 94.3188L255.328 94.3189L255.376 93.32ZM258.64 150.152L259.634 150.262L259.637 150.233L259.639 150.203L258.64 150.152ZM258.64 104.84L259.639 104.789L259.637 104.765L259.635 104.74L258.64 104.84ZM257.488 102.344L256.781 103.051L257.488 102.344ZM254.992 101.192L255.091 100.197L255.062 100.194L255.032 100.193L254.992 101.192ZM197.68 101.192L197.639 100.193L197.604 100.194L197.569 100.198L197.68 101.192ZM195.184 102.344L195.891 103.051V103.051L195.184 102.344ZM194.128 104.84L195.127 104.891L195.128 104.866V104.84H194.128ZM194.128 150.152H195.128V150.127L195.127 150.101L194.128 150.152ZM197.68 153.704L197.73 152.705L197.705 152.704H197.68V153.704ZM254.992 153.704V152.704H254.967L254.941 152.705L254.992 153.704ZM265.513 104.506C266.279 119.833 266.279 135.159 265.513 150.486L267.511 150.586C268.28 135.193 268.28 119.799 267.511 104.406L265.513 104.506ZM265.513 150.488C265.25 155.934 260.856 160.402 255.344 160.577L255.408 162.576C261.992 162.366 267.198 157.042 267.511 150.584L265.513 150.488ZM255.326 160.577C245.65 161.056 235.971 161.248 226.384 161.248V163.248C235.997 163.248 245.71 163.056 255.425 162.575L255.326 160.577ZM226.384 161.248C216.701 161.248 207.022 161.056 197.442 160.577L197.342 162.575C206.962 163.056 216.675 163.248 226.384 163.248V161.248ZM197.424 160.577C191.912 160.402 187.518 155.934 187.255 150.488L185.257 150.584C185.57 157.042 190.776 162.366 197.36 162.576L197.424 160.577ZM187.254 150.48C186.392 135.157 186.392 119.835 187.254 104.512L185.257 104.4C184.391 119.797 184.391 135.195 185.257 150.592L187.254 150.48ZM187.255 104.504C187.518 98.9705 191.906 94.5823 197.439 94.3189L197.344 92.3211C190.781 92.6337 185.57 97.8455 185.257 104.408L187.255 104.504ZM197.442 94.3187C207.022 93.8397 216.701 93.648 226.384 93.648V91.648C216.675 91.648 206.962 91.8402 197.342 92.3212L197.442 94.3187ZM226.384 93.648C235.971 93.648 245.65 93.8397 255.326 94.3188L255.425 92.3212C245.71 91.8403 235.997 91.648 226.384 91.648V93.648ZM255.328 94.3189C260.861 94.5823 265.25 98.9705 265.513 104.504L267.511 104.408C267.198 97.8455 261.986 92.6337 255.423 92.3211L255.328 94.3189ZM259.639 150.203C260.408 135.097 260.408 119.799 259.639 104.789L257.641 104.891C258.407 119.833 258.407 135.063 257.641 150.101L259.639 150.203ZM259.635 104.74C259.518 103.571 259.044 102.486 258.195 101.637L256.781 103.051C257.276 103.546 257.57 104.189 257.645 104.94L259.635 104.74ZM258.195 101.637C257.346 100.788 256.261 100.314 255.091 100.197L254.892 102.187C255.642 102.262 256.285 102.556 256.781 103.051L258.195 101.637ZM255.032 100.193C245.522 99.8086 235.907 99.52 226.384 99.52V101.52C235.869 101.52 245.454 101.807 254.952 102.191L255.032 100.193ZM226.384 99.52C216.861 99.52 207.15 99.8086 197.639 100.193L197.72 102.191C207.218 101.807 216.899 101.52 226.384 101.52V99.52ZM197.569 100.198C196.523 100.314 195.338 100.776 194.477 101.637L195.891 103.051C196.374 102.568 197.108 102.262 197.79 102.186L197.569 100.198ZM194.477 101.637C193.63 102.484 193.128 103.597 193.128 104.84H195.128C195.128 104.163 195.394 103.548 195.891 103.051L194.477 101.637ZM193.129 104.789C192.359 119.799 192.359 135.097 193.129 150.203L195.127 150.101C194.36 135.063 194.36 119.833 195.127 104.891L193.129 104.789ZM193.128 150.152C193.128 151.284 193.619 152.498 194.477 153.355L195.891 151.941C195.404 151.454 195.128 150.748 195.128 150.152H193.128ZM194.477 153.355C195.334 154.213 196.548 154.704 197.68 154.704V152.704C197.084 152.704 196.378 152.427 195.891 151.941L194.477 153.355ZM197.629 154.703C207.154 155.184 216.867 155.376 226.384 155.376V153.376C216.893 153.376 207.214 153.184 197.73 152.705L197.629 154.703ZM226.384 155.376C235.901 155.376 245.518 155.184 255.042 154.703L254.941 152.705C245.458 153.184 235.875 153.376 226.384 153.376V155.376ZM254.992 154.704C256.234 154.704 257.348 154.202 258.195 153.355L256.781 151.941C256.284 152.438 255.669 152.704 254.992 152.704V154.704ZM258.195 153.355C259.056 152.494 259.518 151.308 259.634 150.262L257.646 150.042C257.57 150.724 257.264 151.458 256.781 151.941L258.195 153.355ZM344.486 101.768V102.768H345.486V101.768H344.486ZM289.19 101.768V100.768H288.19V101.768H289.19ZM289.19 123.56H288.19V124.56H289.19V123.56ZM344.486 123.56H345.486V122.56H344.486V123.56ZM344.486 131.432V132.432H345.486V131.432H344.486ZM289.19 131.432V130.432H288.19V131.432H289.19ZM289.19 153.128H288.19V154.128H289.19V153.128ZM344.486 153.128H345.486V152.128H344.486V153.128ZM344.486 161V162H345.486V161H344.486ZM281.318 161H280.318V162H281.318V161ZM281.318 93.896V92.896H280.318V93.896H281.318ZM344.486 93.896H345.486V92.896H344.486V93.896ZM344.486 100.768H289.19V102.768H344.486V100.768ZM288.19 101.768V123.56H290.19V101.768H288.19ZM289.19 124.56H344.486V122.56H289.19V124.56ZM343.486 123.56V131.432H345.486V123.56H343.486ZM344.486 130.432H289.19V132.432H344.486V130.432ZM288.19 131.432V153.128H290.19V131.432H288.19ZM289.19 154.128H344.486V152.128H289.19V154.128ZM343.486 153.128V161H345.486V153.128H343.486ZM344.486 160H281.318V162H344.486V160ZM282.318 161V93.896H280.318V161H282.318ZM281.318 94.896H344.486V92.896H281.318V94.896ZM343.486 93.896V101.768H345.486V93.896H343.486ZM436.264 93.896L436.827 94.7226L439.542 92.8737L436.257 92.896L436.264 93.896ZM386.92 127.496L386.357 126.669L385.141 127.497L386.358 128.323L386.92 127.496ZM436.264 161L436.271 162L439.484 161.978L436.826 160.173L436.264 161ZM422.248 161.096L421.684 161.922L421.942 162.098L422.255 162.096L422.248 161.096ZM378.76 131.432L379.323 130.606L379.068 130.432H378.76V131.432ZM365.224 131.432V130.432H364.224V131.432H365.224ZM365.224 161.096V162.096H366.224V161.096H365.224ZM357.352 161.096H356.352V162.096H357.352V161.096ZM357.352 93.896V92.896H356.352V93.896H357.352ZM365.224 93.896H366.224V92.896H365.224V93.896ZM365.224 123.56H364.224V124.56H365.224V123.56ZM378.664 123.56V124.56H378.972L379.226 124.387L378.664 123.56ZM422.152 93.992L422.145 92.992L421.841 92.9941L421.59 93.165L422.152 93.992ZM435.701 93.0694L386.357 126.669L387.483 128.323L436.827 94.7226L435.701 93.0694ZM386.358 128.323L435.702 161.827L436.826 160.173L387.482 126.669L386.358 128.323ZM436.257 160L422.241 160.096L422.255 162.096L436.271 162L436.257 160ZM422.811 160.27L379.323 130.606L378.196 132.258L421.684 161.922L422.811 160.27ZM378.76 130.432H365.224V132.432H378.76V130.432ZM364.224 131.432V161.096H366.224V131.432H364.224ZM365.224 160.096H357.352V162.096H365.224V160.096ZM358.352 161.096V93.896H356.352V161.096H358.352ZM357.352 94.896H365.224V92.896H357.352V94.896ZM364.224 93.896V123.56H366.224V93.896H364.224ZM365.224 124.56H378.664V122.56H365.224V124.56ZM379.226 124.387L422.714 94.819L421.59 93.165L378.102 122.733L379.226 124.387ZM422.159 94.992L436.271 94.896L436.257 92.896L422.145 92.992L422.159 94.992ZM438.862 93.896V92.896H437.862V93.896H438.862ZM502.03 93.896H503.03V92.896H502.03V93.896ZM502.03 101.768V102.768H503.03V101.768H502.03ZM474.382 101.768V100.768H473.382V101.768H474.382ZM474.382 161V162H475.382V161H474.382ZM466.414 161H465.414V162H466.414V161ZM466.414 101.768H467.414V100.768H466.414V101.768ZM438.862 101.768H437.862V102.768H438.862V101.768ZM438.862 94.896H502.03V92.896H438.862V94.896ZM501.03 93.896V101.768H503.03V93.896H501.03ZM502.03 100.768H474.382V102.768H502.03V100.768ZM473.382 101.768V161H475.382V101.768H473.382ZM474.382 160H466.414V162H474.382V160ZM467.414 161V101.768H465.414V161H467.414ZM466.414 100.768H438.862V102.768H466.414V100.768ZM439.862 101.768V93.896H437.862V101.768H439.862ZM542.552 93.896L543.461 93.4797L543.194 92.896H542.552V93.896ZM573.272 161V162H574.829L574.181 160.584L573.272 161ZM564.632 161L563.723 161.418L563.991 162H564.632V161ZM558.008 146.6L558.916 146.182L558.648 145.6H558.008V146.6ZM509.624 146.6V145.6H508.983L508.715 146.182L509.624 146.6ZM503 161V162H503.64L503.908 161.418L503 161ZM494.36 161L493.45 160.584L492.802 162H494.36V161ZM525.08 93.896V92.896H524.438L524.17 93.4797L525.08 93.896ZM513.272 138.632L512.363 138.215L511.713 139.632H513.272V138.632ZM554.36 138.632V139.632H555.918L555.269 138.215L554.36 138.632ZM537.464 101.768L538.373 101.351L538.105 100.768H537.464V101.768ZM530.168 101.768V100.768H529.526L529.259 101.351L530.168 101.768ZM541.642 94.3122L572.362 161.416L574.181 160.584L543.461 93.4797L541.642 94.3122ZM573.272 160H564.632V162H573.272V160ZM565.54 160.582L558.916 146.182L557.099 147.018L563.723 161.418L565.54 160.582ZM558.008 145.6H509.624V147.6H558.008V145.6ZM508.715 146.182L502.091 160.582L503.908 161.418L510.532 147.018L508.715 146.182ZM503 160H494.36V162H503V160ZM495.269 161.416L525.989 94.3122L524.17 93.4797L493.45 160.584L495.269 161.416ZM525.08 94.896H542.552V92.896H525.08V94.896ZM513.272 139.632H554.36V137.632H513.272V139.632ZM555.269 138.215L538.373 101.351L536.555 102.185L553.451 139.049L555.269 138.215ZM537.464 100.768H530.168V102.768H537.464V100.768ZM529.259 101.351L512.363 138.215L514.181 139.049L531.077 102.185L529.259 101.351Z" fill="black" fill-opacity="0.51" mask="url(#path-1-outside-1_26_156)"/>
</svg>
