<svg width="321" height="135" viewBox="0 0 321 135" fill="none" xmlns="http://www.w3.org/2000/svg">
<path d="M321 54V20C321 8.95429 312.046 0 301 0H20C8.95428 0 0 8.95431 0 20V54V115C0 126.046 8.95428 135 20 135H301C312.046 135 321 126.046 321 115L321 54Z" fill="url(#paint0_linear_102_9)" fill-opacity="0.76"/>
<circle cx="2.15513" cy="2.15513" r="2.15513" transform="matrix(1 0 0 -1 138 124.31)" fill="black"/>
<circle cx="2.15513" cy="2.15513" r="2.15513" transform="matrix(1 0 0 -1 150.452 124.31)" fill="black"/>
<circle cx="2.15513" cy="2.15513" r="2.15513" transform="matrix(1 0 0 -1 162.904 124.31)" fill="black"/>
<circle cx="2.15513" cy="2.15513" r="2.15513" transform="matrix(1 0 0 -1 175.355 124.31)" fill="black"/>
<path d="M23.976 35.64H21.288V33.8H28.776V35.64H26.12V45H23.976V35.64ZM29.1315 37.688H33.0835C33.8408 37.688 34.4115 37.8533 34.7955 38.184C35.1795 38.504 35.3715 38.9253 35.3715 39.448C35.3715 39.8427 35.2755 40.168 35.0835 40.424C34.8915 40.68 34.6408 40.8613 34.3315 40.968C34.8542 41.0427 35.2808 41.224 35.6115 41.512C35.9422 41.8 36.1075 42.232 36.1075 42.808C36.1075 43.512 35.8462 44.056 35.3235 44.44C34.8115 44.8133 34.0595 45 33.0675 45H29.1315V37.688ZM31.1155 41.704V43.544H32.6355C33.1368 43.544 33.4942 43.4693 33.7075 43.32C33.9208 43.16 34.0275 42.9253 34.0275 42.616C34.0275 42.296 33.9155 42.0667 33.6915 41.928C33.4675 41.7787 33.1315 41.704 32.6835 41.704H31.1155ZM31.1155 39.144V40.552H32.4915C33.1742 40.552 33.5155 40.312 33.5155 39.832C33.5155 39.3733 33.1688 39.144 32.4755 39.144H31.1155ZM40.8703 45.112C40.2943 45.112 39.7609 45.0213 39.2703 44.84C38.7903 44.6587 38.3743 44.4027 38.0223 44.072C37.6809 43.7307 37.4089 43.3307 37.2063 42.872C37.0143 42.4133 36.9183 41.9013 36.9183 41.336C36.9183 40.7707 37.0143 40.2587 37.2063 39.8C37.4089 39.3307 37.6863 38.9307 38.0383 38.6C38.3903 38.2693 38.8063 38.0133 39.2863 37.832C39.7769 37.6507 40.3049 37.56 40.8703 37.56C41.4463 37.56 41.9743 37.6507 42.4543 37.832C42.9449 38.0133 43.3663 38.2747 43.7183 38.616C44.0703 38.9467 44.3423 39.3467 44.5343 39.816C44.7263 40.2747 44.8223 40.7813 44.8223 41.336C44.8223 41.912 44.7209 42.4347 44.5183 42.904C44.3156 43.3627 44.0383 43.7573 43.6863 44.088C43.3343 44.408 42.9183 44.6587 42.4383 44.84C41.9583 45.0213 41.4356 45.112 40.8703 45.112ZM40.8703 43.432C41.4569 43.432 41.9156 43.2347 42.2463 42.84C42.5769 42.4453 42.7423 41.944 42.7423 41.336C42.7423 40.728 42.5823 40.232 42.2623 39.848C41.9423 39.4533 41.4783 39.256 40.8703 39.256C40.2729 39.256 39.8089 39.4533 39.4783 39.848C39.1476 40.2427 38.9823 40.7387 38.9823 41.336C38.9823 41.624 39.0249 41.896 39.1103 42.152C39.1956 42.408 39.3183 42.632 39.4783 42.824C39.6383 43.016 39.8356 43.1653 40.0703 43.272C40.3049 43.3787 40.5716 43.432 40.8703 43.432ZM46.2565 48.84V37.688H48.1285V38.664C48.3738 38.3547 48.7045 38.0933 49.1205 37.88C49.5472 37.6667 50.0325 37.56 50.5765 37.56C51.0245 37.56 51.4512 37.6507 51.8565 37.832C52.2725 38.0133 52.6352 38.2693 52.9445 38.6C53.2645 38.9307 53.5152 39.3307 53.6965 39.8C53.8885 40.2587 53.9845 40.7707 53.9845 41.336C53.9845 41.9013 53.8885 42.4187 53.6965 42.888C53.5045 43.3467 53.2485 43.7413 52.9285 44.072C52.6192 44.4027 52.2565 44.6587 51.8405 44.84C51.4352 45.0213 51.0138 45.112 50.5765 45.112C50.0965 45.112 49.6538 45.0267 49.2485 44.856C48.8432 44.6747 48.5072 44.4347 48.2405 44.136V48.84H46.2565ZM50.0485 39.304C49.5045 39.304 49.0725 39.48 48.7525 39.832C48.4325 40.1733 48.2618 40.616 48.2405 41.16V41.368C48.2512 41.976 48.4165 42.472 48.7365 42.856C49.0672 43.2293 49.5045 43.416 50.0485 43.416C50.5818 43.416 51.0192 43.2293 51.3605 42.856C51.7125 42.4827 51.8885 41.976 51.8885 41.336C51.8885 41.0053 51.8352 40.712 51.7285 40.456C51.6325 40.2 51.4992 39.9867 51.3285 39.816C51.1685 39.6453 50.9765 39.5173 50.7525 39.432C50.5285 39.3467 50.2938 39.304 50.0485 39.304ZM59.636 42.344C59.4227 42.44 59.172 42.52 58.884 42.584C58.6067 42.6373 58.292 42.664 57.94 42.664C57.492 42.664 57.0867 42.6107 56.724 42.504C56.372 42.3973 56.068 42.2267 55.812 41.992C55.556 41.7573 55.3587 41.4533 55.22 41.08C55.092 40.7067 55.028 40.2533 55.028 39.72V37.688H57.012V39.64C57.012 40.056 57.108 40.376 57.3 40.6C57.492 40.8133 57.876 40.92 58.452 40.92C58.8893 40.92 59.284 40.8667 59.636 40.76V37.688H61.62V45H59.636V42.344ZM66.9488 45.112C66.3621 45.112 65.8234 45.0213 65.3328 44.84C64.8528 44.6587 64.4368 44.408 64.0848 44.088C63.7328 43.7573 63.4608 43.368 63.2688 42.92C63.0768 42.4613 62.9808 41.9547 62.9808 41.4C62.9808 40.8133 63.0821 40.2853 63.2848 39.816C63.4874 39.336 63.7648 38.9307 64.1168 38.6C64.4688 38.2693 64.8794 38.0133 65.3488 37.832C65.8181 37.6507 66.3194 37.56 66.8528 37.56C67.4288 37.56 67.9408 37.6613 68.3888 37.864C68.8474 38.056 69.2314 38.328 69.5408 38.68C69.8501 39.0213 70.0848 39.4267 70.2448 39.896C70.4154 40.3547 70.5008 40.8507 70.5008 41.384V41.8H64.9008C64.9968 42.3653 65.2368 42.7973 65.6208 43.096C66.0154 43.3947 66.5114 43.544 67.1088 43.544C67.5354 43.544 67.9301 43.4693 68.2928 43.32C68.6661 43.16 68.9754 42.9413 69.2208 42.664L70.3248 43.672C69.9514 44.1413 69.4714 44.4987 68.8848 44.744C68.2981 44.9893 67.6528 45.112 66.9488 45.112ZM66.7728 39.16C66.3034 39.16 65.9088 39.288 65.5888 39.544C65.2794 39.7893 65.0661 40.1413 64.9488 40.6H68.5968C68.5328 40.1947 68.3408 39.8533 68.0208 39.576C67.7008 39.2987 67.2848 39.16 66.7728 39.16ZM75.3676 45.112C74.781 45.112 74.253 45.0213 73.7836 44.84C73.3143 44.6587 72.909 44.408 72.5676 44.088C72.237 43.7573 71.981 43.3627 71.7996 42.904C71.6183 42.4453 71.5276 41.9333 71.5276 41.368C71.5276 40.7707 71.6236 40.2373 71.8156 39.768C72.0183 39.288 72.2903 38.888 72.6316 38.568C72.973 38.2373 73.3783 37.9867 73.8476 37.816C74.317 37.6453 74.8236 37.56 75.3676 37.56C75.9863 37.56 76.5463 37.6667 77.0476 37.88C77.5596 38.0933 77.9596 38.36 78.2476 38.68L77.2236 40.024C77.0103 39.7893 76.7596 39.6027 76.4716 39.464C76.1943 39.3253 75.8796 39.256 75.5276 39.256C74.9303 39.256 74.4556 39.448 74.1036 39.832C73.7623 40.216 73.5916 40.7067 73.5916 41.304C73.5916 41.9227 73.7676 42.4347 74.1196 42.84C74.4823 43.2347 74.9676 43.432 75.5756 43.432C75.9276 43.432 76.2423 43.3627 76.5196 43.224C76.797 43.0747 77.0423 42.8827 77.2556 42.648L78.4236 43.8C78.1036 44.216 77.677 44.5413 77.1436 44.776C76.621 45 76.029 45.112 75.3676 45.112ZM81.2959 39.432H78.9439V37.688H85.6159V39.432H83.2639V45H81.2959V39.432ZM86.8346 37.688H90.7866C91.544 37.688 92.1146 37.8533 92.4986 38.184C92.8826 38.504 93.0746 38.9253 93.0746 39.448C93.0746 39.8427 92.9786 40.168 92.7866 40.424C92.5946 40.68 92.344 40.8613 92.0346 40.968C92.5573 41.0427 92.984 41.224 93.3146 41.512C93.6453 41.8 93.8106 42.232 93.8106 42.808C93.8106 43.512 93.5493 44.056 93.0266 44.44C92.5146 44.8133 91.7626 45 90.7706 45H86.8346V37.688ZM88.8186 41.704V43.544H90.3386C90.84 43.544 91.1973 43.4693 91.4106 43.32C91.624 43.16 91.7306 42.9253 91.7306 42.616C91.7306 42.296 91.6186 42.0667 91.3946 41.928C91.1706 41.7787 90.8346 41.704 90.3866 41.704H88.8186ZM88.8186 39.144V40.552H90.1946C90.8773 40.552 91.2186 40.312 91.2186 39.832C91.2186 39.3733 90.872 39.144 90.1786 39.144H88.8186ZM98.5734 45.112C97.9974 45.112 97.464 45.0213 96.9734 44.84C96.4934 44.6587 96.0774 44.4027 95.7254 44.072C95.384 43.7307 95.112 43.3307 94.9094 42.872C94.7174 42.4133 94.6214 41.9013 94.6214 41.336C94.6214 40.7707 94.7174 40.2587 94.9094 39.8C95.112 39.3307 95.3894 38.9307 95.7414 38.6C96.0934 38.2693 96.5094 38.0133 96.9894 37.832C97.48 37.6507 98.008 37.56 98.5734 37.56C99.1494 37.56 99.6774 37.6507 100.157 37.832C100.648 38.0133 101.069 38.2747 101.421 38.616C101.773 38.9467 102.045 39.3467 102.237 39.816C102.429 40.2747 102.525 40.7813 102.525 41.336C102.525 41.912 102.424 42.4347 102.221 42.904C102.019 43.3627 101.741 43.7573 101.389 44.088C101.037 44.408 100.621 44.6587 100.141 44.84C99.6614 45.0213 99.1387 45.112 98.5734 45.112ZM98.5734 43.432C99.16 43.432 99.6187 43.2347 99.9494 42.84C100.28 42.4453 100.445 41.944 100.445 41.336C100.445 40.728 100.285 40.232 99.9654 39.848C99.6454 39.4533 99.1814 39.256 98.5734 39.256C97.976 39.256 97.512 39.4533 97.1814 39.848C96.8507 40.2427 96.6854 40.7387 96.6854 41.336C96.6854 41.624 96.728 41.896 96.8134 42.152C96.8987 42.408 97.0214 42.632 97.1814 42.824C97.3414 43.016 97.5387 43.1653 97.7734 43.272C98.008 43.3787 98.2747 43.432 98.5734 43.432ZM116.678 42.024H109.206V40.408H116.678V42.024ZM123.813 37.688H127.765C128.522 37.688 129.093 37.8533 129.477 38.184C129.861 38.504 130.053 38.9253 130.053 39.448C130.053 39.8427 129.957 40.168 129.765 40.424C129.573 40.68 129.322 40.8613 129.013 40.968C129.535 41.0427 129.962 41.224 130.293 41.512C130.623 41.8 130.789 42.232 130.789 42.808C130.789 43.512 130.527 44.056 130.005 44.44C129.493 44.8133 128.741 45 127.749 45H123.813V37.688ZM125.797 41.704V43.544H127.317C127.818 43.544 128.175 43.4693 128.389 43.32C128.602 43.16 128.709 42.9253 128.709 42.616C128.709 42.296 128.597 42.0667 128.373 41.928C128.149 41.7787 127.813 41.704 127.365 41.704H125.797ZM125.797 39.144V40.552H127.173C127.855 40.552 128.197 40.312 128.197 39.832C128.197 39.3733 127.85 39.144 127.157 39.144H125.797ZM135.44 45.112C134.853 45.112 134.325 45.0213 133.856 44.84C133.386 44.6587 132.981 44.408 132.64 44.088C132.309 43.7573 132.053 43.3627 131.872 42.904C131.69 42.4453 131.6 41.9333 131.6 41.368C131.6 40.7707 131.696 40.2373 131.888 39.768C132.09 39.288 132.362 38.888 132.704 38.568C133.045 38.2373 133.45 37.9867 133.92 37.816C134.389 37.6453 134.896 37.56 135.44 37.56C136.058 37.56 136.618 37.6667 137.12 37.88C137.632 38.0933 138.032 38.36 138.32 38.68L137.296 40.024C137.082 39.7893 136.832 39.6027 136.544 39.464C136.266 39.3253 135.952 39.256 135.6 39.256C135.002 39.256 134.528 39.448 134.176 39.832C133.834 40.216 133.664 40.7067 133.664 41.304C133.664 41.9227 133.84 42.4347 134.192 42.84C134.554 43.2347 135.04 43.432 135.648 43.432C136 43.432 136.314 43.3627 136.592 43.224C136.869 43.0747 137.114 42.8827 137.328 42.648L138.496 43.8C138.176 44.216 137.749 44.5413 137.216 44.776C136.693 45 136.101 45.112 135.44 45.112ZM143.146 45.112C142.559 45.112 142.02 45.0213 141.53 44.84C141.05 44.6587 140.634 44.408 140.282 44.088C139.93 43.7573 139.658 43.368 139.466 42.92C139.274 42.4613 139.178 41.9547 139.178 41.4C139.178 40.8133 139.279 40.2853 139.482 39.816C139.684 39.336 139.962 38.9307 140.314 38.6C140.666 38.2693 141.076 38.0133 141.546 37.832C142.015 37.6507 142.516 37.56 143.05 37.56C143.626 37.56 144.138 37.6613 144.586 37.864C145.044 38.056 145.428 38.328 145.738 38.68C146.047 39.0213 146.282 39.4267 146.442 39.896C146.612 40.3547 146.698 40.8507 146.698 41.384V41.8H141.098C141.194 42.3653 141.434 42.7973 141.818 43.096C142.212 43.3947 142.708 43.544 143.306 43.544C143.732 43.544 144.127 43.4693 144.49 43.32C144.863 43.16 145.172 42.9413 145.418 42.664L146.522 43.672C146.148 44.1413 145.668 44.4987 145.082 44.744C144.495 44.9893 143.85 45.112 143.146 45.112ZM142.97 39.16C142.5 39.16 142.106 39.288 141.786 39.544C141.476 39.7893 141.263 40.1413 141.146 40.6H144.794C144.73 40.1947 144.538 39.8533 144.218 39.576C143.898 39.2987 143.482 39.16 142.97 39.16ZM153.419 48.84V37.688H155.291V38.664C155.536 38.3547 155.867 38.0933 156.283 37.88C156.71 37.6667 157.195 37.56 157.739 37.56C158.187 37.56 158.614 37.6507 159.019 37.832C159.435 38.0133 159.798 38.2693 160.107 38.6C160.427 38.9307 160.678 39.3307 160.859 39.8C161.051 40.2587 161.147 40.7707 161.147 41.336C161.147 41.9013 161.051 42.4187 160.859 42.888C160.667 43.3467 160.411 43.7413 160.091 44.072C159.782 44.4027 159.419 44.6587 159.003 44.84C158.598 45.0213 158.176 45.112 157.739 45.112C157.259 45.112 156.816 45.0267 156.411 44.856C156.006 44.6747 155.67 44.4347 155.403 44.136V48.84H153.419ZM157.211 39.304C156.667 39.304 156.235 39.48 155.915 39.832C155.595 40.1733 155.424 40.616 155.403 41.16V41.368C155.414 41.976 155.579 42.472 155.899 42.856C156.23 43.2293 156.667 43.416 157.211 43.416C157.744 43.416 158.182 43.2293 158.523 42.856C158.875 42.4827 159.051 41.976 159.051 41.336C159.051 41.0053 158.998 40.712 158.891 40.456C158.795 40.2 158.662 39.9867 158.491 39.816C158.331 39.6453 158.139 39.5173 157.915 39.432C157.691 39.3467 157.456 39.304 157.211 39.304ZM165.583 45.112C165.145 45.112 164.719 45.0213 164.303 44.84C163.897 44.6587 163.535 44.4027 163.215 44.072C162.905 43.7413 162.655 43.3467 162.463 42.888C162.271 42.4187 162.175 41.9013 162.175 41.336C162.175 40.7707 162.265 40.2587 162.447 39.8C162.639 39.3307 162.889 38.9307 163.199 38.6C163.519 38.2693 163.881 38.0133 164.287 37.832C164.703 37.6507 165.135 37.56 165.583 37.56C166.127 37.56 166.607 37.6667 167.023 37.88C167.449 38.0933 167.785 38.3547 168.031 38.664V37.688H169.903V45H168.031V44.008C167.764 44.3387 167.417 44.6053 166.991 44.808C166.564 45.0107 166.095 45.112 165.583 45.112ZM166.111 43.416C166.655 43.416 167.087 43.2293 167.407 42.856C167.737 42.472 167.908 41.976 167.919 41.368V41.24C167.919 40.6747 167.753 40.2107 167.423 39.848C167.092 39.4853 166.655 39.304 166.111 39.304C165.865 39.304 165.631 39.3467 165.407 39.432C165.183 39.5173 164.985 39.6453 164.815 39.816C164.644 39.9867 164.511 40.2 164.415 40.456C164.319 40.712 164.271 41.0053 164.271 41.336C164.271 41.976 164.441 42.4827 164.783 42.856C165.135 43.2293 165.577 43.416 166.111 43.416ZM171.794 37.688H175.746C176.503 37.688 177.074 37.8533 177.458 38.184C177.842 38.504 178.034 38.9253 178.034 39.448C178.034 39.8427 177.938 40.168 177.746 40.424C177.554 40.68 177.303 40.8613 176.994 40.968C177.517 41.0427 177.943 41.224 178.274 41.512C178.605 41.8 178.77 42.232 178.77 42.808C178.77 43.512 178.509 44.056 177.986 44.44C177.474 44.8133 176.722 45 175.73 45H171.794V37.688ZM173.778 41.704V43.544H175.298C175.799 43.544 176.157 43.4693 176.37 43.32C176.583 43.16 176.69 42.9253 176.69 42.616C176.69 42.296 176.578 42.0667 176.354 41.928C176.13 41.7787 175.794 41.704 175.346 41.704H173.778ZM173.778 39.144V40.552H175.154C175.837 40.552 176.178 40.312 176.178 39.832C176.178 39.3733 175.831 39.144 175.138 39.144H173.778ZM185.037 42.12H181.997V45H180.013V37.688H181.997V40.376H185.037V37.688H187.021V45H185.037V42.12ZM192.423 45.112C191.847 45.112 191.314 45.0213 190.823 44.84C190.343 44.6587 189.927 44.4027 189.575 44.072C189.234 43.7307 188.962 43.3307 188.759 42.872C188.567 42.4133 188.471 41.9013 188.471 41.336C188.471 40.7707 188.567 40.2587 188.759 39.8C188.962 39.3307 189.239 38.9307 189.591 38.6C189.943 38.2693 190.359 38.0133 190.839 37.832C191.33 37.6507 191.858 37.56 192.423 37.56C192.999 37.56 193.527 37.6507 194.007 37.832C194.498 38.0133 194.919 38.2747 195.271 38.616C195.623 38.9467 195.895 39.3467 196.087 39.816C196.279 40.2747 196.375 40.7813 196.375 41.336C196.375 41.912 196.274 42.4347 196.071 42.904C195.869 43.3627 195.591 43.7573 195.239 44.088C194.887 44.408 194.471 44.6587 193.991 44.84C193.511 45.0213 192.989 45.112 192.423 45.112ZM192.423 43.432C193.01 43.432 193.469 43.2347 193.799 42.84C194.13 42.4453 194.295 41.944 194.295 41.336C194.295 40.728 194.135 40.232 193.815 39.848C193.495 39.4533 193.031 39.256 192.423 39.256C191.826 39.256 191.362 39.4533 191.031 39.848C190.701 40.2427 190.535 40.7387 190.535 41.336C190.535 41.624 190.578 41.896 190.663 42.152C190.749 42.408 190.871 42.632 191.031 42.824C191.191 43.016 191.389 43.1653 191.623 43.272C191.858 43.3787 192.125 43.432 192.423 43.432ZM203.072 48.84V37.688H204.944V38.664C205.189 38.3547 205.52 38.0933 205.936 37.88C206.363 37.6667 206.848 37.56 207.392 37.56C207.84 37.56 208.267 37.6507 208.672 37.832C209.088 38.0133 209.451 38.2693 209.76 38.6C210.08 38.9307 210.331 39.3307 210.512 39.8C210.704 40.2587 210.8 40.7707 210.8 41.336C210.8 41.9013 210.704 42.4187 210.512 42.888C210.32 43.3467 210.064 43.7413 209.744 44.072C209.435 44.4027 209.072 44.6587 208.656 44.84C208.251 45.0213 207.829 45.112 207.392 45.112C206.912 45.112 206.469 45.0267 206.064 44.856C205.659 44.6747 205.323 44.4347 205.056 44.136V48.84H203.072ZM206.864 39.304C206.32 39.304 205.888 39.48 205.568 39.832C205.248 40.1733 205.077 40.616 205.056 41.16V41.368C205.067 41.976 205.232 42.472 205.552 42.856C205.883 43.2293 206.32 43.416 206.864 43.416C207.397 43.416 207.835 43.2293 208.176 42.856C208.528 42.4827 208.704 41.976 208.704 41.336C208.704 41.0053 208.651 40.712 208.544 40.456C208.448 40.2 208.315 39.9867 208.144 39.816C207.984 39.6453 207.792 39.5173 207.568 39.432C207.344 39.3467 207.109 39.304 206.864 39.304ZM215.236 45.112C214.798 45.112 214.372 45.0213 213.956 44.84C213.55 44.6587 213.188 44.4027 212.868 44.072C212.558 43.7413 212.308 43.3467 212.116 42.888C211.924 42.4187 211.828 41.9013 211.828 41.336C211.828 40.7707 211.918 40.2587 212.1 39.8C212.292 39.3307 212.542 38.9307 212.852 38.6C213.172 38.2693 213.534 38.0133 213.94 37.832C214.356 37.6507 214.788 37.56 215.236 37.56C215.78 37.56 216.26 37.6667 216.676 37.88C217.102 38.0933 217.438 38.3547 217.684 38.664V37.688H219.556V45H217.684V44.008C217.417 44.3387 217.07 44.6053 216.644 44.808C216.217 45.0107 215.748 45.112 215.236 45.112ZM215.764 43.416C216.308 43.416 216.74 43.2293 217.06 42.856C217.39 42.472 217.561 41.976 217.572 41.368V41.24C217.572 40.6747 217.406 40.2107 217.076 39.848C216.745 39.4853 216.308 39.304 215.764 39.304C215.518 39.304 215.284 39.3467 215.06 39.432C214.836 39.5173 214.638 39.6453 214.468 39.816C214.297 39.9867 214.164 40.2 214.068 40.456C213.972 40.712 213.924 41.0053 213.924 41.336C213.924 41.976 214.094 42.4827 214.436 42.856C214.788 43.2293 215.23 43.416 215.764 43.416ZM225.095 45.144C223.676 45.144 222.642 44.7013 221.991 43.816C221.34 42.9307 221.015 41.6027 221.015 39.832C221.015 38.808 221.122 37.9333 221.335 37.208C221.548 36.472 221.852 35.8747 222.247 35.416C222.652 34.9467 223.138 34.6053 223.703 34.392C224.279 34.168 224.919 34.056 225.623 34.056C226.028 34.056 226.338 34.0187 226.551 33.944C226.764 33.8587 226.924 33.6987 227.031 33.464L228.599 33.928C228.514 34.2373 228.407 34.504 228.279 34.728C228.162 34.9413 227.996 35.1227 227.783 35.272C227.57 35.4213 227.298 35.5387 226.967 35.624C226.636 35.6987 226.215 35.752 225.703 35.784C225.212 35.816 224.786 35.88 224.423 35.976C224.071 36.072 223.772 36.2427 223.527 36.488C223.292 36.7227 223.106 37.0533 222.967 37.48C222.839 37.9067 222.754 38.4613 222.711 39.144C223.02 38.568 223.415 38.168 223.895 37.944C224.386 37.7093 224.919 37.592 225.495 37.592C226.028 37.592 226.508 37.6773 226.935 37.848C227.372 38.0187 227.74 38.264 228.039 38.584C228.338 38.904 228.567 39.288 228.727 39.736C228.887 40.1733 228.967 40.664 228.967 41.208C228.967 41.8053 228.871 42.3493 228.679 42.84C228.487 43.32 228.22 43.7307 227.879 44.072C227.538 44.4133 227.127 44.68 226.647 44.872C226.178 45.0533 225.66 45.144 225.095 45.144ZM225.047 43.4C225.591 43.4 226.028 43.2187 226.359 42.856C226.7 42.4827 226.871 41.9707 226.871 41.32C226.871 40.68 226.711 40.1787 226.391 39.816C226.082 39.4427 225.639 39.256 225.063 39.256C224.498 39.256 224.05 39.4373 223.719 39.8C223.388 40.1627 223.223 40.6693 223.223 41.32C223.223 41.96 223.388 42.4667 223.719 42.84C224.05 43.2133 224.492 43.4 225.047 43.4ZM233.936 45.112C233.36 45.112 232.827 45.0213 232.336 44.84C231.856 44.6587 231.44 44.4027 231.088 44.072C230.747 43.7307 230.475 43.3307 230.272 42.872C230.08 42.4133 229.984 41.9013 229.984 41.336C229.984 40.7707 230.08 40.2587 230.272 39.8C230.475 39.3307 230.752 38.9307 231.104 38.6C231.456 38.2693 231.872 38.0133 232.352 37.832C232.843 37.6507 233.371 37.56 233.936 37.56C234.512 37.56 235.04 37.6507 235.52 37.832C236.011 38.0133 236.432 38.2747 236.784 38.616C237.136 38.9467 237.408 39.3467 237.6 39.816C237.792 40.2747 237.888 40.7813 237.888 41.336C237.888 41.912 237.787 42.4347 237.584 42.904C237.381 43.3627 237.104 43.7573 236.752 44.088C236.4 44.408 235.984 44.6587 235.504 44.84C235.024 45.0213 234.501 45.112 233.936 45.112ZM233.936 43.432C234.523 43.432 234.981 43.2347 235.312 42.84C235.643 42.4453 235.808 41.944 235.808 41.336C235.808 40.728 235.648 40.232 235.328 39.848C235.008 39.4533 234.544 39.256 233.936 39.256C233.339 39.256 232.875 39.4533 232.544 39.848C232.213 40.2427 232.048 40.7387 232.048 41.336C232.048 41.624 232.091 41.896 232.176 42.152C232.261 42.408 232.384 42.632 232.544 42.824C232.704 43.016 232.901 43.1653 233.136 43.272C233.371 43.3787 233.637 43.432 233.936 43.432ZM240.768 39.432H238.416V37.688H245.088V39.432H242.736V45H240.768V39.432ZM249.001 45.112C248.564 45.112 248.137 45.0213 247.721 44.84C247.316 44.6587 246.953 44.4027 246.633 44.072C246.324 43.7413 246.073 43.3467 245.881 42.888C245.689 42.4187 245.593 41.9013 245.593 41.336C245.593 40.7707 245.684 40.2587 245.865 39.8C246.057 39.3307 246.308 38.9307 246.617 38.6C246.937 38.2693 247.3 38.0133 247.705 37.832C248.121 37.6507 248.553 37.56 249.001 37.56C249.545 37.56 250.025 37.6667 250.441 37.88C250.868 38.0933 251.204 38.3547 251.449 38.664V37.688H253.321V45H251.449V44.008C251.183 44.3387 250.836 44.6053 250.409 44.808C249.983 45.0107 249.513 45.112 249.001 45.112ZM249.529 43.416C250.073 43.416 250.505 43.2293 250.825 42.856C251.156 42.472 251.327 41.976 251.337 41.368V41.24C251.337 40.6747 251.172 40.2107 250.841 39.848C250.511 39.4853 250.073 39.304 249.529 39.304C249.284 39.304 249.049 39.3467 248.825 39.432C248.601 39.5173 248.404 39.6453 248.233 39.816C248.063 39.9867 247.929 40.2 247.833 40.456C247.737 40.712 247.689 41.0053 247.689 41.336C247.689 41.976 247.86 42.4827 248.201 42.856C248.553 43.2293 248.996 43.416 249.529 43.416ZM261.195 37.688H262.891L264.827 41.928L266.651 37.688H268.395L269.611 45H267.755L267.051 40.728L265.163 45H264.315L262.411 40.808L261.723 45H259.963L261.195 37.688ZM274.386 45.112C273.81 45.112 273.277 45.0213 272.786 44.84C272.306 44.6587 271.89 44.4027 271.538 44.072C271.197 43.7307 270.925 43.3307 270.722 42.872C270.53 42.4133 270.434 41.9013 270.434 41.336C270.434 40.7707 270.53 40.2587 270.722 39.8C270.925 39.3307 271.202 38.9307 271.554 38.6C271.906 38.2693 272.322 38.0133 272.802 37.832C273.293 37.6507 273.821 37.56 274.386 37.56C274.962 37.56 275.49 37.6507 275.97 37.832C276.461 38.0133 276.882 38.2747 277.234 38.616C277.586 38.9467 277.858 39.3467 278.05 39.816C278.242 40.2747 278.338 40.7813 278.338 41.336C278.338 41.912 278.237 42.4347 278.034 42.904C277.831 43.3627 277.554 43.7573 277.202 44.088C276.85 44.408 276.434 44.6587 275.954 44.84C275.474 45.0213 274.951 45.112 274.386 45.112ZM274.386 43.432C274.973 43.432 275.431 43.2347 275.762 42.84C276.093 42.4453 276.258 41.944 276.258 41.336C276.258 40.728 276.098 40.232 275.778 39.848C275.458 39.4533 274.994 39.256 274.386 39.256C273.789 39.256 273.325 39.4533 272.994 39.848C272.663 40.2427 272.498 40.7387 272.498 41.336C272.498 41.624 272.541 41.896 272.626 42.152C272.711 42.408 272.834 42.632 272.994 42.824C273.154 43.016 273.351 43.1653 273.586 43.272C273.821 43.3787 274.087 43.432 274.386 43.432ZM281.969 45.112C281.574 45.112 281.206 45.0693 280.865 44.984C280.534 44.8987 280.236 44.792 279.969 44.664C279.713 44.536 279.489 44.3973 279.297 44.248C279.116 44.0987 278.977 43.96 278.881 43.832L280.145 42.648C280.316 42.8613 280.556 43.048 280.865 43.208C281.174 43.3573 281.532 43.432 281.937 43.432C282.758 43.432 283.169 43.1493 283.169 42.584C283.169 42.3707 283.078 42.1893 282.897 42.04C282.716 41.8907 282.401 41.816 281.953 41.816H280.929V40.424H281.729C282.07 40.424 282.337 40.376 282.529 40.28C282.721 40.1733 282.817 40.0133 282.817 39.8C282.817 39.6187 282.721 39.48 282.529 39.384C282.337 39.2773 282.086 39.224 281.777 39.224C281.489 39.224 281.206 39.288 280.929 39.416C280.662 39.5333 280.433 39.6827 280.241 39.864L279.169 38.744C279.286 38.6053 279.43 38.4667 279.601 38.328C279.782 38.1893 279.99 38.0667 280.225 37.96C280.46 37.8427 280.726 37.7467 281.025 37.672C281.324 37.5973 281.649 37.56 282.001 37.56C282.417 37.56 282.796 37.608 283.137 37.704C283.478 37.8 283.772 37.9333 284.017 38.104C284.262 38.264 284.449 38.4667 284.577 38.712C284.716 38.9467 284.785 39.208 284.785 39.496C284.785 39.8373 284.694 40.136 284.513 40.392C284.332 40.648 284.081 40.8507 283.761 41C284.241 41.1493 284.598 41.3733 284.833 41.672C285.078 41.9707 285.201 42.328 285.201 42.744C285.201 43.0747 285.126 43.384 284.977 43.672C284.828 43.96 284.614 44.2107 284.337 44.424C284.06 44.6373 283.718 44.808 283.313 44.936C282.918 45.0533 282.47 45.112 281.969 45.112ZM286.538 37.688H291.61V39.432H288.522V45H286.538V37.688ZM295.639 45.112C295.201 45.112 294.775 45.0213 294.359 44.84C293.953 44.6587 293.591 44.4027 293.271 44.072C292.961 43.7413 292.711 43.3467 292.519 42.888C292.327 42.4187 292.231 41.9013 292.231 41.336C292.231 40.7707 292.321 40.2587 292.503 39.8C292.695 39.3307 292.945 38.9307 293.255 38.6C293.575 38.2693 293.937 38.0133 294.343 37.832C294.759 37.6507 295.191 37.56 295.639 37.56C296.183 37.56 296.663 37.6667 297.079 37.88C297.505 38.0933 297.841 38.3547 298.087 38.664V37.688H299.959V45H298.087V44.008C297.82 44.3387 297.473 44.6053 297.047 44.808C296.62 45.0107 296.151 45.112 295.639 45.112ZM296.167 43.416C296.711 43.416 297.143 43.2293 297.463 42.856C297.793 42.472 297.964 41.976 297.975 41.368V41.24C297.975 40.6747 297.809 40.2107 297.479 39.848C297.148 39.4853 296.711 39.304 296.167 39.304C295.921 39.304 295.687 39.3467 295.463 39.432C295.239 39.5173 295.041 39.6453 294.871 39.816C294.7 39.9867 294.567 40.2 294.471 40.456C294.375 40.712 294.327 41.0053 294.327 41.336C294.327 41.976 294.497 42.4827 294.839 42.856C295.191 43.2293 295.633 43.416 296.167 43.416ZM302.938 45.16C302.565 45.16 302.277 45.0533 302.074 44.84C301.882 44.616 301.786 44.3493 301.786 44.04C301.786 43.7093 301.882 43.432 302.074 43.208C302.266 42.984 302.554 42.872 302.938 42.872C303.322 42.872 303.616 42.984 303.818 43.208C304.021 43.432 304.122 43.7093 304.122 44.04C304.122 44.3493 304.016 44.616 303.802 44.84C303.6 45.0533 303.312 45.16 302.938 45.16ZM29.304 59.04H24.456V64H22.312V52.8H24.456V57.184H29.304V52.8H31.448V64H29.304V59.04ZM37.1359 64.112C36.5599 64.112 36.0265 64.0213 35.5359 63.84C35.0559 63.6587 34.6399 63.4027 34.2879 63.072C33.9465 62.7307 33.6745 62.3307 33.4719 61.872C33.2799 61.4133 33.1839 60.9013 33.1839 60.336C33.1839 59.7707 33.2799 59.2587 33.4719 58.8C33.6745 58.3307 33.9519 57.9307 34.3039 57.6C34.6559 57.2693 35.0719 57.0133 35.5519 56.832C36.0425 56.6507 36.5705 56.56 37.1359 56.56C37.7119 56.56 38.2399 56.6507 38.7199 56.832C39.2105 57.0133 39.6319 57.2747 39.9839 57.616C40.3359 57.9467 40.6079 58.3467 40.7999 58.816C40.9919 59.2747 41.0879 59.7813 41.0879 60.336C41.0879 60.912 40.9865 61.4347 40.7839 61.904C40.5812 62.3627 40.3039 62.7573 39.9519 63.088C39.5999 63.408 39.1839 63.6587 38.7039 63.84C38.2239 64.0213 37.7012 64.112 37.1359 64.112ZM37.1359 62.432C37.7225 62.432 38.1812 62.2347 38.5119 61.84C38.8425 61.4453 39.0079 60.944 39.0079 60.336C39.0079 59.728 38.8479 59.232 38.5279 58.848C38.2079 58.4533 37.7439 58.256 37.1359 58.256C36.5385 58.256 36.0745 58.4533 35.7439 58.848C35.4132 59.2427 35.2479 59.7387 35.2479 60.336C35.2479 60.624 35.2905 60.896 35.3759 61.152C35.4612 61.408 35.5839 61.632 35.7439 61.824C35.9039 62.016 36.1012 62.1653 36.3359 62.272C36.5705 62.3787 36.8372 62.432 37.1359 62.432ZM57.5729 56.688H61.5249C62.2822 56.688 62.8529 56.8533 63.2369 57.184C63.6209 57.504 63.8129 57.9253 63.8129 58.448C63.8129 58.8427 63.7169 59.168 63.5249 59.424C63.3329 59.68 63.0822 59.8613 62.7729 59.968C63.2956 60.0427 63.7222 60.224 64.0529 60.512C64.3836 60.8 64.5489 61.232 64.5489 61.808C64.5489 62.512 64.2876 63.056 63.7649 63.44C63.2529 63.8133 62.5009 64 61.5089 64H57.5729V56.688ZM59.5569 60.704V62.544H61.0769C61.5782 62.544 61.9356 62.4693 62.1489 62.32C62.3622 62.16 62.4689 61.9253 62.4689 61.616C62.4689 61.296 62.3569 61.0667 62.1329 60.928C61.9089 60.7787 61.5729 60.704 61.1249 60.704H59.5569ZM59.5569 58.144V59.552H60.9329C61.6156 59.552 61.9569 59.312 61.9569 58.832C61.9569 58.3733 61.6102 58.144 60.9169 58.144H59.5569ZM84.3624 64.112C83.7864 64.112 83.2531 64.0213 82.7624 63.84C82.2824 63.6587 81.8664 63.4027 81.5144 63.072C81.1731 62.7307 80.9011 62.3307 80.6984 61.872C80.5064 61.4133 80.4104 60.9013 80.4104 60.336C80.4104 59.7707 80.5064 59.2587 80.6984 58.8C80.9011 58.3307 81.1784 57.9307 81.5304 57.6C81.8824 57.2693 82.2984 57.0133 82.7784 56.832C83.2691 56.6507 83.7971 56.56 84.3624 56.56C84.9384 56.56 85.4664 56.6507 85.9464 56.832C86.4371 57.0133 86.8584 57.2747 87.2104 57.616C87.5624 57.9467 87.8344 58.3467 88.0264 58.816C88.2184 59.2747 88.3144 59.7813 88.3144 60.336C88.3144 60.912 88.2131 61.4347 88.0104 61.904C87.8078 62.3627 87.5304 62.7573 87.1784 63.088C86.8264 63.408 86.4104 63.6587 85.9304 63.84C85.4504 64.0213 84.9278 64.112 84.3624 64.112ZM84.3624 62.432C84.9491 62.432 85.4078 62.2347 85.7384 61.84C86.0691 61.4453 86.2344 60.944 86.2344 60.336C86.2344 59.728 86.0744 59.232 85.7544 58.848C85.4344 58.4533 84.9704 58.256 84.3624 58.256C83.7651 58.256 83.3011 58.4533 82.9704 58.848C82.6398 59.2427 82.4744 59.7387 82.4744 60.336C82.4744 60.624 82.5171 60.896 82.6024 61.152C82.6878 61.408 82.8104 61.632 82.9704 61.824C83.1304 62.016 83.3278 62.1653 83.5624 62.272C83.7971 62.3787 84.0638 62.432 84.3624 62.432ZM93.1567 64.112C92.57 64.112 92.042 64.0213 91.5727 63.84C91.1034 63.6587 90.698 63.408 90.3567 63.088C90.026 62.7573 89.77 62.3627 89.5887 61.904C89.4074 61.4453 89.3167 60.9333 89.3167 60.368C89.3167 59.7707 89.4127 59.2373 89.6047 58.768C89.8074 58.288 90.0794 57.888 90.4207 57.568C90.762 57.2373 91.1674 56.9867 91.6367 56.816C92.106 56.6453 92.6127 56.56 93.1567 56.56C93.7754 56.56 94.3354 56.6667 94.8367 56.88C95.3487 57.0933 95.7487 57.36 96.0367 57.68L95.0127 59.024C94.7994 58.7893 94.5487 58.6027 94.2607 58.464C93.9834 58.3253 93.6687 58.256 93.3167 58.256C92.7194 58.256 92.2447 58.448 91.8927 58.832C91.5514 59.216 91.3807 59.7067 91.3807 60.304C91.3807 60.9227 91.5567 61.4347 91.9087 61.84C92.2714 62.2347 92.7567 62.432 93.3647 62.432C93.7167 62.432 94.0314 62.3627 94.3087 62.224C94.586 62.0747 94.8314 61.8827 95.0447 61.648L96.2127 62.8C95.8927 63.216 95.466 63.5413 94.9327 63.776C94.41 64 93.818 64.112 93.1567 64.112ZM102.429 61.12H99.3889V64H97.4049V56.688H99.3889V59.376H102.429V56.688H104.413V64H102.429V61.12ZM109.816 64.112C109.24 64.112 108.706 64.0213 108.216 63.84C107.736 63.6587 107.32 63.4027 106.968 63.072C106.626 62.7307 106.354 62.3307 106.152 61.872C105.96 61.4133 105.864 60.9013 105.864 60.336C105.864 59.7707 105.96 59.2587 106.152 58.8C106.354 58.3307 106.632 57.9307 106.984 57.6C107.336 57.2693 107.752 57.0133 108.232 56.832C108.722 56.6507 109.25 56.56 109.816 56.56C110.392 56.56 110.92 56.6507 111.4 56.832C111.89 57.0133 112.312 57.2747 112.664 57.616C113.016 57.9467 113.288 58.3467 113.48 58.816C113.672 59.2747 113.768 59.7813 113.768 60.336C113.768 60.912 113.666 61.4347 113.464 61.904C113.261 62.3627 112.984 62.7573 112.632 63.088C112.28 63.408 111.864 63.6587 111.384 63.84C110.904 64.0213 110.381 64.112 109.816 64.112ZM109.816 62.432C110.402 62.432 110.861 62.2347 111.192 61.84C111.522 61.4453 111.688 60.944 111.688 60.336C111.688 59.728 111.528 59.232 111.208 58.848C110.888 58.4533 110.424 58.256 109.816 58.256C109.218 58.256 108.754 58.4533 108.424 58.848C108.093 59.2427 107.928 59.7387 107.928 60.336C107.928 60.624 107.97 60.896 108.056 61.152C108.141 61.408 108.264 61.632 108.424 61.824C108.584 62.016 108.781 62.1653 109.016 62.272C109.25 62.3787 109.517 62.432 109.816 62.432ZM115.202 56.688H119.154C119.911 56.688 120.482 56.8533 120.866 57.184C121.25 57.504 121.442 57.9253 121.442 58.448C121.442 58.8427 121.346 59.168 121.154 59.424C120.962 59.68 120.711 59.8613 120.402 59.968C120.924 60.0427 121.351 60.224 121.682 60.512C122.012 60.8 122.178 61.232 122.178 61.808C122.178 62.512 121.916 63.056 121.394 63.44C120.882 63.8133 120.13 64 119.138 64H115.202V56.688ZM117.186 60.704V62.544H118.706C119.207 62.544 119.564 62.4693 119.778 62.32C119.991 62.16 120.098 61.9253 120.098 61.616C120.098 61.296 119.986 61.0667 119.762 60.928C119.538 60.7787 119.202 60.704 118.754 60.704H117.186ZM117.186 58.144V59.552H118.562C119.244 59.552 119.586 59.312 119.586 58.832C119.586 58.3733 119.239 58.144 118.546 58.144H117.186ZM128.445 61.12H125.405V64H123.421V56.688H125.405V59.376H128.445V56.688H130.429V64H128.445V61.12ZM135.831 64.112C135.255 64.112 134.722 64.0213 134.231 63.84C133.751 63.6587 133.335 63.4027 132.983 63.072C132.642 62.7307 132.37 62.3307 132.167 61.872C131.975 61.4133 131.879 60.9013 131.879 60.336C131.879 59.7707 131.975 59.2587 132.167 58.8C132.37 58.3307 132.647 57.9307 132.999 57.6C133.351 57.2693 133.767 57.0133 134.247 56.832C134.738 56.6507 135.266 56.56 135.831 56.56C136.407 56.56 136.935 56.6507 137.415 56.832C137.906 57.0133 138.327 57.2747 138.679 57.616C139.031 57.9467 139.303 58.3467 139.495 58.816C139.687 59.2747 139.783 59.7813 139.783 60.336C139.783 60.912 139.682 61.4347 139.479 61.904C139.277 62.3627 138.999 62.7573 138.647 63.088C138.295 63.408 137.879 63.6587 137.399 63.84C136.919 64.0213 136.397 64.112 135.831 64.112ZM135.831 62.432C136.418 62.432 136.877 62.2347 137.207 61.84C137.538 61.4453 137.703 60.944 137.703 60.336C137.703 59.728 137.543 59.232 137.223 58.848C136.903 58.4533 136.439 58.256 135.831 58.256C135.234 58.256 134.77 58.4533 134.439 58.848C134.109 59.2427 133.943 59.7387 133.943 60.336C133.943 60.624 133.986 60.896 134.071 61.152C134.157 61.408 134.279 61.632 134.439 61.824C134.599 62.016 134.797 62.1653 135.031 62.272C135.266 62.3787 135.533 62.432 135.831 62.432ZM141.859 56.688H143.555L145.491 60.928L147.315 56.688H149.059L150.275 64H148.419L147.715 59.728L145.827 64H144.979L143.075 59.808L142.387 64H140.627L141.859 56.688ZM168.274 59.536H170.85C170.733 59.1093 170.519 58.7893 170.21 58.576C169.911 58.3627 169.538 58.256 169.09 58.256C168.365 58.256 167.821 58.512 167.458 59.024L166.114 58C166.402 57.552 166.823 57.2 167.378 56.944C167.943 56.688 168.546 56.56 169.186 56.56C169.709 56.56 170.199 56.6453 170.658 56.816C171.127 56.9867 171.538 57.232 171.89 57.552C172.242 57.872 172.519 58.2667 172.722 58.736C172.925 59.1947 173.026 59.7227 173.026 60.32C173.026 60.8747 172.93 61.3867 172.738 61.856C172.557 62.3147 172.301 62.7147 171.97 63.056C171.639 63.3867 171.239 63.648 170.77 63.84C170.301 64.0213 169.789 64.112 169.234 64.112C168.541 64.112 167.895 63.9733 167.298 63.696C166.711 63.4187 166.279 63.0187 166.002 62.496L167.442 61.664C167.826 62.208 168.359 62.48 169.042 62.48C169.586 62.48 170.007 62.3253 170.306 62.016C170.605 61.7067 170.797 61.344 170.882 60.928H168.274V59.536ZM175.917 58.432H173.565V56.688H180.237V58.432H177.885V64H175.917V58.432ZM184.694 64.112C184.118 64.112 183.585 64.0213 183.094 63.84C182.614 63.6587 182.198 63.4027 181.846 63.072C181.505 62.7307 181.233 62.3307 181.03 61.872C180.838 61.4133 180.742 60.9013 180.742 60.336C180.742 59.7707 180.838 59.2587 181.03 58.8C181.233 58.3307 181.51 57.9307 181.862 57.6C182.214 57.2693 182.63 57.0133 183.11 56.832C183.601 56.6507 184.129 56.56 184.694 56.56C185.27 56.56 185.798 56.6507 186.278 56.832C186.769 57.0133 187.19 57.2747 187.542 57.616C187.894 57.9467 188.166 58.3467 188.358 58.816C188.55 59.2747 188.646 59.7813 188.646 60.336C188.646 60.912 188.545 61.4347 188.342 61.904C188.14 62.3627 187.862 62.7573 187.51 63.088C187.158 63.408 186.742 63.6587 186.262 63.84C185.782 64.0213 185.26 64.112 184.694 64.112ZM184.694 62.432C185.281 62.432 185.74 62.2347 186.07 61.84C186.401 61.4453 186.566 60.944 186.566 60.336C186.566 59.728 186.406 59.232 186.086 58.848C185.766 58.4533 185.302 58.256 184.694 58.256C184.097 58.256 183.633 58.4533 183.302 58.848C182.972 59.2427 182.806 59.7387 182.806 60.336C182.806 60.624 182.849 60.896 182.934 61.152C183.02 61.408 183.142 61.632 183.302 61.824C183.462 62.016 183.66 62.1653 183.894 62.272C184.129 62.3787 184.396 62.432 184.694 62.432ZM204.284 62.256H205.164C205.441 61.68 205.649 61.04 205.788 60.336C205.926 59.6213 205.996 58.7787 205.996 57.808V56.688H211.692V62.256H212.812V65.632H211.196V64H205.916V65.632H204.284V62.256ZM207.772 58.48C207.772 59.9627 207.553 61.2213 207.116 62.256H209.708V58.432H207.772V58.48ZM217.324 64.112C216.737 64.112 216.198 64.0213 215.708 63.84C215.228 63.6587 214.812 63.408 214.46 63.088C214.108 62.7573 213.836 62.368 213.644 61.92C213.452 61.4613 213.356 60.9547 213.356 60.4C213.356 59.8133 213.457 59.2853 213.66 58.816C213.862 58.336 214.14 57.9307 214.492 57.6C214.844 57.2693 215.254 57.0133 215.724 56.832C216.193 56.6507 216.694 56.56 217.228 56.56C217.804 56.56 218.316 56.6613 218.764 56.864C219.222 57.056 219.606 57.328 219.916 57.68C220.225 58.0213 220.46 58.4267 220.62 58.896C220.79 59.3547 220.876 59.8507 220.876 60.384V60.8H215.276C215.372 61.3653 215.612 61.7973 215.996 62.096C216.39 62.3947 216.886 62.544 217.484 62.544C217.91 62.544 218.305 62.4693 218.668 62.32C219.041 62.16 219.35 61.9413 219.596 61.664L220.7 62.672C220.326 63.1413 219.846 63.4987 219.26 63.744C218.673 63.9893 218.028 64.112 217.324 64.112ZM217.148 58.16C216.678 58.16 216.284 58.288 215.964 58.544C215.654 58.7893 215.441 59.1413 215.324 59.6H218.972C218.908 59.1947 218.716 58.8533 218.396 58.576C218.076 58.2987 217.66 58.16 217.148 58.16ZM221.809 63.728L223.361 61.408C222.507 61.0027 222.081 60.2827 222.081 59.248C222.081 58.4053 222.353 57.7707 222.897 57.344C223.451 56.9067 224.31 56.688 225.473 56.688H228.641V64H226.657V61.76H225.409L223.969 64H221.809V63.728ZM226.657 60.352V58.224H225.601C225.089 58.224 224.71 58.2987 224.465 58.448C224.219 58.5867 224.097 58.8587 224.097 59.264C224.097 59.6693 224.203 59.952 224.417 60.112C224.641 60.272 225.019 60.352 225.553 60.352H226.657ZM232.202 58.432H229.85V56.688H236.522V58.432H234.17V64H232.202V58.432ZM240.996 64.112C240.409 64.112 239.87 64.0213 239.38 63.84C238.9 63.6587 238.484 63.408 238.132 63.088C237.78 62.7573 237.508 62.368 237.316 61.92C237.124 61.4613 237.028 60.9547 237.028 60.4C237.028 59.8133 237.129 59.2853 237.332 58.816C237.534 58.336 237.812 57.9307 238.164 57.6C238.516 57.2693 238.926 57.0133 239.396 56.832C239.865 56.6507 240.366 56.56 240.9 56.56C241.476 56.56 241.988 56.6613 242.436 56.864C242.894 57.056 243.278 57.328 243.588 57.68C243.897 58.0213 244.132 58.4267 244.292 58.896C244.462 59.3547 244.548 59.8507 244.548 60.384V60.8H238.948C239.044 61.3653 239.284 61.7973 239.668 62.096C240.062 62.3947 240.558 62.544 241.156 62.544C241.582 62.544 241.977 62.4693 242.34 62.32C242.713 62.16 243.022 61.9413 243.268 61.664L244.372 62.672C243.998 63.1413 243.518 63.4987 242.932 63.744C242.345 63.9893 241.7 64.112 240.996 64.112ZM240.82 58.16C240.35 58.16 239.956 58.288 239.636 58.544C239.326 58.7893 239.113 59.1413 238.996 59.6H242.644C242.58 59.1947 242.388 58.8533 242.068 58.576C241.748 58.2987 241.332 58.16 240.82 58.16ZM245.688 64.16C245.571 64.16 245.464 64.1547 245.368 64.144C245.283 64.1333 245.208 64.1227 245.144 64.112V62.208C245.251 62.2293 245.336 62.24 245.4 62.24C245.582 62.24 245.736 62.176 245.864 62.048C245.992 61.9093 246.094 61.6907 246.168 61.392C246.254 61.0827 246.312 60.6827 246.344 60.192C246.387 59.7013 246.408 59.104 246.408 58.4V56.688H251.96V64H249.992V58.432H248.232V59.296C248.232 60.2133 248.174 60.9813 248.056 61.6C247.95 62.2187 247.784 62.72 247.56 63.104C247.347 63.4773 247.08 63.7493 246.76 63.92C246.451 64.08 246.094 64.16 245.688 64.16ZM253.866 56.688H255.85V58.8H257.146C258.181 58.8 258.965 59.0133 259.498 59.44C260.042 59.8667 260.314 60.512 260.314 61.376C260.314 62.24 260.031 62.896 259.466 63.344C258.911 63.7813 258.085 64 256.986 64H253.866V56.688ZM256.794 62.448C257.274 62.448 257.642 62.3787 257.898 62.24C258.154 62.0907 258.282 61.8027 258.282 61.376C258.282 60.9813 258.165 60.7093 257.93 60.56C257.695 60.4107 257.338 60.336 256.858 60.336H255.85V62.448H256.794ZM266.609 61.12H263.569V64H261.585V56.688H263.569V59.376H266.609V56.688H268.593V64H266.609V61.12ZM273.995 64.112C273.419 64.112 272.886 64.0213 272.395 63.84C271.915 63.6587 271.499 63.4027 271.147 63.072C270.806 62.7307 270.534 62.3307 270.331 61.872C270.139 61.4133 270.043 60.9013 270.043 60.336C270.043 59.7707 270.139 59.2587 270.331 58.8C270.534 58.3307 270.811 57.9307 271.163 57.6C271.515 57.2693 271.931 57.0133 272.411 56.832C272.902 56.6507 273.43 56.56 273.995 56.56C274.571 56.56 275.099 56.6507 275.579 56.832C276.07 57.0133 276.491 57.2747 276.843 57.616C277.195 57.9467 277.467 58.3467 277.659 58.816C277.851 59.2747 277.947 59.7813 277.947 60.336C277.947 60.912 277.846 61.4347 277.643 61.904C277.441 62.3627 277.163 62.7573 276.811 63.088C276.459 63.408 276.043 63.6587 275.563 63.84C275.083 64.0213 274.561 64.112 273.995 64.112ZM273.995 62.432C274.582 62.432 275.041 62.2347 275.371 61.84C275.702 61.4453 275.867 60.944 275.867 60.336C275.867 59.728 275.707 59.232 275.387 58.848C275.067 58.4533 274.603 58.256 273.995 58.256C273.398 58.256 272.934 58.4533 272.603 58.848C272.273 59.2427 272.107 59.7387 272.107 60.336C272.107 60.624 272.15 60.896 272.235 61.152C272.321 61.408 272.443 61.632 272.603 61.824C272.763 62.016 272.961 62.1653 273.195 62.272C273.43 62.3787 273.697 62.432 273.995 62.432ZM282.79 64.112C282.203 64.112 281.675 64.0213 281.206 63.84C280.736 63.6587 280.331 63.408 279.99 63.088C279.659 62.7573 279.403 62.3627 279.222 61.904C279.04 61.4453 278.95 60.9333 278.95 60.368C278.95 59.7707 279.046 59.2373 279.238 58.768C279.44 58.288 279.712 57.888 280.054 57.568C280.395 57.2373 280.8 56.9867 281.27 56.816C281.739 56.6453 282.246 56.56 282.79 56.56C283.408 56.56 283.968 56.6667 284.47 56.88C284.982 57.0933 285.382 57.36 285.67 57.68L284.646 59.024C284.432 58.7893 284.182 58.6027 283.894 58.464C283.616 58.3253 283.302 58.256 282.95 58.256C282.352 58.256 281.878 58.448 281.526 58.832C281.184 59.216 281.014 59.7067 281.014 60.304C281.014 60.9227 281.19 61.4347 281.542 61.84C281.904 62.2347 282.39 62.432 282.998 62.432C283.35 62.432 283.664 62.3627 283.942 62.224C284.219 62.0747 284.464 61.8827 284.678 61.648L285.846 62.8C285.526 63.216 285.099 63.5413 284.566 63.776C284.043 64 283.451 64.112 282.79 64.112ZM288.718 58.432H286.366V56.688H293.038V58.432H290.686V64H288.718V58.432ZM294.257 56.688H296.241V58.8H297.536C298.571 58.8 299.355 59.0133 299.889 59.44C300.433 59.8667 300.705 60.512 300.705 61.376C300.705 62.24 300.422 62.896 299.857 63.344C299.302 63.7813 298.475 64 297.377 64H294.257V56.688ZM297.185 62.448C297.665 62.448 298.033 62.3787 298.289 62.24C298.545 62.0907 298.673 61.8027 298.673 61.376C298.673 60.9813 298.555 60.7093 298.321 60.56C298.086 60.4107 297.729 60.336 297.249 60.336H296.241V62.448H297.185ZM302.663 64.08C302.343 64.0267 302.098 63.904 301.927 63.712C301.767 63.5093 301.687 63.2693 301.687 62.992C301.687 62.64 301.799 62.3627 302.023 62.16C302.258 61.9467 302.535 61.84 302.855 61.84C303.197 61.84 303.49 61.952 303.735 62.176C303.991 62.4 304.119 62.72 304.119 63.136C304.119 63.4133 304.045 63.7227 303.895 64.064C303.746 64.4053 303.517 64.848 303.207 65.392L302.567 66.56H301.287L302.663 64.08ZM25.464 83.112C24.888 83.112 24.3547 83.0213 23.864 82.84C23.384 82.6587 22.968 82.4027 22.616 82.072C22.2747 81.7307 22.0027 81.3307 21.8 80.872C21.608 80.4133 21.512 79.9013 21.512 79.336C21.512 78.7707 21.608 78.2587 21.8 77.8C22.0027 77.3307 22.28 76.9307 22.632 76.6C22.984 76.2693 23.4 76.0133 23.88 75.832C24.3707 75.6507 24.8987 75.56 25.464 75.56C26.04 75.56 26.568 75.6507 27.048 75.832C27.5387 76.0133 27.96 76.2747 28.312 76.616C28.664 76.9467 28.936 77.3467 29.128 77.816C29.32 78.2747 29.416 78.7813 29.416 79.336C29.416 79.912 29.3147 80.4347 29.112 80.904C28.9093 81.3627 28.632 81.7573 28.28 82.088C27.928 82.408 27.512 82.6587 27.032 82.84C26.552 83.0213 26.0293 83.112 25.464 83.112ZM25.464 81.432C26.0507 81.432 26.5093 81.2347 26.84 80.84C27.1707 80.4453 27.336 79.944 27.336 79.336C27.336 78.728 27.176 78.232 26.856 77.848C26.536 77.4533 26.072 77.256 25.464 77.256C24.8667 77.256 24.4027 77.4533 24.072 77.848C23.7413 78.2427 23.576 78.7387 23.576 79.336C23.576 79.624 23.6187 79.896 23.704 80.152C23.7893 80.408 23.912 80.632 24.072 80.824C24.232 81.016 24.4293 81.1653 24.664 81.272C24.8987 81.3787 25.1653 81.432 25.464 81.432ZM34.2583 83.112C33.6716 83.112 33.1436 83.0213 32.6743 82.84C32.2049 82.6587 31.7996 82.408 31.4583 82.088C31.1276 81.7573 30.8716 81.3627 30.6903 80.904C30.5089 80.4453 30.4183 79.9333 30.4183 79.368C30.4183 78.7707 30.5143 78.2373 30.7063 77.768C30.9089 77.288 31.1809 76.888 31.5223 76.568C31.8636 76.2373 32.2689 75.9867 32.7383 75.816C33.2076 75.6453 33.7143 75.56 34.2583 75.56C34.8769 75.56 35.4369 75.6667 35.9383 75.88C36.4503 76.0933 36.8503 76.36 37.1383 76.68L36.1143 78.024C35.9009 77.7893 35.6503 77.6027 35.3623 77.464C35.0849 77.3253 34.7703 77.256 34.4183 77.256C33.8209 77.256 33.3463 77.448 32.9943 77.832C32.6529 78.216 32.4823 78.7067 32.4823 79.304C32.4823 79.9227 32.6583 80.4347 33.0103 80.84C33.3729 81.2347 33.8583 81.432 34.4663 81.432C34.8183 81.432 35.1329 81.3627 35.4103 81.224C35.6876 81.0747 35.9329 80.8827 36.1463 80.648L37.3143 81.8C36.9943 82.216 36.5676 82.5413 36.0343 82.776C35.5116 83 34.9196 83.112 34.2583 83.112ZM43.5305 80.12H40.4905V83H38.5065V75.688H40.4905V78.376H43.5305V75.688H45.5145V83H43.5305V80.12ZM50.9171 83.112C50.3411 83.112 49.8078 83.0213 49.3171 82.84C48.8371 82.6587 48.4211 82.4027 48.0691 82.072C47.7278 81.7307 47.4558 81.3307 47.2531 80.872C47.0611 80.4133 46.9651 79.9013 46.9651 79.336C46.9651 78.7707 47.0611 78.2587 47.2531 77.8C47.4558 77.3307 47.7331 76.9307 48.0851 76.6C48.4371 76.2693 48.8531 76.0133 49.3331 75.832C49.8238 75.6507 50.3518 75.56 50.9171 75.56C51.4931 75.56 52.0211 75.6507 52.5011 75.832C52.9918 76.0133 53.4131 76.2747 53.7651 76.616C54.1171 76.9467 54.3891 77.3467 54.5811 77.816C54.7731 78.2747 54.8691 78.7813 54.8691 79.336C54.8691 79.912 54.7678 80.4347 54.5651 80.904C54.3625 81.3627 54.0851 81.7573 53.7331 82.088C53.3811 82.408 52.9651 82.6587 52.4851 82.84C52.0051 83.0213 51.4825 83.112 50.9171 83.112ZM50.9171 81.432C51.5038 81.432 51.9625 81.2347 52.2931 80.84C52.6238 80.4453 52.7891 79.944 52.7891 79.336C52.7891 78.728 52.6291 78.232 52.3091 77.848C51.9891 77.4533 51.5251 77.256 50.9171 77.256C50.3198 77.256 49.8558 77.4533 49.5251 77.848C49.1945 78.2427 49.0291 78.7387 49.0291 79.336C49.0291 79.624 49.0718 79.896 49.1571 80.152C49.2425 80.408 49.3651 80.632 49.5251 80.824C49.6851 81.016 49.8825 81.1653 50.1171 81.272C50.3518 81.3787 50.6185 81.432 50.9171 81.432ZM56.3034 75.688H60.2554C61.0127 75.688 61.5834 75.8533 61.9674 76.184C62.3514 76.504 62.5434 76.9253 62.5434 77.448C62.5434 77.8427 62.4474 78.168 62.2554 78.424C62.0634 78.68 61.8127 78.8613 61.5034 78.968C62.026 79.0427 62.4527 79.224 62.7834 79.512C63.114 79.8 63.2794 80.232 63.2794 80.808C63.2794 81.512 63.018 82.056 62.4954 82.44C61.9834 82.8133 61.2314 83 60.2394 83H56.3034V75.688ZM58.2874 79.704V81.544H59.8074C60.3087 81.544 60.666 81.4693 60.8794 81.32C61.0927 81.16 61.1994 80.9253 61.1994 80.616C61.1994 80.296 61.0874 80.0667 60.8634 79.928C60.6394 79.7787 60.3034 79.704 59.8554 79.704H58.2874ZM58.2874 77.144V78.552H59.6634C60.346 78.552 60.6874 78.312 60.6874 77.832C60.6874 77.3733 60.3407 77.144 59.6474 77.144H58.2874ZM67.4981 83.112C67.0608 83.112 66.6341 83.0213 66.2181 82.84C65.8128 82.6587 65.4501 82.4027 65.1301 82.072C64.8208 81.7413 64.5701 81.3467 64.3781 80.888C64.1861 80.4187 64.0901 79.9013 64.0901 79.336C64.0901 78.7707 64.1808 78.2587 64.3621 77.8C64.5541 77.3307 64.8048 76.9307 65.1141 76.6C65.4341 76.2693 65.7968 76.0133 66.2021 75.832C66.6181 75.6507 67.0501 75.56 67.4981 75.56C68.0421 75.56 68.5221 75.6667 68.9381 75.88C69.3648 76.0933 69.7008 76.3547 69.9461 76.664V75.688H71.8181V83H69.9461V82.008C69.6795 82.3387 69.3328 82.6053 68.9061 82.808C68.4795 83.0107 68.0101 83.112 67.4981 83.112ZM68.0261 81.416C68.5701 81.416 69.0021 81.2293 69.3221 80.856C69.6528 80.472 69.8235 79.976 69.8341 79.368V79.24C69.8341 78.6747 69.6688 78.2107 69.3381 77.848C69.0075 77.4853 68.5701 77.304 68.0261 77.304C67.7808 77.304 67.5461 77.3467 67.3221 77.432C67.0981 77.5173 66.9008 77.6453 66.7301 77.816C66.5595 77.9867 66.4261 78.2 66.3301 78.456C66.2341 78.712 66.1861 79.0053 66.1861 79.336C66.1861 79.976 66.3568 80.4827 66.6981 80.856C67.0501 81.2293 67.4928 81.416 68.0261 81.416ZM78.7336 80.12H75.6936V83H73.7096V75.688H75.6936V78.376H78.7336V75.688H80.7176V83H78.7336V80.12ZM87.6243 80.12H84.5843V83H82.6003V75.688H84.5843V78.376H87.6243V75.688H89.6083V83H87.6243V80.12ZM94.4669 83.112C94.0295 83.112 93.6029 83.0213 93.1869 82.84C92.7815 82.6587 92.4189 82.4027 92.0989 82.072C91.7895 81.7413 91.5389 81.3467 91.3469 80.888C91.1549 80.4187 91.0589 79.9013 91.0589 79.336C91.0589 78.7707 91.1495 78.2587 91.3309 77.8C91.5229 77.3307 91.7735 76.9307 92.0829 76.6C92.4029 76.2693 92.7655 76.0133 93.1709 75.832C93.5869 75.6507 94.0189 75.56 94.4669 75.56C95.0109 75.56 95.4909 75.6667 95.9069 75.88C96.3335 76.0933 96.6695 76.3547 96.9149 76.664V75.688H98.7869V83H96.9149V82.008C96.6482 82.3387 96.3015 82.6053 95.8749 82.808C95.4482 83.0107 94.9789 83.112 94.4669 83.112ZM94.9949 81.416C95.5389 81.416 95.9709 81.2293 96.2909 80.856C96.6215 80.472 96.7922 79.976 96.8029 79.368V79.24C96.8029 78.6747 96.6375 78.2107 96.3069 77.848C95.9762 77.4853 95.5389 77.304 94.9949 77.304C94.7495 77.304 94.5149 77.3467 94.2909 77.432C94.0669 77.5173 93.8695 77.6453 93.6989 77.816C93.5282 77.9867 93.3949 78.2 93.2989 78.456C93.2029 78.712 93.1549 79.0053 93.1549 79.336C93.1549 79.976 93.3255 80.4827 93.6669 80.856C94.0189 81.2293 94.4615 81.416 94.9949 81.416ZM100.23 82.728L101.782 80.408C100.929 80.0027 100.502 79.2827 100.502 78.248C100.502 77.4053 100.774 76.7707 101.318 76.344C101.873 75.9067 102.732 75.688 103.894 75.688H107.062V83H105.078V80.76H103.83L102.39 83H100.23V82.728ZM105.078 79.352V77.224H104.022C103.51 77.224 103.132 77.2987 102.886 77.448C102.641 77.5867 102.518 77.8587 102.518 78.264C102.518 78.6693 102.625 78.952 102.838 79.112C103.062 79.272 103.441 79.352 103.974 79.352H105.078ZM121.698 80.12H118.658V83H116.674V75.688H118.658V78.376H121.698V75.688H123.682V83H121.698V80.12ZM128.541 83.112C128.104 83.112 127.677 83.0213 127.261 82.84C126.856 82.6587 126.493 82.4027 126.173 82.072C125.864 81.7413 125.613 81.3467 125.421 80.888C125.229 80.4187 125.133 79.9013 125.133 79.336C125.133 78.7707 125.224 78.2587 125.405 77.8C125.597 77.3307 125.848 76.9307 126.157 76.6C126.477 76.2693 126.84 76.0133 127.245 75.832C127.661 75.6507 128.093 75.56 128.541 75.56C129.085 75.56 129.565 75.6667 129.981 75.88C130.408 76.0933 130.744 76.3547 130.989 76.664V75.688H132.861V83H130.989V82.008C130.722 82.3387 130.376 82.6053 129.949 82.808C129.522 83.0107 129.053 83.112 128.541 83.112ZM129.069 81.416C129.613 81.416 130.045 81.2293 130.365 80.856C130.696 80.472 130.866 79.976 130.877 79.368V79.24C130.877 78.6747 130.712 78.2107 130.381 77.848C130.05 77.4853 129.613 77.304 129.069 77.304C128.824 77.304 128.589 77.3467 128.365 77.432C128.141 77.5173 127.944 77.6453 127.773 77.816C127.602 77.9867 127.469 78.2 127.373 78.456C127.277 78.712 127.229 79.0053 127.229 79.336C127.229 79.976 127.4 80.4827 127.741 80.856C128.093 81.2293 128.536 81.416 129.069 81.416ZM141.635 81.256H142.515C142.792 80.68 143 80.04 143.139 79.336C143.278 78.6213 143.347 77.7787 143.347 76.808V75.688H149.043V81.256H150.163V84.632H148.547V83H143.267V84.632H141.635V81.256ZM145.123 77.48C145.123 78.9627 144.904 80.2213 144.467 81.256H147.059V77.432H145.123V77.48ZM151.989 86.6L153.221 83.08L150.229 76.056V75.688H152.213L154.149 80.472L155.845 75.688H157.637L157.621 76.056L153.781 86.84H151.989V86.6ZM157.918 82.632L160.238 79.16L158.11 76.056V75.688H160.19L161.63 77.832L163.006 75.688H164.894V76.056L162.798 79.208L165.118 82.648L165.134 83H163.102L161.47 80.568L159.854 83H157.918V82.632ZM169.456 83.112C168.88 83.112 168.347 83.0213 167.856 82.84C167.376 82.6587 166.96 82.4027 166.608 82.072C166.267 81.7307 165.995 81.3307 165.792 80.872C165.6 80.4133 165.504 79.9013 165.504 79.336C165.504 78.7707 165.6 78.2587 165.792 77.8C165.995 77.3307 166.272 76.9307 166.624 76.6C166.976 76.2693 167.392 76.0133 167.872 75.832C168.363 75.6507 168.891 75.56 169.456 75.56C170.032 75.56 170.56 75.6507 171.04 75.832C171.531 76.0133 171.952 76.2747 172.304 76.616C172.656 76.9467 172.928 77.3467 173.12 77.816C173.312 78.2747 173.408 78.7813 173.408 79.336C173.408 79.912 173.307 80.4347 173.104 80.904C172.902 81.3627 172.624 81.7573 172.272 82.088C171.92 82.408 171.504 82.6587 171.024 82.84C170.544 83.0213 170.022 83.112 169.456 83.112ZM169.456 81.432C170.043 81.432 170.502 81.2347 170.832 80.84C171.163 80.4453 171.328 79.944 171.328 79.336C171.328 78.728 171.168 78.232 170.848 77.848C170.528 77.4533 170.064 77.256 169.456 77.256C168.859 77.256 168.395 77.4533 168.064 77.848C167.734 78.2427 167.568 78.7387 167.568 79.336C167.568 79.624 167.611 79.896 167.696 80.152C167.782 80.408 167.904 80.632 168.064 80.824C168.224 81.016 168.422 81.1653 168.656 81.272C168.891 81.3787 169.158 81.432 169.456 81.432ZM174.842 75.688H178.794C179.552 75.688 180.122 75.8533 180.506 76.184C180.89 76.504 181.082 76.9253 181.082 77.448C181.082 77.8427 180.986 78.168 180.794 78.424C180.602 78.68 180.352 78.8613 180.042 78.968C180.565 79.0427 180.992 79.224 181.322 79.512C181.653 79.8 181.818 80.232 181.818 80.808C181.818 81.512 181.557 82.056 181.034 82.44C180.522 82.8133 179.77 83 178.778 83H174.842V75.688ZM176.826 79.704V81.544H178.346C178.848 81.544 179.205 81.4693 179.418 81.32C179.632 81.16 179.738 80.9253 179.738 80.616C179.738 80.296 179.626 80.0667 179.402 79.928C179.178 79.7787 178.842 79.704 178.394 79.704H176.826ZM176.826 77.144V78.552H178.202C178.885 78.552 179.226 78.312 179.226 77.832C179.226 77.3733 178.88 77.144 178.186 77.144H176.826ZM188.085 80.12H185.045V83H183.061V75.688H185.045V78.376H188.085V75.688H190.069V83H188.085V80.12ZM195.472 83.112C194.896 83.112 194.362 83.0213 193.872 82.84C193.392 82.6587 192.976 82.4027 192.624 82.072C192.282 81.7307 192.01 81.3307 191.808 80.872C191.616 80.4133 191.52 79.9013 191.52 79.336C191.52 78.7707 191.616 78.2587 191.808 77.8C192.01 77.3307 192.288 76.9307 192.64 76.6C192.992 76.2693 193.408 76.0133 193.888 75.832C194.378 75.6507 194.906 75.56 195.472 75.56C196.048 75.56 196.576 75.6507 197.056 75.832C197.546 76.0133 197.968 76.2747 198.32 76.616C198.672 76.9467 198.944 77.3467 199.136 77.816C199.328 78.2747 199.424 78.7813 199.424 79.336C199.424 79.912 199.322 80.4347 199.12 80.904C198.917 81.3627 198.64 81.7573 198.288 82.088C197.936 82.408 197.52 82.6587 197.04 82.84C196.56 83.0213 196.037 83.112 195.472 83.112ZM195.472 81.432C196.058 81.432 196.517 81.2347 196.848 80.84C197.178 80.4453 197.344 79.944 197.344 79.336C197.344 78.728 197.184 78.232 196.864 77.848C196.544 77.4533 196.08 77.256 195.472 77.256C194.874 77.256 194.41 77.4533 194.08 77.848C193.749 78.2427 193.584 78.7387 193.584 79.336C193.584 79.624 193.626 79.896 193.712 80.152C193.797 80.408 193.92 80.632 194.08 80.824C194.24 81.016 194.437 81.1653 194.672 81.272C194.906 81.3787 195.173 81.432 195.472 81.432ZM201.5 75.688H203.196L205.132 79.928L206.956 75.688H208.7L209.916 83H208.06L207.356 78.728L205.468 83H204.62L202.716 78.808L202.028 83H200.268L201.5 75.688ZM222.53 83.112C221.954 83.112 221.421 83.0213 220.93 82.84C220.45 82.6587 220.034 82.4027 219.682 82.072C219.341 81.7307 219.069 81.3307 218.866 80.872C218.674 80.4133 218.578 79.9013 218.578 79.336C218.578 78.7707 218.674 78.2587 218.866 77.8C219.069 77.3307 219.346 76.9307 219.698 76.6C220.05 76.2693 220.466 76.0133 220.946 75.832C221.437 75.6507 221.965 75.56 222.53 75.56C223.106 75.56 223.634 75.6507 224.114 75.832C224.605 76.0133 225.026 76.2747 225.378 76.616C225.73 76.9467 226.002 77.3467 226.194 77.816C226.386 78.2747 226.482 78.7813 226.482 79.336C226.482 79.912 226.381 80.4347 226.178 80.904C225.976 81.3627 225.698 81.7573 225.346 82.088C224.994 82.408 224.578 82.6587 224.098 82.84C223.618 83.0213 223.096 83.112 222.53 83.112ZM222.53 81.432C223.117 81.432 223.576 81.2347 223.906 80.84C224.237 80.4453 224.402 79.944 224.402 79.336C224.402 78.728 224.242 78.232 223.922 77.848C223.602 77.4533 223.138 77.256 222.53 77.256C221.933 77.256 221.469 77.4533 221.138 77.848C220.808 78.2427 220.642 78.7387 220.642 79.336C220.642 79.624 220.685 79.896 220.77 80.152C220.856 80.408 220.978 80.632 221.138 80.824C221.298 81.016 221.496 81.1653 221.73 81.272C221.965 81.3787 222.232 81.432 222.53 81.432ZM227.917 75.688H234.797V83H232.829V77.432H229.901V83H227.917V75.688ZM239.786 77.8C240.821 77.8 241.605 78.0133 242.138 78.44C242.682 78.8667 242.954 79.512 242.954 80.376C242.954 81.24 242.671 81.896 242.106 82.344C241.551 82.7813 240.725 83 239.626 83H236.698V75.688H238.682V77.8H239.786ZM243.658 75.688H245.642V83H243.658V75.688ZM239.418 81.448C239.898 81.448 240.266 81.3787 240.522 81.24C240.789 81.0907 240.922 80.8027 240.922 80.376C240.922 79.9813 240.799 79.7093 240.554 79.56C240.319 79.4107 239.962 79.336 239.482 79.336H238.682V81.448H239.418ZM249.206 77.432H246.854V75.688H253.526V77.432H251.174V83H249.206V77.432ZM258 83.112C257.413 83.112 256.874 83.0213 256.384 82.84C255.904 82.6587 255.488 82.408 255.136 82.088C254.784 81.7573 254.512 81.368 254.32 80.92C254.128 80.4613 254.032 79.9547 254.032 79.4C254.032 78.8133 254.133 78.2853 254.336 77.816C254.538 77.336 254.816 76.9307 255.168 76.6C255.52 76.2693 255.93 76.0133 256.4 75.832C256.869 75.6507 257.37 75.56 257.904 75.56C258.48 75.56 258.992 75.6613 259.44 75.864C259.898 76.056 260.282 76.328 260.592 76.68C260.901 77.0213 261.136 77.4267 261.296 77.896C261.466 78.3547 261.552 78.8507 261.552 79.384V79.8H255.952C256.048 80.3653 256.288 80.7973 256.672 81.096C257.066 81.3947 257.562 81.544 258.16 81.544C258.586 81.544 258.981 81.4693 259.344 81.32C259.717 81.16 260.026 80.9413 260.272 80.664L261.376 81.672C261.002 82.1413 260.522 82.4987 259.936 82.744C259.349 82.9893 258.704 83.112 258 83.112ZM257.824 77.16C257.354 77.16 256.96 77.288 256.64 77.544C256.33 77.7893 256.117 78.1413 256 78.6H259.648C259.584 78.1947 259.392 77.8533 259.072 77.576C258.752 77.2987 258.336 77.16 257.824 77.16ZM263.386 83.08C263.066 83.0267 262.821 82.904 262.65 82.712C262.49 82.5093 262.41 82.2693 262.41 81.992C262.41 81.64 262.522 81.3627 262.746 81.16C262.981 80.9467 263.258 80.84 263.578 80.84C263.919 80.84 264.213 80.952 264.458 81.176C264.714 81.4 264.842 81.72 264.842 82.136C264.842 82.4133 264.767 82.7227 264.618 83.064C264.469 83.4053 264.239 83.848 263.93 84.392L263.29 85.56H262.01L263.386 83.08ZM278.589 80.344C278.376 80.44 278.125 80.52 277.837 80.584C277.56 80.6373 277.245 80.664 276.893 80.664C276.445 80.664 276.04 80.6107 275.677 80.504C275.325 80.3973 275.021 80.2267 274.765 79.992C274.509 79.7573 274.312 79.4533 274.173 79.08C274.045 78.7067 273.981 78.2533 273.981 77.72V75.688H275.965V77.64C275.965 78.056 276.061 78.376 276.253 78.6C276.445 78.8133 276.829 78.92 277.405 78.92C277.842 78.92 278.237 78.8667 278.589 78.76V75.688H280.573V83H278.589V80.344ZM285.902 83.112C285.315 83.112 284.777 83.0213 284.286 82.84C283.806 82.6587 283.39 82.408 283.038 82.088C282.686 81.7573 282.414 81.368 282.222 80.92C282.03 80.4613 281.934 79.9547 281.934 79.4C281.934 78.8133 282.035 78.2853 282.238 77.816C282.441 77.336 282.718 76.9307 283.07 76.6C283.422 76.2693 283.833 76.0133 284.302 75.832C284.771 75.6507 285.273 75.56 285.806 75.56C286.382 75.56 286.894 75.6613 287.342 75.864C287.801 76.056 288.185 76.328 288.494 76.68C288.803 77.0213 289.038 77.4267 289.198 77.896C289.369 78.3547 289.454 78.8507 289.454 79.384V79.8H283.854C283.95 80.3653 284.19 80.7973 284.574 81.096C284.969 81.3947 285.465 81.544 286.062 81.544C286.489 81.544 286.883 81.4693 287.246 81.32C287.619 81.16 287.929 80.9413 288.174 80.664L289.278 81.672C288.905 82.1413 288.425 82.4987 287.838 82.744C287.251 82.9893 286.606 83.112 285.902 83.112ZM285.726 77.16C285.257 77.16 284.862 77.288 284.542 77.544C284.233 77.7893 284.019 78.1413 283.902 78.6H287.55C287.486 78.1947 287.294 77.8533 286.974 77.576C286.654 77.2987 286.238 77.16 285.726 77.16ZM290.913 75.688H295.985V77.432H292.897V83H290.913V75.688ZM300.558 83.112C299.982 83.112 299.448 83.0213 298.958 82.84C298.478 82.6587 298.062 82.4027 297.71 82.072C297.368 81.7307 297.096 81.3307 296.894 80.872C296.702 80.4133 296.606 79.9013 296.606 79.336C296.606 78.7707 296.702 78.2587 296.894 77.8C297.096 77.3307 297.374 76.9307 297.726 76.6C298.078 76.2693 298.494 76.0133 298.974 75.832C299.464 75.6507 299.992 75.56 300.558 75.56C301.134 75.56 301.662 75.6507 302.142 75.832C302.632 76.0133 303.054 76.2747 303.406 76.616C303.758 76.9467 304.03 77.3467 304.222 77.816C304.414 78.2747 304.51 78.7813 304.51 79.336C304.51 79.912 304.408 80.4347 304.206 80.904C304.003 81.3627 303.726 81.7573 303.374 82.088C303.022 82.408 302.606 82.6587 302.126 82.84C301.646 83.0213 301.123 83.112 300.558 83.112ZM300.558 81.432C301.144 81.432 301.603 81.2347 301.934 80.84C302.264 80.4453 302.43 79.944 302.43 79.336C302.43 78.728 302.27 78.232 301.95 77.848C301.63 77.4533 301.166 77.256 300.558 77.256C299.96 77.256 299.496 77.4533 299.166 77.848C298.835 78.2427 298.67 78.7387 298.67 79.336C298.67 79.624 298.712 79.896 298.798 80.152C298.883 80.408 299.006 80.632 299.166 80.824C299.326 81.016 299.523 81.1653 299.758 81.272C299.992 81.3787 300.259 81.432 300.558 81.432ZM26.968 99.12H23.928V102H21.944V94.688H23.928V97.376H26.968V94.688H28.952V102H26.968V99.12ZM34.3706 102.112C33.784 102.112 33.2453 102.021 32.7546 101.84C32.2746 101.659 31.8586 101.408 31.5066 101.088C31.1546 100.757 30.8826 100.368 30.6906 99.92C30.4986 99.4613 30.4026 98.9547 30.4026 98.4C30.4026 97.8133 30.504 97.2853 30.7066 96.816C30.9093 96.336 31.1866 95.9307 31.5386 95.6C31.8906 95.2693 32.3013 95.0133 32.7706 94.832C33.24 94.6507 33.7413 94.56 34.2746 94.56C34.8506 94.56 35.3626 94.6613 35.8106 94.864C36.2693 95.056 36.6533 95.328 36.9626 95.68C37.272 96.0213 37.5066 96.4267 37.6666 96.896C37.8373 97.3547 37.9226 97.8507 37.9226 98.384V98.8H32.3226C32.4186 99.3653 32.6586 99.7973 33.0426 100.096C33.4373 100.395 33.9333 100.544 34.5306 100.544C34.9573 100.544 35.352 100.469 35.7146 100.32C36.088 100.16 36.3973 99.9413 36.6426 99.664L37.7466 100.672C37.3733 101.141 36.8933 101.499 36.3066 101.744C35.72 101.989 35.0746 102.112 34.3706 102.112ZM34.1946 96.16C33.7253 96.16 33.3306 96.288 33.0106 96.544C32.7013 96.7893 32.488 97.1413 32.3706 97.6H36.0186C35.9546 97.1947 35.7626 96.8533 35.4426 96.576C35.1226 96.2987 34.7066 96.16 34.1946 96.16ZM40.8271 96.432H38.4751V94.688H45.1471V96.432H42.7951V102H40.8271V96.432ZM50.5221 94.688H52.5061V98.896L55.8981 94.688H57.4501V102H55.4661V97.552L51.8821 102H50.5221V94.688ZM68.5149 99.12H65.4749V102H63.4909V94.688H65.4749V97.376H68.5149V94.688H70.4989V102H68.5149V99.12ZM75.9175 102.112C75.3308 102.112 74.7922 102.021 74.3015 101.84C73.8215 101.659 73.4055 101.408 73.0535 101.088C72.7015 100.757 72.4295 100.368 72.2375 99.92C72.0455 99.4613 71.9495 98.9547 71.9495 98.4C71.9495 97.8133 72.0508 97.2853 72.2535 96.816C72.4562 96.336 72.7335 95.9307 73.0855 95.6C73.4375 95.2693 73.8482 95.0133 74.3175 94.832C74.7868 94.6507 75.2882 94.56 75.8215 94.56C76.3975 94.56 76.9095 94.6613 77.3575 94.864C77.8162 95.056 78.2002 95.328 78.5095 95.68C78.8188 96.0213 79.0535 96.4267 79.2135 96.896C79.3842 97.3547 79.4695 97.8507 79.4695 98.384V98.8H73.8695C73.9655 99.3653 74.2055 99.7973 74.5895 100.096C74.9842 100.395 75.4802 100.544 76.0775 100.544C76.5042 100.544 76.8988 100.469 77.2615 100.32C77.6348 100.16 77.9442 99.9413 78.1895 99.664L79.2935 100.672C78.9202 101.141 78.4402 101.499 77.8535 101.744C77.2668 101.989 76.6215 102.112 75.9175 102.112ZM75.7415 96.16C75.2722 96.16 74.8775 96.288 74.5575 96.544C74.2482 96.7893 74.0348 97.1413 73.9175 97.6H77.5655C77.5015 97.1947 77.3095 96.8533 76.9895 96.576C76.6695 96.2987 76.2535 96.16 75.7415 96.16ZM85.8046 94.688H87.5006L89.4366 98.928L91.2606 94.688H93.0046L94.2206 102H92.3646L91.6606 97.728L89.7726 102H88.9246L87.0206 97.808L86.3326 102H84.5726L85.8046 94.688ZM98.9953 102.112C98.4193 102.112 97.8859 102.021 97.3953 101.84C96.9153 101.659 96.4993 101.403 96.1473 101.072C95.8059 100.731 95.5339 100.331 95.3313 99.872C95.1393 99.4133 95.0433 98.9013 95.0433 98.336C95.0433 97.7707 95.1393 97.2587 95.3313 96.8C95.5339 96.3307 95.8113 95.9307 96.1633 95.6C96.5153 95.2693 96.9313 95.0133 97.4113 94.832C97.9019 94.6507 98.4299 94.56 98.9953 94.56C99.5713 94.56 100.099 94.6507 100.579 94.832C101.07 95.0133 101.491 95.2747 101.843 95.616C102.195 95.9467 102.467 96.3467 102.659 96.816C102.851 97.2747 102.947 97.7813 102.947 98.336C102.947 98.912 102.846 99.4347 102.643 99.904C102.441 100.363 102.163 100.757 101.811 101.088C101.459 101.408 101.043 101.659 100.563 101.84C100.083 102.021 99.5606 102.112 98.9953 102.112ZM98.9953 100.432C99.5819 100.432 100.041 100.235 100.371 99.84C100.702 99.4453 100.867 98.944 100.867 98.336C100.867 97.728 100.707 97.232 100.387 96.848C100.067 96.4533 99.6033 96.256 98.9953 96.256C98.3979 96.256 97.9339 96.4533 97.6033 96.848C97.2726 97.2427 97.1073 97.7387 97.1073 98.336C97.1073 98.624 97.1499 98.896 97.2353 99.152C97.3206 99.408 97.4433 99.632 97.6033 99.824C97.7633 100.016 97.9606 100.165 98.1953 100.272C98.4299 100.379 98.6966 100.432 98.9953 100.432ZM103.203 101.728L105.315 98.096L103.619 94.96V94.688H105.603L106.995 97.408H107.795V94.688H109.763V97.408H110.547L111.955 94.688H113.875V94.96L112.211 98.064L114.371 101.728V102H112.259L110.515 98.912H109.763V102H107.795V98.912H107.027L105.299 102H103.203V101.728ZM118.558 102.112C117.971 102.112 117.433 102.021 116.942 101.84C116.462 101.659 116.046 101.408 115.694 101.088C115.342 100.757 115.07 100.368 114.878 99.92C114.686 99.4613 114.59 98.9547 114.59 98.4C114.59 97.8133 114.691 97.2853 114.894 96.816C115.097 96.336 115.374 95.9307 115.726 95.6C116.078 95.2693 116.489 95.0133 116.958 94.832C117.427 94.6507 117.929 94.56 118.462 94.56C119.038 94.56 119.55 94.6613 119.998 94.864C120.457 95.056 120.841 95.328 121.15 95.68C121.459 96.0213 121.694 96.4267 121.854 96.896C122.025 97.3547 122.11 97.8507 122.11 98.384V98.8H116.51C116.606 99.3653 116.846 99.7973 117.23 100.096C117.625 100.395 118.121 100.544 118.718 100.544C119.145 100.544 119.539 100.469 119.902 100.32C120.275 100.16 120.585 99.9413 120.83 99.664L121.934 100.672C121.561 101.141 121.081 101.499 120.494 101.744C119.907 101.989 119.262 102.112 118.558 102.112ZM118.382 96.16C117.913 96.16 117.518 96.288 117.198 96.544C116.889 96.7893 116.675 97.1413 116.558 97.6H120.206C120.142 97.1947 119.95 96.8533 119.63 96.576C119.31 96.2987 118.894 96.16 118.382 96.16ZM125.015 96.432H122.663V94.688H129.335V96.432H126.983V102H125.015V96.432ZM138.358 102.144C136.939 102.144 135.904 101.701 135.254 100.816C134.603 99.9307 134.278 98.6027 134.278 96.832C134.278 95.808 134.384 94.9333 134.598 94.208C134.811 93.472 135.115 92.8747 135.51 92.416C135.915 91.9467 136.4 91.6053 136.966 91.392C137.542 91.168 138.182 91.056 138.886 91.056C139.291 91.056 139.6 91.0187 139.814 90.944C140.027 90.8587 140.187 90.6987 140.294 90.464L141.862 90.928C141.776 91.2373 141.67 91.504 141.542 91.728C141.424 91.9413 141.259 92.1227 141.046 92.272C140.832 92.4213 140.56 92.5387 140.23 92.624C139.899 92.6987 139.478 92.752 138.966 92.784C138.475 92.816 138.048 92.88 137.686 92.976C137.334 93.072 137.035 93.2427 136.79 93.488C136.555 93.7227 136.368 94.0533 136.23 94.48C136.102 94.9067 136.016 95.4613 135.974 96.144C136.283 95.568 136.678 95.168 137.158 94.944C137.648 94.7093 138.182 94.592 138.758 94.592C139.291 94.592 139.771 94.6773 140.198 94.848C140.635 95.0187 141.003 95.264 141.302 95.584C141.6 95.904 141.83 96.288 141.99 96.736C142.15 97.1733 142.23 97.664 142.23 98.208C142.23 98.8053 142.134 99.3493 141.942 99.84C141.75 100.32 141.483 100.731 141.142 101.072C140.8 101.413 140.39 101.68 139.91 101.872C139.44 102.053 138.923 102.144 138.358 102.144ZM138.31 100.4C138.854 100.4 139.291 100.219 139.622 99.856C139.963 99.4827 140.134 98.9707 140.134 98.32C140.134 97.68 139.974 97.1787 139.654 96.816C139.344 96.4427 138.902 96.256 138.326 96.256C137.76 96.256 137.312 96.4373 136.982 96.8C136.651 97.1627 136.486 97.6693 136.486 98.32C136.486 98.96 136.651 99.4667 136.982 99.84C137.312 100.213 137.755 100.4 138.31 100.4ZM146.766 96.8C147.801 96.8 148.585 97.0133 149.118 97.44C149.662 97.8667 149.934 98.512 149.934 99.376C149.934 100.24 149.652 100.896 149.086 101.344C148.532 101.781 147.705 102 146.606 102H143.678V94.688H145.662V96.8H146.766ZM150.638 94.688H152.622V102H150.638V94.688ZM146.398 100.448C146.878 100.448 147.246 100.379 147.502 100.24C147.769 100.091 147.902 99.8027 147.902 99.376C147.902 98.9813 147.78 98.7093 147.534 98.56C147.3 98.4107 146.942 98.336 146.462 98.336H145.662V100.448H146.398ZM156.187 96.432H153.835V94.688H160.507V96.432H158.155V102H156.187V96.432ZM161.725 94.688H163.709V96.8H165.005C166.04 96.8 166.824 97.0133 167.357 97.44C167.901 97.8667 168.173 98.512 168.173 99.376C168.173 100.24 167.891 100.896 167.325 101.344C166.771 101.781 165.944 102 164.845 102H161.725V94.688ZM164.653 100.448C165.133 100.448 165.501 100.379 165.757 100.24C166.013 100.091 166.141 99.8027 166.141 99.376C166.141 98.9813 166.024 98.7093 165.789 98.56C165.555 98.4107 165.197 98.336 164.717 98.336H163.709V100.448H164.653ZM174.528 105.6L175.76 102.08L172.768 95.056V94.688H174.752L176.688 99.472L178.384 94.688H180.176L180.16 95.056L176.32 105.84H174.528V105.6ZM186.102 94.688H187.798L189.734 98.928L191.558 94.688H193.302L194.518 102H192.661L191.958 97.728L190.07 102H189.222L187.318 97.808L186.63 102H184.87L186.102 94.688ZM198.748 102.112C198.311 102.112 197.884 102.021 197.468 101.84C197.063 101.659 196.7 101.403 196.38 101.072C196.071 100.741 195.82 100.347 195.628 99.888C195.436 99.4187 195.34 98.9013 195.34 98.336C195.34 97.7707 195.431 97.2587 195.612 96.8C195.804 96.3307 196.055 95.9307 196.364 95.6C196.684 95.2693 197.047 95.0133 197.452 94.832C197.868 94.6507 198.3 94.56 198.748 94.56C199.292 94.56 199.772 94.6667 200.188 94.88C200.615 95.0933 200.951 95.3547 201.196 95.664V94.688H203.068V102H201.196V101.008C200.929 101.339 200.583 101.605 200.156 101.808C199.729 102.011 199.26 102.112 198.748 102.112ZM199.276 100.416C199.82 100.416 200.252 100.229 200.572 99.856C200.903 99.472 201.073 98.976 201.084 98.368V98.24C201.084 97.6747 200.919 97.2107 200.588 96.848C200.257 96.4853 199.82 96.304 199.276 96.304C199.031 96.304 198.796 96.3467 198.572 96.432C198.348 96.5173 198.151 96.6453 197.98 96.816C197.809 96.9867 197.676 97.2 197.58 97.456C197.484 97.712 197.436 98.0053 197.436 98.336C197.436 98.976 197.607 99.4827 197.948 99.856C198.3 100.229 198.743 100.416 199.276 100.416ZM213.568 94.688H215.552V102H204.96V94.688H206.944V100.256H209.28V94.688H211.248V100.256H213.568V94.688ZM217.444 94.688H219.428V98.896L222.82 94.688H224.372V102H222.388V97.552L218.804 102H217.444V94.688ZM231.281 99.12H228.241V102H226.257V94.688H228.241V97.376H231.281V94.688H233.265V102H231.281V99.12ZM238.235 96.8C239.27 96.8 240.054 97.0133 240.587 97.44C241.131 97.8667 241.403 98.512 241.403 99.376C241.403 100.24 241.12 100.896 240.555 101.344C240 101.781 239.174 102 238.075 102H235.147V94.688H237.131V96.8H238.235ZM242.107 94.688H244.091V102H242.107V94.688ZM237.867 100.448C238.347 100.448 238.715 100.379 238.971 100.24C239.238 100.091 239.371 99.8027 239.371 99.376C239.371 98.9813 239.248 98.7093 239.003 98.56C238.768 98.4107 238.411 98.336 237.931 98.336H237.131V100.448H237.867ZM247.063 102.16C246.69 102.16 246.402 102.053 246.199 101.84C246.007 101.616 245.911 101.349 245.911 101.04C245.911 100.709 246.007 100.432 246.199 100.208C246.391 99.984 246.679 99.872 247.063 99.872C247.447 99.872 247.741 99.984 247.943 100.208C248.146 100.432 248.247 100.709 248.247 101.04C248.247 101.349 248.141 101.616 247.927 101.84C247.725 102.053 247.437 102.16 247.063 102.16Z" fill="black"/>
<defs>
<linearGradient id="paint0_linear_102_9" x1="371.611" y1="79.2192" x2="-58.9877" y2="79.2192" gradientUnits="userSpaceOnUse">
<stop stop-color="white" stop-opacity="0.64"/>
<stop offset="0.325" stop-color="#2736C1" stop-opacity="0.72"/>
<stop offset="1" stop-color="#091FEA"/>
</linearGradient>
</defs>
</svg>
