<svg width="365" height="104" viewBox="0 0 365 104" fill="none" xmlns="http://www.w3.org/2000/svg">
<path d="M41.9646 47.4448C45.67 43.7003 47.7485 38.6451 47.7485 33.3771V20C47.7485 8.9543 56.7028 0 67.7485 0H345C356.046 0 365 8.9543 365 20V41.6V84C365 95.0457 356.046 104 345 104L33.9282 104C16.1607 104 7.21461 82.5615 19.7121 69.9322L41.9646 47.4448Z" fill="url(#paint0_linear_106_15)" fill-opacity="0.76"/>
<circle cx="2.15513" cy="2.15513" r="2.15513" transform="matrix(1 0 0 -1 205 86.3101)" fill="black"/>
<circle cx="2.15513" cy="2.15513" r="2.15513" transform="matrix(1 0 0 -1 217.452 86.3101)" fill="black"/>
<circle cx="2.15513" cy="2.15513" r="2.15513" transform="matrix(1 0 0 -1 229.904 86.3101)" fill="black"/>
<circle cx="2.15513" cy="2.15513" r="2.15513" transform="matrix(1 0 0 -1 242.355 86.3101)" fill="black"/>
<path d="M80.312 17.8H82.456V25.112L88.312 17.8H89.672V29H87.512V21.72L81.672 29H80.312V17.8ZM96.8586 26.12H93.8186V29H91.8346V21.688H93.8186V24.376H96.8586V21.688H98.8426V29H96.8586V26.12ZM104.245 29.112C103.669 29.112 103.136 29.0213 102.645 28.84C102.165 28.6587 101.749 28.4027 101.397 28.072C101.056 27.7307 100.784 27.3307 100.581 26.872C100.389 26.4133 100.293 25.9013 100.293 25.336C100.293 24.7707 100.389 24.2587 100.581 23.8C100.784 23.3307 101.061 22.9307 101.413 22.6C101.765 22.2693 102.181 22.0133 102.661 21.832C103.152 21.6507 103.68 21.56 104.245 21.56C104.821 21.56 105.349 21.6507 105.829 21.832C106.32 22.0133 106.741 22.2747 107.093 22.616C107.445 22.9467 107.717 23.3467 107.909 23.816C108.101 24.2747 108.197 24.7813 108.197 25.336C108.197 25.912 108.096 26.4347 107.893 26.904C107.691 27.3627 107.413 27.7573 107.061 28.088C106.709 28.408 106.293 28.6587 105.813 28.84C105.333 29.0213 104.811 29.112 104.245 29.112ZM104.245 27.432C104.832 27.432 105.291 27.2347 105.621 26.84C105.952 26.4453 106.117 25.944 106.117 25.336C106.117 24.728 105.957 24.232 105.637 23.848C105.317 23.4533 104.853 23.256 104.245 23.256C103.648 23.256 103.184 23.4533 102.853 23.848C102.523 24.2427 102.357 24.7387 102.357 25.336C102.357 25.624 102.4 25.896 102.485 26.152C102.571 26.408 102.693 26.632 102.853 26.824C103.013 27.016 103.211 27.1653 103.445 27.272C103.68 27.3787 103.947 27.432 104.245 27.432ZM109.632 21.688H114.704V23.432H111.616V29H109.632V21.688ZM114.784 27.256H115.664C115.941 26.68 116.149 26.04 116.288 25.336C116.426 24.6213 116.496 23.7787 116.496 22.808V21.688H122.192V27.256H123.312V30.632H121.696V29H116.416V30.632H114.784V27.256ZM118.272 23.48C118.272 24.9627 118.053 26.2213 117.616 27.256H120.208V23.432H118.272V23.48ZM127.264 29.112C126.826 29.112 126.4 29.0213 125.984 28.84C125.578 28.6587 125.216 28.4027 124.896 28.072C124.586 27.7413 124.336 27.3467 124.144 26.888C123.952 26.4187 123.856 25.9013 123.856 25.336C123.856 24.7707 123.946 24.2587 124.128 23.8C124.32 23.3307 124.57 22.9307 124.88 22.6C125.2 22.2693 125.562 22.0133 125.968 21.832C126.384 21.6507 126.816 21.56 127.264 21.56C127.808 21.56 128.288 21.6667 128.704 21.88C129.13 22.0933 129.466 22.3547 129.712 22.664V21.688H131.584V29H129.712V28.008C129.445 28.3387 129.098 28.6053 128.672 28.808C128.245 29.0107 127.776 29.112 127.264 29.112ZM127.792 27.416C128.336 27.416 128.768 27.2293 129.088 26.856C129.418 26.472 129.589 25.976 129.6 25.368V25.24C129.6 24.6747 129.434 24.2107 129.104 23.848C128.773 23.4853 128.336 23.304 127.792 23.304C127.546 23.304 127.312 23.3467 127.088 23.432C126.864 23.5173 126.666 23.6453 126.496 23.816C126.325 23.9867 126.192 24.2 126.096 24.456C126 24.712 125.952 25.0053 125.952 25.336C125.952 25.976 126.122 26.4827 126.464 26.856C126.816 27.2293 127.258 27.416 127.792 27.416ZM143.303 21.688H150.183V29H148.215V23.432H145.287V29H143.303V21.688ZM152.085 32.84V21.688H153.957V22.664C154.202 22.3547 154.533 22.0933 154.949 21.88C155.375 21.6667 155.861 21.56 156.405 21.56C156.853 21.56 157.279 21.6507 157.685 21.832C158.101 22.0133 158.463 22.2693 158.773 22.6C159.093 22.9307 159.343 23.3307 159.525 23.8C159.717 24.2587 159.813 24.7707 159.813 25.336C159.813 25.9013 159.717 26.4187 159.525 26.888C159.333 27.3467 159.077 27.7413 158.757 28.072C158.447 28.4027 158.085 28.6587 157.669 28.84C157.263 29.0213 156.842 29.112 156.405 29.112C155.925 29.112 155.482 29.0267 155.077 28.856C154.671 28.6747 154.335 28.4347 154.069 28.136V32.84H152.085ZM155.877 23.304C155.333 23.304 154.901 23.48 154.581 23.832C154.261 24.1733 154.09 24.616 154.069 25.16V25.368C154.079 25.976 154.245 26.472 154.565 26.856C154.895 27.2293 155.333 27.416 155.877 27.416C156.41 27.416 156.847 27.2293 157.189 26.856C157.541 26.4827 157.717 25.976 157.717 25.336C157.717 25.0053 157.663 24.712 157.557 24.456C157.461 24.2 157.327 23.9867 157.157 23.816C156.997 23.6453 156.805 23.5173 156.581 23.432C156.357 23.3467 156.122 23.304 155.877 23.304ZM164.808 29.112C164.221 29.112 163.683 29.0213 163.192 28.84C162.712 28.6587 162.296 28.408 161.944 28.088C161.592 27.7573 161.32 27.368 161.128 26.92C160.936 26.4613 160.84 25.9547 160.84 25.4C160.84 24.8133 160.941 24.2853 161.144 23.816C161.347 23.336 161.624 22.9307 161.976 22.6C162.328 22.2693 162.739 22.0133 163.208 21.832C163.677 21.6507 164.179 21.56 164.712 21.56C165.288 21.56 165.8 21.6613 166.248 21.864C166.707 22.056 167.091 22.328 167.4 22.68C167.709 23.0213 167.944 23.4267 168.104 23.896C168.275 24.3547 168.36 24.8507 168.36 25.384V25.8H162.76C162.856 26.3653 163.096 26.7973 163.48 27.096C163.875 27.3947 164.371 27.544 164.968 27.544C165.395 27.544 165.789 27.4693 166.152 27.32C166.525 27.16 166.835 26.9413 167.08 26.664L168.184 27.672C167.811 28.1413 167.331 28.4987 166.744 28.744C166.157 28.9893 165.512 29.112 164.808 29.112ZM164.632 23.16C164.163 23.16 163.768 23.288 163.448 23.544C163.139 23.7893 162.925 24.1413 162.808 24.6H166.456C166.392 24.1947 166.2 23.8533 165.88 23.576C165.56 23.2987 165.144 23.16 164.632 23.16ZM168.815 27.256H169.695C169.972 26.68 170.18 26.04 170.319 25.336C170.457 24.6213 170.527 23.7787 170.527 22.808V21.688H176.223V27.256H177.343V30.632H175.727V29H170.447V30.632H168.815V27.256ZM172.303 23.48C172.303 24.9627 172.084 26.2213 171.647 27.256H174.239V23.432H172.303V23.48ZM181.727 29.112C181.14 29.112 180.612 29.0213 180.143 28.84C179.674 28.6587 179.268 28.408 178.927 28.088C178.596 27.7573 178.34 27.3627 178.159 26.904C177.978 26.4453 177.887 25.9333 177.887 25.368C177.887 24.7707 177.983 24.2373 178.175 23.768C178.378 23.288 178.65 22.888 178.991 22.568C179.332 22.2373 179.738 21.9867 180.207 21.816C180.676 21.6453 181.183 21.56 181.727 21.56C182.346 21.56 182.906 21.6667 183.407 21.88C183.919 22.0933 184.319 22.36 184.607 22.68L183.583 24.024C183.37 23.7893 183.119 23.6027 182.831 23.464C182.554 23.3253 182.239 23.256 181.887 23.256C181.29 23.256 180.815 23.448 180.463 23.832C180.122 24.216 179.951 24.7067 179.951 25.304C179.951 25.9227 180.127 26.4347 180.479 26.84C180.842 27.2347 181.327 27.432 181.935 27.432C182.287 27.432 182.602 27.3627 182.879 27.224C183.156 27.0747 183.402 26.8827 183.615 26.648L184.783 27.8C184.463 28.216 184.036 28.5413 183.503 28.776C182.98 29 182.388 29.112 181.727 29.112ZM187.655 23.432H185.303V21.688H191.975V23.432H189.623V29H187.655V23.432ZM195.889 29.112C195.451 29.112 195.025 29.0213 194.609 28.84C194.203 28.6587 193.841 28.4027 193.521 28.072C193.211 27.7413 192.961 27.3467 192.769 26.888C192.577 26.4187 192.481 25.9013 192.481 25.336C192.481 24.7707 192.571 24.2587 192.753 23.8C192.945 23.3307 193.195 22.9307 193.505 22.6C193.825 22.2693 194.187 22.0133 194.593 21.832C195.009 21.6507 195.441 21.56 195.889 21.56C196.433 21.56 196.913 21.6667 197.329 21.88C197.755 22.0933 198.091 22.3547 198.337 22.664V21.688H200.209V29H198.337V28.008C198.07 28.3387 197.723 28.6053 197.297 28.808C196.87 29.0107 196.401 29.112 195.889 29.112ZM196.417 27.416C196.961 27.416 197.393 27.2293 197.713 26.856C198.043 26.472 198.214 25.976 198.225 25.368V25.24C198.225 24.6747 198.059 24.2107 197.729 23.848C197.398 23.4853 196.961 23.304 196.417 23.304C196.171 23.304 195.937 23.3467 195.713 23.432C195.489 23.5173 195.291 23.6453 195.121 23.816C194.95 23.9867 194.817 24.2 194.721 24.456C194.625 24.712 194.577 25.0053 194.577 25.336C194.577 25.976 194.747 26.4827 195.089 26.856C195.441 27.2293 195.883 27.416 196.417 27.416ZM202.1 21.688H206.052C206.81 21.688 207.38 21.8533 207.764 22.184C208.148 22.504 208.34 22.9253 208.34 23.448C208.34 23.8427 208.244 24.168 208.052 24.424C207.86 24.68 207.61 24.8613 207.3 24.968C207.823 25.0427 208.25 25.224 208.58 25.512C208.911 25.8 209.076 26.232 209.076 26.808C209.076 27.512 208.815 28.056 208.292 28.44C207.78 28.8133 207.028 29 206.036 29H202.1V21.688ZM204.084 25.704V27.544H205.604C206.106 27.544 206.463 27.4693 206.676 27.32C206.89 27.16 206.996 26.9253 206.996 26.616C206.996 26.296 206.884 26.0667 206.66 25.928C206.436 25.7787 206.1 25.704 205.652 25.704H204.084ZM204.084 23.144V24.552H205.46C206.143 24.552 206.484 24.312 206.484 23.832C206.484 23.3733 206.138 23.144 205.444 23.144H204.084ZM210.329 29.16C210.212 29.16 210.105 29.1547 210.009 29.144C209.924 29.1333 209.849 29.1227 209.785 29.112V27.208C209.892 27.2293 209.977 27.24 210.041 27.24C210.222 27.24 210.377 27.176 210.505 27.048C210.633 26.9093 210.734 26.6907 210.809 26.392C210.894 26.0827 210.953 25.6827 210.985 25.192C211.028 24.7013 211.049 24.104 211.049 23.4V21.688H216.601V29H214.633V23.432H212.873V24.296C212.873 25.2133 212.814 25.9813 212.697 26.6C212.59 27.2187 212.425 27.72 212.201 28.104C211.988 28.4773 211.721 28.7493 211.401 28.92C211.092 29.08 210.734 29.16 210.329 29.16ZM222.043 29.112C221.456 29.112 220.917 29.0213 220.427 28.84C219.947 28.6587 219.531 28.408 219.179 28.088C218.827 27.7573 218.555 27.368 218.363 26.92C218.171 26.4613 218.075 25.9547 218.075 25.4C218.075 24.8133 218.176 24.2853 218.379 23.816C218.581 23.336 218.859 22.9307 219.211 22.6C219.563 22.2693 219.973 22.0133 220.443 21.832C220.912 21.6507 221.413 21.56 221.947 21.56C222.523 21.56 223.035 21.6613 223.483 21.864C223.941 22.056 224.325 22.328 224.635 22.68C224.944 23.0213 225.179 23.4267 225.339 23.896C225.509 24.3547 225.595 24.8507 225.595 25.384V25.8H219.995C220.091 26.3653 220.331 26.7973 220.715 27.096C221.109 27.3947 221.605 27.544 222.203 27.544C222.629 27.544 223.024 27.4693 223.387 27.32C223.76 27.16 224.069 26.9413 224.315 26.664L225.419 27.672C225.045 28.1413 224.565 28.4987 223.979 28.744C223.392 28.9893 222.747 29.112 222.043 29.112ZM221.867 23.16C221.397 23.16 221.003 23.288 220.683 23.544C220.373 23.7893 220.16 24.1413 220.043 24.6H223.691C223.627 24.1947 223.435 23.8533 223.115 23.576C222.795 23.2987 222.379 23.16 221.867 23.16ZM232.077 26.12H229.037V29H227.053V21.688H229.037V24.376H232.077V21.688H234.061V29H232.077V26.12ZM235.944 21.688H237.928V25.896L241.32 21.688H242.872V29H240.888V24.552L237.304 29H235.944V21.688ZM244.309 28.728L245.861 26.408C245.007 26.0027 244.581 25.2827 244.581 24.248C244.581 23.4053 244.853 22.7707 245.397 22.344C245.951 21.9067 246.81 21.688 247.973 21.688H251.141V29H249.157V26.76H247.909L246.469 29H244.309V28.728ZM249.157 25.352V23.224H248.101C247.589 23.224 247.21 23.2987 246.965 23.448C246.719 23.5867 246.597 23.8587 246.597 24.264C246.597 24.6693 246.703 24.952 246.917 25.112C247.141 25.272 247.519 25.352 248.053 25.352H249.157ZM262.85 32.84V21.688H264.722V22.664C264.968 22.3547 265.298 22.0933 265.714 21.88C266.141 21.6667 266.626 21.56 267.17 21.56C267.618 21.56 268.045 21.6507 268.45 21.832C268.866 22.0133 269.229 22.2693 269.538 22.6C269.858 22.9307 270.109 23.3307 270.29 23.8C270.482 24.2587 270.578 24.7707 270.578 25.336C270.578 25.9013 270.482 26.4187 270.29 26.888C270.098 27.3467 269.842 27.7413 269.522 28.072C269.213 28.4027 268.85 28.6587 268.434 28.84C268.029 29.0213 267.608 29.112 267.17 29.112C266.69 29.112 266.248 29.0267 265.842 28.856C265.437 28.6747 265.101 28.4347 264.834 28.136V32.84H262.85ZM266.642 23.304C266.098 23.304 265.666 23.48 265.346 23.832C265.026 24.1733 264.856 24.616 264.834 25.16V25.368C264.845 25.976 265.01 26.472 265.33 26.856C265.661 27.2293 266.098 27.416 266.642 27.416C267.176 27.416 267.613 27.2293 267.954 26.856C268.306 26.4827 268.482 25.976 268.482 25.336C268.482 25.0053 268.429 24.712 268.322 24.456C268.226 24.2 268.093 23.9867 267.922 23.816C267.762 23.6453 267.57 23.5173 267.346 23.432C267.122 23.3467 266.888 23.304 266.642 23.304ZM275.574 29.112C274.987 29.112 274.448 29.0213 273.958 28.84C273.478 28.6587 273.062 28.408 272.71 28.088C272.358 27.7573 272.086 27.368 271.894 26.92C271.702 26.4613 271.606 25.9547 271.606 25.4C271.606 24.8133 271.707 24.2853 271.91 23.816C272.112 23.336 272.39 22.9307 272.742 22.6C273.094 22.2693 273.504 22.0133 273.974 21.832C274.443 21.6507 274.944 21.56 275.478 21.56C276.054 21.56 276.566 21.6613 277.014 21.864C277.472 22.056 277.856 22.328 278.166 22.68C278.475 23.0213 278.71 23.4267 278.87 23.896C279.04 24.3547 279.126 24.8507 279.126 25.384V25.8H273.526C273.622 26.3653 273.862 26.7973 274.246 27.096C274.64 27.3947 275.136 27.544 275.734 27.544C276.16 27.544 276.555 27.4693 276.918 27.32C277.291 27.16 277.6 26.9413 277.846 26.664L278.95 27.672C278.576 28.1413 278.096 28.4987 277.51 28.744C276.923 28.9893 276.278 29.112 275.574 29.112ZM275.398 23.16C274.928 23.16 274.534 23.288 274.214 23.544C273.904 23.7893 273.691 24.1413 273.574 24.6H277.222C277.158 24.1947 276.966 23.8533 276.646 23.576C276.326 23.2987 275.91 23.16 275.398 23.16ZM284.233 29.144C282.814 29.144 281.779 28.7013 281.129 27.816C280.478 26.9307 280.153 25.6027 280.153 23.832C280.153 22.808 280.259 21.9333 280.473 21.208C280.686 20.472 280.99 19.8747 281.385 19.416C281.79 18.9467 282.275 18.6053 282.841 18.392C283.417 18.168 284.057 18.056 284.761 18.056C285.166 18.056 285.475 18.0187 285.689 17.944C285.902 17.8587 286.062 17.6987 286.169 17.464L287.737 17.928C287.651 18.2373 287.545 18.504 287.417 18.728C287.299 18.9413 287.134 19.1227 286.921 19.272C286.707 19.4213 286.435 19.5387 286.105 19.624C285.774 19.6987 285.353 19.752 284.841 19.784C284.35 19.816 283.923 19.88 283.561 19.976C283.209 20.072 282.91 20.2427 282.665 20.488C282.43 20.7227 282.243 21.0533 282.105 21.48C281.977 21.9067 281.891 22.4613 281.849 23.144C282.158 22.568 282.553 22.168 283.033 21.944C283.523 21.7093 284.057 21.592 284.633 21.592C285.166 21.592 285.646 21.6773 286.073 21.848C286.51 22.0187 286.878 22.264 287.177 22.584C287.475 22.904 287.705 23.288 287.865 23.736C288.025 24.1733 288.105 24.664 288.105 25.208C288.105 25.8053 288.009 26.3493 287.817 26.84C287.625 27.32 287.358 27.7307 287.017 28.072C286.675 28.4133 286.265 28.68 285.785 28.872C285.315 29.0533 284.798 29.144 284.233 29.144ZM284.185 27.4C284.729 27.4 285.166 27.2187 285.497 26.856C285.838 26.4827 286.009 25.9707 286.009 25.32C286.009 24.68 285.849 24.1787 285.529 23.816C285.219 23.4427 284.777 23.256 284.201 23.256C283.635 23.256 283.187 23.4373 282.857 23.8C282.526 24.1627 282.361 24.6693 282.361 25.32C282.361 25.96 282.526 26.4667 282.857 26.84C283.187 27.2133 283.63 27.4 284.185 27.4ZM293.089 29.112C292.503 29.112 291.964 29.0213 291.473 28.84C290.993 28.6587 290.577 28.408 290.225 28.088C289.873 27.7573 289.601 27.368 289.409 26.92C289.217 26.4613 289.121 25.9547 289.121 25.4C289.121 24.8133 289.223 24.2853 289.425 23.816C289.628 23.336 289.905 22.9307 290.257 22.6C290.609 22.2693 291.02 22.0133 291.489 21.832C291.959 21.6507 292.46 21.56 292.993 21.56C293.569 21.56 294.081 21.6613 294.529 21.864C294.988 22.056 295.372 22.328 295.681 22.68C295.991 23.0213 296.225 23.4267 296.385 23.896C296.556 24.3547 296.641 24.8507 296.641 25.384V25.8H291.041C291.137 26.3653 291.377 26.7973 291.761 27.096C292.156 27.3947 292.652 27.544 293.249 27.544C293.676 27.544 294.071 27.4693 294.433 27.32C294.807 27.16 295.116 26.9413 295.361 26.664L296.465 27.672C296.092 28.1413 295.612 28.4987 295.025 28.744C294.439 28.9893 293.793 29.112 293.089 29.112ZM292.913 23.16C292.444 23.16 292.049 23.288 291.729 23.544C291.42 23.7893 291.207 24.1413 291.089 24.6H294.737C294.673 24.1947 294.481 23.8533 294.161 23.576C293.841 23.2987 293.425 23.16 292.913 23.16ZM291.249 20.376C290.908 20.376 290.625 20.2747 290.401 20.072C290.188 19.8587 290.081 19.592 290.081 19.272C290.081 18.9413 290.188 18.68 290.401 18.488C290.625 18.2853 290.908 18.184 291.249 18.184C291.591 18.184 291.863 18.2853 292.065 18.488C292.268 18.68 292.369 18.9413 292.369 19.272C292.369 19.592 292.268 19.8587 292.065 20.072C291.863 20.2747 291.591 20.376 291.249 20.376ZM294.577 20.376C294.236 20.376 293.959 20.2747 293.745 20.072C293.532 19.8587 293.425 19.592 293.425 19.272C293.425 18.9413 293.532 18.68 293.745 18.488C293.959 18.2853 294.236 18.184 294.577 18.184C294.929 18.184 295.207 18.2853 295.409 18.488C295.612 18.68 295.713 18.9413 295.713 19.272C295.713 19.592 295.612 19.8587 295.409 20.072C295.207 20.2747 294.929 20.376 294.577 20.376ZM303.124 26.12H300.084V29H298.1V21.688H300.084V24.376H303.124V21.688H305.108V29H303.124V26.12ZM306.991 21.688H308.975V24.376H309.743L311.503 21.688H313.567V21.96L311.391 25.016L314.111 28.728V29H311.903L309.695 25.88H308.975V29H306.991V21.688ZM317.733 29.112C317.295 29.112 316.869 29.0213 316.453 28.84C316.047 28.6587 315.685 28.4027 315.365 28.072C315.055 27.7413 314.805 27.3467 314.613 26.888C314.421 26.4187 314.325 25.9013 314.325 25.336C314.325 24.7707 314.415 24.2587 314.597 23.8C314.789 23.3307 315.039 22.9307 315.349 22.6C315.669 22.2693 316.031 22.0133 316.437 21.832C316.853 21.6507 317.285 21.56 317.733 21.56C318.277 21.56 318.757 21.6667 319.173 21.88C319.599 22.0933 319.935 22.3547 320.181 22.664V21.688H322.053V29H320.181V28.008C319.914 28.3387 319.567 28.6053 319.141 28.808C318.714 29.0107 318.245 29.112 317.733 29.112ZM318.261 27.416C318.805 27.416 319.237 27.2293 319.557 26.856C319.887 26.472 320.058 25.976 320.069 25.368V25.24C320.069 24.6747 319.903 24.2107 319.573 23.848C319.242 23.4853 318.805 23.304 318.261 23.304C318.015 23.304 317.781 23.3467 317.557 23.432C317.333 23.5173 317.135 23.6453 316.965 23.816C316.794 23.9867 316.661 24.2 316.565 24.456C316.469 24.712 316.421 25.0053 316.421 25.336C316.421 25.976 316.591 26.4827 316.933 26.856C317.285 27.2293 317.727 27.416 318.261 27.416ZM79.944 40.688H81.928V44.896L85.32 40.688H86.872V48H84.888V43.552L81.304 48H79.944V40.688ZM98.2922 45.12H95.2522V48H93.2682V40.688H95.2522V43.376H98.2922V40.688H100.276V48H98.2922V45.12ZM105.695 48.112C105.108 48.112 104.57 48.0213 104.079 47.84C103.599 47.6587 103.183 47.408 102.831 47.088C102.479 46.7573 102.207 46.368 102.015 45.92C101.823 45.4613 101.727 44.9547 101.727 44.4C101.727 43.8133 101.828 43.2853 102.031 42.816C102.234 42.336 102.511 41.9307 102.863 41.6C103.215 41.2693 103.626 41.0133 104.095 40.832C104.564 40.6507 105.066 40.56 105.599 40.56C106.175 40.56 106.687 40.6613 107.135 40.864C107.594 41.056 107.978 41.328 108.287 41.68C108.596 42.0213 108.831 42.4267 108.991 42.896C109.162 43.3547 109.247 43.8507 109.247 44.384V44.8H103.647C103.743 45.3653 103.983 45.7973 104.367 46.096C104.762 46.3947 105.258 46.544 105.855 46.544C106.282 46.544 106.676 46.4693 107.039 46.32C107.412 46.16 107.722 45.9413 107.967 45.664L109.071 46.672C108.698 47.1413 108.218 47.4987 107.631 47.744C107.044 47.9893 106.399 48.112 105.695 48.112ZM105.519 42.16C105.05 42.16 104.655 42.288 104.335 42.544C104.026 42.7893 103.812 43.1413 103.695 43.6H107.343C107.279 43.1947 107.087 42.8533 106.767 42.576C106.447 42.2987 106.031 42.16 105.519 42.16ZM110.706 40.688H112.69V44.896L116.082 40.688H117.634V48H115.65V43.552L112.066 48H110.706V40.688ZM114.162 39.744C113.831 39.744 113.516 39.7013 113.218 39.616C112.93 39.52 112.674 39.3813 112.45 39.2C112.236 39.0187 112.066 38.7893 111.938 38.512C111.81 38.224 111.74 37.8933 111.73 37.52H113.154C113.175 37.808 113.266 38.0427 113.426 38.224C113.586 38.4053 113.842 38.496 114.194 38.496C114.535 38.496 114.786 38.4107 114.946 38.24C115.116 38.0587 115.212 37.8187 115.234 37.52H116.642C116.631 37.8933 116.556 38.224 116.418 38.512C116.279 38.7893 116.098 39.0187 115.874 39.2C115.65 39.3813 115.388 39.52 115.09 39.616C114.791 39.7013 114.482 39.744 114.162 39.744ZM119.518 51.84V40.688H121.39V41.664C121.636 41.3547 121.966 41.0933 122.382 40.88C122.809 40.6667 123.294 40.56 123.838 40.56C124.286 40.56 124.713 40.6507 125.118 40.832C125.534 41.0133 125.897 41.2693 126.206 41.6C126.526 41.9307 126.777 42.3307 126.958 42.8C127.15 43.2587 127.246 43.7707 127.246 44.336C127.246 44.9013 127.15 45.4187 126.958 45.888C126.766 46.3467 126.51 46.7413 126.19 47.072C125.881 47.4027 125.518 47.6587 125.102 47.84C124.697 48.0213 124.276 48.112 123.838 48.112C123.358 48.112 122.916 48.0267 122.51 47.856C122.105 47.6747 121.769 47.4347 121.502 47.136V51.84H119.518ZM123.31 42.304C122.766 42.304 122.334 42.48 122.014 42.832C121.694 43.1733 121.524 43.616 121.502 44.16V44.368C121.513 44.976 121.678 45.472 121.998 45.856C122.329 46.2293 122.766 46.416 123.31 46.416C123.844 46.416 124.281 46.2293 124.622 45.856C124.974 45.4827 125.15 44.976 125.15 44.336C125.15 44.0053 125.097 43.712 124.99 43.456C124.894 43.2 124.761 42.9867 124.59 42.816C124.43 42.6453 124.238 42.5173 124.014 42.432C123.79 42.3467 123.556 42.304 123.31 42.304ZM132.226 48.112C131.65 48.112 131.116 48.0213 130.626 47.84C130.146 47.6587 129.73 47.4027 129.378 47.072C129.036 46.7307 128.764 46.3307 128.562 45.872C128.37 45.4133 128.274 44.9013 128.274 44.336C128.274 43.7707 128.37 43.2587 128.562 42.8C128.764 42.3307 129.042 41.9307 129.394 41.6C129.746 41.2693 130.162 41.0133 130.642 40.832C131.132 40.6507 131.66 40.56 132.226 40.56C132.802 40.56 133.33 40.6507 133.81 40.832C134.3 41.0133 134.722 41.2747 135.074 41.616C135.426 41.9467 135.698 42.3467 135.89 42.816C136.082 43.2747 136.178 43.7813 136.178 44.336C136.178 44.912 136.076 45.4347 135.874 45.904C135.671 46.3627 135.394 46.7573 135.042 47.088C134.69 47.408 134.274 47.6587 133.794 47.84C133.314 48.0213 132.791 48.112 132.226 48.112ZM132.226 46.432C132.812 46.432 133.271 46.2347 133.602 45.84C133.932 45.4453 134.098 44.944 134.098 44.336C134.098 43.728 133.938 43.232 133.618 42.848C133.298 42.4533 132.834 42.256 132.226 42.256C131.628 42.256 131.164 42.4533 130.834 42.848C130.503 43.2427 130.338 43.7387 130.338 44.336C130.338 44.624 130.38 44.896 130.466 45.152C130.551 45.408 130.674 45.632 130.834 45.824C130.994 46.016 131.191 46.1653 131.426 46.272C131.66 46.3787 131.927 46.432 132.226 46.432ZM141.02 48.112C140.433 48.112 139.905 48.0213 139.436 47.84C138.967 47.6587 138.561 47.408 138.22 47.088C137.889 46.7573 137.633 46.3627 137.452 45.904C137.271 45.4453 137.18 44.9333 137.18 44.368C137.18 43.7707 137.276 43.2373 137.468 42.768C137.671 42.288 137.943 41.888 138.284 41.568C138.625 41.2373 139.031 40.9867 139.5 40.816C139.969 40.6453 140.476 40.56 141.02 40.56C141.639 40.56 142.199 40.6667 142.7 40.88C143.212 41.0933 143.612 41.36 143.9 41.68L142.876 43.024C142.663 42.7893 142.412 42.6027 142.124 42.464C141.847 42.3253 141.532 42.256 141.18 42.256C140.583 42.256 140.108 42.448 139.756 42.832C139.415 43.216 139.244 43.7067 139.244 44.304C139.244 44.9227 139.42 45.4347 139.772 45.84C140.135 46.2347 140.62 46.432 141.228 46.432C141.58 46.432 141.895 46.3627 142.172 46.224C142.449 46.0747 142.695 45.8827 142.908 45.648L144.076 46.8C143.756 47.216 143.329 47.5413 142.796 47.776C142.273 48 141.681 48.112 141.02 48.112ZM148.726 48.112C148.139 48.112 147.601 48.0213 147.11 47.84C146.63 47.6587 146.214 47.408 145.862 47.088C145.51 46.7573 145.238 46.368 145.046 45.92C144.854 45.4613 144.758 44.9547 144.758 44.4C144.758 43.8133 144.859 43.2853 145.062 42.816C145.265 42.336 145.542 41.9307 145.894 41.6C146.246 41.2693 146.657 41.0133 147.126 40.832C147.595 40.6507 148.097 40.56 148.63 40.56C149.206 40.56 149.718 40.6613 150.166 40.864C150.625 41.056 151.009 41.328 151.318 41.68C151.627 42.0213 151.862 42.4267 152.022 42.896C152.193 43.3547 152.278 43.8507 152.278 44.384V44.8H146.678C146.774 45.3653 147.014 45.7973 147.398 46.096C147.793 46.3947 148.289 46.544 148.886 46.544C149.313 46.544 149.707 46.4693 150.07 46.32C150.443 46.16 150.753 45.9413 150.998 45.664L152.102 46.672C151.729 47.1413 151.249 47.4987 150.662 47.744C150.075 47.9893 149.43 48.112 148.726 48.112ZM148.55 42.16C148.081 42.16 147.686 42.288 147.366 42.544C147.057 42.7893 146.843 43.1413 146.726 43.6H150.374C150.31 43.1947 150.118 42.8533 149.798 42.576C149.478 42.2987 149.062 42.16 148.55 42.16ZM155.183 42.432H152.831V40.688H159.503V42.432H157.151V48H155.183V42.432ZM160.721 40.688H162.705V44.896L166.097 40.688H167.649V48H165.665V43.552L162.081 48H160.721V40.688ZM177.454 48.112C176.867 48.112 176.339 48.0213 175.87 47.84C175.4 47.6587 174.995 47.408 174.654 47.088C174.323 46.7573 174.067 46.3627 173.886 45.904C173.704 45.4453 173.614 44.9333 173.614 44.368C173.614 43.7707 173.71 43.2373 173.902 42.768C174.104 42.288 174.376 41.888 174.718 41.568C175.059 41.2373 175.464 40.9867 175.934 40.816C176.403 40.6453 176.91 40.56 177.454 40.56C178.072 40.56 178.632 40.6667 179.134 40.88C179.646 41.0933 180.046 41.36 180.334 41.68L179.31 43.024C179.096 42.7893 178.846 42.6027 178.558 42.464C178.28 42.3253 177.966 42.256 177.614 42.256C177.016 42.256 176.542 42.448 176.19 42.832C175.848 43.216 175.678 43.7067 175.678 44.304C175.678 44.9227 175.854 45.4347 176.206 45.84C176.568 46.2347 177.054 46.432 177.662 46.432C178.014 46.432 178.328 46.3627 178.606 46.224C178.883 46.0747 179.128 45.8827 179.342 45.648L180.51 46.8C180.19 47.216 179.763 47.5413 179.23 47.776C178.707 48 178.115 48.112 177.454 48.112ZM185.144 48.112C184.568 48.112 184.034 48.0213 183.544 47.84C183.064 47.6587 182.648 47.4027 182.296 47.072C181.954 46.7307 181.682 46.3307 181.48 45.872C181.288 45.4133 181.192 44.9013 181.192 44.336C181.192 43.7707 181.288 43.2587 181.48 42.8C181.682 42.3307 181.96 41.9307 182.312 41.6C182.664 41.2693 183.08 41.0133 183.56 40.832C184.05 40.6507 184.578 40.56 185.144 40.56C185.72 40.56 186.248 40.6507 186.728 40.832C187.218 41.0133 187.64 41.2747 187.992 41.616C188.344 41.9467 188.616 42.3467 188.808 42.816C189 43.2747 189.096 43.7813 189.096 44.336C189.096 44.912 188.994 45.4347 188.792 45.904C188.589 46.3627 188.312 46.7573 187.96 47.088C187.608 47.408 187.192 47.6587 186.712 47.84C186.232 48.0213 185.709 48.112 185.144 48.112ZM185.144 46.432C185.73 46.432 186.189 46.2347 186.52 45.84C186.85 45.4453 187.016 44.944 187.016 44.336C187.016 43.728 186.856 43.232 186.536 42.848C186.216 42.4533 185.752 42.256 185.144 42.256C184.546 42.256 184.082 42.4533 183.752 42.848C183.421 43.2427 183.256 43.7387 183.256 44.336C183.256 44.624 183.298 44.896 183.384 45.152C183.469 45.408 183.592 45.632 183.752 45.824C183.912 46.016 184.109 46.1653 184.344 46.272C184.578 46.3787 184.845 46.432 185.144 46.432ZM190.53 40.688H194.482C195.239 40.688 195.81 40.8533 196.194 41.184C196.578 41.504 196.77 41.9253 196.77 42.448C196.77 42.8427 196.674 43.168 196.482 43.424C196.29 43.68 196.039 43.8613 195.73 43.968C196.253 44.0427 196.679 44.224 197.01 44.512C197.341 44.8 197.506 45.232 197.506 45.808C197.506 46.512 197.245 47.056 196.722 47.44C196.21 47.8133 195.458 48 194.466 48H190.53V40.688ZM192.514 44.704V46.544H194.034C194.535 46.544 194.893 46.4693 195.106 46.32C195.319 46.16 195.426 45.9253 195.426 45.616C195.426 45.296 195.314 45.0667 195.09 44.928C194.866 44.7787 194.53 44.704 194.082 44.704H192.514ZM192.514 42.144V43.552H193.89C194.573 43.552 194.914 43.312 194.914 42.832C194.914 42.3733 194.567 42.144 193.874 42.144H192.514ZM198.749 40.688H205.629V48H203.661V42.432H200.733V48H198.749V40.688ZM210.506 48.112C210.069 48.112 209.642 48.0213 209.226 47.84C208.821 47.6587 208.458 47.4027 208.138 47.072C207.829 46.7413 207.578 46.3467 207.386 45.888C207.194 45.4187 207.098 44.9013 207.098 44.336C207.098 43.7707 207.189 43.2587 207.37 42.8C207.562 42.3307 207.813 41.9307 208.122 41.6C208.442 41.2693 208.805 41.0133 209.21 40.832C209.626 40.6507 210.058 40.56 210.506 40.56C211.05 40.56 211.53 40.6667 211.946 40.88C212.373 41.0933 212.709 41.3547 212.954 41.664V40.688H214.826V48H212.954V47.008C212.687 47.3387 212.341 47.6053 211.914 47.808C211.487 48.0107 211.018 48.112 210.506 48.112ZM211.034 46.416C211.578 46.416 212.01 46.2293 212.33 45.856C212.661 45.472 212.831 44.976 212.842 44.368V44.24C212.842 43.6747 212.677 43.2107 212.346 42.848C212.015 42.4853 211.578 42.304 211.034 42.304C210.789 42.304 210.554 42.3467 210.33 42.432C210.106 42.5173 209.909 42.6453 209.738 42.816C209.567 42.9867 209.434 43.2 209.338 43.456C209.242 43.712 209.194 44.0053 209.194 44.336C209.194 44.976 209.365 45.4827 209.706 45.856C210.058 46.2293 210.501 46.416 211.034 46.416ZM215.869 46.256H216.749C217.027 45.68 217.235 45.04 217.373 44.336C217.512 43.6213 217.581 42.7787 217.581 41.808V40.688H223.277V46.256H224.397V49.632H222.781V48H217.501V49.632H215.869V46.256ZM219.357 42.48C219.357 43.9627 219.139 45.2213 218.701 46.256H221.293V42.432H219.357V42.48ZM228.35 48.112C227.912 48.112 227.486 48.0213 227.07 47.84C226.664 47.6587 226.302 47.4027 225.982 47.072C225.672 46.7413 225.422 46.3467 225.23 45.888C225.038 45.4187 224.942 44.9013 224.942 44.336C224.942 43.7707 225.032 43.2587 225.214 42.8C225.406 42.3307 225.656 41.9307 225.966 41.6C226.286 41.2693 226.648 41.0133 227.054 40.832C227.47 40.6507 227.902 40.56 228.35 40.56C228.894 40.56 229.374 40.6667 229.79 40.88C230.216 41.0933 230.552 41.3547 230.798 41.664V40.688H232.67V48H230.798V47.008C230.531 47.3387 230.184 47.6053 229.758 47.808C229.331 48.0107 228.862 48.112 228.35 48.112ZM228.878 46.416C229.422 46.416 229.854 46.2293 230.174 45.856C230.504 45.472 230.675 44.976 230.686 44.368V44.24C230.686 43.6747 230.52 43.2107 230.19 42.848C229.859 42.4853 229.422 42.304 228.878 42.304C228.632 42.304 228.398 42.3467 228.174 42.432C227.95 42.5173 227.752 42.6453 227.582 42.816C227.411 42.9867 227.278 43.2 227.182 43.456C227.086 43.712 227.038 44.0053 227.038 44.336C227.038 44.976 227.208 45.4827 227.55 45.856C227.902 46.2293 228.344 46.416 228.878 46.416ZM234.321 48.16C234.204 48.16 234.097 48.1547 234.001 48.144C233.916 48.1333 233.841 48.1227 233.777 48.112V46.208C233.884 46.2293 233.969 46.24 234.033 46.24C234.215 46.24 234.369 46.176 234.497 46.048C234.625 45.9093 234.727 45.6907 234.801 45.392C234.887 45.0827 234.945 44.6827 234.977 44.192C235.02 43.7013 235.041 43.104 235.041 42.4V40.688H240.593V48H238.625V42.432H236.865V43.296C236.865 44.2133 236.807 44.9813 236.689 45.6C236.583 46.2187 236.417 46.72 236.193 47.104C235.98 47.4773 235.713 47.7493 235.393 47.92C235.084 48.08 234.727 48.16 234.321 48.16ZM242.499 40.688H244.483V44.896L247.875 40.688H249.427V48H247.443V43.552L243.859 48H242.499V40.688ZM251.999 48.08C251.679 48.0267 251.434 47.904 251.263 47.712C251.103 47.5093 251.023 47.2693 251.023 46.992C251.023 46.64 251.135 46.3627 251.359 46.16C251.594 45.9467 251.871 45.84 252.191 45.84C252.533 45.84 252.826 45.952 253.071 46.176C253.327 46.4 253.455 46.72 253.455 47.136C253.455 47.4133 253.381 47.7227 253.231 48.064C253.082 48.4053 252.853 48.848 252.543 49.392L251.903 50.56H250.623L251.999 48.08ZM262.768 48.112C262.33 48.112 261.904 48.0213 261.488 47.84C261.082 47.6587 260.72 47.4027 260.4 47.072C260.09 46.7413 259.84 46.3467 259.648 45.888C259.456 45.4187 259.36 44.9013 259.36 44.336C259.36 43.7707 259.45 43.2587 259.632 42.8C259.824 42.3307 260.074 41.9307 260.384 41.6C260.704 41.2693 261.066 41.0133 261.472 40.832C261.888 40.6507 262.32 40.56 262.768 40.56C263.312 40.56 263.792 40.6667 264.208 40.88C264.634 41.0933 264.97 41.3547 265.216 41.664V40.688H267.088V48H265.216V47.008C264.949 47.3387 264.602 47.6053 264.176 47.808C263.749 48.0107 263.28 48.112 262.768 48.112ZM263.296 46.416C263.84 46.416 264.272 46.2293 264.592 45.856C264.922 45.472 265.093 44.976 265.104 44.368V44.24C265.104 43.6747 264.938 43.2107 264.608 42.848C264.277 42.4853 263.84 42.304 263.296 42.304C263.05 42.304 262.816 42.3467 262.592 42.432C262.368 42.5173 262.17 42.6453 262 42.816C261.829 42.9867 261.696 43.2 261.6 43.456C261.504 43.712 261.456 44.0053 261.456 44.336C261.456 44.976 261.626 45.4827 261.968 45.856C262.32 46.2293 262.762 46.416 263.296 46.416ZM273.491 40.688H275.475V44.896L278.867 40.688H280.419V48H278.435V43.552L274.851 48H273.491V40.688ZM287.327 45.12H284.287V48H282.303V40.688H284.287V43.376H287.327V40.688H289.311V48H287.327V45.12ZM294.714 48.112C294.138 48.112 293.605 48.0213 293.114 47.84C292.634 47.6587 292.218 47.4027 291.866 47.072C291.525 46.7307 291.253 46.3307 291.05 45.872C290.858 45.4133 290.762 44.9013 290.762 44.336C290.762 43.7707 290.858 43.2587 291.05 42.8C291.253 42.3307 291.53 41.9307 291.882 41.6C292.234 41.2693 292.65 41.0133 293.13 40.832C293.621 40.6507 294.149 40.56 294.714 40.56C295.29 40.56 295.818 40.6507 296.298 40.832C296.789 41.0133 297.21 41.2747 297.562 41.616C297.914 41.9467 298.186 42.3467 298.378 42.816C298.57 43.2747 298.666 43.7813 298.666 44.336C298.666 44.912 298.565 45.4347 298.362 45.904C298.159 46.3627 297.882 46.7573 297.53 47.088C297.178 47.408 296.762 47.6587 296.282 47.84C295.802 48.0213 295.279 48.112 294.714 48.112ZM294.714 46.432C295.301 46.432 295.759 46.2347 296.09 45.84C296.421 45.4453 296.586 44.944 296.586 44.336C296.586 43.728 296.426 43.232 296.106 42.848C295.786 42.4533 295.322 42.256 294.714 42.256C294.117 42.256 293.653 42.4533 293.322 42.848C292.991 43.2427 292.826 43.7387 292.826 44.336C292.826 44.624 292.869 44.896 292.954 45.152C293.039 45.408 293.162 45.632 293.322 45.824C293.482 46.016 293.679 46.1653 293.914 46.272C294.149 46.3787 294.415 46.432 294.714 46.432ZM300.1 40.688H305.172V42.432H302.084V48H300.1V40.688ZM305.252 46.256H306.132C306.41 45.68 306.618 45.04 306.756 44.336C306.895 43.6213 306.964 42.7787 306.964 41.808V40.688H312.66V46.256H313.78V49.632H312.164V48H306.884V49.632H305.252V46.256ZM308.74 42.48C308.74 43.9627 308.522 45.2213 308.084 46.256H310.676V42.432H308.74V42.48ZM317.733 48.112C317.295 48.112 316.869 48.0213 316.453 47.84C316.047 47.6587 315.685 47.4027 315.365 47.072C315.055 46.7413 314.805 46.3467 314.613 45.888C314.421 45.4187 314.325 44.9013 314.325 44.336C314.325 43.7707 314.415 43.2587 314.597 42.8C314.789 42.3307 315.039 41.9307 315.349 41.6C315.669 41.2693 316.031 41.0133 316.437 40.832C316.853 40.6507 317.285 40.56 317.733 40.56C318.277 40.56 318.757 40.6667 319.173 40.88C319.599 41.0933 319.935 41.3547 320.181 41.664V40.688H322.053V48H320.181V47.008C319.914 47.3387 319.567 47.6053 319.141 47.808C318.714 48.0107 318.245 48.112 317.733 48.112ZM318.261 46.416C318.805 46.416 319.237 46.2293 319.557 45.856C319.887 45.472 320.058 44.976 320.069 44.368V44.24C320.069 43.6747 319.903 43.2107 319.573 42.848C319.242 42.4853 318.805 42.304 318.261 42.304C318.015 42.304 317.781 42.3467 317.557 42.432C317.333 42.5173 317.135 42.6453 316.965 42.816C316.794 42.9867 316.661 43.2 316.565 43.456C316.469 43.712 316.421 44.0053 316.421 44.336C316.421 44.976 316.591 45.4827 316.933 45.856C317.285 46.2293 317.727 46.416 318.261 46.416ZM81.528 62.536H84.104C83.9867 62.1093 83.7733 61.7893 83.464 61.576C83.1653 61.3627 82.792 61.256 82.344 61.256C81.6187 61.256 81.0747 61.512 80.712 62.024L79.368 61C79.656 60.552 80.0773 60.2 80.632 59.944C81.1973 59.688 81.8 59.56 82.44 59.56C82.9627 59.56 83.4533 59.6453 83.912 59.816C84.3813 59.9867 84.792 60.232 85.144 60.552C85.496 60.872 85.7733 61.2667 85.976 61.736C86.1787 62.1947 86.28 62.7227 86.28 63.32C86.28 63.8747 86.184 64.3867 85.992 64.856C85.8107 65.3147 85.5547 65.7147 85.224 66.056C84.8933 66.3867 84.4933 66.648 84.024 66.84C83.5547 67.0213 83.0427 67.112 82.488 67.112C81.7947 67.112 81.1493 66.9733 80.552 66.696C79.9653 66.4187 79.5333 66.0187 79.256 65.496L80.696 64.664C81.08 65.208 81.6133 65.48 82.296 65.48C82.84 65.48 83.2613 65.3253 83.56 65.016C83.8587 64.7067 84.0507 64.344 84.136 63.928H81.528V62.536ZM89.1709 61.432H86.8189V59.688H93.4909V61.432H91.1389V67H89.1709V61.432ZM97.9484 67.112C97.3724 67.112 96.839 67.0213 96.3484 66.84C95.8684 66.6587 95.4524 66.4027 95.1004 66.072C94.759 65.7307 94.487 65.3307 94.2844 64.872C94.0924 64.4133 93.9964 63.9013 93.9964 63.336C93.9964 62.7707 94.0924 62.2587 94.2844 61.8C94.487 61.3307 94.7644 60.9307 95.1164 60.6C95.4684 60.2693 95.8844 60.0133 96.3644 59.832C96.855 59.6507 97.383 59.56 97.9484 59.56C98.5244 59.56 99.0524 59.6507 99.5324 59.832C100.023 60.0133 100.444 60.2747 100.796 60.616C101.148 60.9467 101.42 61.3467 101.612 61.816C101.804 62.2747 101.9 62.7813 101.9 63.336C101.9 63.912 101.799 64.4347 101.596 64.904C101.394 65.3627 101.116 65.7573 100.764 66.088C100.412 66.408 99.9964 66.6587 99.5164 66.84C99.0364 67.0213 98.5137 67.112 97.9484 67.112ZM97.9484 65.432C98.535 65.432 98.9937 65.2347 99.3244 64.84C99.655 64.4453 99.8204 63.944 99.8204 63.336C99.8204 62.728 99.6604 62.232 99.3404 61.848C99.0204 61.4533 98.5564 61.256 97.9484 61.256C97.351 61.256 96.887 61.4533 96.5564 61.848C96.2257 62.2427 96.0604 62.7387 96.0604 63.336C96.0604 63.624 96.103 63.896 96.1884 64.152C96.2737 64.408 96.3964 64.632 96.5564 64.824C96.7164 65.016 96.9137 65.1653 97.1484 65.272C97.383 65.3787 97.6497 65.432 97.9484 65.432ZM124.05 67.144C122.632 67.144 121.597 66.7013 120.946 65.816C120.296 64.9307 119.97 63.6027 119.97 61.832C119.97 60.808 120.077 59.9333 120.29 59.208C120.504 58.472 120.808 57.8747 121.202 57.416C121.608 56.9467 122.093 56.6053 122.658 56.392C123.234 56.168 123.874 56.056 124.578 56.056C124.984 56.056 125.293 56.0187 125.506 55.944C125.72 55.8587 125.88 55.6987 125.986 55.464L127.554 55.928C127.469 56.2373 127.362 56.504 127.234 56.728C127.117 56.9413 126.952 57.1227 126.738 57.272C126.525 57.4213 126.253 57.5387 125.922 57.624C125.592 57.6987 125.17 57.752 124.658 57.784C124.168 57.816 123.741 57.88 123.378 57.976C123.026 58.072 122.728 58.2427 122.482 58.488C122.248 58.7227 122.061 59.0533 121.922 59.48C121.794 59.9067 121.709 60.4613 121.666 61.144C121.976 60.568 122.37 60.168 122.85 59.944C123.341 59.7093 123.874 59.592 124.45 59.592C124.984 59.592 125.464 59.6773 125.89 59.848C126.328 60.0187 126.696 60.264 126.994 60.584C127.293 60.904 127.522 61.288 127.682 61.736C127.842 62.1733 127.922 62.664 127.922 63.208C127.922 63.8053 127.826 64.3493 127.634 64.84C127.442 65.32 127.176 65.7307 126.834 66.072C126.493 66.4133 126.082 66.68 125.602 66.872C125.133 67.0533 124.616 67.144 124.05 67.144ZM124.002 65.4C124.546 65.4 124.984 65.2187 125.314 64.856C125.656 64.4827 125.826 63.9707 125.826 63.32C125.826 62.68 125.666 62.1787 125.346 61.816C125.037 61.4427 124.594 61.256 124.018 61.256C123.453 61.256 123.005 61.4373 122.674 61.8C122.344 62.1627 122.178 62.6693 122.178 63.32C122.178 63.96 122.344 64.4667 122.674 64.84C123.005 65.2133 123.448 65.4 124.002 65.4ZM132.459 61.8C133.494 61.8 134.278 62.0133 134.811 62.44C135.355 62.8667 135.627 63.512 135.627 64.376C135.627 65.24 135.344 65.896 134.779 66.344C134.224 66.7813 133.398 67 132.299 67H129.371V59.688H131.355V61.8H132.459ZM136.331 59.688H138.315V67H136.331V59.688ZM132.091 65.448C132.571 65.448 132.939 65.3787 133.195 65.24C133.462 65.0907 133.595 64.8027 133.595 64.376C133.595 63.9813 133.472 63.7093 133.227 63.56C132.992 63.4107 132.635 63.336 132.155 63.336H131.355V65.448H132.091ZM139.959 67.16C139.842 67.16 139.735 67.1547 139.639 67.144C139.554 67.1333 139.479 67.1227 139.415 67.112V65.208C139.522 65.2293 139.607 65.24 139.671 65.24C139.853 65.24 140.007 65.176 140.135 65.048C140.263 64.9093 140.365 64.6907 140.439 64.392C140.525 64.0827 140.583 63.6827 140.615 63.192C140.658 62.7013 140.679 62.104 140.679 61.4V59.688H146.231V67H144.263V61.432H142.503V62.296C142.503 63.2133 142.445 63.9813 142.327 64.6C142.221 65.2187 142.055 65.72 141.831 66.104C141.618 66.4773 141.351 66.7493 141.031 66.92C140.722 67.08 140.365 67.16 139.959 67.16ZM148.137 59.688H150.121V63.896L153.513 59.688H155.065V67H153.081V62.552L149.497 67H148.137V59.688ZM176.993 67.112C176.556 67.112 176.129 67.0213 175.713 66.84C175.308 66.6587 174.945 66.4027 174.625 66.072C174.316 65.7413 174.065 65.3467 173.873 64.888C173.681 64.4187 173.585 63.9013 173.585 63.336C173.585 62.7707 173.676 62.2587 173.857 61.8C174.049 61.3307 174.3 60.9307 174.609 60.6C174.929 60.2693 175.292 60.0133 175.697 59.832C176.113 59.6507 176.545 59.56 176.993 59.56C177.537 59.56 178.017 59.6667 178.433 59.88C178.86 60.0933 179.196 60.3547 179.441 60.664V59.688H181.313V67H179.441V66.008C179.174 66.3387 178.828 66.6053 178.401 66.808C177.974 67.0107 177.505 67.112 176.993 67.112ZM177.521 65.416C178.065 65.416 178.497 65.2293 178.817 64.856C179.148 64.472 179.318 63.976 179.329 63.368V63.24C179.329 62.6747 179.164 62.2107 178.833 61.848C178.502 61.4853 178.065 61.304 177.521 61.304C177.276 61.304 177.041 61.3467 176.817 61.432C176.593 61.5173 176.396 61.6453 176.225 61.816C176.054 61.9867 175.921 62.2 175.825 62.456C175.729 62.712 175.681 63.0053 175.681 63.336C175.681 63.976 175.852 64.4827 176.193 64.856C176.545 65.2293 176.988 65.416 177.521 65.416ZM186.852 67.144C185.434 67.144 184.399 66.7013 183.748 65.816C183.098 64.9307 182.772 63.6027 182.772 61.832C182.772 60.808 182.879 59.9333 183.092 59.208C183.306 58.472 183.61 57.8747 184.004 57.416C184.41 56.9467 184.895 56.6053 185.46 56.392C186.036 56.168 186.676 56.056 187.38 56.056C187.786 56.056 188.095 56.0187 188.308 55.944C188.522 55.8587 188.682 55.6987 188.788 55.464L190.356 55.928C190.271 56.2373 190.164 56.504 190.036 56.728C189.919 56.9413 189.754 57.1227 189.54 57.272C189.327 57.4213 189.055 57.5387 188.724 57.624C188.394 57.6987 187.972 57.752 187.46 57.784C186.97 57.816 186.543 57.88 186.18 57.976C185.828 58.072 185.53 58.2427 185.284 58.488C185.05 58.7227 184.863 59.0533 184.724 59.48C184.596 59.9067 184.511 60.4613 184.468 61.144C184.778 60.568 185.172 60.168 185.652 59.944C186.143 59.7093 186.676 59.592 187.252 59.592C187.786 59.592 188.266 59.6773 188.692 59.848C189.13 60.0187 189.498 60.264 189.796 60.584C190.095 60.904 190.324 61.288 190.484 61.736C190.644 62.1733 190.724 62.664 190.724 63.208C190.724 63.8053 190.628 64.3493 190.436 64.84C190.244 65.32 189.978 65.7307 189.636 66.072C189.295 66.4133 188.884 66.68 188.404 66.872C187.935 67.0533 187.418 67.144 186.852 67.144ZM186.804 65.4C187.348 65.4 187.786 65.2187 188.116 64.856C188.458 64.4827 188.628 63.9707 188.628 63.32C188.628 62.68 188.468 62.1787 188.148 61.816C187.839 61.4427 187.396 61.256 186.82 61.256C186.255 61.256 185.807 61.4373 185.476 61.8C185.146 62.1627 184.98 62.6693 184.98 63.32C184.98 63.96 185.146 64.4667 185.476 64.84C185.807 65.2133 186.25 65.4 186.804 65.4ZM195.581 67.112C194.994 67.112 194.466 67.0213 193.997 66.84C193.528 66.6587 193.122 66.408 192.781 66.088C192.45 65.7573 192.194 65.3627 192.013 64.904C191.832 64.4453 191.741 63.9333 191.741 63.368C191.741 62.7707 191.837 62.2373 192.029 61.768C192.232 61.288 192.504 60.888 192.845 60.568C193.186 60.2373 193.592 59.9867 194.061 59.816C194.53 59.6453 195.037 59.56 195.581 59.56C196.2 59.56 196.76 59.6667 197.261 59.88C197.773 60.0933 198.173 60.36 198.461 60.68L197.437 62.024C197.224 61.7893 196.973 61.6027 196.685 61.464C196.408 61.3253 196.093 61.256 195.741 61.256C195.144 61.256 194.669 61.448 194.317 61.832C193.976 62.216 193.805 62.7067 193.805 63.304C193.805 63.9227 193.981 64.4347 194.333 64.84C194.696 65.2347 195.181 65.432 195.789 65.432C196.141 65.432 196.456 65.3627 196.733 65.224C197.01 65.0747 197.256 64.8827 197.469 64.648L198.637 65.8C198.317 66.216 197.89 66.5413 197.357 66.776C196.834 67 196.242 67.112 195.581 67.112ZM203.271 67.112C202.695 67.112 202.162 67.0213 201.671 66.84C201.191 66.6587 200.775 66.4027 200.423 66.072C200.082 65.7307 199.81 65.3307 199.607 64.872C199.415 64.4133 199.319 63.9013 199.319 63.336C199.319 62.7707 199.415 62.2587 199.607 61.8C199.81 61.3307 200.087 60.9307 200.439 60.6C200.791 60.2693 201.207 60.0133 201.687 59.832C202.178 59.6507 202.706 59.56 203.271 59.56C203.847 59.56 204.375 59.6507 204.855 59.832C205.346 60.0133 205.767 60.2747 206.119 60.616C206.471 60.9467 206.743 61.3467 206.935 61.816C207.127 62.2747 207.223 62.7813 207.223 63.336C207.223 63.912 207.122 64.4347 206.919 64.904C206.717 65.3627 206.439 65.7573 206.087 66.088C205.735 66.408 205.319 66.6587 204.839 66.84C204.359 67.0213 203.837 67.112 203.271 67.112ZM203.271 65.432C203.858 65.432 204.317 65.2347 204.647 64.84C204.978 64.4453 205.143 63.944 205.143 63.336C205.143 62.728 204.983 62.232 204.663 61.848C204.343 61.4533 203.879 61.256 203.271 61.256C202.674 61.256 202.21 61.4533 201.879 61.848C201.549 62.2427 201.383 62.7387 201.383 63.336C201.383 63.624 201.426 63.896 201.511 64.152C201.597 64.408 201.719 64.632 201.879 64.824C202.039 65.016 202.237 65.1653 202.471 65.272C202.706 65.3787 202.973 65.432 203.271 65.432ZM208.339 67.16C208.222 67.16 208.115 67.1547 208.019 67.144C207.934 67.1333 207.859 67.1227 207.795 67.112V65.208C207.902 65.2293 207.987 65.24 208.051 65.24C208.233 65.24 208.387 65.176 208.515 65.048C208.643 64.9093 208.745 64.6907 208.819 64.392C208.905 64.0827 208.963 63.6827 208.995 63.192C209.038 62.7013 209.059 62.104 209.059 61.4V59.688H214.611V67H212.643V61.432H210.883V62.296C210.883 63.2133 210.825 63.9813 210.707 64.6C210.601 65.2187 210.435 65.72 210.211 66.104C209.998 66.4773 209.731 66.7493 209.411 66.92C209.102 67.08 208.745 67.16 208.339 67.16ZM216.517 59.688H218.501V62.28H219.509C219.616 61.8533 219.786 61.4747 220.021 61.144C220.256 60.8027 220.533 60.5147 220.853 60.28C221.184 60.0453 221.546 59.8693 221.941 59.752C222.336 59.624 222.746 59.56 223.173 59.56C223.738 59.56 224.256 59.6507 224.725 59.832C225.194 60.0027 225.6 60.2533 225.941 60.584C226.282 60.904 226.549 61.2987 226.741 61.768C226.933 62.2267 227.029 62.7493 227.029 63.336C227.029 63.944 226.922 64.4827 226.709 64.952C226.506 65.4213 226.224 65.816 225.861 66.136C225.509 66.456 225.098 66.7013 224.629 66.872C224.16 67.032 223.669 67.112 223.157 67.112C222.656 67.112 222.192 67.0373 221.765 66.888C221.338 66.7387 220.96 66.5307 220.629 66.264C220.309 65.9867 220.042 65.6507 219.829 65.256C219.626 64.8613 219.493 64.4187 219.429 63.928H218.501V67H216.517V59.688ZM223.173 65.384C223.749 65.384 224.186 65.192 224.485 64.808C224.794 64.424 224.949 63.9387 224.949 63.352C224.949 62.744 224.789 62.248 224.469 61.864C224.16 61.48 223.722 61.288 223.157 61.288C222.592 61.288 222.149 61.48 221.829 61.864C221.52 62.2373 221.365 62.712 221.365 63.288C221.365 63.896 221.525 64.3973 221.845 64.792C222.176 65.1867 222.618 65.384 223.173 65.384ZM229.931 61.432H227.579V59.688H234.251V61.432H231.899V67H229.931V61.432ZM240.494 64.12H237.454V67H235.47V59.688H237.454V62.376H240.494V59.688H242.478V67H240.494V64.12ZM247.881 67.112C247.305 67.112 246.771 67.0213 246.281 66.84C245.801 66.6587 245.385 66.4027 245.033 66.072C244.691 65.7307 244.419 65.3307 244.217 64.872C244.025 64.4133 243.929 63.9013 243.929 63.336C243.929 62.7707 244.025 62.2587 244.217 61.8C244.419 61.3307 244.697 60.9307 245.049 60.6C245.401 60.2693 245.817 60.0133 246.297 59.832C246.787 59.6507 247.315 59.56 247.881 59.56C248.457 59.56 248.985 59.6507 249.465 59.832C249.955 60.0133 250.377 60.2747 250.729 60.616C251.081 60.9467 251.353 61.3467 251.545 61.816C251.737 62.2747 251.833 62.7813 251.833 63.336C251.833 63.912 251.731 64.4347 251.529 64.904C251.326 65.3627 251.049 65.7573 250.697 66.088C250.345 66.408 249.929 66.6587 249.449 66.84C248.969 67.0213 248.446 67.112 247.881 67.112ZM247.881 65.432C248.467 65.432 248.926 65.2347 249.257 64.84C249.587 64.4453 249.753 63.944 249.753 63.336C249.753 62.728 249.593 62.232 249.273 61.848C248.953 61.4533 248.489 61.256 247.881 61.256C247.283 61.256 246.819 61.4533 246.489 61.848C246.158 62.2427 245.993 62.7387 245.993 63.336C245.993 63.624 246.035 63.896 246.121 64.152C246.206 64.408 246.329 64.632 246.489 64.824C246.649 65.016 246.846 65.1653 247.081 65.272C247.315 65.3787 247.582 65.432 247.881 65.432ZM270.335 70.84V59.688H272.207V60.664C272.452 60.3547 272.783 60.0933 273.199 59.88C273.625 59.6667 274.111 59.56 274.655 59.56C275.103 59.56 275.529 59.6507 275.935 59.832C276.351 60.0133 276.713 60.2693 277.023 60.6C277.343 60.9307 277.593 61.3307 277.775 61.8C277.967 62.2587 278.063 62.7707 278.063 63.336C278.063 63.9013 277.967 64.4187 277.775 64.888C277.583 65.3467 277.327 65.7413 277.007 66.072C276.697 66.4027 276.335 66.6587 275.919 66.84C275.513 67.0213 275.092 67.112 274.655 67.112C274.175 67.112 273.732 67.0267 273.327 66.856C272.921 66.6747 272.585 66.4347 272.319 66.136V70.84H270.335ZM274.127 61.304C273.583 61.304 273.151 61.48 272.831 61.832C272.511 62.1733 272.34 62.616 272.319 63.16V63.368C272.329 63.976 272.495 64.472 272.815 64.856C273.145 65.2293 273.583 65.416 274.127 65.416C274.66 65.416 275.097 65.2293 275.439 64.856C275.791 64.4827 275.967 63.976 275.967 63.336C275.967 63.0053 275.913 62.712 275.807 62.456C275.711 62.2 275.577 61.9867 275.407 61.816C275.247 61.6453 275.055 61.5173 274.831 61.432C274.607 61.3467 274.372 61.304 274.127 61.304ZM282.498 67.112C282.061 67.112 281.634 67.0213 281.218 66.84C280.813 66.6587 280.45 66.4027 280.13 66.072C279.821 65.7413 279.57 65.3467 279.378 64.888C279.186 64.4187 279.09 63.9013 279.09 63.336C279.09 62.7707 279.181 62.2587 279.362 61.8C279.554 61.3307 279.805 60.9307 280.114 60.6C280.434 60.2693 280.797 60.0133 281.202 59.832C281.618 59.6507 282.05 59.56 282.498 59.56C283.042 59.56 283.522 59.6667 283.938 59.88C284.365 60.0933 284.701 60.3547 284.946 60.664V59.688H286.818V67H284.946V66.008C284.679 66.3387 284.333 66.6053 283.906 66.808C283.479 67.0107 283.01 67.112 282.498 67.112ZM283.026 65.416C283.57 65.416 284.002 65.2293 284.322 64.856C284.653 64.472 284.823 63.976 284.834 63.368V63.24C284.834 62.6747 284.669 62.2107 284.338 61.848C284.007 61.4853 283.57 61.304 283.026 61.304C282.781 61.304 282.546 61.3467 282.322 61.432C282.098 61.5173 281.901 61.6453 281.73 61.816C281.559 61.9867 281.426 62.2 281.33 62.456C281.234 62.712 281.186 63.0053 281.186 63.336C281.186 63.976 281.357 64.4827 281.698 64.856C282.05 65.2293 282.493 65.416 283.026 65.416ZM291.11 67.112C290.715 67.112 290.347 67.0693 290.006 66.984C289.675 66.8987 289.376 66.792 289.11 66.664C288.854 66.536 288.63 66.3973 288.438 66.248C288.256 66.0987 288.118 65.96 288.022 65.832L289.286 64.648C289.456 64.8613 289.696 65.048 290.006 65.208C290.315 65.3573 290.672 65.432 291.078 65.432C291.899 65.432 292.31 65.1493 292.31 64.584C292.31 64.3707 292.219 64.1893 292.038 64.04C291.856 63.8907 291.542 63.816 291.094 63.816H290.07V62.424H290.87C291.211 62.424 291.478 62.376 291.67 62.28C291.862 62.1733 291.958 62.0133 291.958 61.8C291.958 61.6187 291.862 61.48 291.67 61.384C291.478 61.2773 291.227 61.224 290.918 61.224C290.63 61.224 290.347 61.288 290.07 61.416C289.803 61.5333 289.574 61.6827 289.382 61.864L288.31 60.744C288.427 60.6053 288.571 60.4667 288.742 60.328C288.923 60.1893 289.131 60.0667 289.366 59.96C289.6 59.8427 289.867 59.7467 290.166 59.672C290.464 59.5973 290.79 59.56 291.142 59.56C291.558 59.56 291.936 59.608 292.278 59.704C292.619 59.8 292.912 59.9333 293.158 60.104C293.403 60.264 293.59 60.4667 293.718 60.712C293.856 60.9467 293.926 61.208 293.926 61.496C293.926 61.8373 293.835 62.136 293.654 62.392C293.472 62.648 293.222 62.8507 292.902 63C293.382 63.1493 293.739 63.3733 293.974 63.672C294.219 63.9707 294.342 64.328 294.342 64.744C294.342 65.0747 294.267 65.384 294.118 65.672C293.968 65.96 293.755 66.2107 293.478 66.424C293.2 66.6373 292.859 66.808 292.454 66.936C292.059 67.0533 291.611 67.112 291.11 67.112ZM300.702 64.12H297.662V67H295.678V59.688H297.662V62.376H300.702V59.688H302.686V67H300.702V64.12ZM307.657 61.8C308.692 61.8 309.476 62.0133 310.009 62.44C310.553 62.8667 310.825 63.512 310.825 64.376C310.825 65.24 310.542 65.896 309.977 66.344C309.422 66.7813 308.596 67 307.497 67H304.569V59.688H306.553V61.8H307.657ZM311.529 59.688H313.513V67H311.529V59.688ZM307.289 65.448C307.769 65.448 308.137 65.3787 308.393 65.24C308.66 65.0907 308.793 64.8027 308.793 64.376C308.793 63.9813 308.67 63.7093 308.425 63.56C308.19 63.4107 307.833 63.336 307.353 63.336H306.553V65.448H307.289ZM318.933 67.112C318.346 67.112 317.808 67.0213 317.317 66.84C316.837 66.6587 316.421 66.408 316.069 66.088C315.717 65.7573 315.445 65.368 315.253 64.92C315.061 64.4613 314.965 63.9547 314.965 63.4C314.965 62.8133 315.066 62.2853 315.269 61.816C315.472 61.336 315.749 60.9307 316.101 60.6C316.453 60.2693 316.864 60.0133 317.333 59.832C317.802 59.6507 318.304 59.56 318.837 59.56C319.413 59.56 319.925 59.6613 320.373 59.864C320.832 60.056 321.216 60.328 321.525 60.68C321.834 61.0213 322.069 61.4267 322.229 61.896C322.4 62.3547 322.485 62.8507 322.485 63.384V63.8H316.885C316.981 64.3653 317.221 64.7973 317.605 65.096C318 65.3947 318.496 65.544 319.093 65.544C319.52 65.544 319.914 65.4693 320.277 65.32C320.65 65.16 320.96 64.9413 321.205 64.664L322.309 65.672C321.936 66.1413 321.456 66.4987 320.869 66.744C320.282 66.9893 319.637 67.112 318.933 67.112ZM318.757 61.16C318.288 61.16 317.893 61.288 317.573 61.544C317.264 61.7893 317.05 62.1413 316.933 62.6H320.581C320.517 62.1947 320.325 61.8533 320.005 61.576C319.685 61.2987 319.269 61.16 318.757 61.16ZM79.944 78.688H86.824V86H84.856V80.432H81.928V86H79.944V78.688ZM88.7253 89.84V78.688H90.5973V79.664C90.8426 79.3547 91.1733 79.0933 91.5893 78.88C92.0159 78.6667 92.5013 78.56 93.0453 78.56C93.4933 78.56 93.9199 78.6507 94.3253 78.832C94.7413 79.0133 95.1039 79.2693 95.4133 79.6C95.7333 79.9307 95.9839 80.3307 96.1653 80.8C96.3573 81.2587 96.4533 81.7707 96.4533 82.336C96.4533 82.9013 96.3573 83.4187 96.1653 83.888C95.9733 84.3467 95.7173 84.7413 95.3973 85.072C95.0879 85.4027 94.7253 85.6587 94.3093 85.84C93.9039 86.0213 93.4826 86.112 93.0453 86.112C92.5653 86.112 92.1226 86.0267 91.7173 85.856C91.3119 85.6747 90.9759 85.4347 90.7093 85.136V89.84H88.7253ZM92.5173 80.304C91.9733 80.304 91.5413 80.48 91.2213 80.832C90.9013 81.1733 90.7306 81.616 90.7093 82.16V82.368C90.7199 82.976 90.8853 83.472 91.2053 83.856C91.5359 84.2293 91.9733 84.416 92.5173 84.416C93.0506 84.416 93.4879 84.2293 93.8293 83.856C94.1813 83.4827 94.3573 82.976 94.3573 82.336C94.3573 82.0053 94.3039 81.712 94.1973 81.456C94.1013 81.2 93.9679 80.9867 93.7973 80.816C93.6373 80.6453 93.4453 80.5173 93.2213 80.432C92.9973 80.3467 92.7626 80.304 92.5173 80.304ZM101.449 86.112C100.862 86.112 100.323 86.0213 99.8328 85.84C99.3528 85.6587 98.9368 85.408 98.5848 85.088C98.2328 84.7573 97.9608 84.368 97.7688 83.92C97.5768 83.4613 97.4808 82.9547 97.4808 82.4C97.4808 81.8133 97.5821 81.2853 97.7848 80.816C97.9874 80.336 98.2648 79.9307 98.6168 79.6C98.9688 79.2693 99.3794 79.0133 99.8488 78.832C100.318 78.6507 100.819 78.56 101.353 78.56C101.929 78.56 102.441 78.6613 102.889 78.864C103.347 79.056 103.731 79.328 104.041 79.68C104.35 80.0213 104.585 80.4267 104.745 80.896C104.915 81.3547 105.001 81.8507 105.001 82.384V82.8H99.4008C99.4968 83.3653 99.7368 83.7973 100.121 84.096C100.515 84.3947 101.011 84.544 101.609 84.544C102.035 84.544 102.43 84.4693 102.793 84.32C103.166 84.16 103.475 83.9413 103.721 83.664L104.825 84.672C104.451 85.1413 103.971 85.4987 103.385 85.744C102.798 85.9893 102.153 86.112 101.449 86.112ZM101.273 80.16C100.803 80.16 100.409 80.288 100.089 80.544C99.7794 80.7893 99.5661 81.1413 99.4488 81.6H103.097C103.033 81.1947 102.841 80.8533 102.521 80.576C102.201 80.2987 101.785 80.16 101.273 80.16ZM105.455 84.256H106.335C106.613 83.68 106.821 83.04 106.959 82.336C107.098 81.6213 107.167 80.7787 107.167 79.808V78.688H112.863V84.256H113.983V87.632H112.367V86H107.087V87.632H105.455V84.256ZM108.943 80.48C108.943 81.9627 108.725 83.2213 108.287 84.256H110.879V80.432H108.943V80.48ZM118.368 86.112C117.781 86.112 117.253 86.0213 116.784 85.84C116.314 85.6587 115.909 85.408 115.568 85.088C115.237 84.7573 114.981 84.3627 114.8 83.904C114.618 83.4453 114.528 82.9333 114.528 82.368C114.528 81.7707 114.624 81.2373 114.816 80.768C115.018 80.288 115.29 79.888 115.632 79.568C115.973 79.2373 116.378 78.9867 116.848 78.816C117.317 78.6453 117.824 78.56 118.368 78.56C118.986 78.56 119.546 78.6667 120.048 78.88C120.56 79.0933 120.96 79.36 121.248 79.68L120.224 81.024C120.01 80.7893 119.76 80.6027 119.472 80.464C119.194 80.3253 118.88 80.256 118.528 80.256C117.93 80.256 117.456 80.448 117.104 80.832C116.762 81.216 116.592 81.7067 116.592 82.304C116.592 82.9227 116.768 83.4347 117.12 83.84C117.482 84.2347 117.968 84.432 118.576 84.432C118.928 84.432 119.242 84.3627 119.52 84.224C119.797 84.0747 120.042 83.8827 120.256 83.648L121.424 84.8C121.104 85.216 120.677 85.5413 120.144 85.776C119.621 86 119.029 86.112 118.368 86.112ZM124.296 80.432H121.944V78.688H128.616V80.432H126.264V86H124.296V80.432ZM132.529 86.112C132.092 86.112 131.665 86.0213 131.249 85.84C130.844 85.6587 130.481 85.4027 130.161 85.072C129.852 84.7413 129.601 84.3467 129.409 83.888C129.217 83.4187 129.121 82.9013 129.121 82.336C129.121 81.7707 129.212 81.2587 129.393 80.8C129.585 80.3307 129.836 79.9307 130.145 79.6C130.465 79.2693 130.828 79.0133 131.233 78.832C131.649 78.6507 132.081 78.56 132.529 78.56C133.073 78.56 133.553 78.6667 133.969 78.88C134.396 79.0933 134.732 79.3547 134.977 79.664V78.688H136.849V86H134.977V85.008C134.711 85.3387 134.364 85.6053 133.937 85.808C133.511 86.0107 133.041 86.112 132.529 86.112ZM133.057 84.416C133.601 84.416 134.033 84.2293 134.353 83.856C134.684 83.472 134.855 82.976 134.865 82.368V82.24C134.865 81.6747 134.7 81.2107 134.369 80.848C134.039 80.4853 133.601 80.304 133.057 80.304C132.812 80.304 132.577 80.3467 132.353 80.432C132.129 80.5173 131.932 80.6453 131.761 80.816C131.591 80.9867 131.457 81.2 131.361 81.456C131.265 81.712 131.217 82.0053 131.217 82.336C131.217 82.976 131.388 83.4827 131.729 83.856C132.081 84.2293 132.524 84.416 133.057 84.416ZM138.741 78.688H142.693C143.45 78.688 144.021 78.8533 144.405 79.184C144.789 79.504 144.981 79.9253 144.981 80.448C144.981 80.8427 144.885 81.168 144.693 81.424C144.501 81.68 144.25 81.8613 143.941 81.968C144.464 82.0427 144.89 82.224 145.221 82.512C145.552 82.8 145.717 83.232 145.717 83.808C145.717 84.512 145.456 85.056 144.933 85.44C144.421 85.8133 143.669 86 142.677 86H138.741V78.688ZM140.725 82.704V84.544H142.245C142.746 84.544 143.104 84.4693 143.317 84.32C143.53 84.16 143.637 83.9253 143.637 83.616C143.637 83.296 143.525 83.0667 143.301 82.928C143.077 82.7787 142.741 82.704 142.293 82.704H140.725ZM140.725 80.144V81.552H142.101C142.784 81.552 143.125 81.312 143.125 80.832C143.125 80.3733 142.778 80.144 142.085 80.144H140.725ZM146.97 86.16C146.852 86.16 146.746 86.1547 146.65 86.144C146.564 86.1333 146.49 86.1227 146.426 86.112V84.208C146.532 84.2293 146.618 84.24 146.682 84.24C146.863 84.24 147.018 84.176 147.146 84.048C147.274 83.9093 147.375 83.6907 147.45 83.392C147.535 83.0827 147.594 82.6827 147.626 82.192C147.668 81.7013 147.69 81.104 147.69 80.4V78.688H153.242V86H151.274V80.432H149.514V81.296C149.514 82.2133 149.455 82.9813 149.338 83.6C149.231 84.2187 149.066 84.72 148.842 85.104C148.628 85.4773 148.362 85.7493 148.042 85.92C147.732 86.08 147.375 86.16 146.97 86.16ZM158.683 86.112C158.096 86.112 157.558 86.0213 157.067 85.84C156.587 85.6587 156.171 85.408 155.819 85.088C155.467 84.7573 155.195 84.368 155.003 83.92C154.811 83.4613 154.715 82.9547 154.715 82.4C154.715 81.8133 154.816 81.2853 155.019 80.816C155.222 80.336 155.499 79.9307 155.851 79.6C156.203 79.2693 156.614 79.0133 157.083 78.832C157.552 78.6507 158.054 78.56 158.587 78.56C159.163 78.56 159.675 78.6613 160.123 78.864C160.582 79.056 160.966 79.328 161.275 79.68C161.584 80.0213 161.819 80.4267 161.979 80.896C162.15 81.3547 162.235 81.8507 162.235 82.384V82.8H156.635C156.731 83.3653 156.971 83.7973 157.355 84.096C157.75 84.3947 158.246 84.544 158.843 84.544C159.27 84.544 159.664 84.4693 160.027 84.32C160.4 84.16 160.71 83.9413 160.955 83.664L162.059 84.672C161.686 85.1413 161.206 85.4987 160.619 85.744C160.032 85.9893 159.387 86.112 158.683 86.112ZM158.507 80.16C158.038 80.16 157.643 80.288 157.323 80.544C157.014 80.7893 156.8 81.1413 156.683 81.6H160.331C160.267 81.1947 160.075 80.8533 159.755 80.576C159.435 80.2987 159.019 80.16 158.507 80.16ZM168.718 83.12H165.678V86H163.694V78.688H165.678V81.376H168.718V78.688H170.702V86H168.718V83.12ZM172.585 78.688H174.569V82.896L177.961 78.688H179.513V86H177.529V81.552L173.945 86H172.585V78.688ZM180.949 85.728L182.501 83.408C181.648 83.0027 181.221 82.2827 181.221 81.248C181.221 80.4053 181.493 79.7707 182.037 79.344C182.592 78.9067 183.45 78.688 184.613 78.688H187.781V86H185.797V83.76H184.549L183.109 86H180.949V85.728ZM185.797 82.352V80.224H184.741C184.229 80.224 183.85 80.2987 183.605 80.448C183.36 80.5867 183.237 80.8587 183.237 81.264C183.237 81.6693 183.344 81.952 183.557 82.112C183.781 82.272 184.16 82.352 184.693 82.352H185.797ZM190.751 86.16C190.377 86.16 190.089 86.0533 189.887 85.84C189.695 85.616 189.599 85.3493 189.599 85.04C189.599 84.7093 189.695 84.432 189.887 84.208C190.079 83.984 190.367 83.872 190.751 83.872C191.135 83.872 191.428 83.984 191.631 84.208C191.833 84.432 191.935 84.7093 191.935 85.04C191.935 85.3493 191.828 85.616 191.615 85.84C191.412 86.0533 191.124 86.16 190.751 86.16Z" fill="black"/>
<defs>
<linearGradient id="paint0_linear_106_15" x1="-2.27124" y1="61.0281" x2="423.299" y2="61.0281" gradientUnits="userSpaceOnUse">
<stop stop-color="white" stop-opacity="0.64"/>
<stop offset="0.325" stop-color="#2736C1" stop-opacity="0.72"/>
<stop offset="1" stop-color="#091FEA"/>
</linearGradient>
</defs>
</svg>
