<svg width="1247" height="114" viewBox="0 0 1247 114" fill="none" xmlns="http://www.w3.org/2000/svg">
<path d="M1137.38 49.9886C1129.03 47.3775 1123.35 39.6463 1123.35 30.9009V20C1123.35 8.9543 1114.4 0 1103.35 0H19.9978C8.95203 0 -0.00219727 8.9543 -0.00219727 20V45.6V94C-0.00219727 105.046 8.95215 114 19.9978 114L1211.08 114C1233.98 114 1238.91 81.75 1217.05 74.9122L1137.38 49.9886Z" fill="url(#paint0_linear_91_4)" fill-opacity="0.76"/>
<circle cx="1108.5" cy="97.5" r="4.5" fill="black"/>
<circle cx="1134.5" cy="97.5" r="4.5" fill="black"/>
<circle cx="1160.5" cy="97.5" r="4.5" fill="black"/>
<circle cx="1186.5" cy="97.5" r="4.5" fill="black"/>
<path d="M33.58 39.45H28.54V36H42.58V39.45H37.6V57H33.58V39.45ZM48.182 57.21C47.362 57.21 46.562 57.04 45.782 56.7C45.022 56.36 44.342 55.88 43.742 55.26C43.162 54.64 42.692 53.9 42.332 53.04C41.972 52.16 41.792 51.19 41.792 50.13C41.792 49.07 41.962 48.11 42.302 47.25C42.662 46.37 43.132 45.62 43.712 45C44.312 44.38 44.992 43.9 45.752 43.56C46.532 43.22 47.342 43.05 48.182 43.05C49.202 43.05 50.102 43.25 50.882 43.65C51.682 44.05 52.312 44.54 52.772 45.12V43.29H56.282V57H52.772V55.14C52.272 55.76 51.622 56.26 50.822 56.64C50.022 57.02 49.142 57.21 48.182 57.21ZM49.172 54.03C50.192 54.03 51.002 53.68 51.602 52.98C52.222 52.26 52.542 51.33 52.562 50.19V49.95C52.562 48.89 52.252 48.02 51.632 47.34C51.012 46.66 50.192 46.32 49.172 46.32C48.712 46.32 48.272 46.4 47.852 46.56C47.432 46.72 47.062 46.96 46.742 47.28C46.422 47.6 46.172 48 45.992 48.48C45.812 48.96 45.722 49.51 45.722 50.13C45.722 51.33 46.042 52.28 46.682 52.98C47.342 53.68 48.172 54.03 49.172 54.03ZM59.8286 43.29H63.5486V48.33H64.9886L68.2886 43.29H72.1586V43.8L68.0786 49.53L73.1786 56.49V57H69.0386L64.8986 51.15H63.5486V57H59.8286V43.29ZM87.374 53.73H89.024C89.544 52.65 89.934 51.45 90.194 50.13C90.454 48.79 90.584 47.21 90.584 45.39V43.29H101.264V53.73H103.364V60.06H100.334V57H90.434V60.06H87.374V53.73ZM93.914 46.65C93.914 49.43 93.504 51.79 92.684 53.73H97.544V46.56H93.914V46.65ZM111.824 57.21C110.724 57.21 109.714 57.04 108.794 56.7C107.894 56.36 107.114 55.89 106.454 55.29C105.794 54.67 105.284 53.94 104.924 53.1C104.564 52.24 104.384 51.29 104.384 50.25C104.384 49.15 104.574 48.16 104.954 47.28C105.334 46.38 105.854 45.62 106.514 45C107.174 44.38 107.944 43.9 108.824 43.56C109.704 43.22 110.644 43.05 111.644 43.05C112.724 43.05 113.684 43.24 114.524 43.62C115.384 43.98 116.104 44.49 116.684 45.15C117.264 45.79 117.704 46.55 118.004 47.43C118.324 48.29 118.484 49.22 118.484 50.22V51H107.984C108.164 52.06 108.614 52.87 109.334 53.43C110.074 53.99 111.004 54.27 112.124 54.27C112.924 54.27 113.664 54.13 114.344 53.85C115.044 53.55 115.624 53.14 116.084 52.62L118.154 54.51C117.454 55.39 116.554 56.06 115.454 56.52C114.354 56.98 113.144 57.21 111.824 57.21ZM111.494 46.05C110.614 46.05 109.874 46.29 109.274 46.77C108.694 47.23 108.294 47.89 108.074 48.75H114.914C114.794 47.99 114.434 47.35 113.834 46.83C113.234 46.31 112.454 46.05 111.494 46.05ZM123.93 46.56H119.52V43.29H132.03V46.56H127.62V57H123.93V46.56ZM134.316 43.29H138.036V51.18L144.396 43.29H147.306V57H143.586V48.66L136.866 57H134.316V43.29ZM164.887 43.29H168.607V51.18L174.967 43.29H177.877V57H174.157V48.66L167.437 57H164.887V43.29ZM185.91 57.21C185.17 57.21 184.48 57.13 183.84 56.97C183.22 56.81 182.66 56.61 182.16 56.37C181.68 56.13 181.26 55.87 180.9 55.59C180.56 55.31 180.3 55.05 180.12 54.81L182.49 52.59C182.81 52.99 183.26 53.34 183.84 53.64C184.42 53.92 185.09 54.06 185.85 54.06C187.39 54.06 188.16 53.53 188.16 52.47C188.16 52.07 187.99 51.73 187.65 51.45C187.31 51.17 186.72 51.03 185.88 51.03H183.96V48.42H185.46C186.1 48.42 186.6 48.33 186.96 48.15C187.32 47.95 187.5 47.65 187.5 47.25C187.5 46.91 187.32 46.65 186.96 46.47C186.6 46.27 186.13 46.17 185.55 46.17C185.01 46.17 184.48 46.29 183.96 46.53C183.46 46.75 183.03 47.03 182.67 47.37L180.66 45.27C180.88 45.01 181.15 44.75 181.47 44.49C181.81 44.23 182.2 44 182.64 43.8C183.08 43.58 183.58 43.4 184.14 43.26C184.7 43.12 185.31 43.05 185.97 43.05C186.75 43.05 187.46 43.14 188.1 43.32C188.74 43.5 189.29 43.75 189.75 44.07C190.21 44.37 190.56 44.75 190.8 45.21C191.06 45.65 191.19 46.14 191.19 46.68C191.19 47.32 191.02 47.88 190.68 48.36C190.34 48.84 189.87 49.22 189.27 49.5C190.17 49.78 190.84 50.2 191.28 50.76C191.74 51.32 191.97 51.99 191.97 52.77C191.97 53.39 191.83 53.97 191.55 54.51C191.27 55.05 190.87 55.52 190.35 55.92C189.83 56.32 189.19 56.64 188.43 56.88C187.69 57.1 186.85 57.21 185.91 57.21ZM195.806 63.75L198.116 57.15L192.506 43.98V43.29H196.226L199.856 52.26L203.036 43.29H206.396L206.366 43.98L199.166 64.2H195.806V63.75ZM216.223 52.02C215.823 52.2 215.353 52.35 214.813 52.47C214.293 52.57 213.703 52.62 213.043 52.62C212.203 52.62 211.443 52.52 210.763 52.32C210.103 52.12 209.533 51.8 209.053 51.36C208.573 50.92 208.203 50.35 207.943 49.65C207.703 48.95 207.583 48.1 207.583 47.1V43.29H211.303V46.95C211.303 47.73 211.483 48.33 211.843 48.75C212.203 49.15 212.923 49.35 214.003 49.35C214.823 49.35 215.563 49.25 216.223 49.05V43.29H219.943V57H216.223V52.02ZM228.885 57.21C228.065 57.21 227.265 57.04 226.485 56.7C225.725 56.36 225.045 55.88 224.445 55.26C223.865 54.64 223.395 53.9 223.035 53.04C222.675 52.16 222.495 51.19 222.495 50.13C222.495 49.07 222.665 48.11 223.005 47.25C223.365 46.37 223.835 45.62 224.415 45C225.015 44.38 225.695 43.9 226.455 43.56C227.235 43.22 228.045 43.05 228.885 43.05C229.905 43.05 230.805 43.25 231.585 43.65C232.385 44.05 233.015 44.54 233.475 45.12V43.29H236.985V57H233.475V55.14C232.975 55.76 232.325 56.26 231.525 56.64C230.725 57.02 229.845 57.21 228.885 57.21ZM229.875 54.03C230.895 54.03 231.705 53.68 232.305 52.98C232.925 52.26 233.245 51.33 233.265 50.19V49.95C233.265 48.89 232.955 48.02 232.335 47.34C231.715 46.66 230.895 46.32 229.875 46.32C229.415 46.32 228.975 46.4 228.555 46.56C228.135 46.72 227.765 46.96 227.445 47.28C227.125 47.6 226.875 48 226.695 48.48C226.515 48.96 226.425 49.51 226.425 50.13C226.425 51.33 226.745 52.28 227.385 52.98C228.045 53.68 228.875 54.03 229.875 54.03ZM240.531 43.29H244.251V48.15H246.141C246.341 47.35 246.661 46.64 247.101 46.02C247.541 45.38 248.061 44.84 248.661 44.4C249.281 43.96 249.961 43.63 250.701 43.41C251.441 43.17 252.211 43.05 253.011 43.05C254.071 43.05 255.041 43.22 255.921 43.56C256.801 43.88 257.561 44.35 258.201 44.97C258.841 45.57 259.341 46.31 259.701 47.19C260.061 48.05 260.241 49.03 260.241 50.13C260.241 51.27 260.041 52.28 259.641 53.16C259.261 54.04 258.731 54.78 258.051 55.38C257.391 55.98 256.621 56.44 255.741 56.76C254.861 57.06 253.941 57.21 252.981 57.21C252.041 57.21 251.171 57.07 250.371 56.79C249.571 56.51 248.861 56.12 248.241 55.62C247.641 55.1 247.141 54.47 246.741 53.73C246.361 52.99 246.111 52.16 245.991 51.24H244.251V57H240.531V43.29ZM253.011 53.97C254.091 53.97 254.911 53.61 255.471 52.89C256.051 52.17 256.341 51.26 256.341 50.16C256.341 49.02 256.041 48.09 255.441 47.37C254.861 46.65 254.041 46.29 252.981 46.29C251.921 46.29 251.091 46.65 250.491 47.37C249.911 48.07 249.621 48.96 249.621 50.04C249.621 51.18 249.921 52.12 250.521 52.86C251.141 53.6 251.971 53.97 253.011 53.97ZM265.683 46.56H261.273V43.29H273.783V46.56H269.373V57H265.683V46.56ZM290.116 43.29H293.836V51.18L300.196 43.29H303.106V57H299.386V48.66L292.666 57H290.116V43.29ZM313.029 57.21C311.929 57.21 310.939 57.04 310.059 56.7C309.179 56.36 308.419 55.89 307.779 55.29C307.159 54.67 306.679 53.93 306.339 53.07C305.999 52.21 305.829 51.25 305.829 50.19C305.829 49.07 306.009 48.07 306.369 47.19C306.749 46.29 307.259 45.54 307.899 44.94C308.539 44.32 309.299 43.85 310.179 43.53C311.059 43.21 312.009 43.05 313.029 43.05C314.189 43.05 315.239 43.25 316.179 43.65C317.139 44.05 317.889 44.55 318.429 45.15L316.509 47.67C316.109 47.23 315.639 46.88 315.099 46.62C314.579 46.36 313.989 46.23 313.329 46.23C312.209 46.23 311.319 46.59 310.659 47.31C310.019 48.03 309.699 48.95 309.699 50.07C309.699 51.23 310.029 52.19 310.689 52.95C311.369 53.69 312.279 54.06 313.419 54.06C314.079 54.06 314.669 53.93 315.189 53.67C315.709 53.39 316.169 53.03 316.569 52.59L318.759 54.75C318.159 55.53 317.359 56.14 316.359 56.58C315.379 57 314.269 57.21 313.029 57.21ZM324.145 46.56H319.735V43.29H332.245V46.56H327.835V57H324.145V46.56ZM340.602 57.21C339.522 57.21 338.522 57.04 337.602 56.7C336.702 56.36 335.922 55.88 335.262 55.26C334.622 54.62 334.112 53.87 333.732 53.01C333.372 52.15 333.192 51.19 333.192 50.13C333.192 49.07 333.372 48.11 333.732 47.25C334.112 46.37 334.632 45.62 335.292 45C335.952 44.38 336.732 43.9 337.632 43.56C338.552 43.22 339.542 43.05 340.602 43.05C341.682 43.05 342.672 43.22 343.572 43.56C344.492 43.9 345.282 44.39 345.942 45.03C346.602 45.65 347.112 46.4 347.472 47.28C347.832 48.14 348.012 49.09 348.012 50.13C348.012 51.21 347.822 52.19 347.442 53.07C347.062 53.93 346.542 54.67 345.882 55.29C345.222 55.89 344.442 56.36 343.542 56.7C342.642 57.04 341.662 57.21 340.602 57.21ZM340.602 54.06C341.702 54.06 342.562 53.69 343.182 52.95C343.802 52.21 344.112 51.27 344.112 50.13C344.112 48.99 343.812 48.06 343.212 47.34C342.612 46.6 341.742 46.23 340.602 46.23C339.482 46.23 338.612 46.6 337.992 47.34C337.372 48.08 337.062 49.01 337.062 50.13C337.062 50.67 337.142 51.18 337.302 51.66C337.462 52.14 337.692 52.56 337.992 52.92C338.292 53.28 338.662 53.56 339.102 53.76C339.542 53.96 340.042 54.06 340.602 54.06ZM350.702 64.2V43.29H354.212V45.12C354.672 44.54 355.292 44.05 356.072 43.65C356.872 43.25 357.782 43.05 358.802 43.05C359.642 43.05 360.442 43.22 361.202 43.56C361.982 43.9 362.662 44.38 363.242 45C363.842 45.62 364.312 46.37 364.652 47.25C365.012 48.11 365.192 49.07 365.192 50.13C365.192 51.19 365.012 52.16 364.652 53.04C364.292 53.9 363.812 54.64 363.212 55.26C362.632 55.88 361.952 56.36 361.172 56.7C360.412 57.04 359.622 57.21 358.802 57.21C357.902 57.21 357.072 57.05 356.312 56.73C355.552 56.39 354.922 55.94 354.422 55.38V64.2H350.702ZM357.812 46.32C356.792 46.32 355.982 46.65 355.382 47.31C354.782 47.95 354.462 48.78 354.422 49.8V50.19C354.442 51.33 354.752 52.26 355.352 52.98C355.972 53.68 356.792 54.03 357.812 54.03C358.812 54.03 359.632 53.68 360.272 52.98C360.932 52.28 361.262 51.33 361.262 50.13C361.262 49.51 361.162 48.96 360.962 48.48C360.782 48 360.532 47.6 360.212 47.28C359.912 46.96 359.552 46.72 359.132 46.56C358.712 46.4 358.272 46.32 357.812 46.32ZM367.928 43.29H371.648V51.18L378.008 43.29H380.918V57H377.198V48.66L370.478 57H367.928V43.29ZM384.452 43.29H388.172V48.15H390.062C390.262 47.35 390.582 46.64 391.022 46.02C391.462 45.38 391.982 44.84 392.582 44.4C393.202 43.96 393.882 43.63 394.622 43.41C395.362 43.17 396.132 43.05 396.932 43.05C397.992 43.05 398.962 43.22 399.842 43.56C400.722 43.88 401.482 44.35 402.122 44.97C402.762 45.57 403.262 46.31 403.622 47.19C403.982 48.05 404.162 49.03 404.162 50.13C404.162 51.27 403.962 52.28 403.562 53.16C403.182 54.04 402.652 54.78 401.972 55.38C401.312 55.98 400.542 56.44 399.662 56.76C398.782 57.06 397.862 57.21 396.902 57.21C395.962 57.21 395.092 57.07 394.292 56.79C393.492 56.51 392.782 56.12 392.162 55.62C391.562 55.1 391.062 54.47 390.662 53.73C390.282 52.99 390.032 52.16 389.912 51.24H388.172V57H384.452V43.29ZM396.932 53.97C398.012 53.97 398.832 53.61 399.392 52.89C399.972 52.17 400.262 51.26 400.262 50.16C400.262 49.02 399.962 48.09 399.362 47.37C398.782 46.65 397.962 46.29 396.902 46.29C395.842 46.29 395.012 46.65 394.412 47.37C393.832 48.07 393.542 48.96 393.542 50.04C393.542 51.18 393.842 52.12 394.442 52.86C395.062 53.6 395.892 53.97 396.932 53.97ZM419.141 56.49L423.101 49.68L419.921 43.8V43.29H423.641L426.251 48.39H427.751V43.29H431.441V48.39H432.911L435.551 43.29H439.151V43.8L436.031 49.62L440.081 56.49V57H436.121L432.851 51.21H431.441V57H427.751V51.21H426.311L423.071 57H419.141V56.49ZM441.829 43.29H445.549V51.18L451.909 43.29H454.819V57H451.099V48.66L444.379 57H441.829V43.29ZM458.353 43.29H465.763C467.183 43.29 468.253 43.6 468.973 44.22C469.693 44.82 470.053 45.61 470.053 46.59C470.053 47.33 469.873 47.94 469.513 48.42C469.153 48.9 468.683 49.24 468.103 49.44C469.083 49.58 469.883 49.92 470.503 50.46C471.123 51 471.433 51.81 471.433 52.89C471.433 54.21 470.943 55.23 469.963 55.95C469.003 56.65 467.593 57 465.733 57H458.353V43.29ZM462.073 50.82V54.27H464.923C465.863 54.27 466.533 54.13 466.933 53.85C467.333 53.55 467.533 53.11 467.533 52.53C467.533 51.93 467.323 51.5 466.903 51.24C466.483 50.96 465.853 50.82 465.013 50.82H462.073ZM462.073 46.02V48.66H464.653C465.933 48.66 466.573 48.21 466.573 47.31C466.573 46.45 465.923 46.02 464.623 46.02H462.073ZM480.363 57.21C479.283 57.21 478.283 57.04 477.363 56.7C476.463 56.36 475.683 55.88 475.023 55.26C474.383 54.62 473.873 53.87 473.493 53.01C473.133 52.15 472.953 51.19 472.953 50.13C472.953 49.07 473.133 48.11 473.493 47.25C473.873 46.37 474.393 45.62 475.053 45C475.713 44.38 476.493 43.9 477.393 43.56C478.313 43.22 479.303 43.05 480.363 43.05C481.443 43.05 482.433 43.22 483.333 43.56C484.253 43.9 485.043 44.39 485.703 45.03C486.363 45.65 486.873 46.4 487.233 47.28C487.593 48.14 487.773 49.09 487.773 50.13C487.773 51.21 487.583 52.19 487.203 53.07C486.823 53.93 486.303 54.67 485.643 55.29C484.983 55.89 484.203 56.36 483.303 56.7C482.403 57.04 481.423 57.21 480.363 57.21ZM480.363 54.06C481.463 54.06 482.323 53.69 482.943 52.95C483.563 52.21 483.873 51.27 483.873 50.13C483.873 48.99 483.573 48.06 482.973 47.34C482.373 46.6 481.503 46.23 480.363 46.23C479.243 46.23 478.373 46.6 477.753 47.34C477.133 48.08 476.823 49.01 476.823 50.13C476.823 50.67 476.903 51.18 477.063 51.66C477.223 52.14 477.453 52.56 477.753 52.92C478.053 53.28 478.423 53.56 478.863 53.76C479.303 53.96 479.803 54.06 480.363 54.06ZM490.462 43.29H503.362V57H499.672V46.56H494.182V57H490.462V43.29ZM506.927 43.29H510.647V51.18L517.007 43.29H519.917V57H516.197V48.66L509.477 57H506.927V43.29ZM529.84 57.21C528.74 57.21 527.75 57.04 526.87 56.7C525.99 56.36 525.23 55.89 524.59 55.29C523.97 54.67 523.49 53.93 523.15 53.07C522.81 52.21 522.64 51.25 522.64 50.19C522.64 49.07 522.82 48.07 523.18 47.19C523.56 46.29 524.07 45.54 524.71 44.94C525.35 44.32 526.11 43.85 526.99 43.53C527.87 43.21 528.82 43.05 529.84 43.05C531 43.05 532.05 43.25 532.99 43.65C533.95 44.05 534.7 44.55 535.24 45.15L533.32 47.67C532.92 47.23 532.45 46.88 531.91 46.62C531.39 46.36 530.8 46.23 530.14 46.23C529.02 46.23 528.13 46.59 527.47 47.31C526.83 48.03 526.51 48.95 526.51 50.07C526.51 51.23 526.84 52.19 527.5 52.95C528.18 53.69 529.09 54.06 530.23 54.06C530.89 54.06 531.48 53.93 532 53.67C532.52 53.39 532.98 53.03 533.38 52.59L535.57 54.75C534.97 55.53 534.17 56.14 533.17 56.58C532.19 57 531.08 57.21 529.84 57.21ZM537.806 43.29H541.526V51.18L547.886 43.29H550.796V57H547.076V48.66L540.356 57H537.806V43.29ZM555.619 57.15C555.019 57.05 554.559 56.82 554.239 56.46C553.939 56.08 553.789 55.63 553.789 55.11C553.789 54.45 553.999 53.93 554.419 53.55C554.859 53.15 555.379 52.95 555.979 52.95C556.619 52.95 557.169 53.16 557.629 53.58C558.109 54 558.349 54.6 558.349 55.38C558.349 55.9 558.209 56.48 557.929 57.12C557.649 57.76 557.219 58.59 556.639 59.61L555.439 61.8H553.039L555.619 57.15ZM582.418 57.21C581.338 57.21 580.338 57.04 579.418 56.7C578.518 56.36 577.738 55.88 577.078 55.26C576.438 54.62 575.928 53.87 575.548 53.01C575.188 52.15 575.008 51.19 575.008 50.13C575.008 49.07 575.188 48.11 575.548 47.25C575.928 46.37 576.448 45.62 577.108 45C577.768 44.38 578.548 43.9 579.448 43.56C580.368 43.22 581.358 43.05 582.418 43.05C583.498 43.05 584.488 43.22 585.388 43.56C586.308 43.9 587.098 44.39 587.758 45.03C588.418 45.65 588.928 46.4 589.288 47.28C589.648 48.14 589.828 49.09 589.828 50.13C589.828 51.21 589.638 52.19 589.258 53.07C588.878 53.93 588.358 54.67 587.698 55.29C587.038 55.89 586.258 56.36 585.358 56.7C584.458 57.04 583.478 57.21 582.418 57.21ZM582.418 54.06C583.518 54.06 584.378 53.69 584.998 52.95C585.618 52.21 585.928 51.27 585.928 50.13C585.928 48.99 585.628 48.06 585.028 47.34C584.428 46.6 583.558 46.23 582.418 46.23C581.298 46.23 580.428 46.6 579.808 47.34C579.188 48.08 578.878 49.01 578.878 50.13C578.878 50.67 578.958 51.18 579.118 51.66C579.278 52.14 579.508 52.56 579.808 52.92C580.108 53.28 580.478 53.56 580.918 53.76C581.358 53.96 581.858 54.06 582.418 54.06ZM601.937 51.6H596.237V57H592.517V43.29H596.237V48.33H601.937V43.29H605.657V57H601.937V51.6ZM609.187 43.29H612.907V51.18L619.267 43.29H622.177V57H618.457V48.66L611.737 57H609.187V43.29ZM639.758 43.29H652.658V57H648.968V46.56H643.478V57H639.758V43.29ZM662.823 57.21C661.743 57.21 660.743 57.04 659.823 56.7C658.923 56.36 658.143 55.88 657.483 55.26C656.843 54.62 656.333 53.87 655.953 53.01C655.593 52.15 655.413 51.19 655.413 50.13C655.413 49.07 655.593 48.11 655.953 47.25C656.333 46.37 656.853 45.62 657.513 45C658.173 44.38 658.953 43.9 659.853 43.56C660.773 43.22 661.763 43.05 662.823 43.05C663.903 43.05 664.893 43.22 665.793 43.56C666.713 43.9 667.503 44.39 668.163 45.03C668.823 45.65 669.333 46.4 669.693 47.28C670.053 48.14 670.233 49.09 670.233 50.13C670.233 51.21 670.043 52.19 669.663 53.07C669.283 53.93 668.763 54.67 668.103 55.29C667.443 55.89 666.663 56.36 665.763 56.7C664.863 57.04 663.883 57.21 662.823 57.21ZM662.823 54.06C663.923 54.06 664.783 53.69 665.403 52.95C666.023 52.21 666.333 51.27 666.333 50.13C666.333 48.99 666.033 48.06 665.433 47.34C664.833 46.6 663.963 46.23 662.823 46.23C661.703 46.23 660.833 46.6 660.213 47.34C659.593 48.08 659.283 49.01 659.283 50.13C659.283 50.67 659.363 51.18 659.523 51.66C659.683 52.14 659.913 52.56 660.213 52.92C660.513 53.28 660.883 53.56 661.323 53.76C661.763 53.96 662.263 54.06 662.823 54.06ZM682.342 51.6H676.642V57H672.922V43.29H676.642V48.33H682.342V43.29H686.062V57H682.342V51.6ZM689.592 43.29H693.312V51.18L699.672 43.29H702.582V57H698.862V48.66L692.142 57H689.592V43.29ZM707.466 43.29H710.646L714.276 51.24L717.696 43.29H720.966L723.246 57H719.766L718.446 48.99L714.906 57H713.316L709.746 49.14L708.456 57H705.156L707.466 43.29ZM731.178 57.21C730.358 57.21 729.558 57.04 728.778 56.7C728.018 56.36 727.338 55.88 726.738 55.26C726.158 54.64 725.688 53.9 725.328 53.04C724.968 52.16 724.788 51.19 724.788 50.13C724.788 49.07 724.958 48.11 725.298 47.25C725.658 46.37 726.128 45.62 726.708 45C727.308 44.38 727.988 43.9 728.748 43.56C729.528 43.22 730.338 43.05 731.178 43.05C732.198 43.05 733.098 43.25 733.878 43.65C734.678 44.05 735.308 44.54 735.768 45.12V43.29H739.278V57H735.768V55.14C735.268 55.76 734.618 56.26 733.818 56.64C733.018 57.02 732.138 57.21 731.178 57.21ZM732.168 54.03C733.188 54.03 733.998 53.68 734.598 52.98C735.218 52.26 735.538 51.33 735.558 50.19V49.95C735.558 48.89 735.248 48.02 734.628 47.34C734.008 46.66 733.188 46.32 732.168 46.32C731.708 46.32 731.268 46.4 730.848 46.56C730.428 46.72 730.058 46.96 729.738 47.28C729.418 47.6 729.168 48 728.988 48.48C728.808 48.96 728.718 49.51 728.718 50.13C728.718 51.33 729.038 52.28 729.678 52.98C730.338 53.68 731.168 54.03 732.168 54.03ZM742.825 43.29H746.545V48.15H748.435C748.635 47.35 748.955 46.64 749.395 46.02C749.835 45.38 750.355 44.84 750.955 44.4C751.575 43.96 752.255 43.63 752.995 43.41C753.735 43.17 754.505 43.05 755.305 43.05C756.365 43.05 757.335 43.22 758.215 43.56C759.095 43.88 759.855 44.35 760.495 44.97C761.135 45.57 761.635 46.31 761.995 47.19C762.355 48.05 762.535 49.03 762.535 50.13C762.535 51.27 762.335 52.28 761.935 53.16C761.555 54.04 761.025 54.78 760.345 55.38C759.685 55.98 758.915 56.44 758.035 56.76C757.155 57.06 756.235 57.21 755.275 57.21C754.335 57.21 753.465 57.07 752.665 56.79C751.865 56.51 751.155 56.12 750.535 55.62C749.935 55.1 749.435 54.47 749.035 53.73C748.655 52.99 748.405 52.16 748.285 51.24H746.545V57H742.825V43.29ZM755.305 53.97C756.385 53.97 757.205 53.61 757.765 52.89C758.345 52.17 758.635 51.26 758.635 50.16C758.635 49.02 758.335 48.09 757.735 47.37C757.155 46.65 756.335 46.29 755.275 46.29C754.215 46.29 753.385 46.65 752.785 47.37C752.205 48.07 751.915 48.96 751.915 50.04C751.915 51.18 752.215 52.12 752.815 52.86C753.435 53.6 754.265 53.97 755.305 53.97ZM767.977 46.56H763.567V43.29H776.077V46.56H771.667V57H767.977V46.56ZM792.409 43.29H805.309V57H801.619V46.56H796.129V57H792.409V43.29ZM815.474 57.21C814.394 57.21 813.394 57.04 812.474 56.7C811.574 56.36 810.794 55.88 810.134 55.26C809.494 54.62 808.984 53.87 808.604 53.01C808.244 52.15 808.064 51.19 808.064 50.13C808.064 49.07 808.244 48.11 808.604 47.25C808.984 46.37 809.504 45.62 810.164 45C810.824 44.38 811.604 43.9 812.504 43.56C813.424 43.22 814.414 43.05 815.474 43.05C816.554 43.05 817.544 43.22 818.444 43.56C819.364 43.9 820.154 44.39 820.814 45.03C821.474 45.65 821.984 46.4 822.344 47.28C822.704 48.14 822.884 49.09 822.884 50.13C822.884 51.21 822.694 52.19 822.314 53.07C821.934 53.93 821.414 54.67 820.754 55.29C820.094 55.89 819.314 56.36 818.414 56.7C817.514 57.04 816.534 57.21 815.474 57.21ZM815.474 54.06C816.574 54.06 817.434 53.69 818.054 52.95C818.674 52.21 818.984 51.27 818.984 50.13C818.984 48.99 818.684 48.06 818.084 47.34C817.484 46.6 816.614 46.23 815.474 46.23C814.354 46.23 813.484 46.6 812.864 47.34C812.244 48.08 811.934 49.01 811.934 50.13C811.934 50.67 812.014 51.18 812.174 51.66C812.334 52.14 812.564 52.56 812.864 52.92C813.164 53.28 813.534 53.56 813.974 53.76C814.414 53.96 814.914 54.06 815.474 54.06ZM833.433 52.02C833.033 52.2 832.563 52.35 832.023 52.47C831.503 52.57 830.913 52.62 830.253 52.62C829.413 52.62 828.653 52.52 827.973 52.32C827.313 52.12 826.743 51.8 826.263 51.36C825.783 50.92 825.413 50.35 825.153 49.65C824.913 48.95 824.793 48.1 824.793 47.1V43.29H828.513V46.95C828.513 47.73 828.693 48.33 829.053 48.75C829.413 49.15 830.133 49.35 831.213 49.35C832.033 49.35 832.773 49.25 833.433 49.05V43.29H837.153V57H833.433V52.02ZM847.145 57.21C846.045 57.21 845.035 57.04 844.115 56.7C843.215 56.36 842.435 55.89 841.775 55.29C841.115 54.67 840.605 53.94 840.245 53.1C839.885 52.24 839.705 51.29 839.705 50.25C839.705 49.15 839.895 48.16 840.275 47.28C840.655 46.38 841.175 45.62 841.835 45C842.495 44.38 843.265 43.9 844.145 43.56C845.025 43.22 845.965 43.05 846.965 43.05C848.045 43.05 849.005 43.24 849.845 43.62C850.705 43.98 851.425 44.49 852.005 45.15C852.585 45.79 853.025 46.55 853.325 47.43C853.645 48.29 853.805 49.22 853.805 50.22V51H843.305C843.485 52.06 843.935 52.87 844.655 53.43C845.395 53.99 846.325 54.27 847.445 54.27C848.245 54.27 848.985 54.13 849.665 53.85C850.365 53.55 850.945 53.14 851.405 52.62L853.475 54.51C852.775 55.39 851.875 56.06 850.775 56.52C849.675 56.98 848.465 57.21 847.145 57.21ZM846.815 46.05C845.935 46.05 845.195 46.29 844.595 46.77C844.015 47.23 843.615 47.89 843.395 48.75H850.235C850.115 47.99 849.755 47.35 849.155 46.83C848.555 46.31 847.775 46.05 846.815 46.05ZM856.54 64.2V43.29H860.05V45.12C860.51 44.54 861.13 44.05 861.91 43.65C862.71 43.25 863.62 43.05 864.64 43.05C865.48 43.05 866.28 43.22 867.04 43.56C867.82 43.9 868.5 44.38 869.08 45C869.68 45.62 870.15 46.37 870.49 47.25C870.85 48.11 871.03 49.07 871.03 50.13C871.03 51.19 870.85 52.16 870.49 53.04C870.13 53.9 869.65 54.64 869.05 55.26C868.47 55.88 867.79 56.36 867.01 56.7C866.25 57.04 865.46 57.21 864.64 57.21C863.74 57.21 862.91 57.05 862.15 56.73C861.39 56.39 860.76 55.94 860.26 55.38V64.2H856.54ZM863.65 46.32C862.63 46.32 861.82 46.65 861.22 47.31C860.62 47.95 860.3 48.78 860.26 49.8V50.19C860.28 51.33 860.59 52.26 861.19 52.98C861.81 53.68 862.63 54.03 863.65 54.03C864.65 54.03 865.47 53.68 866.11 52.98C866.77 52.28 867.1 51.33 867.1 50.13C867.1 49.51 867 48.96 866.8 48.48C866.62 48 866.37 47.6 866.05 47.28C865.75 46.96 865.39 46.72 864.97 46.56C864.55 46.4 864.11 46.32 863.65 46.32ZM873.767 43.29H877.487V48.33H878.927L882.227 43.29H886.097V43.8L882.017 49.53L887.117 56.49V57H882.977L878.837 51.15H877.487V57H873.767V43.29ZM906.052 46.56H901.642V43.29H914.152V46.56H909.742V57H906.052V46.56ZM922.51 57.21C921.43 57.21 920.43 57.04 919.51 56.7C918.61 56.36 917.83 55.88 917.17 55.26C916.53 54.62 916.02 53.87 915.64 53.01C915.28 52.15 915.1 51.19 915.1 50.13C915.1 49.07 915.28 48.11 915.64 47.25C916.02 46.37 916.54 45.62 917.2 45C917.86 44.38 918.64 43.9 919.54 43.56C920.46 43.22 921.45 43.05 922.51 43.05C923.59 43.05 924.58 43.22 925.48 43.56C926.4 43.9 927.19 44.39 927.85 45.03C928.51 45.65 929.02 46.4 929.38 47.28C929.74 48.14 929.92 49.09 929.92 50.13C929.92 51.21 929.73 52.19 929.35 53.07C928.97 53.93 928.45 54.67 927.79 55.29C927.13 55.89 926.35 56.36 925.45 56.7C924.55 57.04 923.57 57.21 922.51 57.21ZM922.51 54.06C923.61 54.06 924.47 53.69 925.09 52.95C925.71 52.21 926.02 51.27 926.02 50.13C926.02 48.99 925.72 48.06 925.12 47.34C924.52 46.6 923.65 46.23 922.51 46.23C921.39 46.23 920.52 46.6 919.9 47.34C919.28 48.08 918.97 49.01 918.97 50.13C918.97 50.67 919.05 51.18 919.21 51.66C919.37 52.14 919.6 52.56 919.9 52.92C920.2 53.28 920.57 53.56 921.01 53.76C921.45 53.96 921.95 54.06 922.51 54.06ZM932.609 43.29H942.119V46.56H936.329V57H932.609V43.29ZM950.694 57.21C949.614 57.21 948.614 57.04 947.694 56.7C946.794 56.36 946.014 55.88 945.354 55.26C944.714 54.62 944.204 53.87 943.824 53.01C943.464 52.15 943.284 51.19 943.284 50.13C943.284 49.07 943.464 48.11 943.824 47.25C944.204 46.37 944.724 45.62 945.384 45C946.044 44.38 946.824 43.9 947.724 43.56C948.644 43.22 949.634 43.05 950.694 43.05C951.774 43.05 952.764 43.22 953.664 43.56C954.584 43.9 955.374 44.39 956.034 45.03C956.694 45.65 957.204 46.4 957.564 47.28C957.924 48.14 958.104 49.09 958.104 50.13C958.104 51.21 957.914 52.19 957.534 53.07C957.154 53.93 956.634 54.67 955.974 55.29C955.314 55.89 954.534 56.36 953.634 56.7C952.734 57.04 951.754 57.21 950.694 57.21ZM950.694 54.06C951.794 54.06 952.654 53.69 953.274 52.95C953.894 52.21 954.204 51.27 954.204 50.13C954.204 48.99 953.904 48.06 953.304 47.34C952.704 46.6 951.834 46.23 950.694 46.23C949.574 46.23 948.704 46.6 948.084 47.34C947.464 48.08 947.154 49.01 947.154 50.13C947.154 50.67 947.234 51.18 947.394 51.66C947.554 52.14 947.784 52.56 948.084 52.92C948.384 53.28 948.754 53.56 949.194 53.76C949.634 53.96 950.134 54.06 950.694 54.06ZM974.84 43.29H978.56V51.18L984.92 43.29H987.83V57H984.11V48.66L977.39 57H974.84V43.29ZM990.914 57.3C990.694 57.3 990.494 57.29 990.314 57.27C990.154 57.25 990.014 57.23 989.894 57.21V53.64C990.094 53.68 990.254 53.7 990.374 53.7C990.714 53.7 991.004 53.58 991.244 53.34C991.484 53.08 991.674 52.67 991.814 52.11C991.974 51.53 992.084 50.78 992.144 49.86C992.224 48.94 992.264 47.82 992.264 46.5V43.29H1002.67V57H998.984V46.56H995.684V48.18C995.684 49.9 995.574 51.34 995.354 52.5C995.154 53.66 994.844 54.6 994.424 55.32C994.024 56.02 993.524 56.53 992.924 56.85C992.344 57.15 991.674 57.3 990.914 57.3ZM1006.25 43.29H1009.97V51.18L1016.33 43.29H1019.24V57H1015.52V48.66L1008.8 57H1006.25V43.29ZM29.77 79.29H33.49V87.18L39.85 79.29H42.76V93H39.04V84.66L32.32 93H29.77V79.29ZM55.7134 87.6H50.0134V93H46.2934V79.29H50.0134V84.33H55.7134V79.29H59.4334V93H55.7134V87.6ZM69.5634 93.21C68.4834 93.21 67.4834 93.04 66.5634 92.7C65.6634 92.36 64.8834 91.88 64.2234 91.26C63.5834 90.62 63.0734 89.87 62.6934 89.01C62.3334 88.15 62.1534 87.19 62.1534 86.13C62.1534 85.07 62.3334 84.11 62.6934 83.25C63.0734 82.37 63.5934 81.62 64.2534 81C64.9134 80.38 65.6934 79.9 66.5934 79.56C67.5134 79.22 68.5034 79.05 69.5634 79.05C70.6434 79.05 71.6334 79.22 72.5334 79.56C73.4534 79.9 74.2434 80.39 74.9034 81.03C75.5634 81.65 76.0734 82.4 76.4334 83.28C76.7934 84.14 76.9734 85.09 76.9734 86.13C76.9734 87.21 76.7834 88.19 76.4034 89.07C76.0234 89.93 75.5034 90.67 74.8434 91.29C74.1834 91.89 73.4034 92.36 72.5034 92.7C71.6034 93.04 70.6234 93.21 69.5634 93.21ZM69.5634 90.06C70.6634 90.06 71.5234 89.69 72.1434 88.95C72.7634 88.21 73.0734 87.27 73.0734 86.13C73.0734 84.99 72.7734 84.06 72.1734 83.34C71.5734 82.6 70.7034 82.23 69.5634 82.23C68.4434 82.23 67.5734 82.6 66.9534 83.34C66.3334 84.08 66.0234 85.01 66.0234 86.13C66.0234 86.67 66.1034 87.18 66.2634 87.66C66.4234 88.14 66.6534 88.56 66.9534 88.92C67.2534 89.28 67.6234 89.56 68.0634 89.76C68.5034 89.96 69.0034 90.06 69.5634 90.06ZM79.6626 79.29H89.1726V82.56H83.3826V93H79.6626V79.29ZM97.747 93.21C96.667 93.21 95.667 93.04 94.747 92.7C93.847 92.36 93.067 91.88 92.407 91.26C91.767 90.62 91.257 89.87 90.877 89.01C90.517 88.15 90.337 87.19 90.337 86.13C90.337 85.07 90.517 84.11 90.877 83.25C91.257 82.37 91.777 81.62 92.437 81C93.097 80.38 93.877 79.9 94.777 79.56C95.697 79.22 96.687 79.05 97.747 79.05C98.827 79.05 99.817 79.22 100.717 79.56C101.637 79.9 102.427 80.39 103.087 81.03C103.747 81.65 104.257 82.4 104.617 83.28C104.977 84.14 105.157 85.09 105.157 86.13C105.157 87.21 104.967 88.19 104.587 89.07C104.207 89.93 103.687 90.67 103.027 91.29C102.367 91.89 101.587 92.36 100.687 92.7C99.787 93.04 98.807 93.21 97.747 93.21ZM97.747 90.06C98.847 90.06 99.707 89.69 100.327 88.95C100.947 88.21 101.257 87.27 101.257 86.13C101.257 84.99 100.957 84.06 100.357 83.34C99.757 82.6 98.887 82.23 97.747 82.23C96.627 82.23 95.757 82.6 95.137 83.34C94.517 84.08 94.207 85.01 94.207 86.13C94.207 86.67 94.287 87.18 94.447 87.66C94.607 88.14 94.837 88.56 95.137 88.92C95.437 89.28 95.807 89.56 96.247 89.76C96.687 89.96 97.187 90.06 97.747 90.06ZM114.199 92.31L118.549 85.8L114.559 79.98V79.29H118.459L121.159 83.31L123.739 79.29H127.279V79.98L123.349 85.89L127.699 92.34L127.729 93H123.919L120.859 88.44L117.829 93H114.199V92.31ZM131.53 99.75L133.84 93.15L128.23 79.98V79.29H131.95L135.58 88.26L138.76 79.29H142.12L142.09 79.98L134.89 100.2H131.53V99.75ZM141.91 89.73H143.56C144.08 88.65 144.47 87.45 144.73 86.13C144.99 84.79 145.12 83.21 145.12 81.39V79.29H155.8V89.73H157.9V96.06H154.87V93H144.97V96.06H141.91V89.73ZM148.45 82.65C148.45 85.43 148.04 87.79 147.22 89.73H152.08V82.56H148.45V82.65ZM166.331 93.21C165.251 93.21 164.251 93.04 163.331 92.7C162.431 92.36 161.651 91.88 160.991 91.26C160.351 90.62 159.841 89.87 159.461 89.01C159.101 88.15 158.921 87.19 158.921 86.13C158.921 85.07 159.101 84.11 159.461 83.25C159.841 82.37 160.361 81.62 161.021 81C161.681 80.38 162.461 79.9 163.361 79.56C164.281 79.22 165.271 79.05 166.331 79.05C167.411 79.05 168.401 79.22 169.301 79.56C170.221 79.9 171.011 80.39 171.671 81.03C172.331 81.65 172.841 82.4 173.201 83.28C173.561 84.14 173.741 85.09 173.741 86.13C173.741 87.21 173.551 88.19 173.171 89.07C172.791 89.93 172.271 90.67 171.611 91.29C170.951 91.89 170.171 92.36 169.271 92.7C168.371 93.04 167.391 93.21 166.331 93.21ZM166.331 90.06C167.431 90.06 168.291 89.69 168.911 88.95C169.531 88.21 169.841 87.27 169.841 86.13C169.841 84.99 169.541 84.06 168.941 83.34C168.341 82.6 167.471 82.23 166.331 82.23C165.211 82.23 164.341 82.6 163.721 83.34C163.101 84.08 162.791 85.01 162.791 86.13C162.791 86.67 162.871 87.18 163.031 87.66C163.191 88.14 163.421 88.56 163.721 88.92C164.021 89.28 164.391 89.56 164.831 89.76C165.271 89.96 165.771 90.06 166.331 90.06ZM174.22 92.49L178.18 85.68L175 79.8V79.29H178.72L181.33 84.39H182.83V79.29H186.52V84.39H187.99L190.63 79.29H194.23V79.8L191.11 85.62L195.16 92.49V93H191.2L187.93 87.21H186.52V93H182.83V87.21H181.39L178.15 93H174.22V92.49ZM206.329 87.6H200.629V93H196.909V79.29H200.629V84.33H206.329V79.29H210.049V93H206.329V87.6ZM213.579 79.29H217.299V87.18L223.659 79.29H226.569V93H222.849V84.66L216.129 93H213.579V79.29ZM230.102 79.29H233.822V84.33H235.262L238.562 79.29H242.432V79.8L238.352 85.53L243.452 92.49V93H239.312L235.172 87.15H233.822V93H230.102V79.29ZM250.243 93.21C249.423 93.21 248.623 93.04 247.843 92.7C247.083 92.36 246.403 91.88 245.803 91.26C245.223 90.64 244.753 89.9 244.393 89.04C244.033 88.16 243.853 87.19 243.853 86.13C243.853 85.07 244.023 84.11 244.363 83.25C244.723 82.37 245.193 81.62 245.773 81C246.373 80.38 247.053 79.9 247.813 79.56C248.593 79.22 249.403 79.05 250.243 79.05C251.263 79.05 252.163 79.25 252.943 79.65C253.743 80.05 254.373 80.54 254.833 81.12V79.29H258.343V93H254.833V91.14C254.333 91.76 253.683 92.26 252.883 92.64C252.083 93.02 251.203 93.21 250.243 93.21ZM251.233 90.03C252.253 90.03 253.063 89.68 253.663 88.98C254.283 88.26 254.603 87.33 254.623 86.19V85.95C254.623 84.89 254.313 84.02 253.693 83.34C253.073 82.66 252.253 82.32 251.233 82.32C250.773 82.32 250.333 82.4 249.913 82.56C249.493 82.72 249.123 82.96 248.803 83.28C248.483 83.6 248.233 84 248.053 84.48C247.873 84.96 247.783 85.51 247.783 86.13C247.783 87.33 248.103 88.28 248.743 88.98C249.403 89.68 250.233 90.03 251.233 90.03Z" fill="black"/>
<defs>
<linearGradient id="paint0_linear_91_4" x1="1300.47" y1="66.8962" x2="-206.432" y2="66.8962" gradientUnits="userSpaceOnUse">
<stop stop-color="white" stop-opacity="0.64"/>
<stop offset="0.325" stop-color="#2736C1" stop-opacity="0.72"/>
<stop offset="1" stop-color="#091FEA"/>
</linearGradient>
</defs>
</svg>
