<svg width="1231" height="166" viewBox="0 0 1231 166" fill="none" xmlns="http://www.w3.org/2000/svg">
<path d="M1072.72 71.8548C1065.81 68.5198 1061.41 61.5186 1061.41 53.8393V20C1061.41 8.95432 1052.45 0 1041.41 0H19.9979C8.95215 0 -0.00219727 8.9543 -0.00219727 20V66.3999V146C-0.00219727 157.046 8.95215 166 19.9978 166L1180.46 166C1201.72 166 1208.3 137.218 1189.15 127.984L1072.72 71.8548Z" fill="url(#paint0_linear_82_5)" fill-opacity="0.76"/>
<circle cx="1077.5" cy="141.5" r="4.5" fill="black"/>
<circle cx="1103.5" cy="141.5" r="4.5" fill="black"/>
<circle cx="1129.5" cy="141.5" r="4.5" fill="black"/>
<circle cx="1155.5" cy="141.5" r="4.5" fill="black"/>
<path d="M12.36 64.4L17.34 56.15C16.36 55.63 15.59 54.9 15.03 53.96C14.47 53 14.19 51.87 14.19 50.57C14.19 49.57 14.36 48.67 14.7 47.87C15.06 47.05 15.55 46.36 16.17 45.8C16.81 45.22 17.58 44.78 18.48 44.48C19.38 44.16 20.39 44 21.51 44H27.99V65H23.97V57.02H21.27L16.65 65H12.36V64.4ZM23.97 53.54V47.45H21.78C20.66 47.45 19.8 47.75 19.2 48.35C18.62 48.93 18.33 49.66 18.33 50.54C18.33 51.38 18.61 52.09 19.17 52.67C19.75 53.25 20.64 53.54 21.84 53.54H23.97ZM45.1105 65.21C44.3705 65.21 43.6805 65.13 43.0405 64.97C42.4205 64.81 41.8605 64.61 41.3605 64.37C40.8805 64.13 40.4605 63.87 40.1005 63.59C39.7605 63.31 39.5005 63.05 39.3205 62.81L41.6905 60.59C42.0105 60.99 42.4605 61.34 43.0405 61.64C43.6205 61.92 44.2905 62.06 45.0505 62.06C46.5905 62.06 47.3605 61.53 47.3605 60.47C47.3605 60.07 47.1905 59.73 46.8505 59.45C46.5105 59.17 45.9205 59.03 45.0805 59.03H43.1605V56.42H44.6605C45.3005 56.42 45.8005 56.33 46.1605 56.15C46.5205 55.95 46.7005 55.65 46.7005 55.25C46.7005 54.91 46.5205 54.65 46.1605 54.47C45.8005 54.27 45.3305 54.17 44.7505 54.17C44.2105 54.17 43.6805 54.29 43.1605 54.53C42.6605 54.75 42.2305 55.03 41.8705 55.37L39.8605 53.27C40.0805 53.01 40.3505 52.75 40.6705 52.49C41.0105 52.23 41.4005 52 41.8405 51.8C42.2805 51.58 42.7805 51.4 43.3405 51.26C43.9005 51.12 44.5105 51.05 45.1705 51.05C45.9505 51.05 46.6605 51.14 47.3005 51.32C47.9405 51.5 48.4905 51.75 48.9505 52.07C49.4105 52.37 49.7605 52.75 50.0005 53.21C50.2605 53.65 50.3905 54.14 50.3905 54.68C50.3905 55.32 50.2205 55.88 49.8805 56.36C49.5405 56.84 49.0705 57.22 48.4705 57.5C49.3705 57.78 50.0405 58.2 50.4805 58.76C50.9405 59.32 51.1705 59.99 51.1705 60.77C51.1705 61.39 51.0305 61.97 50.7505 62.51C50.4705 63.05 50.0705 63.52 49.5505 63.92C49.0305 64.32 48.3905 64.64 47.6305 64.88C46.8905 65.1 46.0505 65.21 45.1105 65.21ZM59.2569 65.21C58.4369 65.21 57.6369 65.04 56.8569 64.7C56.0969 64.36 55.4169 63.88 54.8169 63.26C54.2369 62.64 53.7669 61.9 53.4069 61.04C53.0469 60.16 52.8669 59.19 52.8669 58.13C52.8669 57.07 53.0369 56.11 53.3769 55.25C53.7369 54.37 54.2069 53.62 54.7869 53C55.3869 52.38 56.0669 51.9 56.8269 51.56C57.6069 51.22 58.4169 51.05 59.2569 51.05C60.2769 51.05 61.1769 51.25 61.9569 51.65C62.7569 52.05 63.3869 52.54 63.8469 53.12V51.29H67.3569V65H63.8469V63.14C63.3469 63.76 62.6969 64.26 61.8969 64.64C61.0969 65.02 60.2169 65.21 59.2569 65.21ZM60.2469 62.03C61.2669 62.03 62.0769 61.68 62.6769 60.98C63.2969 60.26 63.6169 59.33 63.6369 58.19V57.95C63.6369 56.89 63.3269 56.02 62.7069 55.34C62.0869 54.66 61.2669 54.32 60.2469 54.32C59.7869 54.32 59.3469 54.4 58.9269 54.56C58.5069 54.72 58.1369 54.96 57.8169 55.28C57.4969 55.6 57.2469 56 57.0669 56.48C56.8869 56.96 56.7969 57.51 56.7969 58.13C56.7969 59.33 57.1169 60.28 57.7569 60.98C58.4169 61.68 59.2469 62.03 60.2469 62.03ZM85.7062 65.21C84.6062 65.21 83.6162 65.04 82.7362 64.7C81.8562 64.36 81.0962 63.89 80.4562 63.29C79.8362 62.67 79.3562 61.93 79.0162 61.07C78.6762 60.21 78.5062 59.25 78.5062 58.19C78.5062 57.07 78.6862 56.07 79.0462 55.19C79.4262 54.29 79.9362 53.54 80.5762 52.94C81.2162 52.32 81.9762 51.85 82.8562 51.53C83.7362 51.21 84.6862 51.05 85.7062 51.05C86.8662 51.05 87.9162 51.25 88.8562 51.65C89.8162 52.05 90.5662 52.55 91.1062 53.15L89.1862 55.67C88.7862 55.23 88.3162 54.88 87.7762 54.62C87.2562 54.36 86.6662 54.23 86.0062 54.23C84.8862 54.23 83.9962 54.59 83.3362 55.31C82.6962 56.03 82.3762 56.95 82.3762 58.07C82.3762 59.23 82.7062 60.19 83.3662 60.95C84.0462 61.69 84.9562 62.06 86.0962 62.06C86.7562 62.06 87.3462 61.93 87.8662 61.67C88.3862 61.39 88.8462 61.03 89.2462 60.59L91.4362 62.75C90.8362 63.53 90.0362 64.14 89.0362 64.58C88.0562 65 86.9462 65.21 85.7062 65.21ZM100.125 65.21C99.0452 65.21 98.0452 65.04 97.1252 64.7C96.2252 64.36 95.4452 63.88 94.7852 63.26C94.1452 62.62 93.6352 61.87 93.2552 61.01C92.8952 60.15 92.7152 59.19 92.7152 58.13C92.7152 57.07 92.8952 56.11 93.2552 55.25C93.6352 54.37 94.1552 53.62 94.8152 53C95.4752 52.38 96.2552 51.9 97.1552 51.56C98.0752 51.22 99.0652 51.05 100.125 51.05C101.205 51.05 102.195 51.22 103.095 51.56C104.015 51.9 104.805 52.39 105.465 53.03C106.125 53.65 106.635 54.4 106.995 55.28C107.355 56.14 107.535 57.09 107.535 58.13C107.535 59.21 107.345 60.19 106.965 61.07C106.585 61.93 106.065 62.67 105.405 63.29C104.745 63.89 103.965 64.36 103.065 64.7C102.165 65.04 101.185 65.21 100.125 65.21ZM100.125 62.06C101.225 62.06 102.085 61.69 102.705 60.95C103.325 60.21 103.635 59.27 103.635 58.13C103.635 56.99 103.335 56.06 102.735 55.34C102.135 54.6 101.265 54.23 100.125 54.23C99.0052 54.23 98.1352 54.6 97.5152 55.34C96.8952 56.08 96.5852 57.01 96.5852 58.13C96.5852 58.67 96.6652 59.18 96.8252 59.66C96.9852 60.14 97.2152 60.56 97.5152 60.92C97.8152 61.28 98.1852 61.56 98.6252 61.76C99.0652 61.96 99.5652 62.06 100.125 62.06ZM110.224 51.29H117.634C119.054 51.29 120.124 51.6 120.844 52.22C121.564 52.82 121.924 53.61 121.924 54.59C121.924 55.33 121.744 55.94 121.384 56.42C121.024 56.9 120.554 57.24 119.974 57.44C120.954 57.58 121.754 57.92 122.374 58.46C122.994 59 123.304 59.81 123.304 60.89C123.304 62.21 122.814 63.23 121.834 63.95C120.874 64.65 119.464 65 117.604 65H110.224V51.29ZM113.944 58.82V62.27H116.794C117.734 62.27 118.404 62.13 118.804 61.85C119.204 61.55 119.404 61.11 119.404 60.53C119.404 59.93 119.194 59.5 118.774 59.24C118.354 58.96 117.724 58.82 116.884 58.82H113.944ZM113.944 54.02V56.66H116.524C117.804 56.66 118.444 56.21 118.444 55.31C118.444 54.45 117.794 54.02 116.494 54.02H113.944ZM125.635 72.2V51.29H129.145V53.12C129.605 52.54 130.225 52.05 131.005 51.65C131.805 51.25 132.715 51.05 133.735 51.05C134.575 51.05 135.375 51.22 136.135 51.56C136.915 51.9 137.595 52.38 138.175 53C138.775 53.62 139.245 54.37 139.585 55.25C139.945 56.11 140.125 57.07 140.125 58.13C140.125 59.19 139.945 60.16 139.585 61.04C139.225 61.9 138.745 62.64 138.145 63.26C137.565 63.88 136.885 64.36 136.105 64.7C135.345 65.04 134.555 65.21 133.735 65.21C132.835 65.21 132.005 65.05 131.245 64.73C130.485 64.39 129.855 63.94 129.355 63.38V72.2H125.635ZM132.745 54.32C131.725 54.32 130.915 54.65 130.315 55.31C129.715 55.95 129.395 56.78 129.355 57.8V58.19C129.375 59.33 129.685 60.26 130.285 60.98C130.905 61.68 131.725 62.03 132.745 62.03C133.745 62.03 134.565 61.68 135.205 60.98C135.865 60.28 136.195 59.33 136.195 58.13C136.195 57.51 136.095 56.96 135.895 56.48C135.715 56 135.465 55.6 135.145 55.28C134.845 54.96 134.485 54.72 134.065 54.56C133.645 54.4 133.205 54.32 132.745 54.32ZM149.491 65.21C148.391 65.21 147.381 65.04 146.461 64.7C145.561 64.36 144.781 63.89 144.121 63.29C143.461 62.67 142.951 61.94 142.591 61.1C142.231 60.24 142.051 59.29 142.051 58.25C142.051 57.15 142.241 56.16 142.621 55.28C143.001 54.38 143.521 53.62 144.181 53C144.841 52.38 145.611 51.9 146.491 51.56C147.371 51.22 148.311 51.05 149.311 51.05C150.391 51.05 151.351 51.24 152.191 51.62C153.051 51.98 153.771 52.49 154.351 53.15C154.931 53.79 155.371 54.55 155.671 55.43C155.991 56.29 156.151 57.22 156.151 58.22V59H145.651C145.831 60.06 146.281 60.87 147.001 61.43C147.741 61.99 148.671 62.27 149.791 62.27C150.591 62.27 151.331 62.13 152.011 61.85C152.711 61.55 153.291 61.14 153.751 60.62L155.821 62.51C155.121 63.39 154.221 64.06 153.121 64.52C152.021 64.98 150.811 65.21 149.491 65.21ZM149.161 54.05C148.281 54.05 147.541 54.29 146.941 54.77C146.361 55.23 145.961 55.89 145.741 56.75H152.581C152.461 55.99 152.101 55.35 151.501 54.83C150.901 54.31 150.121 54.05 149.161 54.05ZM160.09 51.29H163.27L166.9 59.24L170.32 51.29H173.59L175.87 65H172.39L171.07 56.99L167.53 65H165.94L162.37 57.14L161.08 65H157.78L160.09 51.29ZM184.852 65.21C183.752 65.21 182.742 65.04 181.822 64.7C180.922 64.36 180.142 63.89 179.482 63.29C178.822 62.67 178.312 61.94 177.952 61.1C177.592 60.24 177.412 59.29 177.412 58.25C177.412 57.15 177.602 56.16 177.982 55.28C178.362 54.38 178.882 53.62 179.542 53C180.202 52.38 180.972 51.9 181.852 51.56C182.732 51.22 183.672 51.05 184.672 51.05C185.752 51.05 186.712 51.24 187.552 51.62C188.412 51.98 189.132 52.49 189.712 53.15C190.292 53.79 190.732 54.55 191.032 55.43C191.352 56.29 191.512 57.22 191.512 58.22V59H181.012C181.192 60.06 181.642 60.87 182.362 61.43C183.102 61.99 184.032 62.27 185.152 62.27C185.952 62.27 186.692 62.13 187.372 61.85C188.072 61.55 188.652 61.14 189.112 60.62L191.182 62.51C190.482 63.39 189.582 64.06 188.482 64.52C187.382 64.98 186.172 65.21 184.852 65.21ZM184.522 54.05C183.642 54.05 182.902 54.29 182.302 54.77C181.722 55.23 181.322 55.89 181.102 56.75H187.942C187.822 55.99 187.462 55.35 186.862 54.83C186.262 54.31 185.482 54.05 184.522 54.05ZM203.668 59.6H197.968V65H194.248V51.29H197.968V56.33H203.668V51.29H207.388V65H203.668V59.6ZM220.338 59.6H214.638V65H210.918V51.29H214.638V56.33H220.338V51.29H224.058V65H220.338V59.6ZM233.378 55.25C235.318 55.25 236.788 55.65 237.788 56.45C238.808 57.25 239.318 58.46 239.318 60.08C239.318 61.7 238.788 62.93 237.728 63.77C236.688 64.59 235.138 65 233.078 65H227.588V51.29H231.308V55.25H233.378ZM240.638 51.29H244.358V65H240.638V51.29ZM232.688 62.09C233.588 62.09 234.278 61.96 234.758 61.7C235.258 61.42 235.508 60.88 235.508 60.08C235.508 59.34 235.278 58.83 234.818 58.55C234.378 58.27 233.708 58.13 232.808 58.13H231.308V62.09H232.688ZM254.52 65.21C253.42 65.21 252.41 65.04 251.49 64.7C250.59 64.36 249.81 63.89 249.15 63.29C248.49 62.67 247.98 61.94 247.62 61.1C247.26 60.24 247.08 59.29 247.08 58.25C247.08 57.15 247.27 56.16 247.65 55.28C248.03 54.38 248.55 53.62 249.21 53C249.87 52.38 250.64 51.9 251.52 51.56C252.4 51.22 253.34 51.05 254.34 51.05C255.42 51.05 256.38 51.24 257.22 51.62C258.08 51.98 258.8 52.49 259.38 53.15C259.96 53.79 260.4 54.55 260.7 55.43C261.02 56.29 261.18 57.22 261.18 58.22V59H250.68C250.86 60.06 251.31 60.87 252.03 61.43C252.77 61.99 253.7 62.27 254.82 62.27C255.62 62.27 256.36 62.13 257.04 61.85C257.74 61.55 258.32 61.14 258.78 60.62L260.85 62.51C260.15 63.39 259.25 64.06 258.15 64.52C257.05 64.98 255.84 65.21 254.52 65.21ZM254.19 54.05C253.31 54.05 252.57 54.29 251.97 54.77C251.39 55.23 250.99 55.89 250.77 56.75H257.61C257.49 55.99 257.13 55.35 256.53 54.83C255.93 54.31 255.15 54.05 254.19 54.05ZM275.479 54.56H271.069V51.29H283.579V54.56H279.169V65H275.479V54.56ZM291.966 65.21C290.866 65.21 289.856 65.04 288.936 64.7C288.036 64.36 287.256 63.89 286.596 63.29C285.936 62.67 285.426 61.94 285.066 61.1C284.706 60.24 284.526 59.29 284.526 58.25C284.526 57.15 284.716 56.16 285.096 55.28C285.476 54.38 285.996 53.62 286.656 53C287.316 52.38 288.086 51.9 288.966 51.56C289.846 51.22 290.786 51.05 291.786 51.05C292.866 51.05 293.826 51.24 294.666 51.62C295.526 51.98 296.246 52.49 296.826 53.15C297.406 53.79 297.846 54.55 298.146 55.43C298.466 56.29 298.626 57.22 298.626 58.22V59H288.126C288.306 60.06 288.756 60.87 289.476 61.43C290.216 61.99 291.146 62.27 292.266 62.27C293.066 62.27 293.806 62.13 294.486 61.85C295.186 61.55 295.766 61.14 296.226 60.62L298.296 62.51C297.596 63.39 296.696 64.06 295.596 64.52C294.496 64.98 293.286 65.21 291.966 65.21ZM291.636 54.05C290.756 54.05 290.016 54.29 289.416 54.77C288.836 55.23 288.436 55.89 288.216 56.75H295.056C294.936 55.99 294.576 55.35 293.976 54.83C293.376 54.31 292.596 54.05 291.636 54.05ZM299.512 64.31L303.862 57.8L299.872 51.98V51.29H303.772L306.472 55.31L309.052 51.29H312.592V51.98L308.662 57.89L313.012 64.34L313.042 65H309.232L306.172 60.44L303.142 65H299.512V64.31ZM324.522 59.6H318.822V65H315.102V51.29H318.822V56.33H324.522V51.29H328.242V65H324.522V59.6ZM338.372 65.21C337.292 65.21 336.292 65.04 335.372 64.7C334.472 64.36 333.692 63.88 333.032 63.26C332.392 62.62 331.882 61.87 331.502 61.01C331.142 60.15 330.962 59.19 330.962 58.13C330.962 57.07 331.142 56.11 331.502 55.25C331.882 54.37 332.402 53.62 333.062 53C333.722 52.38 334.502 51.9 335.402 51.56C336.322 51.22 337.312 51.05 338.372 51.05C339.452 51.05 340.442 51.22 341.342 51.56C342.262 51.9 343.052 52.39 343.712 53.03C344.372 53.65 344.882 54.4 345.242 55.28C345.602 56.14 345.782 57.09 345.782 58.13C345.782 59.21 345.592 60.19 345.212 61.07C344.832 61.93 344.312 62.67 343.652 63.29C342.992 63.89 342.212 64.36 341.312 64.7C340.412 65.04 339.432 65.21 338.372 65.21ZM338.372 62.06C339.472 62.06 340.332 61.69 340.952 60.95C341.572 60.21 341.882 59.27 341.882 58.13C341.882 56.99 341.582 56.06 340.982 55.34C340.382 54.6 339.512 54.23 338.372 54.23C337.252 54.23 336.382 54.6 335.762 55.34C335.142 56.08 334.832 57.01 334.832 58.13C334.832 58.67 334.912 59.18 335.072 59.66C335.232 60.14 335.462 60.56 335.762 60.92C336.062 61.28 336.432 61.56 336.872 61.76C337.312 61.96 337.812 62.06 338.372 62.06ZM347.875 65.3C347.655 65.3 347.455 65.29 347.275 65.27C347.115 65.25 346.975 65.23 346.855 65.21V61.64C347.055 61.68 347.215 61.7 347.335 61.7C347.675 61.7 347.965 61.58 348.205 61.34C348.445 61.08 348.635 60.67 348.775 60.11C348.935 59.53 349.045 58.78 349.105 57.86C349.185 56.94 349.225 55.82 349.225 54.5V51.29H359.635V65H355.945V54.56H352.645V56.18C352.645 57.9 352.535 59.34 352.315 60.5C352.115 61.66 351.805 62.6 351.385 63.32C350.985 64.02 350.485 64.53 349.885 64.85C349.305 65.15 348.635 65.3 347.875 65.3ZM369.808 65.21C368.728 65.21 367.728 65.04 366.808 64.7C365.908 64.36 365.128 63.88 364.468 63.26C363.828 62.62 363.318 61.87 362.938 61.01C362.578 60.15 362.398 59.19 362.398 58.13C362.398 57.07 362.578 56.11 362.938 55.25C363.318 54.37 363.838 53.62 364.498 53C365.158 52.38 365.938 51.9 366.838 51.56C367.758 51.22 368.748 51.05 369.808 51.05C370.888 51.05 371.878 51.22 372.778 51.56C373.698 51.9 374.488 52.39 375.148 53.03C375.808 53.65 376.318 54.4 376.678 55.28C377.038 56.14 377.218 57.09 377.218 58.13C377.218 59.21 377.028 60.19 376.648 61.07C376.268 61.93 375.748 62.67 375.088 63.29C374.428 63.89 373.648 64.36 372.748 64.7C371.848 65.04 370.868 65.21 369.808 65.21ZM369.808 62.06C370.908 62.06 371.768 61.69 372.388 60.95C373.008 60.21 373.318 59.27 373.318 58.13C373.318 56.99 373.018 56.06 372.418 55.34C371.818 54.6 370.948 54.23 369.808 54.23C368.688 54.23 367.818 54.6 367.198 55.34C366.578 56.08 366.268 57.01 366.268 58.13C366.268 58.67 366.348 59.18 366.508 59.66C366.668 60.14 366.898 60.56 367.198 60.92C367.498 61.28 367.868 61.56 368.308 61.76C368.748 61.96 369.248 62.06 369.808 62.06ZM379.907 51.29H389.417V54.56H383.627V65H379.907V51.29ZM391.918 51.29H395.638V59.18L401.998 51.29H404.908V65H401.188V56.66L394.468 65H391.918V51.29ZM408.442 51.29H412.162V59.18L418.522 51.29H421.432V65H417.712V56.66L410.992 65H408.442V51.29ZM426.255 65.15C425.655 65.05 425.195 64.82 424.875 64.46C424.575 64.08 424.425 63.63 424.425 63.11C424.425 62.45 424.635 61.93 425.055 61.55C425.495 61.15 426.015 60.95 426.615 60.95C427.255 60.95 427.805 61.16 428.265 61.58C428.745 62 428.985 62.6 428.985 63.38C428.985 63.9 428.845 64.48 428.565 65.12C428.285 65.76 427.855 66.59 427.275 67.61L426.075 69.8H423.675L426.255 65.15ZM450.239 59.6H444.539V65H440.819V51.29H444.539V56.33H450.239V51.29H453.959V65H450.239V59.6ZM464.089 65.21C463.009 65.21 462.009 65.04 461.089 64.7C460.189 64.36 459.409 63.88 458.749 63.26C458.109 62.62 457.599 61.87 457.219 61.01C456.859 60.15 456.679 59.19 456.679 58.13C456.679 57.07 456.859 56.11 457.219 55.25C457.599 54.37 458.119 53.62 458.779 53C459.439 52.38 460.219 51.9 461.119 51.56C462.039 51.22 463.029 51.05 464.089 51.05C465.169 51.05 466.159 51.22 467.059 51.56C467.979 51.9 468.769 52.39 469.429 53.03C470.089 53.65 470.599 54.4 470.959 55.28C471.319 56.14 471.499 57.09 471.499 58.13C471.499 59.21 471.309 60.19 470.929 61.07C470.549 61.93 470.029 62.67 469.369 63.29C468.709 63.89 467.929 64.36 467.029 64.7C466.129 65.04 465.149 65.21 464.089 65.21ZM464.089 62.06C465.189 62.06 466.049 61.69 466.669 60.95C467.289 60.21 467.599 59.27 467.599 58.13C467.599 56.99 467.299 56.06 466.699 55.34C466.099 54.6 465.229 54.23 464.089 54.23C462.969 54.23 462.099 54.6 461.479 55.34C460.859 56.08 460.549 57.01 460.549 58.13C460.549 58.67 460.629 59.18 460.789 59.66C460.949 60.14 461.179 60.56 461.479 60.92C461.779 61.28 462.149 61.56 462.589 61.76C463.029 61.96 463.529 62.06 464.089 62.06ZM481.761 64.49L484.671 60.14C483.071 59.38 482.271 58.03 482.271 56.09C482.271 54.51 482.781 53.32 483.801 52.52C484.841 51.7 486.451 51.29 488.631 51.29H494.571V65H490.851V60.8H488.511L485.811 65H481.761V64.49ZM490.851 58.16V54.17H488.871C487.911 54.17 487.201 54.31 486.741 54.59C486.281 54.85 486.051 55.36 486.051 56.12C486.051 56.88 486.251 57.41 486.651 57.71C487.071 58.01 487.781 58.16 488.781 58.16H490.851ZM512.902 65.21C511.802 65.21 510.812 65.04 509.932 64.7C509.052 64.36 508.292 63.89 507.652 63.29C507.032 62.67 506.552 61.93 506.212 61.07C505.872 60.21 505.702 59.25 505.702 58.19C505.702 57.07 505.882 56.07 506.242 55.19C506.622 54.29 507.132 53.54 507.772 52.94C508.412 52.32 509.172 51.85 510.052 51.53C510.932 51.21 511.882 51.05 512.902 51.05C514.062 51.05 515.112 51.25 516.052 51.65C517.012 52.05 517.762 52.55 518.302 53.15L516.382 55.67C515.982 55.23 515.512 54.88 514.972 54.62C514.452 54.36 513.862 54.23 513.202 54.23C512.082 54.23 511.192 54.59 510.532 55.31C509.892 56.03 509.572 56.95 509.572 58.07C509.572 59.23 509.902 60.19 510.562 60.95C511.242 61.69 512.152 62.06 513.292 62.06C513.952 62.06 514.542 61.93 515.062 61.67C515.582 61.39 516.042 61.03 516.442 60.59L518.632 62.75C518.032 63.53 517.232 64.14 516.232 64.58C515.252 65 514.142 65.21 512.902 65.21ZM528.728 60.02C528.328 60.2 527.858 60.35 527.318 60.47C526.798 60.57 526.208 60.62 525.548 60.62C524.708 60.62 523.948 60.52 523.268 60.32C522.608 60.12 522.038 59.8 521.558 59.36C521.078 58.92 520.708 58.35 520.448 57.65C520.208 56.95 520.088 56.1 520.088 55.1V51.29H523.808V54.95C523.808 55.73 523.988 56.33 524.348 56.75C524.708 57.15 525.428 57.35 526.508 57.35C527.328 57.35 528.068 57.25 528.728 57.05V51.29H532.448V65H528.728V60.02ZM535.809 51.29H539.529V59.18L545.889 51.29H548.799V65H545.079V56.66L538.359 65H535.809V51.29ZM555.483 54.56H551.073V51.29H563.583V54.56H559.173V65H555.483V54.56ZM570.92 65.21C570.1 65.21 569.3 65.04 568.52 64.7C567.76 64.36 567.08 63.88 566.48 63.26C565.9 62.64 565.43 61.9 565.07 61.04C564.71 60.16 564.53 59.19 564.53 58.13C564.53 57.07 564.7 56.11 565.04 55.25C565.4 54.37 565.87 53.62 566.45 53C567.05 52.38 567.73 51.9 568.49 51.56C569.27 51.22 570.08 51.05 570.92 51.05C571.94 51.05 572.84 51.25 573.62 51.65C574.42 52.05 575.05 52.54 575.51 53.12V51.29H579.02V65H575.51V63.14C575.01 63.76 574.36 64.26 573.56 64.64C572.76 65.02 571.88 65.21 570.92 65.21ZM571.91 62.03C572.93 62.03 573.74 61.68 574.34 60.98C574.96 60.26 575.28 59.33 575.3 58.19V57.95C575.3 56.89 574.99 56.02 574.37 55.34C573.75 54.66 572.93 54.32 571.91 54.32C571.45 54.32 571.01 54.4 570.59 54.56C570.17 54.72 569.8 54.96 569.48 55.28C569.16 55.6 568.91 56 568.73 56.48C568.55 56.96 568.46 57.51 568.46 58.13C568.46 59.33 568.78 60.28 569.42 60.98C570.08 61.68 570.91 62.03 571.91 62.03ZM582.567 51.29H586.287V56.15H588.177C588.377 55.35 588.697 54.64 589.137 54.02C589.577 53.38 590.097 52.84 590.697 52.4C591.317 51.96 591.997 51.63 592.737 51.41C593.477 51.17 594.247 51.05 595.047 51.05C596.107 51.05 597.077 51.22 597.957 51.56C598.837 51.88 599.597 52.35 600.237 52.97C600.877 53.57 601.377 54.31 601.737 55.19C602.097 56.05 602.277 57.03 602.277 58.13C602.277 59.27 602.077 60.28 601.677 61.16C601.297 62.04 600.767 62.78 600.087 63.38C599.427 63.98 598.657 64.44 597.777 64.76C596.897 65.06 595.977 65.21 595.017 65.21C594.077 65.21 593.207 65.07 592.407 64.79C591.607 64.51 590.897 64.12 590.277 63.62C589.677 63.1 589.177 62.47 588.777 61.73C588.397 60.99 588.147 60.16 588.027 59.24H586.287V65H582.567V51.29ZM595.047 61.97C596.127 61.97 596.947 61.61 597.507 60.89C598.087 60.17 598.377 59.26 598.377 58.16C598.377 57.02 598.077 56.09 597.477 55.37C596.897 54.65 596.077 54.29 595.017 54.29C593.957 54.29 593.127 54.65 592.527 55.37C591.947 56.07 591.657 56.96 591.657 58.04C591.657 59.18 591.957 60.12 592.557 60.86C593.177 61.6 594.007 61.97 595.047 61.97ZM605.712 65.15C605.112 65.05 604.652 64.82 604.332 64.46C604.032 64.08 603.882 63.63 603.882 63.11C603.882 62.45 604.092 61.93 604.512 61.55C604.952 61.15 605.472 60.95 606.072 60.95C606.712 60.95 607.262 61.16 607.722 61.58C608.202 62 608.442 62.6 608.442 63.38C608.442 63.9 608.302 64.48 608.022 65.12C607.742 65.76 607.312 66.59 606.732 67.61L605.532 69.8H603.132L605.712 65.15ZM628.137 60.02C627.737 60.2 627.267 60.35 626.727 60.47C626.207 60.57 625.617 60.62 624.957 60.62C624.117 60.62 623.357 60.52 622.677 60.32C622.017 60.12 621.447 59.8 620.967 59.36C620.487 58.92 620.117 58.35 619.857 57.65C619.617 56.95 619.497 56.1 619.497 55.1V51.29H623.217V54.95C623.217 55.73 623.397 56.33 623.757 56.75C624.117 57.15 624.837 57.35 625.917 57.35C626.737 57.35 627.477 57.25 628.137 57.05V51.29H631.857V65H628.137V60.02ZM638.368 54.56H633.958V51.29H646.468V54.56H642.058V65H638.368V54.56ZM654.826 65.21C653.746 65.21 652.746 65.04 651.826 64.7C650.926 64.36 650.146 63.88 649.486 63.26C648.846 62.62 648.336 61.87 647.956 61.01C647.596 60.15 647.416 59.19 647.416 58.13C647.416 57.07 647.596 56.11 647.956 55.25C648.336 54.37 648.856 53.62 649.516 53C650.176 52.38 650.956 51.9 651.856 51.56C652.776 51.22 653.766 51.05 654.826 51.05C655.906 51.05 656.896 51.22 657.796 51.56C658.716 51.9 659.506 52.39 660.166 53.03C660.826 53.65 661.336 54.4 661.696 55.28C662.056 56.14 662.236 57.09 662.236 58.13C662.236 59.21 662.046 60.19 661.666 61.07C661.286 61.93 660.766 62.67 660.106 63.29C659.446 63.89 658.666 64.36 657.766 64.7C656.866 65.04 655.886 65.21 654.826 65.21ZM654.826 62.06C655.926 62.06 656.786 61.69 657.406 60.95C658.026 60.21 658.336 59.27 658.336 58.13C658.336 56.99 658.036 56.06 657.436 55.34C656.836 54.6 655.966 54.23 654.826 54.23C653.706 54.23 652.836 54.6 652.216 55.34C651.596 56.08 651.286 57.01 651.286 58.13C651.286 58.67 651.366 59.18 651.526 59.66C651.686 60.14 651.916 60.56 652.216 60.92C652.516 61.28 652.886 61.56 653.326 61.76C653.766 61.96 654.266 62.06 654.826 62.06ZM671.748 61.73H673.398C673.918 60.65 674.308 59.45 674.568 58.13C674.828 56.79 674.958 55.21 674.958 53.39V51.29H685.638V61.73H687.738V68.06H684.708V65H674.808V68.06H671.748V61.73ZM678.288 54.65C678.288 57.43 677.878 59.79 677.058 61.73H681.918V54.56H678.288V54.65ZM691.162 71.75L693.472 65.15L687.862 51.98V51.29H691.582L695.212 60.26L698.392 51.29H701.752L701.722 51.98L694.522 72.2H691.162V71.75ZM719.859 51.29H723.579V65H703.719V51.29H707.439V61.73H711.819V51.29H715.509V61.73H719.859V51.29ZM733.757 65.21C732.657 65.21 731.647 65.04 730.727 64.7C729.827 64.36 729.047 63.89 728.387 63.29C727.727 62.67 727.217 61.94 726.857 61.1C726.497 60.24 726.317 59.29 726.317 58.25C726.317 57.15 726.507 56.16 726.887 55.28C727.267 54.38 727.787 53.62 728.447 53C729.107 52.38 729.877 51.9 730.757 51.56C731.637 51.22 732.577 51.05 733.577 51.05C734.657 51.05 735.617 51.24 736.457 51.62C737.317 51.98 738.037 52.49 738.617 53.15C739.197 53.79 739.637 54.55 739.937 55.43C740.257 56.29 740.417 57.22 740.417 58.22V59H729.917C730.097 60.06 730.547 60.87 731.267 61.43C732.007 61.99 732.937 62.27 734.057 62.27C734.857 62.27 735.597 62.13 736.277 61.85C736.977 61.55 737.557 61.14 738.017 60.62L740.087 62.51C739.387 63.39 738.487 64.06 737.387 64.52C736.287 64.98 735.077 65.21 733.757 65.21ZM733.427 54.05C732.547 54.05 731.807 54.29 731.207 54.77C730.627 55.23 730.227 55.89 730.007 56.75H736.847C736.727 55.99 736.367 55.35 735.767 54.83C735.167 54.31 734.387 54.05 733.427 54.05ZM743.152 51.29H750.562C751.982 51.29 753.052 51.6 753.772 52.22C754.492 52.82 754.852 53.61 754.852 54.59C754.852 55.33 754.672 55.94 754.312 56.42C753.952 56.9 753.482 57.24 752.902 57.44C753.882 57.58 754.682 57.92 755.302 58.46C755.922 59 756.232 59.81 756.232 60.89C756.232 62.21 755.742 63.23 754.762 63.95C753.802 64.65 752.392 65 750.532 65H743.152V51.29ZM746.872 58.82V62.27H749.722C750.662 62.27 751.332 62.13 751.732 61.85C752.132 61.55 752.332 61.11 752.332 60.53C752.332 59.93 752.122 59.5 751.702 59.24C751.282 58.96 750.652 58.82 749.812 58.82H746.872ZM746.872 54.02V56.66H749.452C750.732 56.66 751.372 56.21 751.372 55.31C751.372 54.45 750.722 54.02 749.422 54.02H746.872ZM767.982 59.6H762.282V65H758.562V51.29H762.282V56.33H767.982V51.29H771.702V65H767.982V59.6ZM781.022 55.25C782.962 55.25 784.432 55.65 785.432 56.45C786.452 57.25 786.962 58.46 786.962 60.08C786.962 61.7 786.432 62.93 785.372 63.77C784.332 64.59 782.782 65 780.722 65H775.232V51.29H778.952V55.25H781.022ZM788.282 51.29H792.002V65H788.282V51.29ZM780.332 62.09C781.232 62.09 781.922 61.96 782.402 61.7C782.902 61.42 783.152 60.88 783.152 60.08C783.152 59.34 782.922 58.83 782.462 58.55C782.022 58.27 781.352 58.13 780.452 58.13H778.952V62.09H780.332ZM802.165 65.21C801.065 65.21 800.055 65.04 799.135 64.7C798.235 64.36 797.455 63.89 796.795 63.29C796.135 62.67 795.625 61.94 795.265 61.1C794.905 60.24 794.725 59.29 794.725 58.25C794.725 57.15 794.915 56.16 795.295 55.28C795.675 54.38 796.195 53.62 796.855 53C797.515 52.38 798.285 51.9 799.165 51.56C800.045 51.22 800.985 51.05 801.985 51.05C803.065 51.05 804.025 51.24 804.865 51.62C805.725 51.98 806.445 52.49 807.025 53.15C807.605 53.79 808.045 54.55 808.345 55.43C808.665 56.29 808.825 57.22 808.825 58.22V59H798.325C798.505 60.06 798.955 60.87 799.675 61.43C800.415 61.99 801.345 62.27 802.465 62.27C803.265 62.27 804.005 62.13 804.685 61.85C805.385 61.55 805.965 61.14 806.425 60.62L808.495 62.51C807.795 63.39 806.895 64.06 805.795 64.52C804.695 64.98 803.485 65.21 802.165 65.21ZM801.835 54.05C800.955 54.05 800.215 54.29 799.615 54.77C799.035 55.23 798.635 55.89 798.415 56.75H805.255C805.135 55.99 804.775 55.35 804.175 54.83C803.575 54.31 802.795 54.05 801.835 54.05ZM827.833 60.02C827.433 60.2 826.963 60.35 826.423 60.47C825.903 60.57 825.313 60.62 824.653 60.62C823.813 60.62 823.053 60.52 822.373 60.32C821.713 60.12 821.143 59.8 820.663 59.36C820.183 58.92 819.813 58.35 819.553 57.65C819.313 56.95 819.193 56.1 819.193 55.1V51.29H822.913V54.95C822.913 55.73 823.093 56.33 823.453 56.75C823.813 57.15 824.533 57.35 825.613 57.35C826.433 57.35 827.173 57.25 827.833 57.05V51.29H831.553V65H827.833V60.02ZM841.545 65.21C840.445 65.21 839.435 65.04 838.515 64.7C837.615 64.36 836.835 63.89 836.175 63.29C835.515 62.67 835.005 61.94 834.645 61.1C834.285 60.24 834.105 59.29 834.105 58.25C834.105 57.15 834.295 56.16 834.675 55.28C835.055 54.38 835.575 53.62 836.235 53C836.895 52.38 837.665 51.9 838.545 51.56C839.425 51.22 840.365 51.05 841.365 51.05C842.445 51.05 843.405 51.24 844.245 51.62C845.105 51.98 845.825 52.49 846.405 53.15C846.985 53.79 847.425 54.55 847.725 55.43C848.045 56.29 848.205 57.22 848.205 58.22V59H837.705C837.885 60.06 838.335 60.87 839.055 61.43C839.795 61.99 840.725 62.27 841.845 62.27C842.645 62.27 843.385 62.13 844.065 61.85C844.765 61.55 845.345 61.14 845.805 60.62L847.875 62.51C847.175 63.39 846.275 64.06 845.175 64.52C844.075 64.98 842.865 65.21 841.545 65.21ZM841.215 54.05C840.335 54.05 839.595 54.29 838.995 54.77C838.415 55.23 838.015 55.89 837.795 56.75H844.635C844.515 55.99 844.155 55.35 843.555 54.83C842.955 54.31 842.175 54.05 841.215 54.05ZM850.343 65.3C850.123 65.3 849.923 65.29 849.743 65.27C849.583 65.25 849.443 65.23 849.323 65.21V61.64C849.523 61.68 849.683 61.7 849.803 61.7C850.143 61.7 850.433 61.58 850.673 61.34C850.913 61.08 851.103 60.67 851.243 60.11C851.403 59.53 851.513 58.78 851.573 57.86C851.653 56.94 851.693 55.82 851.693 54.5V51.29H862.103V65H858.413V54.56H855.113V56.18C855.113 57.9 855.003 59.34 854.783 60.5C854.583 61.66 854.273 62.6 853.853 63.32C853.453 64.02 852.953 64.53 852.353 64.85C851.773 65.15 851.103 65.3 850.343 65.3ZM872.276 65.21C871.196 65.21 870.196 65.04 869.276 64.7C868.376 64.36 867.596 63.88 866.936 63.26C866.296 62.62 865.786 61.87 865.406 61.01C865.046 60.15 864.866 59.19 864.866 58.13C864.866 57.07 865.046 56.11 865.406 55.25C865.786 54.37 866.306 53.62 866.966 53C867.626 52.38 868.406 51.9 869.306 51.56C870.226 51.22 871.216 51.05 872.276 51.05C873.356 51.05 874.346 51.22 875.246 51.56C876.166 51.9 876.956 52.39 877.616 53.03C878.276 53.65 878.786 54.4 879.146 55.28C879.506 56.14 879.686 57.09 879.686 58.13C879.686 59.21 879.496 60.19 879.116 61.07C878.736 61.93 878.216 62.67 877.556 63.29C876.896 63.89 876.116 64.36 875.216 64.7C874.316 65.04 873.336 65.21 872.276 65.21ZM872.276 62.06C873.376 62.06 874.236 61.69 874.856 60.95C875.476 60.21 875.786 59.27 875.786 58.13C875.786 56.99 875.486 56.06 874.886 55.34C874.286 54.6 873.416 54.23 872.276 54.23C871.156 54.23 870.286 54.6 869.666 55.34C869.046 56.08 868.736 57.01 868.736 58.13C868.736 58.67 868.816 59.18 868.976 59.66C869.136 60.14 869.366 60.56 869.666 60.92C869.966 61.28 870.336 61.56 870.776 61.76C871.216 61.96 871.716 62.06 872.276 62.06ZM882.375 51.29H889.785C891.205 51.29 892.275 51.6 892.995 52.22C893.715 52.82 894.075 53.61 894.075 54.59C894.075 55.33 893.895 55.94 893.535 56.42C893.175 56.9 892.705 57.24 892.125 57.44C893.105 57.58 893.905 57.92 894.525 58.46C895.145 59 895.455 59.81 895.455 60.89C895.455 62.21 894.965 63.23 893.985 63.95C893.025 64.65 891.615 65 889.755 65H882.375V51.29ZM886.095 58.82V62.27H888.945C889.885 62.27 890.555 62.13 890.955 61.85C891.355 61.55 891.555 61.11 891.555 60.53C891.555 59.93 891.345 59.5 890.925 59.24C890.505 58.96 889.875 58.82 889.035 58.82H886.095ZM886.095 54.02V56.66H888.675C889.955 56.66 890.595 56.21 890.595 55.31C890.595 54.45 889.945 54.02 888.645 54.02H886.095ZM904.416 65.21C903.316 65.21 902.306 65.04 901.386 64.7C900.486 64.36 899.706 63.89 899.046 63.29C898.386 62.67 897.876 61.94 897.516 61.1C897.156 60.24 896.976 59.29 896.976 58.25C896.976 57.15 897.166 56.16 897.546 55.28C897.926 54.38 898.446 53.62 899.106 53C899.766 52.38 900.536 51.9 901.416 51.56C902.296 51.22 903.236 51.05 904.236 51.05C905.316 51.05 906.276 51.24 907.116 51.62C907.976 51.98 908.696 52.49 909.276 53.15C909.856 53.79 910.296 54.55 910.596 55.43C910.916 56.29 911.076 57.22 911.076 58.22V59H900.576C900.756 60.06 901.206 60.87 901.926 61.43C902.666 61.99 903.596 62.27 904.716 62.27C905.516 62.27 906.256 62.13 906.936 61.85C907.636 61.55 908.216 61.14 908.676 60.62L910.746 62.51C910.046 63.39 909.146 64.06 908.046 64.52C906.946 64.98 905.736 65.21 904.416 65.21ZM904.086 54.05C903.206 54.05 902.466 54.29 901.866 54.77C901.286 55.23 900.886 55.89 900.666 56.75H907.506C907.386 55.99 907.026 55.35 906.426 54.83C905.826 54.31 905.046 54.05 904.086 54.05ZM921.671 60.02C921.271 60.2 920.801 60.35 920.261 60.47C919.741 60.57 919.151 60.62 918.491 60.62C917.651 60.62 916.891 60.52 916.211 60.32C915.551 60.12 914.981 59.8 914.501 59.36C914.021 58.92 913.651 58.35 913.391 57.65C913.151 56.95 913.031 56.1 913.031 55.1V51.29H916.751V54.95C916.751 55.73 916.931 56.33 917.291 56.75C917.651 57.15 918.371 57.35 919.451 57.35C920.271 57.35 921.011 57.25 921.671 57.05V51.29H925.391V65H921.671V60.02ZM935.382 65.21C934.282 65.21 933.272 65.04 932.352 64.7C931.452 64.36 930.672 63.89 930.012 63.29C929.352 62.67 928.842 61.94 928.482 61.1C928.122 60.24 927.942 59.29 927.942 58.25C927.942 57.15 928.132 56.16 928.512 55.28C928.892 54.38 929.412 53.62 930.072 53C930.732 52.38 931.502 51.9 932.382 51.56C933.262 51.22 934.202 51.05 935.202 51.05C936.282 51.05 937.242 51.24 938.082 51.62C938.942 51.98 939.662 52.49 940.242 53.15C940.822 53.79 941.262 54.55 941.562 55.43C941.882 56.29 942.042 57.22 942.042 58.22V59H931.542C931.722 60.06 932.172 60.87 932.892 61.43C933.632 61.99 934.562 62.27 935.682 62.27C936.482 62.27 937.222 62.13 937.902 61.85C938.602 61.55 939.182 61.14 939.642 60.62L941.712 62.51C941.012 63.39 940.112 64.06 939.012 64.52C937.912 64.98 936.702 65.21 935.382 65.21ZM935.052 54.05C934.172 54.05 933.432 54.29 932.832 54.77C932.252 55.23 931.852 55.89 931.632 56.75H938.472C938.352 55.99 937.992 55.35 937.392 54.83C936.792 54.31 936.012 54.05 935.052 54.05ZM951.168 65.21C950.068 65.21 949.078 65.04 948.198 64.7C947.318 64.36 946.558 63.89 945.918 63.29C945.298 62.67 944.818 61.93 944.478 61.07C944.138 60.21 943.968 59.25 943.968 58.19C943.968 57.07 944.148 56.07 944.508 55.19C944.888 54.29 945.398 53.54 946.038 52.94C946.678 52.32 947.438 51.85 948.318 51.53C949.198 51.21 950.148 51.05 951.168 51.05C952.328 51.05 953.378 51.25 954.318 51.65C955.278 52.05 956.028 52.55 956.568 53.15L954.648 55.67C954.248 55.23 953.778 54.88 953.238 54.62C952.718 54.36 952.128 54.23 951.468 54.23C950.348 54.23 949.458 54.59 948.798 55.31C948.158 56.03 947.838 56.95 947.838 58.07C947.838 59.23 948.168 60.19 948.828 60.95C949.508 61.69 950.418 62.06 951.558 62.06C952.218 62.06 952.808 61.93 953.328 61.67C953.848 61.39 954.308 61.03 954.708 60.59L956.898 62.75C956.298 63.53 955.498 64.14 954.498 64.58C953.518 65 952.408 65.21 951.168 65.21ZM959.133 51.29H962.853V56.33H964.293L967.593 51.29H971.463V51.8L967.383 57.53L972.483 64.49V65H968.343L964.203 59.15H962.853V65H959.133V51.29ZM974.221 51.29H977.941V59.18L984.301 51.29H987.211V65H983.491V56.66L976.771 65H974.221V51.29ZM997.375 65.21C996.275 65.21 995.265 65.04 994.345 64.7C993.445 64.36 992.665 63.89 992.005 63.29C991.345 62.67 990.835 61.94 990.475 61.1C990.115 60.24 989.935 59.29 989.935 58.25C989.935 57.15 990.125 56.16 990.505 55.28C990.885 54.38 991.405 53.62 992.065 53C992.725 52.38 993.495 51.9 994.375 51.56C995.255 51.22 996.195 51.05 997.195 51.05C998.275 51.05 999.235 51.24 1000.07 51.62C1000.93 51.98 1001.65 52.49 1002.23 53.15C1002.81 53.79 1003.25 54.55 1003.55 55.43C1003.87 56.29 1004.03 57.22 1004.03 58.22V59H993.535C993.715 60.06 994.165 60.87 994.885 61.43C995.625 61.99 996.555 62.27 997.675 62.27C998.475 62.27 999.215 62.13 999.895 61.85C1000.59 61.55 1001.17 61.14 1001.63 60.62L1003.7 62.51C1003 63.39 1002.1 64.06 1001 64.52C999.905 64.98 998.695 65.21 997.375 65.21ZM997.045 54.05C996.165 54.05 995.425 54.29 994.825 54.77C994.245 55.23 993.845 55.89 993.625 56.75H1000.46C1000.34 55.99 999.985 55.35 999.385 54.83C998.785 54.31 998.005 54.05 997.045 54.05ZM13.77 87.29H17.49V92.33H18.93L22.23 87.29H26.1V87.8L22.02 93.53L27.12 100.49V101H22.98L18.84 95.15H17.49V101H13.77V87.29ZM33.9105 101.21C33.0905 101.21 32.2905 101.04 31.5105 100.7C30.7505 100.36 30.0705 99.88 29.4705 99.26C28.8905 98.64 28.4205 97.9 28.0605 97.04C27.7005 96.16 27.5205 95.19 27.5205 94.13C27.5205 93.07 27.6905 92.11 28.0305 91.25C28.3905 90.37 28.8605 89.62 29.4405 89C30.0405 88.38 30.7205 87.9 31.4805 87.56C32.2605 87.22 33.0705 87.05 33.9105 87.05C34.9305 87.05 35.8305 87.25 36.6105 87.65C37.4105 88.05 38.0405 88.54 38.5005 89.12V87.29H42.0105V101H38.5005V99.14C38.0005 99.76 37.3505 100.26 36.5505 100.64C35.7505 101.02 34.8705 101.21 33.9105 101.21ZM34.9005 98.03C35.9205 98.03 36.7305 97.68 37.3305 96.98C37.9505 96.26 38.2705 95.33 38.2905 94.19V93.95C38.2905 92.89 37.9805 92.02 37.3605 91.34C36.7405 90.66 35.9205 90.32 34.9005 90.32C34.4405 90.32 34.0005 90.4 33.5805 90.56C33.1605 90.72 32.7905 90.96 32.4705 91.28C32.1505 91.6 31.9005 92 31.7205 92.48C31.5405 92.96 31.4505 93.51 31.4505 94.13C31.4505 95.33 31.7705 96.28 32.4105 96.98C33.0705 97.68 33.9005 98.03 34.9005 98.03ZM53.4171 96.02C53.0171 96.2 52.5471 96.35 52.0071 96.47C51.4871 96.57 50.8971 96.62 50.2371 96.62C49.3971 96.62 48.6371 96.52 47.9571 96.32C47.2971 96.12 46.7271 95.8 46.2471 95.36C45.7671 94.92 45.3971 94.35 45.1371 93.65C44.8971 92.95 44.7771 92.1 44.7771 91.1V87.29H48.4971V90.95C48.4971 91.73 48.6771 92.33 49.0371 92.75C49.3971 93.15 50.1171 93.35 51.1971 93.35C52.0171 93.35 52.7571 93.25 53.4171 93.05V87.29H57.1371V101H53.4171V96.02ZM67.1285 101.21C66.0285 101.21 65.0185 101.04 64.0985 100.7C63.1985 100.36 62.4185 99.89 61.7585 99.29C61.0985 98.67 60.5885 97.94 60.2285 97.1C59.8685 96.24 59.6885 95.29 59.6885 94.25C59.6885 93.15 59.8785 92.16 60.2585 91.28C60.6385 90.38 61.1585 89.62 61.8185 89C62.4785 88.38 63.2485 87.9 64.1285 87.56C65.0085 87.22 65.9485 87.05 66.9485 87.05C68.0285 87.05 68.9885 87.24 69.8285 87.62C70.6885 87.98 71.4085 88.49 71.9885 89.15C72.5685 89.79 73.0085 90.55 73.3085 91.43C73.6285 92.29 73.7885 93.22 73.7885 94.22V95H63.2885C63.4685 96.06 63.9185 96.87 64.6385 97.43C65.3785 97.99 66.3085 98.27 67.4285 98.27C68.2285 98.27 68.9685 98.13 69.6485 97.85C70.3485 97.55 70.9285 97.14 71.3885 96.62L73.4585 98.51C72.7585 99.39 71.8585 100.06 70.7585 100.52C69.6585 100.98 68.4485 101.21 67.1285 101.21ZM66.7985 90.05C65.9185 90.05 65.1785 90.29 64.5785 90.77C63.9985 91.23 63.5985 91.89 63.3785 92.75H70.2185C70.0985 91.99 69.7385 91.35 69.1385 90.83C68.5385 90.31 67.7585 90.05 66.7985 90.05ZM82.9139 101.21C81.8139 101.21 80.8239 101.04 79.9439 100.7C79.0639 100.36 78.3039 99.89 77.6639 99.29C77.0439 98.67 76.5639 97.93 76.2239 97.07C75.8839 96.21 75.7139 95.25 75.7139 94.19C75.7139 93.07 75.8939 92.07 76.2539 91.19C76.6339 90.29 77.1439 89.54 77.7839 88.94C78.4239 88.32 79.1839 87.85 80.0639 87.53C80.9439 87.21 81.8939 87.05 82.9139 87.05C84.0739 87.05 85.1239 87.25 86.0639 87.65C87.0239 88.05 87.7739 88.55 88.3139 89.15L86.3939 91.67C85.9939 91.23 85.5239 90.88 84.9839 90.62C84.4639 90.36 83.8739 90.23 83.2139 90.23C82.0939 90.23 81.2039 90.59 80.5439 91.31C79.9039 92.03 79.5839 92.95 79.5839 94.07C79.5839 95.23 79.9139 96.19 80.5739 96.95C81.2539 97.69 82.1639 98.06 83.3039 98.06C83.9639 98.06 84.5539 97.93 85.0739 97.67C85.5939 97.39 86.0539 97.03 86.4539 96.59L88.6439 98.75C88.0439 99.53 87.2439 100.14 86.2439 100.58C85.2639 101 84.1539 101.21 82.9139 101.21ZM94.0294 90.56H89.6194V87.29H102.129V90.56H97.7194V101H94.0294V90.56ZM104.415 87.29H111.825C113.245 87.29 114.315 87.6 115.035 88.22C115.755 88.82 116.115 89.61 116.115 90.59C116.115 91.33 115.935 91.94 115.575 92.42C115.215 92.9 114.745 93.24 114.165 93.44C115.145 93.58 115.945 93.92 116.565 94.46C117.185 95 117.495 95.81 117.495 96.89C117.495 98.21 117.005 99.23 116.025 99.95C115.065 100.65 113.655 101 111.795 101H104.415V87.29ZM108.135 94.82V98.27H110.985C111.925 98.27 112.595 98.13 112.995 97.85C113.395 97.55 113.595 97.11 113.595 96.53C113.595 95.93 113.385 95.5 112.965 95.24C112.545 94.96 111.915 94.82 111.075 94.82H108.135ZM108.135 90.02V92.66H110.715C111.995 92.66 112.635 92.21 112.635 91.31C112.635 90.45 111.985 90.02 110.685 90.02H108.135ZM125.405 101.21C124.585 101.21 123.785 101.04 123.005 100.7C122.245 100.36 121.565 99.88 120.965 99.26C120.385 98.64 119.915 97.9 119.555 97.04C119.195 96.16 119.015 95.19 119.015 94.13C119.015 93.07 119.185 92.11 119.525 91.25C119.885 90.37 120.355 89.62 120.935 89C121.535 88.38 122.215 87.9 122.975 87.56C123.755 87.22 124.565 87.05 125.405 87.05C126.425 87.05 127.325 87.25 128.105 87.65C128.905 88.05 129.535 88.54 129.995 89.12V87.29H133.505V101H129.995V99.14C129.495 99.76 128.845 100.26 128.045 100.64C127.245 101.02 126.365 101.21 125.405 101.21ZM126.395 98.03C127.415 98.03 128.225 97.68 128.825 96.98C129.445 96.26 129.765 95.33 129.785 94.19V93.95C129.785 92.89 129.475 92.02 128.855 91.34C128.235 90.66 127.415 90.32 126.395 90.32C125.935 90.32 125.495 90.4 125.075 90.56C124.655 90.72 124.285 90.96 123.965 91.28C123.645 91.6 123.395 92 123.215 92.48C123.035 92.96 122.945 93.51 122.945 94.13C122.945 95.33 123.265 96.28 123.905 96.98C124.565 97.68 125.395 98.03 126.395 98.03ZM169.57 95.6H163.87V101H160.15V87.29H163.87V92.33H169.57V87.29H173.29V101H169.57V95.6ZM183.45 101.21C182.35 101.21 181.34 101.04 180.42 100.7C179.52 100.36 178.74 99.89 178.08 99.29C177.42 98.67 176.91 97.94 176.55 97.1C176.19 96.24 176.01 95.29 176.01 94.25C176.01 93.15 176.2 92.16 176.58 91.28C176.96 90.38 177.48 89.62 178.14 89C178.8 88.38 179.57 87.9 180.45 87.56C181.33 87.22 182.27 87.05 183.27 87.05C184.35 87.05 185.31 87.24 186.15 87.62C187.01 87.98 187.73 88.49 188.31 89.15C188.89 89.79 189.33 90.55 189.63 91.43C189.95 92.29 190.11 93.22 190.11 94.22V95H179.61C179.79 96.06 180.24 96.87 180.96 97.43C181.7 97.99 182.63 98.27 183.75 98.27C184.55 98.27 185.29 98.13 185.97 97.85C186.67 97.55 187.25 97.14 187.71 96.62L189.78 98.51C189.08 99.39 188.18 100.06 187.08 100.52C185.98 100.98 184.77 101.21 183.45 101.21ZM183.12 90.05C182.24 90.05 181.5 90.29 180.9 90.77C180.32 91.23 179.92 91.89 179.7 92.75H186.54C186.42 91.99 186.06 91.35 185.46 90.83C184.86 90.31 184.08 90.05 183.12 90.05ZM220.444 101.21C219.704 101.21 219.014 101.13 218.374 100.97C217.754 100.81 217.194 100.61 216.694 100.37C216.214 100.13 215.794 99.87 215.434 99.59C215.094 99.31 214.834 99.05 214.654 98.81L217.024 96.59C217.344 96.99 217.794 97.34 218.374 97.64C218.954 97.92 219.624 98.06 220.384 98.06C221.924 98.06 222.694 97.53 222.694 96.47C222.694 96.07 222.524 95.73 222.184 95.45C221.844 95.17 221.254 95.03 220.414 95.03H218.494V92.42H219.994C220.634 92.42 221.134 92.33 221.494 92.15C221.854 91.95 222.034 91.65 222.034 91.25C222.034 90.91 221.854 90.65 221.494 90.47C221.134 90.27 220.664 90.17 220.084 90.17C219.544 90.17 219.014 90.29 218.494 90.53C217.994 90.75 217.564 91.03 217.204 91.37L215.194 89.27C215.414 89.01 215.684 88.75 216.004 88.49C216.344 88.23 216.734 88 217.174 87.8C217.614 87.58 218.114 87.4 218.674 87.26C219.234 87.12 219.844 87.05 220.504 87.05C221.284 87.05 221.994 87.14 222.634 87.32C223.274 87.5 223.824 87.75 224.284 88.07C224.744 88.37 225.094 88.75 225.334 89.21C225.594 89.65 225.724 90.14 225.724 90.68C225.724 91.32 225.554 91.88 225.214 92.36C224.874 92.84 224.404 93.22 223.804 93.5C224.704 93.78 225.374 94.2 225.814 94.76C226.274 95.32 226.504 95.99 226.504 96.77C226.504 97.39 226.364 97.97 226.084 98.51C225.804 99.05 225.404 99.52 224.884 99.92C224.364 100.32 223.724 100.64 222.964 100.88C222.224 101.1 221.384 101.21 220.444 101.21ZM234.591 101.21C233.771 101.21 232.971 101.04 232.191 100.7C231.431 100.36 230.751 99.88 230.151 99.26C229.571 98.64 229.101 97.9 228.741 97.04C228.381 96.16 228.201 95.19 228.201 94.13C228.201 93.07 228.371 92.11 228.711 91.25C229.071 90.37 229.541 89.62 230.121 89C230.721 88.38 231.401 87.9 232.161 87.56C232.941 87.22 233.751 87.05 234.591 87.05C235.611 87.05 236.511 87.25 237.291 87.65C238.091 88.05 238.721 88.54 239.181 89.12V87.29H242.691V101H239.181V99.14C238.681 99.76 238.031 100.26 237.231 100.64C236.431 101.02 235.551 101.21 234.591 101.21ZM235.581 98.03C236.601 98.03 237.411 97.68 238.011 96.98C238.631 96.26 238.951 95.33 238.971 94.19V93.95C238.971 92.89 238.661 92.02 238.041 91.34C237.421 90.66 236.601 90.32 235.581 90.32C235.121 90.32 234.681 90.4 234.261 90.56C233.841 90.72 233.471 90.96 233.151 91.28C232.831 91.6 232.581 92 232.401 92.48C232.221 92.96 232.131 93.51 232.131 94.13C232.131 95.33 232.451 96.28 233.091 96.98C233.751 97.68 234.581 98.03 235.581 98.03ZM247.587 87.29H250.767L254.397 95.24L257.817 87.29H261.087L263.367 101H259.887L258.567 92.99L255.027 101H253.437L249.867 93.14L248.577 101H245.277L247.587 87.29ZM272.35 101.21C271.25 101.21 270.24 101.04 269.32 100.7C268.42 100.36 267.64 99.89 266.98 99.29C266.32 98.67 265.81 97.94 265.45 97.1C265.09 96.24 264.91 95.29 264.91 94.25C264.91 93.15 265.1 92.16 265.48 91.28C265.86 90.38 266.38 89.62 267.04 89C267.7 88.38 268.47 87.9 269.35 87.56C270.23 87.22 271.17 87.05 272.17 87.05C273.25 87.05 274.21 87.24 275.05 87.62C275.91 87.98 276.63 88.49 277.21 89.15C277.79 89.79 278.23 90.55 278.53 91.43C278.85 92.29 279.01 93.22 279.01 94.22V95H268.51C268.69 96.06 269.14 96.87 269.86 97.43C270.6 97.99 271.53 98.27 272.65 98.27C273.45 98.27 274.19 98.13 274.87 97.85C275.57 97.55 276.15 97.14 276.61 96.62L278.68 98.51C277.98 99.39 277.08 100.06 275.98 100.52C274.88 100.98 273.67 101.21 272.35 101.21ZM272.02 90.05C271.14 90.05 270.4 90.29 269.8 90.77C269.22 91.23 268.82 91.89 268.6 92.75H275.44C275.32 91.99 274.96 91.35 274.36 90.83C273.76 90.31 272.98 90.05 272.02 90.05ZM291.165 95.6H285.465V101H281.745V87.29H285.465V92.33H291.165V87.29H294.885V101H291.165V95.6ZM298.415 87.29H302.135V95.18L308.495 87.29H311.405V101H307.685V92.66L300.965 101H298.415V87.29ZM318.088 90.56H313.678V87.29H326.188V90.56H321.778V101H318.088V90.56ZM360.992 95.6H355.292V101H351.572V87.29H355.292V92.33H360.992V87.29H364.712V101H360.992V95.6ZM368.242 87.29H371.962V95.18L378.322 87.29H381.232V101H377.512V92.66L370.792 101H368.242V87.29ZM414.465 101.21C413.385 101.21 412.385 101.04 411.465 100.7C410.565 100.36 409.785 99.88 409.125 99.26C408.485 98.62 407.975 97.87 407.595 97.01C407.235 96.15 407.055 95.19 407.055 94.13C407.055 93.07 407.235 92.11 407.595 91.25C407.975 90.37 408.495 89.62 409.155 89C409.815 88.38 410.595 87.9 411.495 87.56C412.415 87.22 413.405 87.05 414.465 87.05C415.545 87.05 416.535 87.22 417.435 87.56C418.355 87.9 419.145 88.39 419.805 89.03C420.465 89.65 420.975 90.4 421.335 91.28C421.695 92.14 421.875 93.09 421.875 94.13C421.875 95.21 421.685 96.19 421.305 97.07C420.925 97.93 420.405 98.67 419.745 99.29C419.085 99.89 418.305 100.36 417.405 100.7C416.505 101.04 415.525 101.21 414.465 101.21ZM414.465 98.06C415.565 98.06 416.425 97.69 417.045 96.95C417.665 96.21 417.975 95.27 417.975 94.13C417.975 92.99 417.675 92.06 417.075 91.34C416.475 90.6 415.605 90.23 414.465 90.23C413.345 90.23 412.475 90.6 411.855 91.34C411.235 92.08 410.925 93.01 410.925 94.13C410.925 94.67 411.005 95.18 411.165 95.66C411.325 96.14 411.555 96.56 411.855 96.92C412.155 97.28 412.525 97.56 412.965 97.76C413.405 97.96 413.905 98.06 414.465 98.06ZM422.681 97.73H424.331C424.851 96.65 425.241 95.45 425.501 94.13C425.761 92.79 425.891 91.21 425.891 89.39V87.29H436.571V97.73H438.671V104.06H435.641V101H425.741V104.06H422.681V97.73ZM429.221 90.65C429.221 93.43 428.811 95.79 427.991 97.73H432.851V90.56H429.221V90.65ZM440.794 87.29H444.514V95.18L450.874 87.29H453.784V101H450.064V92.66L443.344 101H440.794V87.29ZM466.738 95.6H461.038V101H457.318V87.29H461.038V92.33H466.738V87.29H470.458V101H466.738V95.6ZM497.086 87.29H500.806V95.18L507.166 87.29H510.076V101H506.356V92.66L499.636 101H497.086V87.29ZM523.03 95.6H517.33V101H513.61V87.29H517.33V92.33H523.03V87.29H526.75V101H523.03V95.6ZM533.43 90.56H529.02V87.29H541.53V90.56H537.12V101H533.43V90.56ZM549.918 101.21C548.818 101.21 547.808 101.04 546.888 100.7C545.988 100.36 545.208 99.89 544.548 99.29C543.888 98.67 543.378 97.94 543.018 97.1C542.658 96.24 542.478 95.29 542.478 94.25C542.478 93.15 542.668 92.16 543.048 91.28C543.428 90.38 543.948 89.62 544.608 89C545.268 88.38 546.038 87.9 546.918 87.56C547.798 87.22 548.738 87.05 549.738 87.05C550.818 87.05 551.778 87.24 552.618 87.62C553.478 87.98 554.198 88.49 554.778 89.15C555.358 89.79 555.798 90.55 556.098 91.43C556.418 92.29 556.578 93.22 556.578 94.22V95H546.078C546.258 96.06 546.708 96.87 547.428 97.43C548.168 97.99 549.098 98.27 550.218 98.27C551.018 98.27 551.758 98.13 552.438 97.85C553.138 97.55 553.718 97.14 554.178 96.62L556.248 98.51C555.548 99.39 554.648 100.06 553.548 100.52C552.448 100.98 551.238 101.21 549.918 101.21ZM549.588 90.05C548.708 90.05 547.968 90.29 547.368 90.77C546.788 91.23 546.388 91.89 546.168 92.75H553.008C552.888 91.99 552.528 91.35 551.928 90.83C551.328 90.31 550.548 90.05 549.588 90.05ZM558.716 101.3C558.496 101.3 558.296 101.29 558.116 101.27C557.956 101.25 557.816 101.23 557.696 101.21V97.64C557.896 97.68 558.056 97.7 558.176 97.7C558.516 97.7 558.806 97.58 559.046 97.34C559.286 97.08 559.476 96.67 559.616 96.11C559.776 95.53 559.886 94.78 559.946 93.86C560.026 92.94 560.066 91.82 560.066 90.5V87.29H570.476V101H566.786V90.56H563.486V92.18C563.486 93.9 563.376 95.34 563.156 96.5C562.956 97.66 562.646 98.6 562.226 99.32C561.826 100.02 561.326 100.53 560.726 100.85C560.146 101.15 559.476 101.3 558.716 101.3ZM573.599 101.3C573.379 101.3 573.179 101.29 572.999 101.27C572.839 101.25 572.699 101.23 572.579 101.21V97.64C572.779 97.68 572.939 97.7 573.059 97.7C573.399 97.7 573.689 97.58 573.929 97.34C574.169 97.08 574.359 96.67 574.499 96.11C574.659 95.53 574.769 94.78 574.829 93.86C574.909 92.94 574.949 91.82 574.949 90.5V87.29H585.359V101H581.669V90.56H578.369V92.18C578.369 93.9 578.259 95.34 578.039 96.5C577.839 97.66 577.529 98.6 577.109 99.32C576.709 100.02 576.209 100.53 575.609 100.85C575.029 101.15 574.359 101.3 573.599 101.3ZM595.562 101.21C594.462 101.21 593.452 101.04 592.532 100.7C591.632 100.36 590.852 99.89 590.192 99.29C589.532 98.67 589.022 97.94 588.662 97.1C588.302 96.24 588.122 95.29 588.122 94.25C588.122 93.15 588.312 92.16 588.692 91.28C589.072 90.38 589.592 89.62 590.252 89C590.912 88.38 591.682 87.9 592.562 87.56C593.442 87.22 594.382 87.05 595.382 87.05C596.462 87.05 597.422 87.24 598.262 87.62C599.122 87.98 599.842 88.49 600.422 89.15C601.002 89.79 601.442 90.55 601.742 91.43C602.062 92.29 602.222 93.22 602.222 94.22V95H591.722C591.902 96.06 592.352 96.87 593.072 97.43C593.812 97.99 594.742 98.27 595.862 98.27C596.662 98.27 597.402 98.13 598.082 97.85C598.782 97.55 599.362 97.14 599.822 96.62L601.892 98.51C601.192 99.39 600.292 100.06 599.192 100.52C598.092 100.98 596.882 101.21 595.562 101.21ZM595.232 90.05C594.352 90.05 593.612 90.29 593.012 90.77C592.432 91.23 592.032 91.89 591.812 92.75H598.652C598.532 91.99 598.172 91.35 597.572 90.83C596.972 90.31 596.192 90.05 595.232 90.05ZM604.958 87.29H608.678V92.33H610.118L613.418 87.29H617.288V87.8L613.208 93.53L618.308 100.49V101H614.168L610.028 95.15H608.678V101H604.958V87.29ZM623.195 90.56H618.785V87.29H631.295V90.56H626.885V101H623.195V90.56ZM633.658 101.3C632.958 101.3 632.418 101.1 632.038 100.7C631.678 100.28 631.498 99.78 631.498 99.2C631.498 98.58 631.678 98.06 632.038 97.64C632.398 97.22 632.938 97.01 633.658 97.01C634.378 97.01 634.928 97.22 635.308 97.64C635.688 98.06 635.878 98.58 635.878 99.2C635.878 99.78 635.678 100.28 635.278 100.7C634.898 101.1 634.358 101.3 633.658 101.3ZM668.662 101.27C667.042 101.27 665.612 100.99 664.372 100.43C663.152 99.87 662.122 99.11 661.282 98.15L663.682 95.42C664.182 96.02 664.822 96.56 665.602 97.04C666.382 97.5 667.342 97.73 668.482 97.73C669.662 97.73 670.632 97.46 671.392 96.92C672.152 96.38 672.532 95.57 672.532 94.49C672.532 94.05 672.452 93.65 672.292 93.29C672.132 92.91 671.872 92.59 671.512 92.33C671.172 92.05 670.732 91.83 670.192 91.67C669.672 91.51 669.042 91.43 668.302 91.43H667.012V88.34H668.302C669.282 88.34 670.042 88.11 670.582 87.65C671.122 87.17 671.392 86.52 671.392 85.7C671.392 84.82 671.122 84.19 670.582 83.81C670.042 83.43 669.292 83.24 668.332 83.24C667.632 83.24 666.982 83.38 666.382 83.66C665.782 83.92 665.222 84.35 664.702 84.95L662.362 82.52C663.002 81.74 663.852 81.08 664.912 80.54C665.992 79.98 667.252 79.7 668.692 79.7C669.652 79.7 670.532 79.83 671.332 80.09C672.152 80.33 672.852 80.69 673.432 81.17C674.012 81.63 674.462 82.19 674.782 82.85C675.102 83.51 675.262 84.26 675.262 85.1C675.262 86.18 675.002 87.1 674.482 87.86C673.962 88.6 673.312 89.19 672.532 89.63C673.792 89.97 674.782 90.57 675.502 91.43C676.222 92.29 676.582 93.39 676.582 94.73C676.582 95.69 676.402 96.58 676.042 97.4C675.682 98.2 675.162 98.89 674.482 99.47C673.802 100.03 672.972 100.47 671.992 100.79C671.012 101.11 669.902 101.27 668.662 101.27ZM688.951 95.6H683.251V101H679.531V87.29H683.251V92.33H688.951V87.29H692.671V101H688.951V95.6ZM701.781 101.21C700.961 101.21 700.161 101.04 699.381 100.7C698.621 100.36 697.941 99.88 697.341 99.26C696.761 98.64 696.291 97.9 695.931 97.04C695.571 96.16 695.391 95.19 695.391 94.13C695.391 93.07 695.561 92.11 695.901 91.25C696.261 90.37 696.731 89.62 697.311 89C697.911 88.38 698.591 87.9 699.351 87.56C700.131 87.22 700.941 87.05 701.781 87.05C702.801 87.05 703.701 87.25 704.481 87.65C705.281 88.05 705.911 88.54 706.371 89.12V87.29H709.881V101H706.371V99.14C705.871 99.76 705.221 100.26 704.421 100.64C703.621 101.02 702.741 101.21 701.781 101.21ZM702.771 98.03C703.791 98.03 704.601 97.68 705.201 96.98C705.821 96.26 706.141 95.33 706.161 94.19V93.95C706.161 92.89 705.851 92.02 705.231 91.34C704.611 90.66 703.791 90.32 702.771 90.32C702.311 90.32 701.871 90.4 701.451 90.56C701.031 90.72 700.661 90.96 700.341 91.28C700.021 91.6 699.771 92 699.591 92.48C699.411 92.96 699.321 93.51 699.321 94.13C699.321 95.33 699.641 96.28 700.281 96.98C700.941 97.68 701.771 98.03 702.771 98.03ZM722.847 95.6H717.147V101H713.427V87.29H717.147V92.33H722.847V87.29H726.567V101H722.847V95.6ZM730.097 87.29H733.817V95.18L740.177 87.29H743.087V101H739.367V92.66L732.647 101H730.097V87.29ZM753.251 101.21C752.151 101.21 751.141 101.04 750.221 100.7C749.321 100.36 748.541 99.89 747.881 99.29C747.221 98.67 746.711 97.94 746.351 97.1C745.991 96.24 745.811 95.29 745.811 94.25C745.811 93.15 746.001 92.16 746.381 91.28C746.761 90.38 747.281 89.62 747.941 89C748.601 88.38 749.371 87.9 750.251 87.56C751.131 87.22 752.071 87.05 753.071 87.05C754.151 87.05 755.111 87.24 755.951 87.62C756.811 87.98 757.531 88.49 758.111 89.15C758.691 89.79 759.131 90.55 759.431 91.43C759.751 92.29 759.911 93.22 759.911 94.22V95H749.411C749.591 96.06 750.041 96.87 750.761 97.43C751.501 97.99 752.431 98.27 753.551 98.27C754.351 98.27 755.091 98.13 755.771 97.85C756.471 97.55 757.051 97.14 757.511 96.62L759.581 98.51C758.881 99.39 757.981 100.06 756.881 100.52C755.781 100.98 754.571 101.21 753.251 101.21ZM752.921 90.05C752.041 90.05 751.301 90.29 750.701 90.77C750.121 91.23 749.721 91.89 749.501 92.75H756.341C756.221 91.99 755.861 91.35 755.261 90.83C754.661 90.31 753.881 90.05 752.921 90.05ZM799.725 95.42H785.715V92.39H799.725V95.42ZM829.304 92.63H834.134C833.914 91.83 833.514 91.23 832.934 90.83C832.374 90.43 831.674 90.23 830.834 90.23C829.474 90.23 828.454 90.71 827.774 91.67L825.254 89.75C825.794 88.91 826.584 88.25 827.624 87.77C828.684 87.29 829.814 87.05 831.014 87.05C831.994 87.05 832.914 87.21 833.774 87.53C834.654 87.85 835.424 88.31 836.084 88.91C836.744 89.51 837.264 90.25 837.644 91.13C838.024 91.99 838.214 92.98 838.214 94.1C838.214 95.14 838.034 96.1 837.674 96.98C837.334 97.84 836.854 98.59 836.234 99.23C835.614 99.85 834.864 100.34 833.984 100.7C833.104 101.04 832.144 101.21 831.104 101.21C829.804 101.21 828.594 100.95 827.474 100.43C826.374 99.91 825.564 99.16 825.044 98.18L827.744 96.62C828.464 97.64 829.464 98.15 830.744 98.15C831.764 98.15 832.554 97.86 833.114 97.28C833.674 96.7 834.034 96.02 834.194 95.24H829.304V92.63ZM843.634 90.56H839.224V87.29H851.734V90.56H847.324V101H843.634V90.56ZM860.092 101.21C859.012 101.21 858.012 101.04 857.092 100.7C856.192 100.36 855.412 99.88 854.752 99.26C854.112 98.62 853.602 97.87 853.222 97.01C852.862 96.15 852.682 95.19 852.682 94.13C852.682 93.07 852.862 92.11 853.222 91.25C853.602 90.37 854.122 89.62 854.782 89C855.442 88.38 856.222 87.9 857.122 87.56C858.042 87.22 859.032 87.05 860.092 87.05C861.172 87.05 862.162 87.22 863.062 87.56C863.982 87.9 864.772 88.39 865.432 89.03C866.092 89.65 866.602 90.4 866.962 91.28C867.322 92.14 867.502 93.09 867.502 94.13C867.502 95.21 867.312 96.19 866.932 97.07C866.552 97.93 866.032 98.67 865.372 99.29C864.712 99.89 863.932 100.36 863.032 100.7C862.132 101.04 861.152 101.21 860.092 101.21ZM860.092 98.06C861.192 98.06 862.052 97.69 862.672 96.95C863.292 96.21 863.602 95.27 863.602 94.13C863.602 92.99 863.302 92.06 862.702 91.34C862.102 90.6 861.232 90.23 860.092 90.23C858.972 90.23 858.102 90.6 857.482 91.34C856.862 92.08 856.552 93.01 856.552 94.13C856.552 94.67 856.632 95.18 856.792 95.66C856.952 96.14 857.182 96.56 857.482 96.92C857.782 97.28 858.152 97.56 858.592 97.76C859.032 97.96 859.532 98.06 860.092 98.06ZM899.89 101.21C898.81 101.21 897.81 101.04 896.89 100.7C895.99 100.36 895.21 99.88 894.55 99.26C893.91 98.62 893.4 97.87 893.02 97.01C892.66 96.15 892.48 95.19 892.48 94.13C892.48 93.07 892.66 92.11 893.02 91.25C893.4 90.37 893.92 89.62 894.58 89C895.24 88.38 896.02 87.9 896.92 87.56C897.84 87.22 898.83 87.05 899.89 87.05C900.97 87.05 901.96 87.22 902.86 87.56C903.78 87.9 904.57 88.39 905.23 89.03C905.89 89.65 906.4 90.4 906.76 91.28C907.12 92.14 907.3 93.09 907.3 94.13C907.3 95.21 907.11 96.19 906.73 97.07C906.35 97.93 905.83 98.67 905.17 99.29C904.51 99.89 903.73 100.36 902.83 100.7C901.93 101.04 900.95 101.21 899.89 101.21ZM899.89 98.06C900.99 98.06 901.85 97.69 902.47 96.95C903.09 96.21 903.4 95.27 903.4 94.13C903.4 92.99 903.1 92.06 902.5 91.34C901.9 90.6 901.03 90.23 899.89 90.23C898.77 90.23 897.9 90.6 897.28 91.34C896.66 92.08 896.35 93.01 896.35 94.13C896.35 94.67 896.43 95.18 896.59 95.66C896.75 96.14 896.98 96.56 897.28 96.92C897.58 97.28 897.95 97.56 898.39 97.76C898.83 97.96 899.33 98.06 899.89 98.06ZM908.107 97.73H909.757C910.277 96.65 910.667 95.45 910.927 94.13C911.187 92.79 911.317 91.21 911.317 89.39V87.29H921.997V97.73H924.097V104.06H921.067V101H911.167V104.06H908.107V97.73ZM914.647 90.65C914.647 93.43 914.237 95.79 913.417 97.73H918.277V90.56H914.647V90.65ZM935.64 95.6H929.94V101H926.22V87.29H929.94V92.33H935.64V87.29H939.36V101H935.64V95.6ZM949.49 101.21C948.41 101.21 947.41 101.04 946.49 100.7C945.59 100.36 944.81 99.88 944.15 99.26C943.51 98.62 943 97.87 942.62 97.01C942.26 96.15 942.08 95.19 942.08 94.13C942.08 93.07 942.26 92.11 942.62 91.25C943 90.37 943.52 89.62 944.18 89C944.84 88.38 945.62 87.9 946.52 87.56C947.44 87.22 948.43 87.05 949.49 87.05C950.57 87.05 951.56 87.22 952.46 87.56C953.38 87.9 954.17 88.39 954.83 89.03C955.49 89.65 956 90.4 956.36 91.28C956.72 92.14 956.9 93.09 956.9 94.13C956.9 95.21 956.71 96.19 956.33 97.07C955.95 97.93 955.43 98.67 954.77 99.29C954.11 99.89 953.33 100.36 952.43 100.7C951.53 101.04 950.55 101.21 949.49 101.21ZM949.49 98.06C950.59 98.06 951.45 97.69 952.07 96.95C952.69 96.21 953 95.27 953 94.13C953 92.99 952.7 92.06 952.1 91.34C951.5 90.6 950.63 90.23 949.49 90.23C948.37 90.23 947.5 90.6 946.88 91.34C946.26 92.08 945.95 93.01 945.95 94.13C945.95 94.67 946.03 95.18 946.19 95.66C946.35 96.14 946.58 96.56 946.88 96.92C947.18 97.28 947.55 97.56 947.99 97.76C948.43 97.96 948.93 98.06 949.49 98.06ZM960.293 101.15C959.693 101.05 959.233 100.82 958.913 100.46C958.613 100.08 958.463 99.63 958.463 99.11C958.463 98.45 958.673 97.93 959.093 97.55C959.533 97.15 960.053 96.95 960.653 96.95C961.293 96.95 961.843 97.16 962.303 97.58C962.783 98 963.023 98.6 963.023 99.38C963.023 99.9 962.883 100.48 962.603 101.12C962.323 101.76 961.893 102.59 961.313 103.61L960.113 105.8H957.713L960.293 101.15ZM995.123 101.21C994.303 101.21 993.503 101.04 992.723 100.7C991.963 100.36 991.283 99.88 990.683 99.26C990.103 98.64 989.633 97.9 989.273 97.04C988.913 96.16 988.733 95.19 988.733 94.13C988.733 93.07 988.903 92.11 989.243 91.25C989.603 90.37 990.073 89.62 990.653 89C991.253 88.38 991.933 87.9 992.693 87.56C993.473 87.22 994.283 87.05 995.123 87.05C996.143 87.05 997.043 87.25 997.823 87.65C998.623 88.05 999.253 88.54 999.713 89.12V87.29H1003.22V101H999.713V99.14C999.213 99.76 998.563 100.26 997.763 100.64C996.963 101.02 996.083 101.21 995.123 101.21ZM996.113 98.03C997.133 98.03 997.943 97.68 998.543 96.98C999.163 96.26 999.483 95.33 999.503 94.19V93.95C999.503 92.89 999.193 92.02 998.573 91.34C997.953 90.66 997.133 90.32 996.113 90.32C995.653 90.32 995.213 90.4 994.793 90.56C994.373 90.72 994.003 90.96 993.683 91.28C993.363 91.6 993.113 92 992.933 92.48C992.753 92.96 992.663 93.51 992.663 94.13C992.663 95.33 992.983 96.28 993.623 96.98C994.283 97.68 995.113 98.03 996.113 98.03ZM20.37 137.21C19.29 137.21 18.29 137.04 17.37 136.7C16.47 136.36 15.69 135.88 15.03 135.26C14.39 134.62 13.88 133.87 13.5 133.01C13.14 132.15 12.96 131.19 12.96 130.13C12.96 129.07 13.14 128.11 13.5 127.25C13.88 126.37 14.4 125.62 15.06 125C15.72 124.38 16.5 123.9 17.4 123.56C18.32 123.22 19.31 123.05 20.37 123.05C21.45 123.05 22.44 123.22 23.34 123.56C24.26 123.9 25.05 124.39 25.71 125.03C26.37 125.65 26.88 126.4 27.24 127.28C27.6 128.14 27.78 129.09 27.78 130.13C27.78 131.21 27.59 132.19 27.21 133.07C26.83 133.93 26.31 134.67 25.65 135.29C24.99 135.89 24.21 136.36 23.31 136.7C22.41 137.04 21.43 137.21 20.37 137.21ZM20.37 134.06C21.47 134.06 22.33 133.69 22.95 132.95C23.57 132.21 23.88 131.27 23.88 130.13C23.88 128.99 23.58 128.06 22.98 127.34C22.38 126.6 21.51 126.23 20.37 126.23C19.25 126.23 18.38 126.6 17.76 127.34C17.14 128.08 16.83 129.01 16.83 130.13C16.83 130.67 16.91 131.18 17.07 131.66C17.23 132.14 17.46 132.56 17.76 132.92C18.06 133.28 18.43 133.56 18.87 133.76C19.31 133.96 19.81 134.06 20.37 134.06ZM33.1798 126.56H28.7698V123.29H41.2798V126.56H36.8698V137H33.1798V126.56ZM52.9849 131.6H47.2849V137H43.5649V123.29H47.2849V128.33H52.9849V123.29H56.7049V137H52.9849V131.6ZM66.8348 137.21C65.7548 137.21 64.7548 137.04 63.8348 136.7C62.9348 136.36 62.1548 135.88 61.4948 135.26C60.8548 134.62 60.3448 133.87 59.9648 133.01C59.6048 132.15 59.4248 131.19 59.4248 130.13C59.4248 129.07 59.6048 128.11 59.9648 127.25C60.3448 126.37 60.8648 125.62 61.5248 125C62.1848 124.38 62.9648 123.9 63.8648 123.56C64.7848 123.22 65.7748 123.05 66.8348 123.05C67.9148 123.05 68.9048 123.22 69.8048 123.56C70.7248 123.9 71.5148 124.39 72.1748 125.03C72.8348 125.65 73.3448 126.4 73.7048 127.28C74.0648 128.14 74.2448 129.09 74.2448 130.13C74.2448 131.21 74.0548 132.19 73.6748 133.07C73.2948 133.93 72.7748 134.67 72.1148 135.29C71.4548 135.89 70.6748 136.36 69.7748 136.7C68.8748 137.04 67.8948 137.21 66.8348 137.21ZM66.8348 134.06C67.9348 134.06 68.7948 133.69 69.4148 132.95C70.0348 132.21 70.3448 131.27 70.3448 130.13C70.3448 128.99 70.0448 128.06 69.4448 127.34C68.8448 126.6 67.9748 126.23 66.8348 126.23C65.7148 126.23 64.8448 126.6 64.2248 127.34C63.6048 128.08 63.2948 129.01 63.2948 130.13C63.2948 130.67 63.3748 131.18 63.5348 131.66C63.6948 132.14 63.9248 132.56 64.2248 132.92C64.5248 133.28 64.8948 133.56 65.3348 133.76C65.7748 133.96 66.2748 134.06 66.8348 134.06ZM93.0741 123.29H96.7941V137H76.9341V123.29H80.6541V133.73H85.0341V123.29H88.7241V133.73H93.0741V123.29ZM106.972 137.21C105.872 137.21 104.862 137.04 103.942 136.7C103.042 136.36 102.262 135.89 101.602 135.29C100.942 134.67 100.432 133.94 100.072 133.1C99.7123 132.24 99.5323 131.29 99.5323 130.25C99.5323 129.15 99.7223 128.16 100.102 127.28C100.482 126.38 101.002 125.62 101.662 125C102.322 124.38 103.092 123.9 103.972 123.56C104.852 123.22 105.792 123.05 106.792 123.05C107.872 123.05 108.832 123.24 109.672 123.62C110.532 123.98 111.252 124.49 111.832 125.15C112.412 125.79 112.852 126.55 113.152 127.43C113.472 128.29 113.632 129.22 113.632 130.22V131H103.132C103.312 132.06 103.762 132.87 104.482 133.43C105.222 133.99 106.152 134.27 107.272 134.27C108.072 134.27 108.812 134.13 109.492 133.85C110.192 133.55 110.772 133.14 111.232 132.62L113.302 134.51C112.602 135.39 111.702 136.06 110.602 136.52C109.502 136.98 108.292 137.21 106.972 137.21ZM106.642 126.05C105.762 126.05 105.022 126.29 104.422 126.77C103.842 127.23 103.442 127.89 103.222 128.75H110.062C109.942 127.99 109.582 127.35 108.982 126.83C108.382 126.31 107.602 126.05 106.642 126.05ZM125.788 131.6H120.088V137H116.368V123.29H120.088V128.33H125.788V123.29H129.508V137H125.788V131.6ZM133.038 123.29H136.758V131.18L143.118 123.29H146.028V137H142.308V128.66L135.588 137H133.038V123.29ZM148.721 136.49L151.631 132.14C150.031 131.38 149.231 130.03 149.231 128.09C149.231 126.51 149.741 125.32 150.761 124.52C151.801 123.7 153.411 123.29 155.591 123.29H161.531V137H157.811V132.8H155.471L152.771 137H148.721V136.49ZM157.811 130.16V126.17H155.831C154.871 126.17 154.161 126.31 153.701 126.59C153.241 126.85 153.011 127.36 153.011 128.12C153.011 128.88 153.211 129.41 153.611 129.71C154.031 130.01 154.741 130.16 155.741 130.16H157.811ZM183.472 127.55L180.772 130.4L183.472 133.28V136.85L177.472 130.4L183.472 123.95V127.55ZM177.472 127.55L174.772 130.4L177.472 133.28V136.85L171.472 130.4L177.472 123.95V127.55ZM194.687 132.02C194.287 132.2 193.817 132.35 193.277 132.47C192.757 132.57 192.167 132.62 191.507 132.62C190.667 132.62 189.907 132.52 189.227 132.32C188.567 132.12 187.997 131.8 187.517 131.36C187.037 130.92 186.667 130.35 186.407 129.65C186.167 128.95 186.047 128.1 186.047 127.1V123.29H189.767V126.95C189.767 127.73 189.947 128.33 190.307 128.75C190.667 129.15 191.387 129.35 192.467 129.35C193.287 129.35 194.027 129.25 194.687 129.05V123.29H198.407V137H194.687V132.02ZM208.398 137.21C207.298 137.21 206.288 137.04 205.368 136.7C204.468 136.36 203.688 135.89 203.028 135.29C202.368 134.67 201.858 133.94 201.498 133.1C201.138 132.24 200.958 131.29 200.958 130.25C200.958 129.15 201.148 128.16 201.528 127.28C201.908 126.38 202.428 125.62 203.088 125C203.748 124.38 204.518 123.9 205.398 123.56C206.278 123.22 207.218 123.05 208.218 123.05C209.298 123.05 210.258 123.24 211.098 123.62C211.958 123.98 212.678 124.49 213.258 125.15C213.838 125.79 214.278 126.55 214.578 127.43C214.898 128.29 215.058 129.22 215.058 130.22V131H204.558C204.738 132.06 205.188 132.87 205.908 133.43C206.648 133.99 207.578 134.27 208.698 134.27C209.498 134.27 210.238 134.13 210.918 133.85C211.618 133.55 212.198 133.14 212.658 132.62L214.728 134.51C214.028 135.39 213.128 136.06 212.028 136.52C210.928 136.98 209.718 137.21 208.398 137.21ZM208.068 126.05C207.188 126.05 206.448 126.29 205.848 126.77C205.268 127.23 204.868 127.89 204.648 128.75H211.488C211.368 127.99 211.008 127.35 210.408 126.83C209.808 126.31 209.028 126.05 208.068 126.05ZM217.197 137.3C216.977 137.3 216.777 137.29 216.597 137.27C216.437 137.25 216.297 137.23 216.177 137.21V133.64C216.377 133.68 216.537 133.7 216.657 133.7C216.997 133.7 217.287 133.58 217.527 133.34C217.767 133.08 217.957 132.67 218.097 132.11C218.257 131.53 218.367 130.78 218.427 129.86C218.507 128.94 218.547 127.82 218.547 126.5V123.29H228.957V137H225.267V126.56H221.967V128.18C221.967 129.9 221.857 131.34 221.637 132.5C221.437 133.66 221.127 134.6 220.707 135.32C220.307 136.02 219.807 136.53 219.207 136.85C218.627 137.15 217.957 137.3 217.197 137.3ZM239.13 137.21C238.05 137.21 237.05 137.04 236.13 136.7C235.23 136.36 234.45 135.88 233.79 135.26C233.15 134.62 232.64 133.87 232.26 133.01C231.9 132.15 231.72 131.19 231.72 130.13C231.72 129.07 231.9 128.11 232.26 127.25C232.64 126.37 233.16 125.62 233.82 125C234.48 124.38 235.26 123.9 236.16 123.56C237.08 123.22 238.07 123.05 239.13 123.05C240.21 123.05 241.2 123.22 242.1 123.56C243.02 123.9 243.81 124.39 244.47 125.03C245.13 125.65 245.64 126.4 246 127.28C246.36 128.14 246.54 129.09 246.54 130.13C246.54 131.21 246.35 132.19 245.97 133.07C245.59 133.93 245.07 134.67 244.41 135.29C243.75 135.89 242.97 136.36 242.07 136.7C241.17 137.04 240.19 137.21 239.13 137.21ZM239.13 134.06C240.23 134.06 241.09 133.69 241.71 132.95C242.33 132.21 242.64 131.27 242.64 130.13C242.64 128.99 242.34 128.06 241.74 127.34C241.14 126.6 240.27 126.23 239.13 126.23C238.01 126.23 237.14 126.6 236.52 127.34C235.9 128.08 235.59 129.01 235.59 130.13C235.59 130.67 235.67 131.18 235.83 131.66C235.99 132.14 236.22 132.56 236.52 132.92C236.82 133.28 237.19 133.56 237.63 133.76C238.07 133.96 238.57 134.06 239.13 134.06ZM249.229 123.29H256.639C258.059 123.29 259.129 123.6 259.849 124.22C260.569 124.82 260.929 125.61 260.929 126.59C260.929 127.33 260.749 127.94 260.389 128.42C260.029 128.9 259.559 129.24 258.979 129.44C259.959 129.58 260.759 129.92 261.379 130.46C261.999 131 262.309 131.81 262.309 132.89C262.309 134.21 261.819 135.23 260.839 135.95C259.879 136.65 258.469 137 256.609 137H249.229V123.29ZM252.949 130.82V134.27H255.799C256.739 134.27 257.409 134.13 257.809 133.85C258.209 133.55 258.409 133.11 258.409 132.53C258.409 131.93 258.199 131.5 257.779 131.24C257.359 130.96 256.729 130.82 255.889 130.82H252.949ZM252.949 126.02V128.66H255.529C256.809 128.66 257.449 128.21 257.449 127.31C257.449 126.45 256.799 126.02 255.499 126.02H252.949ZM271.269 137.21C270.169 137.21 269.159 137.04 268.239 136.7C267.339 136.36 266.559 135.89 265.899 135.29C265.239 134.67 264.729 133.94 264.369 133.1C264.009 132.24 263.829 131.29 263.829 130.25C263.829 129.15 264.019 128.16 264.399 127.28C264.779 126.38 265.299 125.62 265.959 125C266.619 124.38 267.389 123.9 268.269 123.56C269.149 123.22 270.089 123.05 271.089 123.05C272.169 123.05 273.129 123.24 273.969 123.62C274.829 123.98 275.549 124.49 276.129 125.15C276.709 125.79 277.149 126.55 277.449 127.43C277.769 128.29 277.929 129.22 277.929 130.22V131H267.429C267.609 132.06 268.059 132.87 268.779 133.43C269.519 133.99 270.449 134.27 271.569 134.27C272.369 134.27 273.109 134.13 273.789 133.85C274.489 133.55 275.069 133.14 275.529 132.62L277.599 134.51C276.899 135.39 275.999 136.06 274.899 136.52C273.799 136.98 272.589 137.21 271.269 137.21ZM270.939 126.05C270.059 126.05 269.319 126.29 268.719 126.77C268.139 127.23 267.739 127.89 267.519 128.75H274.359C274.239 127.99 273.879 127.35 273.279 126.83C272.679 126.31 271.899 126.05 270.939 126.05ZM280.665 123.29H284.385V128.33H285.825L289.125 123.29H292.995V123.8L288.915 129.53L294.015 136.49V137H289.875L285.735 131.15H284.385V137H280.665V123.29ZM303.176 131.42H295.136V128.39H303.176V131.42ZM314.54 132.02C314.14 132.2 313.67 132.35 313.13 132.47C312.61 132.57 312.02 132.62 311.36 132.62C310.52 132.62 309.76 132.52 309.08 132.32C308.42 132.12 307.85 131.8 307.37 131.36C306.89 130.92 306.52 130.35 306.26 129.65C306.02 128.95 305.9 128.1 305.9 127.1V123.29H309.62V126.95C309.62 127.73 309.8 128.33 310.16 128.75C310.52 129.15 311.24 129.35 312.32 129.35C313.14 129.35 313.88 129.25 314.54 129.05V123.29H318.26V137H314.54V132.02ZM328.252 137.21C327.152 137.21 326.142 137.04 325.222 136.7C324.322 136.36 323.542 135.89 322.882 135.29C322.222 134.67 321.712 133.94 321.352 133.1C320.992 132.24 320.812 131.29 320.812 130.25C320.812 129.15 321.002 128.16 321.382 127.28C321.762 126.38 322.282 125.62 322.942 125C323.602 124.38 324.372 123.9 325.252 123.56C326.132 123.22 327.072 123.05 328.072 123.05C329.152 123.05 330.112 123.24 330.952 123.62C331.812 123.98 332.532 124.49 333.112 125.15C333.692 125.79 334.132 126.55 334.432 127.43C334.752 128.29 334.912 129.22 334.912 130.22V131H324.412C324.592 132.06 325.042 132.87 325.762 133.43C326.502 133.99 327.432 134.27 328.552 134.27C329.352 134.27 330.092 134.13 330.772 133.85C331.472 133.55 332.052 133.14 332.512 132.62L334.582 134.51C333.882 135.39 332.982 136.06 331.882 136.52C330.782 136.98 329.572 137.21 328.252 137.21ZM327.922 126.05C327.042 126.05 326.302 126.29 325.702 126.77C325.122 127.23 324.722 127.89 324.502 128.75H331.342C331.222 127.99 330.862 127.35 330.262 126.83C329.662 126.31 328.882 126.05 327.922 126.05ZM337.05 137.3C336.83 137.3 336.63 137.29 336.45 137.27C336.29 137.25 336.15 137.23 336.03 137.21V133.64C336.23 133.68 336.39 133.7 336.51 133.7C336.85 133.7 337.14 133.58 337.38 133.34C337.62 133.08 337.81 132.67 337.95 132.11C338.11 131.53 338.22 130.78 338.28 129.86C338.36 128.94 338.4 127.82 338.4 126.5V123.29H348.81V137H345.12V126.56H341.82V128.18C341.82 129.9 341.71 131.34 341.49 132.5C341.29 133.66 340.98 134.6 340.56 135.32C340.16 136.02 339.66 136.53 339.06 136.85C338.48 137.15 337.81 137.3 337.05 137.3ZM358.983 137.21C357.903 137.21 356.903 137.04 355.983 136.7C355.083 136.36 354.303 135.88 353.643 135.26C353.003 134.62 352.493 133.87 352.113 133.01C351.753 132.15 351.573 131.19 351.573 130.13C351.573 129.07 351.753 128.11 352.113 127.25C352.493 126.37 353.013 125.62 353.673 125C354.333 124.38 355.113 123.9 356.013 123.56C356.933 123.22 357.923 123.05 358.983 123.05C360.063 123.05 361.053 123.22 361.953 123.56C362.873 123.9 363.663 124.39 364.323 125.03C364.983 125.65 365.493 126.4 365.853 127.28C366.213 128.14 366.393 129.09 366.393 130.13C366.393 131.21 366.203 132.19 365.823 133.07C365.443 133.93 364.923 134.67 364.263 135.29C363.603 135.89 362.823 136.36 361.923 136.7C361.023 137.04 360.043 137.21 358.983 137.21ZM358.983 134.06C360.083 134.06 360.943 133.69 361.563 132.95C362.183 132.21 362.493 131.27 362.493 130.13C362.493 128.99 362.193 128.06 361.593 127.34C360.993 126.6 360.123 126.23 358.983 126.23C357.863 126.23 356.993 126.6 356.373 127.34C355.753 128.08 355.443 129.01 355.443 130.13C355.443 130.67 355.523 131.18 355.683 131.66C355.843 132.14 356.073 132.56 356.373 132.92C356.673 133.28 357.043 133.56 357.483 133.76C357.923 133.96 358.423 134.06 358.983 134.06ZM369.083 123.29H376.493C377.913 123.29 378.983 123.6 379.703 124.22C380.423 124.82 380.783 125.61 380.783 126.59C380.783 127.33 380.603 127.94 380.243 128.42C379.883 128.9 379.413 129.24 378.833 129.44C379.813 129.58 380.613 129.92 381.233 130.46C381.853 131 382.163 131.81 382.163 132.89C382.163 134.21 381.673 135.23 380.693 135.95C379.733 136.65 378.323 137 376.463 137H369.083V123.29ZM372.803 130.82V134.27H375.653C376.593 134.27 377.263 134.13 377.663 133.85C378.063 133.55 378.263 133.11 378.263 132.53C378.263 131.93 378.053 131.5 377.633 131.24C377.213 130.96 376.583 130.82 375.743 130.82H372.803ZM372.803 126.02V128.66H375.383C376.663 128.66 377.303 128.21 377.303 127.31C377.303 126.45 376.653 126.02 375.353 126.02H372.803ZM391.123 137.21C390.023 137.21 389.013 137.04 388.093 136.7C387.193 136.36 386.413 135.89 385.753 135.29C385.093 134.67 384.583 133.94 384.223 133.1C383.863 132.24 383.683 131.29 383.683 130.25C383.683 129.15 383.873 128.16 384.253 127.28C384.633 126.38 385.153 125.62 385.813 125C386.473 124.38 387.243 123.9 388.123 123.56C389.003 123.22 389.943 123.05 390.943 123.05C392.023 123.05 392.983 123.24 393.823 123.62C394.683 123.98 395.403 124.49 395.983 125.15C396.563 125.79 397.003 126.55 397.303 127.43C397.623 128.29 397.783 129.22 397.783 130.22V131H387.283C387.463 132.06 387.913 132.87 388.633 133.43C389.373 133.99 390.303 134.27 391.423 134.27C392.223 134.27 392.963 134.13 393.643 133.85C394.343 133.55 394.923 133.14 395.383 132.62L397.453 134.51C396.753 135.39 395.853 136.06 394.753 136.52C393.653 136.98 392.443 137.21 391.123 137.21ZM390.793 126.05C389.913 126.05 389.173 126.29 388.573 126.77C387.993 127.23 387.593 127.89 387.373 128.75H394.213C394.093 127.99 393.733 127.35 393.133 126.83C392.533 126.31 391.753 126.05 390.793 126.05ZM400.518 123.29H404.238V128.33H405.678L408.978 123.29H412.848V123.8L408.768 129.53L413.868 136.49V137H409.728L405.588 131.15H404.238V137H400.518V123.29ZM415.396 133.25L418.096 130.4L415.396 127.52V123.95L421.396 130.4L415.396 136.85V133.25ZM421.396 133.25L424.096 130.4L421.396 127.52V123.95L427.396 130.4L421.396 136.85V133.25ZM445.384 131.42H437.344V128.39H445.384V131.42ZM455.09 133.73H456.74C457.26 132.65 457.65 131.45 457.91 130.13C458.17 128.79 458.3 127.21 458.3 125.39V123.29H468.98V133.73H471.08V140.06H468.05V137H458.15V140.06H455.09V133.73ZM461.63 126.65C461.63 129.43 461.22 131.79 460.4 133.73H465.26V126.56H461.63V126.65ZM473.204 144.2V123.29H476.714V125.12C477.174 124.54 477.794 124.05 478.574 123.65C479.374 123.25 480.284 123.05 481.304 123.05C482.144 123.05 482.944 123.22 483.704 123.56C484.484 123.9 485.164 124.38 485.744 125C486.344 125.62 486.814 126.37 487.154 127.25C487.514 128.11 487.694 129.07 487.694 130.13C487.694 131.19 487.514 132.16 487.154 133.04C486.794 133.9 486.314 134.64 485.714 135.26C485.134 135.88 484.454 136.36 483.674 136.7C482.914 137.04 482.124 137.21 481.304 137.21C480.404 137.21 479.574 137.05 478.814 136.73C478.054 136.39 477.424 135.94 476.924 135.38V144.2H473.204ZM480.314 126.32C479.294 126.32 478.484 126.65 477.884 127.31C477.284 127.95 476.964 128.78 476.924 129.8V130.19C476.944 131.33 477.254 132.26 477.854 132.98C478.474 133.68 479.294 134.03 480.314 134.03C481.314 134.03 482.134 133.68 482.774 132.98C483.434 132.28 483.764 131.33 483.764 130.13C483.764 129.51 483.664 128.96 483.464 128.48C483.284 128 483.034 127.6 482.714 127.28C482.414 126.96 482.054 126.72 481.634 126.56C481.214 126.4 480.774 126.32 480.314 126.32ZM491.731 143.75L494.041 137.15L488.431 123.98V123.29H492.151L495.781 132.26L498.961 123.29H502.321L502.291 123.98L495.091 144.2H491.731V143.75ZM504.288 123.29H513.798V126.56H508.008V137H504.288V123.29ZM522.372 137.21C521.292 137.21 520.292 137.04 519.372 136.7C518.472 136.36 517.692 135.88 517.032 135.26C516.392 134.62 515.882 133.87 515.502 133.01C515.142 132.15 514.962 131.19 514.962 130.13C514.962 129.07 515.142 128.11 515.502 127.25C515.882 126.37 516.402 125.62 517.062 125C517.722 124.38 518.502 123.9 519.402 123.56C520.322 123.22 521.312 123.05 522.372 123.05C523.452 123.05 524.442 123.22 525.342 123.56C526.262 123.9 527.052 124.39 527.712 125.03C528.372 125.65 528.882 126.4 529.242 127.28C529.602 128.14 529.782 129.09 529.782 130.13C529.782 131.21 529.592 132.19 529.212 133.07C528.832 133.93 528.312 134.67 527.652 135.29C526.992 135.89 526.212 136.36 525.312 136.7C524.412 137.04 523.432 137.21 522.372 137.21ZM522.372 134.06C523.472 134.06 524.332 133.69 524.952 132.95C525.572 132.21 525.882 131.27 525.882 130.13C525.882 128.99 525.582 128.06 524.982 127.34C524.382 126.6 523.512 126.23 522.372 126.23C521.252 126.23 520.382 126.6 519.762 127.34C519.142 128.08 518.832 129.01 518.832 130.13C518.832 130.67 518.912 131.18 519.072 131.66C519.232 132.14 519.462 132.56 519.762 132.92C520.062 133.28 520.432 133.56 520.872 133.76C521.312 133.96 521.812 134.06 522.372 134.06ZM539.101 137.21C538.001 137.21 536.991 137.04 536.071 136.7C535.171 136.36 534.391 135.89 533.731 135.29C533.071 134.67 532.561 133.94 532.201 133.1C531.841 132.24 531.661 131.29 531.661 130.25C531.661 129.15 531.851 128.16 532.231 127.28C532.611 126.38 533.131 125.62 533.791 125C534.451 124.38 535.221 123.9 536.101 123.56C536.981 123.22 537.921 123.05 538.921 123.05C540.001 123.05 540.961 123.24 541.801 123.62C542.661 123.98 543.381 124.49 543.961 125.15C544.541 125.79 544.981 126.55 545.281 127.43C545.601 128.29 545.761 129.22 545.761 130.22V131H535.261C535.441 132.06 535.891 132.87 536.611 133.43C537.351 133.99 538.281 134.27 539.401 134.27C540.201 134.27 540.941 134.13 541.621 133.85C542.321 133.55 542.901 133.14 543.361 132.62L545.431 134.51C544.731 135.39 543.831 136.06 542.731 136.52C541.631 136.98 540.421 137.21 539.101 137.21ZM538.771 126.05C537.891 126.05 537.151 126.29 536.551 126.77C535.971 127.23 535.571 127.89 535.351 128.75H542.191C542.071 127.99 541.711 127.35 541.111 126.83C540.511 126.31 539.731 126.05 538.771 126.05ZM549.951 137.3C549.251 137.3 548.711 137.1 548.331 136.7C547.971 136.28 547.791 135.78 547.791 135.2C547.791 134.58 547.971 134.06 548.331 133.64C548.691 133.22 549.231 133.01 549.951 133.01C550.671 133.01 551.221 133.22 551.601 133.64C551.981 134.06 552.171 134.58 552.171 135.2C552.171 135.78 551.971 136.28 551.571 136.7C551.191 137.1 550.651 137.3 549.951 137.3Z" fill="black"/>
<defs>
<linearGradient id="paint0_linear_82_5" x1="1228.76" y1="97.4103" x2="-195.05" y2="97.4103" gradientUnits="userSpaceOnUse">
<stop stop-color="white" stop-opacity="0.64"/>
<stop offset="0.325" stop-color="#2736C1" stop-opacity="0.72"/>
<stop offset="1" stop-color="#091FEA"/>
</linearGradient>
</defs>
</svg>
