<svg width="1135" height="233" viewBox="0 0 1135 233" fill="none" xmlns="http://www.w3.org/2000/svg">
<path d="M958.817 89.954C953.35 86.2289 950.078 80.0415 950.078 73.426V20C950.078 8.95429 941.124 0 930.078 0H19.998C8.95239 0 -0.00195312 8.95431 -0.00195312 20V83.9999V190C-0.00195312 201.046 8.95227 210 19.998 210L1070.13 210C1089.81 210 1097.66 184.556 1081.39 173.472L958.817 89.954Z" fill="url(#paint0_linear_80_2)" fill-opacity="0.76"/>
<circle cx="956.498" cy="185.5" r="4.5" fill="black"/>
<circle cx="982.498" cy="185.5" r="4.5" fill="black"/>
<circle cx="1008.5" cy="185.5" r="4.5" fill="black"/>
<circle cx="1034.5" cy="185.5" r="4.5" fill="black"/>
<g filter="url(#filter0_d_80_2)">
<path d="M42.952 62.28H37.576V58.6H52.552V62.28H47.24V81H42.952V62.28ZM53.263 66.376H61.167C62.6817 66.376 63.823 66.7067 64.591 67.368C65.359 68.008 65.743 68.8507 65.743 69.896C65.743 70.6853 65.551 71.336 65.167 71.848C64.783 72.36 64.2817 72.7227 63.663 72.936C64.7083 73.0853 65.5617 73.448 66.223 74.024C66.8843 74.6 67.215 75.464 67.215 76.616C67.215 78.024 66.6923 79.112 65.647 79.88C64.623 80.6267 63.119 81 61.135 81H53.263V66.376ZM57.231 74.408V78.088H60.271C61.2737 78.088 61.9883 77.9387 62.415 77.64C62.8417 77.32 63.055 76.8507 63.055 76.232C63.055 75.592 62.831 75.1333 62.383 74.856C61.935 74.5573 61.263 74.408 60.367 74.408H57.231ZM57.231 69.288V72.104H59.983C61.3483 72.104 62.031 71.624 62.031 70.664C62.031 69.7467 61.3377 69.288 59.951 69.288H57.231ZM76.7405 81.224C75.5885 81.224 74.5218 81.0427 73.5405 80.68C72.5805 80.3173 71.7485 79.8053 71.0445 79.144C70.3618 78.4613 69.8178 77.6613 69.4125 76.744C69.0285 75.8267 68.8365 74.8027 68.8365 73.672C68.8365 72.5413 69.0285 71.5173 69.4125 70.6C69.8178 69.6613 70.3725 68.8613 71.0765 68.2C71.7805 67.5387 72.6125 67.0267 73.5725 66.664C74.5538 66.3013 75.6098 66.12 76.7405 66.12C77.8925 66.12 78.9485 66.3013 79.9085 66.664C80.8898 67.0267 81.7325 67.5493 82.4365 68.232C83.1405 68.8933 83.6845 69.6933 84.0685 70.632C84.4525 71.5493 84.6445 72.5627 84.6445 73.672C84.6445 74.824 84.4418 75.8693 84.0365 76.808C83.6312 77.7253 83.0765 78.5147 82.3725 79.176C81.6685 79.816 80.8365 80.3173 79.8765 80.68C78.9165 81.0427 77.8712 81.224 76.7405 81.224ZM76.7405 77.864C77.9138 77.864 78.8312 77.4693 79.4925 76.68C80.1538 75.8907 80.4845 74.888 80.4845 73.672C80.4845 72.456 80.1645 71.464 79.5245 70.696C78.8845 69.9067 77.9565 69.512 76.7405 69.512C75.5458 69.512 74.6178 69.9067 73.9565 70.696C73.2952 71.4853 72.9645 72.4773 72.9645 73.672C72.9645 74.248 73.0498 74.792 73.2205 75.304C73.3912 75.816 73.6365 76.264 73.9565 76.648C74.2765 77.032 74.6712 77.3307 75.1405 77.544C75.6098 77.7573 76.1432 77.864 76.7405 77.864ZM87.513 88.68V66.376H91.257V68.328C91.7477 67.7093 92.409 67.1867 93.241 66.76C94.0943 66.3333 95.065 66.12 96.153 66.12C97.049 66.12 97.9023 66.3013 98.713 66.664C99.545 67.0267 100.27 67.5387 100.889 68.2C101.529 68.8613 102.03 69.6613 102.393 70.6C102.777 71.5173 102.969 72.5413 102.969 73.672C102.969 74.8027 102.777 75.8373 102.393 76.776C102.009 77.6933 101.497 78.4827 100.857 79.144C100.238 79.8053 99.513 80.3173 98.681 80.68C97.8703 81.0427 97.0277 81.224 96.153 81.224C95.193 81.224 94.3077 81.0533 93.497 80.712C92.6863 80.3493 92.0143 79.8693 91.481 79.272V88.68H87.513ZM95.097 69.608C94.009 69.608 93.145 69.96 92.505 70.664C91.865 71.3467 91.5237 72.232 91.481 73.32V73.736C91.5023 74.952 91.833 75.944 92.473 76.712C93.1343 77.4587 94.009 77.832 95.097 77.832C96.1637 77.832 97.0383 77.4587 97.721 76.712C98.425 75.9653 98.777 74.952 98.777 73.672C98.777 73.0107 98.6703 72.424 98.457 71.912C98.265 71.4 97.9983 70.9733 97.657 70.632C97.337 70.2907 96.953 70.0347 96.505 69.864C96.057 69.6933 95.5877 69.608 95.097 69.608ZM114.272 75.688C113.845 75.88 113.344 76.04 112.768 76.168C112.213 76.2747 111.584 76.328 110.88 76.328C109.984 76.328 109.173 76.2213 108.448 76.008C107.744 75.7947 107.136 75.4533 106.624 74.984C106.112 74.5147 105.717 73.9067 105.44 73.16C105.184 72.4133 105.056 71.5067 105.056 70.44V66.376H109.024V70.28C109.024 71.112 109.216 71.752 109.6 72.2C109.984 72.6267 110.752 72.84 111.904 72.84C112.779 72.84 113.568 72.7333 114.272 72.52V66.376H118.24V81H114.272V75.688ZM128.898 81.224C127.724 81.224 126.647 81.0427 125.666 80.68C124.706 80.3173 123.874 79.816 123.17 79.176C122.466 78.5147 121.922 77.736 121.538 76.84C121.154 75.9227 120.962 74.9093 120.962 73.8C120.962 72.6267 121.164 71.5707 121.57 70.632C121.975 69.672 122.53 68.8613 123.234 68.2C123.938 67.5387 124.759 67.0267 125.698 66.664C126.636 66.3013 127.639 66.12 128.706 66.12C129.858 66.12 130.882 66.3227 131.778 66.728C132.695 67.112 133.463 67.656 134.082 68.36C134.7 69.0427 135.17 69.8533 135.49 70.792C135.831 71.7093 136.002 72.7013 136.002 73.768V74.6H124.802C124.994 75.7307 125.474 76.5947 126.242 77.192C127.031 77.7893 128.023 78.088 129.218 78.088C130.071 78.088 130.86 77.9387 131.586 77.64C132.332 77.32 132.951 76.8827 133.442 76.328L135.65 78.344C134.903 79.2827 133.943 79.9973 132.77 80.488C131.596 80.9787 130.306 81.224 128.898 81.224ZM128.546 69.32C127.607 69.32 126.818 69.576 126.178 70.088C125.559 70.5787 125.132 71.2827 124.898 72.2H132.194C132.066 71.3893 131.682 70.7067 131.042 70.152C130.402 69.5973 129.57 69.32 128.546 69.32ZM145.735 81.224C144.562 81.224 143.506 81.0427 142.567 80.68C141.629 80.3173 140.818 79.816 140.135 79.176C139.474 78.5147 138.962 77.7253 138.599 76.808C138.237 75.8907 138.055 74.8667 138.055 73.736C138.055 72.5413 138.247 71.4747 138.631 70.536C139.037 69.576 139.581 68.776 140.263 68.136C140.946 67.4747 141.757 66.9733 142.695 66.632C143.634 66.2907 144.647 66.12 145.735 66.12C146.973 66.12 148.093 66.3333 149.095 66.76C150.119 67.1867 150.919 67.72 151.495 68.36L149.447 71.048C149.021 70.5787 148.519 70.2053 147.943 69.928C147.389 69.6507 146.759 69.512 146.055 69.512C144.861 69.512 143.911 69.896 143.207 70.664C142.525 71.432 142.183 72.4133 142.183 73.608C142.183 74.8453 142.535 75.8693 143.239 76.68C143.965 77.4693 144.935 77.864 146.151 77.864C146.855 77.864 147.485 77.7253 148.039 77.448C148.594 77.1493 149.085 76.7653 149.511 76.296L151.847 78.6C151.207 79.432 150.354 80.0827 149.287 80.552C148.242 81 147.058 81.224 145.735 81.224ZM157.592 69.864H152.888V66.376H166.232V69.864H161.528V81H157.592V69.864ZM168.669 66.376H176.573C178.088 66.376 179.229 66.7067 179.997 67.368C180.765 68.008 181.149 68.8507 181.149 69.896C181.149 70.6853 180.957 71.336 180.573 71.848C180.189 72.36 179.688 72.7227 179.069 72.936C180.115 73.0853 180.968 73.448 181.629 74.024C182.291 74.6 182.621 75.464 182.621 76.616C182.621 78.024 182.099 79.112 181.053 79.88C180.029 80.6267 178.525 81 176.541 81H168.669V66.376ZM172.637 74.408V78.088H175.677C176.68 78.088 177.395 77.9387 177.821 77.64C178.248 77.32 178.461 76.8507 178.461 76.232C178.461 75.592 178.237 75.1333 177.789 74.856C177.341 74.5573 176.669 74.408 175.773 74.408H172.637ZM172.637 69.288V72.104H175.389C176.755 72.104 177.437 71.624 177.437 70.664C177.437 69.7467 176.744 69.288 175.357 69.288H172.637ZM192.147 81.224C190.995 81.224 189.928 81.0427 188.947 80.68C187.987 80.3173 187.155 79.8053 186.451 79.144C185.768 78.4613 185.224 77.6613 184.819 76.744C184.435 75.8267 184.243 74.8027 184.243 73.672C184.243 72.5413 184.435 71.5173 184.819 70.6C185.224 69.6613 185.779 68.8613 186.483 68.2C187.187 67.5387 188.019 67.0267 188.979 66.664C189.96 66.3013 191.016 66.12 192.147 66.12C193.299 66.12 194.355 66.3013 195.315 66.664C196.296 67.0267 197.139 67.5493 197.843 68.232C198.547 68.8933 199.091 69.6933 199.475 70.632C199.859 71.5493 200.051 72.5627 200.051 73.672C200.051 74.824 199.848 75.8693 199.443 76.808C199.037 77.7253 198.483 78.5147 197.779 79.176C197.075 79.816 196.243 80.3173 195.283 80.68C194.323 81.0427 193.277 81.224 192.147 81.224ZM192.147 77.864C193.32 77.864 194.237 77.4693 194.899 76.68C195.56 75.8907 195.891 74.888 195.891 73.672C195.891 72.456 195.571 71.464 194.931 70.696C194.291 69.9067 193.363 69.512 192.147 69.512C190.952 69.512 190.024 69.9067 189.363 70.696C188.701 71.4853 188.371 72.4773 188.371 73.672C188.371 74.248 188.456 74.792 188.627 75.304C188.797 75.816 189.043 76.264 189.363 76.648C189.683 77.032 190.077 77.3307 190.547 77.544C191.016 77.7573 191.549 77.864 192.147 77.864ZM226.144 75.048H211.2V71.816H226.144V75.048ZM238.201 66.376H246.105C247.619 66.376 248.761 66.7067 249.529 67.368C250.297 68.008 250.681 68.8507 250.681 69.896C250.681 70.6853 250.489 71.336 250.105 71.848C249.721 72.36 249.219 72.7227 248.601 72.936C249.646 73.0853 250.499 73.448 251.161 74.024C251.822 74.6 252.153 75.464 252.153 76.616C252.153 78.024 251.63 79.112 250.585 79.88C249.561 80.6267 248.057 81 246.073 81H238.201V66.376ZM242.169 74.408V78.088H245.209C246.211 78.088 246.926 77.9387 247.353 77.64C247.779 77.32 247.993 76.8507 247.993 76.232C247.993 75.592 247.769 75.1333 247.321 74.856C246.873 74.5573 246.201 74.408 245.305 74.408H242.169ZM242.169 69.288V72.104H244.921C246.286 72.104 246.969 71.624 246.969 70.664C246.969 69.7467 246.275 69.288 244.889 69.288H242.169ZM261.454 81.224C260.281 81.224 259.225 81.0427 258.286 80.68C257.347 80.3173 256.537 79.816 255.854 79.176C255.193 78.5147 254.681 77.7253 254.318 76.808C253.955 75.8907 253.774 74.8667 253.774 73.736C253.774 72.5413 253.966 71.4747 254.35 70.536C254.755 69.576 255.299 68.776 255.982 68.136C256.665 67.4747 257.475 66.9733 258.414 66.632C259.353 66.2907 260.366 66.12 261.454 66.12C262.691 66.12 263.811 66.3333 264.814 66.76C265.838 67.1867 266.638 67.72 267.214 68.36L265.166 71.048C264.739 70.5787 264.238 70.2053 263.662 69.928C263.107 69.6507 262.478 69.512 261.774 69.512C260.579 69.512 259.63 69.896 258.926 70.664C258.243 71.432 257.902 72.4133 257.902 73.608C257.902 74.8453 258.254 75.8693 258.958 76.68C259.683 77.4693 260.654 77.864 261.87 77.864C262.574 77.864 263.203 77.7253 263.758 77.448C264.313 77.1493 264.803 76.7653 265.23 76.296L267.566 78.6C266.926 79.432 266.073 80.0827 265.006 80.552C263.961 81 262.777 81.224 261.454 81.224ZM276.866 81.224C275.693 81.224 274.616 81.0427 273.634 80.68C272.674 80.3173 271.842 79.816 271.138 79.176C270.434 78.5147 269.89 77.736 269.506 76.84C269.122 75.9227 268.93 74.9093 268.93 73.8C268.93 72.6267 269.133 71.5707 269.538 70.632C269.944 69.672 270.498 68.8613 271.202 68.2C271.906 67.5387 272.728 67.0267 273.666 66.664C274.605 66.3013 275.608 66.12 276.674 66.12C277.826 66.12 278.85 66.3227 279.746 66.728C280.664 67.112 281.432 67.656 282.05 68.36C282.669 69.0427 283.138 69.8533 283.458 70.792C283.8 71.7093 283.97 72.7013 283.97 73.768V74.6H272.77C272.962 75.7307 273.442 76.5947 274.21 77.192C275 77.7893 275.992 78.088 277.186 78.088C278.04 78.088 278.829 77.9387 279.554 77.64C280.301 77.32 280.92 76.8827 281.41 76.328L283.618 78.344C282.872 79.2827 281.912 79.9973 280.738 80.488C279.565 80.9787 278.274 81.224 276.866 81.224ZM276.514 69.32C275.576 69.32 274.786 69.576 274.146 70.088C273.528 70.5787 273.101 71.2827 272.866 72.2H280.162C280.034 71.3893 279.65 70.7067 279.01 70.152C278.37 69.5973 277.538 69.32 276.514 69.32ZM295.201 88.68V66.376H298.945V68.328C299.435 67.7093 300.097 67.1867 300.929 66.76C301.782 66.3333 302.753 66.12 303.841 66.12C304.737 66.12 305.59 66.3013 306.401 66.664C307.233 67.0267 307.958 67.5387 308.577 68.2C309.217 68.8613 309.718 69.6613 310.081 70.6C310.465 71.5173 310.657 72.5413 310.657 73.672C310.657 74.8027 310.465 75.8373 310.081 76.776C309.697 77.6933 309.185 78.4827 308.545 79.144C307.926 79.8053 307.201 80.3173 306.369 80.68C305.558 81.0427 304.715 81.224 303.841 81.224C302.881 81.224 301.995 81.0533 301.185 80.712C300.374 80.3493 299.702 79.8693 299.169 79.272V88.68H295.201ZM302.785 69.608C301.697 69.608 300.833 69.96 300.193 70.664C299.553 71.3467 299.211 72.232 299.169 73.32V73.736C299.19 74.952 299.521 75.944 300.161 76.712C300.822 77.4587 301.697 77.832 302.785 77.832C303.851 77.832 304.726 77.4587 305.409 76.712C306.113 75.9653 306.465 74.952 306.465 73.672C306.465 73.0107 306.358 72.424 306.145 71.912C305.953 71.4 305.686 70.9733 305.345 70.632C305.025 70.2907 304.641 70.0347 304.193 69.864C303.745 69.6933 303.275 69.608 302.785 69.608ZM319.528 81.224C318.653 81.224 317.8 81.0427 316.968 80.68C316.157 80.3173 315.432 79.8053 314.792 79.144C314.173 78.4827 313.672 77.6933 313.288 76.776C312.904 75.8373 312.712 74.8027 312.712 73.672C312.712 72.5413 312.893 71.5173 313.256 70.6C313.64 69.6613 314.141 68.8613 314.76 68.2C315.4 67.5387 316.125 67.0267 316.936 66.664C317.768 66.3013 318.632 66.12 319.528 66.12C320.616 66.12 321.576 66.3333 322.408 66.76C323.261 67.1867 323.933 67.7093 324.424 68.328V66.376H328.168V81H324.424V79.016C323.89 79.6773 323.197 80.2107 322.344 80.616C321.49 81.0213 320.552 81.224 319.528 81.224ZM320.584 77.832C321.672 77.832 322.536 77.4587 323.176 76.712C323.837 75.944 324.178 74.952 324.2 73.736V73.48C324.2 72.3493 323.869 71.4213 323.208 70.696C322.546 69.9707 321.672 69.608 320.584 69.608C320.093 69.608 319.624 69.6933 319.176 69.864C318.728 70.0347 318.333 70.2907 317.992 70.632C317.65 70.9733 317.384 71.4 317.192 71.912C317 72.424 316.904 73.0107 316.904 73.672C316.904 74.952 317.245 75.9653 317.928 76.712C318.632 77.4587 319.517 77.832 320.584 77.832ZM331.951 66.376H339.855C341.369 66.376 342.511 66.7067 343.279 67.368C344.047 68.008 344.431 68.8507 344.431 69.896C344.431 70.6853 344.239 71.336 343.855 71.848C343.471 72.36 342.969 72.7227 342.351 72.936C343.396 73.0853 344.249 73.448 344.911 74.024C345.572 74.6 345.903 75.464 345.903 76.616C345.903 78.024 345.38 79.112 344.335 79.88C343.311 80.6267 341.807 81 339.823 81H331.951V66.376ZM335.919 74.408V78.088H338.959C339.961 78.088 340.676 77.9387 341.103 77.64C341.529 77.32 341.743 76.8507 341.743 76.232C341.743 75.592 341.519 75.1333 341.071 74.856C340.623 74.5573 339.951 74.408 339.055 74.408H335.919ZM335.919 69.288V72.104H338.671C340.036 72.104 340.719 71.624 340.719 70.664C340.719 69.7467 340.025 69.288 338.639 69.288H335.919ZM358.436 75.24H352.356V81H348.388V66.376H352.356V71.752H358.436V66.376H362.404V81H358.436V75.24ZM373.209 81.224C372.057 81.224 370.991 81.0427 370.009 80.68C369.049 80.3173 368.217 79.8053 367.513 79.144C366.831 78.4613 366.287 77.6613 365.881 76.744C365.497 75.8267 365.305 74.8027 365.305 73.672C365.305 72.5413 365.497 71.5173 365.881 70.6C366.287 69.6613 366.841 68.8613 367.545 68.2C368.249 67.5387 369.081 67.0267 370.041 66.664C371.023 66.3013 372.079 66.12 373.209 66.12C374.361 66.12 375.417 66.3013 376.377 66.664C377.359 67.0267 378.201 67.5493 378.905 68.232C379.609 68.8933 380.153 69.6933 380.537 70.632C380.921 71.5493 381.113 72.5627 381.113 73.672C381.113 74.824 380.911 75.8693 380.505 76.808C380.1 77.7253 379.545 78.5147 378.841 79.176C378.137 79.816 377.305 80.3173 376.345 80.68C375.385 81.0427 374.34 81.224 373.209 81.224ZM373.209 77.864C374.383 77.864 375.3 77.4693 375.961 76.68C376.623 75.8907 376.953 74.888 376.953 73.672C376.953 72.456 376.633 71.464 375.993 70.696C375.353 69.9067 374.425 69.512 373.209 69.512C372.015 69.512 371.087 69.9067 370.425 70.696C369.764 71.4853 369.433 72.4773 369.433 73.672C369.433 74.248 369.519 74.792 369.689 75.304C369.86 75.816 370.105 76.264 370.425 76.648C370.745 77.032 371.14 77.3307 371.609 77.544C372.079 77.7573 372.612 77.864 373.209 77.864ZM392.294 88.68V66.376H396.038V68.328C396.529 67.7093 397.19 67.1867 398.022 66.76C398.876 66.3333 399.846 66.12 400.934 66.12C401.83 66.12 402.684 66.3013 403.494 66.664C404.326 67.0267 405.052 67.5387 405.67 68.2C406.31 68.8613 406.812 69.6613 407.174 70.6C407.558 71.5173 407.75 72.5413 407.75 73.672C407.75 74.8027 407.558 75.8373 407.174 76.776C406.79 77.6933 406.278 78.4827 405.638 79.144C405.02 79.8053 404.294 80.3173 403.462 80.68C402.652 81.0427 401.809 81.224 400.934 81.224C399.974 81.224 399.089 81.0533 398.278 80.712C397.468 80.3493 396.796 79.8693 396.262 79.272V88.68H392.294ZM399.878 69.608C398.79 69.608 397.926 69.96 397.286 70.664C396.646 71.3467 396.305 72.232 396.262 73.32V73.736C396.284 74.952 396.614 75.944 397.254 76.712C397.916 77.4587 398.79 77.832 399.878 77.832C400.945 77.832 401.82 77.4587 402.502 76.712C403.206 75.9653 403.558 74.952 403.558 73.672C403.558 73.0107 403.452 72.424 403.238 71.912C403.046 71.4 402.78 70.9733 402.438 70.632C402.118 70.2907 401.734 70.0347 401.286 69.864C400.838 69.6933 400.369 69.608 399.878 69.608ZM416.621 81.224C415.747 81.224 414.893 81.0427 414.061 80.68C413.251 80.3173 412.525 79.8053 411.885 79.144C411.267 78.4827 410.765 77.6933 410.381 76.776C409.997 75.8373 409.805 74.8027 409.805 73.672C409.805 72.5413 409.987 71.5173 410.349 70.6C410.733 69.6613 411.235 68.8613 411.853 68.2C412.493 67.5387 413.219 67.0267 414.029 66.664C414.861 66.3013 415.725 66.12 416.621 66.12C417.709 66.12 418.669 66.3333 419.501 66.76C420.355 67.1867 421.027 67.7093 421.517 68.328V66.376H425.261V81H421.517V79.016C420.984 79.6773 420.291 80.2107 419.437 80.616C418.584 81.0213 417.645 81.224 416.621 81.224ZM417.677 77.832C418.765 77.832 419.629 77.4587 420.269 76.712C420.931 75.944 421.272 74.952 421.293 73.736V73.48C421.293 72.3493 420.963 71.4213 420.301 70.696C419.64 69.9707 418.765 69.608 417.677 69.608C417.187 69.608 416.717 69.6933 416.269 69.864C415.821 70.0347 415.427 70.2907 415.085 70.632C414.744 70.9733 414.477 71.4 414.285 71.912C414.093 72.424 413.997 73.0107 413.997 73.672C413.997 74.952 414.339 75.9653 415.021 76.712C415.725 77.4587 416.611 77.832 417.677 77.832ZM436.34 81.288C433.503 81.288 431.434 80.4027 430.132 78.632C428.831 76.8613 428.18 74.2053 428.18 70.664C428.18 68.616 428.394 66.8667 428.82 65.416C429.247 63.944 429.855 62.7493 430.644 61.832C431.455 60.8933 432.426 60.2107 433.556 59.784C434.708 59.336 435.988 59.112 437.396 59.112C438.207 59.112 438.826 59.0373 439.252 58.888C439.679 58.7173 439.999 58.3973 440.212 57.928L443.348 58.856C443.178 59.4747 442.964 60.008 442.708 60.456C442.474 60.8827 442.143 61.2453 441.716 61.544C441.29 61.8427 440.746 62.0773 440.084 62.248C439.423 62.3973 438.58 62.504 437.556 62.568C436.575 62.632 435.722 62.76 434.996 62.952C434.292 63.144 433.695 63.4853 433.204 63.976C432.735 64.4453 432.362 65.1067 432.084 65.96C431.828 66.8133 431.658 67.9227 431.572 69.288C432.191 68.136 432.98 67.336 433.94 66.888C434.922 66.4187 435.988 66.184 437.14 66.184C438.207 66.184 439.167 66.3547 440.02 66.696C440.895 67.0373 441.631 67.528 442.228 68.168C442.826 68.808 443.284 69.576 443.604 70.472C443.924 71.3467 444.084 72.328 444.084 73.416C444.084 74.6107 443.892 75.6987 443.508 76.68C443.124 77.64 442.591 78.4613 441.908 79.144C441.226 79.8267 440.404 80.36 439.444 80.744C438.506 81.1067 437.471 81.288 436.34 81.288ZM436.244 77.8C437.332 77.8 438.207 77.4373 438.868 76.712C439.551 75.9653 439.892 74.9413 439.892 73.64C439.892 72.36 439.572 71.3573 438.932 70.632C438.314 69.8853 437.428 69.512 436.276 69.512C435.146 69.512 434.25 69.8747 433.588 70.6C432.927 71.3253 432.596 72.3387 432.596 73.64C432.596 74.92 432.927 75.9333 433.588 76.68C434.25 77.4267 435.135 77.8 436.244 77.8ZM454.022 81.224C452.87 81.224 451.803 81.0427 450.822 80.68C449.862 80.3173 449.03 79.8053 448.326 79.144C447.643 78.4613 447.099 77.6613 446.694 76.744C446.31 75.8267 446.118 74.8027 446.118 73.672C446.118 72.5413 446.31 71.5173 446.694 70.6C447.099 69.6613 447.654 68.8613 448.358 68.2C449.062 67.5387 449.894 67.0267 450.854 66.664C451.835 66.3013 452.891 66.12 454.022 66.12C455.174 66.12 456.23 66.3013 457.19 66.664C458.171 67.0267 459.014 67.5493 459.718 68.232C460.422 68.8933 460.966 69.6933 461.35 70.632C461.734 71.5493 461.926 72.5627 461.926 73.672C461.926 74.824 461.723 75.8693 461.318 76.808C460.912 77.7253 460.358 78.5147 459.654 79.176C458.95 79.816 458.118 80.3173 457.158 80.68C456.198 81.0427 455.152 81.224 454.022 81.224ZM454.022 77.864C455.195 77.864 456.112 77.4693 456.774 76.68C457.435 75.8907 457.766 74.888 457.766 73.672C457.766 72.456 457.446 71.464 456.806 70.696C456.166 69.9067 455.238 69.512 454.022 69.512C452.827 69.512 451.899 69.9067 451.238 70.696C450.576 71.4853 450.246 72.4773 450.246 73.672C450.246 74.248 450.331 74.792 450.502 75.304C450.672 75.816 450.918 76.264 451.238 76.648C451.558 77.032 451.952 77.3307 452.422 77.544C452.891 77.7573 453.424 77.864 454.022 77.864ZM467.686 69.864H462.982V66.376H476.326V69.864H471.622V81H467.686V69.864ZM484.153 81.224C483.278 81.224 482.425 81.0427 481.593 80.68C480.782 80.3173 480.057 79.8053 479.417 79.144C478.798 78.4827 478.297 77.6933 477.913 76.776C477.529 75.8373 477.337 74.8027 477.337 73.672C477.337 72.5413 477.518 71.5173 477.881 70.6C478.265 69.6613 478.766 68.8613 479.385 68.2C480.025 67.5387 480.75 67.0267 481.561 66.664C482.393 66.3013 483.257 66.12 484.153 66.12C485.241 66.12 486.201 66.3333 487.033 66.76C487.886 67.1867 488.558 67.7093 489.049 68.328V66.376H492.793V81H489.049V79.016C488.515 79.6773 487.822 80.2107 486.969 80.616C486.115 81.0213 485.177 81.224 484.153 81.224ZM485.209 77.832C486.297 77.832 487.161 77.4587 487.801 76.712C488.462 75.944 488.803 74.952 488.825 73.736V73.48C488.825 72.3493 488.494 71.4213 487.833 70.696C487.171 69.9707 486.297 69.608 485.209 69.608C484.718 69.608 484.249 69.6933 483.801 69.864C483.353 70.0347 482.958 70.2907 482.617 70.632C482.275 70.9733 482.009 71.4 481.817 71.912C481.625 72.424 481.529 73.0107 481.529 73.672C481.529 74.952 481.87 75.9653 482.553 76.712C483.257 77.4587 484.142 77.832 485.209 77.832ZM506.328 66.376H509.72L513.592 74.856L517.24 66.376H520.728L523.16 81H519.448L518.04 72.456L514.264 81H512.568L508.76 72.616L507.384 81H503.864L506.328 66.376ZM532.709 81.224C531.557 81.224 530.491 81.0427 529.509 80.68C528.549 80.3173 527.717 79.8053 527.013 79.144C526.331 78.4613 525.787 77.6613 525.381 76.744C524.997 75.8267 524.805 74.8027 524.805 73.672C524.805 72.5413 524.997 71.5173 525.381 70.6C525.787 69.6613 526.341 68.8613 527.045 68.2C527.749 67.5387 528.581 67.0267 529.541 66.664C530.523 66.3013 531.579 66.12 532.709 66.12C533.861 66.12 534.917 66.3013 535.877 66.664C536.859 67.0267 537.701 67.5493 538.405 68.232C539.109 68.8933 539.653 69.6933 540.037 70.632C540.421 71.5493 540.613 72.5627 540.613 73.672C540.613 74.824 540.411 75.8693 540.005 76.808C539.6 77.7253 539.045 78.5147 538.341 79.176C537.637 79.816 536.805 80.3173 535.845 80.68C534.885 81.0427 533.84 81.224 532.709 81.224ZM532.709 77.864C533.883 77.864 534.8 77.4693 535.461 76.68C536.123 75.8907 536.453 74.888 536.453 73.672C536.453 72.456 536.133 71.464 535.493 70.696C534.853 69.9067 533.925 69.512 532.709 69.512C531.515 69.512 530.587 69.9067 529.925 70.696C529.264 71.4853 528.933 72.4773 528.933 73.672C528.933 74.248 529.019 74.792 529.189 75.304C529.36 75.816 529.605 76.264 529.925 76.648C530.245 77.032 530.64 77.3307 531.109 77.544C531.579 77.7573 532.112 77.864 532.709 77.864ZM547.876 81.224C547.086 81.224 546.35 81.1387 545.668 80.968C545.006 80.7973 544.409 80.584 543.876 80.328C543.364 80.072 542.916 79.7947 542.532 79.496C542.169 79.1973 541.892 78.92 541.7 78.664L544.228 76.296C544.569 76.7227 545.049 77.096 545.668 77.416C546.286 77.7147 547.001 77.864 547.812 77.864C549.454 77.864 550.276 77.2987 550.276 76.168C550.276 75.7413 550.094 75.3787 549.732 75.08C549.369 74.7813 548.74 74.632 547.844 74.632H545.796V71.848H547.396C548.078 71.848 548.612 71.752 548.996 71.56C549.38 71.3467 549.572 71.0267 549.572 70.6C549.572 70.2373 549.38 69.96 548.996 69.768C548.612 69.5547 548.11 69.448 547.492 69.448C546.916 69.448 546.35 69.576 545.796 69.832C545.262 70.0667 544.804 70.3653 544.42 70.728L542.276 68.488C542.51 68.2107 542.798 67.9333 543.14 67.656C543.502 67.3787 543.918 67.1333 544.388 66.92C544.857 66.6853 545.39 66.4933 545.988 66.344C546.585 66.1947 547.236 66.12 547.94 66.12C548.772 66.12 549.529 66.216 550.212 66.408C550.894 66.6 551.481 66.8667 551.972 67.208C552.462 67.528 552.836 67.9333 553.092 68.424C553.369 68.8933 553.508 69.416 553.508 69.992C553.508 70.6747 553.326 71.272 552.964 71.784C552.601 72.296 552.1 72.7013 551.46 73C552.42 73.2987 553.134 73.7467 553.604 74.344C554.094 74.9413 554.34 75.656 554.34 76.488C554.34 77.1493 554.19 77.768 553.892 78.344C553.593 78.92 553.166 79.4213 552.612 79.848C552.057 80.2747 551.374 80.616 550.564 80.872C549.774 81.1067 548.878 81.224 547.876 81.224ZM557.013 66.376H567.157V69.864H560.981V81H557.013V66.376ZM575.215 81.224C574.34 81.224 573.487 81.0427 572.655 80.68C571.844 80.3173 571.119 79.8053 570.479 79.144C569.86 78.4827 569.359 77.6933 568.975 76.776C568.591 75.8373 568.399 74.8027 568.399 73.672C568.399 72.5413 568.58 71.5173 568.943 70.6C569.327 69.6613 569.828 68.8613 570.447 68.2C571.087 67.5387 571.812 67.0267 572.623 66.664C573.455 66.3013 574.319 66.12 575.215 66.12C576.303 66.12 577.263 66.3333 578.095 66.76C578.948 67.1867 579.62 67.7093 580.111 68.328V66.376H583.855V81H580.111V79.016C579.578 79.6773 578.884 80.2107 578.031 80.616C577.178 81.0213 576.239 81.224 575.215 81.224ZM576.271 77.832C577.359 77.832 578.223 77.4587 578.863 76.712C579.524 75.944 579.866 74.952 579.887 73.736V73.48C579.887 72.3493 579.556 71.4213 578.895 70.696C578.234 69.9707 577.359 69.608 576.271 69.608C575.78 69.608 575.311 69.6933 574.863 69.864C574.415 70.0347 574.02 70.2907 573.679 70.632C573.338 70.9733 573.071 71.4 572.879 71.912C572.687 72.424 572.591 73.0107 572.591 73.672C572.591 74.952 572.932 75.9653 573.615 76.712C574.319 77.4587 575.204 77.832 576.271 77.832ZM589.814 81.32C589.067 81.32 588.491 81.1067 588.086 80.68C587.702 80.232 587.51 79.6987 587.51 79.08C587.51 78.4187 587.702 77.864 588.086 77.416C588.47 76.968 589.046 76.744 589.814 76.744C590.582 76.744 591.169 76.968 591.574 77.416C591.979 77.864 592.182 78.4187 592.182 79.08C592.182 79.6987 591.969 80.232 591.542 80.68C591.137 81.1067 590.561 81.32 589.814 81.32ZM618.858 71.08H609.162V81H604.874V58.6H609.162V67.368H618.858V58.6H623.146V81H618.858V71.08ZM634.522 81.224C633.37 81.224 632.303 81.0427 631.322 80.68C630.362 80.3173 629.53 79.8053 628.826 79.144C628.143 78.4613 627.599 77.6613 627.194 76.744C626.81 75.8267 626.618 74.8027 626.618 73.672C626.618 72.5413 626.81 71.5173 627.194 70.6C627.599 69.6613 628.154 68.8613 628.858 68.2C629.562 67.5387 630.394 67.0267 631.354 66.664C632.335 66.3013 633.391 66.12 634.522 66.12C635.674 66.12 636.73 66.3013 637.69 66.664C638.671 67.0267 639.514 67.5493 640.218 68.232C640.922 68.8933 641.466 69.6933 641.85 70.632C642.234 71.5493 642.426 72.5627 642.426 73.672C642.426 74.824 642.223 75.8693 641.818 76.808C641.412 77.7253 640.858 78.5147 640.154 79.176C639.45 79.816 638.618 80.3173 637.658 80.68C636.698 81.0427 635.652 81.224 634.522 81.224ZM634.522 77.864C635.695 77.864 636.612 77.4693 637.274 76.68C637.935 75.8907 638.266 74.888 638.266 73.672C638.266 72.456 637.946 71.464 637.306 70.696C636.666 69.9067 635.738 69.512 634.522 69.512C633.327 69.512 632.399 69.9067 631.738 70.696C631.076 71.4853 630.746 72.4773 630.746 73.672C630.746 74.248 630.831 74.792 631.002 75.304C631.172 75.816 631.418 76.264 631.738 76.648C632.058 77.032 632.452 77.3307 632.922 77.544C633.391 77.7573 633.924 77.864 634.522 77.864ZM653.607 66.376H661.511C663.025 66.376 664.167 66.7067 664.935 67.368C665.703 68.008 666.087 68.8507 666.087 69.896C666.087 70.6853 665.895 71.336 665.511 71.848C665.127 72.36 664.625 72.7227 664.007 72.936C665.052 73.0853 665.905 73.448 666.567 74.024C667.228 74.6 667.559 75.464 667.559 76.616C667.559 78.024 667.036 79.112 665.991 79.88C664.967 80.6267 663.463 81 661.479 81H653.607V66.376ZM657.575 74.408V78.088H660.615C661.617 78.088 662.332 77.9387 662.759 77.64C663.185 77.32 663.399 76.8507 663.399 76.232C663.399 75.592 663.175 75.1333 662.727 74.856C662.279 74.5573 661.607 74.408 660.711 74.408H657.575ZM657.575 69.288V72.104H660.327C661.692 72.104 662.375 71.624 662.375 70.664C662.375 69.7467 661.681 69.288 660.295 69.288H657.575ZM685.397 81.224C684.245 81.224 683.178 81.0427 682.197 80.68C681.237 80.3173 680.405 79.8053 679.701 79.144C679.018 78.4613 678.474 77.6613 678.069 76.744C677.685 75.8267 677.493 74.8027 677.493 73.672C677.493 72.5413 677.685 71.5173 678.069 70.6C678.474 69.6613 679.029 68.8613 679.733 68.2C680.437 67.5387 681.269 67.0267 682.229 66.664C683.21 66.3013 684.266 66.12 685.397 66.12C686.549 66.12 687.605 66.3013 688.565 66.664C689.546 67.0267 690.389 67.5493 691.093 68.232C691.797 68.8933 692.341 69.6933 692.725 70.632C693.109 71.5493 693.301 72.5627 693.301 73.672C693.301 74.824 693.098 75.8693 692.693 76.808C692.287 77.7253 691.733 78.5147 691.029 79.176C690.325 79.816 689.493 80.3173 688.533 80.68C687.573 81.0427 686.527 81.224 685.397 81.224ZM685.397 77.864C686.57 77.864 687.487 77.4693 688.149 76.68C688.81 75.8907 689.141 74.888 689.141 73.672C689.141 72.456 688.821 71.464 688.181 70.696C687.541 69.9067 686.613 69.512 685.397 69.512C684.202 69.512 683.274 69.9067 682.613 70.696C681.951 71.4853 681.621 72.4773 681.621 73.672C681.621 74.248 681.706 74.792 681.877 75.304C682.047 75.816 682.293 76.264 682.613 76.648C682.933 77.032 683.327 77.3307 683.797 77.544C684.266 77.7573 684.799 77.864 685.397 77.864ZM702.985 81.224C701.812 81.224 700.756 81.0427 699.817 80.68C698.879 80.3173 698.068 79.816 697.385 79.176C696.724 78.5147 696.212 77.7253 695.849 76.808C695.487 75.8907 695.305 74.8667 695.305 73.736C695.305 72.5413 695.497 71.4747 695.881 70.536C696.287 69.576 696.831 68.776 697.513 68.136C698.196 67.4747 699.007 66.9733 699.945 66.632C700.884 66.2907 701.897 66.12 702.985 66.12C704.223 66.12 705.343 66.3333 706.345 66.76C707.369 67.1867 708.169 67.72 708.745 68.36L706.697 71.048C706.271 70.5787 705.769 70.2053 705.193 69.928C704.639 69.6507 704.009 69.512 703.305 69.512C702.111 69.512 701.161 69.896 700.457 70.664C699.775 71.432 699.433 72.4133 699.433 73.608C699.433 74.8453 699.785 75.8693 700.489 76.68C701.215 77.4693 702.185 77.864 703.401 77.864C704.105 77.864 704.735 77.7253 705.289 77.448C705.844 77.1493 706.335 76.7653 706.761 76.296L709.097 78.6C708.457 79.432 707.604 80.0827 706.537 80.552C705.492 81 704.308 81.224 702.985 81.224ZM721.53 75.24H715.45V81H711.482V66.376H715.45V71.752H721.53V66.376H725.498V81H721.53V75.24ZM736.303 81.224C735.151 81.224 734.084 81.0427 733.103 80.68C732.143 80.3173 731.311 79.8053 730.607 79.144C729.924 78.4613 729.38 77.6613 728.975 76.744C728.591 75.8267 728.399 74.8027 728.399 73.672C728.399 72.5413 728.591 71.5173 728.975 70.6C729.38 69.6613 729.935 68.8613 730.639 68.2C731.343 67.5387 732.175 67.0267 733.135 66.664C734.116 66.3013 735.172 66.12 736.303 66.12C737.455 66.12 738.511 66.3013 739.471 66.664C740.452 67.0267 741.295 67.5493 741.999 68.232C742.703 68.8933 743.247 69.6933 743.631 70.632C744.015 71.5493 744.207 72.5627 744.207 73.672C744.207 74.824 744.004 75.8693 743.599 76.808C743.194 77.7253 742.639 78.5147 741.935 79.176C741.231 79.816 740.399 80.3173 739.439 80.68C738.479 81.0427 737.434 81.224 736.303 81.224ZM736.303 77.864C737.476 77.864 738.394 77.4693 739.055 76.68C739.716 75.8907 740.047 74.888 740.047 73.672C740.047 72.456 739.727 71.464 739.087 70.696C738.447 69.9067 737.519 69.512 736.303 69.512C735.108 69.512 734.18 69.9067 733.519 70.696C732.858 71.4853 732.527 72.4773 732.527 73.672C732.527 74.248 732.612 74.792 732.783 75.304C732.954 75.816 733.199 76.264 733.519 76.648C733.839 77.032 734.234 77.3307 734.703 77.544C735.172 77.7573 735.706 77.864 736.303 77.864ZM747.076 66.376H754.98C756.494 66.376 757.636 66.7067 758.404 67.368C759.172 68.008 759.556 68.8507 759.556 69.896C759.556 70.6853 759.364 71.336 758.98 71.848C758.596 72.36 758.094 72.7227 757.476 72.936C758.521 73.0853 759.374 73.448 760.036 74.024C760.697 74.6 761.028 75.464 761.028 76.616C761.028 78.024 760.505 79.112 759.46 79.88C758.436 80.6267 756.932 81 754.948 81H747.076V66.376ZM751.044 74.408V78.088H754.084C755.086 78.088 755.801 77.9387 756.228 77.64C756.654 77.32 756.868 76.8507 756.868 76.232C756.868 75.592 756.644 75.1333 756.196 74.856C755.748 74.5573 755.076 74.408 754.18 74.408H751.044ZM751.044 69.288V72.104H753.796C755.161 72.104 755.844 71.624 755.844 70.664C755.844 69.7467 755.15 69.288 753.764 69.288H751.044ZM773.561 75.24H767.481V81H763.513V66.376H767.481V71.752H773.561V66.376H777.529V81H773.561V75.24ZM788.334 81.224C787.182 81.224 786.116 81.0427 785.134 80.68C784.174 80.3173 783.342 79.8053 782.638 79.144C781.956 78.4613 781.412 77.6613 781.006 76.744C780.622 75.8267 780.43 74.8027 780.43 73.672C780.43 72.5413 780.622 71.5173 781.006 70.6C781.412 69.6613 781.966 68.8613 782.67 68.2C783.374 67.5387 784.206 67.0267 785.166 66.664C786.148 66.3013 787.204 66.12 788.334 66.12C789.486 66.12 790.542 66.3013 791.502 66.664C792.484 67.0267 793.326 67.5493 794.03 68.232C794.734 68.8933 795.278 69.6933 795.662 70.632C796.046 71.5493 796.238 72.5627 796.238 73.672C796.238 74.824 796.036 75.8693 795.63 76.808C795.225 77.7253 794.67 78.5147 793.966 79.176C793.262 79.816 792.43 80.3173 791.47 80.68C790.51 81.0427 789.465 81.224 788.334 81.224ZM788.334 77.864C789.508 77.864 790.425 77.4693 791.086 76.68C791.748 75.8907 792.078 74.888 792.078 73.672C792.078 72.456 791.758 71.464 791.118 70.696C790.478 69.9067 789.55 69.512 788.334 69.512C787.14 69.512 786.212 69.9067 785.55 70.696C784.889 71.4853 784.558 72.4773 784.558 73.672C784.558 74.248 784.644 74.792 784.814 75.304C784.985 75.816 785.23 76.264 785.55 76.648C785.87 77.032 786.265 77.3307 786.734 77.544C787.204 77.7573 787.737 77.864 788.334 77.864ZM800.391 66.376H803.783L807.655 74.856L811.303 66.376H814.791L817.223 81H813.51L812.103 72.456L808.327 81H806.631L802.823 72.616L801.447 81H797.927L800.391 66.376ZM831.431 72.072H836.583C836.348 71.2187 835.922 70.5787 835.303 70.152C834.706 69.7253 833.959 69.512 833.063 69.512C831.612 69.512 830.524 70.024 829.799 71.048L827.111 69C827.687 68.104 828.53 67.4 829.639 66.888C830.77 66.376 831.975 66.12 833.255 66.12C834.3 66.12 835.282 66.2907 836.199 66.632C837.138 66.9733 837.959 67.464 838.663 68.104C839.367 68.744 839.922 69.5333 840.327 70.472C840.732 71.3893 840.935 72.4453 840.935 73.64C840.935 74.7493 840.743 75.7733 840.359 76.712C839.996 77.6293 839.484 78.4293 838.823 79.112C838.162 79.7733 837.362 80.296 836.423 80.68C835.484 81.0427 834.46 81.224 833.351 81.224C831.964 81.224 830.674 80.9467 829.479 80.392C828.306 79.8373 827.442 79.0373 826.887 77.992L829.767 76.328C830.535 77.416 831.602 77.96 832.967 77.96C834.055 77.96 834.898 77.6507 835.495 77.032C836.092 76.4133 836.476 75.688 836.647 74.856H831.431V72.072ZM846.717 69.864H842.013V66.376H855.357V69.864H850.653V81H846.717V69.864ZM864.272 81.224C863.12 81.224 862.053 81.0427 861.072 80.68C860.112 80.3173 859.28 79.8053 858.576 79.144C857.893 78.4613 857.349 77.6613 856.944 76.744C856.56 75.8267 856.368 74.8027 856.368 73.672C856.368 72.5413 856.56 71.5173 856.944 70.6C857.349 69.6613 857.904 68.8613 858.608 68.2C859.312 67.5387 860.144 67.0267 861.104 66.664C862.085 66.3013 863.141 66.12 864.272 66.12C865.424 66.12 866.48 66.3013 867.44 66.664C868.421 67.0267 869.264 67.5493 869.968 68.232C870.672 68.8933 871.216 69.6933 871.6 70.632C871.984 71.5493 872.176 72.5627 872.176 73.672C872.176 74.824 871.973 75.8693 871.568 76.808C871.162 77.7253 870.608 78.5147 869.904 79.176C869.2 79.816 868.368 80.3173 867.408 80.68C866.448 81.0427 865.402 81.224 864.272 81.224ZM864.272 77.864C865.445 77.864 866.362 77.4693 867.024 76.68C867.685 75.8907 868.016 74.888 868.016 73.672C868.016 72.456 867.696 71.464 867.056 70.696C866.416 69.9067 865.488 69.512 864.272 69.512C863.077 69.512 862.149 69.9067 861.488 70.696C860.826 71.4853 860.496 72.4773 860.496 73.672C860.496 74.248 860.581 74.792 860.752 75.304C860.922 75.816 861.168 76.264 861.488 76.648C861.808 77.032 862.202 77.3307 862.672 77.544C863.141 77.7573 863.674 77.864 864.272 77.864ZM37.192 115.512H38.952C39.5067 114.36 39.9227 113.08 40.2 111.672C40.4773 110.243 40.616 108.557 40.616 106.616V104.376H52.008V115.512H54.248V122.264H51.016V119H40.456V122.264H37.192V115.512ZM44.168 107.96C44.168 110.925 43.7307 113.443 42.856 115.512H48.04V107.864H44.168V107.96ZM63.2725 119.224C62.0992 119.224 61.0218 119.043 60.0405 118.68C59.0805 118.317 58.2485 117.816 57.5445 117.176C56.8405 116.515 56.2965 115.736 55.9125 114.84C55.5285 113.923 55.3365 112.909 55.3365 111.8C55.3365 110.627 55.5392 109.571 55.9445 108.632C56.3498 107.672 56.9045 106.861 57.6085 106.2C58.3125 105.539 59.1338 105.027 60.0725 104.664C61.0112 104.301 62.0138 104.12 63.0805 104.12C64.2325 104.12 65.2565 104.323 66.1525 104.728C67.0698 105.112 67.8378 105.656 68.4565 106.36C69.0752 107.043 69.5445 107.853 69.8645 108.792C70.2058 109.709 70.3765 110.701 70.3765 111.768V112.6H59.1765C59.3685 113.731 59.8485 114.595 60.6165 115.192C61.4058 115.789 62.3978 116.088 63.5925 116.088C64.4458 116.088 65.2352 115.939 65.9605 115.64C66.7072 115.32 67.3258 114.883 67.8165 114.328L70.0245 116.344C69.2778 117.283 68.3178 117.997 67.1445 118.488C65.9712 118.979 64.6805 119.224 63.2725 119.224ZM62.9205 107.32C61.9818 107.32 61.1925 107.576 60.5525 108.088C59.9338 108.579 59.5072 109.283 59.2725 110.2H66.5685C66.4405 109.389 66.0565 108.707 65.4165 108.152C64.7765 107.597 63.9445 107.32 62.9205 107.32ZM72.242 118.456L75.346 113.816C73.6393 113.005 72.786 111.565 72.786 109.496C72.786 107.811 73.33 106.541 74.418 105.688C75.5273 104.813 77.2447 104.376 79.57 104.376H85.906V119H81.938V114.52H79.442L76.562 119H72.242V118.456ZM81.938 111.704V107.448H79.826C78.802 107.448 78.0447 107.597 77.554 107.896C77.0633 108.173 76.818 108.717 76.818 109.528C76.818 110.339 77.0313 110.904 77.458 111.224C77.906 111.544 78.6633 111.704 79.73 111.704H81.938ZM93.0293 107.864H88.3253V104.376H101.669V107.864H96.9653V119H93.0293V107.864ZM110.616 119.224C109.443 119.224 108.366 119.043 107.384 118.68C106.424 118.317 105.592 117.816 104.888 117.176C104.184 116.515 103.64 115.736 103.256 114.84C102.872 113.923 102.68 112.909 102.68 111.8C102.68 110.627 102.883 109.571 103.288 108.632C103.694 107.672 104.248 106.861 104.952 106.2C105.656 105.539 106.478 105.027 107.416 104.664C108.355 104.301 109.358 104.12 110.424 104.12C111.576 104.12 112.6 104.323 113.496 104.728C114.414 105.112 115.182 105.656 115.8 106.36C116.419 107.043 116.888 107.853 117.208 108.792C117.55 109.709 117.72 110.701 117.72 111.768V112.6H106.52C106.712 113.731 107.192 114.595 107.96 115.192C108.75 115.789 109.742 116.088 110.936 116.088C111.79 116.088 112.579 115.939 113.304 115.64C114.051 115.32 114.67 114.883 115.16 114.328L117.368 116.344C116.622 117.283 115.662 117.997 114.488 118.488C113.315 118.979 112.024 119.224 110.616 119.224ZM110.264 107.32C109.326 107.32 108.536 107.576 107.896 108.088C107.278 108.579 106.851 109.283 106.616 110.2H113.912C113.784 109.389 113.4 108.707 112.76 108.152C112.12 107.597 111.288 107.32 110.264 107.32ZM120.002 119.32C119.767 119.32 119.554 119.309 119.362 119.288C119.191 119.267 119.042 119.245 118.914 119.224V115.416C119.127 115.459 119.298 115.48 119.426 115.48C119.788 115.48 120.098 115.352 120.354 115.096C120.61 114.819 120.812 114.381 120.962 113.784C121.132 113.165 121.25 112.365 121.314 111.384C121.399 110.403 121.442 109.208 121.442 107.8V104.376H132.546V119H128.61V107.864H125.09V109.592C125.09 111.427 124.972 112.963 124.738 114.2C124.524 115.437 124.194 116.44 123.746 117.208C123.319 117.955 122.786 118.499 122.146 118.84C121.527 119.16 120.812 119.32 120.002 119.32ZM136.357 104.376H140.325V108.6H142.917C144.986 108.6 146.554 109.027 147.621 109.88C148.709 110.733 149.253 112.024 149.253 113.752C149.253 115.48 148.687 116.792 147.557 117.688C146.447 118.563 144.794 119 142.597 119H136.357V104.376ZM142.213 115.896C143.173 115.896 143.909 115.757 144.421 115.48C144.933 115.181 145.189 114.605 145.189 113.752C145.189 112.963 144.954 112.419 144.485 112.12C144.015 111.821 143.301 111.672 142.341 111.672H140.325V115.896H142.213ZM161.842 113.24H155.762V119H151.794V104.376H155.762V109.752H161.842V104.376H165.81V119H161.842V113.24ZM176.616 119.224C175.464 119.224 174.397 119.043 173.416 118.68C172.456 118.317 171.624 117.805 170.92 117.144C170.237 116.461 169.693 115.661 169.288 114.744C168.904 113.827 168.712 112.803 168.712 111.672C168.712 110.541 168.904 109.517 169.288 108.6C169.693 107.661 170.248 106.861 170.952 106.2C171.656 105.539 172.488 105.027 173.448 104.664C174.429 104.301 175.485 104.12 176.616 104.12C177.768 104.12 178.824 104.301 179.784 104.664C180.765 105.027 181.608 105.549 182.312 106.232C183.016 106.893 183.56 107.693 183.944 108.632C184.328 109.549 184.52 110.563 184.52 111.672C184.52 112.824 184.317 113.869 183.912 114.808C183.506 115.725 182.952 116.515 182.248 117.176C181.544 117.816 180.712 118.317 179.752 118.68C178.792 119.043 177.746 119.224 176.616 119.224ZM176.616 115.864C177.789 115.864 178.706 115.469 179.368 114.68C180.029 113.891 180.36 112.888 180.36 111.672C180.36 110.456 180.04 109.464 179.4 108.696C178.76 107.907 177.832 107.512 176.616 107.512C175.421 107.512 174.493 107.907 173.832 108.696C173.17 109.485 172.84 110.477 172.84 111.672C172.84 112.248 172.925 112.792 173.096 113.304C173.266 113.816 173.512 114.264 173.832 114.648C174.152 115.032 174.546 115.331 175.016 115.544C175.485 115.757 176.018 115.864 176.616 115.864ZM194.204 119.224C193.031 119.224 191.975 119.043 191.036 118.68C190.097 118.317 189.287 117.816 188.604 117.176C187.943 116.515 187.431 115.725 187.068 114.808C186.705 113.891 186.524 112.867 186.524 111.736C186.524 110.541 186.716 109.475 187.1 108.536C187.505 107.576 188.049 106.776 188.732 106.136C189.415 105.475 190.225 104.973 191.164 104.632C192.103 104.291 193.116 104.12 194.204 104.12C195.441 104.12 196.561 104.333 197.564 104.76C198.588 105.187 199.388 105.72 199.964 106.36L197.916 109.048C197.489 108.579 196.988 108.205 196.412 107.928C195.857 107.651 195.228 107.512 194.524 107.512C193.329 107.512 192.38 107.896 191.676 108.664C190.993 109.432 190.652 110.413 190.652 111.608C190.652 112.845 191.004 113.869 191.708 114.68C192.433 115.469 193.404 115.864 194.62 115.864C195.324 115.864 195.953 115.725 196.508 115.448C197.063 115.149 197.553 114.765 197.98 114.296L200.316 116.6C199.676 117.432 198.823 118.083 197.756 118.552C196.711 119 195.527 119.224 194.204 119.224ZM206.061 107.864H201.357V104.376H214.701V107.864H209.997V119H206.061V107.864ZM217.138 104.376H221.106V108.6H223.698C225.767 108.6 227.335 109.027 228.402 109.88C229.49 110.733 230.034 112.024 230.034 113.752C230.034 115.48 229.469 116.792 228.338 117.688C227.229 118.563 225.575 119 223.378 119H217.138V104.376ZM222.994 115.896C223.954 115.896 224.69 115.757 225.202 115.48C225.714 115.181 225.97 114.605 225.97 113.752C225.97 112.963 225.735 112.419 225.266 112.12C224.797 111.821 224.082 111.672 223.122 111.672H221.106V115.896H222.994ZM233.952 119.16C233.312 119.053 232.821 118.808 232.48 118.424C232.16 118.019 232 117.539 232 116.984C232 116.28 232.224 115.725 232.672 115.32C233.141 114.893 233.696 114.68 234.336 114.68C235.018 114.68 235.605 114.904 236.096 115.352C236.608 115.8 236.864 116.44 236.864 117.272C236.864 117.827 236.714 118.445 236.416 119.128C236.117 119.811 235.658 120.696 235.04 121.784L233.76 124.12H231.2L233.952 119.16ZM255.866 119.224C254.714 119.224 253.647 119.043 252.666 118.68C251.706 118.317 250.874 117.805 250.17 117.144C249.487 116.461 248.943 115.661 248.538 114.744C248.154 113.827 247.962 112.803 247.962 111.672C247.962 110.541 248.154 109.517 248.538 108.6C248.943 107.661 249.498 106.861 250.202 106.2C250.906 105.539 251.738 105.027 252.698 104.664C253.679 104.301 254.735 104.12 255.866 104.12C257.018 104.12 258.074 104.301 259.034 104.664C260.015 105.027 260.858 105.549 261.562 106.232C262.266 106.893 262.81 107.693 263.194 108.632C263.578 109.549 263.77 110.563 263.77 111.672C263.77 112.824 263.567 113.869 263.162 114.808C262.756 115.725 262.202 116.515 261.498 117.176C260.794 117.816 259.962 118.317 259.002 118.68C258.042 119.043 256.996 119.224 255.866 119.224ZM255.866 115.864C257.039 115.864 257.956 115.469 258.618 114.68C259.279 113.891 259.61 112.888 259.61 111.672C259.61 110.456 259.29 109.464 258.65 108.696C258.01 107.907 257.082 107.512 255.866 107.512C254.671 107.512 253.743 107.907 253.082 108.696C252.42 109.485 252.09 110.477 252.09 111.672C252.09 112.248 252.175 112.792 252.346 113.304C252.516 113.816 252.762 114.264 253.082 114.648C253.402 115.032 253.796 115.331 254.266 115.544C254.735 115.757 255.268 115.864 255.866 115.864ZM273.454 119.224C272.281 119.224 271.225 119.043 270.286 118.68C269.347 118.317 268.537 117.816 267.854 117.176C267.193 116.515 266.681 115.725 266.318 114.808C265.955 113.891 265.774 112.867 265.774 111.736C265.774 110.541 265.966 109.475 266.35 108.536C266.755 107.576 267.299 106.776 267.982 106.136C268.665 105.475 269.475 104.973 270.414 104.632C271.353 104.291 272.366 104.12 273.454 104.12C274.691 104.12 275.811 104.333 276.814 104.76C277.838 105.187 278.638 105.72 279.214 106.36L277.166 109.048C276.739 108.579 276.238 108.205 275.662 107.928C275.107 107.651 274.478 107.512 273.774 107.512C272.579 107.512 271.63 107.896 270.926 108.664C270.243 109.432 269.902 110.413 269.902 111.608C269.902 112.845 270.254 113.869 270.958 114.68C271.683 115.469 272.654 115.864 273.87 115.864C274.574 115.864 275.203 115.725 275.758 115.448C276.313 115.149 276.803 114.765 277.23 114.296L279.566 116.6C278.926 117.432 278.073 118.083 277.006 118.552C275.961 119 274.777 119.224 273.454 119.224ZM291.999 113.24H285.919V119H281.951V104.376H285.919V109.752H291.999V104.376H295.967V119H291.999V113.24ZM306.772 119.224C305.62 119.224 304.553 119.043 303.572 118.68C302.612 118.317 301.78 117.805 301.076 117.144C300.393 116.461 299.849 115.661 299.444 114.744C299.06 113.827 298.868 112.803 298.868 111.672C298.868 110.541 299.06 109.517 299.444 108.6C299.849 107.661 300.404 106.861 301.108 106.2C301.812 105.539 302.644 105.027 303.604 104.664C304.585 104.301 305.641 104.12 306.772 104.12C307.924 104.12 308.98 104.301 309.94 104.664C310.921 105.027 311.764 105.549 312.468 106.232C313.172 106.893 313.716 107.693 314.1 108.632C314.484 109.549 314.676 110.563 314.676 111.672C314.676 112.824 314.473 113.869 314.068 114.808C313.662 115.725 313.108 116.515 312.404 117.176C311.7 117.816 310.868 118.317 309.908 118.68C308.948 119.043 307.902 119.224 306.772 119.224ZM306.772 115.864C307.945 115.864 308.862 115.469 309.524 114.68C310.185 113.891 310.516 112.888 310.516 111.672C310.516 110.456 310.196 109.464 309.556 108.696C308.916 107.907 307.988 107.512 306.772 107.512C305.577 107.512 304.649 107.907 303.988 108.696C303.326 109.485 302.996 110.477 302.996 111.672C302.996 112.248 303.081 112.792 303.252 113.304C303.422 113.816 303.668 114.264 303.988 114.648C304.308 115.032 304.702 115.331 305.172 115.544C305.641 115.757 306.174 115.864 306.772 115.864ZM317.544 104.376H325.448C326.963 104.376 328.104 104.707 328.872 105.368C329.64 106.008 330.024 106.851 330.024 107.896C330.024 108.685 329.832 109.336 329.448 109.848C329.064 110.36 328.563 110.723 327.944 110.936C328.99 111.085 329.843 111.448 330.504 112.024C331.166 112.6 331.496 113.464 331.496 114.616C331.496 116.024 330.974 117.112 329.928 117.88C328.904 118.627 327.4 119 325.416 119H317.544V104.376ZM321.512 112.408V116.088H324.552C325.555 116.088 326.27 115.939 326.696 115.64C327.123 115.32 327.336 114.851 327.336 114.232C327.336 113.592 327.112 113.133 326.664 112.856C326.216 112.557 325.544 112.408 324.648 112.408H321.512ZM321.512 107.288V110.104H324.264C325.63 110.104 326.312 109.624 326.312 108.664C326.312 107.747 325.619 107.288 324.232 107.288H321.512ZM339.934 119.224C339.059 119.224 338.206 119.043 337.374 118.68C336.563 118.317 335.838 117.805 335.198 117.144C334.579 116.483 334.078 115.693 333.694 114.776C333.31 113.837 333.118 112.803 333.118 111.672C333.118 110.541 333.299 109.517 333.662 108.6C334.046 107.661 334.547 106.861 335.166 106.2C335.806 105.539 336.531 105.027 337.342 104.664C338.174 104.301 339.038 104.12 339.934 104.12C341.022 104.12 341.982 104.333 342.814 104.76C343.667 105.187 344.339 105.709 344.83 106.328V104.376H348.574V119H344.83V117.016C344.296 117.677 343.603 118.211 342.75 118.616C341.896 119.021 340.958 119.224 339.934 119.224ZM340.99 115.832C342.078 115.832 342.942 115.459 343.582 114.712C344.243 113.944 344.584 112.952 344.606 111.736V111.48C344.606 110.349 344.275 109.421 343.614 108.696C342.952 107.971 342.078 107.608 340.99 107.608C340.499 107.608 340.03 107.693 339.582 107.864C339.134 108.035 338.739 108.291 338.398 108.632C338.056 108.973 337.79 109.4 337.598 109.912C337.406 110.424 337.31 111.011 337.31 111.672C337.31 112.952 337.651 113.965 338.334 114.712C339.038 115.459 339.923 115.832 340.99 115.832ZM362.405 113.24H356.325V119H352.357V104.376H356.325V109.752H362.405V104.376H366.373V119H362.405V113.24ZM380.186 113.24H374.106V119H370.138V104.376H374.106V109.752H380.186V104.376H384.154V119H380.186V113.24ZM393.871 119.224C392.997 119.224 392.143 119.043 391.311 118.68C390.501 118.317 389.775 117.805 389.135 117.144C388.517 116.483 388.015 115.693 387.631 114.776C387.247 113.837 387.055 112.803 387.055 111.672C387.055 110.541 387.237 109.517 387.599 108.6C387.983 107.661 388.485 106.861 389.103 106.2C389.743 105.539 390.469 105.027 391.279 104.664C392.111 104.301 392.975 104.12 393.871 104.12C394.959 104.12 395.919 104.333 396.751 104.76C397.605 105.187 398.277 105.709 398.767 106.328V104.376H402.511V119H398.767V117.016C398.234 117.677 397.541 118.211 396.687 118.616C395.834 119.021 394.895 119.224 393.871 119.224ZM394.927 115.832C396.015 115.832 396.879 115.459 397.519 114.712C398.181 113.944 398.522 112.952 398.543 111.736V111.48C398.543 110.349 398.213 109.421 397.551 108.696C396.89 107.971 396.015 107.608 394.927 107.608C394.437 107.608 393.967 107.693 393.519 107.864C393.071 108.035 392.677 108.291 392.335 108.632C391.994 108.973 391.727 109.4 391.535 109.912C391.343 110.424 391.247 111.011 391.247 111.672C391.247 112.952 391.589 113.965 392.271 114.712C392.975 115.459 393.861 115.832 394.927 115.832ZM405.398 118.456L408.502 113.816C406.796 113.005 405.942 111.565 405.942 109.496C405.942 107.811 406.486 106.541 407.574 105.688C408.684 104.813 410.401 104.376 412.726 104.376H419.062V119H415.094V114.52H412.598L409.718 119H405.398V118.456ZM415.094 111.704V107.448H412.982C411.958 107.448 411.201 107.597 410.71 107.896C410.22 108.173 409.974 108.717 409.974 109.528C409.974 110.339 410.188 110.904 410.614 111.224C411.062 111.544 411.82 111.704 412.886 111.704H415.094ZM441.186 113.24H435.106V119H431.138V104.376H435.106V109.752H441.186V104.376H445.154V119H441.186V113.24ZM454.871 119.224C453.997 119.224 453.143 119.043 452.311 118.68C451.501 118.317 450.775 117.805 450.135 117.144C449.517 116.483 449.015 115.693 448.631 114.776C448.247 113.837 448.055 112.803 448.055 111.672C448.055 110.541 448.237 109.517 448.599 108.6C448.983 107.661 449.485 106.861 450.103 106.2C450.743 105.539 451.469 105.027 452.279 104.664C453.111 104.301 453.975 104.12 454.871 104.12C455.959 104.12 456.919 104.333 457.751 104.76C458.605 105.187 459.277 105.709 459.767 106.328V104.376H463.511V119H459.767V117.016C459.234 117.677 458.541 118.211 457.687 118.616C456.834 119.021 455.895 119.224 454.871 119.224ZM455.927 115.832C457.015 115.832 457.879 115.459 458.519 114.712C459.181 113.944 459.522 112.952 459.543 111.736V111.48C459.543 110.349 459.213 109.421 458.551 108.696C457.89 107.971 457.015 107.608 455.927 107.608C455.437 107.608 454.967 107.693 454.519 107.864C454.071 108.035 453.677 108.291 453.335 108.632C452.994 108.973 452.727 109.4 452.535 109.912C452.343 110.424 452.247 111.011 452.247 111.672C452.247 112.952 452.589 113.965 453.271 114.712C453.975 115.459 454.861 115.832 455.927 115.832ZM473.911 115.512H475.671C476.225 114.36 476.641 113.08 476.919 111.672C477.196 110.243 477.335 108.557 477.335 106.616V104.376H488.727V115.512H490.967V122.264H487.735V119H477.175V122.264H473.911V115.512ZM480.887 107.96C480.887 110.925 480.449 113.443 479.575 115.512H484.759V107.864H480.887V107.96ZM494.619 126.2L497.083 119.16L491.099 105.112V104.376H495.067L498.939 113.944L502.331 104.376H505.915L505.883 105.112L498.203 126.68H494.619V126.2ZM506.477 118.264L511.117 111.32L506.861 105.112V104.376H511.021L513.901 108.664L516.653 104.376H520.429V105.112L516.237 111.416L520.877 118.296L520.909 119H516.845L513.581 114.136L510.349 119H506.477V118.264ZM529.553 119.224C528.401 119.224 527.334 119.043 526.353 118.68C525.393 118.317 524.561 117.805 523.857 117.144C523.174 116.461 522.63 115.661 522.225 114.744C521.841 113.827 521.649 112.803 521.649 111.672C521.649 110.541 521.841 109.517 522.225 108.6C522.63 107.661 523.185 106.861 523.889 106.2C524.593 105.539 525.425 105.027 526.385 104.664C527.366 104.301 528.422 104.12 529.553 104.12C530.705 104.12 531.761 104.301 532.721 104.664C533.702 105.027 534.545 105.549 535.249 106.232C535.953 106.893 536.497 107.693 536.881 108.632C537.265 109.549 537.457 110.563 537.457 111.672C537.457 112.824 537.254 113.869 536.849 114.808C536.444 115.725 535.889 116.515 535.185 117.176C534.481 117.816 533.649 118.317 532.689 118.68C531.729 119.043 530.684 119.224 529.553 119.224ZM529.553 115.864C530.726 115.864 531.644 115.469 532.305 114.68C532.966 113.891 533.297 112.888 533.297 111.672C533.297 110.456 532.977 109.464 532.337 108.696C531.697 107.907 530.769 107.512 529.553 107.512C528.358 107.512 527.43 107.907 526.769 108.696C526.108 109.485 525.777 110.477 525.777 111.672C525.777 112.248 525.862 112.792 526.033 113.304C526.204 113.816 526.449 114.264 526.769 114.648C527.089 115.032 527.484 115.331 527.953 115.544C528.422 115.757 528.956 115.864 529.553 115.864ZM540.326 104.376H548.23C549.744 104.376 550.886 104.707 551.654 105.368C552.422 106.008 552.806 106.851 552.806 107.896C552.806 108.685 552.614 109.336 552.23 109.848C551.846 110.36 551.344 110.723 550.726 110.936C551.771 111.085 552.624 111.448 553.286 112.024C553.947 112.6 554.278 113.464 554.278 114.616C554.278 116.024 553.755 117.112 552.71 117.88C551.686 118.627 550.182 119 548.198 119H540.326V104.376ZM544.294 112.408V116.088H547.334C548.336 116.088 549.051 115.939 549.478 115.64C549.904 115.32 550.118 114.851 550.118 114.232C550.118 113.592 549.894 113.133 549.446 112.856C548.998 112.557 548.326 112.408 547.43 112.408H544.294ZM544.294 107.288V110.104H547.046C548.411 110.104 549.094 109.624 549.094 108.664C549.094 107.747 548.4 107.288 547.014 107.288H544.294ZM566.811 113.24H560.731V119H556.763V104.376H560.731V109.752H566.811V104.376H570.779V119H566.811V113.24ZM581.584 119.224C580.432 119.224 579.366 119.043 578.384 118.68C577.424 118.317 576.592 117.805 575.888 117.144C575.206 116.461 574.662 115.661 574.256 114.744C573.872 113.827 573.68 112.803 573.68 111.672C573.68 110.541 573.872 109.517 574.256 108.6C574.662 107.661 575.216 106.861 575.92 106.2C576.624 105.539 577.456 105.027 578.416 104.664C579.398 104.301 580.454 104.12 581.584 104.12C582.736 104.12 583.792 104.301 584.752 104.664C585.734 105.027 586.576 105.549 587.28 106.232C587.984 106.893 588.528 107.693 588.912 108.632C589.296 109.549 589.488 110.563 589.488 111.672C589.488 112.824 589.286 113.869 588.88 114.808C588.475 115.725 587.92 116.515 587.216 117.176C586.512 117.816 585.68 118.317 584.72 118.68C583.76 119.043 582.715 119.224 581.584 119.224ZM581.584 115.864C582.758 115.864 583.675 115.469 584.336 114.68C584.998 113.891 585.328 112.888 585.328 111.672C585.328 110.456 585.008 109.464 584.368 108.696C583.728 107.907 582.8 107.512 581.584 107.512C580.39 107.512 579.462 107.907 578.8 108.696C578.139 109.485 577.808 110.477 577.808 111.672C577.808 112.248 577.894 112.792 578.064 113.304C578.235 113.816 578.48 114.264 578.8 114.648C579.12 115.032 579.515 115.331 579.984 115.544C580.454 115.757 580.987 115.864 581.584 115.864ZM593.641 104.376H597.033L600.905 112.856L604.553 104.376H608.041L610.473 119H606.76L605.353 110.456L601.577 119H599.881L596.073 110.616L594.697 119H591.177L593.641 104.376ZM628.553 119.224C627.401 119.224 626.334 119.043 625.353 118.68C624.393 118.317 623.561 117.805 622.857 117.144C622.174 116.461 621.63 115.661 621.225 114.744C620.841 113.827 620.649 112.803 620.649 111.672C620.649 110.541 620.841 109.517 621.225 108.6C621.63 107.661 622.185 106.861 622.889 106.2C623.593 105.539 624.425 105.027 625.385 104.664C626.366 104.301 627.422 104.12 628.553 104.12C629.705 104.12 630.761 104.301 631.721 104.664C632.702 105.027 633.545 105.549 634.249 106.232C634.953 106.893 635.497 107.693 635.881 108.632C636.265 109.549 636.457 110.563 636.457 111.672C636.457 112.824 636.254 113.869 635.849 114.808C635.444 115.725 634.889 116.515 634.185 117.176C633.481 117.816 632.649 118.317 631.689 118.68C630.729 119.043 629.684 119.224 628.553 119.224ZM628.553 115.864C629.726 115.864 630.644 115.469 631.305 114.68C631.966 113.891 632.297 112.888 632.297 111.672C632.297 110.456 631.977 109.464 631.337 108.696C630.697 107.907 629.769 107.512 628.553 107.512C627.358 107.512 626.43 107.907 625.769 108.696C625.108 109.485 624.777 110.477 624.777 111.672C624.777 112.248 624.862 112.792 625.033 113.304C625.204 113.816 625.449 114.264 625.769 114.648C626.089 115.032 626.484 115.331 626.953 115.544C627.422 115.757 627.956 115.864 628.553 115.864ZM639.326 104.376H653.086V119H649.15V107.864H643.294V119H639.326V104.376ZM663.064 108.6C665.133 108.6 666.701 109.027 667.768 109.88C668.856 110.733 669.4 112.024 669.4 113.752C669.4 115.48 668.835 116.792 667.704 117.688C666.595 118.563 664.941 119 662.744 119H656.888V104.376H660.856V108.6H663.064ZM670.808 104.376H674.776V119H670.808V104.376ZM662.328 115.896C663.288 115.896 664.024 115.757 664.536 115.48C665.069 115.181 665.336 114.605 665.336 113.752C665.336 112.963 665.091 112.419 664.6 112.12C664.131 111.821 663.416 111.672 662.456 111.672H660.856V115.896H662.328ZM681.904 107.864H677.2V104.376H690.544V107.864H685.84V119H681.904V107.864ZM699.491 119.224C698.318 119.224 697.241 119.043 696.259 118.68C695.299 118.317 694.467 117.816 693.763 117.176C693.059 116.515 692.515 115.736 692.131 114.84C691.747 113.923 691.555 112.909 691.555 111.8C691.555 110.627 691.758 109.571 692.163 108.632C692.569 107.672 693.123 106.861 693.827 106.2C694.531 105.539 695.353 105.027 696.291 104.664C697.23 104.301 698.233 104.12 699.299 104.12C700.451 104.12 701.475 104.323 702.371 104.728C703.289 105.112 704.057 105.656 704.675 106.36C705.294 107.043 705.763 107.853 706.083 108.792C706.425 109.709 706.595 110.701 706.595 111.768V112.6H695.395C695.587 113.731 696.067 114.595 696.835 115.192C697.625 115.789 698.617 116.088 699.811 116.088C700.665 116.088 701.454 115.939 702.179 115.64C702.926 115.32 703.545 114.883 704.035 114.328L706.243 116.344C705.497 117.283 704.537 117.997 703.363 118.488C702.19 118.979 700.899 119.224 699.491 119.224ZM699.139 107.32C698.201 107.32 697.411 107.576 696.771 108.088C696.153 108.579 695.726 109.283 695.491 110.2H702.787C702.659 109.389 702.275 108.707 701.635 108.152C700.995 107.597 700.163 107.32 699.139 107.32ZM710.264 119.16C709.624 119.053 709.133 118.808 708.792 118.424C708.472 118.019 708.312 117.539 708.312 116.984C708.312 116.28 708.536 115.725 708.984 115.32C709.453 114.893 710.008 114.68 710.648 114.68C711.331 114.68 711.917 114.904 712.408 115.352C712.92 115.8 713.176 116.44 713.176 117.272C713.176 117.827 713.027 118.445 712.728 119.128C712.429 119.811 711.971 120.696 711.352 121.784L710.072 124.12H707.512L710.264 119.16ZM733.522 113.688C733.095 113.88 732.594 114.04 732.018 114.168C731.463 114.275 730.834 114.328 730.13 114.328C729.234 114.328 728.423 114.221 727.698 114.008C726.994 113.795 726.386 113.453 725.874 112.984C725.362 112.515 724.967 111.907 724.69 111.16C724.434 110.413 724.306 109.507 724.306 108.44V104.376H728.274V108.28C728.274 109.112 728.466 109.752 728.85 110.2C729.234 110.627 730.002 110.84 731.154 110.84C732.029 110.84 732.818 110.733 733.522 110.52V104.376H737.49V119H733.522V113.688ZM748.148 119.224C746.974 119.224 745.897 119.043 744.916 118.68C743.956 118.317 743.124 117.816 742.42 117.176C741.716 116.515 741.172 115.736 740.788 114.84C740.404 113.923 740.212 112.909 740.212 111.8C740.212 110.627 740.414 109.571 740.82 108.632C741.225 107.672 741.78 106.861 742.484 106.2C743.188 105.539 744.009 105.027 744.948 104.664C745.886 104.301 746.889 104.12 747.956 104.12C749.108 104.12 750.132 104.323 751.028 104.728C751.945 105.112 752.713 105.656 753.332 106.36C753.95 107.043 754.42 107.853 754.74 108.792C755.081 109.709 755.252 110.701 755.252 111.768V112.6H744.052C744.244 113.731 744.724 114.595 745.492 115.192C746.281 115.789 747.273 116.088 748.468 116.088C749.321 116.088 750.11 115.939 750.836 115.64C751.582 115.32 752.201 114.883 752.692 114.328L754.9 116.344C754.153 117.283 753.193 117.997 752.02 118.488C750.846 118.979 749.556 119.224 748.148 119.224ZM747.796 107.32C746.857 107.32 746.068 107.576 745.428 108.088C744.809 108.579 744.382 109.283 744.148 110.2H751.444C751.316 109.389 750.932 108.707 750.292 108.152C749.652 107.597 748.82 107.32 747.796 107.32ZM758.169 104.376H768.313V107.864H762.137V119H758.169V104.376ZM777.459 119.224C776.307 119.224 775.241 119.043 774.259 118.68C773.299 118.317 772.467 117.805 771.763 117.144C771.081 116.461 770.537 115.661 770.131 114.744C769.747 113.827 769.555 112.803 769.555 111.672C769.555 110.541 769.747 109.517 770.131 108.6C770.537 107.661 771.091 106.861 771.795 106.2C772.499 105.539 773.331 105.027 774.291 104.664C775.273 104.301 776.329 104.12 777.459 104.12C778.611 104.12 779.667 104.301 780.627 104.664C781.609 105.027 782.451 105.549 783.155 106.232C783.859 106.893 784.403 107.693 784.787 108.632C785.171 109.549 785.363 110.563 785.363 111.672C785.363 112.824 785.161 113.869 784.755 114.808C784.35 115.725 783.795 116.515 783.091 117.176C782.387 117.816 781.555 118.317 780.595 118.68C779.635 119.043 778.59 119.224 777.459 119.224ZM777.459 115.864C778.633 115.864 779.55 115.469 780.211 114.68C780.873 113.891 781.203 112.888 781.203 111.672C781.203 110.456 780.883 109.464 780.243 108.696C779.603 107.907 778.675 107.512 777.459 107.512C776.265 107.512 775.337 107.907 774.675 108.696C774.014 109.485 773.683 110.477 773.683 111.672C773.683 112.248 773.769 112.792 773.939 113.304C774.11 113.816 774.355 114.264 774.675 114.648C774.995 115.032 775.39 115.331 775.859 115.544C776.329 115.757 776.862 115.864 777.459 115.864ZM806.592 113.24H800.512V119H796.544V104.376H800.512V109.752H806.592V104.376H810.56V119H806.592V113.24ZM821.398 119.224C820.224 119.224 819.147 119.043 818.166 118.68C817.206 118.317 816.374 117.816 815.67 117.176C814.966 116.515 814.422 115.736 814.038 114.84C813.654 113.923 813.462 112.909 813.462 111.8C813.462 110.627 813.664 109.571 814.07 108.632C814.475 107.672 815.03 106.861 815.734 106.2C816.438 105.539 817.259 105.027 818.198 104.664C819.136 104.301 820.139 104.12 821.206 104.12C822.358 104.12 823.382 104.323 824.278 104.728C825.195 105.112 825.963 105.656 826.582 106.36C827.2 107.043 827.67 107.853 827.99 108.792C828.331 109.709 828.502 110.701 828.502 111.768V112.6H817.302C817.494 113.731 817.974 114.595 818.742 115.192C819.531 115.789 820.523 116.088 821.718 116.088C822.571 116.088 823.36 115.939 824.086 115.64C824.832 115.32 825.451 114.883 825.942 114.328L828.15 116.344C827.403 117.283 826.443 117.997 825.27 118.488C824.096 118.979 822.806 119.224 821.398 119.224ZM821.046 107.32C820.107 107.32 819.318 107.576 818.678 108.088C818.059 108.579 817.632 109.283 817.398 110.2H824.694C824.566 109.389 824.182 108.707 823.542 108.152C822.902 107.597 822.07 107.32 821.046 107.32ZM834.311 107.864H829.607V104.376H842.951V107.864H838.247V119H834.311V107.864ZM853.701 104.376H857.669V112.792L864.453 104.376H867.557V119H863.589V110.104L856.421 119H853.701V104.376ZM48.936 151.24H42.856V157H38.888V142.376H42.856V147.752H48.936V142.376H52.904V157H48.936V151.24ZM63.7413 157.224C62.5679 157.224 61.4906 157.043 60.5093 156.68C59.5493 156.317 58.7173 155.816 58.0133 155.176C57.3093 154.515 56.7653 153.736 56.3813 152.84C55.9973 151.923 55.8053 150.909 55.8053 149.8C55.8053 148.627 56.0079 147.571 56.4133 146.632C56.8186 145.672 57.3733 144.861 58.0773 144.2C58.7813 143.539 59.6026 143.027 60.5413 142.664C61.4799 142.301 62.4826 142.12 63.5493 142.12C64.7013 142.12 65.7253 142.323 66.6213 142.728C67.5386 143.112 68.3066 143.656 68.9253 144.36C69.5439 145.043 70.0133 145.853 70.3333 146.792C70.6746 147.709 70.8453 148.701 70.8453 149.768V150.6H59.6453C59.8373 151.731 60.3173 152.595 61.0853 153.192C61.8746 153.789 62.8666 154.088 64.0613 154.088C64.9146 154.088 65.7039 153.939 66.4293 153.64C67.1759 153.32 67.7946 152.883 68.2853 152.328L70.4933 154.344C69.7466 155.283 68.7866 155.997 67.6133 156.488C66.4399 156.979 65.1493 157.224 63.7413 157.224ZM63.3893 145.32C62.4506 145.32 61.6613 145.576 61.0213 146.088C60.4026 146.579 59.9759 147.283 59.7413 148.2H67.0373C66.9093 147.389 66.5253 146.707 65.8853 146.152C65.2453 145.597 64.4133 145.32 63.3893 145.32ZM83.5155 142.376H86.9075L90.7795 150.856L94.4275 142.376H97.9155L100.348 157H96.6355L95.2275 148.456L91.4515 157H89.7555L85.9475 148.616L84.5715 157H81.0515L83.5155 142.376ZM109.897 157.224C108.745 157.224 107.678 157.043 106.697 156.68C105.737 156.317 104.905 155.805 104.201 155.144C103.518 154.461 102.974 153.661 102.569 152.744C102.185 151.827 101.993 150.803 101.993 149.672C101.993 148.541 102.185 147.517 102.569 146.6C102.974 145.661 103.529 144.861 104.233 144.2C104.937 143.539 105.769 143.027 106.729 142.664C107.71 142.301 108.766 142.12 109.897 142.12C111.049 142.12 112.105 142.301 113.065 142.664C114.046 143.027 114.889 143.549 115.593 144.232C116.297 144.893 116.841 145.693 117.225 146.632C117.609 147.549 117.801 148.563 117.801 149.672C117.801 150.824 117.598 151.869 117.193 152.808C116.787 153.725 116.233 154.515 115.529 155.176C114.825 155.816 113.993 156.317 113.033 156.68C112.073 157.043 111.027 157.224 109.897 157.224ZM109.897 153.864C111.07 153.864 111.987 153.469 112.649 152.68C113.31 151.891 113.641 150.888 113.641 149.672C113.641 148.456 113.321 147.464 112.681 146.696C112.041 145.907 111.113 145.512 109.897 145.512C108.702 145.512 107.774 145.907 107.113 146.696C106.451 147.485 106.121 148.477 106.121 149.672C106.121 150.248 106.206 150.792 106.377 151.304C106.547 151.816 106.793 152.264 107.113 152.648C107.433 153.032 107.827 153.331 108.297 153.544C108.766 153.757 109.299 153.864 109.897 153.864ZM118.312 156.456L122.536 149.192L119.144 142.92V142.376H123.112L125.896 147.816H127.496V142.376H131.432V147.816H133L135.816 142.376H139.656V142.92L136.328 149.128L140.648 156.456V157H136.424L132.936 150.824H131.432V157H127.496V150.824H125.96L122.504 157H118.312V156.456ZM149.023 157.224C147.849 157.224 146.772 157.043 145.791 156.68C144.831 156.317 143.999 155.816 143.295 155.176C142.591 154.515 142.047 153.736 141.663 152.84C141.279 151.923 141.087 150.909 141.087 149.8C141.087 148.627 141.289 147.571 141.695 146.632C142.1 145.672 142.655 144.861 143.359 144.2C144.063 143.539 144.884 143.027 145.823 142.664C146.761 142.301 147.764 142.12 148.831 142.12C149.983 142.12 151.007 142.323 151.903 142.728C152.82 143.112 153.588 143.656 154.207 144.36C154.825 145.043 155.295 145.853 155.615 146.792C155.956 147.709 156.127 148.701 156.127 149.768V150.6H144.927C145.119 151.731 145.599 152.595 146.367 153.192C147.156 153.789 148.148 154.088 149.343 154.088C150.196 154.088 150.985 153.939 151.711 153.64C152.457 153.32 153.076 152.883 153.567 152.328L155.775 154.344C155.028 155.283 154.068 155.997 152.895 156.488C151.721 156.979 150.431 157.224 149.023 157.224ZM148.671 145.32C147.732 145.32 146.943 145.576 146.303 146.088C145.684 146.579 145.257 147.283 145.023 148.2H152.319C152.191 147.389 151.807 146.707 151.167 146.152C150.527 145.597 149.695 145.32 148.671 145.32ZM161.936 145.864H157.232V142.376H170.576V145.864H165.872V157H161.936V145.864ZM188.622 157.288C185.784 157.288 183.715 156.403 182.414 154.632C181.112 152.861 180.462 150.205 180.462 146.664C180.462 144.616 180.675 142.867 181.102 141.416C181.528 139.944 182.136 138.749 182.926 137.832C183.736 136.893 184.707 136.211 185.838 135.784C186.99 135.336 188.27 135.112 189.678 135.112C190.488 135.112 191.107 135.037 191.534 134.888C191.96 134.717 192.28 134.397 192.494 133.928L195.63 134.856C195.459 135.475 195.246 136.008 194.99 136.456C194.755 136.883 194.424 137.245 193.998 137.544C193.571 137.843 193.027 138.077 192.366 138.248C191.704 138.397 190.862 138.504 189.838 138.568C188.856 138.632 188.003 138.76 187.278 138.952C186.574 139.144 185.976 139.485 185.486 139.976C185.016 140.445 184.643 141.107 184.366 141.96C184.11 142.813 183.939 143.923 183.854 145.288C184.472 144.136 185.262 143.336 186.222 142.888C187.203 142.419 188.27 142.184 189.422 142.184C190.488 142.184 191.448 142.355 192.302 142.696C193.176 143.037 193.912 143.528 194.51 144.168C195.107 144.808 195.566 145.576 195.885 146.472C196.206 147.347 196.366 148.328 196.366 149.416C196.366 150.611 196.174 151.699 195.79 152.68C195.406 153.64 194.872 154.461 194.19 155.144C193.507 155.827 192.686 156.36 191.726 156.744C190.787 157.107 189.752 157.288 188.622 157.288ZM188.526 153.8C189.614 153.8 190.488 153.437 191.15 152.712C191.832 151.965 192.174 150.941 192.174 149.64C192.174 148.36 191.854 147.357 191.214 146.632C190.595 145.885 189.71 145.512 188.558 145.512C187.427 145.512 186.531 145.875 185.87 146.6C185.208 147.325 184.878 148.339 184.878 149.64C184.878 150.92 185.208 151.933 185.87 152.68C186.531 153.427 187.416 153.8 188.526 153.8ZM205.439 146.6C207.508 146.6 209.076 147.027 210.143 147.88C211.231 148.733 211.775 150.024 211.775 151.752C211.775 153.48 211.21 154.792 210.079 155.688C208.97 156.563 207.316 157 205.119 157H199.263V142.376H203.231V146.6H205.439ZM213.183 142.376H217.151V157H213.183V142.376ZM204.703 153.896C205.663 153.896 206.399 153.757 206.911 153.48C207.444 153.181 207.711 152.605 207.711 151.752C207.711 150.963 207.466 150.419 206.975 150.12C206.506 149.821 205.791 149.672 204.831 149.672H203.231V153.896H204.703ZM224.279 145.864H219.575V142.376H232.919V145.864H228.215V157H224.279V145.864ZM235.357 142.376H239.325V146.6H241.917C243.986 146.6 245.554 147.027 246.621 147.88C247.709 148.733 248.253 150.024 248.253 151.752C248.253 153.48 247.687 154.792 246.557 155.688C245.447 156.563 243.794 157 241.597 157H235.357V142.376ZM241.213 153.896C242.173 153.896 242.909 153.757 243.421 153.48C243.933 153.181 244.189 152.605 244.189 151.752C244.189 150.963 243.954 150.419 243.485 150.12C243.015 149.821 242.301 149.672 241.341 149.672H239.325V153.896H241.213ZM260.963 164.2L263.427 157.16L257.443 143.112V142.376H261.411L265.283 151.944L268.675 142.376H272.259L272.227 143.112L264.547 164.68H260.963V164.2ZM284.109 142.376H287.501L291.373 150.856L295.021 142.376H298.509L300.941 157H297.229L295.821 148.456L292.045 157H290.349L286.541 148.616L285.165 157H281.645L284.109 142.376ZM309.403 157.224C308.528 157.224 307.675 157.043 306.843 156.68C306.032 156.317 305.307 155.805 304.667 155.144C304.048 154.483 303.547 153.693 303.163 152.776C302.779 151.837 302.587 150.803 302.587 149.672C302.587 148.541 302.768 147.517 303.131 146.6C303.515 145.661 304.016 144.861 304.635 144.2C305.275 143.539 306 143.027 306.811 142.664C307.643 142.301 308.507 142.12 309.403 142.12C310.491 142.12 311.451 142.333 312.283 142.76C313.136 143.187 313.808 143.709 314.299 144.328V142.376H318.043V157H314.299V155.016C313.765 155.677 313.072 156.211 312.219 156.616C311.365 157.021 310.427 157.224 309.403 157.224ZM310.459 153.832C311.547 153.832 312.411 153.459 313.051 152.712C313.712 151.944 314.053 150.952 314.075 149.736V149.48C314.075 148.349 313.744 147.421 313.083 146.696C312.421 145.971 311.547 145.608 310.459 145.608C309.968 145.608 309.499 145.693 309.051 145.864C308.603 146.035 308.208 146.291 307.867 146.632C307.525 146.973 307.259 147.4 307.067 147.912C306.875 148.424 306.779 149.011 306.779 149.672C306.779 150.952 307.12 151.965 307.803 152.712C308.507 153.459 309.392 153.832 310.459 153.832ZM339.042 142.376H343.01V157H321.826V142.376H325.794V153.512H330.466V142.376H334.402V153.512H339.042V142.376ZM346.794 142.376H350.762V150.792L357.546 142.376H360.65V157H356.682V148.104L349.514 157H346.794V142.376ZM374.467 151.24H368.387V157H364.419V142.376H368.387V147.752H374.467V142.376H378.435V157H374.467V151.24ZM388.377 146.6C390.446 146.6 392.014 147.027 393.081 147.88C394.169 148.733 394.713 150.024 394.713 151.752C394.713 153.48 394.147 154.792 393.017 155.688C391.907 156.563 390.254 157 388.057 157H382.201V142.376H386.169V146.6H388.377ZM396.121 142.376H400.089V157H396.121V142.376ZM387.641 153.896C388.601 153.896 389.337 153.757 389.849 153.48C390.382 153.181 390.649 152.605 390.649 151.752C390.649 150.963 390.403 150.419 389.913 150.12C389.443 149.821 388.729 149.672 387.769 149.672H386.169V153.896H387.641ZM406.033 157.32C405.286 157.32 404.71 157.107 404.305 156.68C403.921 156.232 403.729 155.699 403.729 155.08C403.729 154.419 403.921 153.864 404.305 153.416C404.689 152.968 405.265 152.744 406.033 152.744C406.801 152.744 407.387 152.968 407.793 153.416C408.198 153.864 408.401 154.419 408.401 155.08C408.401 155.699 408.187 156.232 407.761 156.68C407.355 157.107 406.779 157.32 406.033 157.32Z" fill="black"/>
</g>
<defs>
<filter id="filter0_d_80_2" x="33.192" y="57.928" width="842.984" height="114.752" filterUnits="userSpaceOnUse" color-interpolation-filters="sRGB">
<feFlood flood-opacity="0" result="BackgroundImageFix"/>
<feColorMatrix in="SourceAlpha" type="matrix" values="0 0 0 0 0 0 0 0 0 0 0 0 0 0 0 0 0 0 127 0" result="hardAlpha"/>
<feOffset dy="4"/>
<feGaussianBlur stdDeviation="2"/>
<feComposite in2="hardAlpha" operator="out"/>
<feColorMatrix type="matrix" values="0 0 0 0 0 0 0 0 0 0 0 0 0 0 0 0 0 0 0.39 0"/>
<feBlend mode="normal" in2="BackgroundImageFix" result="effect1_dropShadow_80_2"/>
<feBlend mode="normal" in="SourceGraphic" in2="effect1_dropShadow_80_2" result="shape"/>
</filter>
<linearGradient id="paint0_linear_80_2" x1="1099.87" y1="123.23" x2="-174.591" y2="123.23" gradientUnits="userSpaceOnUse">
<stop stop-color="white" stop-opacity="0.64"/>
<stop offset="0.325" stop-color="#2736C1" stop-opacity="0.72"/>
<stop offset="1" stop-color="#091FEA"/>
</linearGradient>
</defs>
</svg>
