<svg width="1336" height="127" viewBox="0 0 1336 127" fill="none" xmlns="http://www.w3.org/2000/svg">
<path d="M204.276 55.4881C212.297 52.6801 217.668 45.1097 217.668 36.6113V20C217.668 8.95432 226.622 0 237.668 0H1316C1327.05 0 1336 8.95431 1336 20V50.8V107C1336 118.046 1327.05 127 1316 127L117.661 127C95.1444 127 89.8008 95.5629 111.053 88.1232L204.276 55.4881Z" fill="url(#paint0_linear_91_3)" fill-opacity="0.76"/>
<circle cx="131.502" cy="108.5" r="4.5" fill="black"/>
<circle cx="157.502" cy="108.5" r="4.5" fill="black"/>
<circle cx="183.502" cy="108.5" r="4.5" fill="black"/>
<circle cx="209.502" cy="108.5" r="4.5" fill="black"/>
<path d="M268.46 43H272.48V56.71L283.46 43H286.01V64H281.96V50.35L271.01 64H268.46V43ZM299.485 58.6H293.785V64H290.065V50.29H293.785V55.33H299.485V50.29H303.205V64H299.485V58.6ZM313.335 64.21C312.255 64.21 311.255 64.04 310.335 63.7C309.435 63.36 308.655 62.88 307.995 62.26C307.355 61.62 306.845 60.87 306.465 60.01C306.105 59.15 305.925 58.19 305.925 57.13C305.925 56.07 306.105 55.11 306.465 54.25C306.845 53.37 307.365 52.62 308.025 52C308.685 51.38 309.465 50.9 310.365 50.56C311.285 50.22 312.275 50.05 313.335 50.05C314.415 50.05 315.405 50.22 316.305 50.56C317.225 50.9 318.015 51.39 318.675 52.03C319.335 52.65 319.845 53.4 320.205 54.28C320.565 55.14 320.745 56.09 320.745 57.13C320.745 58.21 320.555 59.19 320.175 60.07C319.795 60.93 319.275 61.67 318.615 62.29C317.955 62.89 317.175 63.36 316.275 63.7C315.375 64.04 314.395 64.21 313.335 64.21ZM313.335 61.06C314.435 61.06 315.295 60.69 315.915 59.95C316.535 59.21 316.845 58.27 316.845 57.13C316.845 55.99 316.545 55.06 315.945 54.34C315.345 53.6 314.475 53.23 313.335 53.23C312.215 53.23 311.345 53.6 310.725 54.34C310.105 55.08 309.795 56.01 309.795 57.13C309.795 57.67 309.875 58.18 310.035 58.66C310.195 59.14 310.425 59.56 310.725 59.92C311.025 60.28 311.395 60.56 311.835 60.76C312.275 60.96 312.775 61.06 313.335 61.06ZM323.434 50.29H332.944V53.56H327.154V64H323.434V50.29ZM333.094 60.73H334.744C335.264 59.65 335.654 58.45 335.914 57.13C336.174 55.79 336.304 54.21 336.304 52.39V50.29H346.984V60.73H349.084V67.06H346.054V64H336.154V67.06H333.094V60.73ZM339.634 53.65C339.634 56.43 339.224 58.79 338.404 60.73H343.264V53.56H339.634V53.65ZM356.495 64.21C355.675 64.21 354.875 64.04 354.095 63.7C353.335 63.36 352.655 62.88 352.055 62.26C351.475 61.64 351.005 60.9 350.645 60.04C350.285 59.16 350.105 58.19 350.105 57.13C350.105 56.07 350.275 55.11 350.615 54.25C350.975 53.37 351.445 52.62 352.025 52C352.625 51.38 353.305 50.9 354.065 50.56C354.845 50.22 355.655 50.05 356.495 50.05C357.515 50.05 358.415 50.25 359.195 50.65C359.995 51.05 360.625 51.54 361.085 52.12V50.29H364.595V64H361.085V62.14C360.585 62.76 359.935 63.26 359.135 63.64C358.335 64.02 357.455 64.21 356.495 64.21ZM357.485 61.03C358.505 61.03 359.315 60.68 359.915 59.98C360.535 59.26 360.855 58.33 360.875 57.19V56.95C360.875 55.89 360.565 55.02 359.945 54.34C359.325 53.66 358.505 53.32 357.485 53.32C357.025 53.32 356.585 53.4 356.165 53.56C355.745 53.72 355.375 53.96 355.055 54.28C354.735 54.6 354.485 55 354.305 55.48C354.125 55.96 354.035 56.51 354.035 57.13C354.035 58.33 354.355 59.28 354.995 59.98C355.655 60.68 356.485 61.03 357.485 61.03ZM381.246 50.29H394.146V64H390.456V53.56H384.966V64H381.246V50.29ZM397.71 71.2V50.29H401.22V52.12C401.68 51.54 402.3 51.05 403.08 50.65C403.88 50.25 404.79 50.05 405.81 50.05C406.65 50.05 407.45 50.22 408.21 50.56C408.99 50.9 409.67 51.38 410.25 52C410.85 52.62 411.32 53.37 411.66 54.25C412.02 55.11 412.2 56.07 412.2 57.13C412.2 58.19 412.02 59.16 411.66 60.04C411.3 60.9 410.82 61.64 410.22 62.26C409.64 62.88 408.96 63.36 408.18 63.7C407.42 64.04 406.63 64.21 405.81 64.21C404.91 64.21 404.08 64.05 403.32 63.73C402.56 63.39 401.93 62.94 401.43 62.38V71.2H397.71ZM404.82 53.32C403.8 53.32 402.99 53.65 402.39 54.31C401.79 54.95 401.47 55.78 401.43 56.8V57.19C401.45 58.33 401.76 59.26 402.36 59.98C402.98 60.68 403.8 61.03 404.82 61.03C405.82 61.03 406.64 60.68 407.28 59.98C407.94 59.28 408.27 58.33 408.27 57.13C408.27 56.51 408.17 55.96 407.97 55.48C407.79 55 407.54 54.6 407.22 54.28C406.92 53.96 406.56 53.72 406.14 53.56C405.72 53.4 405.28 53.32 404.82 53.32ZM421.567 64.21C420.467 64.21 419.457 64.04 418.537 63.7C417.637 63.36 416.857 62.89 416.197 62.29C415.537 61.67 415.027 60.94 414.667 60.1C414.307 59.24 414.127 58.29 414.127 57.25C414.127 56.15 414.317 55.16 414.697 54.28C415.077 53.38 415.597 52.62 416.257 52C416.917 51.38 417.687 50.9 418.567 50.56C419.447 50.22 420.387 50.05 421.387 50.05C422.467 50.05 423.427 50.24 424.267 50.62C425.127 50.98 425.847 51.49 426.427 52.15C427.007 52.79 427.447 53.55 427.747 54.43C428.067 55.29 428.227 56.22 428.227 57.22V58H417.727C417.907 59.06 418.357 59.87 419.077 60.43C419.817 60.99 420.747 61.27 421.867 61.27C422.667 61.27 423.407 61.13 424.087 60.85C424.787 60.55 425.367 60.14 425.827 59.62L427.897 61.51C427.197 62.39 426.297 63.06 425.197 63.52C424.097 63.98 422.887 64.21 421.567 64.21ZM421.237 53.05C420.357 53.05 419.617 53.29 419.017 53.77C418.437 54.23 418.037 54.89 417.817 55.75H424.657C424.537 54.99 424.177 54.35 423.577 53.83C422.977 53.31 422.197 53.05 421.237 53.05ZM429.079 60.73H430.729C431.249 59.65 431.639 58.45 431.899 57.13C432.159 55.79 432.289 54.21 432.289 52.39V50.29H442.969V60.73H445.069V67.06H442.039V64H432.139V67.06H429.079V60.73ZM435.619 53.65C435.619 56.43 435.209 58.79 434.389 60.73H439.249V53.56H435.619V53.65ZM453.29 64.21C452.19 64.21 451.2 64.04 450.32 63.7C449.44 63.36 448.68 62.89 448.04 62.29C447.42 61.67 446.94 60.93 446.6 60.07C446.26 59.21 446.09 58.25 446.09 57.19C446.09 56.07 446.27 55.07 446.63 54.19C447.01 53.29 447.52 52.54 448.16 51.94C448.8 51.32 449.56 50.85 450.44 50.53C451.32 50.21 452.27 50.05 453.29 50.05C454.45 50.05 455.5 50.25 456.44 50.65C457.4 51.05 458.15 51.55 458.69 52.15L456.77 54.67C456.37 54.23 455.9 53.88 455.36 53.62C454.84 53.36 454.25 53.23 453.59 53.23C452.47 53.23 451.58 53.59 450.92 54.31C450.28 55.03 449.96 55.95 449.96 57.07C449.96 58.23 450.29 59.19 450.95 59.95C451.63 60.69 452.54 61.06 453.68 61.06C454.34 61.06 454.93 60.93 455.45 60.67C455.97 60.39 456.43 60.03 456.83 59.59L459.02 61.75C458.42 62.53 457.62 63.14 456.62 63.58C455.64 64 454.53 64.21 453.29 64.21ZM464.405 53.56H459.995V50.29H472.505V53.56H468.095V64H464.405V53.56ZM479.843 64.21C479.023 64.21 478.223 64.04 477.443 63.7C476.683 63.36 476.003 62.88 475.403 62.26C474.823 61.64 474.353 60.9 473.993 60.04C473.633 59.16 473.453 58.19 473.453 57.13C473.453 56.07 473.623 55.11 473.963 54.25C474.323 53.37 474.793 52.62 475.373 52C475.973 51.38 476.653 50.9 477.413 50.56C478.193 50.22 479.003 50.05 479.843 50.05C480.863 50.05 481.763 50.25 482.543 50.65C483.343 51.05 483.973 51.54 484.433 52.12V50.29H487.943V64H484.433V62.14C483.933 62.76 483.283 63.26 482.483 63.64C481.683 64.02 480.803 64.21 479.843 64.21ZM480.833 61.03C481.853 61.03 482.663 60.68 483.263 59.98C483.883 59.26 484.203 58.33 484.223 57.19V56.95C484.223 55.89 483.913 55.02 483.293 54.34C482.673 53.66 481.853 53.32 480.833 53.32C480.373 53.32 479.933 53.4 479.513 53.56C479.093 53.72 478.723 53.96 478.403 54.28C478.083 54.6 477.833 55 477.653 55.48C477.473 55.96 477.383 56.51 477.383 57.13C477.383 58.33 477.703 59.28 478.343 59.98C479.003 60.68 479.833 61.03 480.833 61.03ZM491.49 50.29H498.9C500.32 50.29 501.39 50.6 502.11 51.22C502.83 51.82 503.19 52.61 503.19 53.59C503.19 54.33 503.01 54.94 502.65 55.42C502.29 55.9 501.82 56.24 501.24 56.44C502.22 56.58 503.02 56.92 503.64 57.46C504.26 58 504.57 58.81 504.57 59.89C504.57 61.21 504.08 62.23 503.1 62.95C502.14 63.65 500.73 64 498.87 64H491.49V50.29ZM495.21 57.82V61.27H498.06C499 61.27 499.67 61.13 500.07 60.85C500.47 60.55 500.67 60.11 500.67 59.53C500.67 58.93 500.46 58.5 500.04 58.24C499.62 57.96 498.99 57.82 498.15 57.82H495.21ZM495.21 53.02V55.66H497.79C499.07 55.66 499.71 55.21 499.71 54.31C499.71 53.45 499.06 53.02 497.76 53.02H495.21ZM506.919 64.3C506.699 64.3 506.499 64.29 506.319 64.27C506.159 64.25 506.019 64.23 505.899 64.21V60.64C506.099 60.68 506.259 60.7 506.379 60.7C506.719 60.7 507.009 60.58 507.249 60.34C507.489 60.08 507.679 59.67 507.819 59.11C507.979 58.53 508.089 57.78 508.149 56.86C508.229 55.94 508.269 54.82 508.269 53.5V50.29H518.679V64H514.989V53.56H511.689V55.18C511.689 56.9 511.579 58.34 511.359 59.5C511.159 60.66 510.849 61.6 510.429 62.32C510.029 63.02 509.529 63.53 508.929 63.85C508.349 64.15 507.679 64.3 506.919 64.3ZM528.881 64.21C527.781 64.21 526.771 64.04 525.851 63.7C524.951 63.36 524.171 62.89 523.511 62.29C522.851 61.67 522.341 60.94 521.981 60.1C521.621 59.24 521.441 58.29 521.441 57.25C521.441 56.15 521.631 55.16 522.011 54.28C522.391 53.38 522.911 52.62 523.571 52C524.231 51.38 525.001 50.9 525.881 50.56C526.761 50.22 527.701 50.05 528.701 50.05C529.781 50.05 530.741 50.24 531.581 50.62C532.441 50.98 533.161 51.49 533.741 52.15C534.321 52.79 534.761 53.55 535.061 54.43C535.381 55.29 535.541 56.22 535.541 57.22V58H525.041C525.221 59.06 525.671 59.87 526.391 60.43C527.131 60.99 528.061 61.27 529.181 61.27C529.981 61.27 530.721 61.13 531.401 60.85C532.101 60.55 532.681 60.14 533.141 59.62L535.211 61.51C534.511 62.39 533.611 63.06 532.511 63.52C531.411 63.98 530.201 64.21 528.881 64.21ZM528.551 53.05C527.671 53.05 526.931 53.29 526.331 53.77C525.751 54.23 525.351 54.89 525.131 55.75H531.971C531.851 54.99 531.491 54.35 530.891 53.83C530.291 53.31 529.511 53.05 528.551 53.05ZM547.697 58.6H541.997V64H538.277V50.29H541.997V55.33H547.697V50.29H551.417V64H547.697V58.6ZM554.947 50.29H558.667V58.18L565.027 50.29H567.937V64H564.217V55.66L557.497 64H554.947V50.29ZM570.63 63.49L573.54 59.14C571.94 58.38 571.14 57.03 571.14 55.09C571.14 53.51 571.65 52.32 572.67 51.52C573.71 50.7 575.32 50.29 577.5 50.29H583.44V64H579.72V59.8H577.38L574.68 64H570.63V63.49ZM579.72 57.16V53.17H577.74C576.78 53.17 576.07 53.31 575.61 53.59C575.15 53.85 574.92 54.36 574.92 55.12C574.92 55.88 575.12 56.41 575.52 56.71C575.94 57.01 576.65 57.16 577.65 57.16H579.72ZM600.073 71.2V50.29H603.583V52.12C604.043 51.54 604.663 51.05 605.443 50.65C606.243 50.25 607.153 50.05 608.173 50.05C609.013 50.05 609.813 50.22 610.573 50.56C611.353 50.9 612.033 51.38 612.613 52C613.213 52.62 613.683 53.37 614.023 54.25C614.383 55.11 614.563 56.07 614.563 57.13C614.563 58.19 614.383 59.16 614.023 60.04C613.663 60.9 613.183 61.64 612.583 62.26C612.003 62.88 611.323 63.36 610.543 63.7C609.783 64.04 608.993 64.21 608.173 64.21C607.273 64.21 606.443 64.05 605.683 63.73C604.923 63.39 604.293 62.94 603.793 62.38V71.2H600.073ZM607.183 53.32C606.163 53.32 605.353 53.65 604.753 54.31C604.153 54.95 603.833 55.78 603.793 56.8V57.19C603.813 58.33 604.123 59.26 604.723 59.98C605.343 60.68 606.163 61.03 607.183 61.03C608.183 61.03 609.003 60.68 609.643 59.98C610.303 59.28 610.633 58.33 610.633 57.13C610.633 56.51 610.533 55.96 610.333 55.48C610.153 55 609.903 54.6 609.583 54.28C609.283 53.96 608.923 53.72 608.503 53.56C608.083 53.4 607.643 53.32 607.183 53.32ZM623.929 64.21C622.829 64.21 621.819 64.04 620.899 63.7C619.999 63.36 619.219 62.89 618.559 62.29C617.899 61.67 617.389 60.94 617.029 60.1C616.669 59.24 616.489 58.29 616.489 57.25C616.489 56.15 616.679 55.16 617.059 54.28C617.439 53.38 617.959 52.62 618.619 52C619.279 51.38 620.049 50.9 620.929 50.56C621.809 50.22 622.749 50.05 623.749 50.05C624.829 50.05 625.789 50.24 626.629 50.62C627.489 50.98 628.209 51.49 628.789 52.15C629.369 52.79 629.809 53.55 630.109 54.43C630.429 55.29 630.589 56.22 630.589 57.22V58H620.089C620.269 59.06 620.719 59.87 621.439 60.43C622.179 60.99 623.109 61.27 624.229 61.27C625.029 61.27 625.769 61.13 626.449 60.85C627.149 60.55 627.729 60.14 628.189 59.62L630.259 61.51C629.559 62.39 628.659 63.06 627.559 63.52C626.459 63.98 625.249 64.21 623.929 64.21ZM623.599 53.05C622.719 53.05 621.979 53.29 621.379 53.77C620.799 54.23 620.399 54.89 620.179 55.75H627.019C626.899 54.99 626.539 54.35 625.939 53.83C625.339 53.31 624.559 53.05 623.599 53.05ZM640.165 64.27C637.505 64.27 635.565 63.44 634.345 61.78C633.125 60.12 632.515 57.63 632.515 54.31C632.515 52.39 632.715 50.75 633.115 49.39C633.515 48.01 634.085 46.89 634.825 46.03C635.585 45.15 636.495 44.51 637.555 44.11C638.635 43.69 639.835 43.48 641.155 43.48C641.915 43.48 642.495 43.41 642.895 43.27C643.295 43.11 643.595 42.81 643.795 42.37L646.735 43.24C646.575 43.82 646.375 44.32 646.135 44.74C645.915 45.14 645.605 45.48 645.205 45.76C644.805 46.04 644.295 46.26 643.675 46.42C643.055 46.56 642.265 46.66 641.305 46.72C640.385 46.78 639.585 46.9 638.905 47.08C638.245 47.26 637.685 47.58 637.225 48.04C636.785 48.48 636.435 49.1 636.175 49.9C635.935 50.7 635.775 51.74 635.695 53.02C636.275 51.94 637.015 51.19 637.915 50.77C638.835 50.33 639.835 50.11 640.915 50.11C641.915 50.11 642.815 50.27 643.615 50.59C644.435 50.91 645.125 51.37 645.685 51.97C646.245 52.57 646.675 53.29 646.975 54.13C647.275 54.95 647.425 55.87 647.425 56.89C647.425 58.01 647.245 59.03 646.885 59.95C646.525 60.85 646.025 61.62 645.385 62.26C644.745 62.9 643.975 63.4 643.075 63.76C642.195 64.1 641.225 64.27 640.165 64.27ZM640.075 61C641.095 61 641.915 60.66 642.535 59.98C643.175 59.28 643.495 58.32 643.495 57.1C643.495 55.9 643.195 54.96 642.595 54.28C642.015 53.58 641.185 53.23 640.105 53.23C639.045 53.23 638.205 53.57 637.585 54.25C636.965 54.93 636.655 55.88 636.655 57.1C636.655 58.3 636.965 59.25 637.585 59.95C638.205 60.65 639.035 61 640.075 61ZM656.771 64.21C655.671 64.21 654.661 64.04 653.741 63.7C652.841 63.36 652.061 62.89 651.401 62.29C650.741 61.67 650.231 60.94 649.871 60.1C649.511 59.24 649.331 58.29 649.331 57.25C649.331 56.15 649.521 55.16 649.901 54.28C650.281 53.38 650.801 52.62 651.461 52C652.121 51.38 652.891 50.9 653.771 50.56C654.651 50.22 655.591 50.05 656.591 50.05C657.671 50.05 658.631 50.24 659.471 50.62C660.331 50.98 661.051 51.49 661.631 52.15C662.211 52.79 662.651 53.55 662.951 54.43C663.271 55.29 663.431 56.22 663.431 57.22V58H652.931C653.111 59.06 653.561 59.87 654.281 60.43C655.021 60.99 655.951 61.27 657.071 61.27C657.871 61.27 658.611 61.13 659.291 60.85C659.991 60.55 660.571 60.14 661.031 59.62L663.101 61.51C662.401 62.39 661.501 63.06 660.401 63.52C659.301 63.98 658.091 64.21 656.771 64.21ZM656.441 53.05C655.561 53.05 654.821 53.29 654.221 53.77C653.641 54.23 653.241 54.89 653.021 55.75H659.861C659.741 54.99 659.381 54.35 658.781 53.83C658.181 53.31 657.401 53.05 656.441 53.05ZM653.321 47.83C652.681 47.83 652.151 47.64 651.731 47.26C651.331 46.86 651.131 46.36 651.131 45.76C651.131 45.14 651.331 44.65 651.731 44.29C652.151 43.91 652.681 43.72 653.321 43.72C653.961 43.72 654.471 43.91 654.851 44.29C655.231 44.65 655.421 45.14 655.421 45.76C655.421 46.36 655.231 46.86 654.851 47.26C654.471 47.64 653.961 47.83 653.321 47.83ZM659.561 47.83C658.921 47.83 658.401 47.64 658.001 47.26C657.601 46.86 657.401 46.36 657.401 45.76C657.401 45.14 657.601 44.65 658.001 44.29C658.401 43.91 658.921 43.72 659.561 43.72C660.221 43.72 660.741 43.91 661.121 44.29C661.501 44.65 661.691 45.14 661.691 45.76C661.691 46.36 661.501 46.86 661.121 47.26C660.741 47.64 660.221 47.83 659.561 47.83ZM675.586 58.6H669.886V64H666.166V50.29H669.886V55.33H675.586V50.29H679.306V64H675.586V58.6ZM682.836 50.29H686.556V55.33H687.996L691.296 50.29H695.166V50.8L691.086 56.53L696.186 63.49V64H692.046L687.906 58.15H686.556V64H682.836V50.29ZM702.977 64.21C702.157 64.21 701.357 64.04 700.577 63.7C699.817 63.36 699.137 62.88 698.537 62.26C697.957 61.64 697.487 60.9 697.127 60.04C696.767 59.16 696.587 58.19 696.587 57.13C696.587 56.07 696.757 55.11 697.097 54.25C697.457 53.37 697.927 52.62 698.507 52C699.107 51.38 699.787 50.9 700.547 50.56C701.327 50.22 702.137 50.05 702.977 50.05C703.997 50.05 704.897 50.25 705.677 50.65C706.477 51.05 707.107 51.54 707.567 52.12V50.29H711.077V64H707.567V62.14C707.067 62.76 706.417 63.26 705.617 63.64C704.817 64.02 703.937 64.21 702.977 64.21ZM703.967 61.03C704.987 61.03 705.797 60.68 706.397 59.98C707.017 59.26 707.337 58.33 707.357 57.19V56.95C707.357 55.89 707.047 55.02 706.427 54.34C705.807 53.66 704.987 53.32 703.967 53.32C703.507 53.32 703.067 53.4 702.647 53.56C702.227 53.72 701.857 53.96 701.537 54.28C701.217 54.6 700.967 55 700.787 55.48C700.607 55.96 700.517 56.51 700.517 57.13C700.517 58.33 700.837 59.28 701.477 59.98C702.137 60.68 702.967 61.03 703.967 61.03ZM727.728 50.29H731.448V58.18L737.808 50.29H740.718V64H736.998V55.66L730.278 64H727.728V50.29ZM766.776 58.6H761.076V64H757.356V50.29H761.076V55.33H766.776V50.29H770.496V64H766.776V58.6ZM780.656 64.21C779.556 64.21 778.546 64.04 777.626 63.7C776.726 63.36 775.946 62.89 775.286 62.29C774.626 61.67 774.116 60.94 773.756 60.1C773.396 59.24 773.216 58.29 773.216 57.25C773.216 56.15 773.406 55.16 773.786 54.28C774.166 53.38 774.686 52.62 775.346 52C776.006 51.38 776.776 50.9 777.656 50.56C778.536 50.22 779.476 50.05 780.476 50.05C781.556 50.05 782.516 50.24 783.356 50.62C784.216 50.98 784.936 51.49 785.516 52.15C786.096 52.79 786.536 53.55 786.836 54.43C787.156 55.29 787.316 56.22 787.316 57.22V58H776.816C776.996 59.06 777.446 59.87 778.166 60.43C778.906 60.99 779.836 61.27 780.956 61.27C781.756 61.27 782.496 61.13 783.176 60.85C783.876 60.55 784.456 60.14 784.916 59.62L786.986 61.51C786.286 62.39 785.386 63.06 784.286 63.52C783.186 63.98 781.976 64.21 780.656 64.21ZM780.326 53.05C779.446 53.05 778.706 53.29 778.106 53.77C777.526 54.23 777.126 54.89 776.906 55.75H783.746C783.626 54.99 783.266 54.35 782.666 53.83C782.066 53.31 781.286 53.05 780.326 53.05ZM790.051 50.29H793.771V58.18L800.131 50.29H803.041V64H799.321V55.66L792.601 64H790.051V50.29ZM796.531 48.52C795.911 48.52 795.321 48.44 794.761 48.28C794.221 48.1 793.741 47.84 793.321 47.5C792.921 47.16 792.601 46.73 792.361 46.21C792.121 45.67 791.991 45.05 791.971 44.35H794.641C794.681 44.89 794.851 45.33 795.151 45.67C795.451 46.01 795.931 46.18 796.591 46.18C797.231 46.18 797.701 46.02 798.001 45.7C798.321 45.36 798.501 44.91 798.541 44.35H801.181C801.161 45.05 801.021 45.67 800.761 46.21C800.501 46.73 800.161 47.16 799.741 47.5C799.321 47.84 798.831 48.1 798.271 48.28C797.711 48.44 797.131 48.52 796.531 48.52ZM806.575 71.2V50.29H810.085V52.12C810.545 51.54 811.165 51.05 811.945 50.65C812.745 50.25 813.655 50.05 814.675 50.05C815.515 50.05 816.315 50.22 817.075 50.56C817.855 50.9 818.535 51.38 819.115 52C819.715 52.62 820.185 53.37 820.525 54.25C820.885 55.11 821.065 56.07 821.065 57.13C821.065 58.19 820.885 59.16 820.525 60.04C820.165 60.9 819.685 61.64 819.085 62.26C818.505 62.88 817.825 63.36 817.045 63.7C816.285 64.04 815.495 64.21 814.675 64.21C813.775 64.21 812.945 64.05 812.185 63.73C811.425 63.39 810.795 62.94 810.295 62.38V71.2H806.575ZM813.685 53.32C812.665 53.32 811.855 53.65 811.255 54.31C810.655 54.95 810.335 55.78 810.295 56.8V57.19C810.315 58.33 810.625 59.26 811.225 59.98C811.845 60.68 812.665 61.03 813.685 61.03C814.685 61.03 815.505 60.68 816.145 59.98C816.805 59.28 817.135 58.33 817.135 57.13C817.135 56.51 817.035 55.96 816.835 55.48C816.655 55 816.405 54.6 816.085 54.28C815.785 53.96 815.425 53.72 815.005 53.56C814.585 53.4 814.145 53.32 813.685 53.32ZM830.401 64.21C829.321 64.21 828.321 64.04 827.401 63.7C826.501 63.36 825.721 62.88 825.061 62.26C824.421 61.62 823.911 60.87 823.531 60.01C823.171 59.15 822.991 58.19 822.991 57.13C822.991 56.07 823.171 55.11 823.531 54.25C823.911 53.37 824.431 52.62 825.091 52C825.751 51.38 826.531 50.9 827.431 50.56C828.351 50.22 829.341 50.05 830.401 50.05C831.481 50.05 832.471 50.22 833.371 50.56C834.291 50.9 835.081 51.39 835.741 52.03C836.401 52.65 836.911 53.4 837.271 54.28C837.631 55.14 837.811 56.09 837.811 57.13C837.811 58.21 837.621 59.19 837.241 60.07C836.861 60.93 836.341 61.67 835.681 62.29C835.021 62.89 834.241 63.36 833.341 63.7C832.441 64.04 831.461 64.21 830.401 64.21ZM830.401 61.06C831.501 61.06 832.361 60.69 832.981 59.95C833.601 59.21 833.911 58.27 833.911 57.13C833.911 55.99 833.611 55.06 833.011 54.34C832.411 53.6 831.541 53.23 830.401 53.23C829.281 53.23 828.411 53.6 827.791 54.34C827.171 55.08 826.861 56.01 826.861 57.13C826.861 57.67 826.941 58.18 827.101 58.66C827.261 59.14 827.491 59.56 827.791 59.92C828.091 60.28 828.461 60.56 828.901 60.76C829.341 60.96 829.841 61.06 830.401 61.06ZM846.89 64.21C845.79 64.21 844.8 64.04 843.92 63.7C843.04 63.36 842.28 62.89 841.64 62.29C841.02 61.67 840.54 60.93 840.2 60.07C839.86 59.21 839.69 58.25 839.69 57.19C839.69 56.07 839.87 55.07 840.23 54.19C840.61 53.29 841.12 52.54 841.76 51.94C842.4 51.32 843.16 50.85 844.04 50.53C844.92 50.21 845.87 50.05 846.89 50.05C848.05 50.05 849.1 50.25 850.04 50.65C851 51.05 851.75 51.55 852.29 52.15L850.37 54.67C849.97 54.23 849.5 53.88 848.96 53.62C848.44 53.36 847.85 53.23 847.19 53.23C846.07 53.23 845.18 53.59 844.52 54.31C843.88 55.03 843.56 55.95 843.56 57.07C843.56 58.23 843.89 59.19 844.55 59.95C845.23 60.69 846.14 61.06 847.28 61.06C847.94 61.06 848.53 60.93 849.05 60.67C849.57 60.39 850.03 60.03 850.43 59.59L852.62 61.75C852.02 62.53 851.22 63.14 850.22 63.58C849.24 64 848.13 64.21 846.89 64.21ZM861.339 64.21C860.239 64.21 859.229 64.04 858.309 63.7C857.409 63.36 856.629 62.89 855.969 62.29C855.309 61.67 854.799 60.94 854.439 60.1C854.079 59.24 853.899 58.29 853.899 57.25C853.899 56.15 854.089 55.16 854.469 54.28C854.849 53.38 855.369 52.62 856.029 52C856.689 51.38 857.459 50.9 858.339 50.56C859.219 50.22 860.159 50.05 861.159 50.05C862.239 50.05 863.199 50.24 864.039 50.62C864.899 50.98 865.619 51.49 866.199 52.15C866.779 52.79 867.219 53.55 867.519 54.43C867.839 55.29 867.999 56.22 867.999 57.22V58H857.499C857.679 59.06 858.129 59.87 858.849 60.43C859.589 60.99 860.519 61.27 861.639 61.27C862.439 61.27 863.179 61.13 863.859 60.85C864.559 60.55 865.139 60.14 865.599 59.62L867.669 61.51C866.969 62.39 866.069 63.06 864.969 63.52C863.869 63.98 862.659 64.21 861.339 64.21ZM861.009 53.05C860.129 53.05 859.389 53.29 858.789 53.77C858.209 54.23 857.809 54.89 857.589 55.75H864.429C864.309 54.99 863.949 54.35 863.349 53.83C862.749 53.31 861.969 53.05 861.009 53.05ZM873.445 53.56H869.035V50.29H881.545V53.56H877.135V64H873.445V53.56ZM883.831 50.29H887.551V58.18L893.911 50.29H896.821V64H893.101V55.66L886.381 64H883.831V50.29ZM919.848 64.21C918.748 64.21 917.758 64.04 916.878 63.7C915.998 63.36 915.238 62.89 914.598 62.29C913.978 61.67 913.498 60.93 913.158 60.07C912.818 59.21 912.648 58.25 912.648 57.19C912.648 56.07 912.828 55.07 913.188 54.19C913.568 53.29 914.078 52.54 914.718 51.94C915.358 51.32 916.118 50.85 916.998 50.53C917.878 50.21 918.828 50.05 919.848 50.05C921.008 50.05 922.058 50.25 922.998 50.65C923.958 51.05 924.708 51.55 925.248 52.15L923.328 54.67C922.928 54.23 922.458 53.88 921.918 53.62C921.398 53.36 920.808 53.23 920.148 53.23C919.028 53.23 918.138 53.59 917.478 54.31C916.838 55.03 916.518 55.95 916.518 57.07C916.518 58.23 916.848 59.19 917.508 59.95C918.188 60.69 919.098 61.06 920.238 61.06C920.898 61.06 921.488 60.93 922.008 60.67C922.528 60.39 922.988 60.03 923.388 59.59L925.578 61.75C924.978 62.53 924.178 63.14 923.178 63.58C922.198 64 921.088 64.21 919.848 64.21ZM934.267 64.21C933.187 64.21 932.187 64.04 931.267 63.7C930.367 63.36 929.587 62.88 928.927 62.26C928.287 61.62 927.777 60.87 927.397 60.01C927.037 59.15 926.857 58.19 926.857 57.13C926.857 56.07 927.037 55.11 927.397 54.25C927.777 53.37 928.297 52.62 928.957 52C929.617 51.38 930.397 50.9 931.297 50.56C932.217 50.22 933.207 50.05 934.267 50.05C935.347 50.05 936.337 50.22 937.237 50.56C938.157 50.9 938.947 51.39 939.607 52.03C940.267 52.65 940.777 53.4 941.137 54.28C941.497 55.14 941.677 56.09 941.677 57.13C941.677 58.21 941.487 59.19 941.107 60.07C940.727 60.93 940.207 61.67 939.547 62.29C938.887 62.89 938.107 63.36 937.207 63.7C936.307 64.04 935.327 64.21 934.267 64.21ZM934.267 61.06C935.367 61.06 936.227 60.69 936.847 59.95C937.467 59.21 937.777 58.27 937.777 57.13C937.777 55.99 937.477 55.06 936.877 54.34C936.277 53.6 935.407 53.23 934.267 53.23C933.147 53.23 932.277 53.6 931.657 54.34C931.037 55.08 930.727 56.01 930.727 57.13C930.727 57.67 930.807 58.18 930.967 58.66C931.127 59.14 931.357 59.56 931.657 59.92C931.957 60.28 932.327 60.56 932.767 60.76C933.207 60.96 933.707 61.06 934.267 61.06ZM944.367 50.29H951.777C953.197 50.29 954.267 50.6 954.987 51.22C955.707 51.82 956.067 52.61 956.067 53.59C956.067 54.33 955.887 54.94 955.527 55.42C955.167 55.9 954.697 56.24 954.117 56.44C955.097 56.58 955.897 56.92 956.517 57.46C957.137 58 957.447 58.81 957.447 59.89C957.447 61.21 956.957 62.23 955.977 62.95C955.017 63.65 953.607 64 951.747 64H944.367V50.29ZM948.087 57.82V61.27H950.937C951.877 61.27 952.547 61.13 952.947 60.85C953.347 60.55 953.547 60.11 953.547 59.53C953.547 58.93 953.337 58.5 952.917 58.24C952.497 57.96 951.867 57.82 951.027 57.82H948.087ZM948.087 53.02V55.66H950.667C951.947 55.66 952.587 55.21 952.587 54.31C952.587 53.45 951.937 53.02 950.637 53.02H948.087ZM959.777 50.29H972.677V64H968.987V53.56H963.497V64H959.777V50.29ZM981.822 64.21C981.002 64.21 980.202 64.04 979.422 63.7C978.662 63.36 977.982 62.88 977.382 62.26C976.802 61.64 976.332 60.9 975.972 60.04C975.612 59.16 975.432 58.19 975.432 57.13C975.432 56.07 975.602 55.11 975.942 54.25C976.302 53.37 976.772 52.62 977.352 52C977.952 51.38 978.632 50.9 979.392 50.56C980.172 50.22 980.982 50.05 981.822 50.05C982.842 50.05 983.742 50.25 984.522 50.65C985.322 51.05 985.952 51.54 986.412 52.12V50.29H989.922V64H986.412V62.14C985.912 62.76 985.262 63.26 984.462 63.64C983.662 64.02 982.782 64.21 981.822 64.21ZM982.812 61.03C983.832 61.03 984.642 60.68 985.242 59.98C985.862 59.26 986.182 58.33 986.202 57.19V56.95C986.202 55.89 985.892 55.02 985.272 54.34C984.652 53.66 983.832 53.32 982.812 53.32C982.352 53.32 981.912 53.4 981.492 53.56C981.072 53.72 980.702 53.96 980.382 54.28C980.062 54.6 979.812 55 979.632 55.48C979.452 55.96 979.362 56.51 979.362 57.13C979.362 58.33 979.682 59.28 980.322 59.98C980.982 60.68 981.812 61.03 982.812 61.03ZM991.878 60.73H993.528C994.048 59.65 994.438 58.45 994.698 57.13C994.958 55.79 995.088 54.21 995.088 52.39V50.29H1005.77V60.73H1007.87V67.06H1004.84V64H994.938V67.06H991.878V60.73ZM998.418 53.65C998.418 56.43 998.008 58.79 997.188 60.73H1002.05V53.56H998.418V53.65ZM1015.28 64.21C1014.46 64.21 1013.66 64.04 1012.88 63.7C1012.12 63.36 1011.44 62.88 1010.84 62.26C1010.26 61.64 1009.79 60.9 1009.43 60.04C1009.07 59.16 1008.89 58.19 1008.89 57.13C1008.89 56.07 1009.06 55.11 1009.4 54.25C1009.76 53.37 1010.23 52.62 1010.81 52C1011.41 51.38 1012.09 50.9 1012.85 50.56C1013.63 50.22 1014.44 50.05 1015.28 50.05C1016.3 50.05 1017.2 50.25 1017.98 50.65C1018.78 51.05 1019.41 51.54 1019.87 52.12V50.29H1023.38V64H1019.87V62.14C1019.37 62.76 1018.72 63.26 1017.92 63.64C1017.12 64.02 1016.24 64.21 1015.28 64.21ZM1016.27 61.03C1017.29 61.03 1018.1 60.68 1018.7 59.98C1019.32 59.26 1019.64 58.33 1019.66 57.19V56.95C1019.66 55.89 1019.35 55.02 1018.73 54.34C1018.11 53.66 1017.29 53.32 1016.27 53.32C1015.81 53.32 1015.37 53.4 1014.95 53.56C1014.53 53.72 1014.16 53.96 1013.84 54.28C1013.52 54.6 1013.27 55 1013.09 55.48C1012.91 55.96 1012.82 56.51 1012.82 57.13C1012.82 58.33 1013.14 59.28 1013.78 59.98C1014.44 60.68 1015.27 61.03 1016.27 61.03ZM1026.48 64.3C1026.26 64.3 1026.06 64.29 1025.88 64.27C1025.72 64.25 1025.58 64.23 1025.46 64.21V60.64C1025.66 60.68 1025.82 60.7 1025.94 60.7C1026.28 60.7 1026.57 60.58 1026.81 60.34C1027.05 60.08 1027.24 59.67 1027.38 59.11C1027.54 58.53 1027.65 57.78 1027.71 56.86C1027.79 55.94 1027.83 54.82 1027.83 53.5V50.29H1038.24V64H1034.55V53.56H1031.25V55.18C1031.25 56.9 1031.14 58.34 1030.92 59.5C1030.72 60.66 1030.41 61.6 1029.99 62.32C1029.59 63.02 1029.09 63.53 1028.49 63.85C1027.91 64.15 1027.24 64.3 1026.48 64.3ZM1041.81 50.29H1045.53V58.18L1051.89 50.29H1054.8V64H1051.08V55.66L1044.36 64H1041.81V50.29ZM1059.62 64.15C1059.02 64.05 1058.56 63.82 1058.24 63.46C1057.94 63.08 1057.79 62.63 1057.79 62.11C1057.79 61.45 1058 60.93 1058.42 60.55C1058.86 60.15 1059.38 59.95 1059.98 59.95C1060.62 59.95 1061.17 60.16 1061.63 60.58C1062.11 61 1062.35 61.6 1062.35 62.38C1062.35 62.9 1062.21 63.48 1061.93 64.12C1061.65 64.76 1061.22 65.59 1060.64 66.61L1059.44 68.8H1057.04L1059.62 64.15ZM1084.46 64.21C1083.64 64.21 1082.84 64.04 1082.06 63.7C1081.3 63.36 1080.62 62.88 1080.02 62.26C1079.44 61.64 1078.97 60.9 1078.61 60.04C1078.25 59.16 1078.07 58.19 1078.07 57.13C1078.07 56.07 1078.24 55.11 1078.58 54.25C1078.94 53.37 1079.41 52.62 1079.99 52C1080.59 51.38 1081.27 50.9 1082.03 50.56C1082.81 50.22 1083.62 50.05 1084.46 50.05C1085.48 50.05 1086.38 50.25 1087.16 50.65C1087.96 51.05 1088.59 51.54 1089.05 52.12V50.29H1092.56V64H1089.05V62.14C1088.55 62.76 1087.9 63.26 1087.1 63.64C1086.3 64.02 1085.42 64.21 1084.46 64.21ZM1085.45 61.03C1086.47 61.03 1087.28 60.68 1087.88 59.98C1088.5 59.26 1088.82 58.33 1088.84 57.19V56.95C1088.84 55.89 1088.53 55.02 1087.91 54.34C1087.29 53.66 1086.47 53.32 1085.45 53.32C1084.99 53.32 1084.55 53.4 1084.13 53.56C1083.71 53.72 1083.34 53.96 1083.02 54.28C1082.7 54.6 1082.45 55 1082.27 55.48C1082.09 55.96 1082 56.51 1082 57.13C1082 58.33 1082.32 59.28 1082.96 59.98C1083.62 60.68 1084.45 61.03 1085.45 61.03ZM1109.21 50.29H1112.93V58.18L1119.29 50.29H1122.2V64H1118.48V55.66L1111.76 64H1109.21V50.29ZM1135.15 58.6H1129.45V64H1125.73V50.29H1129.45V55.33H1135.15V50.29H1138.87V64H1135.15V58.6ZM1149 64.21C1147.92 64.21 1146.92 64.04 1146 63.7C1145.1 63.36 1144.32 62.88 1143.66 62.26C1143.02 61.62 1142.51 60.87 1142.13 60.01C1141.77 59.15 1141.59 58.19 1141.59 57.13C1141.59 56.07 1141.77 55.11 1142.13 54.25C1142.51 53.37 1143.03 52.62 1143.69 52C1144.35 51.38 1145.13 50.9 1146.03 50.56C1146.95 50.22 1147.94 50.05 1149 50.05C1150.08 50.05 1151.07 50.22 1151.97 50.56C1152.89 50.9 1153.68 51.39 1154.34 52.03C1155 52.65 1155.51 53.4 1155.87 54.28C1156.23 55.14 1156.41 56.09 1156.41 57.13C1156.41 58.21 1156.22 59.19 1155.84 60.07C1155.46 60.93 1154.94 61.67 1154.28 62.29C1153.62 62.89 1152.84 63.36 1151.94 63.7C1151.04 64.04 1150.06 64.21 1149 64.21ZM1149 61.06C1150.1 61.06 1150.96 60.69 1151.58 59.95C1152.2 59.21 1152.51 58.27 1152.51 57.13C1152.51 55.99 1152.21 55.06 1151.61 54.34C1151.01 53.6 1150.14 53.23 1149 53.23C1147.88 53.23 1147.01 53.6 1146.39 54.34C1145.77 55.08 1145.46 56.01 1145.46 57.13C1145.46 57.67 1145.54 58.18 1145.7 58.66C1145.86 59.14 1146.09 59.56 1146.39 59.92C1146.69 60.28 1147.06 60.56 1147.5 60.76C1147.94 60.96 1148.44 61.06 1149 61.06ZM1159.1 50.29H1168.61V53.56H1162.82V64H1159.1V50.29ZM1168.76 60.73H1170.41C1170.93 59.65 1171.32 58.45 1171.58 57.13C1171.84 55.79 1171.97 54.21 1171.97 52.39V50.29H1182.65V60.73H1184.75V67.06H1181.72V64H1171.82V67.06H1168.76V60.73ZM1175.3 53.65C1175.3 56.43 1174.89 58.79 1174.07 60.73H1178.93V53.56H1175.3V53.65ZM1192.16 64.21C1191.34 64.21 1190.54 64.04 1189.76 63.7C1189 63.36 1188.32 62.88 1187.72 62.26C1187.14 61.64 1186.67 60.9 1186.31 60.04C1185.95 59.16 1185.77 58.19 1185.77 57.13C1185.77 56.07 1185.94 55.11 1186.28 54.25C1186.64 53.37 1187.11 52.62 1187.69 52C1188.29 51.38 1188.97 50.9 1189.73 50.56C1190.51 50.22 1191.32 50.05 1192.16 50.05C1193.18 50.05 1194.08 50.25 1194.86 50.65C1195.66 51.05 1196.29 51.54 1196.75 52.12V50.29H1200.26V64H1196.75V62.14C1196.25 62.76 1195.6 63.26 1194.8 63.64C1194 64.02 1193.12 64.21 1192.16 64.21ZM1193.15 61.03C1194.17 61.03 1194.98 60.68 1195.58 59.98C1196.2 59.26 1196.52 58.33 1196.54 57.19V56.95C1196.54 55.89 1196.23 55.02 1195.61 54.34C1194.99 53.66 1194.17 53.32 1193.15 53.32C1192.69 53.32 1192.25 53.4 1191.83 53.56C1191.41 53.72 1191.04 53.96 1190.72 54.28C1190.4 54.6 1190.15 55 1189.97 55.48C1189.79 55.96 1189.7 56.51 1189.7 57.13C1189.7 58.33 1190.02 59.28 1190.66 59.98C1191.32 60.68 1192.15 61.03 1193.15 61.03ZM1219.88 55.63H1224.71C1224.49 54.83 1224.09 54.23 1223.51 53.83C1222.95 53.43 1222.25 53.23 1221.41 53.23C1220.05 53.23 1219.03 53.71 1218.35 54.67L1215.83 52.75C1216.37 51.91 1217.16 51.25 1218.2 50.77C1219.26 50.29 1220.39 50.05 1221.59 50.05C1222.57 50.05 1223.49 50.21 1224.35 50.53C1225.23 50.85 1226 51.31 1226.66 51.91C1227.32 52.51 1227.84 53.25 1228.22 54.13C1228.6 54.99 1228.79 55.98 1228.79 57.1C1228.79 58.14 1228.61 59.1 1228.25 59.98C1227.91 60.84 1227.43 61.59 1226.81 62.23C1226.19 62.85 1225.44 63.34 1224.56 63.7C1223.68 64.04 1222.72 64.21 1221.68 64.21C1220.38 64.21 1219.17 63.95 1218.05 63.43C1216.95 62.91 1216.14 62.16 1215.62 61.18L1218.32 59.62C1219.04 60.64 1220.04 61.15 1221.32 61.15C1222.34 61.15 1223.13 60.86 1223.69 60.28C1224.25 59.7 1224.61 59.02 1224.77 58.24H1219.88V55.63ZM1234.21 53.56H1229.8V50.29H1242.31V53.56H1237.9V64H1234.21V53.56ZM1250.67 64.21C1249.59 64.21 1248.59 64.04 1247.67 63.7C1246.77 63.36 1245.99 62.88 1245.33 62.26C1244.69 61.62 1244.18 60.87 1243.8 60.01C1243.44 59.15 1243.26 58.19 1243.26 57.13C1243.26 56.07 1243.44 55.11 1243.8 54.25C1244.18 53.37 1244.7 52.62 1245.36 52C1246.02 51.38 1246.8 50.9 1247.7 50.56C1248.62 50.22 1249.61 50.05 1250.67 50.05C1251.75 50.05 1252.74 50.22 1253.64 50.56C1254.56 50.9 1255.35 51.39 1256.01 52.03C1256.67 52.65 1257.18 53.4 1257.54 54.28C1257.9 55.14 1258.08 56.09 1258.08 57.13C1258.08 58.21 1257.89 59.19 1257.51 60.07C1257.13 60.93 1256.61 61.67 1255.95 62.29C1255.29 62.89 1254.51 63.36 1253.61 63.7C1252.71 64.04 1251.73 64.21 1250.67 64.21ZM1250.67 61.06C1251.77 61.06 1252.63 60.69 1253.25 59.95C1253.87 59.21 1254.18 58.27 1254.18 57.13C1254.18 55.99 1253.88 55.06 1253.28 54.34C1252.68 53.6 1251.81 53.23 1250.67 53.23C1249.55 53.23 1248.68 53.6 1248.06 54.34C1247.44 55.08 1247.13 56.01 1247.13 57.13C1247.13 57.67 1247.21 58.18 1247.37 58.66C1247.53 59.14 1247.76 59.56 1248.06 59.92C1248.36 60.28 1248.73 60.56 1249.17 60.76C1249.61 60.96 1250.11 61.06 1250.67 61.06ZM274.61 100.27C271.95 100.27 270.01 99.44 268.79 97.78C267.57 96.12 266.96 93.63 266.96 90.31C266.96 88.39 267.16 86.75 267.56 85.39C267.96 84.01 268.53 82.89 269.27 82.03C270.03 81.15 270.94 80.51 272 80.11C273.08 79.69 274.28 79.48 275.6 79.48C276.36 79.48 276.94 79.41 277.34 79.27C277.74 79.11 278.04 78.81 278.24 78.37L281.18 79.24C281.02 79.82 280.82 80.32 280.58 80.74C280.36 81.14 280.05 81.48 279.65 81.76C279.25 82.04 278.74 82.26 278.12 82.42C277.5 82.56 276.71 82.66 275.75 82.72C274.83 82.78 274.03 82.9 273.35 83.08C272.69 83.26 272.13 83.58 271.67 84.04C271.23 84.48 270.88 85.1 270.62 85.9C270.38 86.7 270.22 87.74 270.14 89.02C270.72 87.94 271.46 87.19 272.36 86.77C273.28 86.33 274.28 86.11 275.36 86.11C276.36 86.11 277.26 86.27 278.06 86.59C278.88 86.91 279.57 87.37 280.13 87.97C280.69 88.57 281.12 89.29 281.42 90.13C281.72 90.95 281.87 91.87 281.87 92.89C281.87 94.01 281.69 95.03 281.33 95.95C280.97 96.85 280.47 97.62 279.83 98.26C279.19 98.9 278.42 99.4 277.52 99.76C276.64 100.1 275.67 100.27 274.61 100.27ZM274.52 97C275.54 97 276.36 96.66 276.98 95.98C277.62 95.28 277.94 94.32 277.94 93.1C277.94 91.9 277.64 90.96 277.04 90.28C276.46 89.58 275.63 89.23 274.55 89.23C273.49 89.23 272.65 89.57 272.03 90.25C271.41 90.93 271.1 91.88 271.1 93.1C271.1 94.3 271.41 95.25 272.03 95.95C272.65 96.65 273.48 97 274.52 97ZM290.376 90.25C292.316 90.25 293.786 90.65 294.786 91.45C295.806 92.25 296.316 93.46 296.316 95.08C296.316 96.7 295.786 97.93 294.726 98.77C293.686 99.59 292.136 100 290.076 100H284.586V86.29H288.306V90.25H290.376ZM297.636 86.29H301.356V100H297.636V86.29ZM289.686 97.09C290.586 97.09 291.276 96.96 291.756 96.7C292.256 96.42 292.506 95.88 292.506 95.08C292.506 94.34 292.276 93.83 291.816 93.55C291.376 93.27 290.706 93.13 289.806 93.13H288.306V97.09H289.686ZM304.439 100.3C304.219 100.3 304.019 100.29 303.839 100.27C303.679 100.25 303.539 100.23 303.419 100.21V96.64C303.619 96.68 303.779 96.7 303.899 96.7C304.239 96.7 304.529 96.58 304.769 96.34C305.009 96.08 305.199 95.67 305.339 95.11C305.499 94.53 305.609 93.78 305.669 92.86C305.749 91.94 305.789 90.82 305.789 89.5V86.29H316.199V100H312.509V89.56H309.209V91.18C309.209 92.9 309.099 94.34 308.879 95.5C308.679 96.66 308.369 97.6 307.949 98.32C307.549 99.02 307.049 99.53 306.449 99.85C305.869 100.15 305.199 100.3 304.439 100.3ZM319.772 86.29H323.492V94.18L329.852 86.29H332.762V100H329.042V91.66L322.322 100H319.772V86.29ZM349.668 100.21C348.848 100.21 348.048 100.04 347.268 99.7C346.508 99.36 345.828 98.88 345.228 98.26C344.648 97.64 344.178 96.9 343.818 96.04C343.458 95.16 343.278 94.19 343.278 93.13C343.278 92.07 343.448 91.11 343.788 90.25C344.148 89.37 344.618 88.62 345.198 88C345.798 87.38 346.478 86.9 347.238 86.56C348.018 86.22 348.828 86.05 349.668 86.05C350.688 86.05 351.588 86.25 352.368 86.65C353.168 87.05 353.798 87.54 354.258 88.12V86.29H357.768V100H354.258V98.14C353.758 98.76 353.108 99.26 352.308 99.64C351.508 100.02 350.628 100.21 349.668 100.21ZM350.658 97.03C351.678 97.03 352.488 96.68 353.088 95.98C353.708 95.26 354.028 94.33 354.048 93.19V92.95C354.048 91.89 353.738 91.02 353.118 90.34C352.498 89.66 351.678 89.32 350.658 89.32C350.198 89.32 349.758 89.4 349.338 89.56C348.918 89.72 348.548 89.96 348.228 90.28C347.908 90.6 347.658 91 347.478 91.48C347.298 91.96 347.208 92.51 347.208 93.13C347.208 94.33 347.528 95.28 348.168 95.98C348.828 96.68 349.658 97.03 350.658 97.03ZM368.155 100.27C365.495 100.27 363.555 99.44 362.335 97.78C361.115 96.12 360.505 93.63 360.505 90.31C360.505 88.39 360.705 86.75 361.105 85.39C361.505 84.01 362.075 82.89 362.815 82.03C363.575 81.15 364.485 80.51 365.545 80.11C366.625 79.69 367.825 79.48 369.145 79.48C369.905 79.48 370.485 79.41 370.885 79.27C371.285 79.11 371.585 78.81 371.785 78.37L374.725 79.24C374.565 79.82 374.365 80.32 374.125 80.74C373.905 81.14 373.595 81.48 373.195 81.76C372.795 82.04 372.285 82.26 371.665 82.42C371.045 82.56 370.255 82.66 369.295 82.72C368.375 82.78 367.575 82.9 366.895 83.08C366.235 83.26 365.675 83.58 365.215 84.04C364.775 84.48 364.425 85.1 364.165 85.9C363.925 86.7 363.765 87.74 363.685 89.02C364.265 87.94 365.005 87.19 365.905 86.77C366.825 86.33 367.825 86.11 368.905 86.11C369.905 86.11 370.805 86.27 371.605 86.59C372.425 86.91 373.115 87.37 373.675 87.97C374.235 88.57 374.665 89.29 374.965 90.13C375.265 90.95 375.415 91.87 375.415 92.89C375.415 94.01 375.235 95.03 374.875 95.95C374.515 96.85 374.015 97.62 373.375 98.26C372.735 98.9 371.965 99.4 371.065 99.76C370.185 100.1 369.215 100.27 368.155 100.27ZM368.065 97C369.085 97 369.905 96.66 370.525 95.98C371.165 95.28 371.485 94.32 371.485 93.1C371.485 91.9 371.185 90.96 370.585 90.28C370.005 89.58 369.175 89.23 368.095 89.23C367.035 89.23 366.195 89.57 365.575 90.25C364.955 90.93 364.645 91.88 364.645 93.1C364.645 94.3 364.955 95.25 365.575 95.95C366.195 96.65 367.025 97 368.065 97ZM384.521 100.21C383.421 100.21 382.431 100.04 381.551 99.7C380.671 99.36 379.911 98.89 379.271 98.29C378.651 97.67 378.171 96.93 377.831 96.07C377.491 95.21 377.321 94.25 377.321 93.19C377.321 92.07 377.501 91.07 377.861 90.19C378.241 89.29 378.751 88.54 379.391 87.94C380.031 87.32 380.791 86.85 381.671 86.53C382.551 86.21 383.501 86.05 384.521 86.05C385.681 86.05 386.731 86.25 387.671 86.65C388.631 87.05 389.381 87.55 389.921 88.15L388.001 90.67C387.601 90.23 387.131 89.88 386.591 89.62C386.071 89.36 385.481 89.23 384.821 89.23C383.701 89.23 382.811 89.59 382.151 90.31C381.511 91.03 381.191 91.95 381.191 93.07C381.191 94.23 381.521 95.19 382.181 95.95C382.861 96.69 383.771 97.06 384.911 97.06C385.571 97.06 386.161 96.93 386.681 96.67C387.201 96.39 387.661 96.03 388.061 95.59L390.251 97.75C389.651 98.53 388.851 99.14 387.851 99.58C386.871 100 385.761 100.21 384.521 100.21ZM398.94 100.21C397.86 100.21 396.86 100.04 395.94 99.7C395.04 99.36 394.26 98.88 393.6 98.26C392.96 97.62 392.45 96.87 392.07 96.01C391.71 95.15 391.53 94.19 391.53 93.13C391.53 92.07 391.71 91.11 392.07 90.25C392.45 89.37 392.97 88.62 393.63 88C394.29 87.38 395.07 86.9 395.97 86.56C396.89 86.22 397.88 86.05 398.94 86.05C400.02 86.05 401.01 86.22 401.91 86.56C402.83 86.9 403.62 87.39 404.28 88.03C404.94 88.65 405.45 89.4 405.81 90.28C406.17 91.14 406.35 92.09 406.35 93.13C406.35 94.21 406.16 95.19 405.78 96.07C405.4 96.93 404.88 97.67 404.22 98.29C403.56 98.89 402.78 99.36 401.88 99.7C400.98 100.04 400 100.21 398.94 100.21ZM398.94 97.06C400.04 97.06 400.9 96.69 401.52 95.95C402.14 95.21 402.45 94.27 402.45 93.13C402.45 91.99 402.15 91.06 401.55 90.34C400.95 89.6 400.08 89.23 398.94 89.23C397.82 89.23 396.95 89.6 396.33 90.34C395.71 91.08 395.4 92.01 395.4 93.13C395.4 93.67 395.48 94.18 395.64 94.66C395.8 95.14 396.03 95.56 396.33 95.92C396.63 96.28 397 96.56 397.44 96.76C397.88 96.96 398.38 97.06 398.94 97.06ZM408.443 100.3C408.223 100.3 408.023 100.29 407.843 100.27C407.683 100.25 407.543 100.23 407.423 100.21V96.64C407.623 96.68 407.783 96.7 407.903 96.7C408.243 96.7 408.533 96.58 408.773 96.34C409.013 96.08 409.203 95.67 409.343 95.11C409.503 94.53 409.613 93.78 409.673 92.86C409.753 91.94 409.793 90.82 409.793 89.5V86.29H420.203V100H416.513V89.56H413.213V91.18C413.213 92.9 413.103 94.34 412.883 95.5C412.683 96.66 412.373 97.6 411.953 98.32C411.553 99.02 411.053 99.53 410.453 99.85C409.873 100.15 409.203 100.3 408.443 100.3ZM423.776 86.29H427.496V91.15H429.386C429.586 90.35 429.906 89.64 430.346 89.02C430.786 88.38 431.306 87.84 431.906 87.4C432.526 86.96 433.206 86.63 433.946 86.41C434.686 86.17 435.456 86.05 436.256 86.05C437.316 86.05 438.286 86.22 439.166 86.56C440.046 86.88 440.806 87.35 441.446 87.97C442.086 88.57 442.586 89.31 442.946 90.19C443.306 91.05 443.486 92.03 443.486 93.13C443.486 94.27 443.286 95.28 442.886 96.16C442.506 97.04 441.976 97.78 441.296 98.38C440.636 98.98 439.866 99.44 438.986 99.76C438.106 100.06 437.186 100.21 436.226 100.21C435.286 100.21 434.416 100.07 433.616 99.79C432.816 99.51 432.106 99.12 431.486 98.62C430.886 98.1 430.386 97.47 429.986 96.73C429.606 95.99 429.356 95.16 429.236 94.24H427.496V100H423.776V86.29ZM436.256 96.97C437.336 96.97 438.156 96.61 438.716 95.89C439.296 95.17 439.586 94.26 439.586 93.16C439.586 92.02 439.286 91.09 438.686 90.37C438.106 89.65 437.286 89.29 436.226 89.29C435.166 89.29 434.336 89.65 433.736 90.37C433.156 91.07 432.866 91.96 432.866 93.04C432.866 94.18 433.166 95.12 433.766 95.86C434.386 96.6 435.216 96.97 436.256 96.97ZM448.928 89.56H444.518V86.29H457.028V89.56H452.618V100H448.928V89.56ZM468.733 94.6H463.033V100H459.313V86.29H463.033V91.33H468.733V86.29H472.453V100H468.733V94.6ZM482.583 100.21C481.503 100.21 480.503 100.04 479.583 99.7C478.683 99.36 477.903 98.88 477.243 98.26C476.603 97.62 476.093 96.87 475.713 96.01C475.353 95.15 475.173 94.19 475.173 93.13C475.173 92.07 475.353 91.11 475.713 90.25C476.093 89.37 476.613 88.62 477.273 88C477.933 87.38 478.713 86.9 479.613 86.56C480.533 86.22 481.523 86.05 482.583 86.05C483.663 86.05 484.653 86.22 485.553 86.56C486.473 86.9 487.263 87.39 487.923 88.03C488.583 88.65 489.093 89.4 489.453 90.28C489.813 91.14 489.993 92.09 489.993 93.13C489.993 94.21 489.803 95.19 489.423 96.07C489.043 96.93 488.523 97.67 487.863 98.29C487.203 98.89 486.423 99.36 485.523 99.7C484.623 100.04 483.643 100.21 482.583 100.21ZM482.583 97.06C483.683 97.06 484.543 96.69 485.163 95.95C485.783 95.21 486.093 94.27 486.093 93.13C486.093 91.99 485.793 91.06 485.193 90.34C484.593 89.6 483.723 89.23 482.583 89.23C481.463 89.23 480.593 89.6 479.973 90.34C479.353 91.08 479.043 92.01 479.043 93.13C479.043 93.67 479.123 94.18 479.283 94.66C479.443 95.14 479.673 95.56 479.973 95.92C480.273 96.28 480.643 96.56 481.083 96.76C481.523 96.96 482.023 97.06 482.583 97.06ZM500.475 107.2V86.29H503.985V88.12C504.445 87.54 505.065 87.05 505.845 86.65C506.645 86.25 507.555 86.05 508.575 86.05C509.415 86.05 510.215 86.22 510.975 86.56C511.755 86.9 512.435 87.38 513.015 88C513.615 88.62 514.085 89.37 514.425 90.25C514.785 91.11 514.965 92.07 514.965 93.13C514.965 94.19 514.785 95.16 514.425 96.04C514.065 96.9 513.585 97.64 512.985 98.26C512.405 98.88 511.725 99.36 510.945 99.7C510.185 100.04 509.395 100.21 508.575 100.21C507.675 100.21 506.845 100.05 506.085 99.73C505.325 99.39 504.695 98.94 504.195 98.38V107.2H500.475ZM507.585 89.32C506.565 89.32 505.755 89.65 505.155 90.31C504.555 90.95 504.235 91.78 504.195 92.8V93.19C504.215 94.33 504.525 95.26 505.125 95.98C505.745 96.68 506.565 97.03 507.585 97.03C508.585 97.03 509.405 96.68 510.045 95.98C510.705 95.28 511.035 94.33 511.035 93.13C511.035 92.51 510.935 91.96 510.735 91.48C510.555 91 510.305 90.6 509.985 90.28C509.685 89.96 509.325 89.72 508.905 89.56C508.485 89.4 508.045 89.32 507.585 89.32ZM523.282 100.21C522.462 100.21 521.662 100.04 520.882 99.7C520.122 99.36 519.442 98.88 518.842 98.26C518.262 97.64 517.792 96.9 517.432 96.04C517.072 95.16 516.892 94.19 516.892 93.13C516.892 92.07 517.062 91.11 517.402 90.25C517.762 89.37 518.232 88.62 518.812 88C519.412 87.38 520.092 86.9 520.852 86.56C521.632 86.22 522.442 86.05 523.282 86.05C524.302 86.05 525.202 86.25 525.982 86.65C526.782 87.05 527.412 87.54 527.872 88.12V86.29H531.382V100H527.872V98.14C527.372 98.76 526.722 99.26 525.922 99.64C525.122 100.02 524.242 100.21 523.282 100.21ZM524.272 97.03C525.292 97.03 526.102 96.68 526.702 95.98C527.322 95.26 527.642 94.33 527.662 93.19V92.95C527.662 91.89 527.352 91.02 526.732 90.34C526.112 89.66 525.292 89.32 524.272 89.32C523.812 89.32 523.372 89.4 522.952 89.56C522.532 89.72 522.162 89.96 521.842 90.28C521.522 90.6 521.272 91 521.092 91.48C520.912 91.96 520.822 92.51 520.822 93.13C520.822 94.33 521.142 95.28 521.782 95.98C522.442 96.68 523.272 97.03 524.272 97.03ZM539.428 100.21C538.688 100.21 537.998 100.13 537.358 99.97C536.738 99.81 536.178 99.61 535.678 99.37C535.198 99.13 534.778 98.87 534.418 98.59C534.078 98.31 533.818 98.05 533.638 97.81L536.008 95.59C536.328 95.99 536.778 96.34 537.358 96.64C537.938 96.92 538.608 97.06 539.368 97.06C540.908 97.06 541.678 96.53 541.678 95.47C541.678 95.07 541.508 94.73 541.168 94.45C540.828 94.17 540.238 94.03 539.398 94.03H537.478V91.42H538.978C539.618 91.42 540.118 91.33 540.478 91.15C540.838 90.95 541.018 90.65 541.018 90.25C541.018 89.91 540.838 89.65 540.478 89.47C540.118 89.27 539.648 89.17 539.068 89.17C538.528 89.17 537.998 89.29 537.478 89.53C536.978 89.75 536.548 90.03 536.188 90.37L534.178 88.27C534.398 88.01 534.668 87.75 534.988 87.49C535.328 87.23 535.718 87 536.158 86.8C536.598 86.58 537.098 86.4 537.658 86.26C538.218 86.12 538.828 86.05 539.488 86.05C540.268 86.05 540.978 86.14 541.618 86.32C542.258 86.5 542.808 86.75 543.268 87.07C543.728 87.37 544.078 87.75 544.318 88.21C544.578 88.65 544.708 89.14 544.708 89.68C544.708 90.32 544.538 90.88 544.198 91.36C543.858 91.84 543.388 92.22 542.788 92.5C543.688 92.78 544.358 93.2 544.798 93.76C545.258 94.32 545.488 94.99 545.488 95.77C545.488 96.39 545.348 96.97 545.068 97.51C544.788 98.05 544.388 98.52 543.868 98.92C543.348 99.32 542.708 99.64 541.948 99.88C541.208 100.1 540.368 100.21 539.428 100.21ZM557.415 94.6H551.715V100H547.995V86.29H551.715V91.33H557.415V86.29H561.135V100H557.415V94.6ZM570.455 90.25C572.395 90.25 573.865 90.65 574.865 91.45C575.885 92.25 576.395 93.46 576.395 95.08C576.395 96.7 575.865 97.93 574.805 98.77C573.765 99.59 572.215 100 570.155 100H564.665V86.29H568.385V90.25H570.455ZM577.715 86.29H581.435V100H577.715V86.29ZM569.765 97.09C570.665 97.09 571.355 96.96 571.835 96.7C572.335 96.42 572.585 95.88 572.585 95.08C572.585 94.34 572.355 93.83 571.895 93.55C571.455 93.27 570.785 93.13 569.885 93.13H568.385V97.09H569.765ZM591.597 100.21C590.497 100.21 589.487 100.04 588.567 99.7C587.667 99.36 586.887 98.89 586.227 98.29C585.567 97.67 585.057 96.94 584.697 96.1C584.337 95.24 584.157 94.29 584.157 93.25C584.157 92.15 584.347 91.16 584.727 90.28C585.107 89.38 585.627 88.62 586.287 88C586.947 87.38 587.717 86.9 588.597 86.56C589.477 86.22 590.417 86.05 591.417 86.05C592.497 86.05 593.457 86.24 594.297 86.62C595.157 86.98 595.877 87.49 596.457 88.15C597.037 88.79 597.477 89.55 597.777 90.43C598.097 91.29 598.257 92.22 598.257 93.22V94H587.757C587.937 95.06 588.387 95.87 589.107 96.43C589.847 96.99 590.777 97.27 591.897 97.27C592.697 97.27 593.437 97.13 594.117 96.85C594.817 96.55 595.397 96.14 595.857 95.62L597.927 97.51C597.227 98.39 596.327 99.06 595.227 99.52C594.127 99.98 592.917 100.21 591.597 100.21ZM591.267 89.05C590.387 89.05 589.647 89.29 589.047 89.77C588.467 90.23 588.067 90.89 587.847 91.75H594.687C594.567 90.99 594.207 90.35 593.607 89.83C593.007 89.31 592.227 89.05 591.267 89.05ZM608.786 86.29H621.686V100H617.996V89.56H612.506V100H608.786V86.29ZM625.25 107.2V86.29H628.76V88.12C629.22 87.54 629.84 87.05 630.62 86.65C631.42 86.25 632.33 86.05 633.35 86.05C634.19 86.05 634.99 86.22 635.75 86.56C636.53 86.9 637.21 87.38 637.79 88C638.39 88.62 638.86 89.37 639.2 90.25C639.56 91.11 639.74 92.07 639.74 93.13C639.74 94.19 639.56 95.16 639.2 96.04C638.84 96.9 638.36 97.64 637.76 98.26C637.18 98.88 636.5 99.36 635.72 99.7C634.96 100.04 634.17 100.21 633.35 100.21C632.45 100.21 631.62 100.05 630.86 99.73C630.1 99.39 629.47 98.94 628.97 98.38V107.2H625.25ZM632.36 89.32C631.34 89.32 630.53 89.65 629.93 90.31C629.33 90.95 629.01 91.78 628.97 92.8V93.19C628.99 94.33 629.3 95.26 629.9 95.98C630.52 96.68 631.34 97.03 632.36 97.03C633.36 97.03 634.18 96.68 634.82 95.98C635.48 95.28 635.81 94.33 635.81 93.13C635.81 92.51 635.71 91.96 635.51 91.48C635.33 91 635.08 90.6 634.76 90.28C634.46 89.96 634.1 89.72 633.68 89.56C633.26 89.4 632.82 89.32 632.36 89.32ZM649.107 100.21C648.007 100.21 646.997 100.04 646.077 99.7C645.177 99.36 644.397 98.89 643.737 98.29C643.077 97.67 642.567 96.94 642.207 96.1C641.847 95.24 641.667 94.29 641.667 93.25C641.667 92.15 641.857 91.16 642.237 90.28C642.617 89.38 643.137 88.62 643.797 88C644.457 87.38 645.227 86.9 646.107 86.56C646.987 86.22 647.927 86.05 648.927 86.05C650.007 86.05 650.967 86.24 651.807 86.62C652.667 86.98 653.387 87.49 653.967 88.15C654.547 88.79 654.987 89.55 655.287 90.43C655.607 91.29 655.767 92.22 655.767 93.22V94H645.267C645.447 95.06 645.897 95.87 646.617 96.43C647.357 96.99 648.287 97.27 649.407 97.27C650.207 97.27 650.947 97.13 651.627 96.85C652.327 96.55 652.907 96.14 653.367 95.62L655.437 97.51C654.737 98.39 653.837 99.06 652.737 99.52C651.637 99.98 650.427 100.21 649.107 100.21ZM648.777 89.05C647.897 89.05 647.157 89.29 646.557 89.77C645.977 90.23 645.577 90.89 645.357 91.75H652.197C652.077 90.99 651.717 90.35 651.117 89.83C650.517 89.31 649.737 89.05 648.777 89.05ZM656.619 96.73H658.269C658.789 95.65 659.179 94.45 659.439 93.13C659.699 91.79 659.829 90.21 659.829 88.39V86.29H670.509V96.73H672.609V103.06H669.579V100H659.679V103.06H656.619V96.73ZM663.159 89.65C663.159 92.43 662.749 94.79 661.929 96.73H666.789V89.56H663.159V89.65ZM680.83 100.21C679.73 100.21 678.74 100.04 677.86 99.7C676.98 99.36 676.22 98.89 675.58 98.29C674.96 97.67 674.48 96.93 674.14 96.07C673.8 95.21 673.63 94.25 673.63 93.19C673.63 92.07 673.81 91.07 674.17 90.19C674.55 89.29 675.06 88.54 675.7 87.94C676.34 87.32 677.1 86.85 677.98 86.53C678.86 86.21 679.81 86.05 680.83 86.05C681.99 86.05 683.04 86.25 683.98 86.65C684.94 87.05 685.69 87.55 686.23 88.15L684.31 90.67C683.91 90.23 683.44 89.88 682.9 89.62C682.38 89.36 681.79 89.23 681.13 89.23C680.01 89.23 679.12 89.59 678.46 90.31C677.82 91.03 677.5 91.95 677.5 93.07C677.5 94.23 677.83 95.19 678.49 95.95C679.17 96.69 680.08 97.06 681.22 97.06C681.88 97.06 682.47 96.93 682.99 96.67C683.51 96.39 683.97 96.03 684.37 95.59L686.56 97.75C685.96 98.53 685.16 99.14 684.16 99.58C683.18 100 682.07 100.21 680.83 100.21ZM691.945 89.56H687.535V86.29H700.045V89.56H695.635V100H691.945V89.56ZM707.383 100.21C706.563 100.21 705.763 100.04 704.983 99.7C704.223 99.36 703.543 98.88 702.943 98.26C702.363 97.64 701.893 96.9 701.533 96.04C701.173 95.16 700.993 94.19 700.993 93.13C700.993 92.07 701.163 91.11 701.503 90.25C701.863 89.37 702.333 88.62 702.913 88C703.513 87.38 704.193 86.9 704.953 86.56C705.733 86.22 706.543 86.05 707.383 86.05C708.403 86.05 709.303 86.25 710.083 86.65C710.883 87.05 711.513 87.54 711.973 88.12V86.29H715.483V100H711.973V98.14C711.473 98.76 710.823 99.26 710.023 99.64C709.223 100.02 708.343 100.21 707.383 100.21ZM708.373 97.03C709.393 97.03 710.203 96.68 710.803 95.98C711.423 95.26 711.743 94.33 711.763 93.19V92.95C711.763 91.89 711.453 91.02 710.833 90.34C710.213 89.66 709.393 89.32 708.373 89.32C707.913 89.32 707.473 89.4 707.053 89.56C706.633 89.72 706.263 89.96 705.943 90.28C705.623 90.6 705.373 91 705.193 91.48C705.013 91.96 704.923 92.51 704.923 93.13C704.923 94.33 705.243 95.28 705.883 95.98C706.543 96.68 707.373 97.03 708.373 97.03ZM719.03 86.29H726.44C727.86 86.29 728.93 86.6 729.65 87.22C730.37 87.82 730.73 88.61 730.73 89.59C730.73 90.33 730.55 90.94 730.19 91.42C729.83 91.9 729.36 92.24 728.78 92.44C729.76 92.58 730.56 92.92 731.18 93.46C731.8 94 732.11 94.81 732.11 95.89C732.11 97.21 731.62 98.23 730.64 98.95C729.68 99.65 728.27 100 726.41 100H719.03V86.29ZM722.75 93.82V97.27H725.6C726.54 97.27 727.21 97.13 727.61 96.85C728.01 96.55 728.21 96.11 728.21 95.53C728.21 94.93 728 94.5 727.58 94.24C727.16 93.96 726.53 93.82 725.69 93.82H722.75ZM722.75 89.02V91.66H725.33C726.61 91.66 727.25 91.21 727.25 90.31C727.25 89.45 726.6 89.02 725.3 89.02H722.75ZM734.459 100.3C734.239 100.3 734.039 100.29 733.859 100.27C733.699 100.25 733.559 100.23 733.439 100.21V96.64C733.639 96.68 733.799 96.7 733.919 96.7C734.259 96.7 734.549 96.58 734.789 96.34C735.029 96.08 735.219 95.67 735.359 95.11C735.519 94.53 735.629 93.78 735.689 92.86C735.769 91.94 735.809 90.82 735.809 89.5V86.29H746.219V100H742.529V89.56H739.229V91.18C739.229 92.9 739.119 94.34 738.899 95.5C738.699 96.66 738.389 97.6 737.969 98.32C737.569 99.02 737.069 99.53 736.469 99.85C735.889 100.15 735.219 100.3 734.459 100.3ZM756.421 100.21C755.321 100.21 754.311 100.04 753.391 99.7C752.491 99.36 751.711 98.89 751.051 98.29C750.391 97.67 749.881 96.94 749.521 96.1C749.161 95.24 748.981 94.29 748.981 93.25C748.981 92.15 749.171 91.16 749.551 90.28C749.931 89.38 750.451 88.62 751.111 88C751.771 87.38 752.541 86.9 753.421 86.56C754.301 86.22 755.241 86.05 756.241 86.05C757.321 86.05 758.281 86.24 759.121 86.62C759.981 86.98 760.701 87.49 761.281 88.15C761.861 88.79 762.301 89.55 762.601 90.43C762.921 91.29 763.081 92.22 763.081 93.22V94H752.581C752.761 95.06 753.211 95.87 753.931 96.43C754.671 96.99 755.601 97.27 756.721 97.27C757.521 97.27 758.261 97.13 758.941 96.85C759.641 96.55 760.221 96.14 760.681 95.62L762.751 97.51C762.051 98.39 761.151 99.06 760.051 99.52C758.951 99.98 757.741 100.21 756.421 100.21ZM756.091 89.05C755.211 89.05 754.471 89.29 753.871 89.77C753.291 90.23 752.891 90.89 752.671 91.75H759.511C759.391 90.99 759.031 90.35 758.431 89.83C757.831 89.31 757.051 89.05 756.091 89.05ZM775.237 94.6H769.537V100H765.817V86.29H769.537V91.33H775.237V86.29H778.957V100H775.237V94.6ZM782.487 86.29H786.207V94.18L792.567 86.29H795.477V100H791.757V91.66L785.037 100H782.487V86.29ZM798.17 99.49L801.08 95.14C799.48 94.38 798.68 93.03 798.68 91.09C798.68 89.51 799.19 88.32 800.21 87.52C801.25 86.7 802.86 86.29 805.04 86.29H810.98V100H807.26V95.8H804.92L802.22 100H798.17V99.49ZM807.26 93.16V89.17H805.28C804.32 89.17 803.61 89.31 803.15 89.59C802.69 89.85 802.46 90.36 802.46 91.12C802.46 91.88 802.66 92.41 803.06 92.71C803.48 93.01 804.19 93.16 805.19 93.16H807.26ZM816.548 100.3C815.848 100.3 815.308 100.1 814.928 99.7C814.568 99.28 814.388 98.78 814.388 98.2C814.388 97.58 814.568 97.06 814.928 96.64C815.288 96.22 815.828 96.01 816.548 96.01C817.268 96.01 817.818 96.22 818.198 96.64C818.578 97.06 818.768 97.58 818.768 98.2C818.768 98.78 818.568 99.28 818.168 99.7C817.788 100.1 817.248 100.3 816.548 100.3Z" fill="black"/>
<defs>
<linearGradient id="paint0_linear_91_3" x1="41.3447" y1="74.5247" x2="1541.51" y2="74.5247" gradientUnits="userSpaceOnUse">
<stop stop-color="white" stop-opacity="0.64"/>
<stop offset="0.325" stop-color="#2736C1" stop-opacity="0.72"/>
<stop offset="1" stop-color="#091FEA"/>
</linearGradient>
</defs>
</svg>
