<svg width="362" height="105" viewBox="0 0 362 105" fill="none" xmlns="http://www.w3.org/2000/svg">
<path d="M327.246 47.8493C323.525 44.1026 321.437 39.0367 321.437 33.7564V20C321.437 8.95429 312.483 0 301.437 0H20C8.95432 0 0 8.9543 0 20V42V85C0 96.0457 8.95432 105 20 105L335.952 105C353.737 105 362.675 83.5264 350.144 70.9071L327.246 47.8493Z" fill="url(#paint0_linear_106_13)" fill-opacity="0.76"/>
<path d="M15.192 19.68L17.848 15.28C17.3253 15.0027 16.9147 14.6133 16.616 14.112C16.3173 13.6 16.168 12.9973 16.168 12.304C16.168 11.7707 16.2587 11.2907 16.44 10.864C16.632 10.4267 16.8933 10.0587 17.224 9.76C17.5653 9.45067 17.976 9.216 18.456 9.056C18.936 8.88533 19.4747 8.8 20.072 8.8H23.528V20H21.384V15.744H19.944L17.48 20H15.192V19.68ZM21.384 13.888V10.64H20.216C19.6187 10.64 19.16 10.8 18.84 11.12C18.5307 11.4293 18.376 11.8187 18.376 12.288C18.376 12.736 18.5253 13.1147 18.824 13.424C19.1333 13.7333 19.608 13.888 20.248 13.888H21.384ZM39.5971 20.112C39.2025 20.112 38.8345 20.0693 38.4931 19.984C38.1625 19.8987 37.8638 19.792 37.5971 19.664C37.3411 19.536 37.1171 19.3973 36.9251 19.248C36.7438 19.0987 36.6051 18.96 36.5091 18.832L37.7731 17.648C37.9438 17.8613 38.1838 18.048 38.4931 18.208C38.8025 18.3573 39.1598 18.432 39.5651 18.432C40.3865 18.432 40.7971 18.1493 40.7971 17.584C40.7971 17.3707 40.7065 17.1893 40.5251 17.04C40.3438 16.8907 40.0291 16.816 39.5811 16.816H38.5571V15.424H39.3571C39.6985 15.424 39.9651 15.376 40.1571 15.28C40.3491 15.1733 40.4451 15.0133 40.4451 14.8C40.4451 14.6187 40.3491 14.48 40.1571 14.384C39.9651 14.2773 39.7145 14.224 39.4051 14.224C39.1171 14.224 38.8345 14.288 38.5571 14.416C38.2905 14.5333 38.0611 14.6827 37.8691 14.864L36.7971 13.744C36.9145 13.6053 37.0585 13.4667 37.2291 13.328C37.4105 13.1893 37.6185 13.0667 37.8531 12.96C38.0878 12.8427 38.3545 12.7467 38.6531 12.672C38.9518 12.5973 39.2771 12.56 39.6291 12.56C40.0451 12.56 40.4238 12.608 40.7651 12.704C41.1065 12.8 41.3998 12.9333 41.6451 13.104C41.8905 13.264 42.0771 13.4667 42.2051 13.712C42.3438 13.9467 42.4131 14.208 42.4131 14.496C42.4131 14.8373 42.3225 15.136 42.1411 15.392C41.9598 15.648 41.7091 15.8507 41.3891 16C41.8691 16.1493 42.2265 16.3733 42.4611 16.672C42.7065 16.9707 42.8291 17.328 42.8291 17.744C42.8291 18.0747 42.7545 18.384 42.6051 18.672C42.4558 18.96 42.2425 19.2107 41.9651 19.424C41.6878 19.6373 41.3465 19.808 40.9411 19.936C40.5465 20.0533 40.0985 20.112 39.5971 20.112ZM47.1419 20.112C46.7045 20.112 46.2779 20.0213 45.8619 19.84C45.4565 19.6587 45.0939 19.4027 44.7739 19.072C44.4645 18.7413 44.2139 18.3467 44.0219 17.888C43.8299 17.4187 43.7339 16.9013 43.7339 16.336C43.7339 15.7707 43.8245 15.2587 44.0059 14.8C44.1979 14.3307 44.4485 13.9307 44.7579 13.6C45.0779 13.2693 45.4405 13.0133 45.8459 12.832C46.2619 12.6507 46.6939 12.56 47.1419 12.56C47.6859 12.56 48.1659 12.6667 48.5819 12.88C49.0085 13.0933 49.3445 13.3547 49.5899 13.664V12.688H51.4619V20H49.5899V19.008C49.3232 19.3387 48.9765 19.6053 48.5499 19.808C48.1232 20.0107 47.6539 20.112 47.1419 20.112ZM47.6699 18.416C48.2139 18.416 48.6459 18.2293 48.9659 17.856C49.2965 17.472 49.4672 16.976 49.4779 16.368V16.24C49.4779 15.6747 49.3125 15.2107 48.9819 14.848C48.6512 14.4853 48.2139 14.304 47.6699 14.304C47.4245 14.304 47.1899 14.3467 46.9659 14.432C46.7419 14.5173 46.5445 14.6453 46.3739 14.816C46.2032 14.9867 46.0699 15.2 45.9739 15.456C45.8779 15.712 45.8299 16.0053 45.8299 16.336C45.8299 16.976 46.0005 17.4827 46.3419 17.856C46.6939 18.2293 47.1365 18.416 47.6699 18.416ZM68.1864 20.112C67.5997 20.112 67.0717 20.0213 66.6024 19.84C66.133 19.6587 65.7277 19.408 65.3864 19.088C65.0557 18.7573 64.7997 18.3627 64.6184 17.904C64.437 17.4453 64.3464 16.9333 64.3464 16.368C64.3464 15.7707 64.4424 15.2373 64.6344 14.768C64.837 14.288 65.109 13.888 65.4504 13.568C65.7917 13.2373 66.197 12.9867 66.6664 12.816C67.1357 12.6453 67.6424 12.56 68.1864 12.56C68.805 12.56 69.365 12.6667 69.8664 12.88C70.3784 13.0933 70.7784 13.36 71.0664 13.68L70.0424 15.024C69.829 14.7893 69.5784 14.6027 69.2904 14.464C69.013 14.3253 68.6984 14.256 68.3464 14.256C67.749 14.256 67.2744 14.448 66.9224 14.832C66.581 15.216 66.4104 15.7067 66.4104 16.304C66.4104 16.9227 66.5864 17.4347 66.9384 17.84C67.301 18.2347 67.7864 18.432 68.3944 18.432C68.7464 18.432 69.061 18.3627 69.3384 18.224C69.6157 18.0747 69.861 17.8827 70.0744 17.648L71.2424 18.8C70.9224 19.216 70.4957 19.5413 69.9624 19.776C69.4397 20 68.8477 20.112 68.1864 20.112ZM75.8765 20.112C75.3005 20.112 74.7672 20.0213 74.2765 19.84C73.7965 19.6587 73.3805 19.4027 73.0285 19.072C72.6872 18.7307 72.4152 18.3307 72.2125 17.872C72.0205 17.4133 71.9245 16.9013 71.9245 16.336C71.9245 15.7707 72.0205 15.2587 72.2125 14.8C72.4152 14.3307 72.6925 13.9307 73.0445 13.6C73.3965 13.2693 73.8125 13.0133 74.2925 12.832C74.7832 12.6507 75.3112 12.56 75.8765 12.56C76.4525 12.56 76.9805 12.6507 77.4605 12.832C77.9512 13.0133 78.3725 13.2747 78.7245 13.616C79.0765 13.9467 79.3485 14.3467 79.5405 14.816C79.7325 15.2747 79.8285 15.7813 79.8285 16.336C79.8285 16.912 79.7272 17.4347 79.5245 17.904C79.3218 18.3627 79.0445 18.7573 78.6925 19.088C78.3405 19.408 77.9245 19.6587 77.4445 19.84C76.9645 20.0213 76.4418 20.112 75.8765 20.112ZM75.8765 18.432C76.4632 18.432 76.9218 18.2347 77.2525 17.84C77.5832 17.4453 77.7485 16.944 77.7485 16.336C77.7485 15.728 77.5885 15.232 77.2685 14.848C76.9485 14.4533 76.4845 14.256 75.8765 14.256C75.2792 14.256 74.8152 14.4533 74.4845 14.848C74.1538 15.2427 73.9885 15.7387 73.9885 16.336C73.9885 16.624 74.0312 16.896 74.1165 17.152C74.2018 17.408 74.3245 17.632 74.4845 17.824C74.6445 18.016 74.8418 18.1653 75.0765 18.272C75.3112 18.3787 75.5778 18.432 75.8765 18.432ZM81.2627 12.688H85.2147C85.9721 12.688 86.5427 12.8533 86.9267 13.184C87.3107 13.504 87.5027 13.9253 87.5027 14.448C87.5027 14.8427 87.4067 15.168 87.2147 15.424C87.0227 15.68 86.7721 15.8613 86.4627 15.968C86.9854 16.0427 87.4121 16.224 87.7427 16.512C88.0734 16.8 88.2387 17.232 88.2387 17.808C88.2387 18.512 87.9774 19.056 87.4547 19.44C86.9427 19.8133 86.1907 20 85.1987 20H81.2627V12.688ZM83.2467 16.704V18.544H84.7667C85.2681 18.544 85.6254 18.4693 85.8387 18.32C86.0521 18.16 86.1587 17.9253 86.1587 17.616C86.1587 17.296 86.0467 17.0667 85.8227 16.928C85.5987 16.7787 85.2627 16.704 84.8147 16.704H83.2467ZM83.2467 14.144V15.552H84.6227C85.3054 15.552 85.6467 15.312 85.6467 14.832C85.6467 14.3733 85.3001 14.144 84.6067 14.144H83.2467ZM89.4815 23.84V12.688H91.3535V13.664C91.5988 13.3547 91.9295 13.0933 92.3455 12.88C92.7722 12.6667 93.2575 12.56 93.8015 12.56C94.2495 12.56 94.6762 12.6507 95.0815 12.832C95.4975 13.0133 95.8602 13.2693 96.1695 13.6C96.4895 13.9307 96.7402 14.3307 96.9215 14.8C97.1135 15.2587 97.2095 15.7707 97.2095 16.336C97.2095 16.9013 97.1135 17.4187 96.9215 17.888C96.7295 18.3467 96.4735 18.7413 96.1535 19.072C95.8442 19.4027 95.4815 19.6587 95.0655 19.84C94.6602 20.0213 94.2388 20.112 93.8015 20.112C93.3215 20.112 92.8788 20.0267 92.4735 19.856C92.0682 19.6747 91.7322 19.4347 91.4655 19.136V23.84H89.4815ZM93.2735 14.304C92.7295 14.304 92.2975 14.48 91.9775 14.832C91.6575 15.1733 91.4868 15.616 91.4655 16.16V16.368C91.4762 16.976 91.6415 17.472 91.9615 17.856C92.2922 18.2293 92.7295 18.416 93.2735 18.416C93.8068 18.416 94.2442 18.2293 94.5855 17.856C94.9375 17.4827 95.1135 16.976 95.1135 16.336C95.1135 16.0053 95.0602 15.712 94.9535 15.456C94.8575 15.2 94.7242 14.9867 94.5535 14.816C94.3935 14.6453 94.2015 14.5173 93.9775 14.432C93.7535 14.3467 93.5188 14.304 93.2735 14.304ZM102.205 20.112C101.618 20.112 101.08 20.0213 100.589 19.84C100.109 19.6587 99.693 19.408 99.341 19.088C98.989 18.7573 98.717 18.368 98.525 17.92C98.333 17.4613 98.237 16.9547 98.237 16.4C98.237 15.8133 98.3383 15.2853 98.541 14.816C98.7437 14.336 99.021 13.9307 99.373 13.6C99.725 13.2693 100.136 13.0133 100.605 12.832C101.074 12.6507 101.576 12.56 102.109 12.56C102.685 12.56 103.197 12.6613 103.645 12.864C104.104 13.056 104.488 13.328 104.797 13.68C105.106 14.0213 105.341 14.4267 105.501 14.896C105.672 15.3547 105.757 15.8507 105.757 16.384V16.8H100.157C100.253 17.3653 100.493 17.7973 100.877 18.096C101.272 18.3947 101.768 18.544 102.365 18.544C102.792 18.544 103.186 18.4693 103.549 18.32C103.922 18.16 104.232 17.9413 104.477 17.664L105.581 18.672C105.208 19.1413 104.728 19.4987 104.141 19.744C103.554 19.9893 102.909 20.112 102.205 20.112ZM102.029 14.16C101.56 14.16 101.165 14.288 100.845 14.544C100.536 14.7893 100.322 15.1413 100.205 15.6H103.853C103.789 15.1947 103.597 14.8533 103.277 14.576C102.957 14.2987 102.541 14.16 102.029 14.16ZM107.858 12.688H109.554L111.49 16.928L113.314 12.688H115.058L116.274 20H114.418L113.714 15.728L111.826 20H110.978L109.074 15.808L108.386 20H106.626L107.858 12.688ZM121.064 20.112C120.478 20.112 119.939 20.0213 119.448 19.84C118.968 19.6587 118.552 19.408 118.2 19.088C117.848 18.7573 117.576 18.368 117.384 17.92C117.192 17.4613 117.096 16.9547 117.096 16.4C117.096 15.8133 117.198 15.2853 117.4 14.816C117.603 14.336 117.88 13.9307 118.232 13.6C118.584 13.2693 118.995 13.0133 119.464 12.832C119.934 12.6507 120.435 12.56 120.968 12.56C121.544 12.56 122.056 12.6613 122.504 12.864C122.963 13.056 123.347 13.328 123.656 13.68C123.966 14.0213 124.2 14.4267 124.36 14.896C124.531 15.3547 124.616 15.8507 124.616 16.384V16.8H119.016C119.112 17.3653 119.352 17.7973 119.736 18.096C120.131 18.3947 120.627 18.544 121.224 18.544C121.651 18.544 122.046 18.4693 122.408 18.32C122.782 18.16 123.091 17.9413 123.336 17.664L124.44 18.672C124.067 19.1413 123.587 19.4987 123 19.744C122.414 19.9893 121.768 20.112 121.064 20.112ZM120.888 14.16C120.419 14.16 120.024 14.288 119.704 14.544C119.395 14.7893 119.182 15.1413 119.064 15.6H122.712C122.648 15.1947 122.456 14.8533 122.136 14.576C121.816 14.2987 121.4 14.16 120.888 14.16ZM131.099 17.12H128.059V20H126.075V12.688H128.059V15.376H131.099V12.688H133.083V20H131.099V17.12ZM139.99 17.12H136.95V20H134.966V12.688H136.95V15.376H139.99V12.688H141.974V20H139.99V17.12ZM146.944 14.8C147.979 14.8 148.763 15.0133 149.296 15.44C149.84 15.8667 150.112 16.512 150.112 17.376C150.112 18.24 149.83 18.896 149.264 19.344C148.71 19.7813 147.883 20 146.784 20H143.856V12.688H145.84V14.8H146.944ZM150.816 12.688H152.8V20H150.816V12.688ZM146.576 18.448C147.056 18.448 147.424 18.3787 147.68 18.24C147.947 18.0907 148.08 17.8027 148.08 17.376C148.08 16.9813 147.958 16.7093 147.712 16.56C147.478 16.4107 147.12 16.336 146.64 16.336H145.84V18.448H146.576ZM158.221 20.112C157.634 20.112 157.095 20.0213 156.605 19.84C156.125 19.6587 155.709 19.408 155.357 19.088C155.005 18.7573 154.733 18.368 154.541 17.92C154.349 17.4613 154.253 16.9547 154.253 16.4C154.253 15.8133 154.354 15.2853 154.557 14.816C154.759 14.336 155.037 13.9307 155.389 13.6C155.741 13.2693 156.151 13.0133 156.621 12.832C157.09 12.6507 157.591 12.56 158.125 12.56C158.701 12.56 159.213 12.6613 159.661 12.864C160.119 13.056 160.503 13.328 160.813 13.68C161.122 14.0213 161.357 14.4267 161.517 14.896C161.687 15.3547 161.773 15.8507 161.773 16.384V16.8H156.173C156.269 17.3653 156.509 17.7973 156.893 18.096C157.287 18.3947 157.783 18.544 158.381 18.544C158.807 18.544 159.202 18.4693 159.565 18.32C159.938 18.16 160.247 17.9413 160.493 17.664L161.597 18.672C161.223 19.1413 160.743 19.4987 160.157 19.744C159.57 19.9893 158.925 20.112 158.221 20.112ZM158.045 14.16C157.575 14.16 157.181 14.288 156.861 14.544C156.551 14.7893 156.338 15.1413 156.221 15.6H159.869C159.805 15.1947 159.613 14.8533 159.293 14.576C158.973 14.2987 158.557 14.16 158.045 14.16ZM176.336 14.432H173.984V12.688H180.656V14.432H178.304V20H176.336V14.432ZM185.13 20.112C184.543 20.112 184.005 20.0213 183.514 19.84C183.034 19.6587 182.618 19.408 182.266 19.088C181.914 18.7573 181.642 18.368 181.45 17.92C181.258 17.4613 181.162 16.9547 181.162 16.4C181.162 15.8133 181.263 15.2853 181.466 14.816C181.669 14.336 181.946 13.9307 182.298 13.6C182.65 13.2693 183.061 13.0133 183.53 12.832C183.999 12.6507 184.501 12.56 185.034 12.56C185.61 12.56 186.122 12.6613 186.57 12.864C187.029 13.056 187.413 13.328 187.722 13.68C188.031 14.0213 188.266 14.4267 188.426 14.896C188.597 15.3547 188.682 15.8507 188.682 16.384V16.8H183.082C183.178 17.3653 183.418 17.7973 183.802 18.096C184.197 18.3947 184.693 18.544 185.29 18.544C185.717 18.544 186.111 18.4693 186.474 18.32C186.847 18.16 187.157 17.9413 187.402 17.664L188.506 18.672C188.133 19.1413 187.653 19.4987 187.066 19.744C186.479 19.9893 185.834 20.112 185.13 20.112ZM184.954 14.16C184.485 14.16 184.09 14.288 183.77 14.544C183.461 14.7893 183.247 15.1413 183.13 15.6H186.778C186.714 15.1947 186.522 14.8533 186.202 14.576C185.882 14.2987 185.466 14.16 184.954 14.16ZM189.154 19.632L191.474 16.16L189.346 13.056V12.688H191.426L192.866 14.832L194.242 12.688H196.13V13.056L194.034 16.208L196.354 19.648L196.37 20H194.338L192.706 17.568L191.09 20H189.154V19.632ZM202.493 17.12H199.453V20H197.469V12.688H199.453V15.376H202.493V12.688H204.477V20H202.493V17.12ZM209.88 20.112C209.304 20.112 208.77 20.0213 208.28 19.84C207.8 19.6587 207.384 19.4027 207.032 19.072C206.69 18.7307 206.418 18.3307 206.216 17.872C206.024 17.4133 205.928 16.9013 205.928 16.336C205.928 15.7707 206.024 15.2587 206.216 14.8C206.418 14.3307 206.696 13.9307 207.048 13.6C207.4 13.2693 207.816 13.0133 208.296 12.832C208.786 12.6507 209.314 12.56 209.88 12.56C210.456 12.56 210.984 12.6507 211.464 12.832C211.954 13.0133 212.376 13.2747 212.728 13.616C213.08 13.9467 213.352 14.3467 213.544 14.816C213.736 15.2747 213.832 15.7813 213.832 16.336C213.832 16.912 213.73 17.4347 213.528 17.904C213.325 18.3627 213.048 18.7573 212.696 19.088C212.344 19.408 211.928 19.6587 211.448 19.84C210.968 20.0213 210.445 20.112 209.88 20.112ZM209.88 18.432C210.466 18.432 210.925 18.2347 211.256 17.84C211.586 17.4453 211.752 16.944 211.752 16.336C211.752 15.728 211.592 15.232 211.272 14.848C210.952 14.4533 210.488 14.256 209.88 14.256C209.282 14.256 208.818 14.4533 208.488 14.848C208.157 15.2427 207.992 15.7387 207.992 16.336C207.992 16.624 208.034 16.896 208.12 17.152C208.205 17.408 208.328 17.632 208.488 17.824C208.648 18.016 208.845 18.1653 209.08 18.272C209.314 18.3787 209.581 18.432 209.88 18.432ZM214.948 20.16C214.83 20.16 214.724 20.1547 214.628 20.144C214.542 20.1333 214.468 20.1227 214.404 20.112V18.208C214.51 18.2293 214.596 18.24 214.66 18.24C214.841 18.24 214.996 18.176 215.124 18.048C215.252 17.9093 215.353 17.6907 215.428 17.392C215.513 17.0827 215.572 16.6827 215.604 16.192C215.646 15.7013 215.668 15.104 215.668 14.4V12.688H221.22V20H219.252V14.432H217.492V15.296C217.492 16.2133 217.433 16.9813 217.316 17.6C217.209 18.2187 217.044 18.72 216.82 19.104C216.606 19.4773 216.34 19.7493 216.02 19.92C215.71 20.08 215.353 20.16 214.948 20.16ZM226.645 20.112C226.069 20.112 225.536 20.0213 225.045 19.84C224.565 19.6587 224.149 19.4027 223.797 19.072C223.456 18.7307 223.184 18.3307 222.981 17.872C222.789 17.4133 222.693 16.9013 222.693 16.336C222.693 15.7707 222.789 15.2587 222.981 14.8C223.184 14.3307 223.461 13.9307 223.813 13.6C224.165 13.2693 224.581 13.0133 225.061 12.832C225.552 12.6507 226.08 12.56 226.645 12.56C227.221 12.56 227.749 12.6507 228.229 12.832C228.72 13.0133 229.141 13.2747 229.493 13.616C229.845 13.9467 230.117 14.3467 230.309 14.816C230.501 15.2747 230.597 15.7813 230.597 16.336C230.597 16.912 230.496 17.4347 230.293 17.904C230.091 18.3627 229.813 18.7573 229.461 19.088C229.109 19.408 228.693 19.6587 228.213 19.84C227.733 20.0213 227.211 20.112 226.645 20.112ZM226.645 18.432C227.232 18.432 227.691 18.2347 228.021 17.84C228.352 17.4453 228.517 16.944 228.517 16.336C228.517 15.728 228.357 15.232 228.037 14.848C227.717 14.4533 227.253 14.256 226.645 14.256C226.048 14.256 225.584 14.4533 225.253 14.848C224.923 15.2427 224.757 15.7387 224.757 16.336C224.757 16.624 224.8 16.896 224.885 17.152C224.971 17.408 225.093 17.632 225.253 17.824C225.413 18.016 225.611 18.1653 225.845 18.272C226.08 18.3787 226.347 18.432 226.645 18.432ZM232.031 12.688H237.103V14.432H234.015V20H232.031V12.688ZM238.438 12.688H240.422V16.896L243.814 12.688H245.366V20H243.382V15.552L239.798 20H238.438V12.688ZM247.25 12.688H249.234V16.896L252.626 12.688H254.178V20H252.194V15.552L248.61 20H247.25V12.688ZM256.751 20.08C256.431 20.0267 256.185 19.904 256.015 19.712C255.855 19.5093 255.775 19.2693 255.775 18.992C255.775 18.64 255.887 18.3627 256.111 18.16C256.345 17.9467 256.623 17.84 256.943 17.84C257.284 17.84 257.577 17.952 257.823 18.176C258.079 18.4 258.207 18.72 258.207 19.136C258.207 19.4133 258.132 19.7227 257.983 20.064C257.833 20.4053 257.604 20.848 257.295 21.392L256.655 22.56H255.375L256.751 20.08ZM276.48 17.12H273.44V20H271.456V12.688H273.44V15.376H276.48V12.688H278.464V20H276.48V17.12ZM283.867 20.112C283.291 20.112 282.758 20.0213 282.267 19.84C281.787 19.6587 281.371 19.4027 281.019 19.072C280.678 18.7307 280.406 18.3307 280.203 17.872C280.011 17.4133 279.915 16.9013 279.915 16.336C279.915 15.7707 280.011 15.2587 280.203 14.8C280.406 14.3307 280.683 13.9307 281.035 13.6C281.387 13.2693 281.803 13.0133 282.283 12.832C282.774 12.6507 283.302 12.56 283.867 12.56C284.443 12.56 284.971 12.6507 285.451 12.832C285.942 13.0133 286.363 13.2747 286.715 13.616C287.067 13.9467 287.339 14.3467 287.531 14.816C287.723 15.2747 287.819 15.7813 287.819 16.336C287.819 16.912 287.718 17.4347 287.515 17.904C287.312 18.3627 287.035 18.7573 286.683 19.088C286.331 19.408 285.915 19.6587 285.435 19.84C284.955 20.0213 284.432 20.112 283.867 20.112ZM283.867 18.432C284.454 18.432 284.912 18.2347 285.243 17.84C285.574 17.4453 285.739 16.944 285.739 16.336C285.739 15.728 285.579 15.232 285.259 14.848C284.939 14.4533 284.475 14.256 283.867 14.256C283.27 14.256 282.806 14.4533 282.475 14.848C282.144 15.2427 281.979 15.7387 281.979 16.336C281.979 16.624 282.022 16.896 282.107 17.152C282.192 17.408 282.315 17.632 282.475 17.824C282.635 18.016 282.832 18.1653 283.067 18.272C283.302 18.3787 283.568 18.432 283.867 18.432ZM300.23 19.728L301.782 17.408C300.929 17.0027 300.502 16.2827 300.502 15.248C300.502 14.4053 300.774 13.7707 301.318 13.344C301.873 12.9067 302.732 12.688 303.894 12.688H307.062V20H305.078V17.76H303.83L302.39 20H300.23V19.728ZM305.078 16.352V14.224H304.022C303.51 14.224 303.132 14.2987 302.886 14.448C302.641 14.5867 302.518 14.8587 302.518 15.264C302.518 15.6693 302.625 15.952 302.838 16.112C303.062 16.272 303.441 16.352 303.974 16.352H305.078ZM19.352 39.112C18.7653 39.112 18.2373 39.0213 17.768 38.84C17.2987 38.6587 16.8933 38.408 16.552 38.088C16.2213 37.7573 15.9653 37.3627 15.784 36.904C15.6027 36.4453 15.512 35.9333 15.512 35.368C15.512 34.7707 15.608 34.2373 15.8 33.768C16.0027 33.288 16.2747 32.888 16.616 32.568C16.9573 32.2373 17.3627 31.9867 17.832 31.816C18.3013 31.6453 18.808 31.56 19.352 31.56C19.9707 31.56 20.5307 31.6667 21.032 31.88C21.544 32.0933 21.944 32.36 22.232 32.68L21.208 34.024C20.9947 33.7893 20.744 33.6027 20.456 33.464C20.1787 33.3253 19.864 33.256 19.512 33.256C18.9147 33.256 18.44 33.448 18.088 33.832C17.7467 34.216 17.576 34.7067 17.576 35.304C17.576 35.9227 17.752 36.4347 18.104 36.84C18.4667 37.2347 18.952 37.432 19.56 37.432C19.912 37.432 20.2267 37.3627 20.504 37.224C20.7813 37.0747 21.0267 36.8827 21.24 36.648L22.408 37.8C22.088 38.216 21.6613 38.5413 21.128 38.776C20.6053 39 20.0133 39.112 19.352 39.112ZM27.7923 36.344C27.5789 36.44 27.3283 36.52 27.0403 36.584C26.7629 36.6373 26.4483 36.664 26.0963 36.664C25.6483 36.664 25.2429 36.6107 24.8803 36.504C24.5283 36.3973 24.2243 36.2267 23.9683 35.992C23.7123 35.7573 23.5149 35.4533 23.3763 35.08C23.2483 34.7067 23.1842 34.2533 23.1842 33.72V31.688H25.1683V33.64C25.1683 34.056 25.2643 34.376 25.4563 34.6C25.6483 34.8133 26.0323 34.92 26.6083 34.92C27.0456 34.92 27.4403 34.8667 27.7923 34.76V31.688H29.7763V39H27.7923V36.344ZM31.569 31.688H33.553V35.896L36.945 31.688H38.497V39H36.513V34.552L32.929 39H31.569V31.688ZM42.0615 33.432H39.7095V31.688H46.3815V33.432H44.0295V39H42.0615V33.432ZM50.295 39.112C49.8577 39.112 49.431 39.0213 49.015 38.84C48.6097 38.6587 48.247 38.4027 47.927 38.072C47.6177 37.7413 47.367 37.3467 47.175 36.888C46.983 36.4187 46.887 35.9013 46.887 35.336C46.887 34.7707 46.9777 34.2587 47.159 33.8C47.351 33.3307 47.6017 32.9307 47.911 32.6C48.231 32.2693 48.5937 32.0133 48.999 31.832C49.415 31.6507 49.847 31.56 50.295 31.56C50.839 31.56 51.319 31.6667 51.735 31.88C52.1617 32.0933 52.4977 32.3547 52.743 32.664V31.688H54.615V39H52.743V38.008C52.4763 38.3387 52.1297 38.6053 51.703 38.808C51.2763 39.0107 50.807 39.112 50.295 39.112ZM50.823 37.416C51.367 37.416 51.799 37.2293 52.119 36.856C52.4497 36.472 52.6203 35.976 52.631 35.368V35.24C52.631 34.6747 52.4657 34.2107 52.135 33.848C51.8043 33.4853 51.367 33.304 50.823 33.304C50.5777 33.304 50.343 33.3467 50.119 33.432C49.895 33.5173 49.6977 33.6453 49.527 33.816C49.3563 33.9867 49.223 34.2 49.127 34.456C49.031 34.712 48.983 35.0053 48.983 35.336C48.983 35.976 49.1537 36.4827 49.495 36.856C49.847 37.2293 50.2897 37.416 50.823 37.416ZM56.5065 31.688H58.4905V34.28H59.4985C59.6052 33.8533 59.7758 33.4747 60.0105 33.144C60.2452 32.8027 60.5225 32.5147 60.8425 32.28C61.1732 32.0453 61.5358 31.8693 61.9305 31.752C62.3252 31.624 62.7358 31.56 63.1625 31.56C63.7278 31.56 64.2452 31.6507 64.7145 31.832C65.1838 32.0027 65.5892 32.2533 65.9305 32.584C66.2718 32.904 66.5385 33.2987 66.7305 33.768C66.9225 34.2267 67.0185 34.7493 67.0185 35.336C67.0185 35.944 66.9118 36.4827 66.6985 36.952C66.4958 37.4213 66.2132 37.816 65.8505 38.136C65.4985 38.456 65.0878 38.7013 64.6185 38.872C64.1492 39.032 63.6585 39.112 63.1465 39.112C62.6452 39.112 62.1812 39.0373 61.7545 38.888C61.3278 38.7387 60.9492 38.5307 60.6185 38.264C60.2985 37.9867 60.0318 37.6507 59.8185 37.256C59.6158 36.8613 59.4825 36.4187 59.4185 35.928H58.4905V39H56.5065V31.688ZM63.1625 37.384C63.7385 37.384 64.1758 37.192 64.4745 36.808C64.7838 36.424 64.9385 35.9387 64.9385 35.352C64.9385 34.744 64.7785 34.248 64.4585 33.864C64.1492 33.48 63.7118 33.288 63.1465 33.288C62.5812 33.288 62.1385 33.48 61.8185 33.864C61.5092 34.2373 61.3545 34.712 61.3545 35.288C61.3545 35.896 61.5145 36.3973 61.8345 36.792C62.1652 37.1867 62.6078 37.384 63.1625 37.384ZM68.8508 39.08C68.5308 39.0267 68.2854 38.904 68.1148 38.712C67.9548 38.5093 67.8748 38.2693 67.8748 37.992C67.8748 37.64 67.9868 37.3627 68.2108 37.16C68.4454 36.9467 68.7228 36.84 69.0428 36.84C69.3841 36.84 69.6774 36.952 69.9228 37.176C70.1788 37.4 70.3068 37.72 70.3068 38.136C70.3068 38.4133 70.2321 38.7227 70.0828 39.064C69.9334 39.4053 69.7041 39.848 69.3948 40.392L68.7548 41.56H67.4748L68.8508 39.08ZM89.5423 36.344C89.3289 36.44 89.0783 36.52 88.7903 36.584C88.5129 36.6373 88.1983 36.664 87.8463 36.664C87.3983 36.664 86.9929 36.6107 86.6303 36.504C86.2783 36.3973 85.9743 36.2267 85.7183 35.992C85.4623 35.7573 85.2649 35.4533 85.1263 35.08C84.9983 34.7067 84.9342 34.2533 84.9342 33.72V31.688H86.9183V33.64C86.9183 34.056 87.0143 34.376 87.2063 34.6C87.3983 34.8133 87.7823 34.92 88.3583 34.92C88.7956 34.92 89.1903 34.8667 89.5423 34.76V31.688H91.5263V39H89.5423V36.344ZM94.999 33.432H92.647V31.688H99.319V33.432H96.967V39H94.999V33.432ZM103.777 39.112C103.201 39.112 102.667 39.0213 102.177 38.84C101.697 38.6587 101.281 38.4027 100.929 38.072C100.587 37.7307 100.315 37.3307 100.113 36.872C99.9205 36.4133 99.8245 35.9013 99.8245 35.336C99.8245 34.7707 99.9205 34.2587 100.113 33.8C100.315 33.3307 100.593 32.9307 100.945 32.6C101.297 32.2693 101.713 32.0133 102.193 31.832C102.683 31.6507 103.211 31.56 103.777 31.56C104.353 31.56 104.881 31.6507 105.361 31.832C105.851 32.0133 106.273 32.2747 106.625 32.616C106.977 32.9467 107.249 33.3467 107.441 33.816C107.633 34.2747 107.729 34.7813 107.729 35.336C107.729 35.912 107.627 36.4347 107.425 36.904C107.222 37.3627 106.945 37.7573 106.593 38.088C106.241 38.408 105.825 38.6587 105.345 38.84C104.865 39.0213 104.342 39.112 103.777 39.112ZM103.777 37.432C104.363 37.432 104.822 37.2347 105.153 36.84C105.483 36.4453 105.649 35.944 105.649 35.336C105.649 34.728 105.489 34.232 105.169 33.848C104.849 33.4533 104.385 33.256 103.777 33.256C103.179 33.256 102.715 33.4533 102.385 33.848C102.054 34.2427 101.889 34.7387 101.889 35.336C101.889 35.624 101.931 35.896 102.017 36.152C102.102 36.408 102.225 36.632 102.385 36.824C102.545 37.016 102.742 37.1653 102.977 37.272C103.211 37.3787 103.478 37.432 103.777 37.432ZM121.534 37.256H122.414C122.691 36.68 122.899 36.04 123.038 35.336C123.176 34.6213 123.246 33.7787 123.246 32.808V31.688H128.942V37.256H130.062V40.632H128.446V39H123.166V40.632H121.534V37.256ZM125.022 33.48C125.022 34.9627 124.803 36.2213 124.366 37.256H126.958V33.432H125.022V33.48ZM131.888 42.6L133.12 39.08L130.128 32.056V31.688H132.112L134.048 36.472L135.744 31.688H137.536L137.52 32.056L133.68 42.84H131.888V42.6ZM147.193 31.688H149.177V39H138.585V31.688H140.569V37.256H142.905V31.688H144.873V37.256H147.193V31.688ZM154.605 39.112C154.018 39.112 153.48 39.0213 152.989 38.84C152.509 38.6587 152.093 38.408 151.741 38.088C151.389 37.7573 151.117 37.368 150.925 36.92C150.733 36.4613 150.637 35.9547 150.637 35.4C150.637 34.8133 150.738 34.2853 150.941 33.816C151.144 33.336 151.421 32.9307 151.773 32.6C152.125 32.2693 152.536 32.0133 153.005 31.832C153.474 31.6507 153.976 31.56 154.509 31.56C155.085 31.56 155.597 31.6613 156.045 31.864C156.504 32.056 156.888 32.328 157.197 32.68C157.506 33.0213 157.741 33.4267 157.901 33.896C158.072 34.3547 158.157 34.8507 158.157 35.384V35.8H152.557C152.653 36.3653 152.893 36.7973 153.277 37.096C153.672 37.3947 154.168 37.544 154.765 37.544C155.192 37.544 155.586 37.4693 155.949 37.32C156.322 37.16 156.632 36.9413 156.877 36.664L157.981 37.672C157.608 38.1413 157.128 38.4987 156.541 38.744C155.954 38.9893 155.309 39.112 154.605 39.112ZM154.429 33.16C153.96 33.16 153.565 33.288 153.245 33.544C152.936 33.7893 152.722 34.1413 152.605 34.6H156.253C156.189 34.1947 155.997 33.8533 155.677 33.576C155.357 33.2987 154.941 33.16 154.429 33.16ZM159.616 31.688H163.568C164.325 31.688 164.896 31.8533 165.28 32.184C165.664 32.504 165.856 32.9253 165.856 33.448C165.856 33.8427 165.76 34.168 165.568 34.424C165.376 34.68 165.125 34.8613 164.816 34.968C165.339 35.0427 165.765 35.224 166.096 35.512C166.427 35.8 166.592 36.232 166.592 36.808C166.592 37.512 166.331 38.056 165.808 38.44C165.296 38.8133 164.544 39 163.552 39H159.616V31.688ZM161.6 35.704V37.544H163.12C163.621 37.544 163.979 37.4693 164.192 37.32C164.405 37.16 164.512 36.9253 164.512 36.616C164.512 36.296 164.4 36.0667 164.176 35.928C163.952 35.7787 163.616 35.704 163.168 35.704H161.6ZM161.6 33.144V34.552H162.976C163.659 34.552 164 34.312 164 33.832C164 33.3733 163.653 33.144 162.96 33.144H161.6ZM172.859 36.12H169.819V39H167.835V31.688H169.819V34.376H172.859V31.688H174.843V39H172.859V36.12ZM179.813 33.8C180.848 33.8 181.632 34.0133 182.165 34.44C182.709 34.8667 182.981 35.512 182.981 36.376C182.981 37.24 182.699 37.896 182.133 38.344C181.579 38.7813 180.752 39 179.653 39H176.725V31.688H178.709V33.8H179.813ZM183.685 31.688H185.669V39H183.685V31.688ZM179.445 37.448C179.925 37.448 180.293 37.3787 180.549 37.24C180.816 37.0907 180.949 36.8027 180.949 36.376C180.949 35.9813 180.827 35.7093 180.581 35.56C180.347 35.4107 179.989 35.336 179.509 35.336H178.709V37.448H179.445ZM191.089 39.112C190.503 39.112 189.964 39.0213 189.473 38.84C188.993 38.6587 188.577 38.408 188.225 38.088C187.873 37.7573 187.601 37.368 187.409 36.92C187.217 36.4613 187.121 35.9547 187.121 35.4C187.121 34.8133 187.223 34.2853 187.425 33.816C187.628 33.336 187.905 32.9307 188.257 32.6C188.609 32.2693 189.02 32.0133 189.489 31.832C189.959 31.6507 190.46 31.56 190.993 31.56C191.569 31.56 192.081 31.6613 192.529 31.864C192.988 32.056 193.372 32.328 193.681 32.68C193.991 33.0213 194.225 33.4267 194.385 33.896C194.556 34.3547 194.641 34.8507 194.641 35.384V35.8H189.041C189.137 36.3653 189.377 36.7973 189.761 37.096C190.156 37.3947 190.652 37.544 191.249 37.544C191.676 37.544 192.071 37.4693 192.433 37.32C192.807 37.16 193.116 36.9413 193.361 36.664L194.465 37.672C194.092 38.1413 193.612 38.4987 193.025 38.744C192.439 38.9893 191.793 39.112 191.089 39.112ZM190.913 33.16C190.444 33.16 190.049 33.288 189.729 33.544C189.42 33.7893 189.207 34.1413 189.089 34.6H192.737C192.673 34.1947 192.481 33.8533 192.161 33.576C191.841 33.2987 191.425 33.16 190.913 33.16ZM213.511 36.344C213.298 36.44 213.047 36.52 212.759 36.584C212.482 36.6373 212.167 36.664 211.815 36.664C211.367 36.664 210.962 36.6107 210.599 36.504C210.247 36.3973 209.943 36.2267 209.687 35.992C209.431 35.7573 209.234 35.4533 209.095 35.08C208.967 34.7067 208.903 34.2533 208.903 33.72V31.688H210.887V33.64C210.887 34.056 210.983 34.376 211.175 34.6C211.367 34.8133 211.751 34.92 212.327 34.92C212.764 34.92 213.159 34.8667 213.511 34.76V31.688H215.495V39H213.511V36.344ZM220.824 39.112C220.237 39.112 219.698 39.0213 219.208 38.84C218.728 38.6587 218.312 38.408 217.96 38.088C217.608 37.7573 217.336 37.368 217.144 36.92C216.952 36.4613 216.856 35.9547 216.856 35.4C216.856 34.8133 216.957 34.2853 217.16 33.816C217.362 33.336 217.64 32.9307 217.992 32.6C218.344 32.2693 218.754 32.0133 219.224 31.832C219.693 31.6507 220.194 31.56 220.728 31.56C221.304 31.56 221.816 31.6613 222.264 31.864C222.722 32.056 223.106 32.328 223.416 32.68C223.725 33.0213 223.96 33.4267 224.12 33.896C224.29 34.3547 224.376 34.8507 224.376 35.384V35.8H218.776C218.872 36.3653 219.112 36.7973 219.496 37.096C219.89 37.3947 220.386 37.544 220.984 37.544C221.41 37.544 221.805 37.4693 222.168 37.32C222.541 37.16 222.85 36.9413 223.096 36.664L224.2 37.672C223.826 38.1413 223.346 38.4987 222.76 38.744C222.173 38.9893 221.528 39.112 220.824 39.112ZM220.648 33.16C220.178 33.16 219.784 33.288 219.464 33.544C219.154 33.7893 218.941 34.1413 218.824 34.6H222.472C222.408 34.1947 222.216 33.8533 221.896 33.576C221.576 33.2987 221.16 33.16 220.648 33.16ZM225.517 39.16C225.399 39.16 225.292 39.1547 225.197 39.144C225.111 39.1333 225.037 39.1227 224.973 39.112V37.208C225.079 37.2293 225.165 37.24 225.229 37.24C225.41 37.24 225.565 37.176 225.693 37.048C225.821 36.9093 225.922 36.6907 225.997 36.392C226.082 36.0827 226.141 35.6827 226.173 35.192C226.215 34.7013 226.237 34.104 226.237 33.4V31.688H231.789V39H229.821V33.432H228.061V34.296C228.061 35.2133 228.002 35.9813 227.885 36.6C227.778 37.2187 227.613 37.72 227.389 38.104C227.175 38.4773 226.909 38.7493 226.589 38.92C226.279 39.08 225.922 39.16 225.517 39.16ZM237.214 39.112C236.638 39.112 236.105 39.0213 235.614 38.84C235.134 38.6587 234.718 38.4027 234.366 38.072C234.025 37.7307 233.753 37.3307 233.55 36.872C233.358 36.4133 233.262 35.9013 233.262 35.336C233.262 34.7707 233.358 34.2587 233.55 33.8C233.753 33.3307 234.03 32.9307 234.382 32.6C234.734 32.2693 235.15 32.0133 235.63 31.832C236.121 31.6507 236.649 31.56 237.214 31.56C237.79 31.56 238.318 31.6507 238.798 31.832C239.289 32.0133 239.71 32.2747 240.062 32.616C240.414 32.9467 240.686 33.3467 240.878 33.816C241.07 34.2747 241.166 34.7813 241.166 35.336C241.166 35.912 241.065 36.4347 240.862 36.904C240.659 37.3627 240.382 37.7573 240.03 38.088C239.678 38.408 239.262 38.6587 238.782 38.84C238.302 39.0213 237.779 39.112 237.214 39.112ZM237.214 37.432C237.801 37.432 238.259 37.2347 238.59 36.84C238.921 36.4453 239.086 35.944 239.086 35.336C239.086 34.728 238.926 34.232 238.606 33.848C238.286 33.4533 237.822 33.256 237.214 33.256C236.617 33.256 236.153 33.4533 235.822 33.848C235.491 34.2427 235.326 34.7387 235.326 35.336C235.326 35.624 235.369 35.896 235.454 36.152C235.539 36.408 235.662 36.632 235.822 36.824C235.982 37.016 236.179 37.1653 236.414 37.272C236.649 37.3787 236.915 37.432 237.214 37.432ZM242.6 31.688H246.552C247.31 31.688 247.88 31.8533 248.264 32.184C248.648 32.504 248.84 32.9253 248.84 33.448C248.84 33.8427 248.744 34.168 248.552 34.424C248.36 34.68 248.11 34.8613 247.8 34.968C248.323 35.0427 248.75 35.224 249.08 35.512C249.411 35.8 249.576 36.232 249.576 36.808C249.576 37.512 249.315 38.056 248.792 38.44C248.28 38.8133 247.528 39 246.536 39H242.6V31.688ZM244.584 35.704V37.544H246.104C246.606 37.544 246.963 37.4693 247.176 37.32C247.39 37.16 247.496 36.9253 247.496 36.616C247.496 36.296 247.384 36.0667 247.16 35.928C246.936 35.7787 246.6 35.704 246.152 35.704H244.584ZM244.584 33.144V34.552H245.96C246.643 34.552 246.984 34.312 246.984 33.832C246.984 33.3733 246.638 33.144 245.944 33.144H244.584ZM254.355 39.112C253.768 39.112 253.23 39.0213 252.739 38.84C252.259 38.6587 251.843 38.408 251.491 38.088C251.139 37.7573 250.867 37.368 250.675 36.92C250.483 36.4613 250.387 35.9547 250.387 35.4C250.387 34.8133 250.488 34.2853 250.691 33.816C250.894 33.336 251.171 32.9307 251.523 32.6C251.875 32.2693 252.286 32.0133 252.755 31.832C253.224 31.6507 253.726 31.56 254.259 31.56C254.835 31.56 255.347 31.6613 255.795 31.864C256.254 32.056 256.638 32.328 256.947 32.68C257.256 33.0213 257.491 33.4267 257.651 33.896C257.822 34.3547 257.907 34.8507 257.907 35.384V35.8H252.307C252.403 36.3653 252.643 36.7973 253.027 37.096C253.422 37.3947 253.918 37.544 254.515 37.544C254.942 37.544 255.336 37.4693 255.699 37.32C256.072 37.16 256.382 36.9413 256.627 36.664L257.731 37.672C257.358 38.1413 256.878 38.4987 256.291 38.744C255.704 38.9893 255.059 39.112 254.355 39.112ZM254.179 33.16C253.71 33.16 253.315 33.288 252.995 33.544C252.686 33.7893 252.472 34.1413 252.355 34.6H256.003C255.939 34.1947 255.747 33.8533 255.427 33.576C255.107 33.2987 254.691 33.16 254.179 33.16ZM263.558 36.344C263.345 36.44 263.094 36.52 262.806 36.584C262.529 36.6373 262.214 36.664 261.862 36.664C261.414 36.664 261.009 36.6107 260.646 36.504C260.294 36.3973 259.99 36.2267 259.734 35.992C259.478 35.7573 259.281 35.4533 259.142 35.08C259.014 34.7067 258.95 34.2533 258.95 33.72V31.688H260.934V33.64C260.934 34.056 261.03 34.376 261.222 34.6C261.414 34.8133 261.798 34.92 262.374 34.92C262.811 34.92 263.206 34.8667 263.558 34.76V31.688H265.542V39H263.558V36.344ZM270.871 39.112C270.284 39.112 269.745 39.0213 269.255 38.84C268.775 38.6587 268.359 38.408 268.007 38.088C267.655 37.7573 267.383 37.368 267.191 36.92C266.999 36.4613 266.903 35.9547 266.903 35.4C266.903 34.8133 267.004 34.2853 267.207 33.816C267.409 33.336 267.687 32.9307 268.039 32.6C268.391 32.2693 268.801 32.0133 269.271 31.832C269.74 31.6507 270.241 31.56 270.775 31.56C271.351 31.56 271.863 31.6613 272.311 31.864C272.769 32.056 273.153 32.328 273.463 32.68C273.772 33.0213 274.007 33.4267 274.167 33.896C274.337 34.3547 274.423 34.8507 274.423 35.384V35.8H268.823C268.919 36.3653 269.159 36.7973 269.543 37.096C269.937 37.3947 270.433 37.544 271.031 37.544C271.457 37.544 271.852 37.4693 272.215 37.32C272.588 37.16 272.897 36.9413 273.143 36.664L274.247 37.672C273.873 38.1413 273.393 38.4987 272.807 38.744C272.22 38.9893 271.575 39.112 270.871 39.112ZM270.695 33.16C270.225 33.16 269.831 33.288 269.511 33.544C269.201 33.7893 268.988 34.1413 268.871 34.6H272.519C272.455 34.1947 272.263 33.8533 271.943 33.576C271.623 33.2987 271.207 33.16 270.695 33.16ZM279.29 39.112C278.703 39.112 278.175 39.0213 277.706 38.84C277.236 38.6587 276.831 38.408 276.49 38.088C276.159 37.7573 275.903 37.3627 275.722 36.904C275.54 36.4453 275.45 35.9333 275.45 35.368C275.45 34.7707 275.546 34.2373 275.738 33.768C275.94 33.288 276.212 32.888 276.554 32.568C276.895 32.2373 277.3 31.9867 277.77 31.816C278.239 31.6453 278.746 31.56 279.29 31.56C279.908 31.56 280.468 31.6667 280.97 31.88C281.482 32.0933 281.882 32.36 282.17 32.68L281.146 34.024C280.932 33.7893 280.682 33.6027 280.394 33.464C280.116 33.3253 279.802 33.256 279.45 33.256C278.852 33.256 278.378 33.448 278.026 33.832C277.684 34.216 277.514 34.7067 277.514 35.304C277.514 35.9227 277.69 36.4347 278.042 36.84C278.404 37.2347 278.89 37.432 279.498 37.432C279.85 37.432 280.164 37.3627 280.442 37.224C280.719 37.0747 280.964 36.8827 281.178 36.648L282.346 37.8C282.026 38.216 281.599 38.5413 281.066 38.776C280.543 39 279.951 39.112 279.29 39.112ZM283.538 31.688H285.522V34.376H286.29L288.05 31.688H290.114V31.96L287.938 35.016L290.658 38.728V39H288.45L286.242 35.88H285.522V39H283.538V31.688ZM291.585 31.688H293.569V35.896L296.961 31.688H298.513V39H296.529V34.552L292.945 39H291.585V31.688ZM303.933 39.112C303.346 39.112 302.808 39.0213 302.317 38.84C301.837 38.6587 301.421 38.408 301.069 38.088C300.717 37.7573 300.445 37.368 300.253 36.92C300.061 36.4613 299.965 35.9547 299.965 35.4C299.965 34.8133 300.066 34.2853 300.269 33.816C300.472 33.336 300.749 32.9307 301.101 32.6C301.453 32.2693 301.864 32.0133 302.333 31.832C302.802 31.6507 303.304 31.56 303.837 31.56C304.413 31.56 304.925 31.6613 305.373 31.864C305.832 32.056 306.216 32.328 306.525 32.68C306.834 33.0213 307.069 33.4267 307.229 33.896C307.4 34.3547 307.485 34.8507 307.485 35.384V35.8H301.885C301.981 36.3653 302.221 36.7973 302.605 37.096C303 37.3947 303.496 37.544 304.093 37.544C304.52 37.544 304.914 37.4693 305.277 37.32C305.65 37.16 305.96 36.9413 306.205 36.664L307.309 37.672C306.936 38.1413 306.456 38.4987 305.869 38.744C305.282 38.9893 304.637 39.112 303.933 39.112ZM303.757 33.16C303.288 33.16 302.893 33.288 302.573 33.544C302.264 33.7893 302.05 34.1413 301.933 34.6H305.581C305.517 34.1947 305.325 33.8533 305.005 33.576C304.685 33.2987 304.269 33.16 303.757 33.16ZM15.944 50.688H17.928V53.376H18.696L20.456 50.688H22.52V50.96L20.344 54.016L23.064 57.728V58H20.856L18.648 54.88H17.928V58H15.944V50.688ZM26.6856 58.112C26.2483 58.112 25.8216 58.0213 25.4056 57.84C25.0003 57.6587 24.6376 57.4027 24.3176 57.072C24.0083 56.7413 23.7576 56.3467 23.5656 55.888C23.3736 55.4187 23.2776 54.9013 23.2776 54.336C23.2776 53.7707 23.3683 53.2587 23.5496 52.8C23.7416 52.3307 23.9923 51.9307 24.3016 51.6C24.6216 51.2693 24.9843 51.0133 25.3896 50.832C25.8056 50.6507 26.2376 50.56 26.6856 50.56C27.2296 50.56 27.7096 50.6667 28.1256 50.88C28.5523 51.0933 28.8883 51.3547 29.1336 51.664V50.688H31.0056V58H29.1336V57.008C28.867 57.3387 28.5203 57.6053 28.0936 57.808C27.667 58.0107 27.1976 58.112 26.6856 58.112ZM27.2136 56.416C27.7576 56.416 28.1896 56.2293 28.5096 55.856C28.8403 55.472 29.011 54.976 29.0216 54.368V54.24C29.0216 53.6747 28.8563 53.2107 28.5256 52.848C28.195 52.4853 27.7576 52.304 27.2136 52.304C26.9683 52.304 26.7336 52.3467 26.5096 52.432C26.2856 52.5173 26.0883 52.6453 25.9176 52.816C25.747 52.9867 25.6136 53.2 25.5176 53.456C25.4216 53.712 25.3736 54.0053 25.3736 54.336C25.3736 54.976 25.5443 55.4827 25.8856 55.856C26.2376 56.2293 26.6803 56.416 27.2136 56.416ZM37.0891 55.344C36.8758 55.44 36.6251 55.52 36.3371 55.584C36.0598 55.6373 35.7451 55.664 35.3931 55.664C34.9451 55.664 34.5398 55.6107 34.1771 55.504C33.8251 55.3973 33.5211 55.2267 33.2651 54.992C33.0091 54.7573 32.8118 54.4533 32.6731 54.08C32.5451 53.7067 32.4811 53.2533 32.4811 52.72V50.688H34.4651V52.64C34.4651 53.056 34.5611 53.376 34.7531 53.6C34.9451 53.8133 35.3291 53.92 35.9051 53.92C36.3425 53.92 36.7371 53.8667 37.0891 53.76V50.688H39.0731V58H37.0891V55.344ZM44.4019 58.112C43.8152 58.112 43.2765 58.0213 42.7859 57.84C42.3059 57.6587 41.8899 57.408 41.5379 57.088C41.1859 56.7573 40.9139 56.368 40.7219 55.92C40.5299 55.4613 40.4339 54.9547 40.4339 54.4C40.4339 53.8133 40.5352 53.2853 40.7379 52.816C40.9405 52.336 41.2179 51.9307 41.5699 51.6C41.9219 51.2693 42.3325 51.0133 42.8019 50.832C43.2712 50.6507 43.7725 50.56 44.3059 50.56C44.8819 50.56 45.3939 50.6613 45.8419 50.864C46.3005 51.056 46.6845 51.328 46.9939 51.68C47.3032 52.0213 47.5379 52.4267 47.6979 52.896C47.8685 53.3547 47.9539 53.8507 47.9539 54.384V54.8H42.3539C42.4499 55.3653 42.6899 55.7973 43.0739 56.096C43.4685 56.3947 43.9645 56.544 44.5619 56.544C44.9885 56.544 45.3832 56.4693 45.7459 56.32C46.1192 56.16 46.4285 55.9413 46.6739 55.664L47.7779 56.672C47.4045 57.1413 46.9245 57.4987 46.3379 57.744C45.7512 57.9893 45.1059 58.112 44.4019 58.112ZM44.2259 52.16C43.7565 52.16 43.3619 52.288 43.0419 52.544C42.7325 52.7893 42.5192 53.1413 42.4019 53.6H46.0499C45.9859 53.1947 45.7939 52.8533 45.4739 52.576C45.1539 52.2987 44.7379 52.16 44.2259 52.16ZM52.8208 58.112C52.2341 58.112 51.7061 58.0213 51.2368 57.84C50.7674 57.6587 50.3621 57.408 50.0208 57.088C49.6901 56.7573 49.4341 56.3627 49.2528 55.904C49.0714 55.4453 48.9808 54.9333 48.9808 54.368C48.9808 53.7707 49.0768 53.2373 49.2688 52.768C49.4714 52.288 49.7434 51.888 50.0848 51.568C50.4261 51.2373 50.8314 50.9867 51.3008 50.816C51.7701 50.6453 52.2768 50.56 52.8208 50.56C53.4394 50.56 53.9994 50.6667 54.5008 50.88C55.0128 51.0933 55.4128 51.36 55.7008 51.68L54.6768 53.024C54.4634 52.7893 54.2128 52.6027 53.9248 52.464C53.6474 52.3253 53.3328 52.256 52.9808 52.256C52.3834 52.256 51.9088 52.448 51.5568 52.832C51.2154 53.216 51.0448 53.7067 51.0448 54.304C51.0448 54.9227 51.2208 55.4347 51.5728 55.84C51.9354 56.2347 52.4208 56.432 53.0288 56.432C53.3808 56.432 53.6954 56.3627 53.9728 56.224C54.2501 56.0747 54.4954 55.8827 54.7088 55.648L55.8768 56.8C55.5568 57.216 55.1301 57.5413 54.5968 57.776C54.0741 58 53.4821 58.112 52.8208 58.112ZM58.749 52.432H56.397V50.688H63.069V52.432H60.717V58H58.749V52.432ZM64.2878 50.688H68.2398C68.9971 50.688 69.5678 50.8533 69.9518 51.184C70.3358 51.504 70.5278 51.9253 70.5278 52.448C70.5278 52.8427 70.4318 53.168 70.2398 53.424C70.0478 53.68 69.7971 53.8613 69.4878 53.968C70.0104 54.0427 70.4371 54.224 70.7678 54.512C71.0984 54.8 71.2638 55.232 71.2638 55.808C71.2638 56.512 71.0024 57.056 70.4798 57.44C69.9678 57.8133 69.2158 58 68.2238 58H64.2878V50.688ZM66.2718 54.704V56.544H67.7918C68.2931 56.544 68.6504 56.4693 68.8638 56.32C69.0771 56.16 69.1838 55.9253 69.1838 55.616C69.1838 55.296 69.0718 55.0667 68.8478 54.928C68.6238 54.7787 68.2878 54.704 67.8398 54.704H66.2718ZM66.2718 52.144V53.552H67.6478C68.3304 53.552 68.6718 53.312 68.6718 52.832C68.6718 52.3733 68.3251 52.144 67.6318 52.144H66.2718ZM75.4825 58.112C75.0452 58.112 74.6185 58.0213 74.2025 57.84C73.7972 57.6587 73.4345 57.4027 73.1145 57.072C72.8052 56.7413 72.5545 56.3467 72.3625 55.888C72.1705 55.4187 72.0745 54.9013 72.0745 54.336C72.0745 53.7707 72.1652 53.2587 72.3465 52.8C72.5385 52.3307 72.7892 51.9307 73.0985 51.6C73.4185 51.2693 73.7812 51.0133 74.1865 50.832C74.6025 50.6507 75.0345 50.56 75.4825 50.56C76.0265 50.56 76.5065 50.6667 76.9225 50.88C77.3492 51.0933 77.6852 51.3547 77.9305 51.664V50.688H79.8025V58H77.9305V57.008C77.6638 57.3387 77.3172 57.6053 76.8905 57.808C76.4638 58.0107 75.9945 58.112 75.4825 58.112ZM76.0105 56.416C76.5545 56.416 76.9865 56.2293 77.3065 55.856C77.6372 55.472 77.8078 54.976 77.8185 54.368V54.24C77.8185 53.6747 77.6532 53.2107 77.3225 52.848C76.9918 52.4853 76.5545 52.304 76.0105 52.304C75.7652 52.304 75.5305 52.3467 75.3065 52.432C75.0825 52.5173 74.8852 52.6453 74.7145 52.816C74.5438 52.9867 74.4105 53.2 74.3145 53.456C74.2185 53.712 74.1705 54.0053 74.1705 54.336C74.1705 54.976 74.3412 55.4827 74.6825 55.856C75.0345 56.2293 75.4772 56.416 76.0105 56.416ZM90.9149 55.12H87.8749V58H85.8909V50.688H87.8749V53.376H90.9149V50.688H92.8989V58H90.9149V55.12ZM98.3175 58.112C97.7308 58.112 97.1922 58.0213 96.7015 57.84C96.2215 57.6587 95.8055 57.408 95.4535 57.088C95.1015 56.7573 94.8295 56.368 94.6375 55.92C94.4455 55.4613 94.3495 54.9547 94.3495 54.4C94.3495 53.8133 94.4508 53.2853 94.6535 52.816C94.8562 52.336 95.1335 51.9307 95.4855 51.6C95.8375 51.2693 96.2482 51.0133 96.7175 50.832C97.1868 50.6507 97.6882 50.56 98.2215 50.56C98.7975 50.56 99.3095 50.6613 99.7575 50.864C100.216 51.056 100.6 51.328 100.91 51.68C101.219 52.0213 101.454 52.4267 101.614 52.896C101.784 53.3547 101.87 53.8507 101.87 54.384V54.8H96.2695C96.3655 55.3653 96.6055 55.7973 96.9895 56.096C97.3842 56.3947 97.8802 56.544 98.4775 56.544C98.9042 56.544 99.2988 56.4693 99.6615 56.32C100.035 56.16 100.344 55.9413 100.59 55.664L101.694 56.672C101.32 57.1413 100.84 57.4987 100.254 57.744C99.6668 57.9893 99.0215 58.112 98.3175 58.112ZM98.1415 52.16C97.6722 52.16 97.2775 52.288 96.9575 52.544C96.6482 52.7893 96.4348 53.1413 96.3175 53.6H99.9655C99.9015 53.1947 99.7095 52.8533 99.3895 52.576C99.0695 52.2987 98.6535 52.16 98.1415 52.16ZM109.925 58.112C109.531 58.112 109.163 58.0693 108.821 57.984C108.491 57.8987 108.192 57.792 107.925 57.664C107.669 57.536 107.445 57.3973 107.253 57.248C107.072 57.0987 106.933 56.96 106.837 56.832L108.101 55.648C108.272 55.8613 108.512 56.048 108.821 56.208C109.131 56.3573 109.488 56.432 109.893 56.432C110.715 56.432 111.125 56.1493 111.125 55.584C111.125 55.3707 111.035 55.1893 110.853 55.04C110.672 54.8907 110.357 54.816 109.909 54.816H108.885V53.424H109.685C110.027 53.424 110.293 53.376 110.485 53.28C110.677 53.1733 110.773 53.0133 110.773 52.8C110.773 52.6187 110.677 52.48 110.485 52.384C110.293 52.2773 110.043 52.224 109.733 52.224C109.445 52.224 109.163 52.288 108.885 52.416C108.619 52.5333 108.389 52.6827 108.197 52.864L107.125 51.744C107.243 51.6053 107.387 51.4667 107.557 51.328C107.739 51.1893 107.947 51.0667 108.181 50.96C108.416 50.8427 108.683 50.7467 108.981 50.672C109.28 50.5973 109.605 50.56 109.957 50.56C110.373 50.56 110.752 50.608 111.093 50.704C111.435 50.8 111.728 50.9333 111.973 51.104C112.219 51.264 112.405 51.4667 112.533 51.712C112.672 51.9467 112.741 52.208 112.741 52.496C112.741 52.8373 112.651 53.136 112.469 53.392C112.288 53.648 112.037 53.8507 111.717 54C112.197 54.1493 112.555 54.3733 112.789 54.672C113.035 54.9707 113.157 55.328 113.157 55.744C113.157 56.0747 113.083 56.384 112.933 56.672C112.784 56.96 112.571 57.2107 112.293 57.424C112.016 57.6373 111.675 57.808 111.269 57.936C110.875 58.0533 110.427 58.112 109.925 58.112ZM117.47 58.112C117.033 58.112 116.606 58.0213 116.19 57.84C115.785 57.6587 115.422 57.4027 115.102 57.072C114.793 56.7413 114.542 56.3467 114.35 55.888C114.158 55.4187 114.062 54.9013 114.062 54.336C114.062 53.7707 114.153 53.2587 114.334 52.8C114.526 52.3307 114.777 51.9307 115.086 51.6C115.406 51.2693 115.769 51.0133 116.174 50.832C116.59 50.6507 117.022 50.56 117.47 50.56C118.014 50.56 118.494 50.6667 118.91 50.88C119.337 51.0933 119.673 51.3547 119.918 51.664V50.688H121.79V58H119.918V57.008C119.651 57.3387 119.305 57.6053 118.878 57.808C118.451 58.0107 117.982 58.112 117.47 58.112ZM117.998 56.416C118.542 56.416 118.974 56.2293 119.294 55.856C119.625 55.472 119.795 54.976 119.806 54.368V54.24C119.806 53.6747 119.641 53.2107 119.31 52.848C118.979 52.4853 118.542 52.304 117.998 52.304C117.753 52.304 117.518 52.3467 117.294 52.432C117.07 52.5173 116.873 52.6453 116.702 52.816C116.531 52.9867 116.398 53.2 116.302 53.456C116.206 53.712 116.158 54.0053 116.158 54.336C116.158 54.976 116.329 55.4827 116.67 55.856C117.022 56.2293 117.465 56.416 117.998 56.416ZM124.402 50.688H126.098L128.034 54.928L129.858 50.688H131.602L132.818 58H130.962L130.258 53.728L128.37 58H127.522L125.618 53.808L124.93 58H123.17L124.402 50.688ZM137.608 58.112C137.021 58.112 136.483 58.0213 135.992 57.84C135.512 57.6587 135.096 57.408 134.744 57.088C134.392 56.7573 134.12 56.368 133.928 55.92C133.736 55.4613 133.64 54.9547 133.64 54.4C133.64 53.8133 133.741 53.2853 133.944 52.816C134.147 52.336 134.424 51.9307 134.776 51.6C135.128 51.2693 135.539 51.0133 136.008 50.832C136.477 50.6507 136.979 50.56 137.512 50.56C138.088 50.56 138.6 50.6613 139.048 50.864C139.507 51.056 139.891 51.328 140.2 51.68C140.509 52.0213 140.744 52.4267 140.904 52.896C141.075 53.3547 141.16 53.8507 141.16 54.384V54.8H135.56C135.656 55.3653 135.896 55.7973 136.28 56.096C136.675 56.3947 137.171 56.544 137.768 56.544C138.195 56.544 138.589 56.4693 138.952 56.32C139.325 56.16 139.635 55.9413 139.88 55.664L140.984 56.672C140.611 57.1413 140.131 57.4987 139.544 57.744C138.957 57.9893 138.312 58.112 137.608 58.112ZM137.432 52.16C136.963 52.16 136.568 52.288 136.248 52.544C135.939 52.7893 135.725 53.1413 135.608 53.6H139.256C139.192 53.1947 139 52.8533 138.68 52.576C138.36 52.2987 137.944 52.16 137.432 52.16ZM147.643 55.12H144.603V58H142.619V50.688H144.603V53.376H147.643V50.688H149.627V58H147.643V55.12ZM151.51 50.688H153.494V54.896L156.886 50.688H158.438V58H156.454V53.552L152.87 58H151.51V50.688ZM162.002 52.432H159.65V50.688H166.322V52.432H163.97V58H162.002V52.432ZM176.762 55.12H173.722V58H171.738V50.688H173.722V53.376H176.762V50.688H178.746V58H176.762V55.12ZM180.628 50.688H182.612V54.896L186.004 50.688H187.556V58H185.572V53.552L181.988 58H180.628V50.688ZM197.158 58.112C196.582 58.112 196.048 58.0213 195.558 57.84C195.078 57.6587 194.662 57.4027 194.31 57.072C193.968 56.7307 193.696 56.3307 193.494 55.872C193.302 55.4133 193.206 54.9013 193.206 54.336C193.206 53.7707 193.302 53.2587 193.494 52.8C193.696 52.3307 193.974 51.9307 194.326 51.6C194.678 51.2693 195.094 51.0133 195.574 50.832C196.064 50.6507 196.592 50.56 197.158 50.56C197.734 50.56 198.262 50.6507 198.742 50.832C199.232 51.0133 199.654 51.2747 200.006 51.616C200.358 51.9467 200.63 52.3467 200.822 52.816C201.014 53.2747 201.11 53.7813 201.11 54.336C201.11 54.912 201.008 55.4347 200.806 55.904C200.603 56.3627 200.326 56.7573 199.974 57.088C199.622 57.408 199.206 57.6587 198.726 57.84C198.246 58.0213 197.723 58.112 197.158 58.112ZM197.158 56.432C197.744 56.432 198.203 56.2347 198.534 55.84C198.864 55.4453 199.03 54.944 199.03 54.336C199.03 53.728 198.87 53.232 198.55 52.848C198.23 52.4533 197.766 52.256 197.158 52.256C196.56 52.256 196.096 52.4533 195.766 52.848C195.435 53.2427 195.27 53.7387 195.27 54.336C195.27 54.624 195.312 54.896 195.398 55.152C195.483 55.408 195.606 55.632 195.766 55.824C195.926 56.016 196.123 56.1653 196.358 56.272C196.592 56.3787 196.859 56.432 197.158 56.432ZM201.54 56.256H202.42C202.697 55.68 202.905 55.04 203.044 54.336C203.182 53.6213 203.252 52.7787 203.252 51.808V50.688H208.948V56.256H210.068V59.632H208.452V58H203.172V59.632H201.54V56.256ZM205.028 52.48C205.028 53.9627 204.809 55.2213 204.372 56.256H206.964V52.432H205.028V52.48ZM211.2 50.688H213.184V54.896L216.576 50.688H218.128V58H216.144V53.552L212.56 58H211.2V50.688ZM225.037 55.12H221.997V58H220.013V50.688H221.997V53.376H225.037V50.688H227.021V58H225.037V55.12ZM233.1 50.688H235.084V54.896L238.476 50.688H240.028V58H238.044V53.552L234.46 58H233.1V50.688ZM246.937 55.12H243.897V58H241.913V50.688H243.897V53.376H246.937V50.688H248.921V58H246.937V55.12ZM252.483 52.432H250.131V50.688H256.803V52.432H254.451V58H252.483V52.432ZM261.277 58.112C260.69 58.112 260.152 58.0213 259.661 57.84C259.181 57.6587 258.765 57.408 258.413 57.088C258.061 56.7573 257.789 56.368 257.597 55.92C257.405 55.4613 257.309 54.9547 257.309 54.4C257.309 53.8133 257.41 53.2853 257.613 52.816C257.816 52.336 258.093 51.9307 258.445 51.6C258.797 51.2693 259.208 51.0133 259.677 50.832C260.146 50.6507 260.648 50.56 261.181 50.56C261.757 50.56 262.269 50.6613 262.717 50.864C263.176 51.056 263.56 51.328 263.869 51.68C264.178 52.0213 264.413 52.4267 264.573 52.896C264.744 53.3547 264.829 53.8507 264.829 54.384V54.8H259.229C259.325 55.3653 259.565 55.7973 259.949 56.096C260.344 56.3947 260.84 56.544 261.437 56.544C261.864 56.544 262.258 56.4693 262.621 56.32C262.994 56.16 263.304 55.9413 263.549 55.664L264.653 56.672C264.28 57.1413 263.8 57.4987 263.213 57.744C262.626 57.9893 261.981 58.112 261.277 58.112ZM261.101 52.16C260.632 52.16 260.237 52.288 259.917 52.544C259.608 52.7893 259.394 53.1413 259.277 53.6H262.925C262.861 53.1947 262.669 52.8533 262.349 52.576C262.029 52.2987 261.613 52.16 261.101 52.16ZM265.97 58.16C265.852 58.16 265.746 58.1547 265.65 58.144C265.564 58.1333 265.49 58.1227 265.426 58.112V56.208C265.532 56.2293 265.618 56.24 265.682 56.24C265.863 56.24 266.018 56.176 266.146 56.048C266.274 55.9093 266.375 55.6907 266.45 55.392C266.535 55.0827 266.594 54.6827 266.626 54.192C266.668 53.7013 266.69 53.104 266.69 52.4V50.688H272.242V58H270.274V52.432H268.514V53.296C268.514 54.2133 268.455 54.9813 268.338 55.6C268.231 56.2187 268.066 56.72 267.842 57.104C267.628 57.4773 267.362 57.7493 267.042 57.92C266.732 58.08 266.375 58.16 265.97 58.16ZM273.907 58.16C273.79 58.16 273.683 58.1547 273.587 58.144C273.502 58.1333 273.427 58.1227 273.363 58.112V56.208C273.47 56.2293 273.555 56.24 273.619 56.24C273.8 56.24 273.955 56.176 274.083 56.048C274.211 55.9093 274.312 55.6907 274.387 55.392C274.472 55.0827 274.531 54.6827 274.563 54.192C274.606 53.7013 274.627 53.104 274.627 52.4V50.688H280.179V58H278.211V52.432H276.451V53.296C276.451 54.2133 276.392 54.9813 276.275 55.6C276.168 56.2187 276.003 56.72 275.779 57.104C275.566 57.4773 275.299 57.7493 274.979 57.92C274.67 58.08 274.312 58.16 273.907 58.16ZM285.621 58.112C285.034 58.112 284.495 58.0213 284.005 57.84C283.525 57.6587 283.109 57.408 282.757 57.088C282.405 56.7573 282.133 56.368 281.941 55.92C281.749 55.4613 281.653 54.9547 281.653 54.4C281.653 53.8133 281.754 53.2853 281.957 52.816C282.159 52.336 282.437 51.9307 282.789 51.6C283.141 51.2693 283.551 51.0133 284.021 50.832C284.49 50.6507 284.991 50.56 285.525 50.56C286.101 50.56 286.613 50.6613 287.061 50.864C287.519 51.056 287.903 51.328 288.213 51.68C288.522 52.0213 288.757 52.4267 288.917 52.896C289.087 53.3547 289.173 53.8507 289.173 54.384V54.8H283.573C283.669 55.3653 283.909 55.7973 284.293 56.096C284.687 56.3947 285.183 56.544 285.781 56.544C286.207 56.544 286.602 56.4693 286.965 56.32C287.338 56.16 287.647 55.9413 287.893 55.664L288.997 56.672C288.623 57.1413 288.143 57.4987 287.557 57.744C286.97 57.9893 286.325 58.112 285.621 58.112ZM285.445 52.16C284.975 52.16 284.581 52.288 284.261 52.544C283.951 52.7893 283.738 53.1413 283.621 53.6H287.269C287.205 53.1947 287.013 52.8533 286.693 52.576C286.373 52.2987 285.957 52.16 285.445 52.16ZM290.632 50.688H292.616V53.376H293.384L295.144 50.688H297.208V50.96L295.032 54.016L297.752 57.728V58H295.544L293.336 54.88H292.616V58H290.632V50.688ZM300.358 52.432H298.006V50.688H304.678V52.432H302.326V58H300.358V52.432ZM305.938 58.16C305.565 58.16 305.277 58.0533 305.074 57.84C304.882 57.616 304.786 57.3493 304.786 57.04C304.786 56.7093 304.882 56.432 305.074 56.208C305.266 55.984 305.554 55.872 305.938 55.872C306.322 55.872 306.616 55.984 306.818 56.208C307.021 56.432 307.122 56.7093 307.122 57.04C307.122 57.3493 307.016 57.616 306.802 57.84C306.6 58.0533 306.312 58.16 305.938 58.16ZM19.288 77.144C18.424 77.144 17.6613 76.9947 17 76.696C16.3493 76.3973 15.8 75.992 15.352 75.48L16.632 74.024C16.8987 74.344 17.24 74.632 17.656 74.888C18.072 75.1333 18.584 75.256 19.192 75.256C19.8213 75.256 20.3387 75.112 20.744 74.824C21.1493 74.536 21.352 74.104 21.352 73.528C21.352 73.2933 21.3093 73.08 21.224 72.888C21.1387 72.6853 21 72.5147 20.808 72.376C20.6267 72.2267 20.392 72.1093 20.104 72.024C19.8267 71.9387 19.4907 71.896 19.096 71.896H18.408V70.248H19.096C19.6187 70.248 20.024 70.1253 20.312 69.88C20.6 69.624 20.744 69.2773 20.744 68.84C20.744 68.3707 20.6 68.0347 20.312 67.832C20.024 67.6293 19.624 67.528 19.112 67.528C18.7387 67.528 18.392 67.6027 18.072 67.752C17.752 67.8907 17.4533 68.12 17.176 68.44L15.928 67.144C16.2693 66.728 16.7227 66.376 17.288 66.088C17.864 65.7893 18.536 65.64 19.304 65.64C19.816 65.64 20.2853 65.7093 20.712 65.848C21.1493 65.976 21.5227 66.168 21.832 66.424C22.1413 66.6693 22.3813 66.968 22.552 67.32C22.7227 67.672 22.808 68.072 22.808 68.52C22.808 69.096 22.6693 69.5867 22.392 69.992C22.1147 70.3867 21.768 70.7013 21.352 70.936C22.024 71.1173 22.552 71.4373 22.936 71.896C23.32 72.3547 23.512 72.9413 23.512 73.656C23.512 74.168 23.416 74.6427 23.224 75.08C23.032 75.5067 22.7547 75.8747 22.392 76.184C22.0293 76.4827 21.5867 76.7173 21.064 76.888C20.5413 77.0587 19.9493 77.144 19.288 77.144ZM30.1086 74.12H27.0686V77H25.0846V69.688H27.0686V72.376H30.1086V69.688H32.0926V77H30.1086V74.12ZM36.9513 77.112C36.5139 77.112 36.0873 77.0213 35.6713 76.84C35.2659 76.6587 34.9033 76.4027 34.5833 76.072C34.2739 75.7413 34.0233 75.3467 33.8313 74.888C33.6393 74.4187 33.5433 73.9013 33.5433 73.336C33.5433 72.7707 33.6339 72.2587 33.8153 71.8C34.0073 71.3307 34.2579 70.9307 34.5673 70.6C34.8873 70.2693 35.2499 70.0133 35.6553 69.832C36.0713 69.6507 36.5033 69.56 36.9513 69.56C37.4953 69.56 37.9753 69.6667 38.3913 69.88C38.8179 70.0933 39.1539 70.3547 39.3993 70.664V69.688H41.2713V77H39.3993V76.008C39.1326 76.3387 38.7859 76.6053 38.3593 76.808C37.9326 77.0107 37.4633 77.112 36.9513 77.112ZM37.4793 75.416C38.0233 75.416 38.4553 75.2293 38.7753 74.856C39.1059 74.472 39.2766 73.976 39.2873 73.368V73.24C39.2873 72.6747 39.1219 72.2107 38.7913 71.848C38.4606 71.4853 38.0233 71.304 37.4793 71.304C37.2339 71.304 36.9993 71.3467 36.7753 71.432C36.5513 71.5173 36.3539 71.6453 36.1833 71.816C36.0126 71.9867 35.8793 72.2 35.7833 72.456C35.6873 72.712 35.6393 73.0053 35.6393 73.336C35.6393 73.976 35.8099 74.4827 36.1513 74.856C36.5033 75.2293 36.9459 75.416 37.4793 75.416ZM48.1868 74.12H45.1468V77H43.1628V69.688H45.1468V72.376H48.1868V69.688H50.1708V77H48.1868V74.12ZM52.0534 69.688H54.0374V73.896L57.4294 69.688H58.9814V77H56.9974V72.552L53.4134 77H52.0534V69.688ZM64.4019 77.112C63.8152 77.112 63.2765 77.0213 62.7859 76.84C62.3059 76.6587 61.8899 76.408 61.5379 76.088C61.1859 75.7573 60.9139 75.368 60.7219 74.92C60.5299 74.4613 60.4339 73.9547 60.4339 73.4C60.4339 72.8133 60.5352 72.2853 60.7379 71.816C60.9405 71.336 61.2179 70.9307 61.5699 70.6C61.9219 70.2693 62.3325 70.0133 62.8019 69.832C63.2712 69.6507 63.7725 69.56 64.3059 69.56C64.8819 69.56 65.3939 69.6613 65.8419 69.864C66.3005 70.056 66.6845 70.328 66.9939 70.68C67.3032 71.0213 67.5379 71.4267 67.6979 71.896C67.8685 72.3547 67.9539 72.8507 67.9539 73.384V73.8H62.3539C62.4499 74.3653 62.6899 74.7973 63.0739 75.096C63.4685 75.3947 63.9645 75.544 64.5619 75.544C64.9885 75.544 65.3832 75.4693 65.7459 75.32C66.1192 75.16 66.4285 74.9413 66.6739 74.664L67.7779 75.672C67.4045 76.1413 66.9245 76.4987 66.3379 76.744C65.7512 76.9893 65.1059 77.112 64.4019 77.112ZM64.2259 71.16C63.7565 71.16 63.3619 71.288 63.0419 71.544C62.7325 71.7893 62.5192 72.1413 62.4019 72.6H66.0499C65.9859 72.1947 65.7939 71.8533 65.4739 71.576C65.1539 71.2987 64.7379 71.16 64.2259 71.16ZM92.4531 74.024H84.9811V72.408H92.4531V74.024ZM111.494 72.536H114.07C113.952 72.1093 113.739 71.7893 113.43 71.576C113.131 71.3627 112.758 71.256 112.31 71.256C111.584 71.256 111.04 71.512 110.678 72.024L109.334 71C109.622 70.552 110.043 70.2 110.598 69.944C111.163 69.688 111.766 69.56 112.406 69.56C112.928 69.56 113.419 69.6453 113.878 69.816C114.347 69.9867 114.758 70.232 115.11 70.552C115.462 70.872 115.739 71.2667 115.942 71.736C116.144 72.1947 116.246 72.7227 116.246 73.32C116.246 73.8747 116.15 74.3867 115.958 74.856C115.776 75.3147 115.52 75.7147 115.19 76.056C114.859 76.3867 114.459 76.648 113.99 76.84C113.52 77.0213 113.008 77.112 112.454 77.112C111.76 77.112 111.115 76.9733 110.518 76.696C109.931 76.4187 109.499 76.0187 109.222 75.496L110.662 74.664C111.046 75.208 111.579 75.48 112.262 75.48C112.806 75.48 113.227 75.3253 113.526 75.016C113.824 74.7067 114.016 74.344 114.102 73.928H111.494V72.536ZM119.136 71.432H116.784V69.688H123.456V71.432H121.104V77H119.136V71.432ZM127.914 77.112C127.338 77.112 126.805 77.0213 126.314 76.84C125.834 76.6587 125.418 76.4027 125.066 76.072C124.725 75.7307 124.453 75.3307 124.25 74.872C124.058 74.4133 123.962 73.9013 123.962 73.336C123.962 72.7707 124.058 72.2587 124.25 71.8C124.453 71.3307 124.73 70.9307 125.082 70.6C125.434 70.2693 125.85 70.0133 126.33 69.832C126.821 69.6507 127.349 69.56 127.914 69.56C128.49 69.56 129.018 69.6507 129.498 69.832C129.989 70.0133 130.41 70.2747 130.762 70.616C131.114 70.9467 131.386 71.3467 131.578 71.816C131.77 72.2747 131.866 72.7813 131.866 73.336C131.866 73.912 131.765 74.4347 131.562 74.904C131.359 75.3627 131.082 75.7573 130.73 76.088C130.378 76.408 129.962 76.6587 129.482 76.84C129.002 77.0213 128.479 77.112 127.914 77.112ZM127.914 75.432C128.501 75.432 128.959 75.2347 129.29 74.84C129.621 74.4453 129.786 73.944 129.786 73.336C129.786 72.728 129.626 72.232 129.306 71.848C128.986 71.4533 128.522 71.256 127.914 71.256C127.317 71.256 126.853 71.4533 126.522 71.848C126.191 72.2427 126.026 72.7387 126.026 73.336C126.026 73.624 126.069 73.896 126.154 74.152C126.239 74.408 126.362 74.632 126.522 74.824C126.682 75.016 126.879 75.1653 127.114 75.272C127.349 75.3787 127.615 75.432 127.914 75.432ZM152.405 77.112C151.829 77.112 151.295 77.0213 150.805 76.84C150.325 76.6587 149.909 76.4027 149.557 76.072C149.215 75.7307 148.943 75.3307 148.741 74.872C148.549 74.4133 148.453 73.9013 148.453 73.336C148.453 72.7707 148.549 72.2587 148.741 71.8C148.943 71.3307 149.221 70.9307 149.573 70.6C149.925 70.2693 150.341 70.0133 150.821 69.832C151.311 69.6507 151.839 69.56 152.405 69.56C152.981 69.56 153.509 69.6507 153.989 69.832C154.479 70.0133 154.901 70.2747 155.253 70.616C155.605 70.9467 155.877 71.3467 156.069 71.816C156.261 72.2747 156.357 72.7813 156.357 73.336C156.357 73.912 156.255 74.4347 156.053 74.904C155.85 75.3627 155.573 75.7573 155.221 76.088C154.869 76.408 154.453 76.6587 153.973 76.84C153.493 77.0213 152.97 77.112 152.405 77.112ZM152.405 75.432C152.991 75.432 153.45 75.2347 153.781 74.84C154.111 74.4453 154.277 73.944 154.277 73.336C154.277 72.728 154.117 72.232 153.797 71.848C153.477 71.4533 153.013 71.256 152.405 71.256C151.807 71.256 151.343 71.4533 151.013 71.848C150.682 72.2427 150.517 72.7387 150.517 73.336C150.517 73.624 150.559 73.896 150.645 74.152C150.73 74.408 150.853 74.632 151.013 74.824C151.173 75.016 151.37 75.1653 151.605 75.272C151.839 75.3787 152.106 75.432 152.405 75.432ZM156.787 75.256H157.667C157.944 74.68 158.152 74.04 158.291 73.336C158.429 72.6213 158.499 71.7787 158.499 70.808V69.688H164.195V75.256H165.315V78.632H163.699V77H158.419V78.632H156.787V75.256ZM160.275 71.48C160.275 72.9627 160.056 74.2213 159.619 75.256H162.211V71.432H160.275V71.48ZM171.471 74.12H168.431V77H166.447V69.688H168.431V72.376H171.471V69.688H173.455V77H171.471V74.12ZM178.858 77.112C178.282 77.112 177.748 77.0213 177.258 76.84C176.778 76.6587 176.362 76.4027 176.01 76.072C175.668 75.7307 175.396 75.3307 175.194 74.872C175.002 74.4133 174.906 73.9013 174.906 73.336C174.906 72.7707 175.002 72.2587 175.194 71.8C175.396 71.3307 175.674 70.9307 176.026 70.6C176.378 70.2693 176.794 70.0133 177.274 69.832C177.764 69.6507 178.292 69.56 178.858 69.56C179.434 69.56 179.962 69.6507 180.442 69.832C180.932 70.0133 181.354 70.2747 181.706 70.616C182.058 70.9467 182.33 71.3467 182.522 71.816C182.714 72.2747 182.81 72.7813 182.81 73.336C182.81 73.912 182.708 74.4347 182.506 74.904C182.303 75.3627 182.026 75.7573 181.674 76.088C181.322 76.408 180.906 76.6587 180.426 76.84C179.946 77.0213 179.423 77.112 178.858 77.112ZM178.858 75.432C179.444 75.432 179.903 75.2347 180.234 74.84C180.564 74.4453 180.73 73.944 180.73 73.336C180.73 72.728 180.57 72.232 180.25 71.848C179.93 71.4533 179.466 71.256 178.858 71.256C178.26 71.256 177.796 71.4533 177.466 71.848C177.135 72.2427 176.97 72.7387 176.97 73.336C176.97 73.624 177.012 73.896 177.098 74.152C177.183 74.408 177.306 74.632 177.466 74.824C177.626 75.016 177.823 75.1653 178.058 75.272C178.292 75.3787 178.559 75.432 178.858 75.432ZM184.62 77.08C184.3 77.0267 184.054 76.904 183.884 76.712C183.724 76.5093 183.644 76.2693 183.644 75.992C183.644 75.64 183.756 75.3627 183.98 75.16C184.214 74.9467 184.492 74.84 184.812 74.84C185.153 74.84 185.446 74.952 185.692 75.176C185.948 75.4 186.076 75.72 186.076 76.136C186.076 76.4133 186.001 76.7227 185.852 77.064C185.702 77.4053 185.473 77.848 185.164 78.392L184.524 79.56H183.244L184.62 77.08ZM206.461 77.112C206.023 77.112 205.597 77.0213 205.181 76.84C204.775 76.6587 204.413 76.4027 204.093 76.072C203.783 75.7413 203.533 75.3467 203.341 74.888C203.149 74.4187 203.053 73.9013 203.053 73.336C203.053 72.7707 203.143 72.2587 203.325 71.8C203.517 71.3307 203.767 70.9307 204.077 70.6C204.397 70.2693 204.759 70.0133 205.165 69.832C205.581 69.6507 206.013 69.56 206.461 69.56C207.005 69.56 207.485 69.6667 207.901 69.88C208.327 70.0933 208.663 70.3547 208.909 70.664V69.688H210.781V77H208.909V76.008C208.642 76.3387 208.295 76.6053 207.869 76.808C207.442 77.0107 206.973 77.112 206.461 77.112ZM206.989 75.416C207.533 75.416 207.965 75.2293 208.285 74.856C208.615 74.472 208.786 73.976 208.797 73.368V73.24C208.797 72.6747 208.631 72.2107 208.301 71.848C207.97 71.4853 207.533 71.304 206.989 71.304C206.743 71.304 206.509 71.3467 206.285 71.432C206.061 71.5173 205.863 71.6453 205.693 71.816C205.522 71.9867 205.389 72.2 205.293 72.456C205.197 72.712 205.149 73.0053 205.149 73.336C205.149 73.976 205.319 74.4827 205.661 74.856C206.013 75.2293 206.455 75.416 206.989 75.416ZM231.777 77.112C231.201 77.112 230.667 77.0213 230.177 76.84C229.697 76.6587 229.281 76.4027 228.929 76.072C228.587 75.7307 228.315 75.3307 228.113 74.872C227.921 74.4133 227.825 73.9013 227.825 73.336C227.825 72.7707 227.921 72.2587 228.113 71.8C228.315 71.3307 228.593 70.9307 228.945 70.6C229.297 70.2693 229.713 70.0133 230.193 69.832C230.683 69.6507 231.211 69.56 231.777 69.56C232.353 69.56 232.881 69.6507 233.361 69.832C233.851 70.0133 234.273 70.2747 234.625 70.616C234.977 70.9467 235.249 71.3467 235.441 71.816C235.633 72.2747 235.729 72.7813 235.729 73.336C235.729 73.912 235.627 74.4347 235.425 74.904C235.222 75.3627 234.945 75.7573 234.593 76.088C234.241 76.408 233.825 76.6587 233.345 76.84C232.865 77.0213 232.342 77.112 231.777 77.112ZM231.777 75.432C232.363 75.432 232.822 75.2347 233.153 74.84C233.483 74.4453 233.649 73.944 233.649 73.336C233.649 72.728 233.489 72.232 233.169 71.848C232.849 71.4533 232.385 71.256 231.777 71.256C231.179 71.256 230.715 71.4533 230.385 71.848C230.054 72.2427 229.889 72.7387 229.889 73.336C229.889 73.624 229.931 73.896 230.017 74.152C230.102 74.408 230.225 74.632 230.385 74.824C230.545 75.016 230.742 75.1653 230.977 75.272C231.211 75.3787 231.478 75.432 231.777 75.432ZM238.608 71.432H236.256V69.688H242.928V71.432H240.576V77H238.608V71.432ZM249.171 74.12H246.131V77H244.147V69.688H246.131V72.376H249.171V69.688H251.155V77H249.171V74.12ZM256.558 77.112C255.982 77.112 255.448 77.0213 254.958 76.84C254.478 76.6587 254.062 76.4027 253.71 76.072C253.368 75.7307 253.096 75.3307 252.894 74.872C252.702 74.4133 252.606 73.9013 252.606 73.336C252.606 72.7707 252.702 72.2587 252.894 71.8C253.096 71.3307 253.374 70.9307 253.726 70.6C254.078 70.2693 254.494 70.0133 254.974 69.832C255.464 69.6507 255.992 69.56 256.558 69.56C257.134 69.56 257.662 69.6507 258.142 69.832C258.632 70.0133 259.054 70.2747 259.406 70.616C259.758 70.9467 260.03 71.3467 260.222 71.816C260.414 72.2747 260.51 72.7813 260.51 73.336C260.51 73.912 260.408 74.4347 260.206 74.904C260.003 75.3627 259.726 75.7573 259.374 76.088C259.022 76.408 258.606 76.6587 258.126 76.84C257.646 77.0213 257.123 77.112 256.558 77.112ZM256.558 75.432C257.144 75.432 257.603 75.2347 257.934 74.84C258.264 74.4453 258.43 73.944 258.43 73.336C258.43 72.728 258.27 72.232 257.95 71.848C257.63 71.4533 257.166 71.256 256.558 71.256C255.96 71.256 255.496 71.4533 255.166 71.848C254.835 72.2427 254.67 72.7387 254.67 73.336C254.67 73.624 254.712 73.896 254.798 74.152C254.883 74.408 255.006 74.632 255.166 74.824C255.326 75.016 255.523 75.1653 255.758 75.272C255.992 75.3787 256.259 75.432 256.558 75.432ZM270.552 69.688H272.536V77H261.944V69.688H263.928V75.256H266.264V69.688H268.232V75.256H270.552V69.688ZM277.964 77.112C277.378 77.112 276.839 77.0213 276.348 76.84C275.868 76.6587 275.452 76.408 275.1 76.088C274.748 75.7573 274.476 75.368 274.284 74.92C274.092 74.4613 273.996 73.9547 273.996 73.4C273.996 72.8133 274.098 72.2853 274.3 71.816C274.503 71.336 274.78 70.9307 275.132 70.6C275.484 70.2693 275.895 70.0133 276.364 69.832C276.834 69.6507 277.335 69.56 277.868 69.56C278.444 69.56 278.956 69.6613 279.404 69.864C279.863 70.056 280.247 70.328 280.556 70.68C280.866 71.0213 281.1 71.4267 281.26 71.896C281.431 72.3547 281.516 72.8507 281.516 73.384V73.8H275.916C276.012 74.3653 276.252 74.7973 276.636 75.096C277.031 75.3947 277.527 75.544 278.124 75.544C278.551 75.544 278.946 75.4693 279.308 75.32C279.682 75.16 279.991 74.9413 280.236 74.664L281.34 75.672C280.967 76.1413 280.487 76.4987 279.9 76.744C279.314 76.9893 278.668 77.112 277.964 77.112ZM277.788 71.16C277.319 71.16 276.924 71.288 276.604 71.544C276.295 71.7893 276.082 72.1413 275.964 72.6H279.612C279.548 72.1947 279.356 71.8533 279.036 71.576C278.716 71.2987 278.3 71.16 277.788 71.16ZM287.999 74.12H284.959V77H282.975V69.688H284.959V72.376H287.999V69.688H289.983V77H287.999V74.12ZM291.866 69.688H293.85V73.896L297.242 69.688H298.794V77H296.81V72.552L293.226 77H291.866V69.688ZM300.23 76.728L301.782 74.408C300.929 74.0027 300.502 73.2827 300.502 72.248C300.502 71.4053 300.774 70.7707 301.318 70.344C301.873 69.9067 302.732 69.688 303.894 69.688H307.062V77H305.078V74.76H303.83L302.39 77H300.23V76.728ZM305.078 73.352V71.224H304.022C303.51 71.224 303.132 71.2987 302.886 71.448C302.641 71.5867 302.518 71.8587 302.518 72.264C302.518 72.6693 302.625 72.952 302.838 73.112C303.062 73.272 303.441 73.352 303.974 73.352H305.078ZM21.608 90.96L20.168 92.48L21.608 94.016V95.92L18.408 92.48L21.608 89.04V90.96ZM18.408 90.96L16.968 92.48L18.408 94.016V95.92L15.208 92.48L18.408 89.04V90.96ZM27.5891 93.344C27.3758 93.44 27.1251 93.52 26.8371 93.584C26.5598 93.6373 26.2451 93.664 25.8931 93.664C25.4451 93.664 25.0398 93.6107 24.6771 93.504C24.3251 93.3973 24.0211 93.2267 23.7651 92.992C23.5091 92.7573 23.3118 92.4533 23.1731 92.08C23.0451 91.7067 22.9811 91.2533 22.9811 90.72V88.688H24.9651V90.64C24.9651 91.056 25.0611 91.376 25.2531 91.6C25.4451 91.8133 25.8291 91.92 26.4051 91.92C26.8425 91.92 27.2371 91.8667 27.5891 91.76V88.688H29.5731V96H27.5891V93.344ZM34.9019 96.112C34.3152 96.112 33.7765 96.0213 33.2859 95.84C32.8059 95.6587 32.3899 95.408 32.0379 95.088C31.6859 94.7573 31.4139 94.368 31.2219 93.92C31.0299 93.4613 30.9339 92.9547 30.9339 92.4C30.9339 91.8133 31.0352 91.2853 31.2379 90.816C31.4405 90.336 31.7179 89.9307 32.0699 89.6C32.4219 89.2693 32.8325 89.0133 33.3019 88.832C33.7712 88.6507 34.2725 88.56 34.8059 88.56C35.3819 88.56 35.8939 88.6613 36.3419 88.864C36.8005 89.056 37.1845 89.328 37.4939 89.68C37.8032 90.0213 38.0379 90.4267 38.1979 90.896C38.3685 91.3547 38.4539 91.8507 38.4539 92.384V92.8H32.8539C32.9499 93.3653 33.1899 93.7973 33.5739 94.096C33.9685 94.3947 34.4645 94.544 35.0619 94.544C35.4885 94.544 35.8832 94.4693 36.2459 94.32C36.6192 94.16 36.9285 93.9413 37.1739 93.664L38.2779 94.672C37.9045 95.1413 37.4245 95.4987 36.8379 95.744C36.2512 95.9893 35.6059 96.112 34.9019 96.112ZM34.7259 90.16C34.2565 90.16 33.8619 90.288 33.5419 90.544C33.2325 90.7893 33.0192 91.1413 32.9019 91.6H36.5499C36.4859 91.1947 36.2939 90.8533 35.9739 90.576C35.6539 90.2987 35.2379 90.16 34.7259 90.16ZM39.5946 96.16C39.4773 96.16 39.3706 96.1547 39.2746 96.144C39.1893 96.1333 39.1146 96.1227 39.0506 96.112V94.208C39.1573 94.2293 39.2426 94.24 39.3066 94.24C39.488 94.24 39.6426 94.176 39.7706 94.048C39.8986 93.9093 40 93.6907 40.0746 93.392C40.16 93.0827 40.2186 92.6827 40.2506 92.192C40.2933 91.7013 40.3146 91.104 40.3146 90.4V88.688H45.8666V96H43.8986V90.432H42.1386V91.296C42.1386 92.2133 42.08 92.9813 41.9626 93.6C41.856 94.2187 41.6906 94.72 41.4666 95.104C41.2533 95.4773 40.9866 95.7493 40.6666 95.92C40.3573 96.08 40 96.16 39.5946 96.16ZM51.2921 96.112C50.7161 96.112 50.1828 96.0213 49.6921 95.84C49.2121 95.6587 48.7961 95.4027 48.4441 95.072C48.1028 94.7307 47.8308 94.3307 47.6281 93.872C47.4361 93.4133 47.3401 92.9013 47.3401 92.336C47.3401 91.7707 47.4361 91.2587 47.6281 90.8C47.8308 90.3307 48.1081 89.9307 48.4601 89.6C48.8121 89.2693 49.2281 89.0133 49.7081 88.832C50.1988 88.6507 50.7268 88.56 51.2921 88.56C51.8681 88.56 52.3961 88.6507 52.8761 88.832C53.3668 89.0133 53.7881 89.2747 54.1401 89.616C54.4921 89.9467 54.7641 90.3467 54.9561 90.816C55.1481 91.2747 55.2441 91.7813 55.2441 92.336C55.2441 92.912 55.1428 93.4347 54.9401 93.904C54.7375 94.3627 54.4601 94.7573 54.1081 95.088C53.7561 95.408 53.3401 95.6587 52.8601 95.84C52.3801 96.0213 51.8575 96.112 51.2921 96.112ZM51.2921 94.432C51.8788 94.432 52.3375 94.2347 52.6681 93.84C52.9988 93.4453 53.1641 92.944 53.1641 92.336C53.1641 91.728 53.0041 91.232 52.6841 90.848C52.3641 90.4533 51.9001 90.256 51.2921 90.256C50.6948 90.256 50.2308 90.4533 49.9001 90.848C49.5695 91.2427 49.4041 91.7387 49.4041 92.336C49.4041 92.624 49.4468 92.896 49.5321 93.152C49.6175 93.408 49.7401 93.632 49.9001 93.824C50.0601 94.016 50.2575 94.1653 50.4921 94.272C50.7268 94.3787 50.9935 94.432 51.2921 94.432ZM56.6784 88.688H60.6304C61.3877 88.688 61.9584 88.8533 62.3424 89.184C62.7264 89.504 62.9184 89.9253 62.9184 90.448C62.9184 90.8427 62.8224 91.168 62.6304 91.424C62.4384 91.68 62.1877 91.8613 61.8784 91.968C62.401 92.0427 62.8277 92.224 63.1584 92.512C63.489 92.8 63.6544 93.232 63.6544 93.808C63.6544 94.512 63.393 95.056 62.8704 95.44C62.3584 95.8133 61.6064 96 60.6144 96H56.6784V88.688ZM58.6624 92.704V94.544H60.1824C60.6837 94.544 61.041 94.4693 61.2544 94.32C61.4677 94.16 61.5744 93.9253 61.5744 93.616C61.5744 93.296 61.4624 93.0667 61.2384 92.928C61.0144 92.7787 60.6784 92.704 60.2304 92.704H58.6624ZM58.6624 90.144V91.552H60.0384C60.721 91.552 61.0624 91.312 61.0624 90.832C61.0624 90.3733 60.7157 90.144 60.0224 90.144H58.6624ZM68.4331 96.112C67.8465 96.112 67.3078 96.0213 66.8171 95.84C66.3371 95.6587 65.9211 95.408 65.5691 95.088C65.2171 94.7573 64.9451 94.368 64.7531 93.92C64.5611 93.4613 64.4651 92.9547 64.4651 92.4C64.4651 91.8133 64.5665 91.2853 64.7691 90.816C64.9718 90.336 65.2491 89.9307 65.6011 89.6C65.9531 89.2693 66.3638 89.0133 66.8331 88.832C67.3025 88.6507 67.8038 88.56 68.3371 88.56C68.9131 88.56 69.4251 88.6613 69.8731 88.864C70.3318 89.056 70.7158 89.328 71.0251 89.68C71.3345 90.0213 71.5691 90.4267 71.7291 90.896C71.8998 91.3547 71.9851 91.8507 71.9851 92.384V92.8H66.3851C66.4811 93.3653 66.7211 93.7973 67.1051 94.096C67.4998 94.3947 67.9958 94.544 68.5931 94.544C69.0198 94.544 69.4145 94.4693 69.7771 94.32C70.1505 94.16 70.4598 93.9413 70.7051 93.664L71.8091 94.672C71.4358 95.1413 70.9558 95.4987 70.3691 95.744C69.7825 95.9893 69.1371 96.112 68.4331 96.112ZM68.2571 90.16C67.7878 90.16 67.3931 90.288 67.0731 90.544C66.7638 90.7893 66.5505 91.1413 66.4331 91.6H70.0811C70.0171 91.1947 69.8251 90.8533 69.5051 90.576C69.1851 90.2987 68.7691 90.16 68.2571 90.16ZM73.444 88.688H75.428V91.376H76.196L77.956 88.688H80.02V88.96L77.844 92.016L80.564 95.728V96H78.356L76.148 92.88H75.428V96H73.444V88.688ZM85.4504 93.024H81.1624V91.408H85.4504V93.024ZM91.511 93.344C91.2977 93.44 91.047 93.52 90.759 93.584C90.4817 93.6373 90.167 93.664 89.815 93.664C89.367 93.664 88.9617 93.6107 88.599 93.504C88.247 93.3973 87.943 93.2267 87.687 92.992C87.431 92.7573 87.2337 92.4533 87.095 92.08C86.967 91.7067 86.903 91.2533 86.903 90.72V88.688H88.887V90.64C88.887 91.056 88.983 91.376 89.175 91.6C89.367 91.8133 89.751 91.92 90.327 91.92C90.7643 91.92 91.159 91.8667 91.511 91.76V88.688H93.495V96H91.511V93.344ZM98.8238 96.112C98.2371 96.112 97.6984 96.0213 97.2078 95.84C96.7278 95.6587 96.3118 95.408 95.9598 95.088C95.6078 94.7573 95.3358 94.368 95.1438 93.92C94.9518 93.4613 94.8558 92.9547 94.8558 92.4C94.8558 91.8133 94.9571 91.2853 95.1598 90.816C95.3624 90.336 95.6398 89.9307 95.9918 89.6C96.3438 89.2693 96.7544 89.0133 97.2238 88.832C97.6931 88.6507 98.1944 88.56 98.7278 88.56C99.3038 88.56 99.8158 88.6613 100.264 88.864C100.722 89.056 101.106 89.328 101.416 89.68C101.725 90.0213 101.96 90.4267 102.12 90.896C102.29 91.3547 102.376 91.8507 102.376 92.384V92.8H96.7758C96.8718 93.3653 97.1118 93.7973 97.4958 94.096C97.8904 94.3947 98.3864 94.544 98.9838 94.544C99.4104 94.544 99.8051 94.4693 100.168 94.32C100.541 94.16 100.85 93.9413 101.096 93.664L102.2 94.672C101.826 95.1413 101.346 95.4987 100.76 95.744C100.173 95.9893 99.5278 96.112 98.8238 96.112ZM98.6478 90.16C98.1784 90.16 97.7838 90.288 97.4638 90.544C97.1544 90.7893 96.9411 91.1413 96.8238 91.6H100.472C100.408 91.1947 100.216 90.8533 99.8958 90.576C99.5758 90.2987 99.1598 90.16 98.6478 90.16ZM103.517 96.16C103.399 96.16 103.292 96.1547 103.197 96.144C103.111 96.1333 103.037 96.1227 102.973 96.112V94.208C103.079 94.2293 103.165 94.24 103.229 94.24C103.41 94.24 103.565 94.176 103.693 94.048C103.821 93.9093 103.922 93.6907 103.997 93.392C104.082 93.0827 104.141 92.6827 104.173 92.192C104.215 91.7013 104.237 91.104 104.237 90.4V88.688H109.789V96H107.821V90.432H106.061V91.296C106.061 92.2133 106.002 92.9813 105.885 93.6C105.778 94.2187 105.613 94.72 105.389 95.104C105.175 95.4773 104.909 95.7493 104.589 95.92C104.279 96.08 103.922 96.16 103.517 96.16ZM115.214 96.112C114.638 96.112 114.105 96.0213 113.614 95.84C113.134 95.6587 112.718 95.4027 112.366 95.072C112.025 94.7307 111.753 94.3307 111.55 93.872C111.358 93.4133 111.262 92.9013 111.262 92.336C111.262 91.7707 111.358 91.2587 111.55 90.8C111.753 90.3307 112.03 89.9307 112.382 89.6C112.734 89.2693 113.15 89.0133 113.63 88.832C114.121 88.6507 114.649 88.56 115.214 88.56C115.79 88.56 116.318 88.6507 116.798 88.832C117.289 89.0133 117.71 89.2747 118.062 89.616C118.414 89.9467 118.686 90.3467 118.878 90.816C119.07 91.2747 119.166 91.7813 119.166 92.336C119.166 92.912 119.065 93.4347 118.862 93.904C118.659 94.3627 118.382 94.7573 118.03 95.088C117.678 95.408 117.262 95.6587 116.782 95.84C116.302 96.0213 115.779 96.112 115.214 96.112ZM115.214 94.432C115.801 94.432 116.259 94.2347 116.59 93.84C116.921 93.4453 117.086 92.944 117.086 92.336C117.086 91.728 116.926 91.232 116.606 90.848C116.286 90.4533 115.822 90.256 115.214 90.256C114.617 90.256 114.153 90.4533 113.822 90.848C113.491 91.2427 113.326 91.7387 113.326 92.336C113.326 92.624 113.369 92.896 113.454 93.152C113.539 93.408 113.662 93.632 113.822 93.824C113.982 94.016 114.179 94.1653 114.414 94.272C114.649 94.3787 114.915 94.432 115.214 94.432ZM120.6 88.688H124.552C125.31 88.688 125.88 88.8533 126.264 89.184C126.648 89.504 126.84 89.9253 126.84 90.448C126.84 90.8427 126.744 91.168 126.552 91.424C126.36 91.68 126.11 91.8613 125.8 91.968C126.323 92.0427 126.75 92.224 127.08 92.512C127.411 92.8 127.576 93.232 127.576 93.808C127.576 94.512 127.315 95.056 126.792 95.44C126.28 95.8133 125.528 96 124.536 96H120.6V88.688ZM122.584 92.704V94.544H124.104C124.606 94.544 124.963 94.4693 125.176 94.32C125.39 94.16 125.496 93.9253 125.496 93.616C125.496 93.296 125.384 93.0667 125.16 92.928C124.936 92.7787 124.6 92.704 124.152 92.704H122.584ZM122.584 90.144V91.552H123.96C124.643 91.552 124.984 91.312 124.984 90.832C124.984 90.3733 124.638 90.144 123.944 90.144H122.584ZM132.355 96.112C131.768 96.112 131.23 96.0213 130.739 95.84C130.259 95.6587 129.843 95.408 129.491 95.088C129.139 94.7573 128.867 94.368 128.675 93.92C128.483 93.4613 128.387 92.9547 128.387 92.4C128.387 91.8133 128.488 91.2853 128.691 90.816C128.894 90.336 129.171 89.9307 129.523 89.6C129.875 89.2693 130.286 89.0133 130.755 88.832C131.224 88.6507 131.726 88.56 132.259 88.56C132.835 88.56 133.347 88.6613 133.795 88.864C134.254 89.056 134.638 89.328 134.947 89.68C135.256 90.0213 135.491 90.4267 135.651 90.896C135.822 91.3547 135.907 91.8507 135.907 92.384V92.8H130.307C130.403 93.3653 130.643 93.7973 131.027 94.096C131.422 94.3947 131.918 94.544 132.515 94.544C132.942 94.544 133.336 94.4693 133.699 94.32C134.072 94.16 134.382 93.9413 134.627 93.664L135.731 94.672C135.358 95.1413 134.878 95.4987 134.291 95.744C133.704 95.9893 133.059 96.112 132.355 96.112ZM132.179 90.16C131.71 90.16 131.315 90.288 130.995 90.544C130.686 90.7893 130.472 91.1413 130.355 91.6H134.003C133.939 91.1947 133.747 90.8533 133.427 90.576C133.107 90.2987 132.691 90.16 132.179 90.16ZM137.366 88.688H139.35V91.376H140.118L141.878 88.688H143.942V88.96L141.766 92.016L144.486 95.728V96H142.278L140.07 92.88H139.35V96H137.366V88.688ZM145.301 94L146.741 92.48L145.301 90.944V89.04L148.501 92.48L145.301 95.92V94ZM148.501 94L149.941 92.48L148.501 90.944V89.04L151.701 92.48L148.501 95.92V94ZM161.294 93.024H157.006V91.408H161.294V93.024ZM166.471 94.256H167.351C167.628 93.68 167.836 93.04 167.975 92.336C168.114 91.6213 168.183 90.7787 168.183 89.808V88.688H173.879V94.256H174.999V97.632H173.383V96H168.103V97.632H166.471V94.256ZM169.959 90.48C169.959 91.9627 169.74 93.2213 169.303 94.256H171.895V90.432H169.959V90.48ZM176.132 99.84V88.688H178.004V89.664C178.249 89.3547 178.58 89.0933 178.996 88.88C179.422 88.6667 179.908 88.56 180.452 88.56C180.9 88.56 181.326 88.6507 181.732 88.832C182.148 89.0133 182.51 89.2693 182.82 89.6C183.14 89.9307 183.39 90.3307 183.572 90.8C183.764 91.2587 183.86 91.7707 183.86 92.336C183.86 92.9013 183.764 93.4187 183.572 93.888C183.38 94.3467 183.124 94.7413 182.804 95.072C182.494 95.4027 182.132 95.6587 181.716 95.84C181.31 96.0213 180.889 96.112 180.452 96.112C179.972 96.112 179.529 96.0267 179.124 95.856C178.718 95.6747 178.382 95.4347 178.116 95.136V99.84H176.132ZM179.924 90.304C179.38 90.304 178.948 90.48 178.628 90.832C178.308 91.1733 178.137 91.616 178.116 92.16V92.368C178.126 92.976 178.292 93.472 178.612 93.856C178.942 94.2293 179.38 94.416 179.924 94.416C180.457 94.416 180.894 94.2293 181.236 93.856C181.588 93.4827 181.764 92.976 181.764 92.336C181.764 92.0053 181.71 91.712 181.604 91.456C181.508 91.2 181.374 90.9867 181.204 90.816C181.044 90.6453 180.852 90.5173 180.628 90.432C180.404 90.3467 180.169 90.304 179.924 90.304ZM186.013 99.6L187.245 96.08L184.253 89.056V88.688H186.237L188.173 93.472L189.869 88.688H191.661L191.645 89.056L187.805 99.84H186.013V99.6ZM192.71 88.688H197.782V90.432H194.694V96H192.71V88.688ZM202.355 96.112C201.779 96.112 201.245 96.0213 200.755 95.84C200.275 95.6587 199.859 95.4027 199.507 95.072C199.165 94.7307 198.893 94.3307 198.691 93.872C198.499 93.4133 198.403 92.9013 198.403 92.336C198.403 91.7707 198.499 91.2587 198.691 90.8C198.893 90.3307 199.171 89.9307 199.523 89.6C199.875 89.2693 200.291 89.0133 200.771 88.832C201.261 88.6507 201.789 88.56 202.355 88.56C202.931 88.56 203.459 88.6507 203.939 88.832C204.429 89.0133 204.851 89.2747 205.203 89.616C205.555 89.9467 205.827 90.3467 206.019 90.816C206.211 91.2747 206.307 91.7813 206.307 92.336C206.307 92.912 206.205 93.4347 206.003 93.904C205.8 94.3627 205.523 94.7573 205.171 95.088C204.819 95.408 204.403 95.6587 203.923 95.84C203.443 96.0213 202.92 96.112 202.355 96.112ZM202.355 94.432C202.941 94.432 203.4 94.2347 203.731 93.84C204.061 93.4453 204.227 92.944 204.227 92.336C204.227 91.728 204.067 91.232 203.747 90.848C203.427 90.4533 202.963 90.256 202.355 90.256C201.757 90.256 201.293 90.4533 200.963 90.848C200.632 91.2427 200.467 91.7387 200.467 92.336C200.467 92.624 200.509 92.896 200.595 93.152C200.68 93.408 200.803 93.632 200.963 93.824C201.123 94.016 201.32 94.1653 201.555 94.272C201.789 94.3787 202.056 94.432 202.355 94.432ZM211.277 96.112C210.69 96.112 210.152 96.0213 209.661 95.84C209.181 95.6587 208.765 95.408 208.413 95.088C208.061 94.7573 207.789 94.368 207.597 93.92C207.405 93.4613 207.309 92.9547 207.309 92.4C207.309 91.8133 207.41 91.2853 207.613 90.816C207.816 90.336 208.093 89.9307 208.445 89.6C208.797 89.2693 209.208 89.0133 209.677 88.832C210.146 88.6507 210.648 88.56 211.181 88.56C211.757 88.56 212.269 88.6613 212.717 88.864C213.176 89.056 213.56 89.328 213.869 89.68C214.178 90.0213 214.413 90.4267 214.573 90.896C214.744 91.3547 214.829 91.8507 214.829 92.384V92.8H209.229C209.325 93.3653 209.565 93.7973 209.949 94.096C210.344 94.3947 210.84 94.544 211.437 94.544C211.864 94.544 212.258 94.4693 212.621 94.32C212.994 94.16 213.304 93.9413 213.549 93.664L214.653 94.672C214.28 95.1413 213.8 95.4987 213.213 95.744C212.626 95.9893 211.981 96.112 211.277 96.112ZM211.101 90.16C210.632 90.16 210.237 90.288 209.917 90.544C209.608 90.7893 209.394 91.1413 209.277 91.6H212.925C212.861 91.1947 212.669 90.8533 212.349 90.576C212.029 90.2987 211.613 90.16 211.101 90.16ZM217.063 96.16C216.69 96.16 216.402 96.0533 216.199 95.84C216.007 95.616 215.911 95.3493 215.911 95.04C215.911 94.7093 216.007 94.432 216.199 94.208C216.391 93.984 216.679 93.872 217.063 93.872C217.447 93.872 217.741 93.984 217.943 94.208C218.146 94.432 218.247 94.7093 218.247 95.04C218.247 95.3493 218.141 95.616 217.927 95.84C217.725 96.0533 217.437 96.16 217.063 96.16Z" fill="black"/>
<circle cx="2.15513" cy="2.15513" r="2.15513" transform="matrix(1 0 0 -1 257 96.3101)" fill="black"/>
<circle cx="2.15513" cy="2.15513" r="2.15513" transform="matrix(1 0 0 -1 269.452 96.3101)" fill="black"/>
<circle cx="2.15513" cy="2.15513" r="2.15513" transform="matrix(1 0 0 -1 281.904 96.3101)" fill="black"/>
<circle cx="2.15513" cy="2.15513" r="2.15513" transform="matrix(1 0 0 -1 294.355 96.3101)" fill="black"/>
<defs>
<linearGradient id="paint0_linear_106_13" x1="372.117" y1="61.6149" x2="-59.068" y2="61.6149" gradientUnits="userSpaceOnUse">
<stop stop-color="white" stop-opacity="0.64"/>
<stop offset="0.325" stop-color="#2736C1" stop-opacity="0.72"/>
<stop offset="1" stop-color="#091FEA"/>
</linearGradient>
</defs>
</svg>
