<svg width="1286" height="99" viewBox="0 0 1286 99" fill="none" xmlns="http://www.w3.org/2000/svg">
<path d="M1189.38 43.4901C1180.57 41.1992 1174.41 33.2413 1174.41 24.1329V20C1174.41 8.95431 1165.46 0 1154.41 0H19.9977C8.95203 0 -0.00219727 8.9543 -0.00219727 20V39.6V79C-0.00219727 90.0457 8.95203 99 19.9978 99L1246.51 98.9999C1269.99 98.9999 1274.26 65.5471 1251.54 59.6428L1189.38 43.4901Z" fill="url(#paint0_linear_91_9)" fill-opacity="0.76"/>
<circle cx="1162.5" cy="80.5" r="4.5" fill="black"/>
<circle cx="1188.5" cy="80.5" r="4.5" fill="black"/>
<circle cx="1214.5" cy="80.5" r="4.5" fill="black"/>
<circle cx="1240.5" cy="80.5" r="4.5" fill="black"/>
<path d="M26.873 40H30.143L36.023 54.16L41.633 40H44.873L47.873 61H43.973L42.113 47.62L36.683 61.03H35.183L29.633 47.77L27.953 61H24.173L26.873 40ZM56.808 51.25C58.748 51.25 60.218 51.65 61.218 52.45C62.238 53.25 62.748 54.46 62.748 56.08C62.748 57.7 62.218 58.93 61.158 59.77C60.118 60.59 58.568 61 56.508 61H51.018V47.29H54.738V51.25H56.808ZM64.068 47.29H67.788V61H64.068V47.29ZM56.118 58.09C57.018 58.09 57.708 57.96 58.188 57.7C58.688 57.42 58.938 56.88 58.938 56.08C58.938 55.34 58.708 54.83 58.248 54.55C57.808 54.27 57.138 54.13 56.238 54.13H54.738V58.09H56.118ZM85.5038 61.21C84.4038 61.21 83.4138 61.04 82.5338 60.7C81.6538 60.36 80.8938 59.89 80.2538 59.29C79.6338 58.67 79.1538 57.93 78.8138 57.07C78.4738 56.21 78.3038 55.25 78.3038 54.19C78.3038 53.07 78.4838 52.07 78.8438 51.19C79.2238 50.29 79.7338 49.54 80.3738 48.94C81.0138 48.32 81.7738 47.85 82.6538 47.53C83.5338 47.21 84.4838 47.05 85.5038 47.05C86.6638 47.05 87.7138 47.25 88.6538 47.65C89.6138 48.05 90.3638 48.55 90.9038 49.15L88.9838 51.67C88.5838 51.23 88.1138 50.88 87.5738 50.62C87.0538 50.36 86.4638 50.23 85.8038 50.23C84.6838 50.23 83.7938 50.59 83.1338 51.31C82.4938 52.03 82.1738 52.95 82.1738 54.07C82.1738 55.23 82.5038 56.19 83.1638 56.95C83.8438 57.69 84.7538 58.06 85.8938 58.06C86.5538 58.06 87.1438 57.93 87.6638 57.67C88.1838 57.39 88.6438 57.03 89.0438 56.59L91.2338 58.75C90.6338 59.53 89.8338 60.14 88.8338 60.58C87.8538 61 86.7438 61.21 85.5038 61.21ZM91.8792 57.73H93.5292C94.0492 56.65 94.4392 55.45 94.6992 54.13C94.9592 52.79 95.0892 51.21 95.0892 49.39V47.29H105.769V57.73H107.869V64.06H104.839V61H94.9392V64.06H91.8792V57.73ZM98.4192 50.65C98.4192 53.43 98.0092 55.79 97.1892 57.73H102.049V50.56H98.4192V50.65ZM116.33 61.21C115.23 61.21 114.22 61.04 113.3 60.7C112.4 60.36 111.62 59.89 110.96 59.29C110.3 58.67 109.79 57.94 109.43 57.1C109.07 56.24 108.89 55.29 108.89 54.25C108.89 53.15 109.08 52.16 109.46 51.28C109.84 50.38 110.36 49.62 111.02 49C111.68 48.38 112.45 47.9 113.33 47.56C114.21 47.22 115.15 47.05 116.15 47.05C117.23 47.05 118.19 47.24 119.03 47.62C119.89 47.98 120.61 48.49 121.19 49.15C121.77 49.79 122.21 50.55 122.51 51.43C122.83 52.29 122.99 53.22 122.99 54.22V55H112.49C112.67 56.06 113.12 56.87 113.84 57.43C114.58 57.99 115.51 58.27 116.63 58.27C117.43 58.27 118.17 58.13 118.85 57.85C119.55 57.55 120.13 57.14 120.59 56.62L122.66 58.51C121.96 59.39 121.06 60.06 119.96 60.52C118.86 60.98 117.65 61.21 116.33 61.21ZM116 50.05C115.12 50.05 114.38 50.29 113.78 50.77C113.2 51.23 112.8 51.89 112.58 52.75H119.42C119.3 51.99 118.94 51.35 118.34 50.83C117.74 50.31 116.96 50.05 116 50.05ZM125.129 61.3C124.909 61.3 124.709 61.29 124.529 61.27C124.369 61.25 124.229 61.23 124.109 61.21V57.64C124.309 57.68 124.469 57.7 124.589 57.7C124.929 57.7 125.219 57.58 125.459 57.34C125.699 57.08 125.889 56.67 126.029 56.11C126.189 55.53 126.299 54.78 126.359 53.86C126.439 52.94 126.479 51.82 126.479 50.5V47.29H136.889V61H133.199V50.56H129.899V52.18C129.899 53.9 129.789 55.34 129.569 56.5C129.369 57.66 129.059 58.6 128.639 59.32C128.239 60.02 127.739 60.53 127.139 60.85C126.559 61.15 125.889 61.3 125.129 61.3ZM146.041 61.21C145.221 61.21 144.421 61.04 143.641 60.7C142.881 60.36 142.201 59.88 141.601 59.26C141.021 58.64 140.551 57.9 140.191 57.04C139.831 56.16 139.651 55.19 139.651 54.13C139.651 53.07 139.821 52.11 140.161 51.25C140.521 50.37 140.991 49.62 141.571 49C142.171 48.38 142.851 47.9 143.611 47.56C144.391 47.22 145.201 47.05 146.041 47.05C147.061 47.05 147.961 47.25 148.741 47.65C149.541 48.05 150.171 48.54 150.631 49.12V47.29H154.141V61H150.631V59.14C150.131 59.76 149.481 60.26 148.681 60.64C147.881 61.02 147.001 61.21 146.041 61.21ZM147.031 58.03C148.051 58.03 148.861 57.68 149.461 56.98C150.081 56.26 150.401 55.33 150.421 54.19V53.95C150.421 52.89 150.111 52.02 149.491 51.34C148.871 50.66 148.051 50.32 147.031 50.32C146.571 50.32 146.131 50.4 145.711 50.56C145.291 50.72 144.921 50.96 144.601 51.28C144.281 51.6 144.031 52 143.851 52.48C143.671 52.96 143.581 53.51 143.581 54.13C143.581 55.33 143.901 56.28 144.541 56.98C145.201 57.68 146.031 58.03 147.031 58.03ZM157.238 61.3C157.018 61.3 156.818 61.29 156.638 61.27C156.478 61.25 156.338 61.23 156.218 61.21V57.64C156.418 57.68 156.578 57.7 156.698 57.7C157.038 57.7 157.328 57.58 157.568 57.34C157.808 57.08 157.998 56.67 158.138 56.11C158.298 55.53 158.408 54.78 158.468 53.86C158.548 52.94 158.588 51.82 158.588 50.5V47.29H168.998V61H165.308V50.56H162.008V52.18C162.008 53.9 161.898 55.34 161.678 56.5C161.478 57.66 161.168 58.6 160.748 59.32C160.348 60.02 159.848 60.53 159.248 60.85C158.668 61.15 157.998 61.3 157.238 61.3ZM172.571 47.29H176.291V55.18L182.651 47.29H185.561V61H181.841V52.66L175.121 61H172.571V47.29ZM199.857 52.63H204.687C204.467 51.83 204.067 51.23 203.487 50.83C202.927 50.43 202.227 50.23 201.387 50.23C200.027 50.23 199.007 50.71 198.327 51.67L195.807 49.75C196.347 48.91 197.137 48.25 198.177 47.77C199.237 47.29 200.367 47.05 201.567 47.05C202.547 47.05 203.467 47.21 204.327 47.53C205.207 47.85 205.977 48.31 206.637 48.91C207.297 49.51 207.817 50.25 208.197 51.13C208.577 51.99 208.767 52.98 208.767 54.1C208.767 55.14 208.587 56.1 208.227 56.98C207.887 57.84 207.407 58.59 206.787 59.23C206.167 59.85 205.417 60.34 204.537 60.7C203.657 61.04 202.697 61.21 201.657 61.21C200.357 61.21 199.147 60.95 198.027 60.43C196.927 59.91 196.117 59.16 195.597 58.18L198.297 56.62C199.017 57.64 200.017 58.15 201.297 58.15C202.317 58.15 203.107 57.86 203.667 57.28C204.227 56.7 204.587 56.02 204.747 55.24H199.857V52.63ZM214.188 50.56H209.778V47.29H222.288V50.56H217.878V61H214.188V50.56ZM230.645 61.21C229.565 61.21 228.565 61.04 227.645 60.7C226.745 60.36 225.965 59.88 225.305 59.26C224.665 58.62 224.155 57.87 223.775 57.01C223.415 56.15 223.235 55.19 223.235 54.13C223.235 53.07 223.415 52.11 223.775 51.25C224.155 50.37 224.675 49.62 225.335 49C225.995 48.38 226.775 47.9 227.675 47.56C228.595 47.22 229.585 47.05 230.645 47.05C231.725 47.05 232.715 47.22 233.615 47.56C234.535 47.9 235.325 48.39 235.985 49.03C236.645 49.65 237.155 50.4 237.515 51.28C237.875 52.14 238.055 53.09 238.055 54.13C238.055 55.21 237.865 56.19 237.485 57.07C237.105 57.93 236.585 58.67 235.925 59.29C235.265 59.89 234.485 60.36 233.585 60.7C232.685 61.04 231.705 61.21 230.645 61.21ZM230.645 58.06C231.745 58.06 232.605 57.69 233.225 56.95C233.845 56.21 234.155 55.27 234.155 54.13C234.155 52.99 233.855 52.06 233.255 51.34C232.655 50.6 231.785 50.23 230.645 50.23C229.525 50.23 228.655 50.6 228.035 51.34C227.415 52.08 227.105 53.01 227.105 54.13C227.105 54.67 227.185 55.18 227.345 55.66C227.505 56.14 227.735 56.56 228.035 56.92C228.335 57.28 228.705 57.56 229.145 57.76C229.585 57.96 230.085 58.06 230.645 58.06ZM256.398 56.02C255.998 56.2 255.528 56.35 254.988 56.47C254.468 56.57 253.878 56.62 253.218 56.62C252.378 56.62 251.618 56.52 250.938 56.32C250.278 56.12 249.708 55.8 249.228 55.36C248.748 54.92 248.378 54.35 248.118 53.65C247.878 52.95 247.758 52.1 247.758 51.1V47.29H251.478V50.95C251.478 51.73 251.658 52.33 252.018 52.75C252.378 53.15 253.098 53.35 254.178 53.35C254.998 53.35 255.738 53.25 256.398 53.05V47.29H260.118V61H256.398V56.02ZM265.219 67.75L267.529 61.15L261.919 47.98V47.29H265.639L269.269 56.26L272.449 47.29H275.809L275.779 47.98L268.579 68.2H265.219V67.75ZM281.512 50.56H277.102V47.29H289.612V50.56H285.202V61H281.512V50.56ZM291.897 47.29H295.617V51.25H298.047C299.987 51.25 301.457 51.65 302.457 52.45C303.477 53.25 303.987 54.46 303.987 56.08C303.987 57.7 303.457 58.93 302.397 59.77C301.357 60.59 299.807 61 297.747 61H291.897V47.29ZM297.387 58.09C298.287 58.09 298.977 57.96 299.457 57.7C299.937 57.42 300.177 56.88 300.177 56.08C300.177 55.34 299.957 54.83 299.517 54.55C299.077 54.27 298.407 54.13 297.507 54.13H295.617V58.09H297.387ZM314.38 55.42H306.34V52.39H314.38V55.42ZM325.743 56.02C325.343 56.2 324.873 56.35 324.333 56.47C323.813 56.57 323.223 56.62 322.563 56.62C321.723 56.62 320.963 56.52 320.283 56.32C319.623 56.12 319.053 55.8 318.573 55.36C318.093 54.92 317.723 54.35 317.463 53.65C317.223 52.95 317.103 52.1 317.103 51.1V47.29H320.823V50.95C320.823 51.73 321.003 52.33 321.363 52.75C321.723 53.15 322.443 53.35 323.523 53.35C324.343 53.35 325.083 53.25 325.743 53.05V47.29H329.463V61H325.743V56.02ZM334.565 67.75L336.875 61.15L331.265 47.98V47.29H334.985L338.615 56.26L341.795 47.29H345.155L345.125 47.98L337.925 68.2H334.565V67.75ZM350.858 50.56H346.448V47.29H358.958V50.56H354.548V61H350.858V50.56ZM361.243 47.29H364.963V51.25H367.393C369.333 51.25 370.803 51.65 371.803 52.45C372.823 53.25 373.333 54.46 373.333 56.08C373.333 57.7 372.803 58.93 371.743 59.77C370.703 60.59 369.153 61 367.093 61H361.243V47.29ZM366.733 58.09C367.633 58.09 368.323 57.96 368.803 57.7C369.283 57.42 369.523 56.88 369.523 56.08C369.523 55.34 369.303 54.83 368.863 54.55C368.423 54.27 367.753 54.13 366.853 54.13H364.963V58.09H366.733ZM383.058 61.3C382.838 61.3 382.638 61.29 382.458 61.27C382.298 61.25 382.158 61.23 382.038 61.21V57.64C382.238 57.68 382.398 57.7 382.518 57.7C382.858 57.7 383.148 57.58 383.388 57.34C383.628 57.08 383.818 56.67 383.958 56.11C384.118 55.53 384.228 54.78 384.288 53.86C384.368 52.94 384.408 51.82 384.408 50.5V47.29H394.818V61H391.128V50.56H387.828V52.18C387.828 53.9 387.718 55.34 387.498 56.5C387.298 57.66 386.988 58.6 386.568 59.32C386.168 60.02 385.668 60.53 385.068 60.85C384.488 61.15 383.818 61.3 383.058 61.3ZM400.131 67.75L402.441 61.15L396.831 47.98V47.29H400.551L404.181 56.26L407.361 47.29H410.721L410.691 47.98L403.491 68.2H400.131V67.75ZM420.548 56.02C420.148 56.2 419.678 56.35 419.138 56.47C418.618 56.57 418.028 56.62 417.368 56.62C416.528 56.62 415.768 56.52 415.088 56.32C414.428 56.12 413.858 55.8 413.378 55.36C412.898 54.92 412.528 54.35 412.268 53.65C412.028 52.95 411.908 52.1 411.908 51.1V47.29H415.628V50.95C415.628 51.73 415.808 52.33 416.168 52.75C416.528 53.15 417.248 53.35 418.328 53.35C419.148 53.35 419.888 53.25 420.548 53.05V47.29H424.268V61H420.548V56.02ZM443.769 47.29H447.489V61H427.629V47.29H431.349V57.73H435.729V47.29H439.419V57.73H443.769V47.29ZM457.668 61.21C456.568 61.21 455.558 61.04 454.638 60.7C453.738 60.36 452.958 59.89 452.298 59.29C451.638 58.67 451.128 57.94 450.768 57.1C450.408 56.24 450.228 55.29 450.228 54.25C450.228 53.15 450.418 52.16 450.798 51.28C451.178 50.38 451.698 49.62 452.358 49C453.018 48.38 453.788 47.9 454.668 47.56C455.548 47.22 456.488 47.05 457.488 47.05C458.568 47.05 459.528 47.24 460.368 47.62C461.228 47.98 461.948 48.49 462.528 49.15C463.108 49.79 463.548 50.55 463.848 51.43C464.168 52.29 464.328 53.22 464.328 54.22V55H453.828C454.008 56.06 454.458 56.87 455.178 57.43C455.918 57.99 456.848 58.27 457.968 58.27C458.768 58.27 459.508 58.13 460.188 57.85C460.888 57.55 461.468 57.14 461.928 56.62L463.998 58.51C463.298 59.39 462.398 60.06 461.298 60.52C460.198 60.98 458.988 61.21 457.668 61.21ZM457.338 50.05C456.458 50.05 455.718 50.29 455.118 50.77C454.538 51.23 454.138 51.89 453.918 52.75H460.758C460.638 51.99 460.278 51.35 459.678 50.83C459.078 50.31 458.298 50.05 457.338 50.05ZM482.716 56.02C482.316 56.2 481.846 56.35 481.306 56.47C480.786 56.57 480.196 56.62 479.536 56.62C478.696 56.62 477.936 56.52 477.256 56.32C476.596 56.12 476.026 55.8 475.546 55.36C475.066 54.92 474.696 54.35 474.436 53.65C474.196 52.95 474.076 52.1 474.076 51.1V47.29H477.796V50.95C477.796 51.73 477.976 52.33 478.336 52.75C478.696 53.15 479.416 53.35 480.496 53.35C481.316 53.35 482.056 53.25 482.716 53.05V47.29H486.436V61H482.716V56.02ZM496.427 61.21C495.327 61.21 494.317 61.04 493.397 60.7C492.497 60.36 491.717 59.89 491.057 59.29C490.397 58.67 489.887 57.94 489.527 57.1C489.167 56.24 488.987 55.29 488.987 54.25C488.987 53.15 489.177 52.16 489.557 51.28C489.937 50.38 490.457 49.62 491.117 49C491.777 48.38 492.547 47.9 493.427 47.56C494.307 47.22 495.247 47.05 496.247 47.05C497.327 47.05 498.287 47.24 499.127 47.62C499.987 47.98 500.707 48.49 501.287 49.15C501.867 49.79 502.307 50.55 502.607 51.43C502.927 52.29 503.087 53.22 503.087 54.22V55H492.587C492.767 56.06 493.217 56.87 493.937 57.43C494.677 57.99 495.607 58.27 496.727 58.27C497.527 58.27 498.267 58.13 498.947 57.85C499.647 57.55 500.227 57.14 500.687 56.62L502.757 58.51C502.057 59.39 501.157 60.06 500.057 60.52C498.957 60.98 497.747 61.21 496.427 61.21ZM496.097 50.05C495.217 50.05 494.477 50.29 493.877 50.77C493.297 51.23 492.897 51.89 492.677 52.75H499.517C499.397 51.99 499.037 51.35 498.437 50.83C497.837 50.31 497.057 50.05 496.097 50.05ZM505.226 61.3C505.006 61.3 504.806 61.29 504.626 61.27C504.466 61.25 504.326 61.23 504.206 61.21V57.64C504.406 57.68 504.566 57.7 504.686 57.7C505.026 57.7 505.316 57.58 505.556 57.34C505.796 57.08 505.986 56.67 506.126 56.11C506.286 55.53 506.396 54.78 506.456 53.86C506.536 52.94 506.576 51.82 506.576 50.5V47.29H516.986V61H513.296V50.56H509.996V52.18C509.996 53.9 509.886 55.34 509.666 56.5C509.466 57.66 509.156 58.6 508.736 59.32C508.336 60.02 507.836 60.53 507.236 60.85C506.656 61.15 505.986 61.3 505.226 61.3ZM527.159 61.21C526.079 61.21 525.079 61.04 524.159 60.7C523.259 60.36 522.479 59.88 521.819 59.26C521.179 58.62 520.669 57.87 520.289 57.01C519.929 56.15 519.749 55.19 519.749 54.13C519.749 53.07 519.929 52.11 520.289 51.25C520.669 50.37 521.189 49.62 521.849 49C522.509 48.38 523.289 47.9 524.189 47.56C525.109 47.22 526.099 47.05 527.159 47.05C528.239 47.05 529.229 47.22 530.129 47.56C531.049 47.9 531.839 48.39 532.499 49.03C533.159 49.65 533.669 50.4 534.029 51.28C534.389 52.14 534.569 53.09 534.569 54.13C534.569 55.21 534.379 56.19 533.999 57.07C533.619 57.93 533.099 58.67 532.439 59.29C531.779 59.89 530.999 60.36 530.099 60.7C529.199 61.04 528.219 61.21 527.159 61.21ZM527.159 58.06C528.259 58.06 529.119 57.69 529.739 56.95C530.359 56.21 530.669 55.27 530.669 54.13C530.669 52.99 530.369 52.06 529.769 51.34C529.169 50.6 528.299 50.23 527.159 50.23C526.039 50.23 525.169 50.6 524.549 51.34C523.929 52.08 523.619 53.01 523.619 54.13C523.619 54.67 523.699 55.18 523.859 55.66C524.019 56.14 524.249 56.56 524.549 56.92C524.849 57.28 525.219 57.56 525.659 57.76C526.099 57.96 526.599 58.06 527.159 58.06ZM537.258 47.29H544.668C546.088 47.29 547.158 47.6 547.878 48.22C548.598 48.82 548.958 49.61 548.958 50.59C548.958 51.33 548.778 51.94 548.418 52.42C548.058 52.9 547.588 53.24 547.008 53.44C547.988 53.58 548.788 53.92 549.408 54.46C550.028 55 550.338 55.81 550.338 56.89C550.338 58.21 549.848 59.23 548.868 59.95C547.908 60.65 546.498 61 544.638 61H537.258V47.29ZM540.978 54.82V58.27H543.828C544.768 58.27 545.438 58.13 545.838 57.85C546.238 57.55 546.438 57.11 546.438 56.53C546.438 55.93 546.228 55.5 545.808 55.24C545.388 54.96 544.758 54.82 543.918 54.82H540.978ZM540.978 50.02V52.66H543.558C544.838 52.66 545.478 52.21 545.478 51.31C545.478 50.45 544.828 50.02 543.528 50.02H540.978ZM559.298 61.21C558.198 61.21 557.188 61.04 556.268 60.7C555.368 60.36 554.588 59.89 553.928 59.29C553.268 58.67 552.758 57.94 552.398 57.1C552.038 56.24 551.858 55.29 551.858 54.25C551.858 53.15 552.048 52.16 552.428 51.28C552.808 50.38 553.328 49.62 553.988 49C554.648 48.38 555.418 47.9 556.298 47.56C557.178 47.22 558.118 47.05 559.118 47.05C560.198 47.05 561.158 47.24 561.998 47.62C562.858 47.98 563.578 48.49 564.158 49.15C564.738 49.79 565.178 50.55 565.478 51.43C565.798 52.29 565.958 53.22 565.958 54.22V55H555.458C555.638 56.06 556.088 56.87 556.808 57.43C557.548 57.99 558.478 58.27 559.598 58.27C560.398 58.27 561.138 58.13 561.818 57.85C562.518 57.55 563.098 57.14 563.558 56.62L565.628 58.51C564.928 59.39 564.028 60.06 562.928 60.52C561.828 60.98 560.618 61.21 559.298 61.21ZM558.968 50.05C558.088 50.05 557.348 50.29 556.748 50.77C556.168 51.23 555.768 51.89 555.548 52.75H562.388C562.268 51.99 561.908 51.35 561.308 50.83C560.708 50.31 559.928 50.05 558.968 50.05ZM568.694 47.29H572.414V52.33H573.854L577.154 47.29H581.024V47.8L576.944 53.53L582.044 60.49V61H577.904L573.764 55.15H572.414V61H568.694V47.29ZM588.834 61.21C588.014 61.21 587.214 61.04 586.434 60.7C585.674 60.36 584.994 59.88 584.394 59.26C583.814 58.64 583.344 57.9 582.984 57.04C582.624 56.16 582.444 55.19 582.444 54.13C582.444 53.07 582.614 52.11 582.954 51.25C583.314 50.37 583.784 49.62 584.364 49C584.964 48.38 585.644 47.9 586.404 47.56C587.184 47.22 587.994 47.05 588.834 47.05C589.854 47.05 590.754 47.25 591.534 47.65C592.334 48.05 592.964 48.54 593.424 49.12V47.29H596.934V61H593.424V59.14C592.924 59.76 592.274 60.26 591.474 60.64C590.674 61.02 589.794 61.21 588.834 61.21ZM589.824 58.03C590.844 58.03 591.654 57.68 592.254 56.98C592.874 56.26 593.194 55.33 593.214 54.19V53.95C593.214 52.89 592.904 52.02 592.284 51.34C591.664 50.66 590.844 50.32 589.824 50.32C589.364 50.32 588.924 50.4 588.504 50.56C588.084 50.72 587.714 50.96 587.394 51.28C587.074 51.6 586.824 52 586.644 52.48C586.464 52.96 586.374 53.51 586.374 54.13C586.374 55.33 586.694 56.28 587.334 56.98C587.994 57.68 588.824 58.03 589.824 58.03ZM601.771 61.15C601.171 61.05 600.711 60.82 600.391 60.46C600.091 60.08 599.941 59.63 599.941 59.11C599.941 58.45 600.151 57.93 600.571 57.55C601.011 57.15 601.531 56.95 602.131 56.95C602.771 56.95 603.321 57.16 603.781 57.58C604.261 58 604.501 58.6 604.501 59.38C604.501 59.9 604.361 60.48 604.081 61.12C603.801 61.76 603.371 62.59 602.791 63.61L601.591 65.8H599.191L601.771 61.15ZM615.715 47.29H628.615V61H624.925V50.56H619.435V61H615.715V47.29ZM632.18 68.2V47.29H635.69V49.12C636.15 48.54 636.77 48.05 637.55 47.65C638.35 47.25 639.26 47.05 640.28 47.05C641.12 47.05 641.92 47.22 642.68 47.56C643.46 47.9 644.14 48.38 644.72 49C645.32 49.62 645.79 50.37 646.13 51.25C646.49 52.11 646.67 53.07 646.67 54.13C646.67 55.19 646.49 56.16 646.13 57.04C645.77 57.9 645.29 58.64 644.69 59.26C644.11 59.88 643.43 60.36 642.65 60.7C641.89 61.04 641.1 61.21 640.28 61.21C639.38 61.21 638.55 61.05 637.79 60.73C637.03 60.39 636.4 59.94 635.9 59.38V68.2H632.18ZM639.29 50.32C638.27 50.32 637.46 50.65 636.86 51.31C636.26 51.95 635.94 52.78 635.9 53.8V54.19C635.92 55.33 636.23 56.26 636.83 56.98C637.45 57.68 638.27 58.03 639.29 58.03C640.29 58.03 641.11 57.68 641.75 56.98C642.41 56.28 642.74 55.33 642.74 54.13C642.74 53.51 642.64 52.96 642.44 52.48C642.26 52 642.01 51.6 641.69 51.28C641.39 50.96 641.03 50.72 640.61 50.56C640.19 50.4 639.75 50.32 639.29 50.32ZM656.007 61.21C654.927 61.21 653.927 61.04 653.007 60.7C652.107 60.36 651.327 59.88 650.667 59.26C650.027 58.62 649.517 57.87 649.137 57.01C648.777 56.15 648.597 55.19 648.597 54.13C648.597 53.07 648.777 52.11 649.137 51.25C649.517 50.37 650.037 49.62 650.697 49C651.357 48.38 652.137 47.9 653.037 47.56C653.957 47.22 654.947 47.05 656.007 47.05C657.087 47.05 658.077 47.22 658.977 47.56C659.897 47.9 660.687 48.39 661.347 49.03C662.007 49.65 662.517 50.4 662.877 51.28C663.237 52.14 663.417 53.09 663.417 54.13C663.417 55.21 663.227 56.19 662.847 57.07C662.467 57.93 661.947 58.67 661.287 59.29C660.627 59.89 659.847 60.36 658.947 60.7C658.047 61.04 657.067 61.21 656.007 61.21ZM656.007 58.06C657.107 58.06 657.967 57.69 658.587 56.95C659.207 56.21 659.517 55.27 659.517 54.13C659.517 52.99 659.217 52.06 658.617 51.34C658.017 50.6 657.147 50.23 656.007 50.23C654.887 50.23 654.017 50.6 653.397 51.34C652.777 52.08 652.467 53.01 652.467 54.13C652.467 54.67 652.547 55.18 652.707 55.66C652.867 56.14 653.097 56.56 653.397 56.92C653.697 57.28 654.067 57.56 654.507 57.76C654.947 57.96 655.447 58.06 656.007 58.06ZM672.496 61.21C671.396 61.21 670.406 61.04 669.526 60.7C668.646 60.36 667.886 59.89 667.246 59.29C666.626 58.67 666.146 57.93 665.806 57.07C665.466 56.21 665.296 55.25 665.296 54.19C665.296 53.07 665.476 52.07 665.836 51.19C666.216 50.29 666.726 49.54 667.366 48.94C668.006 48.32 668.766 47.85 669.646 47.53C670.526 47.21 671.476 47.05 672.496 47.05C673.656 47.05 674.706 47.25 675.646 47.65C676.606 48.05 677.356 48.55 677.896 49.15L675.976 51.67C675.576 51.23 675.106 50.88 674.566 50.62C674.046 50.36 673.456 50.23 672.796 50.23C671.676 50.23 670.786 50.59 670.126 51.31C669.486 52.03 669.166 52.95 669.166 54.07C669.166 55.23 669.496 56.19 670.156 56.95C670.836 57.69 671.746 58.06 672.886 58.06C673.546 58.06 674.136 57.93 674.656 57.67C675.176 57.39 675.636 57.03 676.036 56.59L678.226 58.75C677.626 59.53 676.826 60.14 675.826 60.58C674.846 61 673.736 61.21 672.496 61.21ZM683.611 50.56H679.201V47.29H691.711V50.56H687.301V61H683.611V50.56ZM700.069 61.21C698.989 61.21 697.989 61.04 697.069 60.7C696.169 60.36 695.389 59.88 694.729 59.26C694.089 58.62 693.579 57.87 693.199 57.01C692.839 56.15 692.659 55.19 692.659 54.13C692.659 53.07 692.839 52.11 693.199 51.25C693.579 50.37 694.099 49.62 694.759 49C695.419 48.38 696.199 47.9 697.099 47.56C698.019 47.22 699.009 47.05 700.069 47.05C701.149 47.05 702.139 47.22 703.039 47.56C703.959 47.9 704.749 48.39 705.409 49.03C706.069 49.65 706.579 50.4 706.939 51.28C707.299 52.14 707.479 53.09 707.479 54.13C707.479 55.21 707.289 56.19 706.909 57.07C706.529 57.93 706.009 58.67 705.349 59.29C704.689 59.89 703.909 60.36 703.009 60.7C702.109 61.04 701.129 61.21 700.069 61.21ZM700.069 58.06C701.169 58.06 702.029 57.69 702.649 56.95C703.269 56.21 703.579 55.27 703.579 54.13C703.579 52.99 703.279 52.06 702.679 51.34C702.079 50.6 701.209 50.23 700.069 50.23C698.949 50.23 698.079 50.6 697.459 51.34C696.839 52.08 696.529 53.01 696.529 54.13C696.529 54.67 696.609 55.18 696.769 55.66C696.929 56.14 697.159 56.56 697.459 56.92C697.759 57.28 698.129 57.56 698.569 57.76C699.009 57.96 699.509 58.06 700.069 58.06ZM717.961 47.29H730.861V61H727.171V50.56H721.681V61H717.961V47.29ZM741.026 61.21C739.946 61.21 738.946 61.04 738.026 60.7C737.126 60.36 736.346 59.88 735.686 59.26C735.046 58.62 734.536 57.87 734.156 57.01C733.796 56.15 733.616 55.19 733.616 54.13C733.616 53.07 733.796 52.11 734.156 51.25C734.536 50.37 735.056 49.62 735.716 49C736.376 48.38 737.156 47.9 738.056 47.56C738.976 47.22 739.966 47.05 741.026 47.05C742.106 47.05 743.096 47.22 743.996 47.56C744.916 47.9 745.706 48.39 746.366 49.03C747.026 49.65 747.536 50.4 747.896 51.28C748.256 52.14 748.436 53.09 748.436 54.13C748.436 55.21 748.246 56.19 747.866 57.07C747.486 57.93 746.966 58.67 746.306 59.29C745.646 59.89 744.866 60.36 743.966 60.7C743.066 61.04 742.086 61.21 741.026 61.21ZM741.026 58.06C742.126 58.06 742.986 57.69 743.606 56.95C744.226 56.21 744.536 55.27 744.536 54.13C744.536 52.99 744.236 52.06 743.636 51.34C743.036 50.6 742.166 50.23 741.026 50.23C739.906 50.23 739.036 50.6 738.416 51.34C737.796 52.08 737.486 53.01 737.486 54.13C737.486 54.67 737.566 55.18 737.726 55.66C737.886 56.14 738.116 56.56 738.416 56.92C738.716 57.28 739.086 57.56 739.526 57.76C739.966 57.96 740.466 58.06 741.026 58.06ZM753.836 50.56H749.426V47.29H761.936V50.56H757.526V61H753.836V50.56ZM770.294 61.21C769.214 61.21 768.214 61.04 767.294 60.7C766.394 60.36 765.614 59.88 764.954 59.26C764.314 58.62 763.804 57.87 763.424 57.01C763.064 56.15 762.884 55.19 762.884 54.13C762.884 53.07 763.064 52.11 763.424 51.25C763.804 50.37 764.324 49.62 764.984 49C765.644 48.38 766.424 47.9 767.324 47.56C768.244 47.22 769.234 47.05 770.294 47.05C771.374 47.05 772.364 47.22 773.264 47.56C774.184 47.9 774.974 48.39 775.634 49.03C776.294 49.65 776.804 50.4 777.164 51.28C777.524 52.14 777.704 53.09 777.704 54.13C777.704 55.21 777.514 56.19 777.134 57.07C776.754 57.93 776.234 58.67 775.574 59.29C774.914 59.89 774.134 60.36 773.234 60.7C772.334 61.04 771.354 61.21 770.294 61.21ZM770.294 58.06C771.394 58.06 772.254 57.69 772.874 56.95C773.494 56.21 773.804 55.27 773.804 54.13C773.804 52.99 773.504 52.06 772.904 51.34C772.304 50.6 771.434 50.23 770.294 50.23C769.174 50.23 768.304 50.6 767.684 51.34C767.064 52.08 766.754 53.01 766.754 54.13C766.754 54.67 766.834 55.18 766.994 55.66C767.154 56.14 767.384 56.56 767.684 56.92C767.984 57.28 768.354 57.56 768.794 57.76C769.234 57.96 769.734 58.06 770.294 58.06ZM781.597 47.29H784.777L788.407 55.24L791.827 47.29H795.097L797.377 61H793.897L792.577 52.99L789.037 61H787.447L783.877 53.14L782.587 61H779.287L781.597 47.29ZM800.912 67.75L803.222 61.15L797.612 47.98V47.29H801.332L804.962 56.26L808.142 47.29H811.502L811.472 47.98L804.272 68.2H800.912V67.75ZM829.122 56.02C828.722 56.2 828.252 56.35 827.712 56.47C827.192 56.57 826.602 56.62 825.942 56.62C825.102 56.62 824.342 56.52 823.662 56.32C823.002 56.12 822.432 55.8 821.952 55.36C821.472 54.92 821.102 54.35 820.842 53.65C820.602 52.95 820.482 52.1 820.482 51.1V47.29H824.202V50.95C824.202 51.73 824.382 52.33 824.742 52.75C825.102 53.15 825.822 53.35 826.902 53.35C827.722 53.35 828.462 53.25 829.122 53.05V47.29H832.842V61H829.122V56.02ZM839.354 50.56H834.944V47.29H847.454V50.56H843.044V61H839.354V50.56ZM855.811 61.21C854.731 61.21 853.731 61.04 852.811 60.7C851.911 60.36 851.131 59.88 850.471 59.26C849.831 58.62 849.321 57.87 848.941 57.01C848.581 56.15 848.401 55.19 848.401 54.13C848.401 53.07 848.581 52.11 848.941 51.25C849.321 50.37 849.841 49.62 850.501 49C851.161 48.38 851.941 47.9 852.841 47.56C853.761 47.22 854.751 47.05 855.811 47.05C856.891 47.05 857.881 47.22 858.781 47.56C859.701 47.9 860.491 48.39 861.151 49.03C861.811 49.65 862.321 50.4 862.681 51.28C863.041 52.14 863.221 53.09 863.221 54.13C863.221 55.21 863.031 56.19 862.651 57.07C862.271 57.93 861.751 58.67 861.091 59.29C860.431 59.89 859.651 60.36 858.751 60.7C857.851 61.04 856.871 61.21 855.811 61.21ZM855.811 58.06C856.911 58.06 857.771 57.69 858.391 56.95C859.011 56.21 859.321 55.27 859.321 54.13C859.321 52.99 859.021 52.06 858.421 51.34C857.821 50.6 856.951 50.23 855.811 50.23C854.691 50.23 853.821 50.6 853.201 51.34C852.581 52.08 852.271 53.01 852.271 54.13C852.271 54.67 852.351 55.18 852.511 55.66C852.671 56.14 852.901 56.56 853.201 56.92C853.501 57.28 853.871 57.56 854.311 57.76C854.751 57.96 855.251 58.06 855.811 58.06ZM873.704 47.29H877.424V55.18L883.784 47.29H886.694V61H882.974V52.66L876.254 61H873.704V47.29ZM896.617 61.21C895.517 61.21 894.527 61.04 893.647 60.7C892.767 60.36 892.007 59.89 891.367 59.29C890.747 58.67 890.267 57.93 889.927 57.07C889.587 56.21 889.417 55.25 889.417 54.19C889.417 53.07 889.597 52.07 889.957 51.19C890.337 50.29 890.847 49.54 891.487 48.94C892.127 48.32 892.887 47.85 893.767 47.53C894.647 47.21 895.597 47.05 896.617 47.05C897.777 47.05 898.827 47.25 899.767 47.65C900.727 48.05 901.477 48.55 902.017 49.15L900.097 51.67C899.697 51.23 899.227 50.88 898.687 50.62C898.167 50.36 897.577 50.23 896.917 50.23C895.797 50.23 894.907 50.59 894.247 51.31C893.607 52.03 893.287 52.95 893.287 54.07C893.287 55.23 893.617 56.19 894.277 56.95C894.957 57.69 895.867 58.06 897.007 58.06C897.667 58.06 898.257 57.93 898.777 57.67C899.297 57.39 899.757 57.03 900.157 56.59L902.347 58.75C901.747 59.53 900.947 60.14 899.947 60.58C898.967 61 897.857 61.21 896.617 61.21ZM904.583 47.29H908.303V52.33H909.743L913.043 47.29H916.913V47.8L912.833 53.53L917.933 60.49V61H913.793L909.653 55.15H908.303V61H904.583V47.29ZM919.777 61.3C919.557 61.3 919.357 61.29 919.177 61.27C919.017 61.25 918.877 61.23 918.757 61.21V57.64C918.957 57.68 919.117 57.7 919.237 57.7C919.577 57.7 919.867 57.58 920.107 57.34C920.347 57.08 920.537 56.67 920.677 56.11C920.837 55.53 920.947 54.78 921.007 53.86C921.087 52.94 921.127 51.82 921.127 50.5V47.29H931.537V61H927.847V50.56H924.547V52.18C924.547 53.9 924.437 55.34 924.217 56.5C924.017 57.66 923.707 58.6 923.287 59.32C922.887 60.02 922.387 60.53 921.787 60.85C921.207 61.15 920.537 61.3 919.777 61.3ZM935.11 47.29H938.83V52.15H940.72C940.92 51.35 941.24 50.64 941.68 50.02C942.12 49.38 942.64 48.84 943.24 48.4C943.86 47.96 944.54 47.63 945.28 47.41C946.02 47.17 946.79 47.05 947.59 47.05C948.65 47.05 949.62 47.22 950.5 47.56C951.38 47.88 952.14 48.35 952.78 48.97C953.42 49.57 953.92 50.31 954.28 51.19C954.64 52.05 954.82 53.03 954.82 54.13C954.82 55.27 954.62 56.28 954.22 57.16C953.84 58.04 953.31 58.78 952.63 59.38C951.97 59.98 951.2 60.44 950.32 60.76C949.44 61.06 948.52 61.21 947.56 61.21C946.62 61.21 945.75 61.07 944.95 60.79C944.15 60.51 943.44 60.12 942.82 59.62C942.22 59.1 941.72 58.47 941.32 57.73C940.94 56.99 940.69 56.16 940.57 55.24H938.83V61H935.11V47.29ZM947.59 57.97C948.67 57.97 949.49 57.61 950.05 56.89C950.63 56.17 950.92 55.26 950.92 54.16C950.92 53.02 950.62 52.09 950.02 51.37C949.44 50.65 948.62 50.29 947.56 50.29C946.5 50.29 945.67 50.65 945.07 51.37C944.49 52.07 944.2 52.96 944.2 54.04C944.2 55.18 944.5 56.12 945.1 56.86C945.72 57.6 946.55 57.97 947.59 57.97ZM965.411 56.02C965.011 56.2 964.541 56.35 964.001 56.47C963.481 56.57 962.891 56.62 962.231 56.62C961.391 56.62 960.631 56.52 959.951 56.32C959.291 56.12 958.721 55.8 958.241 55.36C957.761 54.92 957.391 54.35 957.131 53.65C956.891 52.95 956.771 52.1 956.771 51.1V47.29H960.491V50.95C960.491 51.73 960.671 52.33 961.031 52.75C961.391 53.15 962.111 53.35 963.191 53.35C964.011 53.35 964.751 53.25 965.411 53.05V47.29H969.131V61H965.411V56.02ZM972.493 47.29H976.213V55.18L982.573 47.29H985.483V61H981.763V52.66L975.043 61H972.493V47.29ZM988.566 61.3C988.346 61.3 988.146 61.29 987.966 61.27C987.806 61.25 987.666 61.23 987.546 61.21V57.64C987.746 57.68 987.906 57.7 988.026 57.7C988.366 57.7 988.656 57.58 988.896 57.34C989.136 57.08 989.326 56.67 989.466 56.11C989.626 55.53 989.736 54.78 989.796 53.86C989.876 52.94 989.916 51.82 989.916 50.5V47.29H1000.33V61H996.636V50.56H993.336V52.18C993.336 53.9 993.226 55.34 993.006 56.5C992.806 57.66 992.496 58.6 992.076 59.32C991.676 60.02 991.176 60.53 990.576 60.85C989.996 61.15 989.326 61.3 988.566 61.3ZM1003.9 47.29H1007.62V55.18L1013.98 47.29H1016.89V61H1013.17V52.66L1006.45 61H1003.9V47.29ZM1034.82 61.21C1033.74 61.21 1032.74 61.04 1031.82 60.7C1030.92 60.36 1030.14 59.88 1029.48 59.26C1028.84 58.62 1028.33 57.87 1027.95 57.01C1027.59 56.15 1027.41 55.19 1027.41 54.13C1027.41 53.07 1027.59 52.11 1027.95 51.25C1028.33 50.37 1028.85 49.62 1029.51 49C1030.17 48.38 1030.95 47.9 1031.85 47.56C1032.77 47.22 1033.76 47.05 1034.82 47.05C1035.9 47.05 1036.89 47.22 1037.79 47.56C1038.71 47.9 1039.5 48.39 1040.16 49.03C1040.82 49.65 1041.33 50.4 1041.69 51.28C1042.05 52.14 1042.23 53.09 1042.23 54.13C1042.23 55.21 1042.04 56.19 1041.66 57.07C1041.28 57.93 1040.76 58.67 1040.1 59.29C1039.44 59.89 1038.66 60.36 1037.76 60.7C1036.86 61.04 1035.88 61.21 1034.82 61.21ZM1034.82 58.06C1035.92 58.06 1036.78 57.69 1037.4 56.95C1038.02 56.21 1038.33 55.27 1038.33 54.13C1038.33 52.99 1038.03 52.06 1037.43 51.34C1036.83 50.6 1035.96 50.23 1034.82 50.23C1033.7 50.23 1032.83 50.6 1032.21 51.34C1031.59 52.08 1031.28 53.01 1031.28 54.13C1031.28 54.67 1031.36 55.18 1031.52 55.66C1031.68 56.14 1031.91 56.56 1032.21 56.92C1032.51 57.28 1032.88 57.56 1033.32 57.76C1033.76 57.96 1034.26 58.06 1034.82 58.06ZM1061.05 47.29H1064.77V61H1044.91V47.29H1048.63V57.73H1053.01V47.29H1056.7V57.73H1061.05V47.29ZM1068.32 47.29H1072.04V55.18L1078.4 47.29H1081.31V61H1077.59V52.66L1070.87 61H1068.32V47.29ZM1091.69 61.27C1089.03 61.27 1087.09 60.44 1085.87 58.78C1084.65 57.12 1084.04 54.63 1084.04 51.31C1084.04 49.39 1084.24 47.75 1084.64 46.39C1085.04 45.01 1085.61 43.89 1086.35 43.03C1087.11 42.15 1088.02 41.51 1089.08 41.11C1090.16 40.69 1091.36 40.48 1092.68 40.48C1093.44 40.48 1094.02 40.41 1094.42 40.27C1094.82 40.11 1095.12 39.81 1095.32 39.37L1098.26 40.24C1098.1 40.82 1097.9 41.32 1097.66 41.74C1097.44 42.14 1097.13 42.48 1096.73 42.76C1096.33 43.04 1095.82 43.26 1095.2 43.42C1094.58 43.56 1093.79 43.66 1092.83 43.72C1091.91 43.78 1091.11 43.9 1090.43 44.08C1089.77 44.26 1089.21 44.58 1088.75 45.04C1088.31 45.48 1087.96 46.1 1087.7 46.9C1087.46 47.7 1087.3 48.74 1087.22 50.02C1087.8 48.94 1088.54 48.19 1089.44 47.77C1090.36 47.33 1091.36 47.11 1092.44 47.11C1093.44 47.11 1094.34 47.27 1095.14 47.59C1095.96 47.91 1096.65 48.37 1097.21 48.97C1097.77 49.57 1098.2 50.29 1098.5 51.13C1098.8 51.95 1098.95 52.87 1098.95 53.89C1098.95 55.01 1098.77 56.03 1098.41 56.95C1098.05 57.85 1097.55 58.62 1096.91 59.26C1096.27 59.9 1095.5 60.4 1094.6 60.76C1093.72 61.1 1092.75 61.27 1091.69 61.27ZM1091.6 58C1092.62 58 1093.44 57.66 1094.06 56.98C1094.7 56.28 1095.02 55.32 1095.02 54.1C1095.02 52.9 1094.72 51.96 1094.12 51.28C1093.54 50.58 1092.71 50.23 1091.63 50.23C1090.57 50.23 1089.73 50.57 1089.11 51.25C1088.49 51.93 1088.18 52.88 1088.18 54.1C1088.18 55.3 1088.49 56.25 1089.11 56.95C1089.73 57.65 1090.56 58 1091.6 58ZM1101.66 47.29H1105.38V52.33H1106.82L1110.12 47.29H1113.99V47.8L1109.91 53.53L1115.01 60.49V61H1110.87L1106.73 55.15H1105.38V61H1101.66V47.29ZM1116.75 47.29H1120.47V55.18L1126.83 47.29H1129.74V61H1126.02V52.66L1119.3 61H1116.75V47.29ZM1135.31 61.3C1134.61 61.3 1134.07 61.1 1133.69 60.7C1133.33 60.28 1133.15 59.78 1133.15 59.2C1133.15 58.58 1133.33 58.06 1133.69 57.64C1134.05 57.22 1134.59 57.01 1135.31 57.01C1136.03 57.01 1136.58 57.22 1136.96 57.64C1137.34 58.06 1137.53 58.58 1137.53 59.2C1137.53 59.78 1137.33 60.28 1136.93 60.7C1136.55 61.1 1136.01 61.3 1135.31 61.3Z" fill="black"/>
<defs>
<linearGradient id="paint0_linear_91_9" x1="1359.58" y1="58.0941" x2="-215.816" y2="58.0941" gradientUnits="userSpaceOnUse">
<stop stop-color="white" stop-opacity="0.64"/>
<stop offset="0.325" stop-color="#2736C1" stop-opacity="0.72"/>
<stop offset="1" stop-color="#091FEA"/>
</linearGradient>
</defs>
</svg>
