<svg width="364" height="90" viewBox="0 0 364 90" fill="none" xmlns="http://www.w3.org/2000/svg">
<path d="M328.369 41.9832C323.967 38.184 321.437 32.6574 321.437 26.8429V20C321.437 8.95429 312.483 0 301.437 0H20C8.95435 0 0 8.9543 0 20V36V70C0 81.0457 8.95432 90 20 90L330.219 89.9999C348.753 89.9999 357.318 66.9698 343.287 54.8597L328.369 41.9832Z" fill="url(#paint0_linear_106_16)" fill-opacity="0.76"/>
<path d="M15.976 21.64H13.288V19.8H20.776V21.64H18.12V31H15.976V21.64ZM23.7638 31.112C23.3264 31.112 22.8998 31.0213 22.4838 30.84C22.0784 30.6587 21.7158 30.4027 21.3958 30.072C21.0864 29.7413 20.8358 29.3467 20.6438 28.888C20.4518 28.4187 20.3558 27.9013 20.3558 27.336C20.3558 26.7707 20.4464 26.2587 20.6278 25.8C20.8198 25.3307 21.0704 24.9307 21.3798 24.6C21.6998 24.2693 22.0624 24.0133 22.4678 23.832C22.8838 23.6507 23.3158 23.56 23.7638 23.56C24.3078 23.56 24.7878 23.6667 25.2038 23.88C25.6304 24.0933 25.9664 24.3547 26.2118 24.664V23.688H28.0838V31H26.2118V30.008C25.9451 30.3387 25.5984 30.6053 25.1718 30.808C24.7451 31.0107 24.2758 31.112 23.7638 31.112ZM24.2918 29.416C24.8358 29.416 25.2678 29.2293 25.5878 28.856C25.9184 28.472 26.0891 27.976 26.0998 27.368V27.24C26.0998 26.6747 25.9344 26.2107 25.6038 25.848C25.2731 25.4853 24.8358 25.304 24.2918 25.304C24.0464 25.304 23.8118 25.3467 23.5878 25.432C23.3638 25.5173 23.1664 25.6453 22.9958 25.816C22.8251 25.9867 22.6918 26.2 22.5958 26.456C22.4998 26.712 22.4518 27.0053 22.4518 27.336C22.4518 27.976 22.6224 28.4827 22.9638 28.856C23.3158 29.2293 23.7584 29.416 24.2918 29.416ZM29.9753 23.688H31.9593V26.376H32.7273L34.4873 23.688H36.5513V23.96L34.3753 27.016L37.0953 30.728V31H34.8873L32.6793 27.88H31.9593V31H29.9753V23.688ZM48.4827 29.256H49.3627C49.6401 28.68 49.8481 28.04 49.9867 27.336C50.1254 26.6213 50.1947 25.7787 50.1947 24.808V23.688H55.8907V29.256H57.0107V32.632H55.3947V31H50.1147V32.632H48.4827V29.256ZM51.9707 25.48C51.9707 26.9627 51.7521 28.2213 51.3147 29.256H53.9067V25.432H51.9707V25.48ZM61.523 31.112C60.9363 31.112 60.3976 31.0213 59.907 30.84C59.427 30.6587 59.011 30.408 58.659 30.088C58.307 29.7573 58.035 29.368 57.843 28.92C57.651 28.4613 57.555 27.9547 57.555 27.4C57.555 26.8133 57.6563 26.2853 57.859 25.816C58.0616 25.336 58.339 24.9307 58.691 24.6C59.043 24.2693 59.4536 24.0133 59.923 23.832C60.3923 23.6507 60.8936 23.56 61.427 23.56C62.003 23.56 62.515 23.6613 62.963 23.864C63.4216 24.056 63.8056 24.328 64.115 24.68C64.4243 25.0213 64.659 25.4267 64.819 25.896C64.9896 26.3547 65.075 26.8507 65.075 27.384V27.8H59.475C59.571 28.3653 59.811 28.7973 60.195 29.096C60.5896 29.3947 61.0856 29.544 61.683 29.544C62.1096 29.544 62.5043 29.4693 62.867 29.32C63.2403 29.16 63.5496 28.9413 63.795 28.664L64.899 29.672C64.5256 30.1413 64.0456 30.4987 63.459 30.744C62.8723 30.9893 62.227 31.112 61.523 31.112ZM61.347 25.16C60.8776 25.16 60.483 25.288 60.163 25.544C59.8536 25.7893 59.6403 26.1413 59.523 26.6H63.171C63.107 26.1947 62.915 25.8533 62.595 25.576C62.275 25.2987 61.859 25.16 61.347 25.16ZM67.9795 25.432H65.6275V23.688H72.2995V25.432H69.9475V31H67.9795V25.432ZM73.5182 23.688H75.5022V27.896L78.8942 23.688H80.4462V31H78.4622V26.552L74.8782 31H73.5182V23.688ZM93.6393 23.688H95.6233V27.896L99.0153 23.688H100.567V31H98.5833V26.552L94.9993 31H93.6393V23.688ZM104.852 31.112C104.457 31.112 104.089 31.0693 103.748 30.984C103.417 30.8987 103.118 30.792 102.852 30.664C102.596 30.536 102.372 30.3973 102.18 30.248C101.998 30.0987 101.86 29.96 101.764 29.832L103.028 28.648C103.198 28.8613 103.438 29.048 103.748 29.208C104.057 29.3573 104.414 29.432 104.82 29.432C105.641 29.432 106.052 29.1493 106.052 28.584C106.052 28.3707 105.961 28.1893 105.78 28.04C105.598 27.8907 105.284 27.816 104.836 27.816H103.812V26.424H104.612C104.953 26.424 105.22 26.376 105.412 26.28C105.604 26.1733 105.7 26.0133 105.7 25.8C105.7 25.6187 105.604 25.48 105.412 25.384C105.22 25.2773 104.969 25.224 104.66 25.224C104.372 25.224 104.089 25.288 103.812 25.416C103.545 25.5333 103.316 25.6827 103.124 25.864L102.052 24.744C102.169 24.6053 102.313 24.4667 102.484 24.328C102.665 24.1893 102.873 24.0667 103.108 23.96C103.342 23.8427 103.609 23.7467 103.908 23.672C104.206 23.5973 104.532 23.56 104.884 23.56C105.3 23.56 105.678 23.608 106.02 23.704C106.361 23.8 106.654 23.9333 106.9 24.104C107.145 24.264 107.332 24.4667 107.46 24.712C107.598 24.9467 107.668 25.208 107.668 25.496C107.668 25.8373 107.577 26.136 107.396 26.392C107.214 26.648 106.964 26.8507 106.644 27C107.124 27.1493 107.481 27.3733 107.716 27.672C107.961 27.9707 108.084 28.328 108.084 28.744C108.084 29.0747 108.009 29.384 107.86 29.672C107.71 29.96 107.497 30.2107 107.22 30.424C106.942 30.6373 106.601 30.808 106.196 30.936C105.801 31.0533 105.353 31.112 104.852 31.112ZM110.13 34.6L111.362 31.08L108.37 24.056V23.688H110.354L112.29 28.472L113.986 23.688H115.778L115.762 24.056L111.922 34.84H110.13V34.6ZM121.019 28.344C120.805 28.44 120.555 28.52 120.267 28.584C119.989 28.6373 119.675 28.664 119.323 28.664C118.875 28.664 118.469 28.6107 118.107 28.504C117.755 28.3973 117.451 28.2267 117.195 27.992C116.939 27.7573 116.741 27.4533 116.603 27.08C116.475 26.7067 116.411 26.2533 116.411 25.72V23.688H118.395V25.64C118.395 26.056 118.491 26.376 118.683 26.6C118.875 26.8133 119.259 26.92 119.835 26.92C120.272 26.92 120.667 26.8667 121.019 26.76V23.688H123.003V31H121.019V28.344ZM127.772 31.112C127.334 31.112 126.908 31.0213 126.492 30.84C126.086 30.6587 125.724 30.4027 125.404 30.072C125.094 29.7413 124.844 29.3467 124.652 28.888C124.46 28.4187 124.364 27.9013 124.364 27.336C124.364 26.7707 124.454 26.2587 124.636 25.8C124.828 25.3307 125.078 24.9307 125.388 24.6C125.708 24.2693 126.07 24.0133 126.476 23.832C126.892 23.6507 127.324 23.56 127.772 23.56C128.316 23.56 128.796 23.6667 129.212 23.88C129.638 24.0933 129.974 24.3547 130.22 24.664V23.688H132.092V31H130.22V30.008C129.953 30.3387 129.606 30.6053 129.18 30.808C128.753 31.0107 128.284 31.112 127.772 31.112ZM128.3 29.416C128.844 29.416 129.276 29.2293 129.596 28.856C129.926 28.472 130.097 27.976 130.108 27.368V27.24C130.108 26.6747 129.942 26.2107 129.612 25.848C129.281 25.4853 128.844 25.304 128.3 25.304C128.054 25.304 127.82 25.3467 127.596 25.432C127.372 25.5173 127.174 25.6453 127.004 25.816C126.833 25.9867 126.7 26.2 126.604 26.456C126.508 26.712 126.46 27.0053 126.46 27.336C126.46 27.976 126.63 28.4827 126.972 28.856C127.324 29.2293 127.766 29.416 128.3 29.416ZM133.983 23.688H135.967V26.28H136.975C137.082 25.8533 137.252 25.4747 137.487 25.144C137.722 24.8027 137.999 24.5147 138.319 24.28C138.65 24.0453 139.012 23.8693 139.407 23.752C139.802 23.624 140.212 23.56 140.639 23.56C141.204 23.56 141.722 23.6507 142.191 23.832C142.66 24.0027 143.066 24.2533 143.407 24.584C143.748 24.904 144.015 25.2987 144.207 25.768C144.399 26.2267 144.495 26.7493 144.495 27.336C144.495 27.944 144.388 28.4827 144.175 28.952C143.972 29.4213 143.69 29.816 143.327 30.136C142.975 30.456 142.564 30.7013 142.095 30.872C141.626 31.032 141.135 31.112 140.623 31.112C140.122 31.112 139.658 31.0373 139.231 30.888C138.804 30.7387 138.426 30.5307 138.095 30.264C137.775 29.9867 137.508 29.6507 137.295 29.256C137.092 28.8613 136.959 28.4187 136.895 27.928H135.967V31H133.983V23.688ZM140.639 29.384C141.215 29.384 141.652 29.192 141.951 28.808C142.26 28.424 142.415 27.9387 142.415 27.352C142.415 26.744 142.255 26.248 141.935 25.864C141.626 25.48 141.188 25.288 140.623 25.288C140.058 25.288 139.615 25.48 139.295 25.864C138.986 26.2373 138.831 26.712 138.831 27.288C138.831 27.896 138.991 28.3973 139.311 28.792C139.642 29.1867 140.084 29.384 140.639 29.384ZM147.397 25.432H145.045V23.688H151.717V25.432H149.365V31H147.397V25.432ZM164.245 23.688H166.229V27.896L169.621 23.688H171.173V31H169.189V26.552L165.605 31H164.245V23.688ZM176.465 31.112C175.879 31.112 175.351 31.0213 174.881 30.84C174.412 30.6587 174.007 30.408 173.665 30.088C173.335 29.7573 173.079 29.3627 172.897 28.904C172.716 28.4453 172.625 27.9333 172.625 27.368C172.625 26.7707 172.721 26.2373 172.913 25.768C173.116 25.288 173.388 24.888 173.729 24.568C174.071 24.2373 174.476 23.9867 174.945 23.816C175.415 23.6453 175.921 23.56 176.465 23.56C177.084 23.56 177.644 23.6667 178.145 23.88C178.657 24.0933 179.057 24.36 179.345 24.68L178.321 26.024C178.108 25.7893 177.857 25.6027 177.569 25.464C177.292 25.3253 176.977 25.256 176.625 25.256C176.028 25.256 175.553 25.448 175.201 25.832C174.86 26.216 174.689 26.7067 174.689 27.304C174.689 27.9227 174.865 28.4347 175.217 28.84C175.58 29.2347 176.065 29.432 176.673 29.432C177.025 29.432 177.34 29.3627 177.617 29.224C177.895 29.0747 178.14 28.8827 178.353 28.648L179.521 29.8C179.201 30.216 178.775 30.5413 178.241 30.776C177.719 31 177.127 31.112 176.465 31.112ZM182.394 25.432H180.042V23.688H186.714V25.432H184.362V31H182.394V25.432ZM191.171 31.112C190.595 31.112 190.062 31.0213 189.571 30.84C189.091 30.6587 188.675 30.4027 188.323 30.072C187.982 29.7307 187.71 29.3307 187.507 28.872C187.315 28.4133 187.219 27.9013 187.219 27.336C187.219 26.7707 187.315 26.2587 187.507 25.8C187.71 25.3307 187.987 24.9307 188.339 24.6C188.691 24.2693 189.107 24.0133 189.587 23.832C190.078 23.6507 190.606 23.56 191.171 23.56C191.747 23.56 192.275 23.6507 192.755 23.832C193.246 24.0133 193.667 24.2747 194.019 24.616C194.371 24.9467 194.643 25.3467 194.835 25.816C195.027 26.2747 195.123 26.7813 195.123 27.336C195.123 27.912 195.022 28.4347 194.819 28.904C194.616 29.3627 194.339 29.7573 193.987 30.088C193.635 30.408 193.219 30.6587 192.739 30.84C192.259 31.0213 191.736 31.112 191.171 31.112ZM191.171 29.432C191.758 29.432 192.216 29.2347 192.547 28.84C192.878 28.4453 193.043 27.944 193.043 27.336C193.043 26.728 192.883 26.232 192.563 25.848C192.243 25.4533 191.779 25.256 191.171 25.256C190.574 25.256 190.11 25.4533 189.779 25.848C189.448 26.2427 189.283 26.7387 189.283 27.336C189.283 27.624 189.326 27.896 189.411 28.152C189.496 28.408 189.619 28.632 189.779 28.824C189.939 29.016 190.136 29.1653 190.371 29.272C190.606 29.3787 190.872 29.432 191.171 29.432ZM196.557 34.84V23.688H198.429V24.664C198.675 24.3547 199.005 24.0933 199.421 23.88C199.848 23.6667 200.333 23.56 200.877 23.56C201.325 23.56 201.752 23.6507 202.157 23.832C202.573 24.0133 202.936 24.2693 203.245 24.6C203.565 24.9307 203.816 25.3307 203.997 25.8C204.189 26.2587 204.285 26.7707 204.285 27.336C204.285 27.9013 204.189 28.4187 203.997 28.888C203.805 29.3467 203.549 29.7413 203.229 30.072C202.92 30.4027 202.557 30.6587 202.141 30.84C201.736 31.0213 201.315 31.112 200.877 31.112C200.397 31.112 199.955 31.0267 199.549 30.856C199.144 30.6747 198.808 30.4347 198.541 30.136V34.84H196.557ZM200.349 25.304C199.805 25.304 199.373 25.48 199.053 25.832C198.733 26.1733 198.563 26.616 198.541 27.16V27.368C198.552 27.976 198.717 28.472 199.037 28.856C199.368 29.2293 199.805 29.416 200.349 29.416C200.883 29.416 201.32 29.2293 201.661 28.856C202.013 28.4827 202.189 27.976 202.189 27.336C202.189 27.0053 202.136 26.712 202.029 26.456C201.933 26.2 201.8 25.9867 201.629 25.816C201.469 25.6453 201.277 25.5173 201.053 25.432C200.829 25.3467 200.595 25.304 200.349 25.304ZM205.745 23.688H207.729V27.896L211.121 23.688H212.673V31H210.689V26.552L207.105 31H205.745V23.688ZM214.557 23.688H216.541V26.28H217.549C217.656 25.8533 217.827 25.4747 218.061 25.144C218.296 24.8027 218.573 24.5147 218.893 24.28C219.224 24.0453 219.587 23.8693 219.981 23.752C220.376 23.624 220.787 23.56 221.213 23.56C221.779 23.56 222.296 23.6507 222.765 23.832C223.235 24.0027 223.64 24.2533 223.981 24.584C224.323 24.904 224.589 25.2987 224.781 25.768C224.973 26.2267 225.069 26.7493 225.069 27.336C225.069 27.944 224.963 28.4827 224.749 28.952C224.547 29.4213 224.264 29.816 223.901 30.136C223.549 30.456 223.139 30.7013 222.669 30.872C222.2 31.032 221.709 31.112 221.197 31.112C220.696 31.112 220.232 31.0373 219.805 30.888C219.379 30.7387 219 30.5307 218.669 30.264C218.349 29.9867 218.083 29.6507 217.869 29.256C217.667 28.8613 217.533 28.4187 217.469 27.928H216.541V31H214.557V23.688ZM221.213 29.384C221.789 29.384 222.227 29.192 222.525 28.808C222.835 28.424 222.989 27.9387 222.989 27.352C222.989 26.744 222.829 26.248 222.509 25.864C222.2 25.48 221.763 25.288 221.197 25.288C220.632 25.288 220.189 25.48 219.869 25.864C219.56 26.2373 219.405 26.712 219.405 27.288C219.405 27.896 219.565 28.3973 219.885 28.792C220.216 29.1867 220.659 29.384 221.213 29.384ZM236.875 30.728L238.987 27.096L237.291 23.96V23.688H239.275L240.667 26.408H241.467V23.688H243.435V26.408H244.219L245.627 23.688H247.547V23.96L245.883 27.064L248.043 30.728V31H245.931L244.187 27.912H243.435V31H241.467V27.912H240.699L238.971 31H236.875V30.728ZM248.975 23.688H250.959V27.896L254.351 23.688H255.903V31H253.919V26.552L250.335 31H248.975V23.688ZM257.788 23.688H261.74C262.497 23.688 263.068 23.8533 263.452 24.184C263.836 24.504 264.028 24.9253 264.028 25.448C264.028 25.8427 263.932 26.168 263.74 26.424C263.548 26.68 263.297 26.8613 262.988 26.968C263.51 27.0427 263.937 27.224 264.268 27.512C264.598 27.8 264.764 28.232 264.764 28.808C264.764 29.512 264.502 30.056 263.98 30.44C263.468 30.8133 262.716 31 261.724 31H257.788V23.688ZM259.772 27.704V29.544H261.292C261.793 29.544 262.15 29.4693 262.364 29.32C262.577 29.16 262.684 28.9253 262.684 28.616C262.684 28.296 262.572 28.0667 262.348 27.928C262.124 27.7787 261.788 27.704 261.34 27.704H259.772ZM259.772 25.144V26.552H261.148C261.83 26.552 262.172 26.312 262.172 25.832C262.172 25.3733 261.825 25.144 261.132 25.144H259.772ZM269.527 31.112C268.951 31.112 268.417 31.0213 267.927 30.84C267.447 30.6587 267.031 30.4027 266.679 30.072C266.337 29.7307 266.065 29.3307 265.863 28.872C265.671 28.4133 265.575 27.9013 265.575 27.336C265.575 26.7707 265.671 26.2587 265.863 25.8C266.065 25.3307 266.343 24.9307 266.695 24.6C267.047 24.2693 267.463 24.0133 267.943 23.832C268.433 23.6507 268.961 23.56 269.527 23.56C270.103 23.56 270.631 23.6507 271.111 23.832C271.601 24.0133 272.023 24.2747 272.375 24.616C272.727 24.9467 272.999 25.3467 273.191 25.816C273.383 26.2747 273.479 26.7813 273.479 27.336C273.479 27.912 273.377 28.4347 273.175 28.904C272.972 29.3627 272.695 29.7573 272.343 30.088C271.991 30.408 271.575 30.6587 271.095 30.84C270.615 31.0213 270.092 31.112 269.527 31.112ZM269.527 29.432C270.113 29.432 270.572 29.2347 270.903 28.84C271.233 28.4453 271.399 27.944 271.399 27.336C271.399 26.728 271.239 26.232 270.919 25.848C270.599 25.4533 270.135 25.256 269.527 25.256C268.929 25.256 268.465 25.4533 268.135 25.848C267.804 26.2427 267.639 26.7387 267.639 27.336C267.639 27.624 267.681 27.896 267.767 28.152C267.852 28.408 267.975 28.632 268.135 28.824C268.295 29.016 268.492 29.1653 268.727 29.272C268.961 29.3787 269.228 29.432 269.527 29.432ZM274.913 23.688H281.793V31H279.825V25.432H276.897V31H274.913V23.688ZM283.694 23.688H285.678V27.896L289.07 23.688H290.622V31H288.638V26.552L285.054 31H283.694V23.688ZM295.915 31.112C295.328 31.112 294.8 31.0213 294.331 30.84C293.861 30.6587 293.456 30.408 293.115 30.088C292.784 29.7573 292.528 29.3627 292.347 28.904C292.165 28.4453 292.075 27.9333 292.075 27.368C292.075 26.7707 292.171 26.2373 292.363 25.768C292.565 25.288 292.837 24.888 293.179 24.568C293.52 24.2373 293.925 23.9867 294.395 23.816C294.864 23.6453 295.371 23.56 295.915 23.56C296.533 23.56 297.093 23.6667 297.595 23.88C298.107 24.0933 298.507 24.36 298.795 24.68L297.771 26.024C297.557 25.7893 297.307 25.6027 297.019 25.464C296.741 25.3253 296.427 25.256 296.075 25.256C295.477 25.256 295.003 25.448 294.651 25.832C294.309 26.216 294.139 26.7067 294.139 27.304C294.139 27.9227 294.315 28.4347 294.667 28.84C295.029 29.2347 295.515 29.432 296.123 29.432C296.475 29.432 296.789 29.3627 297.067 29.224C297.344 29.0747 297.589 28.8827 297.803 28.648L298.971 29.8C298.651 30.216 298.224 30.5413 297.691 30.776C297.168 31 296.576 31.112 295.915 31.112ZM300.163 23.688H302.147V27.896L305.539 23.688H307.091V31H305.107V26.552L301.523 31H300.163V23.688ZM309.663 31.08C309.343 31.0267 309.098 30.904 308.927 30.712C308.767 30.5093 308.687 30.2693 308.687 29.992C308.687 29.64 308.799 29.3627 309.023 29.16C309.258 28.9467 309.535 28.84 309.855 28.84C310.197 28.84 310.49 28.952 310.735 29.176C310.991 29.4 311.119 29.72 311.119 30.136C311.119 30.4133 311.045 30.7227 310.895 31.064C310.746 31.4053 310.517 31.848 310.207 32.392L309.567 33.56H308.287L309.663 31.08ZM17.464 50.112C16.888 50.112 16.3547 50.0213 15.864 49.84C15.384 49.6587 14.968 49.4027 14.616 49.072C14.2747 48.7307 14.0027 48.3307 13.8 47.872C13.608 47.4133 13.512 46.9013 13.512 46.336C13.512 45.7707 13.608 45.2587 13.8 44.8C14.0027 44.3307 14.28 43.9307 14.632 43.6C14.984 43.2693 15.4 43.0133 15.88 42.832C16.3707 42.6507 16.8987 42.56 17.464 42.56C18.04 42.56 18.568 42.6507 19.048 42.832C19.5387 43.0133 19.96 43.2747 20.312 43.616C20.664 43.9467 20.936 44.3467 21.128 44.816C21.32 45.2747 21.416 45.7813 21.416 46.336C21.416 46.912 21.3147 47.4347 21.112 47.904C20.9093 48.3627 20.632 48.7573 20.28 49.088C19.928 49.408 19.512 49.6587 19.032 49.84C18.552 50.0213 18.0293 50.112 17.464 50.112ZM17.464 48.432C18.0507 48.432 18.5093 48.2347 18.84 47.84C19.1707 47.4453 19.336 46.944 19.336 46.336C19.336 45.728 19.176 45.232 18.856 44.848C18.536 44.4533 18.072 44.256 17.464 44.256C16.8667 44.256 16.4027 44.4533 16.072 44.848C15.7413 45.2427 15.576 45.7387 15.576 46.336C15.576 46.624 15.6187 46.896 15.704 47.152C15.7893 47.408 15.912 47.632 16.072 47.824C16.232 48.016 16.4293 48.1653 16.664 48.272C16.8987 48.3787 17.1653 48.432 17.464 48.432ZM27.8743 47.12H24.8343V50H22.8503V42.688H24.8343V45.376H27.8743V42.688H29.8583V50H27.8743V47.12ZM31.7409 42.688H33.7249V46.896L37.1169 42.688H38.6689V50H36.6849V45.552L33.1009 50H31.7409V42.688ZM50.344 42.688H57.224V50H55.256V44.432H52.328V50H50.344V42.688ZM62.6453 50.112C62.0693 50.112 61.5359 50.0213 61.0453 49.84C60.5653 49.6587 60.1493 49.4027 59.7973 49.072C59.4559 48.7307 59.1839 48.3307 58.9813 47.872C58.7893 47.4133 58.6933 46.9013 58.6933 46.336C58.6933 45.7707 58.7893 45.2587 58.9813 44.8C59.1839 44.3307 59.4613 43.9307 59.8133 43.6C60.1653 43.2693 60.5813 43.0133 61.0613 42.832C61.5519 42.6507 62.0799 42.56 62.6453 42.56C63.2213 42.56 63.7493 42.6507 64.2293 42.832C64.7199 43.0133 65.1413 43.2747 65.4933 43.616C65.8453 43.9467 66.1173 44.3467 66.3093 44.816C66.5013 45.2747 66.5973 45.7813 66.5973 46.336C66.5973 46.912 66.4959 47.4347 66.2933 47.904C66.0906 48.3627 65.8133 48.7573 65.4613 49.088C65.1093 49.408 64.6933 49.6587 64.2133 49.84C63.7333 50.0213 63.2106 50.112 62.6453 50.112ZM62.6453 48.432C63.2319 48.432 63.6906 48.2347 64.0213 47.84C64.3519 47.4453 64.5173 46.944 64.5173 46.336C64.5173 45.728 64.3573 45.232 64.0373 44.848C63.7173 44.4533 63.2533 44.256 62.6453 44.256C62.0479 44.256 61.5839 44.4533 61.2533 44.848C60.9226 45.2427 60.7573 45.7387 60.7573 46.336C60.7573 46.624 60.7999 46.896 60.8853 47.152C60.9706 47.408 61.0933 47.632 61.2533 47.824C61.4133 48.016 61.6106 48.1653 61.8453 48.272C62.0799 48.3787 62.3466 48.432 62.6453 48.432ZM73.0555 47.12H70.0155V50H68.0315V42.688H70.0155V45.376H73.0555V42.688H75.0395V50H73.0555V47.12ZM76.9221 42.688H78.9061V46.896L82.2981 42.688H83.8501V50H81.8661V45.552L78.2821 50H76.9221V42.688ZM86.4546 42.688H88.1506L90.0866 46.928L91.9106 42.688H93.6546L94.8706 50H93.0146L92.3106 45.728L90.4226 50H89.5746L87.6706 45.808L86.9826 50H85.2226L86.4546 42.688ZM99.1013 50.112C98.6639 50.112 98.2373 50.0213 97.8213 49.84C97.4159 49.6587 97.0533 49.4027 96.7333 49.072C96.4239 48.7413 96.1733 48.3467 95.9813 47.888C95.7893 47.4187 95.6933 46.9013 95.6933 46.336C95.6933 45.7707 95.7839 45.2587 95.9653 44.8C96.1573 44.3307 96.4079 43.9307 96.7173 43.6C97.0373 43.2693 97.3999 43.0133 97.8053 42.832C98.2213 42.6507 98.6533 42.56 99.1013 42.56C99.6453 42.56 100.125 42.6667 100.541 42.88C100.968 43.0933 101.304 43.3547 101.549 43.664V42.688H103.421V50H101.549V49.008C101.283 49.3387 100.936 49.6053 100.509 49.808C100.083 50.0107 99.6133 50.112 99.1013 50.112ZM99.6293 48.416C100.173 48.416 100.605 48.2293 100.925 47.856C101.256 47.472 101.427 46.976 101.437 46.368V46.24C101.437 45.6747 101.272 45.2107 100.941 44.848C100.611 44.4853 100.173 44.304 99.6293 44.304C99.3839 44.304 99.1493 44.3467 98.9253 44.432C98.7013 44.5173 98.5039 44.6453 98.3333 44.816C98.1626 44.9867 98.0293 45.2 97.9333 45.456C97.8373 45.712 97.7893 46.0053 97.7893 46.336C97.7893 46.976 97.9599 47.4827 98.3013 47.856C98.6533 48.2293 99.0959 48.416 99.6293 48.416ZM105.313 42.688H107.297V45.28H108.305C108.411 44.8533 108.582 44.4747 108.817 44.144C109.051 43.8027 109.329 43.5147 109.649 43.28C109.979 43.0453 110.342 42.8693 110.737 42.752C111.131 42.624 111.542 42.56 111.969 42.56C112.534 42.56 113.051 42.6507 113.521 42.832C113.99 43.0027 114.395 43.2533 114.737 43.584C115.078 43.904 115.345 44.2987 115.537 44.768C115.729 45.2267 115.825 45.7493 115.825 46.336C115.825 46.944 115.718 47.4827 115.505 47.952C115.302 48.4213 115.019 48.816 114.657 49.136C114.305 49.456 113.894 49.7013 113.425 49.872C112.955 50.032 112.465 50.112 111.953 50.112C111.451 50.112 110.987 50.0373 110.561 49.888C110.134 49.7387 109.755 49.5307 109.425 49.264C109.105 48.9867 108.838 48.6507 108.625 48.256C108.422 47.8613 108.289 47.4187 108.225 46.928H107.297V50H105.313V42.688ZM111.969 48.384C112.545 48.384 112.982 48.192 113.281 47.808C113.59 47.424 113.745 46.9387 113.745 46.352C113.745 45.744 113.585 45.248 113.265 44.864C112.955 44.48 112.518 44.288 111.953 44.288C111.387 44.288 110.945 44.48 110.625 44.864C110.315 45.2373 110.161 45.712 110.161 46.288C110.161 46.896 110.321 47.3973 110.641 47.792C110.971 48.1867 111.414 48.384 111.969 48.384ZM118.727 44.432H116.375V42.688H123.047V44.432H120.695V50H118.727V44.432ZM134.057 42.688H140.937V50H138.969V44.432H136.041V50H134.057V42.688ZM146.358 50.112C145.782 50.112 145.248 50.0213 144.758 49.84C144.278 49.6587 143.862 49.4027 143.51 49.072C143.168 48.7307 142.896 48.3307 142.694 47.872C142.502 47.4133 142.406 46.9013 142.406 46.336C142.406 45.7707 142.502 45.2587 142.694 44.8C142.896 44.3307 143.174 43.9307 143.526 43.6C143.878 43.2693 144.294 43.0133 144.774 42.832C145.264 42.6507 145.792 42.56 146.358 42.56C146.934 42.56 147.462 42.6507 147.942 42.832C148.432 43.0133 148.854 43.2747 149.206 43.616C149.558 43.9467 149.83 44.3467 150.022 44.816C150.214 45.2747 150.31 45.7813 150.31 46.336C150.31 46.912 150.208 47.4347 150.006 47.904C149.803 48.3627 149.526 48.7573 149.174 49.088C148.822 49.408 148.406 49.6587 147.926 49.84C147.446 50.0213 146.923 50.112 146.358 50.112ZM146.358 48.432C146.944 48.432 147.403 48.2347 147.734 47.84C148.064 47.4453 148.23 46.944 148.23 46.336C148.23 45.728 148.07 45.232 147.75 44.848C147.43 44.4533 146.966 44.256 146.358 44.256C145.76 44.256 145.296 44.4533 144.966 44.848C144.635 45.2427 144.47 45.7387 144.47 46.336C144.47 46.624 144.512 46.896 144.598 47.152C144.683 47.408 144.806 47.632 144.966 47.824C145.126 48.016 145.323 48.1653 145.558 48.272C145.792 48.3787 146.059 48.432 146.358 48.432ZM155.936 47.344C155.723 47.44 155.472 47.52 155.184 47.584C154.907 47.6373 154.592 47.664 154.24 47.664C153.792 47.664 153.387 47.6107 153.024 47.504C152.672 47.3973 152.368 47.2267 152.112 46.992C151.856 46.7573 151.659 46.4533 151.52 46.08C151.392 45.7067 151.328 45.2533 151.328 44.72V42.688H153.312V44.64C153.312 45.056 153.408 45.376 153.6 45.6C153.792 45.8133 154.176 45.92 154.752 45.92C155.189 45.92 155.584 45.8667 155.936 45.76V42.688H157.92V50H155.936V47.344ZM163.249 50.112C162.662 50.112 162.123 50.0213 161.633 49.84C161.153 49.6587 160.737 49.408 160.385 49.088C160.033 48.7573 159.761 48.368 159.569 47.92C159.377 47.4613 159.281 46.9547 159.281 46.4C159.281 45.8133 159.382 45.2853 159.585 44.816C159.787 44.336 160.065 43.9307 160.417 43.6C160.769 43.2693 161.179 43.0133 161.649 42.832C162.118 42.6507 162.619 42.56 163.153 42.56C163.729 42.56 164.241 42.6613 164.689 42.864C165.147 43.056 165.531 43.328 165.841 43.68C166.15 44.0213 166.385 44.4267 166.545 44.896C166.715 45.3547 166.801 45.8507 166.801 46.384V46.8H161.201C161.297 47.3653 161.537 47.7973 161.921 48.096C162.315 48.3947 162.811 48.544 163.409 48.544C163.835 48.544 164.23 48.4693 164.593 48.32C164.966 48.16 165.275 47.9413 165.521 47.664L166.625 48.672C166.251 49.1413 165.771 49.4987 165.185 49.744C164.598 49.9893 163.953 50.112 163.249 50.112ZM163.073 44.16C162.603 44.16 162.209 44.288 161.889 44.544C161.579 44.7893 161.366 45.1413 161.249 45.6H164.897C164.833 45.1947 164.641 44.8533 164.321 44.576C164.001 44.2987 163.585 44.16 163.073 44.16ZM168.26 53.84V42.688H170.132V43.664C170.377 43.3547 170.708 43.0933 171.124 42.88C171.55 42.6667 172.036 42.56 172.58 42.56C173.028 42.56 173.454 42.6507 173.86 42.832C174.276 43.0133 174.638 43.2693 174.948 43.6C175.268 43.9307 175.518 44.3307 175.7 44.8C175.892 45.2587 175.988 45.7707 175.988 46.336C175.988 46.9013 175.892 47.4187 175.7 47.888C175.508 48.3467 175.252 48.7413 174.932 49.072C174.622 49.4027 174.26 49.6587 173.844 49.84C173.438 50.0213 173.017 50.112 172.58 50.112C172.1 50.112 171.657 50.0267 171.252 49.856C170.846 49.6747 170.51 49.4347 170.244 49.136V53.84H168.26ZM172.052 44.304C171.508 44.304 171.076 44.48 170.756 44.832C170.436 45.1733 170.265 45.616 170.244 46.16V46.368C170.254 46.976 170.42 47.472 170.74 47.856C171.07 48.2293 171.508 48.416 172.052 48.416C172.585 48.416 173.022 48.2293 173.364 47.856C173.716 47.4827 173.892 46.976 173.892 46.336C173.892 46.0053 173.838 45.712 173.732 45.456C173.636 45.2 173.502 44.9867 173.332 44.816C173.172 44.6453 172.98 44.5173 172.756 44.432C172.532 44.3467 172.297 44.304 172.052 44.304ZM177.447 42.688H179.431V45.376H180.199L181.959 42.688H184.023V42.96L181.847 46.016L184.567 49.728V50H182.359L180.151 46.88H179.431V50H177.447V42.688ZM196.965 44.432H194.613V42.688H201.285V44.432H198.933V50H196.965V44.432ZM205.742 50.112C205.166 50.112 204.633 50.0213 204.142 49.84C203.662 49.6587 203.246 49.4027 202.894 49.072C202.553 48.7307 202.281 48.3307 202.078 47.872C201.886 47.4133 201.79 46.9013 201.79 46.336C201.79 45.7707 201.886 45.2587 202.078 44.8C202.281 44.3307 202.558 43.9307 202.91 43.6C203.262 43.2693 203.678 43.0133 204.158 42.832C204.649 42.6507 205.177 42.56 205.742 42.56C206.318 42.56 206.846 42.6507 207.326 42.832C207.817 43.0133 208.238 43.2747 208.59 43.616C208.942 43.9467 209.214 44.3467 209.406 44.816C209.598 45.2747 209.694 45.7813 209.694 46.336C209.694 46.912 209.593 47.4347 209.39 47.904C209.187 48.3627 208.91 48.7573 208.558 49.088C208.206 49.408 207.79 49.6587 207.31 49.84C206.83 50.0213 206.307 50.112 205.742 50.112ZM205.742 48.432C206.329 48.432 206.787 48.2347 207.118 47.84C207.449 47.4453 207.614 46.944 207.614 46.336C207.614 45.728 207.454 45.232 207.134 44.848C206.814 44.4533 206.35 44.256 205.742 44.256C205.145 44.256 204.681 44.4533 204.35 44.848C204.019 45.2427 203.854 45.7387 203.854 46.336C203.854 46.624 203.897 46.896 203.982 47.152C204.067 47.408 204.19 47.632 204.35 47.824C204.51 48.016 204.707 48.1653 204.942 48.272C205.177 48.3787 205.443 48.432 205.742 48.432ZM211.128 42.688H216.2V44.432H213.112V50H211.128V42.688ZM220.773 50.112C220.197 50.112 219.664 50.0213 219.173 49.84C218.693 49.6587 218.277 49.4027 217.925 49.072C217.584 48.7307 217.312 48.3307 217.109 47.872C216.917 47.4133 216.821 46.9013 216.821 46.336C216.821 45.7707 216.917 45.2587 217.109 44.8C217.312 44.3307 217.589 43.9307 217.941 43.6C218.293 43.2693 218.709 43.0133 219.189 42.832C219.68 42.6507 220.208 42.56 220.773 42.56C221.349 42.56 221.877 42.6507 222.357 42.832C222.848 43.0133 223.269 43.2747 223.621 43.616C223.973 43.9467 224.245 44.3467 224.437 44.816C224.629 45.2747 224.725 45.7813 224.725 46.336C224.725 46.912 224.624 47.4347 224.421 47.904C224.219 48.3627 223.941 48.7573 223.589 49.088C223.237 49.408 222.821 49.6587 222.341 49.84C221.861 50.0213 221.339 50.112 220.773 50.112ZM220.773 48.432C221.36 48.432 221.819 48.2347 222.149 47.84C222.48 47.4453 222.645 46.944 222.645 46.336C222.645 45.728 222.485 45.232 222.165 44.848C221.845 44.4533 221.381 44.256 220.773 44.256C220.176 44.256 219.712 44.4533 219.381 44.848C219.051 45.2427 218.885 45.7387 218.885 46.336C218.885 46.624 218.928 46.896 219.013 47.152C219.099 47.408 219.221 47.632 219.381 47.824C219.541 48.016 219.739 48.1653 219.973 48.272C220.208 48.3787 220.475 48.432 220.773 48.432ZM235.95 42.688H237.934V46.896L241.326 42.688H242.878V50H240.894V45.552L237.31 50H235.95V42.688ZM244.523 50.16C244.405 50.16 244.299 50.1547 244.203 50.144C244.117 50.1333 244.043 50.1227 243.979 50.112V48.208C244.085 48.2293 244.171 48.24 244.235 48.24C244.416 48.24 244.571 48.176 244.699 48.048C244.827 47.9093 244.928 47.6907 245.003 47.392C245.088 47.0827 245.147 46.6827 245.179 46.192C245.221 45.7013 245.243 45.104 245.243 44.4V42.688H250.795V50H248.827V44.432H247.067V45.296C247.067 46.2133 247.008 46.9813 246.891 47.6C246.784 48.2187 246.619 48.72 246.395 49.104C246.181 49.4773 245.915 49.7493 245.595 49.92C245.285 50.08 244.928 50.16 244.523 50.16ZM252.7 42.688H254.684V46.896L258.076 42.688H259.628V50H257.644V45.552L254.06 50H252.7V42.688ZM271.303 42.688H273.287V46.896L276.679 42.688H278.231V50H276.247V45.552L272.663 50H271.303V42.688ZM285.14 47.12H282.1V50H280.116V42.688H282.1V45.376H285.14V42.688H287.124V50H285.14V47.12ZM292.527 50.112C291.951 50.112 291.417 50.0213 290.927 49.84C290.447 49.6587 290.031 49.4027 289.679 49.072C289.337 48.7307 289.065 48.3307 288.863 47.872C288.671 47.4133 288.575 46.9013 288.575 46.336C288.575 45.7707 288.671 45.2587 288.863 44.8C289.065 44.3307 289.343 43.9307 289.695 43.6C290.047 43.2693 290.463 43.0133 290.943 42.832C291.433 42.6507 291.961 42.56 292.527 42.56C293.103 42.56 293.631 42.6507 294.111 42.832C294.601 43.0133 295.023 43.2747 295.375 43.616C295.727 43.9467 295.999 44.3467 296.191 44.816C296.383 45.2747 296.479 45.7813 296.479 46.336C296.479 46.912 296.377 47.4347 296.175 47.904C295.972 48.3627 295.695 48.7573 295.343 49.088C294.991 49.408 294.575 49.6587 294.095 49.84C293.615 50.0213 293.092 50.112 292.527 50.112ZM292.527 48.432C293.113 48.432 293.572 48.2347 293.903 47.84C294.233 47.4453 294.399 46.944 294.399 46.336C294.399 45.728 294.239 45.232 293.919 44.848C293.599 44.4533 293.135 44.256 292.527 44.256C291.929 44.256 291.465 44.4533 291.135 44.848C290.804 45.2427 290.639 45.7387 290.639 46.336C290.639 46.624 290.681 46.896 290.767 47.152C290.852 47.408 290.975 47.632 291.135 47.824C291.295 48.016 291.492 48.1653 291.727 48.272C291.961 48.3787 292.228 48.432 292.527 48.432ZM297.913 42.688H302.985V44.432H299.897V50H297.913V42.688ZM307.558 50.112C306.982 50.112 306.448 50.0213 305.958 49.84C305.478 49.6587 305.062 49.4027 304.71 49.072C304.368 48.7307 304.096 48.3307 303.894 47.872C303.702 47.4133 303.606 46.9013 303.606 46.336C303.606 45.7707 303.702 45.2587 303.894 44.8C304.096 44.3307 304.374 43.9307 304.726 43.6C305.078 43.2693 305.494 43.0133 305.974 42.832C306.464 42.6507 306.992 42.56 307.558 42.56C308.134 42.56 308.662 42.6507 309.142 42.832C309.632 43.0133 310.054 43.2747 310.406 43.616C310.758 43.9467 311.03 44.3467 311.222 44.816C311.414 45.2747 311.51 45.7813 311.51 46.336C311.51 46.912 311.408 47.4347 311.206 47.904C311.003 48.3627 310.726 48.7573 310.374 49.088C310.022 49.408 309.606 49.6587 309.126 49.84C308.646 50.0213 308.123 50.112 307.558 50.112ZM307.558 48.432C308.144 48.432 308.603 48.2347 308.934 47.84C309.264 47.4453 309.43 46.944 309.43 46.336C309.43 45.728 309.27 45.232 308.95 44.848C308.63 44.4533 308.166 44.256 307.558 44.256C306.96 44.256 306.496 44.4533 306.166 44.848C305.835 45.2427 305.67 45.7387 305.67 46.336C305.67 46.624 305.712 46.896 305.798 47.152C305.883 47.408 306.006 47.632 306.166 47.824C306.326 48.016 306.523 48.1653 306.758 48.272C306.992 48.3787 307.259 48.432 307.558 48.432ZM13.176 68.632L15.496 65.16L13.368 62.056V61.688H15.448L16.888 63.832L18.264 61.688H20.152V62.056L18.056 65.208L20.376 68.648L20.392 69H18.36L16.728 66.568L15.112 69H13.176V68.632ZM22.4189 72.6L23.6509 69.08L20.6589 62.056V61.688H22.6429L24.5789 66.472L26.2749 61.688H28.0669L28.0509 62.056L24.2109 72.84H22.4189V72.6ZM27.9554 67.256H28.8354C29.1127 66.68 29.3207 66.04 29.4594 65.336C29.598 64.6213 29.6674 63.7787 29.6674 62.808V61.688H35.3634V67.256H36.4834V70.632H34.8674V69H29.5874V70.632H27.9554V67.256ZM31.4434 63.48C31.4434 64.9627 31.2247 66.2213 30.7874 67.256H33.3794V63.432H31.4434V63.48ZM40.9796 69.112C40.4036 69.112 39.8703 69.0213 39.3796 68.84C38.8996 68.6587 38.4836 68.4027 38.1316 68.072C37.7903 67.7307 37.5183 67.3307 37.3156 66.872C37.1236 66.4133 37.0276 65.9013 37.0276 65.336C37.0276 64.7707 37.1236 64.2587 37.3156 63.8C37.5183 63.3307 37.7956 62.9307 38.1476 62.6C38.4996 62.2693 38.9156 62.0133 39.3956 61.832C39.8863 61.6507 40.4143 61.56 40.9796 61.56C41.5556 61.56 42.0836 61.6507 42.5636 61.832C43.0543 62.0133 43.4756 62.2747 43.8276 62.616C44.1796 62.9467 44.4516 63.3467 44.6436 63.816C44.8356 64.2747 44.9316 64.7813 44.9316 65.336C44.9316 65.912 44.8303 66.4347 44.6276 66.904C44.425 67.3627 44.1476 67.7573 43.7956 68.088C43.4436 68.408 43.0276 68.6587 42.5476 68.84C42.0676 69.0213 41.545 69.112 40.9796 69.112ZM40.9796 67.432C41.5663 67.432 42.025 67.2347 42.3556 66.84C42.6863 66.4453 42.8516 65.944 42.8516 65.336C42.8516 64.728 42.6916 64.232 42.3716 63.848C42.0516 63.4533 41.5876 63.256 40.9796 63.256C40.3823 63.256 39.9183 63.4533 39.5876 63.848C39.257 64.2427 39.0916 64.7387 39.0916 65.336C39.0916 65.624 39.1343 65.896 39.2196 66.152C39.305 66.408 39.4276 66.632 39.5876 66.824C39.7476 67.016 39.945 67.1653 40.1796 67.272C40.4143 67.3787 40.681 67.432 40.9796 67.432ZM45.1871 68.728L47.2991 65.096L45.6031 61.96V61.688H47.5871L48.9791 64.408H49.7791V61.688H51.7471V64.408H52.5311L53.9391 61.688H55.8591V61.96L54.1951 65.064L56.3551 68.728V69H54.2431L52.4991 65.912H51.7471V69H49.7791V65.912H49.0111L47.2831 69H45.1871V68.728ZM62.3118 66.12H59.2718V69H57.2878V61.688H59.2718V64.376H62.3118V61.688H64.2958V69H62.3118V66.12ZM66.1784 61.688H68.1624V65.896L71.5544 61.688H73.1064V69H71.1224V64.552L67.5384 69H66.1784V61.688ZM74.9909 61.688H76.9749V64.376H77.7429L79.5029 61.688H81.5669V61.96L79.3909 65.016L82.1109 68.728V69H79.9029L77.6949 65.88H76.9749V69H74.9909V61.688ZM85.7325 69.112C85.2952 69.112 84.8685 69.0213 84.4525 68.84C84.0472 68.6587 83.6845 68.4027 83.3645 68.072C83.0552 67.7413 82.8045 67.3467 82.6125 66.888C82.4205 66.4187 82.3245 65.9013 82.3245 65.336C82.3245 64.7707 82.4152 64.2587 82.5965 63.8C82.7885 63.3307 83.0392 62.9307 83.3485 62.6C83.6685 62.2693 84.0312 62.0133 84.4365 61.832C84.8525 61.6507 85.2845 61.56 85.7325 61.56C86.2765 61.56 86.7565 61.6667 87.1725 61.88C87.5992 62.0933 87.9352 62.3547 88.1805 62.664V61.688H90.0525V69H88.1805V68.008C87.9138 68.3387 87.5672 68.6053 87.1405 68.808C86.7138 69.0107 86.2445 69.112 85.7325 69.112ZM86.2605 67.416C86.8045 67.416 87.2365 67.2293 87.5565 66.856C87.8872 66.472 88.0578 65.976 88.0685 65.368V65.24C88.0685 64.6747 87.9032 64.2107 87.5725 63.848C87.2418 63.4853 86.8045 63.304 86.2605 63.304C86.0152 63.304 85.7805 63.3467 85.5565 63.432C85.3325 63.5173 85.1352 63.6453 84.9645 63.816C84.7938 63.9867 84.6605 64.2 84.5645 64.456C84.4685 64.712 84.4205 65.0053 84.4205 65.336C84.4205 65.976 84.5912 66.4827 84.9325 66.856C85.2845 67.2293 85.7272 67.416 86.2605 67.416Z" fill="black"/>
<circle cx="2.15513" cy="2.15513" r="2.15513" transform="matrix(1 0 0 -1 101 69.3101)" fill="black"/>
<circle cx="2.15513" cy="2.15513" r="2.15513" transform="matrix(1 0 0 -1 113.452 69.3101)" fill="black"/>
<circle cx="2.15513" cy="2.15513" r="2.15513" transform="matrix(1 0 0 -1 125.904 69.3101)" fill="black"/>
<circle cx="2.15513" cy="2.15513" r="2.15513" transform="matrix(1 0 0 -1 138.355 69.3101)" fill="black"/>
<defs>
<linearGradient id="paint0_linear_106_16" x1="372.117" y1="52.8128" x2="-59.068" y2="52.8128" gradientUnits="userSpaceOnUse">
<stop stop-color="white" stop-opacity="0.64"/>
<stop offset="0.325" stop-color="#2736C1" stop-opacity="0.72"/>
<stop offset="1" stop-color="#091FEA"/>
</linearGradient>
</defs>
</svg>
