<svg width="321" height="170" viewBox="0 0 321 170" fill="none" xmlns="http://www.w3.org/2000/svg">
<path d="M321 68V20C321 8.95429 312.046 0 301 0H20C8.95428 0 0 8.95431 0 20V68V150C0 161.046 8.95428 170 20 170H301C312.046 170 321 161.046 321 150L321 68Z" fill="url(#paint0_linear_106_17)" fill-opacity="0.76"/>
<path d="M33.608 28.144C32.6907 28.144 31.8587 28.0053 31.112 27.728C30.376 27.44 29.7467 27.0453 29.224 26.544C28.712 26.0427 28.312 25.44 28.024 24.736C27.7467 24.032 27.608 23.264 27.608 22.432C27.608 21.6 27.752 20.832 28.04 20.128C28.328 19.4133 28.7333 18.8 29.256 18.288C29.7787 17.776 30.408 17.376 31.144 17.088C31.88 16.7893 32.696 16.64 33.592 16.64C34.36 16.64 35.0373 16.7413 35.624 16.944C36.2213 17.1467 36.76 17.4187 37.24 17.76L36.376 19.328C36.0027 19.0613 35.592 18.864 35.144 18.736C34.696 18.5973 34.2427 18.528 33.784 18.528C33.2187 18.528 32.696 18.624 32.216 18.816C31.736 18.9973 31.32 19.2587 30.968 19.6C30.616 19.9307 30.3387 20.336 30.136 20.816C29.944 21.2853 29.848 21.8027 29.848 22.368C29.848 22.9547 29.944 23.488 30.136 23.968C30.3387 24.4373 30.616 24.8427 30.968 25.184C31.3307 25.5147 31.7573 25.7707 32.248 25.952C32.7493 26.1333 33.304 26.224 33.912 26.224C34.3387 26.224 34.792 26.1653 35.272 26.048C35.752 25.92 36.1893 25.68 36.584 25.328L37.496 26.864C37.1013 27.216 36.5733 27.52 35.912 27.776C35.2613 28.0213 34.4933 28.144 33.608 28.144ZM40.4521 22.432H38.1001V20.688H44.7721V22.432H42.4201V28H40.4521V22.432ZM47.2158 31.6L48.4478 28.08L45.4558 21.056V20.688H47.4398L49.3758 25.472L51.0718 20.688H52.8638L52.8478 21.056L49.0078 31.84H47.2158V31.6ZM52.7523 26.256H53.6323C53.9096 25.68 54.1176 25.04 54.2563 24.336C54.3949 23.6213 54.4643 22.7787 54.4643 21.808V20.688H60.1603V26.256H61.2803V29.632H59.6643V28H54.3843V29.632H52.7523V26.256ZM56.2403 22.48C56.2403 23.9627 56.0216 25.2213 55.5843 26.256H58.1763V22.432H56.2403V22.48ZM65.7925 28.112C65.2058 28.112 64.6672 28.0213 64.1765 27.84C63.6965 27.6587 63.2805 27.408 62.9285 27.088C62.5765 26.7573 62.3045 26.368 62.1125 25.92C61.9205 25.4613 61.8245 24.9547 61.8245 24.4C61.8245 23.8133 61.9258 23.2853 62.1285 22.816C62.3312 22.336 62.6085 21.9307 62.9605 21.6C63.3125 21.2693 63.7232 21.0133 64.1925 20.832C64.6618 20.6507 65.1632 20.56 65.6965 20.56C66.2725 20.56 66.7845 20.6613 67.2325 20.864C67.6912 21.056 68.0752 21.328 68.3845 21.68C68.6938 22.0213 68.9285 22.4267 69.0885 22.896C69.2592 23.3547 69.3445 23.8507 69.3445 24.384V24.8H63.7445C63.8405 25.3653 64.0805 25.7973 64.4645 26.096C64.8592 26.3947 65.3552 26.544 65.9525 26.544C66.3792 26.544 66.7738 26.4693 67.1365 26.32C67.5098 26.16 67.8192 25.9413 68.0645 25.664L69.1685 26.672C68.7952 27.1413 68.3152 27.4987 67.7285 27.744C67.1418 27.9893 66.4965 28.112 65.7925 28.112ZM65.6165 22.16C65.1472 22.16 64.7525 22.288 64.4325 22.544C64.1232 22.7893 63.9098 23.1413 63.7925 23.6H67.4405C67.3765 23.1947 67.1845 22.8533 66.8645 22.576C66.5445 22.2987 66.1285 22.16 65.6165 22.16ZM75.8274 25.12H72.7874V28H70.8034V20.688H72.7874V23.376H75.8274V20.688H77.8114V28H75.8274V25.12ZM81.374 22.432H79.022V20.688H85.694V22.432H83.342V28H81.374V22.432ZM89.6075 28.112C89.1702 28.112 88.7435 28.0213 88.3275 27.84C87.9222 27.6587 87.5595 27.4027 87.2395 27.072C86.9302 26.7413 86.6795 26.3467 86.4875 25.888C86.2955 25.4187 86.1995 24.9013 86.1995 24.336C86.1995 23.7707 86.2902 23.2587 86.4715 22.8C86.6635 22.3307 86.9142 21.9307 87.2235 21.6C87.5435 21.2693 87.9062 21.0133 88.3115 20.832C88.7275 20.6507 89.1595 20.56 89.6075 20.56C90.1515 20.56 90.6315 20.6667 91.0475 20.88C91.4742 21.0933 91.8102 21.3547 92.0555 21.664V20.688H93.9275V28H92.0555V27.008C91.7888 27.3387 91.4422 27.6053 91.0155 27.808C90.5888 28.0107 90.1195 28.112 89.6075 28.112ZM90.1355 26.416C90.6795 26.416 91.1115 26.2293 91.4315 25.856C91.7622 25.472 91.9328 24.976 91.9435 24.368V24.24C91.9435 23.6747 91.7782 23.2107 91.4475 22.848C91.1168 22.4853 90.6795 22.304 90.1355 22.304C89.8902 22.304 89.6555 22.3467 89.4315 22.432C89.2075 22.5173 89.0102 22.6453 88.8395 22.816C88.6688 22.9867 88.5355 23.2 88.4395 23.456C88.3435 23.712 88.2955 24.0053 88.2955 24.336C88.2955 24.976 88.4662 25.4827 88.8075 25.856C89.1595 26.2293 89.6022 26.416 90.1355 26.416ZM147.163 20.688H149.147V23.376H149.915L151.675 20.688H153.739V20.96L151.563 24.016L154.283 27.728V28H152.075L149.867 24.88H149.147V28H147.163V20.688ZM157.904 28.112C157.467 28.112 157.04 28.0213 156.624 27.84C156.219 27.6587 155.856 27.4027 155.536 27.072C155.227 26.7413 154.976 26.3467 154.784 25.888C154.592 25.4187 154.496 24.9013 154.496 24.336C154.496 23.7707 154.587 23.2587 154.768 22.8C154.96 22.3307 155.211 21.9307 155.52 21.6C155.84 21.2693 156.203 21.0133 156.608 20.832C157.024 20.6507 157.456 20.56 157.904 20.56C158.448 20.56 158.928 20.6667 159.344 20.88C159.771 21.0933 160.107 21.3547 160.352 21.664V20.688H162.224V28H160.352V27.008C160.086 27.3387 159.739 27.6053 159.312 27.808C158.886 28.0107 158.416 28.112 157.904 28.112ZM158.432 26.416C158.976 26.416 159.408 26.2293 159.728 25.856C160.059 25.472 160.23 24.976 160.24 24.368V24.24C160.24 23.6747 160.075 23.2107 159.744 22.848C159.414 22.4853 158.976 22.304 158.432 22.304C158.187 22.304 157.952 22.3467 157.728 22.432C157.504 22.5173 157.307 22.6453 157.136 22.816C156.966 22.9867 156.832 23.2 156.736 23.456C156.64 23.712 156.592 24.0053 156.592 24.336C156.592 24.976 156.763 25.4827 157.104 25.856C157.456 26.2293 157.899 26.416 158.432 26.416ZM164.116 20.688H166.1V23.376H166.868L168.628 20.688H170.692V20.96L168.516 24.016L171.236 27.728V28H169.028L166.82 24.88H166.1V28H164.116V20.688ZM226.915 28.112C226.328 28.112 225.8 28.0213 225.331 27.84C224.861 27.6587 224.456 27.408 224.115 27.088C223.784 26.7573 223.528 26.3627 223.347 25.904C223.165 25.4453 223.075 24.9333 223.075 24.368C223.075 23.7707 223.171 23.2373 223.363 22.768C223.565 22.288 223.837 21.888 224.179 21.568C224.52 21.2373 224.925 20.9867 225.395 20.816C225.864 20.6453 226.371 20.56 226.915 20.56C227.533 20.56 228.093 20.6667 228.595 20.88C229.107 21.0933 229.507 21.36 229.795 21.68L228.771 23.024C228.557 22.7893 228.307 22.6027 228.019 22.464C227.741 22.3253 227.427 22.256 227.075 22.256C226.477 22.256 226.003 22.448 225.651 22.832C225.309 23.216 225.139 23.7067 225.139 24.304C225.139 24.9227 225.315 25.4347 225.667 25.84C226.029 26.2347 226.515 26.432 227.123 26.432C227.475 26.432 227.789 26.3627 228.067 26.224C228.344 26.0747 228.589 25.8827 228.803 25.648L229.971 26.8C229.651 27.216 229.224 27.5413 228.691 27.776C228.168 28 227.576 28.112 226.915 28.112ZM232.013 31.6L233.245 28.08L230.253 21.056V20.688H232.237L234.173 25.472L235.869 20.688H237.661L237.645 21.056L233.805 31.84H232.013V31.6ZM248.806 28H238.71V20.688H240.694V26.256H243.03V20.688H244.998V26.256H247.318V20.688H249.302V26.256H250.422V29.632H248.806V28ZM254.933 28.112C254.346 28.112 253.808 28.0213 253.317 27.84C252.837 27.6587 252.421 27.408 252.069 27.088C251.717 26.7573 251.445 26.368 251.253 25.92C251.061 25.4613 250.965 24.9547 250.965 24.4C250.965 23.8133 251.066 23.2853 251.269 22.816C251.472 22.336 251.749 21.9307 252.101 21.6C252.453 21.2693 252.864 21.0133 253.333 20.832C253.802 20.6507 254.304 20.56 254.837 20.56C255.413 20.56 255.925 20.6613 256.373 20.864C256.832 21.056 257.216 21.328 257.525 21.68C257.834 22.0213 258.069 22.4267 258.229 22.896C258.4 23.3547 258.485 23.8507 258.485 24.384V24.8H252.885C252.981 25.3653 253.221 25.7973 253.605 26.096C254 26.3947 254.496 26.544 255.093 26.544C255.52 26.544 255.914 26.4693 256.277 26.32C256.65 26.16 256.96 25.9413 257.205 25.664L258.309 26.672C257.936 27.1413 257.456 27.4987 256.869 27.744C256.282 27.9893 255.637 28.112 254.933 28.112ZM254.757 22.16C254.288 22.16 253.893 22.288 253.573 22.544C253.264 22.7893 253.05 23.1413 252.933 23.6H256.581C256.517 23.1947 256.325 22.8533 256.005 22.576C255.685 22.2987 255.269 22.16 254.757 22.16ZM263.352 28.112C262.765 28.112 262.237 28.0213 261.768 27.84C261.299 27.6587 260.893 27.408 260.552 27.088C260.221 26.7573 259.965 26.3627 259.784 25.904C259.603 25.4453 259.512 24.9333 259.512 24.368C259.512 23.7707 259.608 23.2373 259.8 22.768C260.003 22.288 260.275 21.888 260.616 21.568C260.957 21.2373 261.363 20.9867 261.832 20.816C262.301 20.6453 262.808 20.56 263.352 20.56C263.971 20.56 264.531 20.6667 265.032 20.88C265.544 21.0933 265.944 21.36 266.232 21.68L265.208 23.024C264.995 22.7893 264.744 22.6027 264.456 22.464C264.179 22.3253 263.864 22.256 263.512 22.256C262.915 22.256 262.44 22.448 262.088 22.832C261.747 23.216 261.576 23.7067 261.576 24.304C261.576 24.9227 261.752 25.4347 262.104 25.84C262.467 26.2347 262.952 26.432 263.56 26.432C263.912 26.432 264.227 26.3627 264.504 26.224C264.781 26.0747 265.027 25.8827 265.24 25.648L266.408 26.8C266.088 27.216 265.661 27.5413 265.128 27.776C264.605 28 264.013 28.112 263.352 28.112ZM269.28 22.432H266.928V20.688H273.6V22.432H271.248V28H269.28V22.432ZM274.819 20.688H278.771C279.528 20.688 280.099 20.8533 280.483 21.184C280.867 21.504 281.059 21.9253 281.059 22.448C281.059 22.8427 280.963 23.168 280.771 23.424C280.579 23.68 280.328 23.8613 280.019 23.968C280.542 24.0427 280.968 24.224 281.299 24.512C281.63 24.8 281.795 25.232 281.795 25.808C281.795 26.512 281.534 27.056 281.011 27.44C280.499 27.8133 279.747 28 278.755 28H274.819V20.688ZM276.803 24.704V26.544H278.323C278.824 26.544 279.182 26.4693 279.395 26.32C279.608 26.16 279.715 25.9253 279.715 25.616C279.715 25.296 279.603 25.0667 279.379 24.928C279.155 24.7787 278.819 24.704 278.371 24.704H276.803ZM276.803 22.144V23.552H278.179C278.862 23.552 279.203 23.312 279.203 22.832C279.203 22.3733 278.856 22.144 278.163 22.144H276.803ZM286.558 28.112C285.982 28.112 285.448 28.0213 284.958 27.84C284.478 27.6587 284.062 27.4027 283.71 27.072C283.368 26.7307 283.096 26.3307 282.894 25.872C282.702 25.4133 282.606 24.9013 282.606 24.336C282.606 23.7707 282.702 23.2587 282.894 22.8C283.096 22.3307 283.374 21.9307 283.726 21.6C284.078 21.2693 284.494 21.0133 284.974 20.832C285.464 20.6507 285.992 20.56 286.558 20.56C287.134 20.56 287.662 20.6507 288.142 20.832C288.632 21.0133 289.054 21.2747 289.406 21.616C289.758 21.9467 290.03 22.3467 290.222 22.816C290.414 23.2747 290.51 23.7813 290.51 24.336C290.51 24.912 290.408 25.4347 290.206 25.904C290.003 26.3627 289.726 26.7573 289.374 27.088C289.022 27.408 288.606 27.6587 288.126 27.84C287.646 28.0213 287.123 28.112 286.558 28.112ZM286.558 26.432C287.144 26.432 287.603 26.2347 287.934 25.84C288.264 25.4453 288.43 24.944 288.43 24.336C288.43 23.728 288.27 23.232 287.95 22.848C287.63 22.4533 287.166 22.256 286.558 22.256C285.96 22.256 285.496 22.4533 285.166 22.848C284.835 23.2427 284.67 23.7387 284.67 24.336C284.67 24.624 284.712 24.896 284.798 25.152C284.883 25.408 285.006 25.632 285.166 25.824C285.326 26.016 285.523 26.1653 285.758 26.272C285.992 26.3787 286.259 26.432 286.558 26.432ZM31.464 47.112C30.888 47.112 30.3547 47.0213 29.864 46.84C29.384 46.6587 28.968 46.4027 28.616 46.072C28.2747 45.7307 28.0027 45.3307 27.8 44.872C27.608 44.4133 27.512 43.9013 27.512 43.336C27.512 42.7707 27.608 42.2587 27.8 41.8C28.0027 41.3307 28.28 40.9307 28.632 40.6C28.984 40.2693 29.4 40.0133 29.88 39.832C30.3707 39.6507 30.8987 39.56 31.464 39.56C32.04 39.56 32.568 39.6507 33.048 39.832C33.5387 40.0133 33.96 40.2747 34.312 40.616C34.664 40.9467 34.936 41.3467 35.128 41.816C35.32 42.2747 35.416 42.7813 35.416 43.336C35.416 43.912 35.3147 44.4347 35.112 44.904C34.9093 45.3627 34.632 45.7573 34.28 46.088C33.928 46.408 33.512 46.6587 33.032 46.84C32.552 47.0213 32.0293 47.112 31.464 47.112ZM31.464 45.432C32.0507 45.432 32.5093 45.2347 32.84 44.84C33.1707 44.4453 33.336 43.944 33.336 43.336C33.336 42.728 33.176 42.232 32.856 41.848C32.536 41.4533 32.072 41.256 31.464 41.256C30.8667 41.256 30.4027 41.4533 30.072 41.848C29.7413 42.2427 29.576 42.7387 29.576 43.336C29.576 43.624 29.6187 43.896 29.704 44.152C29.7893 44.408 29.912 44.632 30.072 44.824C30.232 45.016 30.4293 45.1653 30.664 45.272C30.8987 45.3787 31.1653 45.432 31.464 45.432ZM40.4983 47.144C39.0796 47.144 38.0449 46.7013 37.3943 45.816C36.7436 44.9307 36.4183 43.6027 36.4183 41.832C36.4183 40.808 36.5249 39.9333 36.7383 39.208C36.9516 38.472 37.2556 37.8747 37.6503 37.416C38.0556 36.9467 38.5409 36.6053 39.1063 36.392C39.6823 36.168 40.3223 36.056 41.0263 36.056C41.4316 36.056 41.7409 36.0187 41.9543 35.944C42.1676 35.8587 42.3276 35.6987 42.4343 35.464L44.0023 35.928C43.9169 36.2373 43.8103 36.504 43.6823 36.728C43.5649 36.9413 43.3996 37.1227 43.1863 37.272C42.9729 37.4213 42.7009 37.5387 42.3703 37.624C42.0396 37.6987 41.6183 37.752 41.1063 37.784C40.6156 37.816 40.1889 37.88 39.8263 37.976C39.4743 38.072 39.1756 38.2427 38.9303 38.488C38.6956 38.7227 38.5089 39.0533 38.3703 39.48C38.2423 39.9067 38.1569 40.4613 38.1143 41.144C38.4236 40.568 38.8183 40.168 39.2983 39.944C39.7889 39.7093 40.3223 39.592 40.8983 39.592C41.4316 39.592 41.9116 39.6773 42.3383 39.848C42.7756 40.0187 43.1436 40.264 43.4423 40.584C43.7409 40.904 43.9703 41.288 44.1302 41.736C44.2903 42.1733 44.3703 42.664 44.3703 43.208C44.3703 43.8053 44.2743 44.3493 44.0823 44.84C43.8903 45.32 43.6236 45.7307 43.2823 46.072C42.9409 46.4133 42.5303 46.68 42.0503 46.872C41.5809 47.0533 41.0636 47.144 40.4983 47.144ZM40.4503 45.4C40.9943 45.4 41.4316 45.2187 41.7623 44.856C42.1036 44.4827 42.2743 43.9707 42.2743 43.32C42.2743 42.68 42.1143 42.1787 41.7943 41.816C41.4849 41.4427 41.0423 41.256 40.4663 41.256C39.9009 41.256 39.4529 41.4373 39.1223 41.8C38.7916 42.1627 38.6263 42.6693 38.6263 43.32C38.6263 43.96 38.7916 44.4667 39.1223 44.84C39.4529 45.2133 39.8956 45.4 40.4503 45.4ZM46.4345 50.6L47.6665 47.08L44.6745 40.056V39.688H46.6585L48.5945 44.472L50.2905 39.688H52.0825L52.0665 40.056L48.2265 50.84H46.4345V50.6ZM57.3235 44.344C57.1102 44.44 56.8595 44.52 56.5715 44.584C56.2942 44.6373 55.9795 44.664 55.6275 44.664C55.1795 44.664 54.7742 44.6107 54.4115 44.504C54.0595 44.3973 53.7555 44.2267 53.4995 43.992C53.2435 43.7573 53.0462 43.4533 52.9075 43.08C52.7795 42.7067 52.7155 42.2533 52.7155 41.72V39.688H54.6995V41.64C54.6995 42.056 54.7955 42.376 54.9875 42.6C55.1795 42.8133 55.5635 42.92 56.1395 42.92C56.5768 42.92 56.9715 42.8667 57.3235 42.76V39.688H59.3075V47H57.3235V44.344ZM64.0763 47.112C63.6389 47.112 63.2123 47.0213 62.7963 46.84C62.3909 46.6587 62.0283 46.4027 61.7083 46.072C61.3989 45.7413 61.1483 45.3467 60.9563 44.888C60.7643 44.4187 60.6683 43.9013 60.6683 43.336C60.6683 42.7707 60.7589 42.2587 60.9403 41.8C61.1323 41.3307 61.3829 40.9307 61.6923 40.6C62.0123 40.2693 62.3749 40.0133 62.7803 39.832C63.1963 39.6507 63.6283 39.56 64.0763 39.56C64.6203 39.56 65.1003 39.6667 65.5163 39.88C65.9429 40.0933 66.2789 40.3547 66.5243 40.664V39.688H68.3963V47H66.5243V46.008C66.2576 46.3387 65.9109 46.6053 65.4843 46.808C65.0576 47.0107 64.5883 47.112 64.0763 47.112ZM64.6043 45.416C65.1483 45.416 65.5803 45.2293 65.9003 44.856C66.2309 44.472 66.4016 43.976 66.4123 43.368V43.24C66.4123 42.6747 66.2469 42.2107 65.9163 41.848C65.5856 41.4853 65.1483 41.304 64.6043 41.304C64.3589 41.304 64.1243 41.3467 63.9003 41.432C63.6763 41.5173 63.4789 41.6453 63.3083 41.816C63.1376 41.9867 63.0043 42.2 62.9083 42.456C62.8123 42.712 62.7643 43.0053 62.7643 43.336C62.7643 43.976 62.9349 44.4827 63.2763 44.856C63.6283 45.2293 64.0709 45.416 64.6043 45.416ZM70.2878 39.688H72.2718V42.28H73.2798C73.3864 41.8533 73.5571 41.4747 73.7918 41.144C74.0264 40.8027 74.3038 40.5147 74.6238 40.28C74.9544 40.0453 75.3171 39.8693 75.7118 39.752C76.1064 39.624 76.5171 39.56 76.9438 39.56C77.5091 39.56 78.0264 39.6507 78.4958 39.832C78.9651 40.0027 79.3704 40.2533 79.7118 40.584C80.0531 40.904 80.3198 41.2987 80.5118 41.768C80.7038 42.2267 80.7998 42.7493 80.7998 43.336C80.7998 43.944 80.6931 44.4827 80.4798 44.952C80.2771 45.4213 79.9944 45.816 79.6318 46.136C79.2798 46.456 78.8691 46.7013 78.3998 46.872C77.9304 47.032 77.4398 47.112 76.9278 47.112C76.4264 47.112 75.9624 47.0373 75.5358 46.888C75.1091 46.7387 74.7304 46.5307 74.3998 46.264C74.0798 45.9867 73.8131 45.6507 73.5998 45.256C73.3971 44.8613 73.2638 44.4187 73.1998 43.928H72.2718V47H70.2878V39.688ZM76.9438 45.384C77.5198 45.384 77.9571 45.192 78.2558 44.808C78.5651 44.424 78.7198 43.9387 78.7198 43.352C78.7198 42.744 78.5598 42.248 78.2398 41.864C77.9304 41.48 77.4931 41.288 76.9278 41.288C76.3624 41.288 75.9198 41.48 75.5998 41.864C75.2904 42.2373 75.1358 42.712 75.1358 43.288C75.1358 43.896 75.2958 44.3973 75.6158 44.792C75.9464 45.1867 76.3891 45.384 76.9438 45.384ZM92.3525 47H82.2565V39.688H84.2405V45.256H86.5765V39.688H88.5445V45.256H90.8645V39.688H92.8485V45.256H93.9685V48.632H92.3525V47ZM98.48 47.112C97.8933 47.112 97.3547 47.0213 96.864 46.84C96.384 46.6587 95.968 46.408 95.616 46.088C95.264 45.7573 94.992 45.368 94.8 44.92C94.608 44.4613 94.512 43.9547 94.512 43.4C94.512 42.8133 94.6133 42.2853 94.816 41.816C95.0187 41.336 95.296 40.9307 95.648 40.6C96 40.2693 96.4107 40.0133 96.88 39.832C97.3493 39.6507 97.8507 39.56 98.384 39.56C98.96 39.56 99.472 39.6613 99.92 39.864C100.379 40.056 100.763 40.328 101.072 40.68C101.381 41.0213 101.616 41.4267 101.776 41.896C101.947 42.3547 102.032 42.8507 102.032 43.384V43.8H96.432C96.528 44.3653 96.768 44.7973 97.152 45.096C97.5467 45.3947 98.0427 45.544 98.64 45.544C99.0667 45.544 99.4613 45.4693 99.824 45.32C100.197 45.16 100.507 44.9413 100.752 44.664L101.856 45.672C101.483 46.1413 101.003 46.4987 100.416 46.744C99.8293 46.9893 99.184 47.112 98.48 47.112ZM98.304 41.16C97.8347 41.16 97.44 41.288 97.12 41.544C96.8107 41.7893 96.5973 42.1413 96.48 42.6H100.128C100.064 42.1947 99.872 41.8533 99.552 41.576C99.232 41.2987 98.816 41.16 98.304 41.16ZM107.027 47.112C106.44 47.112 105.902 47.0213 105.411 46.84C104.931 46.6587 104.515 46.408 104.163 46.088C103.811 45.7573 103.539 45.368 103.347 44.92C103.155 44.4613 103.059 43.9547 103.059 43.4C103.059 42.8133 103.16 42.2853 103.363 41.816C103.566 41.336 103.843 40.9307 104.195 40.6C104.547 40.2693 104.958 40.0133 105.427 39.832C105.896 39.6507 106.398 39.56 106.931 39.56C107.507 39.56 108.019 39.6613 108.467 39.864C108.926 40.056 109.31 40.328 109.619 40.68C109.928 41.0213 110.163 41.4267 110.323 41.896C110.494 42.3547 110.579 42.8507 110.579 43.384V43.8H104.979C105.075 44.3653 105.315 44.7973 105.699 45.096C106.094 45.3947 106.59 45.544 107.187 45.544C107.614 45.544 108.008 45.4693 108.371 45.32C108.744 45.16 109.054 44.9413 109.299 44.664L110.403 45.672C110.03 46.1413 109.55 46.4987 108.963 46.744C108.376 46.9893 107.731 47.112 107.027 47.112ZM106.851 41.16C106.382 41.16 105.987 41.288 105.667 41.544C105.358 41.7893 105.144 42.1413 105.027 42.6H108.675C108.611 42.1947 108.419 41.8533 108.099 41.576C107.779 41.2987 107.363 41.16 106.851 41.16ZM115.446 47.112C114.859 47.112 114.331 47.0213 113.862 46.84C113.392 46.6587 112.987 46.408 112.646 46.088C112.315 45.7573 112.059 45.3627 111.878 44.904C111.696 44.4453 111.606 43.9333 111.606 43.368C111.606 42.7707 111.702 42.2373 111.894 41.768C112.096 41.288 112.368 40.888 112.71 40.568C113.051 40.2373 113.456 39.9867 113.926 39.816C114.395 39.6453 114.902 39.56 115.446 39.56C116.064 39.56 116.624 39.6667 117.126 39.88C117.638 40.0933 118.038 40.36 118.326 40.68L117.302 42.024C117.088 41.7893 116.838 41.6027 116.55 41.464C116.272 41.3253 115.958 41.256 115.606 41.256C115.008 41.256 114.534 41.448 114.182 41.832C113.84 42.216 113.67 42.7067 113.67 43.304C113.67 43.9227 113.846 44.4347 114.198 44.84C114.56 45.2347 115.046 45.432 115.654 45.432C116.006 45.432 116.32 45.3627 116.598 45.224C116.875 45.0747 117.12 44.8827 117.334 44.648L118.502 45.8C118.182 46.216 117.755 46.5413 117.222 46.776C116.699 47 116.107 47.112 115.446 47.112ZM119.199 46.728L120.751 44.408C119.898 44.0027 119.471 43.2827 119.471 42.248C119.471 41.4053 119.743 40.7707 120.287 40.344C120.842 39.9067 121.7 39.688 122.863 39.688H126.031V47H124.047V44.76H122.799L121.359 47H119.199V46.728ZM124.047 43.352V41.224H122.991C122.479 41.224 122.1 41.2987 121.855 41.448C121.61 41.5867 121.487 41.8587 121.487 42.264C121.487 42.6693 121.594 42.952 121.807 43.112C122.031 43.272 122.41 43.352 122.943 43.352H124.047ZM143.259 44.024H135.787V42.408H143.259V44.024ZM153.742 39.688H155.438L157.374 43.928L159.198 39.688H160.942L162.158 47H160.302L159.598 42.728L157.71 47H156.862L154.958 42.808L154.27 47H152.51L153.742 39.688ZM166.933 47.112C166.357 47.112 165.823 47.0213 165.333 46.84C164.853 46.6587 164.437 46.4027 164.085 46.072C163.743 45.7307 163.471 45.3307 163.269 44.872C163.077 44.4133 162.981 43.9013 162.981 43.336C162.981 42.7707 163.077 42.2587 163.269 41.8C163.471 41.3307 163.749 40.9307 164.101 40.6C164.453 40.2693 164.869 40.0133 165.349 39.832C165.839 39.6507 166.367 39.56 166.933 39.56C167.509 39.56 168.037 39.6507 168.517 39.832C169.007 40.0133 169.429 40.2747 169.781 40.616C170.133 40.9467 170.405 41.3467 170.597 41.816C170.789 42.2747 170.885 42.7813 170.885 43.336C170.885 43.912 170.783 44.4347 170.581 44.904C170.378 45.3627 170.101 45.7573 169.749 46.088C169.397 46.408 168.981 46.6587 168.501 46.84C168.021 47.0213 167.498 47.112 166.933 47.112ZM166.933 45.432C167.519 45.432 167.978 45.2347 168.309 44.84C168.639 44.4453 168.805 43.944 168.805 43.336C168.805 42.728 168.645 42.232 168.325 41.848C168.005 41.4533 167.541 41.256 166.933 41.256C166.335 41.256 165.871 41.4533 165.541 41.848C165.21 42.2427 165.045 42.7387 165.045 43.336C165.045 43.624 165.087 43.896 165.173 44.152C165.258 44.408 165.381 44.632 165.541 44.824C165.701 45.016 165.898 45.1653 166.133 45.272C166.367 45.3787 166.634 45.432 166.933 45.432ZM171.14 46.728L173.252 43.096L171.556 39.96V39.688H173.54L174.932 42.408H175.732V39.688H177.7V42.408H178.484L179.892 39.688H181.812V39.96L180.148 43.064L182.308 46.728V47H180.196L178.452 43.912H177.7V47H175.732V43.912H174.964L173.236 47H171.14V46.728ZM186.496 47.112C185.909 47.112 185.37 47.0213 184.88 46.84C184.4 46.6587 183.984 46.408 183.632 46.088C183.28 45.7573 183.008 45.368 182.816 44.92C182.624 44.4613 182.528 43.9547 182.528 43.4C182.528 42.8133 182.629 42.2853 182.832 41.816C183.034 41.336 183.312 40.9307 183.664 40.6C184.016 40.2693 184.426 40.0133 184.896 39.832C185.365 39.6507 185.866 39.56 186.4 39.56C186.976 39.56 187.488 39.6613 187.936 39.864C188.394 40.056 188.778 40.328 189.088 40.68C189.397 41.0213 189.632 41.4267 189.792 41.896C189.962 42.3547 190.048 42.8507 190.048 43.384V43.8H184.448C184.544 44.3653 184.784 44.7973 185.168 45.096C185.562 45.3947 186.058 45.544 186.656 45.544C187.082 45.544 187.477 45.4693 187.84 45.32C188.213 45.16 188.522 44.9413 188.768 44.664L189.872 45.672C189.498 46.1413 189.018 46.4987 188.432 46.744C187.845 46.9893 187.2 47.112 186.496 47.112ZM186.32 41.16C185.85 41.16 185.456 41.288 185.136 41.544C184.826 41.7893 184.613 42.1413 184.496 42.6H188.144C188.08 42.1947 187.888 41.8533 187.568 41.576C187.248 41.2987 186.832 41.16 186.32 41.16ZM192.952 41.432H190.6V39.688H197.272V41.432H194.92V47H192.952V41.432ZM198.132 47.08C197.812 47.0267 197.567 46.904 197.396 46.712C197.236 46.5093 197.156 46.2693 197.156 45.992C197.156 45.64 197.268 45.3627 197.492 45.16C197.727 44.9467 198.004 44.84 198.324 44.84C198.665 44.84 198.959 44.952 199.204 45.176C199.46 45.4 199.588 45.72 199.588 46.136C199.588 46.4133 199.513 46.7227 199.364 47.064C199.215 47.4053 198.985 47.848 198.676 48.392L198.036 49.56H196.756L198.132 47.08ZM209.303 39.688H216.183V47H214.215V41.432H211.287V47H209.303V39.688ZM221.605 47.112C221.029 47.112 220.495 47.0213 220.005 46.84C219.525 46.6587 219.109 46.4027 218.757 46.072C218.415 45.7307 218.143 45.3307 217.941 44.872C217.749 44.4133 217.653 43.9013 217.653 43.336C217.653 42.7707 217.749 42.2587 217.941 41.8C218.143 41.3307 218.421 40.9307 218.773 40.6C219.125 40.2693 219.541 40.0133 220.021 39.832C220.511 39.6507 221.039 39.56 221.605 39.56C222.181 39.56 222.709 39.6507 223.189 39.832C223.679 40.0133 224.101 40.2747 224.453 40.616C224.805 40.9467 225.077 41.3467 225.269 41.816C225.461 42.2747 225.557 42.7813 225.557 43.336C225.557 43.912 225.455 44.4347 225.253 44.904C225.05 45.3627 224.773 45.7573 224.421 46.088C224.069 46.408 223.653 46.6587 223.173 46.84C222.693 47.0213 222.17 47.112 221.605 47.112ZM221.605 45.432C222.191 45.432 222.65 45.2347 222.981 44.84C223.311 44.4453 223.477 43.944 223.477 43.336C223.477 42.728 223.317 42.232 222.997 41.848C222.677 41.4533 222.213 41.256 221.605 41.256C221.007 41.256 220.543 41.4533 220.213 41.848C219.882 42.2427 219.717 42.7387 219.717 43.336C219.717 43.624 219.759 43.896 219.845 44.152C219.93 44.408 220.053 44.632 220.213 44.824C220.373 45.016 220.57 45.1653 220.805 45.272C221.039 45.3787 221.306 45.432 221.605 45.432ZM228.437 41.432H226.085V39.688H232.757V41.432H230.405V47H228.437V41.432ZM237.214 47.112C236.638 47.112 236.105 47.0213 235.614 46.84C235.134 46.6587 234.718 46.4027 234.366 46.072C234.025 45.7307 233.753 45.3307 233.55 44.872C233.358 44.4133 233.262 43.9013 233.262 43.336C233.262 42.7707 233.358 42.2587 233.55 41.8C233.753 41.3307 234.03 40.9307 234.382 40.6C234.734 40.2693 235.15 40.0133 235.63 39.832C236.121 39.6507 236.649 39.56 237.214 39.56C237.79 39.56 238.318 39.6507 238.798 39.832C239.289 40.0133 239.71 40.2747 240.062 40.616C240.414 40.9467 240.686 41.3467 240.878 41.816C241.07 42.2747 241.166 42.7813 241.166 43.336C241.166 43.912 241.065 44.4347 240.862 44.904C240.659 45.3627 240.382 45.7573 240.03 46.088C239.678 46.408 239.262 46.6587 238.782 46.84C238.302 47.0213 237.779 47.112 237.214 47.112ZM237.214 45.432C237.801 45.432 238.259 45.2347 238.59 44.84C238.921 44.4453 239.086 43.944 239.086 43.336C239.086 42.728 238.926 42.232 238.606 41.848C238.286 41.4533 237.822 41.256 237.214 41.256C236.617 41.256 236.153 41.4533 235.822 41.848C235.491 42.2427 235.326 42.7387 235.326 43.336C235.326 43.624 235.369 43.896 235.454 44.152C235.539 44.408 235.662 44.632 235.822 44.824C235.982 45.016 236.179 45.1653 236.414 45.272C236.649 45.3787 236.915 45.432 237.214 45.432ZM243.242 39.688H244.938L246.874 43.928L248.698 39.688H250.442L251.658 47H249.802L249.098 42.728L247.21 47H246.362L244.458 42.808L243.77 47H242.01L243.242 39.688ZM253.544 50.6L254.776 47.08L251.784 40.056V39.688H253.768L255.704 44.472L257.4 39.688H259.192L259.176 40.056L255.336 50.84H253.544V50.6ZM272.324 44.344C272.11 44.44 271.86 44.52 271.572 44.584C271.294 44.6373 270.98 44.664 270.628 44.664C270.18 44.664 269.774 44.6107 269.412 44.504C269.06 44.3973 268.756 44.2267 268.5 43.992C268.244 43.7573 268.046 43.4533 267.908 43.08C267.78 42.7067 267.715 42.2533 267.715 41.72V39.688H269.7V41.64C269.7 42.056 269.796 42.376 269.988 42.6C270.18 42.8133 270.564 42.92 271.14 42.92C271.577 42.92 271.972 42.8667 272.324 42.76V39.688H274.308V47H272.324V44.344ZM277.78 41.432H275.428V39.688H282.1V41.432H279.748V47H277.78V41.432ZM286.558 47.112C285.982 47.112 285.448 47.0213 284.958 46.84C284.478 46.6587 284.062 46.4027 283.71 46.072C283.368 45.7307 283.096 45.3307 282.894 44.872C282.702 44.4133 282.606 43.9013 282.606 43.336C282.606 42.7707 282.702 42.2587 282.894 41.8C283.096 41.3307 283.374 40.9307 283.726 40.6C284.078 40.2693 284.494 40.0133 284.974 39.832C285.464 39.6507 285.992 39.56 286.558 39.56C287.134 39.56 287.662 39.6507 288.142 39.832C288.632 40.0133 289.054 40.2747 289.406 40.616C289.758 40.9467 290.03 41.3467 290.222 41.816C290.414 42.2747 290.51 42.7813 290.51 43.336C290.51 43.912 290.408 44.4347 290.206 44.904C290.003 45.3627 289.726 45.7573 289.374 46.088C289.022 46.408 288.606 46.6587 288.126 46.84C287.646 47.0213 287.123 47.112 286.558 47.112ZM286.558 45.432C287.144 45.432 287.603 45.2347 287.934 44.84C288.264 44.4453 288.43 43.944 288.43 43.336C288.43 42.728 288.27 42.232 287.95 41.848C287.63 41.4533 287.166 41.256 286.558 41.256C285.96 41.256 285.496 41.4533 285.166 41.848C284.835 42.2427 284.67 42.7387 284.67 43.336C284.67 43.624 284.712 43.896 284.798 44.152C284.883 44.408 285.006 44.632 285.166 44.824C285.326 45.016 285.523 45.1653 285.758 45.272C285.992 45.3787 286.259 45.432 286.558 45.432ZM28.312 54.8H30.456V62.112L36.312 54.8H37.672V66H35.512V58.72L29.672 66H28.312V54.8ZM40.2964 54.8H42.4404V62.112L48.2964 54.8H49.6564V66H47.4964V58.72L41.6564 66H40.2964V54.8ZM57.869 58.688H61.821C62.5783 58.688 63.149 58.8533 63.533 59.184C63.917 59.504 64.109 59.9253 64.109 60.448C64.109 60.8427 64.013 61.168 63.821 61.424C63.629 61.68 63.3783 61.8613 63.069 61.968C63.5917 62.0427 64.0183 62.224 64.349 62.512C64.6797 62.8 64.845 63.232 64.845 63.808C64.845 64.512 64.5837 65.056 64.061 65.44C63.549 65.8133 62.797 66 61.805 66H57.869V58.688ZM59.853 62.704V64.544H61.373C61.8743 64.544 62.2317 64.4693 62.445 64.32C62.6583 64.16 62.765 63.9253 62.765 63.616C62.765 63.296 62.653 63.0667 62.429 62.928C62.205 62.7787 61.869 62.704 61.421 62.704H59.853ZM59.853 60.144V61.552H61.229C61.9117 61.552 62.253 61.312 62.253 60.832C62.253 60.3733 61.9063 60.144 61.213 60.144H59.853ZM66.0877 58.688H72.9677V66H70.9997V60.432H68.0717V66H66.0877V58.688ZM74.869 58.688H76.853V62.896L80.245 58.688H81.797V66H79.813V61.552L76.229 66H74.869V58.688ZM85.3615 60.432H83.0095V58.688H89.6815V60.432H87.3295V66H85.3615V60.432ZM93.9882 60.8C95.0229 60.8 95.8069 61.0133 96.3402 61.44C96.8842 61.8667 97.1562 62.512 97.1562 63.376C97.1562 64.24 96.8736 64.896 96.3082 65.344C95.7536 65.7813 94.9269 66 93.8282 66H90.9002V58.688H92.8842V60.8H93.9882ZM97.8602 58.688H99.8442V66H97.8602V58.688ZM93.6202 64.448C94.1002 64.448 94.4682 64.3787 94.7242 64.24C94.9909 64.0907 95.1242 63.8027 95.1242 63.376C95.1242 62.9813 95.0016 62.7093 94.7562 62.56C94.5216 62.4107 94.1642 62.336 93.6842 62.336H92.8842V64.448H93.6202ZM101.728 58.688H105.68C106.438 58.688 107.008 58.8533 107.392 59.184C107.776 59.504 107.968 59.9253 107.968 60.448C107.968 60.8427 107.872 61.168 107.68 61.424C107.488 61.68 107.238 61.8613 106.928 61.968C107.451 62.0427 107.878 62.224 108.208 62.512C108.539 62.8 108.704 63.232 108.704 63.808C108.704 64.512 108.443 65.056 107.92 65.44C107.408 65.8133 106.656 66 105.664 66H101.728V58.688ZM103.712 62.704V64.544H105.232C105.734 64.544 106.091 64.4693 106.304 64.32C106.518 64.16 106.624 63.9253 106.624 63.616C106.624 63.296 106.512 63.0667 106.288 62.928C106.064 62.7787 105.728 62.704 105.28 62.704H103.712ZM103.712 60.144V61.552H105.088C105.771 61.552 106.112 61.312 106.112 60.832C106.112 60.3733 105.766 60.144 105.072 60.144H103.712ZM112.923 66.112C112.486 66.112 112.059 66.0213 111.643 65.84C111.238 65.6587 110.875 65.4027 110.555 65.072C110.246 64.7413 109.995 64.3467 109.803 63.888C109.611 63.4187 109.515 62.9013 109.515 62.336C109.515 61.7707 109.606 61.2587 109.787 60.8C109.979 60.3307 110.23 59.9307 110.539 59.6C110.859 59.2693 111.222 59.0133 111.627 58.832C112.043 58.6507 112.475 58.56 112.923 58.56C113.467 58.56 113.947 58.6667 114.363 58.88C114.79 59.0933 115.126 59.3547 115.371 59.664V58.688H117.243V66H115.371V65.008C115.104 65.3387 114.758 65.6053 114.331 65.808C113.904 66.0107 113.435 66.112 112.923 66.112ZM113.451 64.416C113.995 64.416 114.427 64.2293 114.747 63.856C115.078 63.472 115.248 62.976 115.259 62.368V62.24C115.259 61.6747 115.094 61.2107 114.763 60.848C114.432 60.4853 113.995 60.304 113.451 60.304C113.206 60.304 112.971 60.3467 112.747 60.432C112.523 60.5173 112.326 60.6453 112.155 60.816C111.984 60.9867 111.851 61.2 111.755 61.456C111.659 61.712 111.611 62.0053 111.611 62.336C111.611 62.976 111.782 63.4827 112.123 63.856C112.475 64.2293 112.918 64.416 113.451 64.416ZM122.671 66.112C122.084 66.112 121.545 66.0213 121.055 65.84C120.575 65.6587 120.159 65.408 119.807 65.088C119.455 64.7573 119.183 64.368 118.991 63.92C118.799 63.4613 118.703 62.9547 118.703 62.4C118.703 61.8133 118.804 61.2853 119.007 60.816C119.209 60.336 119.487 59.9307 119.839 59.6C120.191 59.2693 120.601 59.0133 121.071 58.832C121.54 58.6507 122.041 58.56 122.575 58.56C123.151 58.56 123.663 58.6613 124.111 58.864C124.569 59.056 124.953 59.328 125.263 59.68C125.572 60.0213 125.807 60.4267 125.967 60.896C126.137 61.3547 126.223 61.8507 126.223 62.384V62.8H120.623C120.719 63.3653 120.959 63.7973 121.343 64.096C121.737 64.3947 122.233 64.544 122.831 64.544C123.257 64.544 123.652 64.4693 124.015 64.32C124.388 64.16 124.697 63.9413 124.943 63.664L126.047 64.672C125.673 65.1413 125.193 65.4987 124.607 65.744C124.02 65.9893 123.375 66.112 122.671 66.112ZM122.495 60.16C122.025 60.16 121.631 60.288 121.311 60.544C121.001 60.7893 120.788 61.1413 120.671 61.6H124.319C124.255 61.1947 124.063 60.8533 123.743 60.576C123.423 60.2987 123.007 60.16 122.495 60.16ZM129.127 60.432H126.775V58.688H133.447V60.432H131.095V66H129.127V60.432ZM144.142 66.112C143.566 66.112 143.033 66.0213 142.542 65.84C142.062 65.6587 141.646 65.4027 141.294 65.072C140.953 64.7307 140.681 64.3307 140.478 63.872C140.286 63.4133 140.19 62.9013 140.19 62.336C140.19 61.7707 140.286 61.2587 140.478 60.8C140.681 60.3307 140.958 59.9307 141.31 59.6C141.662 59.2693 142.078 59.0133 142.558 58.832C143.049 58.6507 143.577 58.56 144.142 58.56C144.718 58.56 145.246 58.6507 145.726 58.832C146.217 59.0133 146.638 59.2747 146.99 59.616C147.342 59.9467 147.614 60.3467 147.806 60.816C147.998 61.2747 148.094 61.7813 148.094 62.336C148.094 62.912 147.993 63.4347 147.79 63.904C147.587 64.3627 147.31 64.7573 146.958 65.088C146.606 65.408 146.19 65.6587 145.71 65.84C145.23 66.0213 144.707 66.112 144.142 66.112ZM144.142 64.432C144.729 64.432 145.187 64.2347 145.518 63.84C145.849 63.4453 146.014 62.944 146.014 62.336C146.014 61.728 145.854 61.232 145.534 60.848C145.214 60.4533 144.75 60.256 144.142 60.256C143.545 60.256 143.081 60.4533 142.75 60.848C142.419 61.2427 142.254 61.7387 142.254 62.336C142.254 62.624 142.297 62.896 142.382 63.152C142.467 63.408 142.59 63.632 142.75 63.824C142.91 64.016 143.107 64.1653 143.342 64.272C143.577 64.3787 143.843 64.432 144.142 64.432ZM149.528 58.688H156.408V66H154.44V60.432H151.512V66H149.528V58.688ZM161.398 60.8C162.432 60.8 163.216 61.0133 163.75 61.44C164.294 61.8667 164.566 62.512 164.566 63.376C164.566 64.24 164.283 64.896 163.718 65.344C163.163 65.7813 162.336 66 161.238 66H158.31V58.688H160.294V60.8H161.398ZM165.27 58.688H167.254V66H165.27V58.688ZM161.03 64.448C161.51 64.448 161.878 64.3787 162.134 64.24C162.4 64.0907 162.534 63.8027 162.534 63.376C162.534 62.9813 162.411 62.7093 162.166 62.56C161.931 62.4107 161.574 62.336 161.094 62.336H160.294V64.448H161.03ZM170.818 60.432H168.466V58.688H175.138V60.432H172.786V66H170.818V60.432ZM182.313 58.688H186.265C187.022 58.688 187.593 58.8533 187.977 59.184C188.361 59.504 188.553 59.9253 188.553 60.448C188.553 60.8427 188.457 61.168 188.265 61.424C188.073 61.68 187.822 61.8613 187.513 61.968C188.035 62.0427 188.462 62.224 188.793 62.512C189.123 62.8 189.289 63.232 189.289 63.808C189.289 64.512 189.027 65.056 188.505 65.44C187.993 65.8133 187.241 66 186.249 66H182.313V58.688ZM184.297 62.704V64.544H185.817C186.318 64.544 186.675 64.4693 186.889 64.32C187.102 64.16 187.209 63.9253 187.209 63.616C187.209 63.296 187.097 63.0667 186.873 62.928C186.649 62.7787 186.313 62.704 185.865 62.704H184.297ZM184.297 60.144V61.552H185.673C186.355 61.552 186.697 61.312 186.697 60.832C186.697 60.3733 186.35 60.144 185.657 60.144H184.297ZM193.939 66.112C193.353 66.112 192.825 66.0213 192.355 65.84C191.886 65.6587 191.481 65.408 191.139 65.088C190.809 64.7573 190.553 64.3627 190.371 63.904C190.19 63.4453 190.099 62.9333 190.099 62.368C190.099 61.7707 190.195 61.2373 190.387 60.768C190.59 60.288 190.862 59.888 191.203 59.568C191.545 59.2373 191.95 58.9867 192.419 58.816C192.889 58.6453 193.395 58.56 193.939 58.56C194.558 58.56 195.118 58.6667 195.619 58.88C196.131 59.0933 196.531 59.36 196.819 59.68L195.795 61.024C195.582 60.7893 195.331 60.6027 195.043 60.464C194.766 60.3253 194.451 60.256 194.099 60.256C193.502 60.256 193.027 60.448 192.675 60.832C192.334 61.216 192.163 61.7067 192.163 62.304C192.163 62.9227 192.339 63.4347 192.691 63.84C193.054 64.2347 193.539 64.432 194.147 64.432C194.499 64.432 194.814 64.3627 195.091 64.224C195.369 64.0747 195.614 63.8827 195.827 63.648L196.995 64.8C196.675 65.216 196.249 65.5413 195.715 65.776C195.193 66 194.601 66.112 193.939 66.112ZM201.646 66.112C201.059 66.112 200.52 66.0213 200.03 65.84C199.55 65.6587 199.134 65.408 198.782 65.088C198.43 64.7573 198.158 64.368 197.966 63.92C197.774 63.4613 197.678 62.9547 197.678 62.4C197.678 61.8133 197.779 61.2853 197.982 60.816C198.184 60.336 198.462 59.9307 198.814 59.6C199.166 59.2693 199.576 59.0133 200.046 58.832C200.515 58.6507 201.016 58.56 201.55 58.56C202.126 58.56 202.638 58.6613 203.086 58.864C203.544 59.056 203.928 59.328 204.238 59.68C204.547 60.0213 204.782 60.4267 204.942 60.896C205.112 61.3547 205.198 61.8507 205.198 62.384V62.8H199.598C199.694 63.3653 199.934 63.7973 200.318 64.096C200.712 64.3947 201.208 64.544 201.806 64.544C202.232 64.544 202.627 64.4693 202.99 64.32C203.363 64.16 203.672 63.9413 203.918 63.664L205.022 64.672C204.648 65.1413 204.168 65.4987 203.582 65.744C202.995 65.9893 202.35 66.112 201.646 66.112ZM201.47 60.16C201 60.16 200.606 60.288 200.286 60.544C199.976 60.7893 199.763 61.1413 199.646 61.6H203.294C203.23 61.1947 203.038 60.8533 202.718 60.576C202.398 60.2987 201.982 60.16 201.47 60.16ZM206.656 58.688H211.728V60.432H208.64V66H206.656V58.688ZM216.301 66.112C215.725 66.112 215.192 66.0213 214.701 65.84C214.221 65.6587 213.805 65.4027 213.453 65.072C213.112 64.7307 212.84 64.3307 212.637 63.872C212.445 63.4133 212.349 62.9013 212.349 62.336C212.349 61.7707 212.445 61.2587 212.637 60.8C212.84 60.3307 213.117 59.9307 213.469 59.6C213.821 59.2693 214.237 59.0133 214.717 58.832C215.208 58.6507 215.736 58.56 216.301 58.56C216.877 58.56 217.405 58.6507 217.885 58.832C218.376 59.0133 218.797 59.2747 219.149 59.616C219.501 59.9467 219.773 60.3467 219.965 60.816C220.157 61.2747 220.253 61.7813 220.253 62.336C220.253 62.912 220.152 63.4347 219.949 63.904C219.747 64.3627 219.469 64.7573 219.117 65.088C218.765 65.408 218.349 65.6587 217.869 65.84C217.389 66.0213 216.867 66.112 216.301 66.112ZM216.301 64.432C216.888 64.432 217.347 64.2347 217.677 63.84C218.008 63.4453 218.173 62.944 218.173 62.336C218.173 61.728 218.013 61.232 217.693 60.848C217.373 60.4533 216.909 60.256 216.301 60.256C215.704 60.256 215.24 60.4533 214.909 60.848C214.579 61.2427 214.413 61.7387 214.413 62.336C214.413 62.624 214.456 62.896 214.541 63.152C214.627 63.408 214.749 63.632 214.909 63.824C215.069 64.016 215.267 64.1653 215.501 64.272C215.736 64.3787 216.003 64.432 216.301 64.432ZM229.324 60.432H226.972V58.688H233.644V60.432H231.292V66H229.324V60.432ZM238.101 66.112C237.525 66.112 236.992 66.0213 236.501 65.84C236.021 65.6587 235.605 65.4027 235.253 65.072C234.912 64.7307 234.64 64.3307 234.437 63.872C234.245 63.4133 234.149 62.9013 234.149 62.336C234.149 61.7707 234.245 61.2587 234.437 60.8C234.64 60.3307 234.917 59.9307 235.269 59.6C235.621 59.2693 236.037 59.0133 236.517 58.832C237.008 58.6507 237.536 58.56 238.101 58.56C238.677 58.56 239.205 58.6507 239.685 58.832C240.176 59.0133 240.597 59.2747 240.949 59.616C241.301 59.9467 241.573 60.3467 241.765 60.816C241.957 61.2747 242.053 61.7813 242.053 62.336C242.053 62.912 241.952 63.4347 241.749 63.904C241.547 64.3627 241.269 64.7573 240.917 65.088C240.565 65.408 240.149 65.6587 239.669 65.84C239.189 66.0213 238.667 66.112 238.101 66.112ZM238.101 64.432C238.688 64.432 239.147 64.2347 239.477 63.84C239.808 63.4453 239.973 62.944 239.973 62.336C239.973 61.728 239.813 61.232 239.493 60.848C239.173 60.4533 238.709 60.256 238.101 60.256C237.504 60.256 237.04 60.4533 236.709 60.848C236.379 61.2427 236.213 61.7387 236.213 62.336C236.213 62.624 236.256 62.896 236.341 63.152C236.427 63.408 236.549 63.632 236.709 63.824C236.869 64.016 237.067 64.1653 237.301 64.272C237.536 64.3787 237.803 64.432 238.101 64.432ZM243.488 58.688H248.56V60.432H245.472V66H243.488V58.688ZM253.133 66.112C252.557 66.112 252.023 66.0213 251.533 65.84C251.053 65.6587 250.637 65.4027 250.285 65.072C249.943 64.7307 249.671 64.3307 249.469 63.872C249.277 63.4133 249.181 62.9013 249.181 62.336C249.181 61.7707 249.277 61.2587 249.469 60.8C249.671 60.3307 249.949 59.9307 250.301 59.6C250.653 59.2693 251.069 59.0133 251.549 58.832C252.039 58.6507 252.567 58.56 253.133 58.56C253.709 58.56 254.237 58.6507 254.717 58.832C255.207 59.0133 255.629 59.2747 255.981 59.616C256.333 59.9467 256.605 60.3467 256.797 60.816C256.989 61.2747 257.085 61.7813 257.085 62.336C257.085 62.912 256.983 63.4347 256.781 63.904C256.578 64.3627 256.301 64.7573 255.949 65.088C255.597 65.408 255.181 65.6587 254.701 65.84C254.221 66.0213 253.698 66.112 253.133 66.112ZM253.133 64.432C253.719 64.432 254.178 64.2347 254.509 63.84C254.839 63.4453 255.005 62.944 255.005 62.336C255.005 61.728 254.845 61.232 254.525 60.848C254.205 60.4533 253.741 60.256 253.133 60.256C252.535 60.256 252.071 60.4533 251.741 60.848C251.41 61.2427 251.245 61.7387 251.245 62.336C251.245 62.624 251.287 62.896 251.373 63.152C251.458 63.408 251.581 63.632 251.741 63.824C251.901 64.016 252.098 64.1653 252.333 64.272C252.567 64.3787 252.834 64.432 253.133 64.432ZM258.894 66.08C258.574 66.0267 258.329 65.904 258.158 65.712C257.998 65.5093 257.918 65.2693 257.918 64.992C257.918 64.64 258.03 64.3627 258.254 64.16C258.489 63.9467 258.766 63.84 259.086 63.84C259.428 63.84 259.721 63.952 259.966 64.176C260.222 64.4 260.35 64.72 260.35 65.136C260.35 65.4133 260.276 65.7227 260.126 66.064C259.977 66.4053 259.748 66.848 259.438 67.392L258.798 68.56H257.518L258.894 66.08ZM272.324 63.344C272.11 63.44 271.86 63.52 271.572 63.584C271.294 63.6373 270.98 63.664 270.628 63.664C270.18 63.664 269.774 63.6107 269.412 63.504C269.06 63.3973 268.756 63.2267 268.5 62.992C268.244 62.7573 268.046 62.4533 267.908 62.08C267.78 61.7067 267.715 61.2533 267.715 60.72V58.688H269.7V60.64C269.7 61.056 269.796 61.376 269.988 61.6C270.18 61.8133 270.564 61.92 271.14 61.92C271.577 61.92 271.972 61.8667 272.324 61.76V58.688H274.308V66H272.324V63.344ZM277.78 60.432H275.428V58.688H282.1V60.432H279.748V66H277.78V60.432ZM286.558 66.112C285.982 66.112 285.448 66.0213 284.958 65.84C284.478 65.6587 284.062 65.4027 283.71 65.072C283.368 64.7307 283.096 64.3307 282.894 63.872C282.702 63.4133 282.606 62.9013 282.606 62.336C282.606 61.7707 282.702 61.2587 282.894 60.8C283.096 60.3307 283.374 59.9307 283.726 59.6C284.078 59.2693 284.494 59.0133 284.974 58.832C285.464 58.6507 285.992 58.56 286.558 58.56C287.134 58.56 287.662 58.6507 288.142 58.832C288.632 59.0133 289.054 59.2747 289.406 59.616C289.758 59.9467 290.03 60.3467 290.222 60.816C290.414 61.2747 290.51 61.7813 290.51 62.336C290.51 62.912 290.408 63.4347 290.206 63.904C290.003 64.3627 289.726 64.7573 289.374 65.088C289.022 65.408 288.606 65.6587 288.126 65.84C287.646 66.0213 287.123 66.112 286.558 66.112ZM286.558 64.432C287.144 64.432 287.603 64.2347 287.934 63.84C288.264 63.4453 288.43 62.944 288.43 62.336C288.43 61.728 288.27 61.232 287.95 60.848C287.63 60.4533 287.166 60.256 286.558 60.256C285.96 60.256 285.496 60.4533 285.166 60.848C284.835 61.2427 284.67 61.7387 284.67 62.336C284.67 62.624 284.712 62.896 284.798 63.152C284.883 63.408 285.006 63.632 285.166 63.824C285.326 64.016 285.523 64.1653 285.758 64.272C285.992 64.3787 286.259 64.432 286.558 64.432ZM27.944 77.688H34.824V85H32.856V79.432H29.928V85H27.944V77.688ZM36.7253 88.84V77.688H38.5973V78.664C38.8426 78.3547 39.1733 78.0933 39.5893 77.88C40.0159 77.6667 40.5013 77.56 41.0453 77.56C41.4933 77.56 41.9199 77.6507 42.3253 77.832C42.7413 78.0133 43.1039 78.2693 43.4133 78.6C43.7333 78.9307 43.9839 79.3307 44.1653 79.8C44.3573 80.2587 44.4533 80.7707 44.4533 81.336C44.4533 81.9013 44.3573 82.4187 44.1653 82.888C43.9733 83.3467 43.7173 83.7413 43.3973 84.072C43.0879 84.4027 42.7253 84.6587 42.3093 84.84C41.9039 85.0213 41.4826 85.112 41.0453 85.112C40.5653 85.112 40.1226 85.0267 39.7173 84.856C39.3119 84.6747 38.9759 84.4347 38.7093 84.136V88.84H36.7253ZM40.5173 79.304C39.9733 79.304 39.5413 79.48 39.2213 79.832C38.9013 80.1733 38.7306 80.616 38.7093 81.16V81.368C38.7199 81.976 38.8853 82.472 39.2053 82.856C39.5359 83.2293 39.9733 83.416 40.5173 83.416C41.0506 83.416 41.4879 83.2293 41.8293 82.856C42.1813 82.4827 42.3573 81.976 42.3573 81.336C42.3573 81.0053 42.3039 80.712 42.1973 80.456C42.1013 80.2 41.9679 79.9867 41.7973 79.816C41.6373 79.6453 41.4453 79.5173 41.2213 79.432C40.9973 79.3467 40.7626 79.304 40.5173 79.304ZM49.4328 85.112C48.8568 85.112 48.3234 85.0213 47.8328 84.84C47.3528 84.6587 46.9368 84.4027 46.5848 84.072C46.2434 83.7307 45.9714 83.3307 45.7688 82.872C45.5768 82.4133 45.4808 81.9013 45.4808 81.336C45.4808 80.7707 45.5768 80.2587 45.7688 79.8C45.9714 79.3307 46.2488 78.9307 46.6008 78.6C46.9528 78.2693 47.3688 78.0133 47.8488 77.832C48.3394 77.6507 48.8674 77.56 49.4328 77.56C50.0088 77.56 50.5368 77.6507 51.0168 77.832C51.5074 78.0133 51.9288 78.2747 52.2808 78.616C52.6328 78.9467 52.9048 79.3467 53.0968 79.816C53.2888 80.2747 53.3848 80.7813 53.3848 81.336C53.3848 81.912 53.2834 82.4347 53.0808 82.904C52.8781 83.3627 52.6008 83.7573 52.2488 84.088C51.8968 84.408 51.4808 84.6587 51.0008 84.84C50.5208 85.0213 49.9981 85.112 49.4328 85.112ZM49.4328 83.432C50.0194 83.432 50.4781 83.2347 50.8088 82.84C51.1394 82.4453 51.3048 81.944 51.3048 81.336C51.3048 80.728 51.1448 80.232 50.8248 79.848C50.5048 79.4533 50.0408 79.256 49.4328 79.256C48.8354 79.256 48.3714 79.4533 48.0408 79.848C47.7101 80.2427 47.5448 80.7387 47.5448 81.336C47.5448 81.624 47.5874 81.896 47.6728 82.152C47.7581 82.408 47.8808 82.632 48.0408 82.824C48.2008 83.016 48.3981 83.1653 48.6328 83.272C48.8674 83.3787 49.1341 83.432 49.4328 83.432ZM54.819 77.688H56.803V81.896L60.195 77.688H61.747V85H59.763V80.552L56.179 85H54.819V77.688ZM67.0395 85.112C66.4528 85.112 65.9248 85.0213 65.4555 84.84C64.9862 84.6587 64.5808 84.408 64.2395 84.088C63.9088 83.7573 63.6528 83.3627 63.4715 82.904C63.2902 82.4453 63.1995 81.9333 63.1995 81.368C63.1995 80.7707 63.2955 80.2373 63.4875 79.768C63.6902 79.288 63.9622 78.888 64.3035 78.568C64.6448 78.2373 65.0502 77.9867 65.5195 77.816C65.9888 77.6453 66.4955 77.56 67.0395 77.56C67.6582 77.56 68.2182 77.6667 68.7195 77.88C69.2315 78.0933 69.6315 78.36 69.9195 78.68L68.8955 80.024C68.6822 79.7893 68.4315 79.6027 68.1435 79.464C67.8662 79.3253 67.5515 79.256 67.1995 79.256C66.6022 79.256 66.1275 79.448 65.7755 79.832C65.4342 80.216 65.2635 80.7067 65.2635 81.304C65.2635 81.9227 65.4395 82.4347 65.7915 82.84C66.1542 83.2347 66.6395 83.432 67.2475 83.432C67.5995 83.432 67.9142 83.3627 68.1915 83.224C68.4688 83.0747 68.7142 82.8827 68.9275 82.648L70.0955 83.8C69.7755 84.216 69.3488 84.5413 68.8155 84.776C68.2928 85 67.7008 85.112 67.0395 85.112ZM70.4416 84.632L72.7616 81.16L70.6336 78.056V77.688H72.7136L74.1536 79.832L75.5296 77.688H77.4176V78.056L75.3216 81.208L77.6416 84.648L77.6576 85H75.6256L73.9936 82.568L72.3776 85H70.4416V84.632ZM81.9796 85.112C81.4036 85.112 80.8703 85.0213 80.3796 84.84C79.8996 84.6587 79.4836 84.4027 79.1316 84.072C78.7903 83.7307 78.5183 83.3307 78.3156 82.872C78.1236 82.4133 78.0276 81.9013 78.0276 81.336C78.0276 80.7707 78.1236 80.2587 78.3156 79.8C78.5183 79.3307 78.7956 78.9307 79.1476 78.6C79.4996 78.2693 79.9156 78.0133 80.3956 77.832C80.8863 77.6507 81.4143 77.56 81.9796 77.56C82.5556 77.56 83.0836 77.6507 83.5636 77.832C84.0543 78.0133 84.4756 78.2747 84.8276 78.616C85.1796 78.9467 85.4516 79.3467 85.6436 79.816C85.8356 80.2747 85.9316 80.7813 85.9316 81.336C85.9316 81.912 85.8303 82.4347 85.6276 82.904C85.425 83.3627 85.1476 83.7573 84.7956 84.088C84.4436 84.408 84.0276 84.6587 83.5476 84.84C83.0676 85.0213 82.545 85.112 81.9796 85.112ZM81.9796 83.432C82.5663 83.432 83.025 83.2347 83.3556 82.84C83.6863 82.4453 83.8516 81.944 83.8516 81.336C83.8516 80.728 83.6916 80.232 83.3716 79.848C83.0516 79.4533 82.5876 79.256 81.9796 79.256C81.3823 79.256 80.9183 79.4533 80.5876 79.848C80.257 80.2427 80.0916 80.7387 80.0916 81.336C80.0916 81.624 80.1343 81.896 80.2196 82.152C80.305 82.408 80.4276 82.632 80.5876 82.824C80.7476 83.016 80.945 83.1653 81.1796 83.272C81.4143 83.3787 81.681 83.432 81.9796 83.432ZM86.3616 83.256H87.2416C87.519 82.68 87.727 82.04 87.8656 81.336C88.0043 80.6213 88.0736 79.7787 88.0736 78.808V77.688H93.7696V83.256H94.8896V86.632H93.2736V85H87.9936V86.632H86.3616V83.256ZM89.8496 79.48C89.8496 80.9627 89.631 82.2213 89.1936 83.256H91.7856V79.432H89.8496V79.48ZM96.0221 77.688H98.0061V81.896L101.398 77.688H102.95V85H100.966V80.552L97.3821 85H96.0221V77.688ZM106.515 79.432H104.163V77.688H110.835V79.432H108.483V85H106.515V79.432ZM137.105 77.688H141.057C141.815 77.688 142.385 77.8533 142.769 78.184C143.153 78.504 143.345 78.9253 143.345 79.448C143.345 79.8427 143.249 80.168 143.057 80.424C142.865 80.68 142.615 80.8613 142.305 80.968C142.828 81.0427 143.255 81.224 143.585 81.512C143.916 81.8 144.081 82.232 144.081 82.808C144.081 83.512 143.82 84.056 143.297 84.44C142.785 84.8133 142.033 85 141.041 85H137.105V77.688ZM139.089 81.704V83.544H140.609C141.111 83.544 141.468 83.4693 141.681 83.32C141.895 83.16 142.001 82.9253 142.001 82.616C142.001 82.296 141.889 82.0667 141.665 81.928C141.441 81.7787 141.105 81.704 140.657 81.704H139.089ZM139.089 79.144V80.552H140.465C141.148 80.552 141.489 80.312 141.489 79.832C141.489 79.3733 141.143 79.144 140.449 79.144H139.089ZM170.376 77.688H172.36V81.896L175.752 77.688H177.304V85H175.32V80.552L171.736 85H170.376V77.688ZM184.213 82.12H181.173V85H179.189V77.688H181.173V80.376H184.213V77.688H186.197V85H184.213V82.12ZM189.759 79.432H187.407V77.688H194.079V79.432H191.727V85H189.759V79.432ZM198.553 85.112C197.966 85.112 197.428 85.0213 196.937 84.84C196.457 84.6587 196.041 84.408 195.689 84.088C195.337 83.7573 195.065 83.368 194.873 82.92C194.681 82.4613 194.585 81.9547 194.585 81.4C194.585 80.8133 194.686 80.2853 194.889 79.816C195.092 79.336 195.369 78.9307 195.721 78.6C196.073 78.2693 196.484 78.0133 196.953 77.832C197.422 77.6507 197.924 77.56 198.457 77.56C199.033 77.56 199.545 77.6613 199.993 77.864C200.452 78.056 200.836 78.328 201.145 78.68C201.454 79.0213 201.689 79.4267 201.849 79.896C202.02 80.3547 202.105 80.8507 202.105 81.384V81.8H196.505C196.601 82.3653 196.841 82.7973 197.225 83.096C197.62 83.3947 198.116 83.544 198.713 83.544C199.14 83.544 199.534 83.4693 199.897 83.32C200.27 83.16 200.58 82.9413 200.825 82.664L201.929 83.672C201.556 84.1413 201.076 84.4987 200.489 84.744C199.902 84.9893 199.257 85.112 198.553 85.112ZM198.377 79.16C197.908 79.16 197.513 79.288 197.193 79.544C196.884 79.7893 196.67 80.1413 196.553 80.6H200.201C200.137 80.1947 199.945 79.8533 199.625 79.576C199.305 79.2987 198.889 79.16 198.377 79.16ZM203.564 88.84V77.688H205.436V78.664C205.681 78.3547 206.012 78.0933 206.428 77.88C206.854 77.6667 207.34 77.56 207.884 77.56C208.332 77.56 208.758 77.6507 209.164 77.832C209.58 78.0133 209.942 78.2693 210.252 78.6C210.572 78.9307 210.822 79.3307 211.004 79.8C211.196 80.2587 211.292 80.7707 211.292 81.336C211.292 81.9013 211.196 82.4187 211.004 82.888C210.812 83.3467 210.556 83.7413 210.236 84.072C209.926 84.4027 209.564 84.6587 209.148 84.84C208.742 85.0213 208.321 85.112 207.884 85.112C207.404 85.112 206.961 85.0267 206.556 84.856C206.15 84.6747 205.814 84.4347 205.548 84.136V88.84H203.564ZM207.356 79.304C206.812 79.304 206.38 79.48 206.06 79.832C205.74 80.1733 205.569 80.616 205.548 81.16V81.368C205.558 81.976 205.724 82.472 206.044 82.856C206.374 83.2293 206.812 83.416 207.356 83.416C207.889 83.416 208.326 83.2293 208.668 82.856C209.02 82.4827 209.196 81.976 209.196 81.336C209.196 81.0053 209.142 80.712 209.036 80.456C208.94 80.2 208.806 79.9867 208.636 79.816C208.476 79.6453 208.284 79.5173 208.06 79.432C207.836 79.3467 207.601 79.304 207.356 79.304ZM217.775 82.12H214.735V85H212.751V77.688H214.735V80.376H217.775V77.688H219.759V85H217.775V82.12ZM225.178 85.112C224.591 85.112 224.053 85.0213 223.562 84.84C223.082 84.6587 222.666 84.408 222.314 84.088C221.962 83.7573 221.69 83.368 221.498 82.92C221.306 82.4613 221.21 81.9547 221.21 81.4C221.21 80.8133 221.311 80.2853 221.514 79.816C221.717 79.336 221.994 78.9307 222.346 78.6C222.698 78.2693 223.109 78.0133 223.578 77.832C224.047 77.6507 224.549 77.56 225.082 77.56C225.658 77.56 226.17 77.6613 226.618 77.864C227.077 78.056 227.461 78.328 227.77 78.68C228.079 79.0213 228.314 79.4267 228.474 79.896C228.645 80.3547 228.73 80.8507 228.73 81.384V81.8H223.13C223.226 82.3653 223.466 82.7973 223.85 83.096C224.245 83.3947 224.741 83.544 225.338 83.544C225.765 83.544 226.159 83.4693 226.522 83.32C226.895 83.16 227.205 82.9413 227.45 82.664L228.554 83.672C228.181 84.1413 227.701 84.4987 227.114 84.744C226.527 84.9893 225.882 85.112 225.178 85.112ZM225.002 79.16C224.533 79.16 224.138 79.288 223.818 79.544C223.509 79.7893 223.295 80.1413 223.178 80.6H226.826C226.762 80.1947 226.57 79.8533 226.25 79.576C225.93 79.2987 225.514 79.16 225.002 79.16ZM231.634 79.432H229.282V77.688H235.954V79.432H233.602V85H231.634V79.432ZM240.428 85.112C239.841 85.112 239.303 85.0213 238.812 84.84C238.332 84.6587 237.916 84.408 237.564 84.088C237.212 83.7573 236.94 83.368 236.748 82.92C236.556 82.4613 236.46 81.9547 236.46 81.4C236.46 80.8133 236.561 80.2853 236.764 79.816C236.967 79.336 237.244 78.9307 237.596 78.6C237.948 78.2693 238.359 78.0133 238.828 77.832C239.297 77.6507 239.799 77.56 240.332 77.56C240.908 77.56 241.42 77.6613 241.868 77.864C242.327 78.056 242.711 78.328 243.02 78.68C243.329 79.0213 243.564 79.4267 243.724 79.896C243.895 80.3547 243.98 80.8507 243.98 81.384V81.8H238.38C238.476 82.3653 238.716 82.7973 239.1 83.096C239.495 83.3947 239.991 83.544 240.588 83.544C241.015 83.544 241.409 83.4693 241.772 83.32C242.145 83.16 242.455 82.9413 242.7 82.664L243.804 83.672C243.431 84.1413 242.951 84.4987 242.364 84.744C241.777 84.9893 241.132 85.112 240.428 85.112ZM240.252 79.16C239.783 79.16 239.388 79.288 239.068 79.544C238.759 79.7893 238.545 80.1413 238.428 80.6H242.076C242.012 80.1947 241.82 79.8533 241.5 79.576C241.18 79.2987 240.764 79.16 240.252 79.16ZM245.814 85.08C245.494 85.0267 245.249 84.904 245.078 84.712C244.918 84.5093 244.838 84.2693 244.838 83.992C244.838 83.64 244.95 83.3627 245.174 83.16C245.409 82.9467 245.686 82.84 246.006 82.84C246.348 82.84 246.641 82.952 246.886 83.176C247.142 83.4 247.27 83.72 247.27 84.136C247.27 84.4133 247.196 84.7227 247.046 85.064C246.897 85.4053 246.668 85.848 246.358 86.392L245.718 87.56H244.438L245.814 85.08ZM277.667 85.112C277.091 85.112 276.558 85.0213 276.067 84.84C275.587 84.6587 275.171 84.4027 274.819 84.072C274.478 83.7307 274.206 83.3307 274.003 82.872C273.811 82.4133 273.715 81.9013 273.715 81.336C273.715 80.7707 273.811 80.2587 274.003 79.8C274.206 79.3307 274.483 78.9307 274.835 78.6C275.187 78.2693 275.603 78.0133 276.083 77.832C276.574 77.6507 277.102 77.56 277.667 77.56C278.243 77.56 278.771 77.6507 279.251 77.832C279.742 78.0133 280.163 78.2747 280.515 78.616C280.867 78.9467 281.139 79.3467 281.331 79.816C281.523 80.2747 281.619 80.7813 281.619 81.336C281.619 81.912 281.518 82.4347 281.315 82.904C281.112 83.3627 280.835 83.7573 280.483 84.088C280.131 84.408 279.715 84.6587 279.235 84.84C278.755 85.0213 278.232 85.112 277.667 85.112ZM277.667 83.432C278.254 83.432 278.712 83.2347 279.043 82.84C279.374 82.4453 279.539 81.944 279.539 81.336C279.539 80.728 279.379 80.232 279.059 79.848C278.739 79.4533 278.275 79.256 277.667 79.256C277.07 79.256 276.606 79.4533 276.275 79.848C275.944 80.2427 275.779 80.7387 275.779 81.336C275.779 81.624 275.822 81.896 275.907 82.152C275.992 82.408 276.115 82.632 276.275 82.824C276.435 83.016 276.632 83.1653 276.867 83.272C277.102 83.3787 277.368 83.432 277.667 83.432ZM288.077 82.12H285.037V85H283.053V77.688H285.037V80.376H288.077V77.688H290.061V85H288.077V82.12ZM31.464 104.112C30.888 104.112 30.3547 104.021 29.864 103.84C29.384 103.659 28.968 103.403 28.616 103.072C28.2747 102.731 28.0027 102.331 27.8 101.872C27.608 101.413 27.512 100.901 27.512 100.336C27.512 99.7707 27.608 99.2587 27.8 98.8C28.0027 98.3307 28.28 97.9307 28.632 97.6C28.984 97.2693 29.4 97.0133 29.88 96.832C30.3707 96.6507 30.8987 96.56 31.464 96.56C32.04 96.56 32.568 96.6507 33.048 96.832C33.5387 97.0133 33.96 97.2747 34.312 97.616C34.664 97.9467 34.936 98.3467 35.128 98.816C35.32 99.2747 35.416 99.7813 35.416 100.336C35.416 100.912 35.3147 101.435 35.112 101.904C34.9093 102.363 34.632 102.757 34.28 103.088C33.928 103.408 33.512 103.659 33.032 103.84C32.552 104.021 32.0293 104.112 31.464 104.112ZM31.464 102.432C32.0507 102.432 32.5093 102.235 32.84 101.84C33.1707 101.445 33.336 100.944 33.336 100.336C33.336 99.728 33.176 99.232 32.856 98.848C32.536 98.4533 32.072 98.256 31.464 98.256C30.8667 98.256 30.4027 98.4533 30.072 98.848C29.7413 99.2427 29.576 99.7387 29.576 100.336C29.576 100.624 29.6187 100.896 29.704 101.152C29.7893 101.408 29.912 101.632 30.072 101.824C30.232 102.016 30.4293 102.165 30.664 102.272C30.8987 102.379 31.1653 102.432 31.464 102.432ZM40.4983 104.144C39.0796 104.144 38.0449 103.701 37.3943 102.816C36.7436 101.931 36.4183 100.603 36.4183 98.832C36.4183 97.808 36.5249 96.9333 36.7383 96.208C36.9516 95.472 37.2556 94.8747 37.6503 94.416C38.0556 93.9467 38.5409 93.6053 39.1063 93.392C39.6823 93.168 40.3223 93.056 41.0263 93.056C41.4316 93.056 41.7409 93.0187 41.9543 92.944C42.1676 92.8587 42.3276 92.6987 42.4343 92.464L44.0023 92.928C43.9169 93.2373 43.8103 93.504 43.6823 93.728C43.5649 93.9413 43.3996 94.1227 43.1863 94.272C42.9729 94.4213 42.7009 94.5387 42.3703 94.624C42.0396 94.6987 41.6183 94.752 41.1063 94.784C40.6156 94.816 40.1889 94.88 39.8263 94.976C39.4743 95.072 39.1756 95.2427 38.9303 95.488C38.6956 95.7227 38.5089 96.0533 38.3703 96.48C38.2423 96.9067 38.1569 97.4613 38.1143 98.144C38.4236 97.568 38.8183 97.168 39.2983 96.944C39.7889 96.7093 40.3223 96.592 40.8983 96.592C41.4316 96.592 41.9116 96.6773 42.3383 96.848C42.7756 97.0187 43.1436 97.264 43.4423 97.584C43.7409 97.904 43.9703 98.288 44.1302 98.736C44.2903 99.1733 44.3703 99.664 44.3703 100.208C44.3703 100.805 44.2743 101.349 44.0823 101.84C43.8903 102.32 43.6236 102.731 43.2823 103.072C42.9409 103.413 42.5303 103.68 42.0503 103.872C41.5809 104.053 41.0636 104.144 40.4983 104.144ZM40.4503 102.4C40.9943 102.4 41.4316 102.219 41.7623 101.856C42.1036 101.483 42.2743 100.971 42.2743 100.32C42.2743 99.68 42.1143 99.1787 41.7943 98.816C41.4849 98.4427 41.0423 98.256 40.4663 98.256C39.9009 98.256 39.4529 98.4373 39.1223 98.8C38.7916 99.1627 38.6263 99.6693 38.6263 100.32C38.6263 100.96 38.7916 101.467 39.1223 101.84C39.4529 102.213 39.8956 102.4 40.4503 102.4ZM46.4345 107.6L47.6665 104.08L44.6745 97.056V96.688H46.6585L48.5945 101.472L50.2905 96.688H52.0825L52.0665 97.056L48.2265 107.84H46.4345V107.6ZM57.3235 101.344C57.1102 101.44 56.8595 101.52 56.5715 101.584C56.2942 101.637 55.9795 101.664 55.6275 101.664C55.1795 101.664 54.7742 101.611 54.4115 101.504C54.0595 101.397 53.7555 101.227 53.4995 100.992C53.2435 100.757 53.0462 100.453 52.9075 100.08C52.7795 99.7067 52.7155 99.2533 52.7155 98.72V96.688H54.6995V98.64C54.6995 99.056 54.7955 99.376 54.9875 99.6C55.1795 99.8133 55.5635 99.92 56.1395 99.92C56.5768 99.92 56.9715 99.8667 57.3235 99.76V96.688H59.3075V104H57.3235V101.344ZM64.0763 104.112C63.6389 104.112 63.2123 104.021 62.7963 103.84C62.3909 103.659 62.0283 103.403 61.7083 103.072C61.3989 102.741 61.1483 102.347 60.9563 101.888C60.7643 101.419 60.6683 100.901 60.6683 100.336C60.6683 99.7707 60.7589 99.2587 60.9403 98.8C61.1323 98.3307 61.3829 97.9307 61.6923 97.6C62.0123 97.2693 62.3749 97.0133 62.7803 96.832C63.1963 96.6507 63.6283 96.56 64.0763 96.56C64.6203 96.56 65.1003 96.6667 65.5163 96.88C65.9429 97.0933 66.2789 97.3547 66.5243 97.664V96.688H68.3963V104H66.5243V103.008C66.2576 103.339 65.9109 103.605 65.4843 103.808C65.0576 104.011 64.5883 104.112 64.0763 104.112ZM64.6043 102.416C65.1483 102.416 65.5803 102.229 65.9003 101.856C66.2309 101.472 66.4016 100.976 66.4123 100.368V100.24C66.4123 99.6747 66.2469 99.2107 65.9163 98.848C65.5856 98.4853 65.1483 98.304 64.6043 98.304C64.3589 98.304 64.1243 98.3467 63.9003 98.432C63.6763 98.5173 63.4789 98.6453 63.3083 98.816C63.1376 98.9867 63.0043 99.2 62.9083 99.456C62.8123 99.712 62.7643 100.005 62.7643 100.336C62.7643 100.976 62.9349 101.483 63.2763 101.856C63.6283 102.229 64.0709 102.416 64.6043 102.416ZM73.8238 104.112C73.2371 104.112 72.6984 104.021 72.2078 103.84C71.7278 103.659 71.3118 103.408 70.9598 103.088C70.6078 102.757 70.3358 102.368 70.1438 101.92C69.9518 101.461 69.8558 100.955 69.8558 100.4C69.8558 99.8133 69.9571 99.2853 70.1598 98.816C70.3624 98.336 70.6398 97.9307 70.9918 97.6C71.3438 97.2693 71.7544 97.0133 72.2238 96.832C72.6931 96.6507 73.1944 96.56 73.7278 96.56C74.3038 96.56 74.8158 96.6613 75.2638 96.864C75.7224 97.056 76.1064 97.328 76.4158 97.68C76.7251 98.0213 76.9598 98.4267 77.1198 98.896C77.2904 99.3547 77.3758 99.8507 77.3758 100.384V100.8H71.7758C71.8718 101.365 72.1118 101.797 72.4958 102.096C72.8904 102.395 73.3864 102.544 73.9838 102.544C74.4104 102.544 74.8051 102.469 75.1678 102.32C75.5411 102.16 75.8504 101.941 76.0958 101.664L77.1998 102.672C76.8264 103.141 76.3464 103.499 75.7598 103.744C75.1731 103.989 74.5278 104.112 73.8238 104.112ZM73.6478 98.16C73.1784 98.16 72.7838 98.288 72.4638 98.544C72.1544 98.7893 71.9411 99.1413 71.8238 99.6H75.4718C75.4078 99.1947 75.2158 98.8533 74.8958 98.576C74.5758 98.2987 74.1598 98.16 73.6478 98.16ZM79.4765 96.688H81.1725L83.1085 100.928L84.9325 96.688H86.6765L87.8925 104H86.0365L85.3325 99.728L83.4445 104H82.5965L80.6925 99.808L80.0045 104H78.2445L79.4765 96.688ZM90.3445 104.16C89.9712 104.16 89.6832 104.053 89.4805 103.84C89.2885 103.616 89.1925 103.349 89.1925 103.04C89.1925 102.709 89.2885 102.432 89.4805 102.208C89.6725 101.984 89.9605 101.872 90.3445 101.872C90.7285 101.872 91.0218 101.984 91.2245 102.208C91.4272 102.432 91.5285 102.709 91.5285 103.04C91.5285 103.349 91.4218 103.616 91.2085 103.84C91.0058 104.053 90.7178 104.16 90.3445 104.16ZM109.875 92.8H118.691V104H116.547V94.64H112.019V104H109.875V92.8ZM120.835 107.84V96.688H122.707V97.664C122.952 97.3547 123.283 97.0933 123.699 96.88C124.125 96.6667 124.611 96.56 125.155 96.56C125.603 96.56 126.029 96.6507 126.435 96.832C126.851 97.0133 127.213 97.2693 127.523 97.6C127.843 97.9307 128.093 98.3307 128.275 98.8C128.467 99.2587 128.563 99.7707 128.563 100.336C128.563 100.901 128.467 101.419 128.275 101.888C128.083 102.347 127.827 102.741 127.507 103.072C127.197 103.403 126.835 103.659 126.419 103.84C126.013 104.021 125.592 104.112 125.155 104.112C124.675 104.112 124.232 104.027 123.827 103.856C123.421 103.675 123.085 103.435 122.819 103.136V107.84H120.835ZM124.627 98.304C124.083 98.304 123.651 98.48 123.331 98.832C123.011 99.1733 122.84 99.616 122.819 100.16V100.368C122.829 100.976 122.995 101.472 123.315 101.856C123.645 102.229 124.083 102.416 124.627 102.416C125.16 102.416 125.597 102.229 125.939 101.856C126.291 101.483 126.467 100.976 126.467 100.336C126.467 100.005 126.413 99.712 126.307 99.456C126.211 99.2 126.077 98.9867 125.907 98.816C125.747 98.6453 125.555 98.5173 125.331 98.432C125.107 98.3467 124.872 98.304 124.627 98.304ZM133.558 104.112C132.971 104.112 132.433 104.021 131.942 103.84C131.462 103.659 131.046 103.408 130.694 103.088C130.342 102.757 130.07 102.368 129.878 101.92C129.686 101.461 129.59 100.955 129.59 100.4C129.59 99.8133 129.691 99.2853 129.894 98.816C130.097 98.336 130.374 97.9307 130.726 97.6C131.078 97.2693 131.489 97.0133 131.958 96.832C132.427 96.6507 132.929 96.56 133.462 96.56C134.038 96.56 134.55 96.6613 134.998 96.864C135.457 97.056 135.841 97.328 136.15 97.68C136.459 98.0213 136.694 98.4267 136.854 98.896C137.025 99.3547 137.11 99.8507 137.11 100.384V100.8H131.51C131.606 101.365 131.846 101.797 132.23 102.096C132.625 102.395 133.121 102.544 133.718 102.544C134.145 102.544 134.539 102.469 134.902 102.32C135.275 102.16 135.585 101.941 135.83 101.664L136.934 102.672C136.561 103.141 136.081 103.499 135.494 103.744C134.907 103.989 134.262 104.112 133.558 104.112ZM133.382 98.16C132.913 98.16 132.518 98.288 132.198 98.544C131.889 98.7893 131.675 99.1413 131.558 99.6H135.206C135.142 99.1947 134.95 98.8533 134.63 98.576C134.31 98.2987 133.894 98.16 133.382 98.16ZM138.569 96.688H145.449V104H143.481V98.432H140.553V104H138.569V96.688ZM150.87 104.112C150.294 104.112 149.761 104.021 149.27 103.84C148.79 103.659 148.374 103.403 148.022 103.072C147.681 102.731 147.409 102.331 147.206 101.872C147.014 101.413 146.918 100.901 146.918 100.336C146.918 99.7707 147.014 99.2587 147.206 98.8C147.409 98.3307 147.686 97.9307 148.038 97.6C148.39 97.2693 148.806 97.0133 149.286 96.832C149.777 96.6507 150.305 96.56 150.87 96.56C151.446 96.56 151.974 96.6507 152.454 96.832C152.945 97.0133 153.366 97.2747 153.718 97.616C154.07 97.9467 154.342 98.3467 154.534 98.816C154.726 99.2747 154.822 99.7813 154.822 100.336C154.822 100.912 154.721 101.435 154.518 101.904C154.316 102.363 154.038 102.757 153.686 103.088C153.334 103.408 152.918 103.659 152.438 103.84C151.958 104.021 151.436 104.112 150.87 104.112ZM150.87 102.432C151.457 102.432 151.916 102.235 152.246 101.84C152.577 101.445 152.742 100.944 152.742 100.336C152.742 99.728 152.582 99.232 152.262 98.848C151.942 98.4533 151.478 98.256 150.87 98.256C150.273 98.256 149.809 98.4533 149.478 98.848C149.148 99.2427 148.982 99.7387 148.982 100.336C148.982 100.624 149.025 100.896 149.11 101.152C149.196 101.408 149.318 101.632 149.478 101.824C149.638 102.016 149.836 102.165 150.07 102.272C150.305 102.379 150.572 102.432 150.87 102.432ZM155.252 102.256H156.132C156.41 101.68 156.618 101.04 156.756 100.336C156.895 99.6213 156.964 98.7787 156.964 97.808V96.688H162.66V102.256H163.78V105.632H162.164V104H156.884V105.632H155.252V102.256ZM158.74 98.48C158.74 99.9627 158.522 101.221 158.084 102.256H160.676V98.432H158.74V98.48ZM167.733 104.112C167.295 104.112 166.869 104.021 166.453 103.84C166.047 103.659 165.685 103.403 165.365 103.072C165.055 102.741 164.805 102.347 164.613 101.888C164.421 101.419 164.325 100.901 164.325 100.336C164.325 99.7707 164.415 99.2587 164.597 98.8C164.789 98.3307 165.039 97.9307 165.349 97.6C165.669 97.2693 166.031 97.0133 166.437 96.832C166.853 96.6507 167.285 96.56 167.733 96.56C168.277 96.56 168.757 96.6667 169.173 96.88C169.599 97.0933 169.935 97.3547 170.181 97.664V96.688H172.053V104H170.181V103.008C169.914 103.339 169.567 103.605 169.141 103.808C168.714 104.011 168.245 104.112 167.733 104.112ZM168.261 102.416C168.805 102.416 169.237 102.229 169.557 101.856C169.887 101.472 170.058 100.976 170.069 100.368V100.24C170.069 99.6747 169.903 99.2107 169.573 98.848C169.242 98.4853 168.805 98.304 168.261 98.304C168.015 98.304 167.781 98.3467 167.557 98.432C167.333 98.5173 167.135 98.6453 166.965 98.816C166.794 98.9867 166.661 99.2 166.565 99.456C166.469 99.712 166.421 100.005 166.421 100.336C166.421 100.976 166.591 101.483 166.933 101.856C167.285 102.229 167.727 102.416 168.261 102.416ZM173.944 96.688H177.896C178.653 96.688 179.224 96.8533 179.608 97.184C179.992 97.504 180.184 97.9253 180.184 98.448C180.184 98.8427 180.088 99.168 179.896 99.424C179.704 99.68 179.453 99.8613 179.144 99.968C179.667 100.043 180.093 100.224 180.424 100.512C180.755 100.8 180.92 101.232 180.92 101.808C180.92 102.512 180.659 103.056 180.136 103.44C179.624 103.813 178.872 104 177.88 104H173.944V96.688ZM175.928 100.704V102.544H177.448C177.949 102.544 178.307 102.469 178.52 102.32C178.733 102.16 178.84 101.925 178.84 101.616C178.84 101.296 178.728 101.067 178.504 100.928C178.28 100.779 177.944 100.704 177.496 100.704H175.928ZM175.928 98.144V99.552H177.304C177.987 99.552 178.328 99.312 178.328 98.832C178.328 98.3733 177.981 98.144 177.288 98.144H175.928ZM185.139 104.112C184.701 104.112 184.275 104.021 183.859 103.84C183.453 103.659 183.091 103.403 182.771 103.072C182.461 102.741 182.211 102.347 182.019 101.888C181.827 101.419 181.731 100.901 181.731 100.336C181.731 99.7707 181.821 99.2587 182.003 98.8C182.195 98.3307 182.445 97.9307 182.755 97.6C183.075 97.2693 183.437 97.0133 183.843 96.832C184.259 96.6507 184.691 96.56 185.139 96.56C185.683 96.56 186.163 96.6667 186.579 96.88C187.005 97.0933 187.341 97.3547 187.587 97.664V96.688H189.459V104H187.587V103.008C187.32 103.339 186.973 103.605 186.547 103.808C186.12 104.011 185.651 104.112 185.139 104.112ZM185.667 102.416C186.211 102.416 186.643 102.229 186.963 101.856C187.293 101.472 187.464 100.976 187.475 100.368V100.24C187.475 99.6747 187.309 99.2107 186.979 98.848C186.648 98.4853 186.211 98.304 185.667 98.304C185.421 98.304 185.187 98.3467 184.963 98.432C184.739 98.5173 184.541 98.6453 184.371 98.816C184.2 98.9867 184.067 99.2 183.971 99.456C183.875 99.712 183.827 100.005 183.827 100.336C183.827 100.976 183.997 101.483 184.339 101.856C184.691 102.229 185.133 102.416 185.667 102.416ZM193.03 98.432H190.678V96.688H197.35V98.432H194.998V104H193.03V98.432ZM201.824 104.112C201.237 104.112 200.698 104.021 200.208 103.84C199.728 103.659 199.312 103.408 198.96 103.088C198.608 102.757 198.336 102.368 198.144 101.92C197.952 101.461 197.856 100.955 197.856 100.4C197.856 99.8133 197.957 99.2853 198.16 98.816C198.362 98.336 198.64 97.9307 198.992 97.6C199.344 97.2693 199.754 97.0133 200.224 96.832C200.693 96.6507 201.194 96.56 201.728 96.56C202.304 96.56 202.816 96.6613 203.264 96.864C203.722 97.056 204.106 97.328 204.416 97.68C204.725 98.0213 204.96 98.4267 205.12 98.896C205.29 99.3547 205.376 99.8507 205.376 100.384V100.8H199.776C199.872 101.365 200.112 101.797 200.496 102.096C200.89 102.395 201.386 102.544 201.984 102.544C202.41 102.544 202.805 102.469 203.168 102.32C203.541 102.16 203.85 101.941 204.096 101.664L205.2 102.672C204.826 103.141 204.346 103.499 203.76 103.744C203.173 103.989 202.528 104.112 201.824 104.112ZM201.648 98.16C201.178 98.16 200.784 98.288 200.464 98.544C200.154 98.7893 199.941 99.1413 199.824 99.6H203.472C203.408 99.1947 203.216 98.8533 202.896 98.576C202.576 98.2987 202.16 98.16 201.648 98.16ZM206.517 104.16C206.399 104.16 206.292 104.155 206.197 104.144C206.111 104.133 206.037 104.123 205.973 104.112V102.208C206.079 102.229 206.165 102.24 206.229 102.24C206.41 102.24 206.565 102.176 206.693 102.048C206.821 101.909 206.922 101.691 206.997 101.392C207.082 101.083 207.141 100.683 207.173 100.192C207.215 99.7013 207.237 99.104 207.237 98.4V96.688H212.789V104H210.821V98.432H209.061V99.296C209.061 100.213 209.002 100.981 208.885 101.6C208.778 102.219 208.613 102.72 208.389 103.104C208.175 103.477 207.909 103.749 207.589 103.92C207.279 104.08 206.922 104.16 206.517 104.16ZM214.246 103.728L215.798 101.408C214.945 101.003 214.518 100.283 214.518 99.248C214.518 98.4053 214.79 97.7707 215.334 97.344C215.889 96.9067 216.747 96.688 217.91 96.688H221.078V104H219.094V101.76H217.846L216.406 104H214.246V103.728ZM219.094 100.352V98.224H218.038C217.526 98.224 217.147 98.2987 216.902 98.448C216.657 98.5867 216.534 98.8587 216.534 99.264C216.534 99.6693 216.641 99.952 216.854 100.112C217.078 100.272 217.457 100.352 217.99 100.352H219.094ZM246.572 101.024H239.1V99.408H246.572V101.024ZM269.624 101.12H266.584V104H264.6V96.688H266.584V99.376H269.624V96.688H271.608V104H269.624V101.12ZM277.027 104.112C276.44 104.112 275.902 104.021 275.411 103.84C274.931 103.659 274.515 103.408 274.163 103.088C273.811 102.757 273.539 102.368 273.347 101.92C273.155 101.461 273.059 100.955 273.059 100.4C273.059 99.8133 273.16 99.2853 273.363 98.816C273.566 98.336 273.843 97.9307 274.195 97.6C274.547 97.2693 274.958 97.0133 275.427 96.832C275.896 96.6507 276.398 96.56 276.931 96.56C277.507 96.56 278.019 96.6613 278.467 96.864C278.926 97.056 279.31 97.328 279.619 97.68C279.928 98.0213 280.163 98.4267 280.323 98.896C280.494 99.3547 280.579 99.8507 280.579 100.384V100.8H274.979C275.075 101.365 275.315 101.797 275.699 102.096C276.094 102.395 276.59 102.544 277.187 102.544C277.614 102.544 278.008 102.469 278.371 102.32C278.744 102.16 279.054 101.941 279.299 101.664L280.403 102.672C280.03 103.141 279.55 103.499 278.963 103.744C278.376 103.989 277.731 104.112 277.027 104.112ZM276.851 98.16C276.382 98.16 275.987 98.288 275.667 98.544C275.358 98.7893 275.144 99.1413 275.027 99.6H278.675C278.611 99.1947 278.419 98.8533 278.099 98.576C277.779 98.2987 277.363 98.16 276.851 98.16ZM283.483 98.432H281.131V96.688H287.803V98.432H285.451V104H283.483V98.432ZM288.663 104.08C288.343 104.027 288.098 103.904 287.927 103.712C287.767 103.509 287.687 103.269 287.687 102.992C287.687 102.64 287.799 102.363 288.023 102.16C288.258 101.947 288.535 101.84 288.855 101.84C289.197 101.84 289.49 101.952 289.735 102.176C289.991 102.4 290.119 102.72 290.119 103.136C290.119 103.413 290.045 103.723 289.895 104.064C289.746 104.405 289.517 104.848 289.207 105.392L288.567 106.56H287.287L288.663 104.08ZM27.944 115.688H34.824V123H32.856V117.432H29.928V123H27.944V115.688ZM40.2453 123.112C39.6693 123.112 39.1359 123.021 38.6453 122.84C38.1653 122.659 37.7493 122.403 37.3973 122.072C37.0559 121.731 36.7839 121.331 36.5813 120.872C36.3893 120.413 36.2933 119.901 36.2933 119.336C36.2933 118.771 36.3893 118.259 36.5813 117.8C36.7839 117.331 37.0613 116.931 37.4133 116.6C37.7653 116.269 38.1813 116.013 38.6613 115.832C39.1519 115.651 39.6799 115.56 40.2453 115.56C40.8213 115.56 41.3493 115.651 41.8293 115.832C42.3199 116.013 42.7413 116.275 43.0933 116.616C43.4453 116.947 43.7173 117.347 43.9093 117.816C44.1013 118.275 44.1973 118.781 44.1973 119.336C44.1973 119.912 44.0959 120.435 43.8933 120.904C43.6906 121.363 43.4133 121.757 43.0613 122.088C42.7093 122.408 42.2933 122.659 41.8133 122.84C41.3333 123.021 40.8106 123.112 40.2453 123.112ZM40.2453 121.432C40.8319 121.432 41.2906 121.235 41.6213 120.84C41.9519 120.445 42.1173 119.944 42.1173 119.336C42.1173 118.728 41.9573 118.232 41.6373 117.848C41.3173 117.453 40.8533 117.256 40.2453 117.256C39.6479 117.256 39.1839 117.453 38.8533 117.848C38.5226 118.243 38.3573 118.739 38.3573 119.336C38.3573 119.624 38.3999 119.896 38.4853 120.152C38.5706 120.408 38.6933 120.632 38.8533 120.824C39.0133 121.016 39.2106 121.165 39.4453 121.272C39.6799 121.379 39.9466 121.432 40.2453 121.432ZM47.0771 117.432H44.7251V115.688H51.3971V117.432H49.0451V123H47.0771V117.432ZM55.8546 123.112C55.2786 123.112 54.7453 123.021 54.2546 122.84C53.7746 122.659 53.3586 122.403 53.0066 122.072C52.6653 121.731 52.3933 121.331 52.1906 120.872C51.9986 120.413 51.9026 119.901 51.9026 119.336C51.9026 118.771 51.9986 118.259 52.1906 117.8C52.3933 117.331 52.6706 116.931 53.0226 116.6C53.3746 116.269 53.7906 116.013 54.2706 115.832C54.7613 115.651 55.2893 115.56 55.8546 115.56C56.4306 115.56 56.9586 115.651 57.4386 115.832C57.9293 116.013 58.3506 116.275 58.7026 116.616C59.0546 116.947 59.3266 117.347 59.5186 117.816C59.7106 118.275 59.8066 118.781 59.8066 119.336C59.8066 119.912 59.7053 120.435 59.5026 120.904C59.3 121.363 59.0226 121.757 58.6706 122.088C58.3186 122.408 57.9026 122.659 57.4226 122.84C56.9426 123.021 56.42 123.112 55.8546 123.112ZM55.8546 121.432C56.4413 121.432 56.9 121.235 57.2306 120.84C57.5613 120.445 57.7266 119.944 57.7266 119.336C57.7266 118.728 57.5666 118.232 57.2466 117.848C56.9266 117.453 56.4626 117.256 55.8546 117.256C55.2573 117.256 54.7933 117.453 54.4626 117.848C54.132 118.243 53.9666 118.739 53.9666 119.336C53.9666 119.624 54.0093 119.896 54.0946 120.152C54.18 120.408 54.3026 120.632 54.4626 120.824C54.6226 121.016 54.82 121.165 55.0546 121.272C55.2893 121.379 55.556 121.432 55.8546 121.432ZM61.8828 115.688H63.5788L65.5148 119.928L67.3388 115.688H69.0828L70.2988 123H68.4427L67.7388 118.728L65.8508 123H65.0028L63.0988 118.808L62.4108 123H60.6508L61.8828 115.688ZM72.1845 126.6L73.4165 123.08L70.4245 116.056V115.688H72.4085L74.3445 120.472L76.0405 115.688H77.8325L77.8165 116.056L73.9765 126.84H72.1845V126.6ZM115.464 120.344C115.251 120.44 115 120.52 114.712 120.584C114.435 120.637 114.12 120.664 113.768 120.664C113.32 120.664 112.915 120.611 112.552 120.504C112.2 120.397 111.896 120.227 111.64 119.992C111.384 119.757 111.187 119.453 111.048 119.08C110.92 118.707 110.856 118.253 110.856 117.72V115.688H112.84V117.64C112.84 118.056 112.936 118.376 113.128 118.6C113.32 118.813 113.704 118.92 114.28 118.92C114.717 118.92 115.112 118.867 115.464 118.76V115.688H117.448V123H115.464V120.344ZM120.921 117.432H118.569V115.688H125.241V117.432H122.889V123H120.921V117.432ZM129.698 123.112C129.122 123.112 128.589 123.021 128.098 122.84C127.618 122.659 127.202 122.403 126.85 122.072C126.509 121.731 126.237 121.331 126.034 120.872C125.842 120.413 125.746 119.901 125.746 119.336C125.746 118.771 125.842 118.259 126.034 117.8C126.237 117.331 126.514 116.931 126.866 116.6C127.218 116.269 127.634 116.013 128.114 115.832C128.605 115.651 129.133 115.56 129.698 115.56C130.274 115.56 130.802 115.651 131.282 115.832C131.773 116.013 132.194 116.275 132.546 116.616C132.898 116.947 133.17 117.347 133.362 117.816C133.554 118.275 133.65 118.781 133.65 119.336C133.65 119.912 133.549 120.435 133.346 120.904C133.144 121.363 132.866 121.757 132.514 122.088C132.162 122.408 131.746 122.659 131.266 122.84C130.786 123.021 130.264 123.112 129.698 123.112ZM129.698 121.432C130.285 121.432 130.744 121.235 131.074 120.84C131.405 120.445 131.57 119.944 131.57 119.336C131.57 118.728 131.41 118.232 131.09 117.848C130.77 117.453 130.306 117.256 129.698 117.256C129.101 117.256 128.637 117.453 128.306 117.848C127.976 118.243 127.81 118.739 127.81 119.336C127.81 119.624 127.853 119.896 127.938 120.152C128.024 120.408 128.146 120.632 128.306 120.824C128.466 121.016 128.664 121.165 128.898 121.272C129.133 121.379 129.4 121.432 129.698 121.432ZM167.475 115.688H172.547V117.432H169.459V123H167.475V115.688ZM175.106 126.6L176.338 123.08L173.346 116.056V115.688H175.33L177.266 120.472L178.962 115.688H180.754L180.738 116.056L176.898 126.84H175.106V126.6ZM182.117 115.688H183.813L185.749 119.928L187.573 115.688H189.317L190.533 123H188.677L187.973 118.728L186.085 123H185.237L183.333 118.808L182.645 123H180.885L182.117 115.688ZM194.764 123.112C194.326 123.112 193.9 123.021 193.484 122.84C193.078 122.659 192.716 122.403 192.396 122.072C192.086 121.741 191.836 121.347 191.644 120.888C191.452 120.419 191.356 119.901 191.356 119.336C191.356 118.771 191.446 118.259 191.628 117.8C191.82 117.331 192.07 116.931 192.38 116.6C192.7 116.269 193.062 116.013 193.468 115.832C193.884 115.651 194.316 115.56 194.764 115.56C195.308 115.56 195.788 115.667 196.204 115.88C196.63 116.093 196.966 116.355 197.212 116.664V115.688H199.084V123H197.212V122.008C196.945 122.339 196.598 122.605 196.172 122.808C195.745 123.011 195.276 123.112 194.764 123.112ZM195.292 121.416C195.836 121.416 196.268 121.229 196.588 120.856C196.918 120.472 197.089 119.976 197.1 119.368V119.24C197.1 118.675 196.934 118.211 196.604 117.848C196.273 117.485 195.836 117.304 195.292 117.304C195.046 117.304 194.812 117.347 194.588 117.432C194.364 117.517 194.166 117.645 193.996 117.816C193.825 117.987 193.692 118.2 193.596 118.456C193.5 118.712 193.452 119.005 193.452 119.336C193.452 119.976 193.622 120.483 193.964 120.856C194.316 121.229 194.758 121.416 195.292 121.416ZM205.999 120.12H202.959V123H200.975V115.688H202.959V118.376H205.999V115.688H207.983V123H205.999V120.12ZM209.866 115.688H211.85V119.896L215.242 115.688H216.794V123H214.81V118.552L211.226 123H209.866V115.688ZM222.086 123.112C221.5 123.112 220.972 123.021 220.502 122.84C220.033 122.659 219.628 122.408 219.286 122.088C218.956 121.757 218.7 121.363 218.518 120.904C218.337 120.445 218.246 119.933 218.246 119.368C218.246 118.771 218.342 118.237 218.534 117.768C218.737 117.288 219.009 116.888 219.35 116.568C219.692 116.237 220.097 115.987 220.566 115.816C221.036 115.645 221.542 115.56 222.086 115.56C222.705 115.56 223.265 115.667 223.766 115.88C224.278 116.093 224.678 116.36 224.966 116.68L223.942 118.024C223.729 117.789 223.478 117.603 223.19 117.464C222.913 117.325 222.598 117.256 222.246 117.256C221.649 117.256 221.174 117.448 220.822 117.832C220.481 118.216 220.31 118.707 220.31 119.304C220.31 119.923 220.486 120.435 220.838 120.84C221.201 121.235 221.686 121.432 222.294 121.432C222.646 121.432 222.961 121.363 223.238 121.224C223.516 121.075 223.761 120.883 223.974 120.648L225.142 121.8C224.822 122.216 224.396 122.541 223.862 122.776C223.34 123 222.748 123.112 222.086 123.112ZM228.015 117.432H225.663V115.688H232.335V117.432H229.983V123H228.015V117.432ZM233.553 115.688H235.537V119.896L238.929 115.688H240.481V123H238.497V118.552L234.913 123H233.553V115.688ZM246.558 120.344C246.345 120.44 246.094 120.52 245.806 120.584C245.529 120.637 245.214 120.664 244.862 120.664C244.414 120.664 244.009 120.611 243.646 120.504C243.294 120.397 242.99 120.227 242.734 119.992C242.478 119.757 242.281 119.453 242.142 119.08C242.014 118.707 241.95 118.253 241.95 117.72V115.688H243.934V117.64C243.934 118.056 244.03 118.376 244.222 118.6C244.414 118.813 244.798 118.92 245.374 118.92C245.811 118.92 246.206 118.867 246.558 118.76V115.688H248.542V123H246.558V120.344ZM253.871 123.112C253.284 123.112 252.745 123.021 252.255 122.84C251.775 122.659 251.359 122.408 251.007 122.088C250.655 121.757 250.383 121.368 250.191 120.92C249.999 120.461 249.903 119.955 249.903 119.4C249.903 118.813 250.004 118.285 250.207 117.816C250.409 117.336 250.687 116.931 251.039 116.6C251.391 116.269 251.801 116.013 252.271 115.832C252.74 115.651 253.241 115.56 253.775 115.56C254.351 115.56 254.863 115.661 255.311 115.864C255.769 116.056 256.153 116.328 256.463 116.68C256.772 117.021 257.007 117.427 257.167 117.896C257.337 118.355 257.423 118.851 257.423 119.384V119.8H251.823C251.919 120.365 252.159 120.797 252.543 121.096C252.937 121.395 253.433 121.544 254.031 121.544C254.457 121.544 254.852 121.469 255.215 121.32C255.588 121.16 255.897 120.941 256.143 120.664L257.247 121.672C256.873 122.141 256.393 122.499 255.807 122.744C255.22 122.989 254.575 123.112 253.871 123.112ZM253.695 117.16C253.225 117.16 252.831 117.288 252.511 117.544C252.201 117.789 251.988 118.141 251.871 118.6H255.519C255.455 118.195 255.263 117.853 254.943 117.576C254.623 117.299 254.207 117.16 253.695 117.16ZM262.29 123.112C261.703 123.112 261.175 123.021 260.706 122.84C260.236 122.659 259.831 122.408 259.49 122.088C259.159 121.757 258.903 121.363 258.722 120.904C258.54 120.445 258.45 119.933 258.45 119.368C258.45 118.771 258.546 118.237 258.738 117.768C258.94 117.288 259.212 116.888 259.554 116.568C259.895 116.237 260.3 115.987 260.77 115.816C261.239 115.645 261.746 115.56 262.29 115.56C262.908 115.56 263.468 115.667 263.97 115.88C264.482 116.093 264.882 116.36 265.17 116.68L264.146 118.024C263.932 117.789 263.682 117.603 263.394 117.464C263.116 117.325 262.802 117.256 262.45 117.256C261.852 117.256 261.378 117.448 261.026 117.832C260.684 118.216 260.514 118.707 260.514 119.304C260.514 119.923 260.69 120.435 261.042 120.84C261.404 121.235 261.89 121.432 262.498 121.432C262.85 121.432 263.164 121.363 263.442 121.224C263.719 121.075 263.964 120.883 264.178 120.648L265.346 121.8C265.026 122.216 264.599 122.541 264.066 122.776C263.543 123 262.951 123.112 262.29 123.112ZM266.538 115.688H268.522V118.376H269.29L271.05 115.688H273.114V115.96L270.938 119.016L273.658 122.728V123H271.45L269.242 119.88H268.522V123H266.538V115.688ZM274.585 115.688H276.569V119.896L279.961 115.688H281.513V123H279.529V118.552L275.945 123H274.585V115.688ZM286.933 123.112C286.346 123.112 285.808 123.021 285.317 122.84C284.837 122.659 284.421 122.408 284.069 122.088C283.717 121.757 283.445 121.368 283.253 120.92C283.061 120.461 282.965 119.955 282.965 119.4C282.965 118.813 283.066 118.285 283.269 117.816C283.472 117.336 283.749 116.931 284.101 116.6C284.453 116.269 284.864 116.013 285.333 115.832C285.802 115.651 286.304 115.56 286.837 115.56C287.413 115.56 287.925 115.661 288.373 115.864C288.832 116.056 289.216 116.328 289.525 116.68C289.834 117.021 290.069 117.427 290.229 117.896C290.4 118.355 290.485 118.851 290.485 119.384V119.8H284.885C284.981 120.365 285.221 120.797 285.605 121.096C286 121.395 286.496 121.544 287.093 121.544C287.52 121.544 287.914 121.469 288.277 121.32C288.65 121.16 288.96 120.941 289.205 120.664L290.309 121.672C289.936 122.141 289.456 122.499 288.869 122.744C288.282 122.989 287.637 123.112 286.933 123.112ZM286.757 117.16C286.288 117.16 285.893 117.288 285.573 117.544C285.264 117.789 285.05 118.141 284.933 118.6H288.581C288.517 118.195 288.325 117.853 288.005 117.576C287.685 117.299 287.269 117.16 286.757 117.16ZM27.944 134.688H29.928V137.376H30.696L32.456 134.688H34.52V134.96L32.344 138.016L35.064 141.728V142H32.856L30.648 138.88H29.928V142H27.944V134.688ZM39.2296 142.112C38.6536 142.112 38.1203 142.021 37.6296 141.84C37.1496 141.659 36.7336 141.403 36.3816 141.072C36.0403 140.731 35.7683 140.331 35.5656 139.872C35.3736 139.413 35.2776 138.901 35.2776 138.336C35.2776 137.771 35.3736 137.259 35.5656 136.8C35.7683 136.331 36.0456 135.931 36.3976 135.6C36.7496 135.269 37.1656 135.013 37.6456 134.832C38.1363 134.651 38.6643 134.56 39.2296 134.56C39.8056 134.56 40.3336 134.651 40.8136 134.832C41.3043 135.013 41.7256 135.275 42.0776 135.616C42.4296 135.947 42.7016 136.347 42.8936 136.816C43.0856 137.275 43.1816 137.781 43.1816 138.336C43.1816 138.912 43.0803 139.435 42.8776 139.904C42.675 140.363 42.3976 140.757 42.0456 141.088C41.6936 141.408 41.2776 141.659 40.7976 141.84C40.3176 142.021 39.795 142.112 39.2296 142.112ZM39.2296 140.432C39.8163 140.432 40.275 140.235 40.6056 139.84C40.9363 139.445 41.1016 138.944 41.1016 138.336C41.1016 137.728 40.9416 137.232 40.6216 136.848C40.3016 136.453 39.8376 136.256 39.2296 136.256C38.6323 136.256 38.1683 136.453 37.8376 136.848C37.507 137.243 37.3416 137.739 37.3416 138.336C37.3416 138.624 37.3843 138.896 37.4696 139.152C37.555 139.408 37.6776 139.632 37.8376 139.824C37.9976 140.016 38.195 140.165 38.4296 140.272C38.6643 140.379 38.931 140.432 39.2296 140.432ZM49.6399 139.12H46.5999V142H44.6159V134.688H46.5999V137.376H49.6399V134.688H51.6239V142H49.6399V139.12ZM55.1865 136.432H52.8345V134.688H59.5065V136.432H57.1545V142H55.1865V136.432ZM63.98 142.112C63.3933 142.112 62.8547 142.021 62.364 141.84C61.884 141.659 61.468 141.408 61.116 141.088C60.764 140.757 60.492 140.368 60.3 139.92C60.108 139.461 60.012 138.955 60.012 138.4C60.012 137.813 60.1133 137.285 60.316 136.816C60.5187 136.336 60.796 135.931 61.148 135.6C61.5 135.269 61.9107 135.013 62.38 134.832C62.8493 134.651 63.3507 134.56 63.884 134.56C64.46 134.56 64.972 134.661 65.42 134.864C65.8787 135.056 66.2627 135.328 66.572 135.68C66.8813 136.021 67.116 136.427 67.276 136.896C67.4467 137.355 67.532 137.851 67.532 138.384V138.8H61.932C62.028 139.365 62.268 139.797 62.652 140.096C63.0467 140.395 63.5427 140.544 64.14 140.544C64.5667 140.544 64.9613 140.469 65.324 140.32C65.6973 140.16 66.0067 139.941 66.252 139.664L67.356 140.672C66.9827 141.141 66.5027 141.499 65.916 141.744C65.3293 141.989 64.684 142.112 63.98 142.112ZM63.804 136.16C63.3347 136.16 62.94 136.288 62.62 136.544C62.3107 136.789 62.0973 137.141 61.98 137.6H65.628C65.564 137.195 65.372 136.853 65.052 136.576C64.732 136.299 64.316 136.16 63.804 136.16ZM68.9909 134.688H70.9749V137.376H71.7429L73.5029 134.688H75.5669V134.96L73.3909 138.016L76.1109 141.728V142H73.9029L71.6949 138.88H70.9749V142H68.9909V134.688ZM80.1645 142.112C79.5778 142.112 79.0498 142.021 78.5805 141.84C78.1112 141.659 77.7058 141.408 77.3645 141.088C77.0338 140.757 76.7778 140.363 76.5965 139.904C76.4152 139.445 76.3245 138.933 76.3245 138.368C76.3245 137.771 76.4205 137.237 76.6125 136.768C76.8152 136.288 77.0872 135.888 77.4285 135.568C77.7698 135.237 78.1752 134.987 78.6445 134.816C79.1138 134.645 79.6205 134.56 80.1645 134.56C80.7832 134.56 81.3432 134.667 81.8445 134.88C82.3565 135.093 82.7565 135.36 83.0445 135.68L82.0205 137.024C81.8072 136.789 81.5565 136.603 81.2685 136.464C80.9912 136.325 80.6765 136.256 80.3245 136.256C79.7272 136.256 79.2525 136.448 78.9005 136.832C78.5592 137.216 78.3885 137.707 78.3885 138.304C78.3885 138.923 78.5645 139.435 78.9165 139.84C79.2792 140.235 79.7645 140.432 80.3725 140.432C80.7245 140.432 81.0392 140.363 81.3165 140.224C81.5938 140.075 81.8392 139.883 82.0525 139.648L83.2205 140.8C82.9005 141.216 82.4738 141.541 81.9405 141.776C81.4178 142 80.8258 142.112 80.1645 142.112ZM86.0928 136.432H83.7408V134.688H90.4128V136.432H88.0608V142H86.0928V136.432ZM94.7195 136.8C95.7542 136.8 96.5382 137.013 97.0715 137.44C97.6155 137.867 97.8875 138.512 97.8875 139.376C97.8875 140.24 97.6048 140.896 97.0395 141.344C96.4848 141.781 95.6582 142 94.5595 142H91.6315V134.688H93.6155V136.8H94.7195ZM98.5915 134.688H100.576V142H98.5915V134.688ZM94.3515 140.448C94.8315 140.448 95.1995 140.379 95.4555 140.24C95.7222 140.091 95.8555 139.803 95.8555 139.376C95.8555 138.981 95.7328 138.709 95.4875 138.56C95.2528 138.411 94.8955 138.336 94.4155 138.336H93.6155V140.448H94.3515ZM106.984 130.8H109.128V138.112L114.984 130.8H116.344V142H114.184V134.72L108.344 142H106.984V130.8ZM118.968 130.8H121.112V138.112L126.968 130.8H128.328V142H126.168V134.72L120.328 142H118.968V130.8ZM138.277 142.112C137.69 142.112 137.152 142.021 136.661 141.84C136.181 141.659 135.765 141.408 135.413 141.088C135.061 140.757 134.789 140.368 134.597 139.92C134.405 139.461 134.309 138.955 134.309 138.4C134.309 137.813 134.41 137.285 134.613 136.816C134.816 136.336 135.093 135.931 135.445 135.6C135.797 135.269 136.208 135.013 136.677 134.832C137.146 134.651 137.648 134.56 138.181 134.56C138.757 134.56 139.269 134.661 139.717 134.864C140.176 135.056 140.56 135.328 140.869 135.68C141.178 136.021 141.413 136.427 141.573 136.896C141.744 137.355 141.829 137.851 141.829 138.384V138.8H136.229C136.325 139.365 136.565 139.797 136.949 140.096C137.344 140.395 137.84 140.544 138.437 140.544C138.864 140.544 139.258 140.469 139.621 140.32C139.994 140.16 140.304 139.941 140.549 139.664L141.653 140.672C141.28 141.141 140.8 141.499 140.213 141.744C139.626 141.989 138.981 142.112 138.277 142.112ZM138.101 136.16C137.632 136.16 137.237 136.288 136.917 136.544C136.608 136.789 136.394 137.141 136.277 137.6H139.925C139.861 137.195 139.669 136.853 139.349 136.576C139.029 136.299 138.613 136.16 138.101 136.16ZM153.384 142H143.288V134.688H145.272V140.256H147.608V134.688H149.576V140.256H151.896V134.688H153.88V140.256H155V143.632H153.384V142ZM159.511 142.112C158.925 142.112 158.386 142.021 157.895 141.84C157.415 141.659 156.999 141.408 156.647 141.088C156.295 140.757 156.023 140.368 155.831 139.92C155.639 139.461 155.543 138.955 155.543 138.4C155.543 137.813 155.645 137.285 155.847 136.816C156.05 136.336 156.327 135.931 156.679 135.6C157.031 135.269 157.442 135.013 157.911 134.832C158.381 134.651 158.882 134.56 159.415 134.56C159.991 134.56 160.503 134.661 160.951 134.864C161.41 135.056 161.794 135.328 162.103 135.68C162.413 136.021 162.647 136.427 162.807 136.896C162.978 137.355 163.063 137.851 163.063 138.384V138.8H157.463C157.559 139.365 157.799 139.797 158.183 140.096C158.578 140.395 159.074 140.544 159.671 140.544C160.098 140.544 160.493 140.469 160.855 140.32C161.229 140.16 161.538 139.941 161.783 139.664L162.887 140.672C162.514 141.141 162.034 141.499 161.447 141.744C160.861 141.989 160.215 142.112 159.511 142.112ZM159.335 136.16C158.866 136.16 158.471 136.288 158.151 136.544C157.842 136.789 157.629 137.141 157.511 137.6H161.159C161.095 137.195 160.903 136.853 160.583 136.576C160.263 136.299 159.847 136.16 159.335 136.16ZM157.671 133.376C157.33 133.376 157.047 133.275 156.823 133.072C156.61 132.859 156.503 132.592 156.503 132.272C156.503 131.941 156.61 131.68 156.823 131.488C157.047 131.285 157.33 131.184 157.671 131.184C158.013 131.184 158.285 131.285 158.487 131.488C158.69 131.68 158.791 131.941 158.791 132.272C158.791 132.592 158.69 132.859 158.487 133.072C158.285 133.275 158.013 133.376 157.671 133.376ZM160.999 133.376C160.658 133.376 160.381 133.275 160.167 133.072C159.954 132.859 159.847 132.592 159.847 132.272C159.847 131.941 159.954 131.68 160.167 131.488C160.381 131.285 160.658 131.184 160.999 131.184C161.351 131.184 161.629 131.285 161.831 131.488C162.034 131.68 162.135 131.941 162.135 132.272C162.135 132.592 162.034 132.859 161.831 133.072C161.629 133.275 161.351 133.376 160.999 133.376ZM173.702 139.12H170.662V142H168.678V134.688H170.662V137.376H173.702V134.688H175.686V142H173.702V139.12ZM181.105 142.112C180.518 142.112 179.98 142.021 179.489 141.84C179.009 141.659 178.593 141.408 178.241 141.088C177.889 140.757 177.617 140.368 177.425 139.92C177.233 139.461 177.137 138.955 177.137 138.4C177.137 137.813 177.238 137.285 177.441 136.816C177.644 136.336 177.921 135.931 178.273 135.6C178.625 135.269 179.036 135.013 179.505 134.832C179.974 134.651 180.476 134.56 181.009 134.56C181.585 134.56 182.097 134.661 182.545 134.864C183.004 135.056 183.388 135.328 183.697 135.68C184.006 136.021 184.241 136.427 184.401 136.896C184.572 137.355 184.657 137.851 184.657 138.384V138.8H179.057C179.153 139.365 179.393 139.797 179.777 140.096C180.172 140.395 180.668 140.544 181.265 140.544C181.692 140.544 182.086 140.469 182.449 140.32C182.822 140.16 183.132 139.941 183.377 139.664L184.481 140.672C184.108 141.141 183.628 141.499 183.041 141.744C182.454 141.989 181.809 142.112 181.105 142.112ZM180.929 136.16C180.46 136.16 180.065 136.288 179.745 136.544C179.436 136.789 179.222 137.141 179.105 137.6H182.753C182.689 137.195 182.497 136.853 182.177 136.576C181.857 136.299 181.441 136.16 180.929 136.16ZM185.112 140.256H185.992C186.269 139.68 186.477 139.04 186.616 138.336C186.754 137.621 186.824 136.779 186.824 135.808V134.688H192.52V140.256H193.64V143.632H192.024V142H186.744V143.632H185.112V140.256ZM188.6 136.48C188.6 137.963 188.381 139.221 187.944 140.256H190.536V136.432H188.6V136.48ZM198.136 142.112C197.56 142.112 197.027 142.021 196.536 141.84C196.056 141.659 195.64 141.403 195.288 141.072C194.947 140.731 194.675 140.331 194.472 139.872C194.28 139.413 194.184 138.901 194.184 138.336C194.184 137.771 194.28 137.259 194.472 136.8C194.675 136.331 194.952 135.931 195.304 135.6C195.656 135.269 196.072 135.013 196.552 134.832C197.043 134.651 197.571 134.56 198.136 134.56C198.712 134.56 199.24 134.651 199.72 134.832C200.211 135.013 200.632 135.275 200.984 135.616C201.336 135.947 201.608 136.347 201.8 136.816C201.992 137.275 202.088 137.781 202.088 138.336C202.088 138.912 201.987 139.435 201.784 139.904C201.581 140.363 201.304 140.757 200.952 141.088C200.6 141.408 200.184 141.659 199.704 141.84C199.224 142.021 198.701 142.112 198.136 142.112ZM198.136 140.432C198.723 140.432 199.181 140.235 199.512 139.84C199.843 139.445 200.008 138.944 200.008 138.336C200.008 137.728 199.848 137.232 199.528 136.848C199.208 136.453 198.744 136.256 198.136 136.256C197.539 136.256 197.075 136.453 196.744 136.848C196.413 137.243 196.248 137.739 196.248 138.336C196.248 138.624 196.291 138.896 196.376 139.152C196.461 139.408 196.584 139.632 196.744 139.824C196.904 140.016 197.101 140.165 197.336 140.272C197.571 140.379 197.837 140.432 198.136 140.432ZM206.93 142.112C206.343 142.112 205.815 142.021 205.346 141.84C204.877 141.659 204.471 141.408 204.13 141.088C203.799 140.757 203.543 140.363 203.362 139.904C203.181 139.445 203.09 138.933 203.09 138.368C203.09 137.771 203.186 137.237 203.378 136.768C203.581 136.288 203.853 135.888 204.194 135.568C204.535 135.237 204.941 134.987 205.41 134.816C205.879 134.645 206.386 134.56 206.93 134.56C207.549 134.56 208.109 134.667 208.61 134.88C209.122 135.093 209.522 135.36 209.81 135.68L208.786 137.024C208.573 136.789 208.322 136.603 208.034 136.464C207.757 136.325 207.442 136.256 207.09 136.256C206.493 136.256 206.018 136.448 205.666 136.832C205.325 137.216 205.154 137.707 205.154 138.304C205.154 138.923 205.33 139.435 205.682 139.84C206.045 140.235 206.53 140.432 207.138 140.432C207.49 140.432 207.805 140.363 208.082 140.224C208.359 140.075 208.605 139.883 208.818 139.648L209.986 140.8C209.666 141.216 209.239 141.541 208.706 141.776C208.183 142 207.591 142.112 206.93 142.112ZM212.858 136.432H210.506V134.688H217.178V136.432H214.826V142H212.858V136.432ZM219.622 145.6L220.854 142.08L217.862 135.056V134.688H219.846L221.782 139.472L223.478 134.688H225.27L225.254 135.056L221.414 145.84H219.622V145.6ZM226.319 134.688H233.199V142H231.231V136.432H228.303V142H226.319V134.688ZM240.124 139.12H237.084V142H235.1V134.688H237.084V137.376H240.124V134.688H242.108V142H240.124V139.12ZM247.079 136.8C248.114 136.8 248.898 137.013 249.431 137.44C249.975 137.867 250.247 138.512 250.247 139.376C250.247 140.24 249.964 140.896 249.399 141.344C248.844 141.781 248.018 142 246.919 142H243.991V134.688H245.975V136.8H247.079ZM250.951 134.688H252.935V142H250.951V134.688ZM246.711 140.448C247.191 140.448 247.559 140.379 247.815 140.24C248.082 140.091 248.215 139.803 248.215 139.376C248.215 138.981 248.092 138.709 247.847 138.56C247.612 138.411 247.255 138.336 246.775 138.336H245.975V140.448H246.711ZM255.907 142.16C255.534 142.16 255.246 142.053 255.043 141.84C254.851 141.616 254.755 141.349 254.755 141.04C254.755 140.709 254.851 140.432 255.043 140.208C255.235 139.984 255.523 139.872 255.907 139.872C256.291 139.872 256.584 139.984 256.787 140.208C256.99 140.432 257.091 140.709 257.091 141.04C257.091 141.349 256.984 141.616 256.771 141.84C256.568 142.053 256.28 142.16 255.907 142.16Z" fill="black"/>
<circle cx="2.15513" cy="2.15513" r="2.15513" transform="matrix(1 0 0 -1 140 160.31)" fill="black"/>
<circle cx="2.15513" cy="2.15513" r="2.15513" transform="matrix(1 0 0 -1 152.452 160.31)" fill="black"/>
<circle cx="2.15513" cy="2.15513" r="2.15513" transform="matrix(1 0 0 -1 164.904 160.31)" fill="black"/>
<circle cx="2.15513" cy="2.15513" r="2.15513" transform="matrix(1 0 0 -1 177.355 160.31)" fill="black"/>
<defs>
<linearGradient id="paint0_linear_106_17" x1="371.611" y1="99.7575" x2="-58.9877" y2="99.7575" gradientUnits="userSpaceOnUse">
<stop stop-color="white" stop-opacity="0.64"/>
<stop offset="0.325" stop-color="#2736C1" stop-opacity="0.72"/>
<stop offset="1" stop-color="#091FEA"/>
</linearGradient>
</defs>
</svg>
