<svg width="321" height="170" viewBox="0 0 321 170" fill="none" xmlns="http://www.w3.org/2000/svg">
<path d="M321 68V20C321 8.95429 312.046 0 301 0H20C8.95428 0 0 8.95431 0 20V68V150C0 161.046 8.95428 170 20 170H301C312.046 170 321 161.046 321 150L321 68Z" fill="url(#paint0_linear_106_18)" fill-opacity="0.76"/>
<circle cx="2.15513" cy="2.15513" r="2.15513" transform="matrix(1 0 0 -1 140 158.311)" fill="black"/>
<circle cx="2.15513" cy="2.15513" r="2.15513" transform="matrix(1 0 0 -1 152.452 158.311)" fill="black"/>
<circle cx="2.15513" cy="2.15513" r="2.15513" transform="matrix(1 0 0 -1 164.904 158.311)" fill="black"/>
<circle cx="2.15513" cy="2.15513" r="2.15513" transform="matrix(1 0 0 -1 177.355 158.311)" fill="black"/>
<path d="M31.312 34.8H33.456V42.112L39.312 34.8H40.672V46H38.512V38.72L32.672 46H31.312V34.8ZM46.2426 46.112C45.656 46.112 45.128 46.0213 44.6586 45.84C44.1893 45.6587 43.784 45.408 43.4426 45.088C43.112 44.7573 42.856 44.3627 42.6746 43.904C42.4933 43.4453 42.4026 42.9333 42.4026 42.368C42.4026 41.7707 42.4986 41.2373 42.6906 40.768C42.8933 40.288 43.1653 39.888 43.5066 39.568C43.848 39.2373 44.2533 38.9867 44.7226 38.816C45.192 38.6453 45.6986 38.56 46.2426 38.56C46.8613 38.56 47.4213 38.6667 47.9226 38.88C48.4346 39.0933 48.8346 39.36 49.1226 39.68L48.0986 41.024C47.8853 40.7893 47.6346 40.6027 47.3466 40.464C47.0693 40.3253 46.7546 40.256 46.4026 40.256C45.8053 40.256 45.3306 40.448 44.9786 40.832C44.6373 41.216 44.4666 41.7067 44.4666 42.304C44.4666 42.9227 44.6426 43.4347 44.9946 43.84C45.3573 44.2347 45.8426 44.432 46.4506 44.432C46.8026 44.432 47.1173 44.3627 47.3946 44.224C47.672 44.0747 47.9173 43.8827 48.1306 43.648L49.2986 44.8C48.9786 45.216 48.552 45.5413 48.0186 45.776C47.496 46 46.904 46.112 46.2426 46.112ZM50.4909 38.688H52.4749V41.376H53.2429L55.0029 38.688H57.0669V38.96L54.8909 42.016L57.6109 45.728V46H55.4029L53.1949 42.88H52.4749V46H50.4909V38.688ZM59.4658 49.6L60.6978 46.08L57.7058 39.056V38.688H59.6898L61.6258 43.472L63.3218 38.688H65.1138L65.0978 39.056L61.2578 49.84H59.4658V49.6ZM69.3364 46.112C68.7497 46.112 68.2217 46.0213 67.7524 45.84C67.283 45.6587 66.8777 45.408 66.5364 45.088C66.2057 44.7573 65.9497 44.3627 65.7684 43.904C65.587 43.4453 65.4964 42.9333 65.4964 42.368C65.4964 41.7707 65.5924 41.2373 65.7844 40.768C65.987 40.288 66.259 39.888 66.6004 39.568C66.9417 39.2373 67.347 38.9867 67.8164 38.816C68.2857 38.6453 68.7924 38.56 69.3364 38.56C69.955 38.56 70.515 38.6667 71.0164 38.88C71.5284 39.0933 71.9284 39.36 72.2164 39.68L71.1924 41.024C70.979 40.7893 70.7284 40.6027 70.4404 40.464C70.163 40.3253 69.8484 40.256 69.4964 40.256C68.899 40.256 68.4244 40.448 68.0724 40.832C67.731 41.216 67.5604 41.7067 67.5604 42.304C67.5604 42.9227 67.7364 43.4347 68.0884 43.84C68.451 44.2347 68.9364 44.432 69.5444 44.432C69.8964 44.432 70.211 44.3627 70.4884 44.224C70.7657 44.0747 71.011 43.8827 71.2244 43.648L72.3924 44.8C72.0724 45.216 71.6457 45.5413 71.1124 45.776C70.5897 46 69.9977 46.112 69.3364 46.112ZM76.9145 46.112C76.3278 46.112 75.7998 46.0213 75.3305 45.84C74.8612 45.6587 74.4558 45.408 74.1145 45.088C73.7838 44.7573 73.5278 44.3627 73.3465 43.904C73.1652 43.4453 73.0745 42.9333 73.0745 42.368C73.0745 41.7707 73.1705 41.2373 73.3625 40.768C73.5652 40.288 73.8372 39.888 74.1785 39.568C74.5198 39.2373 74.9252 38.9867 75.3945 38.816C75.8638 38.6453 76.3705 38.56 76.9145 38.56C77.5332 38.56 78.0932 38.6667 78.5945 38.88C79.1065 39.0933 79.5065 39.36 79.7945 39.68L78.7705 41.024C78.5572 40.7893 78.3065 40.6027 78.0185 40.464C77.7412 40.3253 77.4265 40.256 77.0745 40.256C76.4772 40.256 76.0025 40.448 75.6505 40.832C75.3092 41.216 75.1385 41.7067 75.1385 42.304C75.1385 42.9227 75.3145 43.4347 75.6665 43.84C76.0292 44.2347 76.5145 44.432 77.1225 44.432C77.4745 44.432 77.7892 44.3627 78.0665 44.224C78.3438 44.0747 78.5892 43.8827 78.8025 43.648L79.9705 44.8C79.6505 45.216 79.2238 45.5413 78.6905 45.776C78.1678 46 77.5758 46.112 76.9145 46.112ZM82.8428 40.432H80.4908V38.688H87.1628V40.432H84.8108V46H82.8428V40.432ZM88.3815 38.688H92.3335C93.0908 38.688 93.6615 38.8533 94.0455 39.184C94.4295 39.504 94.6215 39.9253 94.6215 40.448C94.6215 40.8427 94.5255 41.168 94.3335 41.424C94.1415 41.68 93.8908 41.8613 93.5815 41.968C94.1042 42.0427 94.5308 42.224 94.8615 42.512C95.1922 42.8 95.3575 43.232 95.3575 43.808C95.3575 44.512 95.0962 45.056 94.5735 45.44C94.0615 45.8133 93.3095 46 92.3175 46H88.3815V38.688ZM90.3655 42.704V44.544H91.8855C92.3868 44.544 92.7442 44.4693 92.9575 44.32C93.1708 44.16 93.2775 43.9253 93.2775 43.616C93.2775 43.296 93.1655 43.0667 92.9415 42.928C92.7175 42.7787 92.3815 42.704 91.9335 42.704H90.3655ZM90.3655 40.144V41.552H91.7415C92.4242 41.552 92.7655 41.312 92.7655 40.832C92.7655 40.3733 92.4188 40.144 91.7255 40.144H90.3655ZM100.136 46.112C99.5496 46.112 99.0109 46.0213 98.5203 45.84C98.0403 45.6587 97.6243 45.408 97.2723 45.088C96.9203 44.7573 96.6483 44.368 96.4563 43.92C96.2643 43.4613 96.1683 42.9547 96.1683 42.4C96.1683 41.8133 96.2696 41.2853 96.4723 40.816C96.6749 40.336 96.9523 39.9307 97.3043 39.6C97.6563 39.2693 98.0669 39.0133 98.5363 38.832C99.0056 38.6507 99.5069 38.56 100.04 38.56C100.616 38.56 101.128 38.6613 101.576 38.864C102.035 39.056 102.419 39.328 102.728 39.68C103.038 40.0213 103.272 40.4267 103.432 40.896C103.603 41.3547 103.688 41.8507 103.688 42.384V42.8H98.0883C98.1843 43.3653 98.4243 43.7973 98.8083 44.096C99.2029 44.3947 99.6989 44.544 100.296 44.544C100.723 44.544 101.118 44.4693 101.48 44.32C101.854 44.16 102.163 43.9413 102.408 43.664L103.512 44.672C103.139 45.1413 102.659 45.4987 102.072 45.744C101.486 45.9893 100.84 46.112 100.136 46.112ZM99.9603 40.16C99.4909 40.16 99.0963 40.288 98.7763 40.544C98.4669 40.7893 98.2536 41.1413 98.1363 41.6H101.784C101.72 41.1947 101.528 40.8533 101.208 40.576C100.888 40.2987 100.472 40.16 99.9603 40.16ZM110.171 43.12H107.131V46H105.147V38.688H107.131V41.376H110.171V38.688H112.155V46H110.171V43.12ZM119.062 43.12H116.022V46H114.038V38.688H116.022V41.376H119.062V38.688H121.046V46H119.062V43.12ZM126.016 40.8C127.051 40.8 127.835 41.0133 128.368 41.44C128.912 41.8667 129.184 42.512 129.184 43.376C129.184 44.24 128.902 44.896 128.336 45.344C127.782 45.7813 126.955 46 125.856 46H122.928V38.688H124.912V40.8H126.016ZM129.888 38.688H131.872V46H129.888V38.688ZM125.648 44.448C126.128 44.448 126.496 44.3787 126.752 44.24C127.019 44.0907 127.152 43.8027 127.152 43.376C127.152 42.9813 127.03 42.7093 126.784 42.56C126.55 42.4107 126.192 42.336 125.712 42.336H124.912V44.448H125.648ZM133.757 38.688H135.741V42.896L139.133 38.688H140.685V46H138.701V41.552L135.117 46H133.757V38.688ZM137.213 37.744C136.882 37.744 136.567 37.7013 136.269 37.616C135.981 37.52 135.725 37.3813 135.501 37.2C135.287 37.0187 135.117 36.7893 134.989 36.512C134.861 36.224 134.791 35.8933 134.781 35.52H136.205C136.226 35.808 136.317 36.0427 136.477 36.224C136.637 36.4053 136.893 36.496 137.245 36.496C137.586 36.496 137.837 36.4107 137.997 36.24C138.167 36.0587 138.263 35.8187 138.285 35.52H139.693C139.682 35.8933 139.607 36.224 139.469 36.512C139.33 36.7893 139.149 37.0187 138.925 37.2C138.701 37.3813 138.439 37.52 138.141 37.616C137.842 37.7013 137.533 37.744 137.213 37.744ZM150.483 38.688H152.467V42.896L155.859 38.688H157.411V46H155.427V41.552L151.843 46H150.483V38.688ZM164.32 43.12H161.28V46H159.296V38.688H161.28V41.376H164.32V38.688H166.304V46H164.32V43.12ZM169.866 40.432H167.514V38.688H174.186V40.432H171.834V46H169.866V40.432ZM178.66 46.112C178.073 46.112 177.534 46.0213 177.044 45.84C176.564 45.6587 176.148 45.408 175.796 45.088C175.444 44.7573 175.172 44.368 174.98 43.92C174.788 43.4613 174.692 42.9547 174.692 42.4C174.692 41.8133 174.793 41.2853 174.996 40.816C175.198 40.336 175.476 39.9307 175.828 39.6C176.18 39.2693 176.59 39.0133 177.06 38.832C177.529 38.6507 178.03 38.56 178.564 38.56C179.14 38.56 179.652 38.6613 180.1 38.864C180.558 39.056 180.942 39.328 181.252 39.68C181.561 40.0213 181.796 40.4267 181.956 40.896C182.126 41.3547 182.212 41.8507 182.212 42.384V42.8H176.612C176.708 43.3653 176.948 43.7973 177.332 44.096C177.726 44.3947 178.222 44.544 178.82 44.544C179.246 44.544 179.641 44.4693 180.004 44.32C180.377 44.16 180.686 43.9413 180.932 43.664L182.036 44.672C181.662 45.1413 181.182 45.4987 180.596 45.744C180.009 45.9893 179.364 46.112 178.66 46.112ZM178.484 40.16C178.014 40.16 177.62 40.288 177.3 40.544C176.99 40.7893 176.777 41.1413 176.66 41.6H180.308C180.244 41.1947 180.052 40.8533 179.732 40.576C179.412 40.2987 178.996 40.16 178.484 40.16ZM183.352 46.16C183.235 46.16 183.128 46.1547 183.032 46.144C182.947 46.1333 182.872 46.1227 182.808 46.112V44.208C182.915 44.2293 183 44.24 183.064 44.24C183.246 44.24 183.4 44.176 183.528 44.048C183.656 43.9093 183.758 43.6907 183.832 43.392C183.918 43.0827 183.976 42.6827 184.008 42.192C184.051 41.7013 184.072 41.104 184.072 40.4V38.688H189.624V46H187.656V40.432H185.896V41.296C185.896 42.2133 185.838 42.9813 185.72 43.6C185.614 44.2187 185.448 44.72 185.224 45.104C185.011 45.4773 184.744 45.7493 184.424 45.92C184.115 46.08 183.758 46.16 183.352 46.16ZM191.29 46.16C191.173 46.16 191.066 46.1547 190.97 46.144C190.885 46.1333 190.81 46.1227 190.746 46.112V44.208C190.853 44.2293 190.938 44.24 191.002 44.24C191.183 44.24 191.338 44.176 191.466 44.048C191.594 43.9093 191.695 43.6907 191.77 43.392C191.855 43.0827 191.914 42.6827 191.946 42.192C191.989 41.7013 192.01 41.104 192.01 40.4V38.688H197.562V46H195.594V40.432H193.834V41.296C193.834 42.2133 193.775 42.9813 193.658 43.6C193.551 44.2187 193.386 44.72 193.162 45.104C192.949 45.4773 192.682 45.7493 192.362 45.92C192.053 46.08 191.695 46.16 191.29 46.16ZM203.003 46.112C202.417 46.112 201.878 46.0213 201.387 45.84C200.907 45.6587 200.491 45.408 200.139 45.088C199.787 44.7573 199.515 44.368 199.323 43.92C199.131 43.4613 199.035 42.9547 199.035 42.4C199.035 41.8133 199.137 41.2853 199.339 40.816C199.542 40.336 199.819 39.9307 200.171 39.6C200.523 39.2693 200.934 39.0133 201.403 38.832C201.873 38.6507 202.374 38.56 202.907 38.56C203.483 38.56 203.995 38.6613 204.443 38.864C204.902 39.056 205.286 39.328 205.595 39.68C205.905 40.0213 206.139 40.4267 206.299 40.896C206.47 41.3547 206.555 41.8507 206.555 42.384V42.8H200.955C201.051 43.3653 201.291 43.7973 201.675 44.096C202.07 44.3947 202.566 44.544 203.163 44.544C203.59 44.544 203.985 44.4693 204.347 44.32C204.721 44.16 205.03 43.9413 205.275 43.664L206.379 44.672C206.006 45.1413 205.526 45.4987 204.939 45.744C204.353 45.9893 203.707 46.112 203.003 46.112ZM202.827 40.16C202.358 40.16 201.963 40.288 201.643 40.544C201.334 40.7893 201.121 41.1413 201.003 41.6H204.651C204.587 41.1947 204.395 40.8533 204.075 40.576C203.755 40.2987 203.339 40.16 202.827 40.16ZM208.014 38.688H209.998V41.376H210.766L212.526 38.688H214.59V38.96L212.414 42.016L215.134 45.728V46H212.926L210.718 42.88H209.998V46H208.014V38.688ZM217.741 40.432H215.389V38.688H222.061V40.432H219.709V46H217.741V40.432ZM231.194 38.688H238.074V46H236.106V40.432H233.178V46H231.194V38.688ZM243.495 46.112C242.919 46.112 242.386 46.0213 241.895 45.84C241.415 45.6587 240.999 45.4027 240.647 45.072C240.306 44.7307 240.034 44.3307 239.831 43.872C239.639 43.4133 239.543 42.9013 239.543 42.336C239.543 41.7707 239.639 41.2587 239.831 40.8C240.034 40.3307 240.311 39.9307 240.663 39.6C241.015 39.2693 241.431 39.0133 241.911 38.832C242.402 38.6507 242.93 38.56 243.495 38.56C244.071 38.56 244.599 38.6507 245.079 38.832C245.57 39.0133 245.991 39.2747 246.343 39.616C246.695 39.9467 246.967 40.3467 247.159 40.816C247.351 41.2747 247.447 41.7813 247.447 42.336C247.447 42.912 247.346 43.4347 247.143 43.904C246.941 44.3627 246.663 44.7573 246.311 45.088C245.959 45.408 245.543 45.6587 245.063 45.84C244.583 46.0213 244.061 46.112 243.495 46.112ZM243.495 44.432C244.082 44.432 244.541 44.2347 244.871 43.84C245.202 43.4453 245.367 42.944 245.367 42.336C245.367 41.728 245.207 41.232 244.887 40.848C244.567 40.4533 244.103 40.256 243.495 40.256C242.898 40.256 242.434 40.4533 242.103 40.848C241.773 41.2427 241.607 41.7387 241.607 42.336C241.607 42.624 241.65 42.896 241.735 43.152C241.821 43.408 241.943 43.632 242.103 43.824C242.263 44.016 242.461 44.1653 242.695 44.272C242.93 44.3787 243.197 44.432 243.495 44.432ZM249.523 38.688H251.219L253.155 42.928L254.979 38.688H256.723L257.939 46H256.083L255.379 41.728L253.491 46H252.643L250.739 41.808L250.051 46H248.291L249.523 38.688ZM262.714 46.112C262.138 46.112 261.605 46.0213 261.114 45.84C260.634 45.6587 260.218 45.4027 259.866 45.072C259.525 44.7307 259.253 44.3307 259.05 43.872C258.858 43.4133 258.762 42.9013 258.762 42.336C258.762 41.7707 258.858 41.2587 259.05 40.8C259.253 40.3307 259.53 39.9307 259.882 39.6C260.234 39.2693 260.65 39.0133 261.13 38.832C261.621 38.6507 262.149 38.56 262.714 38.56C263.29 38.56 263.818 38.6507 264.298 38.832C264.789 39.0133 265.21 39.2747 265.562 39.616C265.914 39.9467 266.186 40.3467 266.378 40.816C266.57 41.2747 266.666 41.7813 266.666 42.336C266.666 42.912 266.565 43.4347 266.362 43.904C266.159 44.3627 265.882 44.7573 265.53 45.088C265.178 45.408 264.762 45.6587 264.282 45.84C263.802 46.0213 263.279 46.112 262.714 46.112ZM262.714 44.432C263.301 44.432 263.759 44.2347 264.09 43.84C264.421 43.4453 264.586 42.944 264.586 42.336C264.586 41.728 264.426 41.232 264.106 40.848C263.786 40.4533 263.322 40.256 262.714 40.256C262.117 40.256 261.653 40.4533 261.322 40.848C260.991 41.2427 260.826 41.7387 260.826 42.336C260.826 42.624 260.869 42.896 260.954 43.152C261.039 43.408 261.162 43.632 261.322 43.824C261.482 44.016 261.679 44.1653 261.914 44.272C262.149 44.3787 262.415 44.432 262.714 44.432ZM268.1 38.688H273.172V40.432H270.084V46H268.1V38.688ZM277.201 46.112C276.764 46.112 276.337 46.0213 275.921 45.84C275.516 45.6587 275.153 45.4027 274.833 45.072C274.524 44.7413 274.273 44.3467 274.081 43.888C273.889 43.4187 273.793 42.9013 273.793 42.336C273.793 41.7707 273.884 41.2587 274.065 40.8C274.257 40.3307 274.508 39.9307 274.817 39.6C275.137 39.2693 275.5 39.0133 275.905 38.832C276.321 38.6507 276.753 38.56 277.201 38.56C277.745 38.56 278.225 38.6667 278.641 38.88C279.068 39.0933 279.404 39.3547 279.649 39.664V38.688H281.521V46H279.649V45.008C279.383 45.3387 279.036 45.6053 278.609 45.808C278.183 46.0107 277.713 46.112 277.201 46.112ZM277.729 44.416C278.273 44.416 278.705 44.2293 279.025 43.856C279.356 43.472 279.527 42.976 279.537 42.368V42.24C279.537 41.6747 279.372 41.2107 279.041 40.848C278.711 40.4853 278.273 40.304 277.729 40.304C277.484 40.304 277.249 40.3467 277.025 40.432C276.801 40.5173 276.604 40.6453 276.433 40.816C276.263 40.9867 276.129 41.2 276.033 41.456C275.937 41.712 275.889 42.0053 275.889 42.336C275.889 42.976 276.06 43.4827 276.401 43.856C276.753 44.2293 277.196 44.416 277.729 44.416ZM286.949 46.112C286.362 46.112 285.823 46.0213 285.333 45.84C284.853 45.6587 284.437 45.408 284.085 45.088C283.733 44.7573 283.461 44.368 283.269 43.92C283.077 43.4613 282.981 42.9547 282.981 42.4C282.981 41.8133 283.082 41.2853 283.285 40.816C283.487 40.336 283.765 39.9307 284.117 39.6C284.469 39.2693 284.879 39.0133 285.349 38.832C285.818 38.6507 286.319 38.56 286.853 38.56C287.429 38.56 287.941 38.6613 288.389 38.864C288.847 39.056 289.231 39.328 289.541 39.68C289.85 40.0213 290.085 40.4267 290.245 40.896C290.415 41.3547 290.501 41.8507 290.501 42.384V42.8H284.901C284.997 43.3653 285.237 43.7973 285.621 44.096C286.015 44.3947 286.511 44.544 287.109 44.544C287.535 44.544 287.93 44.4693 288.293 44.32C288.666 44.16 288.975 43.9413 289.221 43.664L290.325 44.672C289.951 45.1413 289.471 45.4987 288.885 45.744C288.298 45.9893 287.653 46.112 286.949 46.112ZM286.773 40.16C286.303 40.16 285.909 40.288 285.589 40.544C285.279 40.7893 285.066 41.1413 284.949 41.6H288.597C288.533 41.1947 288.341 40.8533 288.021 40.576C287.701 40.2987 287.285 40.16 286.773 40.16ZM293.405 40.432H291.053V38.688H297.725V40.432H295.373V46H293.405V40.432ZM30.944 57.688H34.896C35.6533 57.688 36.224 57.8533 36.608 58.184C36.992 58.504 37.184 58.9253 37.184 59.448C37.184 59.8427 37.088 60.168 36.896 60.424C36.704 60.68 36.4533 60.8613 36.144 60.968C36.6667 61.0427 37.0933 61.224 37.424 61.512C37.7547 61.8 37.92 62.232 37.92 62.808C37.92 63.512 37.6587 64.056 37.136 64.44C36.624 64.8133 35.872 65 34.88 65H30.944V57.688ZM32.928 61.704V63.544H34.448C34.9493 63.544 35.3067 63.4693 35.52 63.32C35.7333 63.16 35.84 62.9253 35.84 62.616C35.84 62.296 35.728 62.0667 35.504 61.928C35.28 61.7787 34.944 61.704 34.496 61.704H32.928ZM32.928 59.144V60.552H34.304C34.9867 60.552 35.328 60.312 35.328 59.832C35.328 59.3733 34.9813 59.144 34.288 59.144H32.928ZM64.0968 65.112C63.5208 65.112 62.9875 65.0213 62.4968 64.84C62.0168 64.6587 61.6008 64.4027 61.2488 64.072C60.9075 63.7307 60.6355 63.3307 60.4328 62.872C60.2408 62.4133 60.1448 61.9013 60.1448 61.336C60.1448 60.7707 60.2408 60.2587 60.4328 59.8C60.6355 59.3307 60.9128 58.9307 61.2648 58.6C61.6168 58.2693 62.0328 58.0133 62.5128 57.832C63.0035 57.6507 63.5315 57.56 64.0968 57.56C64.6728 57.56 65.2008 57.6507 65.6808 57.832C66.1715 58.0133 66.5928 58.2747 66.9448 58.616C67.2968 58.9467 67.5688 59.3467 67.7608 59.816C67.9528 60.2747 68.0488 60.7813 68.0488 61.336C68.0488 61.912 67.9475 62.4347 67.7448 62.904C67.5421 63.3627 67.2648 63.7573 66.9128 64.088C66.5608 64.408 66.1448 64.6587 65.6648 64.84C65.1848 65.0213 64.6621 65.112 64.0968 65.112ZM64.0968 63.432C64.6835 63.432 65.1421 63.2347 65.4728 62.84C65.8035 62.4453 65.9688 61.944 65.9688 61.336C65.9688 60.728 65.8088 60.232 65.4888 59.848C65.1688 59.4533 64.7048 59.256 64.0968 59.256C63.4995 59.256 63.0355 59.4533 62.7048 59.848C62.3741 60.2427 62.2088 60.7387 62.2088 61.336C62.2088 61.624 62.2515 61.896 62.3368 62.152C62.4221 62.408 62.5448 62.632 62.7048 62.824C62.8648 63.016 63.0621 63.1653 63.2968 63.272C63.5315 63.3787 63.7981 63.432 64.0968 63.432ZM73.1311 65.144C71.7124 65.144 70.6777 64.7013 70.0271 63.816C69.3764 62.9307 69.0511 61.6027 69.0511 59.832C69.0511 58.808 69.1577 57.9333 69.3711 57.208C69.5844 56.472 69.8884 55.8747 70.2831 55.416C70.6884 54.9467 71.1737 54.6053 71.7391 54.392C72.3151 54.168 72.9551 54.056 73.6591 54.056C74.0644 54.056 74.3737 54.0187 74.5871 53.944C74.8004 53.8587 74.9604 53.6987 75.0671 53.464L76.6351 53.928C76.5497 54.2373 76.4431 54.504 76.3151 54.728C76.1977 54.9413 76.0324 55.1227 75.8191 55.272C75.6057 55.4213 75.3337 55.5387 75.0031 55.624C74.6724 55.6987 74.2511 55.752 73.7391 55.784C73.2484 55.816 72.8217 55.88 72.4591 55.976C72.1071 56.072 71.8084 56.2427 71.5631 56.488C71.3284 56.7227 71.1417 57.0533 71.0031 57.48C70.8751 57.9067 70.7897 58.4613 70.7471 59.144C71.0564 58.568 71.4511 58.168 71.9311 57.944C72.4217 57.7093 72.9551 57.592 73.5311 57.592C74.0644 57.592 74.5444 57.6773 74.9711 57.848C75.4084 58.0187 75.7764 58.264 76.0751 58.584C76.3737 58.904 76.6031 59.288 76.7631 59.736C76.9231 60.1733 77.0031 60.664 77.0031 61.208C77.0031 61.8053 76.9071 62.3493 76.7151 62.84C76.5231 63.32 76.2564 63.7307 75.9151 64.072C75.5737 64.4133 75.1631 64.68 74.6831 64.872C74.2137 65.0533 73.6964 65.144 73.1311 65.144ZM73.0831 63.4C73.6271 63.4 74.0644 63.2187 74.3951 62.856C74.7364 62.4827 74.9071 61.9707 74.9071 61.32C74.9071 60.68 74.7471 60.1787 74.4271 59.816C74.1177 59.4427 73.6751 59.256 73.0991 59.256C72.5337 59.256 72.0857 59.4373 71.7551 59.8C71.4244 60.1627 71.2591 60.6693 71.2591 61.32C71.2591 61.96 71.4244 62.4667 71.7551 62.84C72.0857 63.2133 72.5284 63.4 73.0831 63.4ZM78.4518 68.84V57.688H80.3238V58.664C80.5691 58.3547 80.8998 58.0933 81.3158 57.88C81.7425 57.6667 82.2278 57.56 82.7718 57.56C83.2198 57.56 83.6465 57.6507 84.0518 57.832C84.4678 58.0133 84.8305 58.2693 85.1398 58.6C85.4598 58.9307 85.7105 59.3307 85.8918 59.8C86.0838 60.2587 86.1798 60.7707 86.1798 61.336C86.1798 61.9013 86.0838 62.4187 85.8918 62.888C85.6998 63.3467 85.4438 63.7413 85.1238 64.072C84.8145 64.4027 84.4518 64.6587 84.0358 64.84C83.6305 65.0213 83.2091 65.112 82.7718 65.112C82.2918 65.112 81.8491 65.0267 81.4438 64.856C81.0385 64.6747 80.7025 64.4347 80.4358 64.136V68.84H78.4518ZM82.2438 59.304C81.6998 59.304 81.2678 59.48 80.9478 59.832C80.6278 60.1733 80.4571 60.616 80.4358 61.16V61.368C80.4465 61.976 80.6118 62.472 80.9318 62.856C81.2625 63.2293 81.6998 63.416 82.2438 63.416C82.7771 63.416 83.2145 63.2293 83.5558 62.856C83.9078 62.4827 84.0838 61.976 84.0838 61.336C84.0838 61.0053 84.0305 60.712 83.9238 60.456C83.8278 60.2 83.6945 59.9867 83.5238 59.816C83.3638 59.6453 83.1718 59.5173 82.9478 59.432C82.7238 59.3467 82.4891 59.304 82.2438 59.304ZM90.6153 65.112C90.178 65.112 89.7513 65.0213 89.3353 64.84C88.93 64.6587 88.5673 64.4027 88.2473 64.072C87.938 63.7413 87.6873 63.3467 87.4953 62.888C87.3033 62.4187 87.2073 61.9013 87.2073 61.336C87.2073 60.7707 87.298 60.2587 87.4793 59.8C87.6713 59.3307 87.922 58.9307 88.2313 58.6C88.5513 58.2693 88.914 58.0133 89.3193 57.832C89.7353 57.6507 90.1673 57.56 90.6153 57.56C91.1593 57.56 91.6393 57.6667 92.0553 57.88C92.482 58.0933 92.818 58.3547 93.0633 58.664V57.688H94.9353V65H93.0633V64.008C92.7966 64.3387 92.45 64.6053 92.0233 64.808C91.5966 65.0107 91.1273 65.112 90.6153 65.112ZM91.1433 63.416C91.6873 63.416 92.1193 63.2293 92.4393 62.856C92.77 62.472 92.9406 61.976 92.9513 61.368V61.24C92.9513 60.6747 92.786 60.2107 92.4553 59.848C92.1246 59.4853 91.6873 59.304 91.1433 59.304C90.898 59.304 90.6633 59.3467 90.4393 59.432C90.2153 59.5173 90.018 59.6453 89.8473 59.816C89.6766 59.9867 89.5433 60.2 89.4473 60.456C89.3513 60.712 89.3033 61.0053 89.3033 61.336C89.3033 61.976 89.474 62.4827 89.8153 62.856C90.1673 63.2293 90.61 63.416 91.1433 63.416ZM99.2268 65.112C98.8321 65.112 98.4641 65.0693 98.1228 64.984C97.7921 64.8987 97.4935 64.792 97.2268 64.664C96.9708 64.536 96.7468 64.3973 96.5548 64.248C96.3735 64.0987 96.2348 63.96 96.1388 63.832L97.4028 62.648C97.5735 62.8613 97.8135 63.048 98.1228 63.208C98.4321 63.3573 98.7895 63.432 99.1948 63.432C100.016 63.432 100.427 63.1493 100.427 62.584C100.427 62.3707 100.336 62.1893 100.155 62.04C99.9735 61.8907 99.6588 61.816 99.2108 61.816H98.1868V60.424H98.9868C99.3281 60.424 99.5948 60.376 99.7868 60.28C99.9788 60.1733 100.075 60.0133 100.075 59.8C100.075 59.6187 99.9788 59.48 99.7868 59.384C99.5948 59.2773 99.3441 59.224 99.0348 59.224C98.7468 59.224 98.4641 59.288 98.1868 59.416C97.9201 59.5333 97.6908 59.6827 97.4988 59.864L96.4268 58.744C96.5441 58.6053 96.6881 58.4667 96.8588 58.328C97.0401 58.1893 97.2481 58.0667 97.4828 57.96C97.7175 57.8427 97.9841 57.7467 98.2828 57.672C98.5815 57.5973 98.9068 57.56 99.2588 57.56C99.6748 57.56 100.053 57.608 100.395 57.704C100.736 57.8 101.029 57.9333 101.275 58.104C101.52 58.264 101.707 58.4667 101.835 58.712C101.973 58.9467 102.043 59.208 102.043 59.496C102.043 59.8373 101.952 60.136 101.771 60.392C101.589 60.648 101.339 60.8507 101.019 61C101.499 61.1493 101.856 61.3733 102.091 61.672C102.336 61.9707 102.459 62.328 102.459 62.744C102.459 63.0747 102.384 63.384 102.235 63.672C102.085 63.96 101.872 64.2107 101.595 64.424C101.317 64.6373 100.976 64.808 100.571 64.936C100.176 65.0533 99.7281 65.112 99.2268 65.112ZM107.316 65.112C106.74 65.112 106.206 65.0213 105.716 64.84C105.236 64.6587 104.82 64.4027 104.468 64.072C104.126 63.7307 103.854 63.3307 103.652 62.872C103.46 62.4133 103.364 61.9013 103.364 61.336C103.364 60.7707 103.46 60.2587 103.652 59.8C103.854 59.3307 104.132 58.9307 104.484 58.6C104.836 58.2693 105.252 58.0133 105.732 57.832C106.222 57.6507 106.75 57.56 107.316 57.56C107.892 57.56 108.42 57.6507 108.9 57.832C109.39 58.0133 109.812 58.2747 110.164 58.616C110.516 58.9467 110.788 59.3467 110.98 59.816C111.172 60.2747 111.268 60.7813 111.268 61.336C111.268 61.912 111.166 62.4347 110.964 62.904C110.761 63.3627 110.484 63.7573 110.132 64.088C109.78 64.408 109.364 64.6587 108.884 64.84C108.404 65.0213 107.881 65.112 107.316 65.112ZM107.316 63.432C107.902 63.432 108.361 63.2347 108.692 62.84C109.022 62.4453 109.188 61.944 109.188 61.336C109.188 60.728 109.028 60.232 108.708 59.848C108.388 59.4533 107.924 59.256 107.316 59.256C106.718 59.256 106.254 59.4533 105.924 59.848C105.593 60.2427 105.428 60.7387 105.428 61.336C105.428 61.624 105.47 61.896 105.556 62.152C105.641 62.408 105.764 62.632 105.924 62.824C106.084 63.016 106.281 63.1653 106.516 63.272C106.75 63.3787 107.017 63.432 107.316 63.432ZM112.702 57.688H116.654C117.411 57.688 117.982 57.8533 118.366 58.184C118.75 58.504 118.942 58.9253 118.942 59.448C118.942 59.8427 118.846 60.168 118.654 60.424C118.462 60.68 118.211 60.8613 117.902 60.968C118.424 61.0427 118.851 61.224 119.182 61.512C119.512 61.8 119.678 62.232 119.678 62.808C119.678 63.512 119.416 64.056 118.894 64.44C118.382 64.8133 117.63 65 116.638 65H112.702V57.688ZM114.686 61.704V63.544H116.206C116.707 63.544 117.064 63.4693 117.278 63.32C117.491 63.16 117.598 62.9253 117.598 62.616C117.598 62.296 117.486 62.0667 117.262 61.928C117.038 61.7787 116.702 61.704 116.254 61.704H114.686ZM114.686 59.144V60.552H116.062C116.744 60.552 117.086 60.312 117.086 59.832C117.086 59.3733 116.739 59.144 116.046 59.144H114.686ZM123.897 65.112C123.459 65.112 123.033 65.0213 122.617 64.84C122.211 64.6587 121.849 64.4027 121.529 64.072C121.219 63.7413 120.969 63.3467 120.777 62.888C120.585 62.4187 120.489 61.9013 120.489 61.336C120.489 60.7707 120.579 60.2587 120.761 59.8C120.953 59.3307 121.203 58.9307 121.513 58.6C121.833 58.2693 122.195 58.0133 122.601 57.832C123.017 57.6507 123.449 57.56 123.897 57.56C124.441 57.56 124.921 57.6667 125.337 57.88C125.763 58.0933 126.099 58.3547 126.345 58.664V57.688H128.217V65H126.345V64.008C126.078 64.3387 125.731 64.6053 125.305 64.808C124.878 65.0107 124.409 65.112 123.897 65.112ZM124.425 63.416C124.969 63.416 125.401 63.2293 125.721 62.856C126.051 62.472 126.222 61.976 126.233 61.368V61.24C126.233 60.6747 126.067 60.2107 125.737 59.848C125.406 59.4853 124.969 59.304 124.425 59.304C124.179 59.304 123.945 59.3467 123.721 59.432C123.497 59.5173 123.299 59.6453 123.129 59.816C122.958 59.9867 122.825 60.2 122.729 60.456C122.633 60.712 122.585 61.0053 122.585 61.336C122.585 61.976 122.755 62.4827 123.097 62.856C123.449 63.2293 123.891 63.416 124.425 63.416ZM135.132 62.12H132.092V65H130.108V57.688H132.092V60.376H135.132V57.688H137.116V65H135.132V62.12ZM138.999 57.688H140.983V61.896L144.375 57.688H145.927V65H143.943V60.552L140.359 65H138.999V57.688ZM147.811 57.688H149.795V61.896L153.187 57.688H154.739V65H152.755V60.552L149.171 65H147.811V57.688ZM157.312 65.08C156.992 65.0267 156.746 64.904 156.576 64.712C156.416 64.5093 156.336 64.2693 156.336 63.992C156.336 63.64 156.448 63.3627 156.672 63.16C156.906 62.9467 157.184 62.84 157.504 62.84C157.845 62.84 158.138 62.952 158.384 63.176C158.64 63.4 158.768 63.72 158.768 64.136C158.768 64.4133 158.693 64.7227 158.544 65.064C158.394 65.4053 158.165 65.848 157.856 66.392L157.216 67.56H155.936L157.312 65.08ZM187.031 62.12H183.991V65H182.007V57.688H183.991V60.376H187.031V57.688H189.015V65H187.031V62.12ZM194.417 65.112C193.841 65.112 193.308 65.0213 192.817 64.84C192.337 64.6587 191.921 64.4027 191.569 64.072C191.228 63.7307 190.956 63.3307 190.753 62.872C190.561 62.4133 190.465 61.9013 190.465 61.336C190.465 60.7707 190.561 60.2587 190.753 59.8C190.956 59.3307 191.233 58.9307 191.585 58.6C191.937 58.2693 192.353 58.0133 192.833 57.832C193.324 57.6507 193.852 57.56 194.417 57.56C194.993 57.56 195.521 57.6507 196.001 57.832C196.492 58.0133 196.913 58.2747 197.265 58.616C197.617 58.9467 197.889 59.3467 198.081 59.816C198.273 60.2747 198.369 60.7813 198.369 61.336C198.369 61.912 198.268 62.4347 198.065 62.904C197.862 63.3627 197.585 63.7573 197.233 64.088C196.881 64.408 196.465 64.6587 195.985 64.84C195.505 65.0213 194.982 65.112 194.417 65.112ZM194.417 63.432C195.004 63.432 195.462 63.2347 195.793 62.84C196.124 62.4453 196.289 61.944 196.289 61.336C196.289 60.728 196.129 60.232 195.809 59.848C195.489 59.4533 195.025 59.256 194.417 59.256C193.82 59.256 193.356 59.4533 193.025 59.848C192.694 60.2427 192.529 60.7387 192.529 61.336C192.529 61.624 192.572 61.896 192.657 62.152C192.742 62.408 192.865 62.632 193.025 62.824C193.185 63.016 193.382 63.1653 193.617 63.272C193.852 63.3787 194.118 63.432 194.417 63.432ZM222.897 59.432H220.545V57.688H227.217V59.432H224.865V65H222.897V59.432ZM231.675 65.112C231.099 65.112 230.566 65.0213 230.075 64.84C229.595 64.6587 229.179 64.4027 228.827 64.072C228.486 63.7307 228.214 63.3307 228.011 62.872C227.819 62.4133 227.723 61.9013 227.723 61.336C227.723 60.7707 227.819 60.2587 228.011 59.8C228.214 59.3307 228.491 58.9307 228.843 58.6C229.195 58.2693 229.611 58.0133 230.091 57.832C230.582 57.6507 231.11 57.56 231.675 57.56C232.251 57.56 232.779 57.6507 233.259 57.832C233.75 58.0133 234.171 58.2747 234.523 58.616C234.875 58.9467 235.147 59.3467 235.339 59.816C235.531 60.2747 235.627 60.7813 235.627 61.336C235.627 61.912 235.526 62.4347 235.323 62.904C235.12 63.3627 234.843 63.7573 234.491 64.088C234.139 64.408 233.723 64.6587 233.243 64.84C232.763 65.0213 232.24 65.112 231.675 65.112ZM231.675 63.432C232.262 63.432 232.72 63.2347 233.051 62.84C233.382 62.4453 233.547 61.944 233.547 61.336C233.547 60.728 233.387 60.232 233.067 59.848C232.747 59.4533 232.283 59.256 231.675 59.256C231.078 59.256 230.614 59.4533 230.283 59.848C229.952 60.2427 229.787 60.7387 229.787 61.336C229.787 61.624 229.83 61.896 229.915 62.152C230 62.408 230.123 62.632 230.283 62.824C230.443 63.016 230.64 63.1653 230.875 63.272C231.11 63.3787 231.376 63.432 231.675 63.432ZM236.743 65.16C236.626 65.16 236.519 65.1547 236.423 65.144C236.338 65.1333 236.263 65.1227 236.199 65.112V63.208C236.306 63.2293 236.391 63.24 236.455 63.24C236.636 63.24 236.791 63.176 236.919 63.048C237.047 62.9093 237.148 62.6907 237.223 62.392C237.308 62.0827 237.367 61.6827 237.399 61.192C237.442 60.7013 237.463 60.104 237.463 59.4V57.688H243.015V65H241.047V59.432H239.287V60.296C239.287 61.2133 239.228 61.9813 239.111 62.6C239.004 63.2187 238.839 63.72 238.615 64.104C238.402 64.4773 238.135 64.7493 237.815 64.92C237.506 65.08 237.148 65.16 236.743 65.16ZM244.921 57.688H246.905V59.8H248.201C249.235 59.8 250.019 60.0133 250.553 60.44C251.097 60.8667 251.369 61.512 251.369 62.376C251.369 63.24 251.086 63.896 250.521 64.344C249.966 64.7813 249.139 65 248.041 65H244.921V57.688ZM247.849 63.448C248.329 63.448 248.697 63.3787 248.953 63.24C249.209 63.0907 249.337 62.8027 249.337 62.376C249.337 61.9813 249.219 61.7093 248.985 61.56C248.75 61.4107 248.393 61.336 247.913 61.336H246.905V63.448H247.849ZM252.639 57.688H254.623V60.376H255.391L257.151 57.688H259.215V57.96L257.039 61.016L259.759 64.728V65H257.551L255.343 61.88H254.623V65H252.639V57.688ZM263.925 65.112C263.349 65.112 262.816 65.0213 262.325 64.84C261.845 64.6587 261.429 64.4027 261.077 64.072C260.736 63.7307 260.464 63.3307 260.261 62.872C260.069 62.4133 259.973 61.9013 259.973 61.336C259.973 60.7707 260.069 60.2587 260.261 59.8C260.464 59.3307 260.741 58.9307 261.093 58.6C261.445 58.2693 261.861 58.0133 262.341 57.832C262.832 57.6507 263.36 57.56 263.925 57.56C264.501 57.56 265.029 57.6507 265.509 57.832C266 58.0133 266.421 58.2747 266.773 58.616C267.125 58.9467 267.397 59.3467 267.589 59.816C267.781 60.2747 267.877 60.7813 267.877 61.336C267.877 61.912 267.776 62.4347 267.573 62.904C267.37 63.3627 267.093 63.7573 266.741 64.088C266.389 64.408 265.973 64.6587 265.493 64.84C265.013 65.0213 264.49 65.112 263.925 65.112ZM263.925 63.432C264.512 63.432 264.97 63.2347 265.301 62.84C265.632 62.4453 265.797 61.944 265.797 61.336C265.797 60.728 265.637 60.232 265.317 59.848C264.997 59.4533 264.533 59.256 263.925 59.256C263.328 59.256 262.864 59.4533 262.533 59.848C262.202 60.2427 262.037 60.7387 262.037 61.336C262.037 61.624 262.08 61.896 262.165 62.152C262.25 62.408 262.373 62.632 262.533 62.824C262.693 63.016 262.89 63.1653 263.125 63.272C263.36 63.3787 263.626 63.432 263.925 63.432ZM290.725 57.688H294.677C295.435 57.688 296.005 57.8533 296.389 58.184C296.773 58.504 296.965 58.9253 296.965 59.448C296.965 59.8427 296.869 60.168 296.677 60.424C296.485 60.68 296.235 60.8613 295.925 60.968C296.448 61.0427 296.875 61.224 297.205 61.512C297.536 61.8 297.701 62.232 297.701 62.808C297.701 63.512 297.44 64.056 296.917 64.44C296.405 64.8133 295.653 65 294.661 65H290.725V57.688ZM292.709 61.704V63.544H294.229C294.731 63.544 295.088 63.4693 295.301 63.32C295.515 63.16 295.621 62.9253 295.621 62.616C295.621 62.296 295.509 62.0667 295.285 61.928C295.061 61.7787 294.725 61.704 294.277 61.704H292.709ZM292.709 59.144V60.552H294.085C294.768 60.552 295.109 60.312 295.109 59.832C295.109 59.3733 294.763 59.144 294.069 59.144H292.709ZM30.944 87.84V76.688H32.816V77.664C33.0613 77.3547 33.392 77.0933 33.808 76.88C34.2347 76.6667 34.72 76.56 35.264 76.56C35.712 76.56 36.1387 76.6507 36.544 76.832C36.96 77.0133 37.3227 77.2693 37.632 77.6C37.952 77.9307 38.2027 78.3307 38.384 78.8C38.576 79.2587 38.672 79.7707 38.672 80.336C38.672 80.9013 38.576 81.4187 38.384 81.888C38.192 82.3467 37.936 82.7413 37.616 83.072C37.3067 83.4027 36.944 83.6587 36.528 83.84C36.1227 84.0213 35.7013 84.112 35.264 84.112C34.784 84.112 34.3413 84.0267 33.936 83.856C33.5307 83.6747 33.1947 83.4347 32.928 83.136V87.84H30.944ZM34.736 78.304C34.192 78.304 33.76 78.48 33.44 78.832C33.12 79.1733 32.9493 79.616 32.928 80.16V80.368C32.9387 80.976 33.104 81.472 33.424 81.856C33.7547 82.2293 34.192 82.416 34.736 82.416C35.2693 82.416 35.7067 82.2293 36.048 81.856C36.4 81.4827 36.576 80.976 36.576 80.336C36.576 80.0053 36.5227 79.712 36.416 79.456C36.32 79.2 36.1867 78.9867 36.016 78.816C35.856 78.6453 35.664 78.5173 35.44 78.432C35.216 78.3467 34.9813 78.304 34.736 78.304ZM43.1075 84.112C42.6702 84.112 42.2435 84.0213 41.8275 83.84C41.4222 83.6587 41.0595 83.4027 40.7395 83.072C40.4302 82.7413 40.1795 82.3467 39.9875 81.888C39.7955 81.4187 39.6995 80.9013 39.6995 80.336C39.6995 79.7707 39.7902 79.2587 39.9715 78.8C40.1635 78.3307 40.4142 77.9307 40.7235 77.6C41.0435 77.2693 41.4062 77.0133 41.8115 76.832C42.2275 76.6507 42.6595 76.56 43.1075 76.56C43.6515 76.56 44.1315 76.6667 44.5475 76.88C44.9742 77.0933 45.3102 77.3547 45.5555 77.664V76.688H47.4275V84H45.5555V83.008C45.2888 83.3387 44.9422 83.6053 44.5155 83.808C44.0888 84.0107 43.6195 84.112 43.1075 84.112ZM43.6355 82.416C44.1795 82.416 44.6115 82.2293 44.9315 81.856C45.2622 81.472 45.4328 80.976 45.4435 80.368V80.24C45.4435 79.6747 45.2782 79.2107 44.9475 78.848C44.6168 78.4853 44.1795 78.304 43.6355 78.304C43.3902 78.304 43.1555 78.3467 42.9315 78.432C42.7075 78.5173 42.5102 78.6453 42.3395 78.816C42.1688 78.9867 42.0355 79.2 41.9395 79.456C41.8435 79.712 41.7955 80.0053 41.7955 80.336C41.7955 80.976 41.9662 81.4827 42.3075 81.856C42.6595 82.2293 43.1022 82.416 43.6355 82.416ZM51.719 84.112C51.3243 84.112 50.9563 84.0693 50.615 83.984C50.2843 83.8987 49.9857 83.792 49.719 83.664C49.463 83.536 49.239 83.3973 49.047 83.248C48.8657 83.0987 48.727 82.96 48.631 82.832L49.895 81.648C50.0657 81.8613 50.3057 82.048 50.615 82.208C50.9243 82.3573 51.2817 82.432 51.687 82.432C52.5083 82.432 52.919 82.1493 52.919 81.584C52.919 81.3707 52.8283 81.1893 52.647 81.04C52.4657 80.8907 52.151 80.816 51.703 80.816H50.679V79.424H51.479C51.8203 79.424 52.087 79.376 52.279 79.28C52.471 79.1733 52.567 79.0133 52.567 78.8C52.567 78.6187 52.471 78.48 52.279 78.384C52.087 78.2773 51.8363 78.224 51.527 78.224C51.239 78.224 50.9563 78.288 50.679 78.416C50.4123 78.5333 50.183 78.6827 49.991 78.864L48.919 77.744C49.0363 77.6053 49.1803 77.4667 49.351 77.328C49.5323 77.1893 49.7403 77.0667 49.975 76.96C50.2097 76.8427 50.4763 76.7467 50.775 76.672C51.0737 76.5973 51.399 76.56 51.751 76.56C52.167 76.56 52.5457 76.608 52.887 76.704C53.2283 76.8 53.5217 76.9333 53.767 77.104C54.0123 77.264 54.199 77.4667 54.327 77.712C54.4657 77.9467 54.535 78.208 54.535 78.496C54.535 78.8373 54.4443 79.136 54.263 79.392C54.0817 79.648 53.831 79.8507 53.511 80C53.991 80.1493 54.3483 80.3733 54.583 80.672C54.8283 80.9707 54.951 81.328 54.951 81.744C54.951 82.0747 54.8763 82.384 54.727 82.672C54.5777 82.96 54.3643 83.2107 54.087 83.424C53.8097 83.6373 53.4683 83.808 53.063 83.936C52.6683 84.0533 52.2203 84.112 51.719 84.112ZM56.2878 76.688H60.2398C60.9971 76.688 61.5678 76.8533 61.9518 77.184C62.3358 77.504 62.5278 77.9253 62.5278 78.448C62.5278 78.8427 62.4318 79.168 62.2398 79.424C62.0478 79.68 61.7971 79.8613 61.4878 79.968C62.0104 80.0427 62.4371 80.224 62.7678 80.512C63.0984 80.8 63.2638 81.232 63.2638 81.808C63.2638 82.512 63.0024 83.056 62.4798 83.44C61.9678 83.8133 61.2158 84 60.2238 84H56.2878V76.688ZM58.2718 80.704V82.544H59.7918C60.2931 82.544 60.6504 82.4693 60.8638 82.32C61.0771 82.16 61.1838 81.9253 61.1838 81.616C61.1838 81.296 61.0718 81.0667 60.8478 80.928C60.6238 80.7787 60.2878 80.704 59.8398 80.704H58.2718ZM58.2718 78.144V79.552H59.6478C60.3304 79.552 60.6718 79.312 60.6718 78.832C60.6718 78.3733 60.3251 78.144 59.6318 78.144H58.2718ZM64.5165 84.16C64.3992 84.16 64.2925 84.1547 64.1965 84.144C64.1112 84.1333 64.0365 84.1227 63.9725 84.112V82.208C64.0792 82.2293 64.1645 82.24 64.2285 82.24C64.4098 82.24 64.5645 82.176 64.6925 82.048C64.8205 81.9093 64.9218 81.6907 64.9965 81.392C65.0818 81.0827 65.1405 80.6827 65.1725 80.192C65.2152 79.7013 65.2365 79.104 65.2365 78.4V76.688H70.7885V84H68.8205V78.432H67.0605V79.296C67.0605 80.2133 67.0018 80.9813 66.8845 81.6C66.7778 82.2187 66.6125 82.72 66.3885 83.104C66.1752 83.4773 65.9085 83.7493 65.5885 83.92C65.2792 84.08 64.9218 84.16 64.5165 84.16ZM76.23 84.112C75.6433 84.112 75.1047 84.0213 74.614 83.84C74.134 83.6587 73.718 83.408 73.366 83.088C73.014 82.7573 72.742 82.368 72.55 81.92C72.358 81.4613 72.262 80.9547 72.262 80.4C72.262 79.8133 72.3633 79.2853 72.566 78.816C72.7687 78.336 73.046 77.9307 73.398 77.6C73.75 77.2693 74.1607 77.0133 74.63 76.832C75.0993 76.6507 75.6007 76.56 76.134 76.56C76.71 76.56 77.222 76.6613 77.67 76.864C78.1287 77.056 78.5127 77.328 78.822 77.68C79.1313 78.0213 79.366 78.4267 79.526 78.896C79.6967 79.3547 79.782 79.8507 79.782 80.384V80.8H74.182C74.278 81.3653 74.518 81.7973 74.902 82.096C75.2967 82.3947 75.7927 82.544 76.39 82.544C76.8167 82.544 77.2113 82.4693 77.574 82.32C77.9473 82.16 78.2567 81.9413 78.502 81.664L79.606 82.672C79.2327 83.1413 78.7527 83.4987 78.166 83.744C77.5793 83.9893 76.934 84.112 76.23 84.112ZM76.054 78.16C75.5847 78.16 75.19 78.288 74.87 78.544C74.5607 78.7893 74.3473 79.1413 74.23 79.6H77.878C77.814 79.1947 77.622 78.8533 77.302 78.576C76.982 78.2987 76.566 78.16 76.054 78.16ZM81.2409 76.688H83.2249V79.376H83.9929L85.7529 76.688H87.8169V76.96L85.6409 80.016L88.3609 83.728V84H86.1529L83.9449 80.88H83.2249V84H81.2409V76.688ZM91.9825 84.112C91.5452 84.112 91.1185 84.0213 90.7025 83.84C90.2972 83.6587 89.9345 83.4027 89.6145 83.072C89.3052 82.7413 89.0545 82.3467 88.8625 81.888C88.6705 81.4187 88.5745 80.9013 88.5745 80.336C88.5745 79.7707 88.6652 79.2587 88.8465 78.8C89.0385 78.3307 89.2892 77.9307 89.5985 77.6C89.9185 77.2693 90.2812 77.0133 90.6865 76.832C91.1025 76.6507 91.5345 76.56 91.9825 76.56C92.5265 76.56 93.0065 76.6667 93.4225 76.88C93.8492 77.0933 94.1852 77.3547 94.4305 77.664V76.688H96.3025V84H94.4305V83.008C94.1638 83.3387 93.8172 83.6053 93.3905 83.808C92.9638 84.0107 92.4945 84.112 91.9825 84.112ZM92.5105 82.416C93.0545 82.416 93.4865 82.2293 93.8065 81.856C94.1372 81.472 94.3078 80.976 94.3185 80.368V80.24C94.3185 79.6747 94.1532 79.2107 93.8225 78.848C93.4918 78.4853 93.0545 78.304 92.5105 78.304C92.2652 78.304 92.0305 78.3467 91.8065 78.432C91.5825 78.5173 91.3852 78.6453 91.2145 78.816C91.0438 78.9867 90.9105 79.2 90.8145 79.456C90.7185 79.712 90.6705 80.0053 90.6705 80.336C90.6705 80.976 90.8412 81.4827 91.1825 81.856C91.5345 82.2293 91.9772 82.416 92.5105 82.416ZM99.874 78.432H97.522V76.688H104.194V78.432H101.842V84H99.874V78.432ZM108.668 84.112C108.081 84.112 107.542 84.0213 107.052 83.84C106.572 83.6587 106.156 83.408 105.804 83.088C105.452 82.7573 105.18 82.368 104.988 81.92C104.796 81.4613 104.7 80.9547 104.7 80.4C104.7 79.8133 104.801 79.2853 105.004 78.816C105.206 78.336 105.484 77.9307 105.836 77.6C106.188 77.2693 106.598 77.0133 107.068 76.832C107.537 76.6507 108.038 76.56 108.572 76.56C109.148 76.56 109.66 76.6613 110.108 76.864C110.566 77.056 110.95 77.328 111.26 77.68C111.569 78.0213 111.804 78.4267 111.964 78.896C112.134 79.3547 112.22 79.8507 112.22 80.384V80.8H106.62C106.716 81.3653 106.956 81.7973 107.34 82.096C107.734 82.3947 108.23 82.544 108.828 82.544C109.254 82.544 109.649 82.4693 110.012 82.32C110.385 82.16 110.694 81.9413 110.94 81.664L112.044 82.672C111.67 83.1413 111.19 83.4987 110.604 83.744C110.017 83.9893 109.372 84.112 108.668 84.112ZM108.492 78.16C108.022 78.16 107.628 78.288 107.308 78.544C106.998 78.7893 106.785 79.1413 106.668 79.6H110.316C110.252 79.1947 110.06 78.8533 109.74 78.576C109.42 78.2987 109.004 78.16 108.492 78.16ZM113.36 84.16C113.243 84.16 113.136 84.1547 113.04 84.144C112.955 84.1333 112.88 84.1227 112.816 84.112V82.208C112.923 82.2293 113.008 82.24 113.072 82.24C113.254 82.24 113.408 82.176 113.536 82.048C113.664 81.9093 113.766 81.6907 113.84 81.392C113.926 81.0827 113.984 80.6827 114.016 80.192C114.059 79.7013 114.08 79.104 114.08 78.4V76.688H119.632V84H117.664V78.432H115.904V79.296C115.904 80.2133 115.846 80.9813 115.728 81.6C115.622 82.2187 115.456 82.72 115.232 83.104C115.019 83.4773 114.752 83.7493 114.432 83.92C114.123 84.08 113.766 84.16 113.36 84.16ZM121.538 76.688H123.522V78.8H124.818C125.852 78.8 126.636 79.0133 127.17 79.44C127.714 79.8667 127.986 80.512 127.986 81.376C127.986 82.24 127.703 82.896 127.138 83.344C126.583 83.7813 125.756 84 124.658 84H121.538V76.688ZM124.466 82.448C124.946 82.448 125.314 82.3787 125.57 82.24C125.826 82.0907 125.954 81.8027 125.954 81.376C125.954 80.9813 125.836 80.7093 125.602 80.56C125.367 80.4107 125.01 80.336 124.53 80.336H123.522V82.448H124.466ZM134.281 81.12H131.241V84H129.257V76.688H131.241V79.376H134.281V76.688H136.265V84H134.281V81.12ZM141.667 84.112C141.091 84.112 140.558 84.0213 140.067 83.84C139.587 83.6587 139.171 83.4027 138.819 83.072C138.478 82.7307 138.206 82.3307 138.003 81.872C137.811 81.4133 137.715 80.9013 137.715 80.336C137.715 79.7707 137.811 79.2587 138.003 78.8C138.206 78.3307 138.483 77.9307 138.835 77.6C139.187 77.2693 139.603 77.0133 140.083 76.832C140.574 76.6507 141.102 76.56 141.667 76.56C142.243 76.56 142.771 76.6507 143.251 76.832C143.742 77.0133 144.163 77.2747 144.515 77.616C144.867 77.9467 145.139 78.3467 145.331 78.816C145.523 79.2747 145.619 79.7813 145.619 80.336C145.619 80.912 145.518 81.4347 145.315 81.904C145.112 82.3627 144.835 82.7573 144.483 83.088C144.131 83.408 143.715 83.6587 143.235 83.84C142.755 84.0213 142.232 84.112 141.667 84.112ZM141.667 82.432C142.254 82.432 142.712 82.2347 143.043 81.84C143.374 81.4453 143.539 80.944 143.539 80.336C143.539 79.728 143.379 79.232 143.059 78.848C142.739 78.4533 142.275 78.256 141.667 78.256C141.07 78.256 140.606 78.4533 140.275 78.848C139.944 79.2427 139.779 79.7387 139.779 80.336C139.779 80.624 139.822 80.896 139.907 81.152C139.992 81.408 140.115 81.632 140.275 81.824C140.435 82.016 140.632 82.1653 140.867 82.272C141.102 82.3787 141.368 82.432 141.667 82.432ZM147.695 76.688H149.391L151.327 80.928L153.151 76.688H154.895L156.111 84H154.255L153.551 79.728L151.663 84H150.815L148.911 79.808L148.223 84H146.463L147.695 76.688ZM166.98 76.688H173.86V84H171.892V78.432H168.964V84H166.98V76.688ZM175.522 84.16C175.404 84.16 175.298 84.1547 175.202 84.144C175.116 84.1333 175.042 84.1227 174.978 84.112V82.208C175.084 82.2293 175.17 82.24 175.234 82.24C175.415 82.24 175.57 82.176 175.698 82.048C175.826 81.9093 175.927 81.6907 176.002 81.392C176.087 81.0827 176.146 80.6827 176.178 80.192C176.22 79.7013 176.242 79.104 176.242 78.4V76.688H181.794V84H179.826V78.432H178.066V79.296C178.066 80.2133 178.007 80.9813 177.89 81.6C177.783 82.2187 177.618 82.72 177.394 83.104C177.18 83.4773 176.914 83.7493 176.594 83.92C176.284 84.08 175.927 84.16 175.522 84.16ZM186.675 84.112C186.238 84.112 185.811 84.0213 185.395 83.84C184.99 83.6587 184.627 83.4027 184.307 83.072C183.998 82.7413 183.747 82.3467 183.555 81.888C183.363 81.4187 183.267 80.9013 183.267 80.336C183.267 79.7707 183.358 79.2587 183.539 78.8C183.731 78.3307 183.982 77.9307 184.291 77.6C184.611 77.2693 184.974 77.0133 185.379 76.832C185.795 76.6507 186.227 76.56 186.675 76.56C187.219 76.56 187.699 76.6667 188.115 76.88C188.542 77.0933 188.878 77.3547 189.123 77.664V76.688H190.995V84H189.123V83.008C188.857 83.3387 188.51 83.6053 188.083 83.808C187.657 84.0107 187.187 84.112 186.675 84.112ZM187.203 82.416C187.747 82.416 188.179 82.2293 188.499 81.856C188.83 81.472 189.001 80.976 189.011 80.368V80.24C189.011 79.6747 188.846 79.2107 188.515 78.848C188.185 78.4853 187.747 78.304 187.203 78.304C186.958 78.304 186.723 78.3467 186.499 78.432C186.275 78.5173 186.078 78.6453 185.907 78.816C185.737 78.9867 185.603 79.2 185.507 79.456C185.411 79.712 185.363 80.0053 185.363 80.336C185.363 80.976 185.534 81.4827 185.875 81.856C186.227 82.2293 186.67 82.416 187.203 82.416ZM197.911 81.12H194.871V84H192.887V76.688H194.871V79.376H197.911V76.688H199.895V84H197.911V81.12ZM205.313 84.112C204.727 84.112 204.188 84.0213 203.697 83.84C203.217 83.6587 202.801 83.408 202.449 83.088C202.097 82.7573 201.825 82.368 201.633 81.92C201.441 81.4613 201.345 80.9547 201.345 80.4C201.345 79.8133 201.447 79.2853 201.649 78.816C201.852 78.336 202.129 77.9307 202.481 77.6C202.833 77.2693 203.244 77.0133 203.713 76.832C204.183 76.6507 204.684 76.56 205.217 76.56C205.793 76.56 206.305 76.6613 206.753 76.864C207.212 77.056 207.596 77.328 207.905 77.68C208.215 78.0213 208.449 78.4267 208.609 78.896C208.78 79.3547 208.865 79.8507 208.865 80.384V80.8H203.265C203.361 81.3653 203.601 81.7973 203.985 82.096C204.38 82.3947 204.876 82.544 205.473 82.544C205.9 82.544 206.295 82.4693 206.657 82.32C207.031 82.16 207.34 81.9413 207.585 81.664L208.689 82.672C208.316 83.1413 207.836 83.4987 207.249 83.744C206.663 83.9893 206.017 84.112 205.313 84.112ZM205.137 78.16C204.668 78.16 204.273 78.288 203.953 78.544C203.644 78.7893 203.431 79.1413 203.313 79.6H206.961C206.897 79.1947 206.705 78.8533 206.385 78.576C206.065 78.2987 205.649 78.16 205.137 78.16ZM211.1 84.16C210.726 84.16 210.438 84.0533 210.236 83.84C210.044 83.616 209.948 83.3493 209.948 83.04C209.948 82.7093 210.044 82.432 210.236 82.208C210.428 81.984 210.716 81.872 211.1 81.872C211.484 81.872 211.777 81.984 211.98 82.208C212.182 82.432 212.284 82.7093 212.284 83.04C212.284 83.3493 212.177 83.616 211.964 83.84C211.761 84.0533 211.473 84.16 211.1 84.16ZM225.755 84.128C225.627 84.128 225.504 84.1227 225.387 84.112C225.28 84.1013 225.168 84.0853 225.051 84.064V82.144C225.136 82.1547 225.216 82.1653 225.291 82.176C225.365 82.1867 225.445 82.192 225.531 82.192C225.84 82.192 226.107 82.1173 226.331 81.968C226.555 81.808 226.752 81.52 226.923 81.104L222.795 73.12V72.8H225.003L227.947 78.656L230.379 72.8H232.363V73.12L228.555 82.032C228.373 82.4587 228.171 82.8107 227.947 83.088C227.733 83.3547 227.504 83.568 227.259 83.728C227.013 83.8773 226.763 83.9787 226.507 84.032C226.251 84.096 226 84.128 225.755 84.128ZM243.856 87.6L245.088 84.08L242.096 77.056V76.688H244.08L246.016 81.472L247.712 76.688H249.504L249.488 77.056L245.648 87.84H243.856V87.6ZM254.745 81.344C254.532 81.44 254.281 81.52 253.993 81.584C253.716 81.6373 253.401 81.664 253.049 81.664C252.601 81.664 252.196 81.6107 251.833 81.504C251.481 81.3973 251.177 81.2267 250.921 80.992C250.665 80.7573 250.468 80.4533 250.329 80.08C250.201 79.7067 250.137 79.2533 250.137 78.72V76.688H252.121V78.64C252.121 79.056 252.217 79.376 252.409 79.6C252.601 79.8133 252.985 79.92 253.561 79.92C253.999 79.92 254.393 79.8667 254.745 79.76V76.688H256.729V84H254.745V81.344ZM258.522 76.688H260.506V80.896L263.898 76.688H265.45V84H263.466V79.552L259.882 84H258.522V76.688ZM269.015 78.432H266.663V76.688H273.335V78.432H270.983V84H269.015V78.432ZM277.808 84.112C277.221 84.112 276.683 84.0213 276.192 83.84C275.712 83.6587 275.296 83.408 274.944 83.088C274.592 82.7573 274.32 82.368 274.128 81.92C273.936 81.4613 273.84 80.9547 273.84 80.4C273.84 79.8133 273.941 79.2853 274.144 78.816C274.347 78.336 274.624 77.9307 274.976 77.6C275.328 77.2693 275.739 77.0133 276.208 76.832C276.677 76.6507 277.179 76.56 277.712 76.56C278.288 76.56 278.8 76.6613 279.248 76.864C279.707 77.056 280.091 77.328 280.4 77.68C280.709 78.0213 280.944 78.4267 281.104 78.896C281.275 79.3547 281.36 79.8507 281.36 80.384V80.8H275.76C275.856 81.3653 276.096 81.7973 276.48 82.096C276.875 82.3947 277.371 82.544 277.968 82.544C278.395 82.544 278.789 82.4693 279.152 82.32C279.525 82.16 279.835 81.9413 280.08 81.664L281.184 82.672C280.811 83.1413 280.331 83.4987 279.744 83.744C279.157 83.9893 278.512 84.112 277.808 84.112ZM277.632 78.16C277.163 78.16 276.768 78.288 276.448 78.544C276.139 78.7893 275.925 79.1413 275.808 79.6H279.456C279.392 79.1947 279.2 78.8533 278.88 78.576C278.56 78.2987 278.144 78.16 277.632 78.16ZM282.501 84.16C282.384 84.16 282.277 84.1547 282.181 84.144C282.096 84.1333 282.021 84.1227 281.957 84.112V82.208C282.064 82.2293 282.149 82.24 282.213 82.24C282.394 82.24 282.549 82.176 282.677 82.048C282.805 81.9093 282.906 81.6907 282.981 81.392C283.066 81.0827 283.125 80.6827 283.157 80.192C283.2 79.7013 283.221 79.104 283.221 78.4V76.688H288.773V84H286.805V78.432H285.045V79.296C285.045 80.2133 284.986 80.9813 284.869 81.6C284.762 82.2187 284.597 82.72 284.373 83.104C284.16 83.4773 283.893 83.7493 283.573 83.92C283.264 84.08 282.906 84.16 282.501 84.16ZM290.23 83.728L291.782 81.408C290.929 81.0027 290.502 80.2827 290.502 79.248C290.502 78.4053 290.774 77.7707 291.318 77.344C291.873 76.9067 292.732 76.688 293.894 76.688H297.062V84H295.078V81.76H293.83L292.39 84H290.23V83.728ZM295.078 80.352V78.224H294.022C293.51 78.224 293.132 78.2987 292.886 78.448C292.641 78.5867 292.518 78.8587 292.518 79.264C292.518 79.6693 292.625 79.952 292.838 80.112C293.062 80.272 293.441 80.352 293.974 80.352H295.078ZM34.464 103.112C33.888 103.112 33.3547 103.021 32.864 102.84C32.384 102.659 31.968 102.403 31.616 102.072C31.2747 101.731 31.0027 101.331 30.8 100.872C30.608 100.413 30.512 99.9013 30.512 99.336C30.512 98.7707 30.608 98.2587 30.8 97.8C31.0027 97.3307 31.28 96.9307 31.632 96.6C31.984 96.2693 32.4 96.0133 32.88 95.832C33.3707 95.6507 33.8987 95.56 34.464 95.56C35.04 95.56 35.568 95.6507 36.048 95.832C36.5387 96.0133 36.96 96.2747 37.312 96.616C37.664 96.9467 37.936 97.3467 38.128 97.816C38.32 98.2747 38.416 98.7813 38.416 99.336C38.416 99.912 38.3147 100.435 38.112 100.904C37.9093 101.363 37.632 101.757 37.28 102.088C36.928 102.408 36.512 102.659 36.032 102.84C35.552 103.021 35.0293 103.112 34.464 103.112ZM34.464 101.432C35.0507 101.432 35.5093 101.235 35.84 100.84C36.1707 100.445 36.336 99.944 36.336 99.336C36.336 98.728 36.176 98.232 35.856 97.848C35.536 97.4533 35.072 97.256 34.464 97.256C33.8667 97.256 33.4027 97.4533 33.072 97.848C32.7413 98.2427 32.576 98.7387 32.576 99.336C32.576 99.624 32.6187 99.896 32.704 100.152C32.7893 100.408 32.912 100.632 33.072 100.824C33.232 101.016 33.4293 101.165 33.664 101.272C33.8987 101.379 34.1653 101.432 34.464 101.432ZM44.8743 100.12H41.8343V103H39.8503V95.688H41.8343V98.376H44.8743V95.688H46.8583V103H44.8743V100.12ZM57.6252 106.84V95.688H59.4972V96.664C59.7426 96.3547 60.0732 96.0933 60.4892 95.88C60.9159 95.6667 61.4013 95.56 61.9453 95.56C62.3932 95.56 62.8199 95.6507 63.2252 95.832C63.6412 96.0133 64.0039 96.2693 64.3133 96.6C64.6333 96.9307 64.8839 97.3307 65.0653 97.8C65.2573 98.2587 65.3533 98.7707 65.3533 99.336C65.3533 99.9013 65.2573 100.419 65.0653 100.888C64.8733 101.347 64.6173 101.741 64.2972 102.072C63.9879 102.403 63.6253 102.659 63.2092 102.84C62.8039 103.021 62.3826 103.112 61.9453 103.112C61.4652 103.112 61.0226 103.027 60.6172 102.856C60.2119 102.675 59.8759 102.435 59.6092 102.136V106.84H57.6252ZM61.4172 97.304C60.8732 97.304 60.4412 97.48 60.1212 97.832C59.8012 98.1733 59.6306 98.616 59.6092 99.16V99.368C59.6199 99.976 59.7852 100.472 60.1052 100.856C60.4359 101.229 60.8732 101.416 61.4172 101.416C61.9506 101.416 62.3879 101.229 62.7292 100.856C63.0812 100.483 63.2572 99.976 63.2572 99.336C63.2572 99.0053 63.2039 98.712 63.0972 98.456C63.0012 98.2 62.8679 97.9867 62.6972 97.816C62.5373 97.6453 62.3452 97.5173 62.1212 97.432C61.8972 97.3467 61.6626 97.304 61.4172 97.304ZM69.7888 103.112C69.3514 103.112 68.9248 103.021 68.5088 102.84C68.1034 102.659 67.7408 102.403 67.4208 102.072C67.1114 101.741 66.8608 101.347 66.6688 100.888C66.4768 100.419 66.3808 99.9013 66.3808 99.336C66.3808 98.7707 66.4714 98.2587 66.6528 97.8C66.8448 97.3307 67.0954 96.9307 67.4048 96.6C67.7248 96.2693 68.0874 96.0133 68.4928 95.832C68.9088 95.6507 69.3408 95.56 69.7888 95.56C70.3328 95.56 70.8128 95.6667 71.2288 95.88C71.6554 96.0933 71.9914 96.3547 72.2368 96.664V95.688H74.1088V103H72.2368V102.008C71.9701 102.339 71.6234 102.605 71.1968 102.808C70.7701 103.011 70.3008 103.112 69.7888 103.112ZM70.3168 101.416C70.8608 101.416 71.2928 101.229 71.6128 100.856C71.9434 100.472 72.1141 99.976 72.1248 99.368V99.24C72.1248 98.6747 71.9594 98.2107 71.6288 97.848C71.2981 97.4853 70.8608 97.304 70.3168 97.304C70.0714 97.304 69.8368 97.3467 69.6128 97.432C69.3888 97.5173 69.1914 97.6453 69.0208 97.816C68.8501 97.9867 68.7168 98.2 68.6208 98.456C68.5248 98.712 68.4768 99.0053 68.4768 99.336C68.4768 99.976 68.6474 100.483 68.9888 100.856C69.3408 101.229 69.7834 101.416 70.3168 101.416ZM79.6483 103.144C78.2296 103.144 77.1949 102.701 76.5443 101.816C75.8936 100.931 75.5683 99.6027 75.5683 97.832C75.5683 96.808 75.6749 95.9333 75.8883 95.208C76.1016 94.472 76.4056 93.8747 76.8003 93.416C77.2056 92.9467 77.6909 92.6053 78.2563 92.392C78.8323 92.168 79.4723 92.056 80.1763 92.056C80.5816 92.056 80.8909 92.0187 81.1043 91.944C81.3176 91.8587 81.4776 91.6987 81.5843 91.464L83.1523 91.928C83.0669 92.2373 82.9603 92.504 82.8323 92.728C82.7149 92.9413 82.5496 93.1227 82.3363 93.272C82.1229 93.4213 81.8509 93.5387 81.5203 93.624C81.1896 93.6987 80.7683 93.752 80.2563 93.784C79.7656 93.816 79.3389 93.88 78.9763 93.976C78.6243 94.072 78.3256 94.2427 78.0803 94.488C77.8456 94.7227 77.6589 95.0533 77.5203 95.48C77.3923 95.9067 77.3069 96.4613 77.2643 97.144C77.5736 96.568 77.9683 96.168 78.4483 95.944C78.9389 95.7093 79.4723 95.592 80.0483 95.592C80.5816 95.592 81.0616 95.6773 81.4883 95.848C81.9256 96.0187 82.2936 96.264 82.5923 96.584C82.8909 96.904 83.1203 97.288 83.2803 97.736C83.4403 98.1733 83.5203 98.664 83.5203 99.208C83.5203 99.8053 83.4243 100.349 83.2323 100.84C83.0403 101.32 82.7736 101.731 82.4323 102.072C82.0909 102.413 81.6803 102.68 81.2003 102.872C80.7309 103.053 80.2136 103.144 79.6483 103.144ZM79.6003 101.4C80.1443 101.4 80.5816 101.219 80.9123 100.856C81.2536 100.483 81.4243 99.9707 81.4243 99.32C81.4243 98.68 81.2643 98.1787 80.9443 97.816C80.6349 97.4427 80.1923 97.256 79.6163 97.256C79.0509 97.256 78.6029 97.4373 78.2723 97.8C77.9416 98.1627 77.7763 98.6693 77.7763 99.32C77.7763 99.96 77.9416 100.467 78.2723 100.84C78.6029 101.213 79.0456 101.4 79.6003 101.4ZM88.489 103.112C87.913 103.112 87.3797 103.021 86.889 102.84C86.409 102.659 85.993 102.403 85.641 102.072C85.2997 101.731 85.0277 101.331 84.825 100.872C84.633 100.413 84.537 99.9013 84.537 99.336C84.537 98.7707 84.633 98.2587 84.825 97.8C85.0277 97.3307 85.305 96.9307 85.657 96.6C86.009 96.2693 86.425 96.0133 86.905 95.832C87.3957 95.6507 87.9237 95.56 88.489 95.56C89.065 95.56 89.593 95.6507 90.073 95.832C90.5637 96.0133 90.985 96.2747 91.337 96.616C91.689 96.9467 91.961 97.3467 92.153 97.816C92.345 98.2747 92.441 98.7813 92.441 99.336C92.441 99.912 92.3397 100.435 92.137 100.904C91.9343 101.363 91.657 101.757 91.305 102.088C90.953 102.408 90.537 102.659 90.057 102.84C89.577 103.021 89.0543 103.112 88.489 103.112ZM88.489 101.432C89.0757 101.432 89.5343 101.235 89.865 100.84C90.1957 100.445 90.361 99.944 90.361 99.336C90.361 98.728 90.201 98.232 89.881 97.848C89.561 97.4533 89.097 97.256 88.489 97.256C87.8917 97.256 87.4277 97.4533 87.097 97.848C86.7663 98.2427 86.601 98.7387 86.601 99.336C86.601 99.624 86.6437 99.896 86.729 100.152C86.8143 100.408 86.937 100.632 87.097 100.824C87.257 101.016 87.4543 101.165 87.689 101.272C87.9237 101.379 88.1903 101.432 88.489 101.432ZM95.3209 97.432H92.9689V95.688H99.6409V97.432H97.2889V103H95.3209V97.432ZM102.085 106.6L103.317 103.08L100.325 96.056V95.688H102.309L104.245 100.472L105.941 95.688H107.733L107.717 96.056L103.877 106.84H102.085V106.6ZM122.69 100.12H119.65V103H117.666V95.688H119.65V98.376H122.69V95.688H124.674V103H122.69V100.12ZM130.093 103.112C129.506 103.112 128.967 103.021 128.477 102.84C127.997 102.659 127.581 102.408 127.229 102.088C126.877 101.757 126.605 101.368 126.413 100.92C126.221 100.461 126.125 99.9547 126.125 99.4C126.125 98.8133 126.226 98.2853 126.429 97.816C126.631 97.336 126.909 96.9307 127.261 96.6C127.613 96.2693 128.023 96.0133 128.493 95.832C128.962 95.6507 129.463 95.56 129.997 95.56C130.573 95.56 131.085 95.6613 131.533 95.864C131.991 96.056 132.375 96.328 132.685 96.68C132.994 97.0213 133.229 97.4267 133.389 97.896C133.559 98.3547 133.645 98.8507 133.645 99.384V99.8H128.045C128.141 100.365 128.381 100.797 128.765 101.096C129.159 101.395 129.655 101.544 130.253 101.544C130.679 101.544 131.074 101.469 131.437 101.32C131.81 101.16 132.119 100.941 132.365 100.664L133.469 101.672C133.095 102.141 132.615 102.499 132.029 102.744C131.442 102.989 130.797 103.112 130.093 103.112ZM129.917 97.16C129.447 97.16 129.053 97.288 128.733 97.544C128.423 97.7893 128.21 98.1413 128.093 98.6H131.741C131.677 98.1947 131.485 97.8533 131.165 97.576C130.845 97.2987 130.429 97.16 129.917 97.16ZM147.508 103.112C146.932 103.112 146.398 103.021 145.908 102.84C145.428 102.659 145.012 102.403 144.66 102.072C144.318 101.731 144.046 101.331 143.844 100.872C143.652 100.413 143.556 99.9013 143.556 99.336C143.556 98.7707 143.652 98.2587 143.844 97.8C144.046 97.3307 144.324 96.9307 144.676 96.6C145.028 96.2693 145.444 96.0133 145.924 95.832C146.414 95.6507 146.942 95.56 147.508 95.56C148.084 95.56 148.612 95.6507 149.092 95.832C149.582 96.0133 150.004 96.2747 150.356 96.616C150.708 96.9467 150.98 97.3467 151.172 97.816C151.364 98.2747 151.46 98.7813 151.46 99.336C151.46 99.912 151.358 100.435 151.156 100.904C150.953 101.363 150.676 101.757 150.324 102.088C149.972 102.408 149.556 102.659 149.076 102.84C148.596 103.021 148.073 103.112 147.508 103.112ZM147.508 101.432C148.094 101.432 148.553 101.235 148.884 100.84C149.214 100.445 149.38 99.944 149.38 99.336C149.38 98.728 149.22 98.232 148.9 97.848C148.58 97.4533 148.116 97.256 147.508 97.256C146.91 97.256 146.446 97.4533 146.116 97.848C145.785 98.2427 145.62 98.7387 145.62 99.336C145.62 99.624 145.662 99.896 145.748 100.152C145.833 100.408 145.956 100.632 146.116 100.824C146.276 101.016 146.473 101.165 146.708 101.272C146.942 101.379 147.209 101.432 147.508 101.432ZM154.34 97.432H151.988V95.688H158.66V97.432H156.308V103H154.34V97.432ZM164.902 100.12H161.862V103H159.878V95.688H161.862V98.376H164.902V95.688H166.886V103H164.902V100.12ZM168.769 95.688H170.753V99.896L174.145 95.688H175.697V103H173.713V98.552L170.129 103H168.769V95.688ZM178.301 95.688H179.997L181.933 99.928L183.757 95.688H185.501L186.717 103H184.861L184.157 98.728L182.269 103H181.421L179.517 98.808L178.829 103H177.069L178.301 95.688ZM191.508 103.112C190.921 103.112 190.383 103.021 189.892 102.84C189.412 102.659 188.996 102.408 188.644 102.088C188.292 101.757 188.02 101.368 187.828 100.92C187.636 100.461 187.54 99.9547 187.54 99.4C187.54 98.8133 187.641 98.2853 187.844 97.816C188.047 97.336 188.324 96.9307 188.676 96.6C189.028 96.2693 189.439 96.0133 189.908 95.832C190.377 95.6507 190.879 95.56 191.412 95.56C191.988 95.56 192.5 95.6613 192.948 95.864C193.407 96.056 193.791 96.328 194.1 96.68C194.409 97.0213 194.644 97.4267 194.804 97.896C194.975 98.3547 195.06 98.8507 195.06 99.384V99.8H189.46C189.556 100.365 189.796 100.797 190.18 101.096C190.575 101.395 191.071 101.544 191.668 101.544C192.095 101.544 192.489 101.469 192.852 101.32C193.225 101.16 193.535 100.941 193.78 100.664L194.884 101.672C194.511 102.141 194.031 102.499 193.444 102.744C192.857 102.989 192.212 103.112 191.508 103.112ZM191.332 97.16C190.863 97.16 190.468 97.288 190.148 97.544C189.839 97.7893 189.625 98.1413 189.508 98.6H193.156C193.092 98.1947 192.9 97.8533 192.58 97.576C192.26 97.2987 191.844 97.16 191.332 97.16ZM197.965 97.432H195.613V95.688H202.285V97.432H199.933V103H197.965V97.432ZM203.144 103.08C202.824 103.027 202.579 102.904 202.408 102.712C202.248 102.509 202.168 102.269 202.168 101.992C202.168 101.64 202.28 101.363 202.504 101.16C202.739 100.947 203.016 100.84 203.336 100.84C203.678 100.84 203.971 100.952 204.216 101.176C204.472 101.4 204.6 101.72 204.6 102.136C204.6 102.413 204.526 102.723 204.376 103.064C204.227 103.405 203.998 103.848 203.688 104.392L203.048 105.56H201.768L203.144 103.08ZM215.31 95.688H222.19V103H220.222V97.432H217.294V103H215.31V95.688ZM227.611 103.112C227.035 103.112 226.502 103.021 226.011 102.84C225.531 102.659 225.115 102.403 224.763 102.072C224.422 101.731 224.15 101.331 223.947 100.872C223.755 100.413 223.659 99.9013 223.659 99.336C223.659 98.7707 223.755 98.2587 223.947 97.8C224.15 97.3307 224.427 96.9307 224.779 96.6C225.131 96.2693 225.547 96.0133 226.027 95.832C226.518 95.6507 227.046 95.56 227.611 95.56C228.187 95.56 228.715 95.6507 229.195 95.832C229.686 96.0133 230.107 96.2747 230.459 96.616C230.811 96.9467 231.083 97.3467 231.275 97.816C231.467 98.2747 231.563 98.7813 231.563 99.336C231.563 99.912 231.462 100.435 231.259 100.904C231.056 101.363 230.779 101.757 230.427 102.088C230.075 102.408 229.659 102.659 229.179 102.84C228.699 103.021 228.176 103.112 227.611 103.112ZM227.611 101.432C228.198 101.432 228.656 101.235 228.987 100.84C229.318 100.445 229.483 99.944 229.483 99.336C229.483 98.728 229.323 98.232 229.003 97.848C228.683 97.4533 228.219 97.256 227.611 97.256C227.014 97.256 226.55 97.4533 226.219 97.848C225.888 98.2427 225.723 98.7387 225.723 99.336C225.723 99.624 225.766 99.896 225.851 100.152C225.936 100.408 226.059 100.632 226.219 100.824C226.379 101.016 226.576 101.165 226.811 101.272C227.046 101.379 227.312 101.432 227.611 101.432ZM234.443 97.432H232.091V95.688H238.763V97.432H236.411V103H234.443V97.432ZM243.22 103.112C242.644 103.112 242.111 103.021 241.62 102.84C241.14 102.659 240.724 102.403 240.372 102.072C240.031 101.731 239.759 101.331 239.556 100.872C239.364 100.413 239.268 99.9013 239.268 99.336C239.268 98.7707 239.364 98.2587 239.556 97.8C239.759 97.3307 240.036 96.9307 240.388 96.6C240.74 96.2693 241.156 96.0133 241.636 95.832C242.127 95.6507 242.655 95.56 243.22 95.56C243.796 95.56 244.324 95.6507 244.804 95.832C245.295 96.0133 245.716 96.2747 246.068 96.616C246.42 96.9467 246.692 97.3467 246.884 97.816C247.076 98.2747 247.172 98.7813 247.172 99.336C247.172 99.912 247.071 100.435 246.868 100.904C246.666 101.363 246.388 101.757 246.036 102.088C245.684 102.408 245.268 102.659 244.788 102.84C244.308 103.021 243.786 103.112 243.22 103.112ZM243.22 101.432C243.807 101.432 244.266 101.235 244.596 100.84C244.927 100.445 245.092 99.944 245.092 99.336C245.092 98.728 244.932 98.232 244.612 97.848C244.292 97.4533 243.828 97.256 243.22 97.256C242.623 97.256 242.159 97.4533 241.828 97.848C241.498 98.2427 241.332 98.7387 241.332 99.336C241.332 99.624 241.375 99.896 241.46 100.152C241.546 100.408 241.668 100.632 241.828 100.824C241.988 101.016 242.186 101.165 242.42 101.272C242.655 101.379 242.922 101.432 243.22 101.432ZM249.248 95.688H250.944L252.88 99.928L254.704 95.688H256.448L257.664 103H255.808L255.104 98.728L253.216 103H252.368L250.464 98.808L249.776 103H248.016L249.248 95.688ZM259.55 106.6L260.782 103.08L257.79 96.056V95.688H259.774L261.71 100.472L263.406 95.688H265.198L265.182 96.056L261.342 106.84H259.55V106.6ZM279.324 100.344C279.11 100.44 278.86 100.52 278.572 100.584C278.294 100.637 277.98 100.664 277.628 100.664C277.18 100.664 276.774 100.611 276.412 100.504C276.06 100.397 275.756 100.227 275.5 99.992C275.244 99.7573 275.046 99.4533 274.908 99.08C274.78 98.7067 274.715 98.2533 274.715 97.72V95.688H276.7V97.64C276.7 98.056 276.796 98.376 276.988 98.6C277.18 98.8133 277.564 98.92 278.14 98.92C278.577 98.92 278.972 98.8667 279.324 98.76V95.688H281.308V103H279.324V100.344ZM284.78 97.432H282.428V95.688H289.1V97.432H286.748V103H284.78V97.432ZM293.558 103.112C292.982 103.112 292.448 103.021 291.958 102.84C291.478 102.659 291.062 102.403 290.71 102.072C290.368 101.731 290.096 101.331 289.894 100.872C289.702 100.413 289.606 99.9013 289.606 99.336C289.606 98.7707 289.702 98.2587 289.894 97.8C290.096 97.3307 290.374 96.9307 290.726 96.6C291.078 96.2693 291.494 96.0133 291.974 95.832C292.464 95.6507 292.992 95.56 293.558 95.56C294.134 95.56 294.662 95.6507 295.142 95.832C295.632 96.0133 296.054 96.2747 296.406 96.616C296.758 96.9467 297.03 97.3467 297.222 97.816C297.414 98.2747 297.51 98.7813 297.51 99.336C297.51 99.912 297.408 100.435 297.206 100.904C297.003 101.363 296.726 101.757 296.374 102.088C296.022 102.408 295.606 102.659 295.126 102.84C294.646 103.021 294.123 103.112 293.558 103.112ZM293.558 101.432C294.144 101.432 294.603 101.235 294.934 100.84C295.264 100.445 295.43 99.944 295.43 99.336C295.43 98.728 295.27 98.232 294.95 97.848C294.63 97.4533 294.166 97.256 293.558 97.256C292.96 97.256 292.496 97.4533 292.166 97.848C291.835 98.2427 291.67 98.7387 291.67 99.336C291.67 99.624 291.712 99.896 291.798 100.152C291.883 100.408 292.006 100.632 292.166 100.824C292.326 101.016 292.523 101.165 292.758 101.272C292.992 101.379 293.259 101.432 293.558 101.432ZM30.096 120.256H30.976C31.2533 119.68 31.4613 119.04 31.6 118.336C31.7387 117.621 31.808 116.779 31.808 115.808V114.688H37.504V120.256H38.624V123.632H37.008V122H31.728V123.632H30.096V120.256ZM33.584 116.48C33.584 117.963 33.3653 119.221 32.928 120.256H35.52V116.432H33.584V116.48ZM43.1363 122.112C42.5496 122.112 42.0109 122.021 41.5203 121.84C41.0403 121.659 40.6243 121.408 40.2723 121.088C39.9203 120.757 39.6483 120.368 39.4563 119.92C39.2643 119.461 39.1683 118.955 39.1683 118.4C39.1683 117.813 39.2696 117.285 39.4723 116.816C39.6749 116.336 39.9523 115.931 40.3043 115.6C40.6563 115.269 41.0669 115.013 41.5363 114.832C42.0056 114.651 42.5069 114.56 43.0403 114.56C43.6163 114.56 44.1283 114.661 44.5763 114.864C45.0349 115.056 45.4189 115.328 45.7283 115.68C46.0376 116.021 46.2723 116.427 46.4323 116.896C46.6029 117.355 46.6883 117.851 46.6883 118.384V118.8H41.0883C41.1843 119.365 41.4243 119.797 41.8083 120.096C42.2029 120.395 42.6989 120.544 43.2963 120.544C43.7229 120.544 44.1176 120.469 44.4803 120.32C44.8536 120.16 45.1629 119.941 45.4083 119.664L46.5123 120.672C46.1389 121.141 45.6589 121.499 45.0723 121.744C44.4856 121.989 43.8403 122.112 43.1363 122.112ZM42.9603 116.16C42.4909 116.16 42.0963 116.288 41.7763 116.544C41.4669 116.789 41.2536 117.141 41.1363 117.6H44.7843C44.7203 117.195 44.5283 116.853 44.2083 116.576C43.8883 116.299 43.4723 116.16 42.9603 116.16ZM49.5928 116.432H47.2408V114.688H53.9128V116.432H51.5608V122H49.5928V116.432ZM58.3863 122.112C57.7996 122.112 57.2609 122.021 56.7703 121.84C56.2903 121.659 55.8743 121.408 55.5223 121.088C55.1703 120.757 54.8983 120.368 54.7063 119.92C54.5143 119.461 54.4183 118.955 54.4183 118.4C54.4183 117.813 54.5196 117.285 54.7223 116.816C54.9249 116.336 55.2023 115.931 55.5543 115.6C55.9063 115.269 56.3169 115.013 56.7863 114.832C57.2556 114.651 57.7569 114.56 58.2903 114.56C58.8663 114.56 59.3783 114.661 59.8263 114.864C60.2849 115.056 60.6689 115.328 60.9783 115.68C61.2876 116.021 61.5223 116.427 61.6823 116.896C61.8529 117.355 61.9383 117.851 61.9383 118.384V118.8H56.3383C56.4343 119.365 56.6743 119.797 57.0583 120.096C57.4529 120.395 57.9489 120.544 58.5463 120.544C58.9729 120.544 59.3676 120.469 59.7303 120.32C60.1036 120.16 60.4129 119.941 60.6583 119.664L61.7623 120.672C61.3889 121.141 60.9089 121.499 60.3223 121.744C59.7356 121.989 59.0903 122.112 58.3863 122.112ZM58.2103 116.16C57.7409 116.16 57.3463 116.288 57.0263 116.544C56.7169 116.789 56.5036 117.141 56.3863 117.6H60.0343C59.9703 117.195 59.7783 116.853 59.4583 116.576C59.1383 116.299 58.7223 116.16 58.2103 116.16ZM63.3971 114.688H65.3811V118.896L68.7731 114.688H70.3251V122H68.3411V117.552L64.7571 122H63.3971V114.688ZM66.8531 113.744C66.5225 113.744 66.2078 113.701 65.9091 113.616C65.6211 113.52 65.3651 113.381 65.1411 113.2C64.9278 113.019 64.7571 112.789 64.6291 112.512C64.5011 112.224 64.4318 111.893 64.4211 111.52H65.8451C65.8665 111.808 65.9571 112.043 66.1171 112.224C66.2771 112.405 66.5331 112.496 66.8851 112.496C67.2265 112.496 67.4771 112.411 67.6371 112.24C67.8078 112.059 67.9038 111.819 67.9251 111.52H69.3331C69.3225 111.893 69.2478 112.224 69.1091 112.512C68.9705 112.789 68.7891 113.019 68.5651 113.2C68.3411 113.381 68.0798 113.52 67.7811 113.616C67.4825 113.701 67.1731 113.744 66.8531 113.744ZM75.5179 120.256H76.3979C76.6752 119.68 76.8832 119.04 77.0219 118.336C77.1605 117.621 77.2299 116.779 77.2299 115.808V114.688H82.9259V120.256H84.0459V123.632H82.4299V122H77.1499V123.632H75.5179V120.256ZM79.0059 116.48C79.0059 117.963 78.7872 119.221 78.3499 120.256H80.9419V116.432H79.0059V116.48ZM88.5421 122.112C87.9661 122.112 87.4328 122.021 86.9421 121.84C86.4621 121.659 86.0461 121.403 85.6941 121.072C85.3528 120.731 85.0808 120.331 84.8781 119.872C84.6861 119.413 84.5901 118.901 84.5901 118.336C84.5901 117.771 84.6861 117.259 84.8781 116.8C85.0808 116.331 85.3581 115.931 85.7101 115.6C86.0621 115.269 86.4781 115.013 86.9581 114.832C87.4488 114.651 87.9768 114.56 88.5421 114.56C89.1181 114.56 89.6461 114.651 90.1261 114.832C90.6168 115.013 91.0381 115.275 91.3901 115.616C91.7421 115.947 92.0141 116.347 92.2061 116.816C92.3981 117.275 92.4941 117.781 92.4941 118.336C92.4941 118.912 92.3928 119.435 92.1901 119.904C91.9875 120.363 91.7101 120.757 91.3581 121.088C91.0061 121.408 90.5901 121.659 90.1101 121.84C89.6301 122.021 89.1075 122.112 88.5421 122.112ZM88.5421 120.432C89.1288 120.432 89.5875 120.235 89.9181 119.84C90.2488 119.445 90.4141 118.944 90.4141 118.336C90.4141 117.728 90.2541 117.232 89.9341 116.848C89.6141 116.453 89.1501 116.256 88.5421 116.256C87.9448 116.256 87.4808 116.453 87.1501 116.848C86.8195 117.243 86.6541 117.739 86.6541 118.336C86.6541 118.624 86.6968 118.896 86.7821 119.152C86.8675 119.408 86.9901 119.632 87.1501 119.824C87.3101 120.016 87.5075 120.165 87.7421 120.272C87.9768 120.379 88.2435 120.432 88.5421 120.432ZM93.6103 122.16C93.4929 122.16 93.3862 122.155 93.2903 122.144C93.2049 122.133 93.1303 122.123 93.0663 122.112V120.208C93.1729 120.229 93.2583 120.24 93.3223 120.24C93.5036 120.24 93.6583 120.176 93.7863 120.048C93.9143 119.909 94.0156 119.691 94.0903 119.392C94.1756 119.083 94.2343 118.683 94.2663 118.192C94.3089 117.701 94.3303 117.104 94.3303 116.4V114.688H99.8823V122H97.9143V116.432H96.1543V117.296C96.1543 118.213 96.0956 118.981 95.9783 119.6C95.8716 120.219 95.7063 120.72 95.4823 121.104C95.2689 121.477 95.0023 121.749 94.6823 121.92C94.3729 122.08 94.0156 122.16 93.6103 122.16ZM100.828 121.728L102.94 118.096L101.244 114.96V114.688H103.228L104.62 117.408H105.42V114.688H107.388V117.408H108.172L109.58 114.688H111.5V114.96L109.836 118.064L111.996 121.728V122H109.884L108.14 118.912H107.388V122H105.42V118.912H104.652L102.924 122H100.828V121.728ZM117.952 119.12H114.912V122H112.928V114.688H114.912V117.376H117.952V114.688H119.936V122H117.952V119.12ZM124.907 116.8C125.942 116.8 126.726 117.013 127.259 117.44C127.803 117.867 128.075 118.512 128.075 119.376C128.075 120.24 127.792 120.896 127.227 121.344C126.672 121.781 125.846 122 124.747 122H121.819V114.688H123.803V116.8H124.907ZM128.779 114.688H130.763V122H128.779V114.688ZM124.539 120.448C125.019 120.448 125.387 120.379 125.643 120.24C125.91 120.091 126.043 119.803 126.043 119.376C126.043 118.981 125.92 118.709 125.675 118.56C125.44 118.411 125.083 118.336 124.603 118.336H123.803V120.448H124.539ZM137.731 125.6L138.963 122.08L135.971 115.056V114.688H137.955L139.891 119.472L141.587 114.688H143.379L143.363 115.056L139.523 125.84H137.731V125.6ZM148.62 119.344C148.407 119.44 148.156 119.52 147.868 119.584C147.591 119.637 147.276 119.664 146.924 119.664C146.476 119.664 146.071 119.611 145.708 119.504C145.356 119.397 145.052 119.227 144.796 118.992C144.54 118.757 144.343 118.453 144.204 118.08C144.076 117.707 144.012 117.253 144.012 116.72V114.688H145.996V116.64C145.996 117.056 146.092 117.376 146.284 117.6C146.476 117.813 146.86 117.92 147.436 117.92C147.874 117.92 148.268 117.867 148.62 117.76V114.688H150.604V122H148.62V119.344ZM152.397 114.688H154.381V118.896L157.773 114.688H159.325V122H157.341V117.552L153.757 122H152.397V114.688ZM162.89 116.432H160.538V114.688H167.21V116.432H164.858V122H162.89V116.432ZM168.428 114.688H170.412V116.8H171.708C172.743 116.8 173.527 117.013 174.06 117.44C174.604 117.867 174.876 118.512 174.876 119.376C174.876 120.24 174.594 120.896 174.028 121.344C173.474 121.781 172.647 122 171.548 122H168.428V114.688ZM171.356 120.448C171.836 120.448 172.204 120.379 172.46 120.24C172.716 120.091 172.844 119.803 172.844 119.376C172.844 118.981 172.727 118.709 172.492 118.56C172.258 118.411 171.9 118.336 171.42 118.336H170.412V120.448H171.356ZM180.303 114.688H187.183V122H185.215V116.432H182.287V122H180.303V114.688ZM189.085 125.84V114.688H190.957V115.664C191.202 115.355 191.533 115.093 191.949 114.88C192.375 114.667 192.861 114.56 193.405 114.56C193.853 114.56 194.279 114.651 194.685 114.832C195.101 115.013 195.463 115.269 195.773 115.6C196.093 115.931 196.343 116.331 196.525 116.8C196.717 117.259 196.813 117.771 196.813 118.336C196.813 118.901 196.717 119.419 196.525 119.888C196.333 120.347 196.077 120.741 195.757 121.072C195.447 121.403 195.085 121.659 194.669 121.84C194.263 122.021 193.842 122.112 193.405 122.112C192.925 122.112 192.482 122.027 192.077 121.856C191.671 121.675 191.335 121.435 191.069 121.136V125.84H189.085ZM192.877 116.304C192.333 116.304 191.901 116.48 191.581 116.832C191.261 117.173 191.09 117.616 191.069 118.16V118.368C191.079 118.976 191.245 119.472 191.565 119.856C191.895 120.229 192.333 120.416 192.877 120.416C193.41 120.416 193.847 120.229 194.189 119.856C194.541 119.483 194.717 118.976 194.717 118.336C194.717 118.005 194.663 117.712 194.557 117.456C194.461 117.2 194.327 116.987 194.157 116.816C193.997 116.645 193.805 116.517 193.581 116.432C193.357 116.347 193.122 116.304 192.877 116.304ZM201.808 122.112C201.221 122.112 200.683 122.021 200.192 121.84C199.712 121.659 199.296 121.408 198.944 121.088C198.592 120.757 198.32 120.368 198.128 119.92C197.936 119.461 197.84 118.955 197.84 118.4C197.84 117.813 197.941 117.285 198.144 116.816C198.347 116.336 198.624 115.931 198.976 115.6C199.328 115.269 199.739 115.013 200.208 114.832C200.677 114.651 201.179 114.56 201.712 114.56C202.288 114.56 202.8 114.661 203.248 114.864C203.707 115.056 204.091 115.328 204.4 115.68C204.709 116.021 204.944 116.427 205.104 116.896C205.275 117.355 205.36 117.851 205.36 118.384V118.8H199.76C199.856 119.365 200.096 119.797 200.48 120.096C200.875 120.395 201.371 120.544 201.968 120.544C202.395 120.544 202.789 120.469 203.152 120.32C203.525 120.16 203.835 119.941 204.08 119.664L205.184 120.672C204.811 121.141 204.331 121.499 203.744 121.744C203.157 121.989 202.512 122.112 201.808 122.112ZM201.632 116.16C201.163 116.16 200.768 116.288 200.448 116.544C200.139 116.789 199.925 117.141 199.808 117.6H203.456C203.392 117.195 203.2 116.853 202.88 116.576C202.56 116.299 202.144 116.16 201.632 116.16ZM206.819 114.688H213.699V122H211.731V116.432H208.803V122H206.819V114.688ZM219.12 122.112C218.544 122.112 218.011 122.021 217.52 121.84C217.04 121.659 216.624 121.403 216.272 121.072C215.931 120.731 215.659 120.331 215.456 119.872C215.264 119.413 215.168 118.901 215.168 118.336C215.168 117.771 215.264 117.259 215.456 116.8C215.659 116.331 215.936 115.931 216.288 115.6C216.64 115.269 217.056 115.013 217.536 114.832C218.027 114.651 218.555 114.56 219.12 114.56C219.696 114.56 220.224 114.651 220.704 114.832C221.195 115.013 221.616 115.275 221.968 115.616C222.32 115.947 222.592 116.347 222.784 116.816C222.976 117.275 223.072 117.781 223.072 118.336C223.072 118.912 222.971 119.435 222.768 119.904C222.566 120.363 222.288 120.757 221.936 121.088C221.584 121.408 221.168 121.659 220.688 121.84C220.208 122.021 219.686 122.112 219.12 122.112ZM219.12 120.432C219.707 120.432 220.166 120.235 220.496 119.84C220.827 119.445 220.992 118.944 220.992 118.336C220.992 117.728 220.832 117.232 220.512 116.848C220.192 116.453 219.728 116.256 219.12 116.256C218.523 116.256 218.059 116.453 217.728 116.848C217.398 117.243 217.232 117.739 217.232 118.336C217.232 118.624 217.275 118.896 217.36 119.152C217.446 119.408 217.568 119.632 217.728 119.824C217.888 120.016 218.086 120.165 218.32 120.272C218.555 120.379 218.822 120.432 219.12 120.432ZM223.502 120.256H224.382C224.66 119.68 224.868 119.04 225.006 118.336C225.145 117.621 225.214 116.779 225.214 115.808V114.688H230.91V120.256H232.03V123.632H230.414V122H225.134V123.632H223.502V120.256ZM226.99 116.48C226.99 117.963 226.772 119.221 226.334 120.256H228.926V116.432H226.99V116.48ZM235.983 122.112C235.545 122.112 235.119 122.021 234.703 121.84C234.297 121.659 233.935 121.403 233.615 121.072C233.305 120.741 233.055 120.347 232.863 119.888C232.671 119.419 232.575 118.901 232.575 118.336C232.575 117.771 232.665 117.259 232.847 116.8C233.039 116.331 233.289 115.931 233.599 115.6C233.919 115.269 234.281 115.013 234.687 114.832C235.103 114.651 235.535 114.56 235.983 114.56C236.527 114.56 237.007 114.667 237.423 114.88C237.849 115.093 238.185 115.355 238.431 115.664V114.688H240.303V122H238.431V121.008C238.164 121.339 237.817 121.605 237.391 121.808C236.964 122.011 236.495 122.112 235.983 122.112ZM236.511 120.416C237.055 120.416 237.487 120.229 237.807 119.856C238.137 119.472 238.308 118.976 238.319 118.368V118.24C238.319 117.675 238.153 117.211 237.823 116.848C237.492 116.485 237.055 116.304 236.511 116.304C236.265 116.304 236.031 116.347 235.807 116.432C235.583 116.517 235.385 116.645 235.215 116.816C235.044 116.987 234.911 117.2 234.815 117.456C234.719 117.712 234.671 118.005 234.671 118.336C234.671 118.976 234.841 119.483 235.183 119.856C235.535 120.229 235.977 120.416 236.511 120.416ZM242.194 114.688H246.146C246.903 114.688 247.474 114.853 247.858 115.184C248.242 115.504 248.434 115.925 248.434 116.448C248.434 116.843 248.338 117.168 248.146 117.424C247.954 117.68 247.703 117.861 247.394 117.968C247.917 118.043 248.343 118.224 248.674 118.512C249.005 118.8 249.17 119.232 249.17 119.808C249.17 120.512 248.909 121.056 248.386 121.44C247.874 121.813 247.122 122 246.13 122H242.194V114.688ZM244.178 118.704V120.544H245.698C246.199 120.544 246.557 120.469 246.77 120.32C246.983 120.16 247.09 119.925 247.09 119.616C247.09 119.296 246.978 119.067 246.754 118.928C246.53 118.779 246.194 118.704 245.746 118.704H244.178ZM244.178 116.144V117.552H245.554C246.237 117.552 246.578 117.312 246.578 116.832C246.578 116.373 246.231 116.144 245.538 116.144H244.178ZM253.389 122.112C252.951 122.112 252.525 122.021 252.109 121.84C251.703 121.659 251.341 121.403 251.021 121.072C250.711 120.741 250.461 120.347 250.269 119.888C250.077 119.419 249.981 118.901 249.981 118.336C249.981 117.771 250.071 117.259 250.253 116.8C250.445 116.331 250.695 115.931 251.005 115.6C251.325 115.269 251.687 115.013 252.093 114.832C252.509 114.651 252.941 114.56 253.389 114.56C253.933 114.56 254.413 114.667 254.829 114.88C255.255 115.093 255.591 115.355 255.837 115.664V114.688H257.709V122H255.837V121.008C255.57 121.339 255.223 121.605 254.797 121.808C254.37 122.011 253.901 122.112 253.389 122.112ZM253.917 120.416C254.461 120.416 254.893 120.229 255.213 119.856C255.543 119.472 255.714 118.976 255.725 118.368V118.24C255.725 117.675 255.559 117.211 255.229 116.848C254.898 116.485 254.461 116.304 253.917 116.304C253.671 116.304 253.437 116.347 253.213 116.432C252.989 116.517 252.791 116.645 252.621 116.816C252.45 116.987 252.317 117.2 252.221 117.456C252.125 117.712 252.077 118.005 252.077 118.336C252.077 118.976 252.247 119.483 252.589 119.856C252.941 120.229 253.383 120.416 253.917 120.416ZM261.28 116.432H258.928V114.688H265.6V116.432H263.248V122H261.28V116.432ZM270.074 122.112C269.487 122.112 268.948 122.021 268.458 121.84C267.978 121.659 267.562 121.408 267.21 121.088C266.858 120.757 266.586 120.368 266.394 119.92C266.202 119.461 266.106 118.955 266.106 118.4C266.106 117.813 266.207 117.285 266.41 116.816C266.612 116.336 266.89 115.931 267.242 115.6C267.594 115.269 268.004 115.013 268.474 114.832C268.943 114.651 269.444 114.56 269.978 114.56C270.554 114.56 271.066 114.661 271.514 114.864C271.972 115.056 272.356 115.328 272.666 115.68C272.975 116.021 273.21 116.427 273.37 116.896C273.54 117.355 273.626 117.851 273.626 118.384V118.8H268.026C268.122 119.365 268.362 119.797 268.746 120.096C269.14 120.395 269.636 120.544 270.234 120.544C270.66 120.544 271.055 120.469 271.418 120.32C271.791 120.16 272.1 119.941 272.346 119.664L273.45 120.672C273.076 121.141 272.596 121.499 272.01 121.744C271.423 121.989 270.778 122.112 270.074 122.112ZM269.898 116.16C269.428 116.16 269.034 116.288 268.714 116.544C268.404 116.789 268.191 117.141 268.074 117.6H271.722C271.658 117.195 271.466 116.853 271.146 116.576C270.826 116.299 270.41 116.16 269.898 116.16ZM274.767 122.16C274.649 122.16 274.542 122.155 274.447 122.144C274.361 122.133 274.287 122.123 274.223 122.112V120.208C274.329 120.229 274.415 120.24 274.479 120.24C274.66 120.24 274.815 120.176 274.943 120.048C275.071 119.909 275.172 119.691 275.247 119.392C275.332 119.083 275.391 118.683 275.423 118.192C275.465 117.701 275.487 117.104 275.487 116.4V114.688H281.039V122H279.071V116.432H277.311V117.296C277.311 118.213 277.252 118.981 277.135 119.6C277.028 120.219 276.863 120.72 276.639 121.104C276.425 121.477 276.159 121.749 275.839 121.92C275.529 122.08 275.172 122.16 274.767 122.16ZM282.944 114.688H284.928V118.896L288.32 114.688H289.872V122H287.888V117.552L284.304 122H282.944V114.688Z" fill="black"/>
<defs>
<linearGradient id="paint0_linear_106_18" x1="371.611" y1="99.7575" x2="-58.9877" y2="99.7575" gradientUnits="userSpaceOnUse">
<stop stop-color="white" stop-opacity="0.64"/>
<stop offset="0.325" stop-color="#2736C1" stop-opacity="0.72"/>
<stop offset="1" stop-color="#091FEA"/>
</linearGradient>
</defs>
</svg>
