<svg width="1227" height="180" viewBox="0 0 1227 180" fill="none" xmlns="http://www.w3.org/2000/svg">
<path d="M149.798 102.397C156.415 105.84 160.566 112.68 160.566 120.139V160C160.566 171.046 169.52 180 180.566 180H1207C1218.05 180 1227 171.046 1227 160V108V20C1227 8.95432 1218.05 0 1207 0L34.7683 0.00012207C13.8381 0.00012207 6.96955 28.0813 25.5368 37.7422L149.798 102.397Z" fill="url(#paint0_linear_91_5)" fill-opacity="0.76"/>
<path d="M195.39 51.27C193.67 51.27 192.11 51.01 190.71 50.49C189.33 49.95 188.15 49.21 187.17 48.27C186.21 47.33 185.46 46.2 184.92 44.88C184.4 43.56 184.14 42.12 184.14 40.56C184.14 39 184.41 37.56 184.95 36.24C185.49 34.9 186.25 33.75 187.23 32.79C188.21 31.83 189.39 31.08 190.77 30.54C192.15 29.98 193.68 29.7 195.36 29.7C196.8 29.7 198.07 29.89 199.17 30.27C200.29 30.65 201.3 31.16 202.2 31.8L200.58 34.74C199.88 34.24 199.11 33.87 198.27 33.63C197.43 33.37 196.58 33.24 195.72 33.24C194.66 33.24 193.68 33.42 192.78 33.78C191.88 34.12 191.1 34.61 190.44 35.25C189.78 35.87 189.26 36.63 188.88 37.53C188.52 38.41 188.34 39.38 188.34 40.44C188.34 41.54 188.52 42.54 188.88 43.44C189.26 44.32 189.78 45.08 190.44 45.72C191.12 46.34 191.92 46.82 192.84 47.16C193.78 47.5 194.82 47.67 195.96 47.67C196.76 47.67 197.61 47.56 198.51 47.34C199.41 47.1 200.23 46.65 200.97 45.99L202.68 48.87C201.94 49.53 200.95 50.1 199.71 50.58C198.49 51.04 197.05 51.27 195.39 51.27ZM208.223 40.56H203.813V37.29H216.323V40.56H211.913V51H208.223V40.56ZM220.905 57.75L223.215 51.15L217.605 37.98V37.29H221.325L224.955 46.26L228.135 37.29H231.495L231.465 37.98L224.265 58.2H220.905V57.75ZM231.285 47.73H232.935C233.455 46.65 233.845 45.45 234.105 44.13C234.365 42.79 234.495 41.21 234.495 39.39V37.29H245.175V47.73H247.275V54.06H244.245V51H234.345V54.06H231.285V47.73ZM237.825 40.65C237.825 43.43 237.415 45.79 236.595 47.73H241.455V40.56H237.825V40.65ZM255.736 51.21C254.636 51.21 253.626 51.04 252.706 50.7C251.806 50.36 251.026 49.89 250.366 49.29C249.706 48.67 249.196 47.94 248.836 47.1C248.476 46.24 248.296 45.29 248.296 44.25C248.296 43.15 248.486 42.16 248.866 41.28C249.246 40.38 249.766 39.62 250.426 39C251.086 38.38 251.856 37.9 252.736 37.56C253.616 37.22 254.556 37.05 255.556 37.05C256.636 37.05 257.596 37.24 258.436 37.62C259.296 37.98 260.016 38.49 260.596 39.15C261.176 39.79 261.616 40.55 261.916 41.43C262.236 42.29 262.396 43.22 262.396 44.22V45H251.896C252.076 46.06 252.526 46.87 253.246 47.43C253.986 47.99 254.916 48.27 256.036 48.27C256.836 48.27 257.576 48.13 258.256 47.85C258.956 47.55 259.536 47.14 259.996 46.62L262.066 48.51C261.366 49.39 260.466 50.06 259.366 50.52C258.266 50.98 257.056 51.21 255.736 51.21ZM255.406 40.05C254.526 40.05 253.786 40.29 253.186 40.77C252.606 41.23 252.206 41.89 251.986 42.75H258.826C258.706 41.99 258.346 41.35 257.746 40.83C257.146 40.31 256.366 40.05 255.406 40.05ZM274.551 45.6H268.851V51H265.131V37.29H268.851V42.33H274.551V37.29H278.271V51H274.551V45.6ZM284.951 40.56H280.541V37.29H293.051V40.56H288.641V51H284.951V40.56ZM300.389 51.21C299.569 51.21 298.769 51.04 297.989 50.7C297.229 50.36 296.549 49.88 295.949 49.26C295.369 48.64 294.899 47.9 294.539 47.04C294.179 46.16 293.999 45.19 293.999 44.13C293.999 43.07 294.169 42.11 294.509 41.25C294.869 40.37 295.339 39.62 295.919 39C296.519 38.38 297.199 37.9 297.959 37.56C298.739 37.22 299.549 37.05 300.389 37.05C301.409 37.05 302.309 37.25 303.089 37.65C303.889 38.05 304.519 38.54 304.979 39.12V37.29H308.489V51H304.979V49.14C304.479 49.76 303.829 50.26 303.029 50.64C302.229 51.02 301.349 51.21 300.389 51.21ZM301.379 48.03C302.399 48.03 303.209 47.68 303.809 46.98C304.429 46.26 304.749 45.33 304.769 44.19V43.95C304.769 42.89 304.459 42.02 303.839 41.34C303.219 40.66 302.399 40.32 301.379 40.32C300.919 40.32 300.479 40.4 300.059 40.56C299.639 40.72 299.269 40.96 298.949 41.28C298.629 41.6 298.379 42 298.199 42.48C298.019 42.96 297.929 43.51 297.929 44.13C297.929 45.33 298.249 46.28 298.889 46.98C299.549 47.68 300.379 48.03 301.379 48.03ZM338.258 37.29H341.978V42.33H343.418L346.718 37.29H350.588V37.8L346.508 43.53L351.608 50.49V51H347.468L343.328 45.15H341.978V51H338.258V37.29ZM358.398 51.21C357.578 51.21 356.778 51.04 355.998 50.7C355.238 50.36 354.558 49.88 353.958 49.26C353.378 48.64 352.908 47.9 352.548 47.04C352.188 46.16 352.008 45.19 352.008 44.13C352.008 43.07 352.178 42.11 352.518 41.25C352.878 40.37 353.348 39.62 353.928 39C354.528 38.38 355.208 37.9 355.968 37.56C356.748 37.22 357.558 37.05 358.398 37.05C359.418 37.05 360.318 37.25 361.098 37.65C361.898 38.05 362.528 38.54 362.988 39.12V37.29H366.498V51H362.988V49.14C362.488 49.76 361.838 50.26 361.038 50.64C360.238 51.02 359.358 51.21 358.398 51.21ZM359.388 48.03C360.408 48.03 361.218 47.68 361.818 46.98C362.438 46.26 362.758 45.33 362.778 44.19V43.95C362.778 42.89 362.468 42.02 361.848 41.34C361.228 40.66 360.408 40.32 359.388 40.32C358.928 40.32 358.488 40.4 358.068 40.56C357.648 40.72 357.278 40.96 356.958 41.28C356.638 41.6 356.388 42 356.208 42.48C356.028 42.96 355.938 43.51 355.938 44.13C355.938 45.33 356.258 46.28 356.898 46.98C357.558 47.68 358.388 48.03 359.388 48.03ZM370.045 37.29H373.765V42.33H375.205L378.505 37.29H382.375V37.8L378.295 43.53L383.395 50.49V51H379.255L375.115 45.15H373.765V51H370.045V37.29ZM417.745 51.21C416.645 51.21 415.655 51.04 414.775 50.7C413.895 50.36 413.135 49.89 412.495 49.29C411.875 48.67 411.395 47.93 411.055 47.07C410.715 46.21 410.545 45.25 410.545 44.19C410.545 43.07 410.725 42.07 411.085 41.19C411.465 40.29 411.975 39.54 412.615 38.94C413.255 38.32 414.015 37.85 414.895 37.53C415.775 37.21 416.725 37.05 417.745 37.05C418.905 37.05 419.955 37.25 420.895 37.65C421.855 38.05 422.605 38.55 423.145 39.15L421.225 41.67C420.825 41.23 420.355 40.88 419.815 40.62C419.295 40.36 418.705 40.23 418.045 40.23C416.925 40.23 416.035 40.59 415.375 41.31C414.735 42.03 414.415 42.95 414.415 44.07C414.415 45.23 414.745 46.19 415.405 46.95C416.085 47.69 416.995 48.06 418.135 48.06C418.795 48.06 419.385 47.93 419.905 47.67C420.425 47.39 420.885 47.03 421.285 46.59L423.475 48.75C422.875 49.53 422.075 50.14 421.075 50.58C420.095 51 418.985 51.21 417.745 51.21ZM427.304 57.75L429.614 51.15L424.004 37.98V37.29H427.724L431.354 46.26L434.534 37.29H437.894L437.864 37.98L430.664 58.2H427.304V57.75ZM458.791 51H439.861V37.29H443.581V47.73H447.961V37.29H451.651V47.73H456.001V37.29H459.721V47.73H461.821V54.06H458.791V51ZM470.28 51.21C469.18 51.21 468.17 51.04 467.25 50.7C466.35 50.36 465.57 49.89 464.91 49.29C464.25 48.67 463.74 47.94 463.38 47.1C463.02 46.24 462.84 45.29 462.84 44.25C462.84 43.15 463.03 42.16 463.41 41.28C463.79 40.38 464.31 39.62 464.97 39C465.63 38.38 466.4 37.9 467.28 37.56C468.16 37.22 469.1 37.05 470.1 37.05C471.18 37.05 472.14 37.24 472.98 37.62C473.84 37.98 474.56 38.49 475.14 39.15C475.72 39.79 476.16 40.55 476.46 41.43C476.78 42.29 476.94 43.22 476.94 44.22V45H466.44C466.62 46.06 467.07 46.87 467.79 47.43C468.53 47.99 469.46 48.27 470.58 48.27C471.38 48.27 472.12 48.13 472.8 47.85C473.5 47.55 474.08 47.14 474.54 46.62L476.61 48.51C475.91 49.39 475.01 50.06 473.91 50.52C472.81 50.98 471.6 51.21 470.28 51.21ZM469.95 40.05C469.07 40.05 468.33 40.29 467.73 40.77C467.15 41.23 466.75 41.89 466.53 42.75H473.37C473.25 41.99 472.89 41.35 472.29 40.83C471.69 40.31 470.91 40.05 469.95 40.05ZM486.065 51.21C484.965 51.21 483.975 51.04 483.095 50.7C482.215 50.36 481.455 49.89 480.815 49.29C480.195 48.67 479.715 47.93 479.375 47.07C479.035 46.21 478.865 45.25 478.865 44.19C478.865 43.07 479.045 42.07 479.405 41.19C479.785 40.29 480.295 39.54 480.935 38.94C481.575 38.32 482.335 37.85 483.215 37.53C484.095 37.21 485.045 37.05 486.065 37.05C487.225 37.05 488.275 37.25 489.215 37.65C490.175 38.05 490.925 38.55 491.465 39.15L489.545 41.67C489.145 41.23 488.675 40.88 488.135 40.62C487.615 40.36 487.025 40.23 486.365 40.23C485.245 40.23 484.355 40.59 483.695 41.31C483.055 42.03 482.735 42.95 482.735 44.07C482.735 45.23 483.065 46.19 483.725 46.95C484.405 47.69 485.315 48.06 486.455 48.06C487.115 48.06 487.705 47.93 488.225 47.67C488.745 47.39 489.205 47.03 489.605 46.59L491.795 48.75C491.195 49.53 490.395 50.14 489.395 50.58C488.415 51 487.305 51.21 486.065 51.21ZM497.181 40.56H492.771V37.29H505.281V40.56H500.871V51H497.181V40.56ZM507.566 37.29H514.976C516.396 37.29 517.466 37.6 518.186 38.22C518.906 38.82 519.266 39.61 519.266 40.59C519.266 41.33 519.086 41.94 518.726 42.42C518.366 42.9 517.896 43.24 517.316 43.44C518.296 43.58 519.096 43.92 519.716 44.46C520.336 45 520.646 45.81 520.646 46.89C520.646 48.21 520.156 49.23 519.176 49.95C518.216 50.65 516.806 51 514.946 51H507.566V37.29ZM511.286 44.82V48.27H514.136C515.076 48.27 515.746 48.13 516.146 47.85C516.546 47.55 516.746 47.11 516.746 46.53C516.746 45.93 516.536 45.5 516.116 45.24C515.696 44.96 515.066 44.82 514.226 44.82H511.286ZM511.286 40.02V42.66H513.866C515.146 42.66 515.786 42.21 515.786 41.31C515.786 40.45 515.136 40.02 513.836 40.02H511.286ZM529.576 51.21C528.496 51.21 527.496 51.04 526.576 50.7C525.676 50.36 524.896 49.88 524.236 49.26C523.596 48.62 523.086 47.87 522.706 47.01C522.346 46.15 522.166 45.19 522.166 44.13C522.166 43.07 522.346 42.11 522.706 41.25C523.086 40.37 523.606 39.62 524.266 39C524.926 38.38 525.706 37.9 526.606 37.56C527.526 37.22 528.516 37.05 529.576 37.05C530.656 37.05 531.646 37.22 532.546 37.56C533.466 37.9 534.256 38.39 534.916 39.03C535.576 39.65 536.086 40.4 536.446 41.28C536.806 42.14 536.986 43.09 536.986 44.13C536.986 45.21 536.796 46.19 536.416 47.07C536.036 47.93 535.516 48.67 534.856 49.29C534.196 49.89 533.416 50.36 532.516 50.7C531.616 51.04 530.636 51.21 529.576 51.21ZM529.576 48.06C530.676 48.06 531.536 47.69 532.156 46.95C532.776 46.21 533.086 45.27 533.086 44.13C533.086 42.99 532.786 42.06 532.186 41.34C531.586 40.6 530.716 40.23 529.576 40.23C528.456 40.23 527.586 40.6 526.966 41.34C526.346 42.08 526.036 43.01 526.036 44.13C526.036 44.67 526.116 45.18 526.276 45.66C526.436 46.14 526.666 46.56 526.966 46.92C527.266 47.28 527.636 47.56 528.076 47.76C528.516 47.96 529.016 48.06 529.576 48.06ZM572.497 51.21C571.417 51.21 570.417 51.04 569.497 50.7C568.597 50.36 567.817 49.88 567.157 49.26C566.517 48.62 566.007 47.87 565.627 47.01C565.267 46.15 565.087 45.19 565.087 44.13C565.087 43.07 565.267 42.11 565.627 41.25C566.007 40.37 566.527 39.62 567.187 39C567.847 38.38 568.627 37.9 569.527 37.56C570.447 37.22 571.437 37.05 572.497 37.05C573.577 37.05 574.567 37.22 575.467 37.56C576.387 37.9 577.177 38.39 577.837 39.03C578.497 39.65 579.007 40.4 579.367 41.28C579.727 42.14 579.907 43.09 579.907 44.13C579.907 45.21 579.717 46.19 579.337 47.07C578.957 47.93 578.437 48.67 577.777 49.29C577.117 49.89 576.337 50.36 575.437 50.7C574.537 51.04 573.557 51.21 572.497 51.21ZM572.497 48.06C573.597 48.06 574.457 47.69 575.077 46.95C575.697 46.21 576.007 45.27 576.007 44.13C576.007 42.99 575.707 42.06 575.107 41.34C574.507 40.6 573.637 40.23 572.497 40.23C571.377 40.23 570.507 40.6 569.887 41.34C569.267 42.08 568.957 43.01 568.957 44.13C568.957 44.67 569.037 45.18 569.197 45.66C569.357 46.14 569.587 46.56 569.887 46.92C570.187 47.28 570.557 47.56 570.997 47.76C571.437 47.96 571.937 48.06 572.497 48.06ZM589.437 51.27C586.777 51.27 584.837 50.44 583.617 48.78C582.397 47.12 581.787 44.63 581.787 41.31C581.787 39.39 581.987 37.75 582.387 36.39C582.787 35.01 583.357 33.89 584.097 33.03C584.857 32.15 585.767 31.51 586.827 31.11C587.907 30.69 589.107 30.48 590.427 30.48C591.187 30.48 591.767 30.41 592.167 30.27C592.567 30.11 592.867 29.81 593.067 29.37L596.007 30.24C595.847 30.82 595.647 31.32 595.407 31.74C595.187 32.14 594.877 32.48 594.477 32.76C594.077 33.04 593.567 33.26 592.947 33.42C592.327 33.56 591.537 33.66 590.577 33.72C589.657 33.78 588.857 33.9 588.177 34.08C587.517 34.26 586.957 34.58 586.497 35.04C586.057 35.48 585.707 36.1 585.447 36.9C585.207 37.7 585.047 38.74 584.967 40.02C585.547 38.94 586.287 38.19 587.187 37.77C588.107 37.33 589.107 37.11 590.187 37.11C591.187 37.11 592.087 37.27 592.887 37.59C593.707 37.91 594.397 38.37 594.957 38.97C595.517 39.57 595.947 40.29 596.247 41.13C596.547 41.95 596.697 42.87 596.697 43.89C596.697 45.01 596.517 46.03 596.157 46.95C595.797 47.85 595.297 48.62 594.657 49.26C594.017 49.9 593.247 50.4 592.347 50.76C591.467 51.1 590.497 51.27 589.437 51.27ZM589.347 48C590.367 48 591.187 47.66 591.807 46.98C592.447 46.28 592.767 45.32 592.767 44.1C592.767 42.9 592.467 41.96 591.867 41.28C591.287 40.58 590.457 40.23 589.377 40.23C588.317 40.23 587.477 40.57 586.857 41.25C586.237 41.93 585.927 42.88 585.927 44.1C585.927 45.3 586.237 46.25 586.857 46.95C587.477 47.65 588.307 48 589.347 48ZM600.567 57.75L602.877 51.15L597.267 37.98V37.29H600.987L604.617 46.26L607.797 37.29H611.157L611.127 37.98L603.927 58.2H600.567V57.75ZM620.984 46.02C620.584 46.2 620.114 46.35 619.574 46.47C619.054 46.57 618.464 46.62 617.804 46.62C616.964 46.62 616.204 46.52 615.524 46.32C614.864 46.12 614.294 45.8 613.814 45.36C613.334 44.92 612.964 44.35 612.704 43.65C612.464 42.95 612.344 42.1 612.344 41.1V37.29H616.064V40.95C616.064 41.73 616.244 42.33 616.604 42.75C616.964 43.15 617.684 43.35 618.764 43.35C619.584 43.35 620.324 43.25 620.984 43.05V37.29H624.704V51H620.984V46.02ZM633.645 51.21C632.825 51.21 632.025 51.04 631.245 50.7C630.485 50.36 629.805 49.88 629.205 49.26C628.625 48.64 628.155 47.9 627.795 47.04C627.435 46.16 627.255 45.19 627.255 44.13C627.255 43.07 627.425 42.11 627.765 41.25C628.125 40.37 628.595 39.62 629.175 39C629.775 38.38 630.455 37.9 631.215 37.56C631.995 37.22 632.805 37.05 633.645 37.05C634.665 37.05 635.565 37.25 636.345 37.65C637.145 38.05 637.775 38.54 638.235 39.12V37.29H641.745V51H638.235V49.14C637.735 49.76 637.085 50.26 636.285 50.64C635.485 51.02 634.605 51.21 633.645 51.21ZM634.635 48.03C635.655 48.03 636.465 47.68 637.065 46.98C637.685 46.26 638.005 45.33 638.025 44.19V43.95C638.025 42.89 637.715 42.02 637.095 41.34C636.475 40.66 635.655 40.32 634.635 40.32C634.175 40.32 633.735 40.4 633.315 40.56C632.895 40.72 632.525 40.96 632.205 41.28C631.885 41.6 631.635 42 631.455 42.48C631.275 42.96 631.185 43.51 631.185 44.13C631.185 45.33 631.505 46.28 632.145 46.98C632.805 47.68 633.635 48.03 634.635 48.03ZM645.292 37.29H649.012V42.15H650.902C651.102 41.35 651.422 40.64 651.862 40.02C652.302 39.38 652.822 38.84 653.422 38.4C654.042 37.96 654.722 37.63 655.462 37.41C656.202 37.17 656.972 37.05 657.772 37.05C658.832 37.05 659.802 37.22 660.682 37.56C661.562 37.88 662.322 38.35 662.962 38.97C663.602 39.57 664.102 40.31 664.462 41.19C664.822 42.05 665.002 43.03 665.002 44.13C665.002 45.27 664.802 46.28 664.402 47.16C664.022 48.04 663.492 48.78 662.812 49.38C662.152 49.98 661.382 50.44 660.502 50.76C659.622 51.06 658.702 51.21 657.742 51.21C656.802 51.21 655.932 51.07 655.132 50.79C654.332 50.51 653.622 50.12 653.002 49.62C652.402 49.1 651.902 48.47 651.502 47.73C651.122 46.99 650.872 46.16 650.752 45.24H649.012V51H645.292V37.29ZM657.772 47.97C658.852 47.97 659.672 47.61 660.232 46.89C660.812 46.17 661.102 45.26 661.102 44.16C661.102 43.02 660.802 42.09 660.202 41.37C659.622 40.65 658.802 40.29 657.742 40.29C656.682 40.29 655.852 40.65 655.252 41.37C654.672 42.07 654.382 42.96 654.382 44.04C654.382 45.18 654.682 46.12 655.282 46.86C655.902 47.6 656.732 47.97 657.772 47.97ZM686.663 51H667.733V37.29H671.453V47.73H675.833V37.29H679.523V47.73H683.873V37.29H687.593V47.73H689.693V54.06H686.663V51ZM698.152 51.21C697.052 51.21 696.042 51.04 695.122 50.7C694.222 50.36 693.442 49.89 692.782 49.29C692.122 48.67 691.612 47.94 691.252 47.1C690.892 46.24 690.712 45.29 690.712 44.25C690.712 43.15 690.902 42.16 691.282 41.28C691.662 40.38 692.182 39.62 692.842 39C693.502 38.38 694.272 37.9 695.152 37.56C696.032 37.22 696.972 37.05 697.972 37.05C699.052 37.05 700.012 37.24 700.852 37.62C701.712 37.98 702.432 38.49 703.012 39.15C703.592 39.79 704.032 40.55 704.332 41.43C704.652 42.29 704.812 43.22 704.812 44.22V45H694.312C694.492 46.06 694.942 46.87 695.662 47.43C696.402 47.99 697.332 48.27 698.452 48.27C699.252 48.27 699.992 48.13 700.672 47.85C701.372 47.55 701.952 47.14 702.412 46.62L704.482 48.51C703.782 49.39 702.882 50.06 701.782 50.52C700.682 50.98 699.472 51.21 698.152 51.21ZM697.822 40.05C696.942 40.05 696.202 40.29 695.602 40.77C695.022 41.23 694.622 41.89 694.402 42.75H701.242C701.122 41.99 700.762 41.35 700.162 40.83C699.562 40.31 698.782 40.05 697.822 40.05ZM714.178 51.21C713.078 51.21 712.068 51.04 711.148 50.7C710.248 50.36 709.468 49.89 708.808 49.29C708.148 48.67 707.638 47.94 707.278 47.1C706.918 46.24 706.738 45.29 706.738 44.25C706.738 43.15 706.928 42.16 707.308 41.28C707.688 40.38 708.208 39.62 708.868 39C709.528 38.38 710.298 37.9 711.178 37.56C712.058 37.22 712.998 37.05 713.998 37.05C715.078 37.05 716.038 37.24 716.878 37.62C717.738 37.98 718.458 38.49 719.038 39.15C719.618 39.79 720.058 40.55 720.358 41.43C720.678 42.29 720.838 43.22 720.838 44.22V45H710.338C710.518 46.06 710.968 46.87 711.688 47.43C712.428 47.99 713.358 48.27 714.478 48.27C715.278 48.27 716.018 48.13 716.698 47.85C717.398 47.55 717.978 47.14 718.438 46.62L720.508 48.51C719.808 49.39 718.908 50.06 717.808 50.52C716.708 50.98 715.498 51.21 714.178 51.21ZM713.848 40.05C712.968 40.05 712.228 40.29 711.628 40.77C711.048 41.23 710.648 41.89 710.428 42.75H717.268C717.148 41.99 716.788 41.35 716.188 40.83C715.588 40.31 714.808 40.05 713.848 40.05ZM729.963 51.21C728.863 51.21 727.873 51.04 726.993 50.7C726.113 50.36 725.353 49.89 724.713 49.29C724.093 48.67 723.613 47.93 723.273 47.07C722.933 46.21 722.763 45.25 722.763 44.19C722.763 43.07 722.943 42.07 723.303 41.19C723.683 40.29 724.193 39.54 724.833 38.94C725.473 38.32 726.233 37.85 727.113 37.53C727.993 37.21 728.943 37.05 729.963 37.05C731.123 37.05 732.173 37.25 733.113 37.65C734.073 38.05 734.823 38.55 735.363 39.15L733.443 41.67C733.043 41.23 732.573 40.88 732.033 40.62C731.513 40.36 730.923 40.23 730.263 40.23C729.143 40.23 728.253 40.59 727.593 41.31C726.953 42.03 726.633 42.95 726.633 44.07C726.633 45.23 726.963 46.19 727.623 46.95C728.303 47.69 729.213 48.06 730.353 48.06C731.013 48.06 731.603 47.93 732.123 47.67C732.643 47.39 733.103 47.03 733.503 46.59L735.693 48.75C735.093 49.53 734.293 50.14 733.293 50.58C732.313 51 731.203 51.21 729.963 51.21ZM737.001 50.49L739.911 46.14C738.311 45.38 737.511 44.03 737.511 42.09C737.511 40.51 738.021 39.32 739.041 38.52C740.081 37.7 741.691 37.29 743.871 37.29H749.811V51H746.091V46.8H743.751L741.051 51H737.001V50.49ZM746.091 44.16V40.17H744.111C743.151 40.17 742.441 40.31 741.981 40.59C741.521 40.85 741.291 41.36 741.291 42.12C741.291 42.88 741.491 43.41 741.891 43.71C742.311 44.01 743.021 44.16 744.021 44.16H746.091ZM793.541 45.42H779.531V42.39H793.541V45.42ZM824.623 37.29H827.803L831.433 45.24L834.853 37.29H838.123L840.403 51H836.923L835.603 42.99L832.063 51H830.473L826.903 43.14L825.613 51H822.313L824.623 37.29ZM849.356 51.21C848.276 51.21 847.276 51.04 846.356 50.7C845.456 50.36 844.676 49.88 844.016 49.26C843.376 48.62 842.866 47.87 842.486 47.01C842.126 46.15 841.946 45.19 841.946 44.13C841.946 43.07 842.126 42.11 842.486 41.25C842.866 40.37 843.386 39.62 844.046 39C844.706 38.38 845.486 37.9 846.386 37.56C847.306 37.22 848.296 37.05 849.356 37.05C850.436 37.05 851.426 37.22 852.326 37.56C853.246 37.9 854.036 38.39 854.696 39.03C855.356 39.65 855.866 40.4 856.226 41.28C856.586 42.14 856.766 43.09 856.766 44.13C856.766 45.21 856.576 46.19 856.196 47.07C855.816 47.93 855.296 48.67 854.636 49.29C853.976 49.89 853.196 50.36 852.296 50.7C851.396 51.04 850.416 51.21 849.356 51.21ZM849.356 48.06C850.456 48.06 851.316 47.69 851.936 46.95C852.556 46.21 852.866 45.27 852.866 44.13C852.866 42.99 852.566 42.06 851.966 41.34C851.366 40.6 850.496 40.23 849.356 40.23C848.236 40.23 847.366 40.6 846.746 41.34C846.126 42.08 845.816 43.01 845.816 44.13C845.816 44.67 845.896 45.18 846.056 45.66C846.216 46.14 846.446 46.56 846.746 46.92C847.046 47.28 847.416 47.56 847.856 47.76C848.296 47.96 848.796 48.06 849.356 48.06ZM857.245 50.49L861.205 43.68L858.025 37.8V37.29H861.745L864.355 42.39H865.855V37.29H869.545V42.39H871.015L873.655 37.29H877.255V37.8L874.135 43.62L878.185 50.49V51H874.225L870.955 45.21H869.545V51H865.855V45.21H864.415L861.175 51H857.245V50.49ZM886.036 51.21C884.936 51.21 883.926 51.04 883.006 50.7C882.106 50.36 881.326 49.89 880.666 49.29C880.006 48.67 879.496 47.94 879.136 47.1C878.776 46.24 878.596 45.29 878.596 44.25C878.596 43.15 878.786 42.16 879.166 41.28C879.546 40.38 880.066 39.62 880.726 39C881.386 38.38 882.156 37.9 883.036 37.56C883.916 37.22 884.856 37.05 885.856 37.05C886.936 37.05 887.896 37.24 888.736 37.62C889.596 37.98 890.316 38.49 890.896 39.15C891.476 39.79 891.916 40.55 892.216 41.43C892.536 42.29 892.696 43.22 892.696 44.22V45H882.196C882.376 46.06 882.826 46.87 883.546 47.43C884.286 47.99 885.216 48.27 886.336 48.27C887.136 48.27 887.876 48.13 888.556 47.85C889.256 47.55 889.836 47.14 890.296 46.62L892.366 48.51C891.666 49.39 890.766 50.06 889.666 50.52C888.566 50.98 887.356 51.21 886.036 51.21ZM885.706 40.05C884.826 40.05 884.086 40.29 883.486 40.77C882.906 41.23 882.506 41.89 882.286 42.75H889.126C889.006 41.99 888.646 41.35 888.046 40.83C887.446 40.31 886.666 40.05 885.706 40.05ZM898.142 40.56H893.732V37.29H906.242V40.56H901.832V51H898.142V40.56ZM907.854 51.15C907.254 51.05 906.794 50.82 906.474 50.46C906.174 50.08 906.024 49.63 906.024 49.11C906.024 48.45 906.234 47.93 906.654 47.55C907.094 47.15 907.614 46.95 908.214 46.95C908.854 46.95 909.404 47.16 909.864 47.58C910.344 48 910.584 48.6 910.584 49.38C910.584 49.9 910.444 50.48 910.164 51.12C909.884 51.76 909.454 52.59 908.874 53.61L907.674 55.8H905.274L907.854 51.15ZM940.228 37.29H953.128V51H949.438V40.56H943.948V51H940.228V37.29ZM963.293 51.21C962.213 51.21 961.213 51.04 960.293 50.7C959.393 50.36 958.613 49.88 957.953 49.26C957.313 48.62 956.803 47.87 956.423 47.01C956.063 46.15 955.883 45.19 955.883 44.13C955.883 43.07 956.063 42.11 956.423 41.25C956.803 40.37 957.323 39.62 957.983 39C958.643 38.38 959.423 37.9 960.323 37.56C961.243 37.22 962.233 37.05 963.293 37.05C964.373 37.05 965.363 37.22 966.263 37.56C967.183 37.9 967.973 38.39 968.633 39.03C969.293 39.65 969.803 40.4 970.163 41.28C970.523 42.14 970.703 43.09 970.703 44.13C970.703 45.21 970.513 46.19 970.133 47.07C969.753 47.93 969.233 48.67 968.573 49.29C967.913 49.89 967.133 50.36 966.233 50.7C965.333 51.04 964.353 51.21 963.293 51.21ZM963.293 48.06C964.393 48.06 965.253 47.69 965.873 46.95C966.493 46.21 966.803 45.27 966.803 44.13C966.803 42.99 966.503 42.06 965.903 41.34C965.303 40.6 964.433 40.23 963.293 40.23C962.173 40.23 961.303 40.6 960.683 41.34C960.063 42.08 959.753 43.01 959.753 44.13C959.753 44.67 959.833 45.18 959.993 45.66C960.153 46.14 960.383 46.56 960.683 46.92C960.983 47.28 961.353 47.56 961.793 47.76C962.233 47.96 962.733 48.06 963.293 48.06ZM976.103 40.56H971.693V37.29H984.203V40.56H979.793V51H976.103V40.56ZM992.56 51.21C991.48 51.21 990.48 51.04 989.56 50.7C988.66 50.36 987.88 49.88 987.22 49.26C986.58 48.62 986.07 47.87 985.69 47.01C985.33 46.15 985.15 45.19 985.15 44.13C985.15 43.07 985.33 42.11 985.69 41.25C986.07 40.37 986.59 39.62 987.25 39C987.91 38.38 988.69 37.9 989.59 37.56C990.51 37.22 991.5 37.05 992.56 37.05C993.64 37.05 994.63 37.22 995.53 37.56C996.45 37.9 997.24 38.39 997.9 39.03C998.56 39.65 999.07 40.4 999.43 41.28C999.79 42.14 999.97 43.09 999.97 44.13C999.97 45.21 999.78 46.19 999.4 47.07C999.02 47.93 998.5 48.67 997.84 49.29C997.18 49.89 996.4 50.36 995.5 50.7C994.6 51.04 993.62 51.21 992.56 51.21ZM992.56 48.06C993.66 48.06 994.52 47.69 995.14 46.95C995.76 46.21 996.07 45.27 996.07 44.13C996.07 42.99 995.77 42.06 995.17 41.34C994.57 40.6 993.7 40.23 992.56 40.23C991.44 40.23 990.57 40.6 989.95 41.34C989.33 42.08 989.02 43.01 989.02 44.13C989.02 44.67 989.1 45.18 989.26 45.66C989.42 46.14 989.65 46.56 989.95 46.92C990.25 47.28 990.62 47.56 991.06 47.76C991.5 47.96 992 48.06 992.56 48.06ZM1003.86 37.29H1007.04L1010.67 45.24L1014.09 37.29H1017.36L1019.64 51H1016.16L1014.84 42.99L1011.3 51H1009.71L1006.14 43.14L1004.85 51H1001.55L1003.86 37.29ZM1023.18 57.75L1025.49 51.15L1019.88 37.98V37.29H1023.6L1027.23 46.26L1030.41 37.29H1033.77L1033.74 37.98L1026.54 58.2H1023.18V57.75ZM1069.82 46.02C1069.42 46.2 1068.95 46.35 1068.41 46.47C1067.89 46.57 1067.3 46.62 1066.64 46.62C1065.8 46.62 1065.04 46.52 1064.36 46.32C1063.7 46.12 1063.13 45.8 1062.65 45.36C1062.17 44.92 1061.8 44.35 1061.54 43.65C1061.3 42.95 1061.18 42.1 1061.18 41.1V37.29H1064.9V40.95C1064.9 41.73 1065.08 42.33 1065.44 42.75C1065.8 43.15 1066.52 43.35 1067.6 43.35C1068.42 43.35 1069.16 43.25 1069.82 43.05V37.29H1073.54V51H1069.82V46.02ZM1080.05 40.56H1075.64V37.29H1088.15V40.56H1083.74V51H1080.05V40.56ZM1096.51 51.21C1095.43 51.21 1094.43 51.04 1093.51 50.7C1092.61 50.36 1091.83 49.88 1091.17 49.26C1090.53 48.62 1090.02 47.87 1089.64 47.01C1089.28 46.15 1089.1 45.19 1089.1 44.13C1089.1 43.07 1089.28 42.11 1089.64 41.25C1090.02 40.37 1090.54 39.62 1091.2 39C1091.86 38.38 1092.64 37.9 1093.54 37.56C1094.46 37.22 1095.45 37.05 1096.51 37.05C1097.59 37.05 1098.58 37.22 1099.48 37.56C1100.4 37.9 1101.19 38.39 1101.85 39.03C1102.51 39.65 1103.02 40.4 1103.38 41.28C1103.74 42.14 1103.92 43.09 1103.92 44.13C1103.92 45.21 1103.73 46.19 1103.35 47.07C1102.97 47.93 1102.45 48.67 1101.79 49.29C1101.13 49.89 1100.35 50.36 1099.45 50.7C1098.55 51.04 1097.57 51.21 1096.51 51.21ZM1096.51 48.06C1097.61 48.06 1098.47 47.69 1099.09 46.95C1099.71 46.21 1100.02 45.27 1100.02 44.13C1100.02 42.99 1099.72 42.06 1099.12 41.34C1098.52 40.6 1097.65 40.23 1096.51 40.23C1095.39 40.23 1094.52 40.6 1093.9 41.34C1093.28 42.08 1092.97 43.01 1092.97 44.13C1092.97 44.67 1093.05 45.18 1093.21 45.66C1093.37 46.14 1093.6 46.56 1093.9 46.92C1094.2 47.28 1094.57 47.56 1095.01 47.76C1095.45 47.96 1095.95 48.06 1096.51 48.06ZM1133.52 30H1137.54V43.71L1148.52 30H1151.07V51H1147.02V37.35L1136.07 51H1133.52V30ZM1155.99 30H1160.01V43.71L1170.99 30H1173.54V51H1169.49V37.35L1158.54 51H1155.99V30ZM184.77 73.29H192.18C193.6 73.29 194.67 73.6 195.39 74.22C196.11 74.82 196.47 75.61 196.47 76.59C196.47 77.33 196.29 77.94 195.93 78.42C195.57 78.9 195.1 79.24 194.52 79.44C195.5 79.58 196.3 79.92 196.92 80.46C197.54 81 197.85 81.81 197.85 82.89C197.85 84.21 197.36 85.23 196.38 85.95C195.42 86.65 194.01 87 192.15 87H184.77V73.29ZM188.49 80.82V84.27H191.34C192.28 84.27 192.95 84.13 193.35 83.85C193.75 83.55 193.95 83.11 193.95 82.53C193.95 81.93 193.74 81.5 193.32 81.24C192.9 80.96 192.27 80.82 191.43 80.82H188.49ZM188.49 76.02V78.66H191.07C192.35 78.66 192.99 78.21 192.99 77.31C192.99 76.45 192.34 76.02 191.04 76.02H188.49ZM200.18 73.29H213.08V87H209.39V76.56H203.9V87H200.18V73.29ZM216.645 73.29H220.365V81.18L226.725 73.29H229.635V87H225.915V78.66L219.195 87H216.645V73.29ZM236.318 76.56H231.908V73.29H244.418V76.56H240.008V87H236.318V76.56ZM252.494 77.25C254.434 77.25 255.904 77.65 256.904 78.45C257.924 79.25 258.434 80.46 258.434 82.08C258.434 83.7 257.904 84.93 256.844 85.77C255.804 86.59 254.254 87 252.194 87H246.704V73.29H250.424V77.25H252.494ZM259.754 73.29H263.474V87H259.754V73.29ZM251.804 84.09C252.704 84.09 253.394 83.96 253.874 83.7C254.374 83.42 254.624 82.88 254.624 82.08C254.624 81.34 254.394 80.83 253.934 80.55C253.494 80.27 252.824 80.13 251.924 80.13H250.424V84.09H251.804ZM267.006 73.29H274.416C275.836 73.29 276.906 73.6 277.626 74.22C278.346 74.82 278.706 75.61 278.706 76.59C278.706 77.33 278.526 77.94 278.166 78.42C277.806 78.9 277.336 79.24 276.756 79.44C277.736 79.58 278.536 79.92 279.156 80.46C279.776 81 280.086 81.81 280.086 82.89C280.086 84.21 279.596 85.23 278.616 85.95C277.656 86.65 276.246 87 274.386 87H267.006V73.29ZM270.726 80.82V84.27H273.576C274.516 84.27 275.186 84.13 275.586 83.85C275.986 83.55 276.186 83.11 276.186 82.53C276.186 81.93 275.976 81.5 275.556 81.24C275.136 80.96 274.506 80.82 273.666 80.82H270.726ZM270.726 76.02V78.66H273.306C274.586 78.66 275.226 78.21 275.226 77.31C275.226 76.45 274.576 76.02 273.276 76.02H270.726ZM287.996 87.21C287.176 87.21 286.376 87.04 285.596 86.7C284.836 86.36 284.156 85.88 283.556 85.26C282.976 84.64 282.506 83.9 282.146 83.04C281.786 82.16 281.606 81.19 281.606 80.13C281.606 79.07 281.776 78.11 282.116 77.25C282.476 76.37 282.946 75.62 283.526 75C284.126 74.38 284.806 73.9 285.566 73.56C286.346 73.22 287.156 73.05 287.996 73.05C289.016 73.05 289.916 73.25 290.696 73.65C291.496 74.05 292.126 74.54 292.586 75.12V73.29H296.096V87H292.586V85.14C292.086 85.76 291.436 86.26 290.636 86.64C289.836 87.02 288.956 87.21 287.996 87.21ZM288.986 84.03C290.006 84.03 290.816 83.68 291.416 82.98C292.036 82.26 292.356 81.33 292.376 80.19V79.95C292.376 78.89 292.066 78.02 291.446 77.34C290.826 76.66 290.006 76.32 288.986 76.32C288.526 76.32 288.086 76.4 287.666 76.56C287.246 76.72 286.876 76.96 286.556 77.28C286.236 77.6 285.986 78 285.806 78.48C285.626 78.96 285.536 79.51 285.536 80.13C285.536 81.33 285.856 82.28 286.496 82.98C287.156 83.68 287.986 84.03 288.986 84.03ZM306.273 87.21C305.173 87.21 304.163 87.04 303.243 86.7C302.343 86.36 301.563 85.89 300.903 85.29C300.243 84.67 299.733 83.94 299.373 83.1C299.013 82.24 298.833 81.29 298.833 80.25C298.833 79.15 299.023 78.16 299.403 77.28C299.783 76.38 300.303 75.62 300.963 75C301.623 74.38 302.393 73.9 303.273 73.56C304.153 73.22 305.093 73.05 306.093 73.05C307.173 73.05 308.133 73.24 308.973 73.62C309.833 73.98 310.553 74.49 311.133 75.15C311.713 75.79 312.153 76.55 312.453 77.43C312.773 78.29 312.933 79.22 312.933 80.22V81H302.433C302.613 82.06 303.063 82.87 303.783 83.43C304.523 83.99 305.453 84.27 306.573 84.27C307.373 84.27 308.113 84.13 308.793 83.85C309.493 83.55 310.073 83.14 310.533 82.62L312.603 84.51C311.903 85.39 311.003 86.06 309.903 86.52C308.803 86.98 307.593 87.21 306.273 87.21ZM305.943 76.05C305.063 76.05 304.323 76.29 303.723 76.77C303.143 77.23 302.743 77.89 302.523 78.75H309.363C309.243 77.99 308.883 77.35 308.283 76.83C307.683 76.31 306.903 76.05 305.943 76.05ZM318.379 76.56H313.969V73.29H326.479V76.56H322.069V87H318.379V76.56ZM348.927 87.21C347.847 87.21 346.847 87.04 345.927 86.7C345.027 86.36 344.247 85.88 343.587 85.26C342.947 84.62 342.437 83.87 342.057 83.01C341.697 82.15 341.517 81.19 341.517 80.13C341.517 79.07 341.697 78.11 342.057 77.25C342.437 76.37 342.957 75.62 343.617 75C344.277 74.38 345.057 73.9 345.957 73.56C346.877 73.22 347.867 73.05 348.927 73.05C350.007 73.05 350.997 73.22 351.897 73.56C352.817 73.9 353.607 74.39 354.267 75.03C354.927 75.65 355.437 76.4 355.797 77.28C356.157 78.14 356.337 79.09 356.337 80.13C356.337 81.21 356.147 82.19 355.767 83.07C355.387 83.93 354.867 84.67 354.207 85.29C353.547 85.89 352.767 86.36 351.867 86.7C350.967 87.04 349.987 87.21 348.927 87.21ZM348.927 84.06C350.027 84.06 350.887 83.69 351.507 82.95C352.127 82.21 352.437 81.27 352.437 80.13C352.437 78.99 352.137 78.06 351.537 77.34C350.937 76.6 350.067 76.23 348.927 76.23C347.807 76.23 346.937 76.6 346.317 77.34C345.697 78.08 345.387 79.01 345.387 80.13C345.387 80.67 345.467 81.18 345.627 81.66C345.787 82.14 346.017 82.56 346.317 82.92C346.617 83.28 346.987 83.56 347.427 83.76C347.867 83.96 348.367 84.06 348.927 84.06ZM359.026 73.29H371.926V87H368.236V76.56H362.746V87H359.026V73.29ZM381.281 77.25C383.221 77.25 384.691 77.65 385.691 78.45C386.711 79.25 387.221 80.46 387.221 82.08C387.221 83.7 386.691 84.93 385.631 85.77C384.591 86.59 383.041 87 380.981 87H375.491V73.29H379.211V77.25H381.281ZM388.541 73.29H392.261V87H388.541V73.29ZM380.591 84.09C381.491 84.09 382.181 83.96 382.661 83.7C383.161 83.42 383.411 82.88 383.411 82.08C383.411 81.34 383.181 80.83 382.721 80.55C382.281 80.27 381.611 80.13 380.711 80.13H379.211V84.09H380.591ZM398.943 76.56H394.533V73.29H407.043V76.56H402.633V87H398.943V76.56ZM422.891 73.29H430.301C431.721 73.29 432.791 73.6 433.511 74.22C434.231 74.82 434.591 75.61 434.591 76.59C434.591 77.33 434.411 77.94 434.051 78.42C433.691 78.9 433.221 79.24 432.641 79.44C433.621 79.58 434.421 79.92 435.041 80.46C435.661 81 435.971 81.81 435.971 82.89C435.971 84.21 435.481 85.23 434.501 85.95C433.541 86.65 432.131 87 430.271 87H422.891V73.29ZM426.611 80.82V84.27H429.461C430.401 84.27 431.071 84.13 431.471 83.85C431.871 83.55 432.071 83.11 432.071 82.53C432.071 81.93 431.861 81.5 431.441 81.24C431.021 80.96 430.391 80.82 429.551 80.82H426.611ZM426.611 76.02V78.66H429.191C430.471 78.66 431.111 78.21 431.111 77.31C431.111 76.45 430.461 76.02 429.161 76.02H426.611ZM444.691 87.21C443.591 87.21 442.601 87.04 441.721 86.7C440.841 86.36 440.081 85.89 439.441 85.29C438.821 84.67 438.341 83.93 438.001 83.07C437.661 82.21 437.491 81.25 437.491 80.19C437.491 79.07 437.671 78.07 438.031 77.19C438.411 76.29 438.921 75.54 439.561 74.94C440.201 74.32 440.961 73.85 441.841 73.53C442.721 73.21 443.671 73.05 444.691 73.05C445.851 73.05 446.901 73.25 447.841 73.65C448.801 74.05 449.551 74.55 450.091 75.15L448.171 77.67C447.771 77.23 447.301 76.88 446.761 76.62C446.241 76.36 445.651 76.23 444.991 76.23C443.871 76.23 442.981 76.59 442.321 77.31C441.681 78.03 441.361 78.95 441.361 80.07C441.361 81.23 441.691 82.19 442.351 82.95C443.031 83.69 443.941 84.06 445.081 84.06C445.741 84.06 446.331 83.93 446.851 83.67C447.371 83.39 447.831 83.03 448.231 82.59L450.421 84.75C449.821 85.53 449.021 86.14 448.021 86.58C447.041 87 445.931 87.21 444.691 87.21ZM459.14 87.21C458.04 87.21 457.03 87.04 456.11 86.7C455.21 86.36 454.43 85.89 453.77 85.29C453.11 84.67 452.6 83.94 452.24 83.1C451.88 82.24 451.7 81.29 451.7 80.25C451.7 79.15 451.89 78.16 452.27 77.28C452.65 76.38 453.17 75.62 453.83 75C454.49 74.38 455.26 73.9 456.14 73.56C457.02 73.22 457.96 73.05 458.96 73.05C460.04 73.05 461 73.24 461.84 73.62C462.7 73.98 463.42 74.49 464 75.15C464.58 75.79 465.02 76.55 465.32 77.43C465.64 78.29 465.8 79.22 465.8 80.22V81H455.3C455.48 82.06 455.93 82.87 456.65 83.43C457.39 83.99 458.32 84.27 459.44 84.27C460.24 84.27 460.98 84.13 461.66 83.85C462.36 83.55 462.94 83.14 463.4 82.62L465.47 84.51C464.77 85.39 463.87 86.06 462.77 86.52C461.67 86.98 460.46 87.21 459.14 87.21ZM458.81 76.05C457.93 76.05 457.19 76.29 456.59 76.77C456.01 77.23 455.61 77.89 455.39 78.75H462.23C462.11 77.99 461.75 77.35 461.15 76.83C460.55 76.31 459.77 76.05 458.81 76.05ZM468.536 73.29H478.046V76.56H472.256V87H468.536V73.29ZM486.62 87.21C485.54 87.21 484.54 87.04 483.62 86.7C482.72 86.36 481.94 85.88 481.28 85.26C480.64 84.62 480.13 83.87 479.75 83.01C479.39 82.15 479.21 81.19 479.21 80.13C479.21 79.07 479.39 78.11 479.75 77.25C480.13 76.37 480.65 75.62 481.31 75C481.97 74.38 482.75 73.9 483.65 73.56C484.57 73.22 485.56 73.05 486.62 73.05C487.7 73.05 488.69 73.22 489.59 73.56C490.51 73.9 491.3 74.39 491.96 75.03C492.62 75.65 493.13 76.4 493.49 77.28C493.85 78.14 494.03 79.09 494.03 80.13C494.03 81.21 493.84 82.19 493.46 83.07C493.08 83.93 492.56 84.67 491.9 85.29C491.24 85.89 490.46 86.36 489.56 86.7C488.66 87.04 487.68 87.21 486.62 87.21ZM486.62 84.06C487.72 84.06 488.58 83.69 489.2 82.95C489.82 82.21 490.13 81.27 490.13 80.13C490.13 78.99 489.83 78.06 489.23 77.34C488.63 76.6 487.76 76.23 486.62 76.23C485.5 76.23 484.63 76.6 484.01 77.34C483.39 78.08 483.08 79.01 483.08 80.13C483.08 80.67 483.16 81.18 483.32 81.66C483.48 82.14 483.71 82.56 484.01 82.92C484.31 83.28 484.68 83.56 485.12 83.76C485.56 83.96 486.06 84.06 486.62 84.06ZM513.432 76.56H509.022V73.29H521.532V76.56H517.122V87H513.432V76.56ZM529.89 87.21C528.81 87.21 527.81 87.04 526.89 86.7C525.99 86.36 525.21 85.88 524.55 85.26C523.91 84.62 523.4 83.87 523.02 83.01C522.66 82.15 522.48 81.19 522.48 80.13C522.48 79.07 522.66 78.11 523.02 77.25C523.4 76.37 523.92 75.62 524.58 75C525.24 74.38 526.02 73.9 526.92 73.56C527.84 73.22 528.83 73.05 529.89 73.05C530.97 73.05 531.96 73.22 532.86 73.56C533.78 73.9 534.57 74.39 535.23 75.03C535.89 75.65 536.4 76.4 536.76 77.28C537.12 78.14 537.3 79.09 537.3 80.13C537.3 81.21 537.11 82.19 536.73 83.07C536.35 83.93 535.83 84.67 535.17 85.29C534.51 85.89 533.73 86.36 532.83 86.7C531.93 87.04 530.95 87.21 529.89 87.21ZM529.89 84.06C530.99 84.06 531.85 83.69 532.47 82.95C533.09 82.21 533.4 81.27 533.4 80.13C533.4 78.99 533.1 78.06 532.5 77.34C531.9 76.6 531.03 76.23 529.89 76.23C528.77 76.23 527.9 76.6 527.28 77.34C526.66 78.08 526.35 79.01 526.35 80.13C526.35 80.67 526.43 81.18 526.59 81.66C526.75 82.14 526.98 82.56 527.28 82.92C527.58 83.28 527.95 83.56 528.39 83.76C528.83 83.96 529.33 84.06 529.89 84.06ZM539.989 73.29H549.499V76.56H543.709V87H539.989V73.29ZM558.073 87.21C556.993 87.21 555.993 87.04 555.073 86.7C554.173 86.36 553.393 85.88 552.733 85.26C552.093 84.62 551.583 83.87 551.203 83.01C550.843 82.15 550.663 81.19 550.663 80.13C550.663 79.07 550.843 78.11 551.203 77.25C551.583 76.37 552.103 75.62 552.763 75C553.423 74.38 554.203 73.9 555.103 73.56C556.023 73.22 557.013 73.05 558.073 73.05C559.153 73.05 560.143 73.22 561.043 73.56C561.963 73.9 562.753 74.39 563.413 75.03C564.073 75.65 564.583 76.4 564.943 77.28C565.303 78.14 565.483 79.09 565.483 80.13C565.483 81.21 565.293 82.19 564.913 83.07C564.533 83.93 564.013 84.67 563.353 85.29C562.693 85.89 561.913 86.36 561.013 86.7C560.113 87.04 559.133 87.21 558.073 87.21ZM558.073 84.06C559.173 84.06 560.033 83.69 560.653 82.95C561.273 82.21 561.583 81.27 561.583 80.13C561.583 78.99 561.283 78.06 560.683 77.34C560.083 76.6 559.213 76.23 558.073 76.23C556.953 76.23 556.083 76.6 555.463 77.34C554.843 78.08 554.533 79.01 554.533 80.13C554.533 80.67 554.613 81.18 554.773 81.66C554.933 82.14 555.163 82.56 555.463 82.92C555.763 83.28 556.133 83.56 556.573 83.76C557.013 83.96 557.513 84.06 558.073 84.06ZM568.876 87.15C568.276 87.05 567.816 86.82 567.496 86.46C567.196 86.08 567.046 85.63 567.046 85.11C567.046 84.45 567.256 83.93 567.676 83.55C568.116 83.15 568.636 82.95 569.236 82.95C569.876 82.95 570.426 83.16 570.886 83.58C571.366 84 571.606 84.6 571.606 85.38C571.606 85.9 571.466 86.48 571.186 87.12C570.906 87.76 570.476 88.59 569.896 89.61L568.696 91.8H566.296L568.876 87.15ZM596.45 82.02C596.05 82.2 595.58 82.35 595.04 82.47C594.52 82.57 593.93 82.62 593.27 82.62C592.43 82.62 591.67 82.52 590.99 82.32C590.33 82.12 589.76 81.8 589.28 81.36C588.8 80.92 588.43 80.35 588.17 79.65C587.93 78.95 587.81 78.1 587.81 77.1V73.29H591.53V76.95C591.53 77.73 591.71 78.33 592.07 78.75C592.43 79.15 593.15 79.35 594.23 79.35C595.05 79.35 595.79 79.25 596.45 79.05V73.29H600.17V87H596.45V82.02ZM606.682 76.56H602.272V73.29H614.782V76.56H610.372V87H606.682V76.56ZM623.14 87.21C622.06 87.21 621.06 87.04 620.14 86.7C619.24 86.36 618.46 85.88 617.8 85.26C617.16 84.62 616.65 83.87 616.27 83.01C615.91 82.15 615.73 81.19 615.73 80.13C615.73 79.07 615.91 78.11 616.27 77.25C616.65 76.37 617.17 75.62 617.83 75C618.49 74.38 619.27 73.9 620.17 73.56C621.09 73.22 622.08 73.05 623.14 73.05C624.22 73.05 625.21 73.22 626.11 73.56C627.03 73.9 627.82 74.39 628.48 75.03C629.14 75.65 629.65 76.4 630.01 77.28C630.37 78.14 630.55 79.09 630.55 80.13C630.55 81.21 630.36 82.19 629.98 83.07C629.6 83.93 629.08 84.67 628.42 85.29C627.76 85.89 626.98 86.36 626.08 86.7C625.18 87.04 624.2 87.21 623.14 87.21ZM623.14 84.06C624.24 84.06 625.1 83.69 625.72 82.95C626.34 82.21 626.65 81.27 626.65 80.13C626.65 78.99 626.35 78.06 625.75 77.34C625.15 76.6 624.28 76.23 623.14 76.23C622.02 76.23 621.15 76.6 620.53 77.34C619.91 78.08 619.6 79.01 619.6 80.13C619.6 80.67 619.68 81.18 619.84 81.66C620 82.14 620.23 82.56 620.53 82.92C620.83 83.28 621.2 83.56 621.64 83.76C622.08 83.96 622.58 84.06 623.14 84.06ZM646.801 73.29H659.701V87H656.011V76.56H650.521V87H646.801V73.29ZM663.266 94.2V73.29H666.776V75.12C667.236 74.54 667.856 74.05 668.636 73.65C669.436 73.25 670.346 73.05 671.366 73.05C672.206 73.05 673.006 73.22 673.766 73.56C674.546 73.9 675.226 74.38 675.806 75C676.406 75.62 676.876 76.37 677.216 77.25C677.576 78.11 677.756 79.07 677.756 80.13C677.756 81.19 677.576 82.16 677.216 83.04C676.856 83.9 676.376 84.64 675.776 85.26C675.196 85.88 674.516 86.36 673.736 86.7C672.976 87.04 672.186 87.21 671.366 87.21C670.466 87.21 669.636 87.05 668.876 86.73C668.116 86.39 667.486 85.94 666.986 85.38V94.2H663.266ZM670.376 76.32C669.356 76.32 668.546 76.65 667.946 77.31C667.346 77.95 667.026 78.78 666.986 79.8V80.19C667.006 81.33 667.316 82.26 667.916 82.98C668.536 83.68 669.356 84.03 670.376 84.03C671.376 84.03 672.196 83.68 672.836 82.98C673.496 82.28 673.826 81.33 673.826 80.13C673.826 79.51 673.726 78.96 673.526 78.48C673.346 78 673.096 77.6 672.776 77.28C672.476 76.96 672.116 76.72 671.696 76.56C671.276 76.4 670.836 76.32 670.376 76.32ZM687.093 87.21C686.013 87.21 685.013 87.04 684.093 86.7C683.193 86.36 682.413 85.88 681.753 85.26C681.113 84.62 680.603 83.87 680.223 83.01C679.863 82.15 679.683 81.19 679.683 80.13C679.683 79.07 679.863 78.11 680.223 77.25C680.603 76.37 681.123 75.62 681.783 75C682.443 74.38 683.223 73.9 684.123 73.56C685.043 73.22 686.033 73.05 687.093 73.05C688.173 73.05 689.163 73.22 690.063 73.56C690.983 73.9 691.773 74.39 692.433 75.03C693.093 75.65 693.603 76.4 693.963 77.28C694.323 78.14 694.503 79.09 694.503 80.13C694.503 81.21 694.313 82.19 693.933 83.07C693.553 83.93 693.033 84.67 692.373 85.29C691.713 85.89 690.933 86.36 690.033 86.7C689.133 87.04 688.153 87.21 687.093 87.21ZM687.093 84.06C688.193 84.06 689.053 83.69 689.673 82.95C690.293 82.21 690.603 81.27 690.603 80.13C690.603 78.99 690.303 78.06 689.703 77.34C689.103 76.6 688.233 76.23 687.093 76.23C685.973 76.23 685.103 76.6 684.483 77.34C683.863 78.08 683.553 79.01 683.553 80.13C683.553 80.67 683.633 81.18 683.793 81.66C683.953 82.14 684.183 82.56 684.483 82.92C684.783 83.28 685.153 83.56 685.593 83.76C686.033 83.96 686.533 84.06 687.093 84.06ZM697.192 73.29H700.912V81.18L707.272 73.29H710.182V87H706.462V78.66L699.742 87H697.192V73.29ZM720.105 87.21C719.005 87.21 718.015 87.04 717.135 86.7C716.255 86.36 715.495 85.89 714.855 85.29C714.235 84.67 713.755 83.93 713.415 83.07C713.075 82.21 712.905 81.25 712.905 80.19C712.905 79.07 713.085 78.07 713.445 77.19C713.825 76.29 714.335 75.54 714.975 74.94C715.615 74.32 716.375 73.85 717.255 73.53C718.135 73.21 719.085 73.05 720.105 73.05C721.265 73.05 722.315 73.25 723.255 73.65C724.215 74.05 724.965 74.55 725.505 75.15L723.585 77.67C723.185 77.23 722.715 76.88 722.175 76.62C721.655 76.36 721.065 76.23 720.405 76.23C719.285 76.23 718.395 76.59 717.735 77.31C717.095 78.03 716.775 78.95 716.775 80.07C716.775 81.23 717.105 82.19 717.765 82.95C718.445 83.69 719.355 84.06 720.495 84.06C721.155 84.06 721.745 83.93 722.265 83.67C722.785 83.39 723.245 83.03 723.645 82.59L725.835 84.75C725.235 85.53 724.435 86.14 723.435 86.58C722.455 87 721.345 87.21 720.105 87.21ZM726.484 86.31L730.834 79.8L726.844 73.98V73.29H730.744L733.444 77.31L736.024 73.29H739.564V73.98L735.634 79.89L739.984 86.34L740.014 87H736.204L733.144 82.44L730.114 87H726.484V86.31ZM748.118 87.21C747.038 87.21 746.038 87.04 745.118 86.7C744.218 86.36 743.438 85.88 742.778 85.26C742.138 84.62 741.628 83.87 741.248 83.01C740.888 82.15 740.708 81.19 740.708 80.13C740.708 79.07 740.888 78.11 741.248 77.25C741.628 76.37 742.148 75.62 742.808 75C743.468 74.38 744.248 73.9 745.148 73.56C746.068 73.22 747.058 73.05 748.118 73.05C749.198 73.05 750.188 73.22 751.088 73.56C752.008 73.9 752.798 74.39 753.458 75.03C754.118 75.65 754.628 76.4 754.988 77.28C755.348 78.14 755.528 79.09 755.528 80.13C755.528 81.21 755.338 82.19 754.958 83.07C754.578 83.93 754.058 84.67 753.398 85.29C752.738 85.89 751.958 86.36 751.058 86.7C750.158 87.04 749.178 87.21 748.118 87.21ZM748.118 84.06C749.218 84.06 750.078 83.69 750.698 82.95C751.318 82.21 751.628 81.27 751.628 80.13C751.628 78.99 751.328 78.06 750.728 77.34C750.128 76.6 749.258 76.23 748.118 76.23C746.998 76.23 746.128 76.6 745.508 77.34C744.888 78.08 744.578 79.01 744.578 80.13C744.578 80.67 744.658 81.18 744.818 81.66C744.978 82.14 745.208 82.56 745.508 82.92C745.808 83.28 746.178 83.56 746.618 83.76C747.058 83.96 747.558 84.06 748.118 84.06ZM756.334 83.73H757.984C758.504 82.65 758.894 81.45 759.154 80.13C759.414 78.79 759.544 77.21 759.544 75.39V73.29H770.224V83.73H772.324V90.06H769.294V87H759.394V90.06H756.334V83.73ZM762.874 76.65C762.874 79.43 762.464 81.79 761.644 83.73H766.504V76.56H762.874V76.65ZM774.448 73.29H778.168V81.18L784.528 73.29H787.438V87H783.718V78.66L776.998 87H774.448V73.29ZM794.121 76.56H789.711V73.29H802.221V76.56H797.811V87H794.121V76.56ZM818.069 73.29H825.479C826.899 73.29 827.969 73.6 828.689 74.22C829.409 74.82 829.769 75.61 829.769 76.59C829.769 77.33 829.589 77.94 829.229 78.42C828.869 78.9 828.399 79.24 827.819 79.44C828.799 79.58 829.599 79.92 830.219 80.46C830.839 81 831.149 81.81 831.149 82.89C831.149 84.21 830.659 85.23 829.679 85.95C828.719 86.65 827.309 87 825.449 87H818.069V73.29ZM821.789 80.82V84.27H824.639C825.579 84.27 826.249 84.13 826.649 83.85C827.049 83.55 827.249 83.11 827.249 82.53C827.249 81.93 827.039 81.5 826.619 81.24C826.199 80.96 825.569 80.82 824.729 80.82H821.789ZM821.789 76.02V78.66H824.369C825.649 78.66 826.289 78.21 826.289 77.31C826.289 76.45 825.639 76.02 824.339 76.02H821.789ZM847.041 73.29H850.761V81.18L857.121 73.29H860.031V87H856.311V78.66L849.591 87H847.041V73.29ZM872.985 81.6H867.285V87H863.565V73.29H867.285V78.33H872.985V73.29H876.705V87H872.985V81.6ZM883.385 76.56H878.975V73.29H891.485V76.56H887.075V87H883.385V76.56ZM899.873 87.21C898.773 87.21 897.763 87.04 896.843 86.7C895.943 86.36 895.163 85.89 894.503 85.29C893.843 84.67 893.333 83.94 892.973 83.1C892.613 82.24 892.433 81.29 892.433 80.25C892.433 79.15 892.623 78.16 893.003 77.28C893.383 76.38 893.903 75.62 894.563 75C895.223 74.38 895.993 73.9 896.873 73.56C897.753 73.22 898.693 73.05 899.693 73.05C900.773 73.05 901.733 73.24 902.573 73.62C903.433 73.98 904.153 74.49 904.733 75.15C905.313 75.79 905.753 76.55 906.053 77.43C906.373 78.29 906.533 79.22 906.533 80.22V81H896.033C896.213 82.06 896.663 82.87 897.383 83.43C898.123 83.99 899.053 84.27 900.173 84.27C900.973 84.27 901.713 84.13 902.393 83.85C903.093 83.55 903.673 83.14 904.133 82.62L906.203 84.51C905.503 85.39 904.603 86.06 903.503 86.52C902.403 86.98 901.193 87.21 899.873 87.21ZM899.543 76.05C898.663 76.05 897.923 76.29 897.323 76.77C896.743 77.23 896.343 77.89 896.123 78.75H902.963C902.843 77.99 902.483 77.35 901.883 76.83C901.283 76.31 900.503 76.05 899.543 76.05ZM909.268 94.2V73.29H912.778V75.12C913.238 74.54 913.858 74.05 914.638 73.65C915.438 73.25 916.348 73.05 917.368 73.05C918.208 73.05 919.008 73.22 919.768 73.56C920.548 73.9 921.228 74.38 921.808 75C922.408 75.62 922.878 76.37 923.218 77.25C923.578 78.11 923.758 79.07 923.758 80.13C923.758 81.19 923.578 82.16 923.218 83.04C922.858 83.9 922.378 84.64 921.778 85.26C921.198 85.88 920.518 86.36 919.738 86.7C918.978 87.04 918.188 87.21 917.368 87.21C916.468 87.21 915.638 87.05 914.878 86.73C914.118 86.39 913.488 85.94 912.988 85.38V94.2H909.268ZM916.378 76.32C915.358 76.32 914.548 76.65 913.948 77.31C913.348 77.95 913.028 78.78 912.988 79.8V80.19C913.008 81.33 913.318 82.26 913.918 82.98C914.538 83.68 915.358 84.03 916.378 84.03C917.378 84.03 918.198 83.68 918.838 82.98C919.498 82.28 919.828 81.33 919.828 80.13C919.828 79.51 919.728 78.96 919.528 78.48C919.348 78 919.098 77.6 918.778 77.28C918.478 76.96 918.118 76.72 917.698 76.56C917.278 76.4 916.838 76.32 916.378 76.32ZM935.915 81.6H930.215V87H926.495V73.29H930.215V78.33H935.915V73.29H939.635V87H935.915V81.6ZM949.795 87.21C948.695 87.21 947.685 87.04 946.765 86.7C945.865 86.36 945.085 85.89 944.425 85.29C943.765 84.67 943.255 83.94 942.895 83.1C942.535 82.24 942.355 81.29 942.355 80.25C942.355 79.15 942.545 78.16 942.925 77.28C943.305 76.38 943.825 75.62 944.485 75C945.145 74.38 945.915 73.9 946.795 73.56C947.675 73.22 948.615 73.05 949.615 73.05C950.695 73.05 951.655 73.24 952.495 73.62C953.355 73.98 954.075 74.49 954.655 75.15C955.235 75.79 955.675 76.55 955.975 77.43C956.295 78.29 956.455 79.22 956.455 80.22V81H945.955C946.135 82.06 946.585 82.87 947.305 83.43C948.045 83.99 948.975 84.27 950.095 84.27C950.895 84.27 951.635 84.13 952.315 83.85C953.015 83.55 953.595 83.14 954.055 82.62L956.125 84.51C955.425 85.39 954.525 86.06 953.425 86.52C952.325 86.98 951.115 87.21 949.795 87.21ZM949.465 76.05C948.585 76.05 947.845 76.29 947.245 76.77C946.665 77.23 946.265 77.89 946.045 78.75H952.885C952.765 77.99 952.405 77.35 951.805 76.83C951.205 76.31 950.425 76.05 949.465 76.05ZM961.9 76.56H957.49V73.29H970V76.56H965.59V87H961.9V76.56ZM978.388 87.21C977.288 87.21 976.278 87.04 975.358 86.7C974.458 86.36 973.678 85.89 973.018 85.29C972.358 84.67 971.848 83.94 971.488 83.1C971.128 82.24 970.948 81.29 970.948 80.25C970.948 79.15 971.138 78.16 971.518 77.28C971.898 76.38 972.418 75.62 973.078 75C973.738 74.38 974.508 73.9 975.388 73.56C976.268 73.22 977.208 73.05 978.208 73.05C979.288 73.05 980.248 73.24 981.088 73.62C981.948 73.98 982.668 74.49 983.248 75.15C983.828 75.79 984.268 76.55 984.568 77.43C984.888 78.29 985.048 79.22 985.048 80.22V81H974.548C974.728 82.06 975.178 82.87 975.898 83.43C976.638 83.99 977.568 84.27 978.688 84.27C979.488 84.27 980.228 84.13 980.908 83.85C981.608 83.55 982.188 83.14 982.648 82.62L984.718 84.51C984.018 85.39 983.118 86.06 982.018 86.52C980.918 86.98 979.708 87.21 978.388 87.21ZM978.058 76.05C977.178 76.05 976.438 76.29 975.838 76.77C975.258 77.23 974.858 77.89 974.638 78.75H981.478C981.358 77.99 980.998 77.35 980.398 76.83C979.798 76.31 979.018 76.05 978.058 76.05ZM988.488 87.15C987.888 87.05 987.428 86.82 987.108 86.46C986.808 86.08 986.658 85.63 986.658 85.11C986.658 84.45 986.868 83.93 987.288 83.55C987.728 83.15 988.248 82.95 988.848 82.95C989.488 82.95 990.038 83.16 990.498 83.58C990.978 84 991.218 84.6 991.218 85.38C991.218 85.9 991.078 86.48 990.798 87.12C990.518 87.76 990.088 88.59 989.508 89.61L988.308 91.8H985.908L988.488 87.15ZM1014.8 87.21C1013.72 87.21 1012.72 87.04 1011.8 86.7C1010.9 86.36 1010.12 85.88 1009.46 85.26C1008.82 84.62 1008.31 83.87 1007.93 83.01C1007.57 82.15 1007.39 81.19 1007.39 80.13C1007.39 79.07 1007.57 78.11 1007.93 77.25C1008.31 76.37 1008.83 75.62 1009.49 75C1010.15 74.38 1010.93 73.9 1011.83 73.56C1012.75 73.22 1013.74 73.05 1014.8 73.05C1015.88 73.05 1016.87 73.22 1017.77 73.56C1018.69 73.9 1019.48 74.39 1020.14 75.03C1020.8 75.65 1021.31 76.4 1021.67 77.28C1022.03 78.14 1022.21 79.09 1022.21 80.13C1022.21 81.21 1022.02 82.19 1021.64 83.07C1021.26 83.93 1020.74 84.67 1020.08 85.29C1019.42 85.89 1018.64 86.36 1017.74 86.7C1016.84 87.04 1015.86 87.21 1014.8 87.21ZM1014.8 84.06C1015.9 84.06 1016.76 83.69 1017.38 82.95C1018 82.21 1018.31 81.27 1018.31 80.13C1018.31 78.99 1018.01 78.06 1017.41 77.34C1016.81 76.6 1015.94 76.23 1014.8 76.23C1013.68 76.23 1012.81 76.6 1012.19 77.34C1011.57 78.08 1011.26 79.01 1011.26 80.13C1011.26 80.67 1011.34 81.18 1011.5 81.66C1011.66 82.14 1011.89 82.56 1012.19 82.92C1012.49 83.28 1012.86 83.56 1013.3 83.76C1013.74 83.96 1014.24 84.06 1014.8 84.06ZM1034.32 81.6H1028.62V87H1024.9V73.29H1028.62V78.33H1034.32V73.29H1038.04V87H1034.32V81.6ZM1061.73 87.21C1060.65 87.21 1059.65 87.04 1058.73 86.7C1057.83 86.36 1057.05 85.88 1056.39 85.26C1055.75 84.62 1055.24 83.87 1054.86 83.01C1054.5 82.15 1054.32 81.19 1054.32 80.13C1054.32 79.07 1054.5 78.11 1054.86 77.25C1055.24 76.37 1055.76 75.62 1056.42 75C1057.08 74.38 1057.86 73.9 1058.76 73.56C1059.68 73.22 1060.67 73.05 1061.73 73.05C1062.81 73.05 1063.8 73.22 1064.7 73.56C1065.62 73.9 1066.41 74.39 1067.07 75.03C1067.73 75.65 1068.24 76.4 1068.6 77.28C1068.96 78.14 1069.14 79.09 1069.14 80.13C1069.14 81.21 1068.95 82.19 1068.57 83.07C1068.19 83.93 1067.67 84.67 1067.01 85.29C1066.35 85.89 1065.57 86.36 1064.67 86.7C1063.77 87.04 1062.79 87.21 1061.73 87.21ZM1061.73 84.06C1062.83 84.06 1063.69 83.69 1064.31 82.95C1064.93 82.21 1065.24 81.27 1065.24 80.13C1065.24 78.99 1064.94 78.06 1064.34 77.34C1063.74 76.6 1062.87 76.23 1061.73 76.23C1060.61 76.23 1059.74 76.6 1059.12 77.34C1058.5 78.08 1058.19 79.01 1058.19 80.13C1058.19 80.67 1058.27 81.18 1058.43 81.66C1058.59 82.14 1058.82 82.56 1059.12 82.92C1059.42 83.28 1059.79 83.56 1060.23 83.76C1060.67 83.96 1061.17 84.06 1061.73 84.06ZM1078.67 87.27C1076.01 87.27 1074.07 86.44 1072.85 84.78C1071.63 83.12 1071.02 80.63 1071.02 77.31C1071.02 75.39 1071.22 73.75 1071.62 72.39C1072.02 71.01 1072.59 69.89 1073.33 69.03C1074.09 68.15 1075 67.51 1076.06 67.11C1077.14 66.69 1078.34 66.48 1079.66 66.48C1080.42 66.48 1081 66.41 1081.4 66.27C1081.8 66.11 1082.1 65.81 1082.3 65.37L1085.24 66.24C1085.08 66.82 1084.88 67.32 1084.64 67.74C1084.42 68.14 1084.11 68.48 1083.71 68.76C1083.31 69.04 1082.8 69.26 1082.18 69.42C1081.56 69.56 1080.77 69.66 1079.81 69.72C1078.89 69.78 1078.09 69.9 1077.41 70.08C1076.75 70.26 1076.19 70.58 1075.73 71.04C1075.29 71.48 1074.94 72.1 1074.68 72.9C1074.44 73.7 1074.28 74.74 1074.2 76.02C1074.78 74.94 1075.52 74.19 1076.42 73.77C1077.34 73.33 1078.34 73.11 1079.42 73.11C1080.42 73.11 1081.32 73.27 1082.12 73.59C1082.94 73.91 1083.63 74.37 1084.19 74.97C1084.75 75.57 1085.18 76.29 1085.48 77.13C1085.78 77.95 1085.93 78.87 1085.93 79.89C1085.93 81.01 1085.75 82.03 1085.39 82.95C1085.03 83.85 1084.53 84.62 1083.89 85.26C1083.25 85.9 1082.48 86.4 1081.58 86.76C1080.7 87.1 1079.73 87.27 1078.67 87.27ZM1078.58 84C1079.6 84 1080.42 83.66 1081.04 82.98C1081.68 82.28 1082 81.32 1082 80.1C1082 78.9 1081.7 77.96 1081.1 77.28C1080.52 76.58 1079.69 76.23 1078.61 76.23C1077.55 76.23 1076.71 76.57 1076.09 77.25C1075.47 77.93 1075.16 78.88 1075.16 80.1C1075.16 81.3 1075.47 82.25 1076.09 82.95C1076.71 83.65 1077.54 84 1078.58 84ZM1089.8 93.75L1092.11 87.15L1086.5 73.98V73.29H1090.22L1093.85 82.26L1097.03 73.29H1100.39L1100.36 73.98L1093.16 94.2H1089.8V93.75ZM1110.22 82.02C1109.82 82.2 1109.35 82.35 1108.81 82.47C1108.29 82.57 1107.7 82.62 1107.04 82.62C1106.2 82.62 1105.44 82.52 1104.76 82.32C1104.1 82.12 1103.53 81.8 1103.05 81.36C1102.57 80.92 1102.2 80.35 1101.94 79.65C1101.7 78.95 1101.58 78.1 1101.58 77.1V73.29H1105.3V76.95C1105.3 77.73 1105.48 78.33 1105.84 78.75C1106.2 79.15 1106.92 79.35 1108 79.35C1108.82 79.35 1109.56 79.25 1110.22 79.05V73.29H1113.94V87H1110.22V82.02ZM1122.88 87.21C1122.06 87.21 1121.26 87.04 1120.48 86.7C1119.72 86.36 1119.04 85.88 1118.44 85.26C1117.86 84.64 1117.39 83.9 1117.03 83.04C1116.67 82.16 1116.49 81.19 1116.49 80.13C1116.49 79.07 1116.66 78.11 1117 77.25C1117.36 76.37 1117.83 75.62 1118.41 75C1119.01 74.38 1119.69 73.9 1120.45 73.56C1121.23 73.22 1122.04 73.05 1122.88 73.05C1123.9 73.05 1124.8 73.25 1125.58 73.65C1126.38 74.05 1127.01 74.54 1127.47 75.12V73.29H1130.98V87H1127.47V85.14C1126.97 85.76 1126.32 86.26 1125.52 86.64C1124.72 87.02 1123.84 87.21 1122.88 87.21ZM1123.87 84.03C1124.89 84.03 1125.7 83.68 1126.3 82.98C1126.92 82.26 1127.24 81.33 1127.26 80.19V79.95C1127.26 78.89 1126.95 78.02 1126.33 77.34C1125.71 76.66 1124.89 76.32 1123.87 76.32C1123.41 76.32 1122.97 76.4 1122.55 76.56C1122.13 76.72 1121.76 76.96 1121.44 77.28C1121.12 77.6 1120.87 78 1120.69 78.48C1120.51 78.96 1120.42 79.51 1120.42 80.13C1120.42 81.33 1120.74 82.28 1121.38 82.98C1122.04 83.68 1122.87 84.03 1123.87 84.03ZM1141.16 87.21C1140.06 87.21 1139.05 87.04 1138.13 86.7C1137.23 86.36 1136.45 85.89 1135.79 85.29C1135.13 84.67 1134.62 83.94 1134.26 83.1C1133.9 82.24 1133.72 81.29 1133.72 80.25C1133.72 79.15 1133.91 78.16 1134.29 77.28C1134.67 76.38 1135.19 75.62 1135.85 75C1136.51 74.38 1137.28 73.9 1138.16 73.56C1139.04 73.22 1139.98 73.05 1140.98 73.05C1142.06 73.05 1143.02 73.24 1143.86 73.62C1144.72 73.98 1145.44 74.49 1146.02 75.15C1146.6 75.79 1147.04 76.55 1147.34 77.43C1147.66 78.29 1147.82 79.22 1147.82 80.22V81H1137.32C1137.5 82.06 1137.95 82.87 1138.67 83.43C1139.41 83.99 1140.34 84.27 1141.46 84.27C1142.26 84.27 1143 84.13 1143.68 83.85C1144.38 83.55 1144.96 83.14 1145.42 82.62L1147.49 84.51C1146.79 85.39 1145.89 86.06 1144.79 86.52C1143.69 86.98 1142.48 87.21 1141.16 87.21ZM1140.83 76.05C1139.95 76.05 1139.21 76.29 1138.61 76.77C1138.03 77.23 1137.63 77.89 1137.41 78.75H1144.25C1144.13 77.99 1143.77 77.35 1143.17 76.83C1142.57 76.31 1141.79 76.05 1140.83 76.05ZM1151.76 73.29H1154.94L1158.57 81.24L1161.99 73.29H1165.26L1167.54 87H1164.06L1162.74 78.99L1159.2 87H1157.61L1154.04 79.14L1152.75 87H1149.45L1151.76 73.29ZM1172.13 87.3C1171.43 87.3 1170.89 87.1 1170.51 86.7C1170.15 86.28 1169.97 85.78 1169.97 85.2C1169.97 84.58 1170.15 84.06 1170.51 83.64C1170.87 83.22 1171.41 83.01 1172.13 83.01C1172.85 83.01 1173.4 83.22 1173.78 83.64C1174.16 84.06 1174.35 84.58 1174.35 85.2C1174.35 85.78 1174.15 86.28 1173.75 86.7C1173.37 87.1 1172.83 87.3 1172.13 87.3ZM185.46 102H201.99V123H197.97V105.45H189.48V123H185.46V102ZM206.01 130.2V109.29H209.52V111.12C209.98 110.54 210.6 110.05 211.38 109.65C212.18 109.25 213.09 109.05 214.11 109.05C214.95 109.05 215.75 109.22 216.51 109.56C217.29 109.9 217.97 110.38 218.55 111C219.15 111.62 219.62 112.37 219.96 113.25C220.32 114.11 220.5 115.07 220.5 116.13C220.5 117.19 220.32 118.16 219.96 119.04C219.6 119.9 219.12 120.64 218.52 121.26C217.94 121.88 217.26 122.36 216.48 122.7C215.72 123.04 214.93 123.21 214.11 123.21C213.21 123.21 212.38 123.05 211.62 122.73C210.86 122.39 210.23 121.94 209.73 121.38V130.2H206.01ZM213.12 112.32C212.1 112.32 211.29 112.65 210.69 113.31C210.09 113.95 209.77 114.78 209.73 115.8V116.19C209.75 117.33 210.06 118.26 210.66 118.98C211.28 119.68 212.1 120.03 213.12 120.03C214.12 120.03 214.94 119.68 215.58 118.98C216.24 118.28 216.57 117.33 216.57 116.13C216.57 115.51 216.47 114.96 216.27 114.48C216.09 114 215.84 113.6 215.52 113.28C215.22 112.96 214.86 112.72 214.44 112.56C214.02 112.4 213.58 112.32 213.12 112.32ZM229.867 123.21C228.767 123.21 227.757 123.04 226.837 122.7C225.937 122.36 225.157 121.89 224.497 121.29C223.837 120.67 223.327 119.94 222.967 119.1C222.607 118.24 222.427 117.29 222.427 116.25C222.427 115.15 222.617 114.16 222.997 113.28C223.377 112.38 223.897 111.62 224.557 111C225.217 110.38 225.987 109.9 226.867 109.56C227.747 109.22 228.687 109.05 229.687 109.05C230.767 109.05 231.727 109.24 232.567 109.62C233.427 109.98 234.147 110.49 234.727 111.15C235.307 111.79 235.747 112.55 236.047 113.43C236.367 114.29 236.527 115.22 236.527 116.22V117H226.027C226.207 118.06 226.657 118.87 227.377 119.43C228.117 119.99 229.047 120.27 230.167 120.27C230.967 120.27 231.707 120.13 232.387 119.85C233.087 119.55 233.667 119.14 234.127 118.62L236.197 120.51C235.497 121.39 234.597 122.06 233.497 122.52C232.397 122.98 231.187 123.21 229.867 123.21ZM229.537 112.05C228.657 112.05 227.917 112.29 227.317 112.77C226.737 113.23 226.337 113.89 226.117 114.75H232.957C232.837 113.99 232.477 113.35 231.877 112.83C231.277 112.31 230.497 112.05 229.537 112.05ZM239.262 109.29H252.162V123H248.472V112.56H242.982V123H239.262V109.29ZM262.327 123.21C261.247 123.21 260.247 123.04 259.327 122.7C258.427 122.36 257.647 121.88 256.987 121.26C256.347 120.62 255.837 119.87 255.457 119.01C255.097 118.15 254.917 117.19 254.917 116.13C254.917 115.07 255.097 114.11 255.457 113.25C255.837 112.37 256.357 111.62 257.017 111C257.677 110.38 258.457 109.9 259.357 109.56C260.277 109.22 261.267 109.05 262.327 109.05C263.407 109.05 264.397 109.22 265.297 109.56C266.217 109.9 267.007 110.39 267.667 111.03C268.327 111.65 268.837 112.4 269.197 113.28C269.557 114.14 269.737 115.09 269.737 116.13C269.737 117.21 269.547 118.19 269.167 119.07C268.787 119.93 268.267 120.67 267.607 121.29C266.947 121.89 266.167 122.36 265.267 122.7C264.367 123.04 263.387 123.21 262.327 123.21ZM262.327 120.06C263.427 120.06 264.287 119.69 264.907 118.95C265.527 118.21 265.837 117.27 265.837 116.13C265.837 114.99 265.537 114.06 264.937 113.34C264.337 112.6 263.467 112.23 262.327 112.23C261.207 112.23 260.337 112.6 259.717 113.34C259.097 114.08 258.787 115.01 258.787 116.13C258.787 116.67 258.867 117.18 259.027 117.66C259.187 118.14 259.417 118.56 259.717 118.92C260.017 119.28 260.387 119.56 260.827 119.76C261.267 119.96 261.767 120.06 262.327 120.06ZM270.543 119.73H272.193C272.713 118.65 273.103 117.45 273.363 116.13C273.623 114.79 273.753 113.21 273.753 111.39V109.29H284.433V119.73H286.533V126.06H283.503V123H273.603V126.06H270.543V119.73ZM277.083 112.65C277.083 115.43 276.673 117.79 275.853 119.73H280.713V112.56H277.083V112.65ZM293.944 123.21C293.124 123.21 292.324 123.04 291.544 122.7C290.784 122.36 290.104 121.88 289.504 121.26C288.924 120.64 288.454 119.9 288.094 119.04C287.734 118.16 287.554 117.19 287.554 116.13C287.554 115.07 287.724 114.11 288.064 113.25C288.424 112.37 288.894 111.62 289.474 111C290.074 110.38 290.754 109.9 291.514 109.56C292.294 109.22 293.104 109.05 293.944 109.05C294.964 109.05 295.864 109.25 296.644 109.65C297.444 110.05 298.074 110.54 298.534 111.12V109.29H302.044V123H298.534V121.14C298.034 121.76 297.384 122.26 296.584 122.64C295.784 123.02 294.904 123.21 293.944 123.21ZM294.934 120.03C295.954 120.03 296.764 119.68 297.364 118.98C297.984 118.26 298.304 117.33 298.324 116.19V115.95C298.324 114.89 298.014 114.02 297.394 113.34C296.774 112.66 295.954 112.32 294.934 112.32C294.474 112.32 294.034 112.4 293.614 112.56C293.194 112.72 292.824 112.96 292.504 113.28C292.184 113.6 291.934 114 291.754 114.48C291.574 114.96 291.484 115.51 291.484 116.13C291.484 117.33 291.804 118.28 292.444 118.98C293.104 119.68 293.934 120.03 294.934 120.03ZM305.59 109.29H313C314.42 109.29 315.49 109.6 316.21 110.22C316.93 110.82 317.29 111.61 317.29 112.59C317.29 113.33 317.11 113.94 316.75 114.42C316.39 114.9 315.92 115.24 315.34 115.44C316.32 115.58 317.12 115.92 317.74 116.46C318.36 117 318.67 117.81 318.67 118.89C318.67 120.21 318.18 121.23 317.2 121.95C316.24 122.65 314.83 123 312.97 123H305.59V109.29ZM309.31 116.82V120.27H312.16C313.1 120.27 313.77 120.13 314.17 119.85C314.57 119.55 314.77 119.11 314.77 118.53C314.77 117.93 314.56 117.5 314.14 117.24C313.72 116.96 313.09 116.82 312.25 116.82H309.31ZM309.31 112.02V114.66H311.89C313.17 114.66 313.81 114.21 313.81 113.31C313.81 112.45 313.16 112.02 311.86 112.02H309.31ZM326.58 123.21C325.76 123.21 324.96 123.04 324.18 122.7C323.42 122.36 322.74 121.88 322.14 121.26C321.56 120.64 321.09 119.9 320.73 119.04C320.37 118.16 320.19 117.19 320.19 116.13C320.19 115.07 320.36 114.11 320.7 113.25C321.06 112.37 321.53 111.62 322.11 111C322.71 110.38 323.39 109.9 324.15 109.56C324.93 109.22 325.74 109.05 326.58 109.05C327.6 109.05 328.5 109.25 329.28 109.65C330.08 110.05 330.71 110.54 331.17 111.12V109.29H334.68V123H331.17V121.14C330.67 121.76 330.02 122.26 329.22 122.64C328.42 123.02 327.54 123.21 326.58 123.21ZM327.57 120.03C328.59 120.03 329.4 119.68 330 118.98C330.62 118.26 330.94 117.33 330.96 116.19V115.95C330.96 114.89 330.65 114.02 330.03 113.34C329.41 112.66 328.59 112.32 327.57 112.32C327.11 112.32 326.67 112.4 326.25 112.56C325.83 112.72 325.46 112.96 325.14 113.28C324.82 113.6 324.57 114 324.39 114.48C324.21 114.96 324.12 115.51 324.12 116.13C324.12 117.33 324.44 118.28 325.08 118.98C325.74 119.68 326.57 120.03 327.57 120.03ZM341.377 112.56H336.967V109.29H349.477V112.56H345.067V123H341.377V112.56ZM357.865 123.21C356.765 123.21 355.755 123.04 354.835 122.7C353.935 122.36 353.155 121.89 352.495 121.29C351.835 120.67 351.325 119.94 350.965 119.1C350.605 118.24 350.425 117.29 350.425 116.25C350.425 115.15 350.615 114.16 350.995 113.28C351.375 112.38 351.895 111.62 352.555 111C353.215 110.38 353.985 109.9 354.865 109.56C355.745 109.22 356.685 109.05 357.685 109.05C358.765 109.05 359.725 109.24 360.565 109.62C361.425 109.98 362.145 110.49 362.725 111.15C363.305 111.79 363.745 112.55 364.045 113.43C364.365 114.29 364.525 115.22 364.525 116.22V117H354.025C354.205 118.06 354.655 118.87 355.375 119.43C356.115 119.99 357.045 120.27 358.165 120.27C358.965 120.27 359.705 120.13 360.385 119.85C361.085 119.55 361.665 119.14 362.125 118.62L364.195 120.51C363.495 121.39 362.595 122.06 361.495 122.52C360.395 122.98 359.185 123.21 357.865 123.21ZM357.535 112.05C356.655 112.05 355.915 112.29 355.315 112.77C354.735 113.23 354.335 113.89 354.115 114.75H360.955C360.835 113.99 360.475 113.35 359.875 112.83C359.275 112.31 358.495 112.05 357.535 112.05ZM366.664 123.3C366.444 123.3 366.244 123.29 366.064 123.27C365.904 123.25 365.764 123.23 365.644 123.21V119.64C365.844 119.68 366.004 119.7 366.124 119.7C366.464 119.7 366.754 119.58 366.994 119.34C367.234 119.08 367.424 118.67 367.564 118.11C367.724 117.53 367.834 116.78 367.894 115.86C367.974 114.94 368.014 113.82 368.014 112.5V109.29H378.424V123H374.734V112.56H371.434V114.18C371.434 115.9 371.324 117.34 371.104 118.5C370.904 119.66 370.594 120.6 370.174 121.32C369.774 122.02 369.274 122.53 368.674 122.85C368.094 123.15 367.424 123.3 366.664 123.3ZM381.157 122.49L384.067 118.14C382.467 117.38 381.667 116.03 381.667 114.09C381.667 112.51 382.177 111.32 383.197 110.52C384.237 109.7 385.847 109.29 388.027 109.29H393.967V123H390.247V118.8H387.907L385.207 123H381.157V122.49ZM390.247 116.16V112.17H388.267C387.307 112.17 386.597 112.31 386.137 112.59C385.677 112.85 385.447 113.36 385.447 114.12C385.447 114.88 385.647 115.41 386.047 115.71C386.467 116.01 387.177 116.16 388.177 116.16H390.247ZM423.66 117.42H409.65V114.39H423.66V117.42ZM448.775 117.6H443.075V123H439.355V109.29H443.075V114.33H448.775V109.29H452.495V123H448.775V117.6ZM462.655 123.21C461.555 123.21 460.545 123.04 459.625 122.7C458.725 122.36 457.945 121.89 457.285 121.29C456.625 120.67 456.115 119.94 455.755 119.1C455.395 118.24 455.215 117.29 455.215 116.25C455.215 115.15 455.405 114.16 455.785 113.28C456.165 112.38 456.685 111.62 457.345 111C458.005 110.38 458.775 109.9 459.655 109.56C460.535 109.22 461.475 109.05 462.475 109.05C463.555 109.05 464.515 109.24 465.355 109.62C466.215 109.98 466.935 110.49 467.515 111.15C468.095 111.79 468.535 112.55 468.835 113.43C469.155 114.29 469.315 115.22 469.315 116.22V117H458.815C458.995 118.06 459.445 118.87 460.165 119.43C460.905 119.99 461.835 120.27 462.955 120.27C463.755 120.27 464.495 120.13 465.175 119.85C465.875 119.55 466.455 119.14 466.915 118.62L468.985 120.51C468.285 121.39 467.385 122.06 466.285 122.52C465.185 122.98 463.975 123.21 462.655 123.21ZM462.325 112.05C461.445 112.05 460.705 112.29 460.105 112.77C459.525 113.23 459.125 113.89 458.905 114.75H465.745C465.625 113.99 465.265 113.35 464.665 112.83C464.065 112.31 463.285 112.05 462.325 112.05ZM474.761 112.56H470.351V109.29H482.861V112.56H478.451V123H474.761V112.56ZM484.474 123.15C483.874 123.05 483.414 122.82 483.094 122.46C482.794 122.08 482.644 121.63 482.644 121.11C482.644 120.45 482.854 119.93 483.274 119.55C483.714 119.15 484.234 118.95 484.834 118.95C485.474 118.95 486.024 119.16 486.484 119.58C486.964 120 487.204 120.6 487.204 121.38C487.204 121.9 487.064 122.48 486.784 123.12C486.504 123.76 486.074 124.59 485.494 125.61L484.294 127.8H481.894L484.474 123.15ZM502.81 109.29H515.71V123H512.02V112.56H506.53V123H502.81V109.29ZM525.875 123.21C524.795 123.21 523.795 123.04 522.875 122.7C521.975 122.36 521.195 121.88 520.535 121.26C519.895 120.62 519.385 119.87 519.005 119.01C518.645 118.15 518.465 117.19 518.465 116.13C518.465 115.07 518.645 114.11 519.005 113.25C519.385 112.37 519.905 111.62 520.565 111C521.225 110.38 522.005 109.9 522.905 109.56C523.825 109.22 524.815 109.05 525.875 109.05C526.955 109.05 527.945 109.22 528.845 109.56C529.765 109.9 530.555 110.39 531.215 111.03C531.875 111.65 532.385 112.4 532.745 113.28C533.105 114.14 533.285 115.09 533.285 116.13C533.285 117.21 533.095 118.19 532.715 119.07C532.335 119.93 531.815 120.67 531.155 121.29C530.495 121.89 529.715 122.36 528.815 122.7C527.915 123.04 526.935 123.21 525.875 123.21ZM525.875 120.06C526.975 120.06 527.835 119.69 528.455 118.95C529.075 118.21 529.385 117.27 529.385 116.13C529.385 114.99 529.085 114.06 528.485 113.34C527.885 112.6 527.015 112.23 525.875 112.23C524.755 112.23 523.885 112.6 523.265 113.34C522.645 114.08 522.335 115.01 522.335 116.13C522.335 116.67 522.415 117.18 522.575 117.66C522.735 118.14 522.965 118.56 523.265 118.92C523.565 119.28 523.935 119.56 524.375 119.76C524.815 119.96 525.315 120.06 525.875 120.06ZM538.685 112.56H534.275V109.29H546.785V112.56H542.375V123H538.685V112.56ZM555.143 123.21C554.063 123.21 553.063 123.04 552.143 122.7C551.243 122.36 550.463 121.88 549.803 121.26C549.163 120.62 548.653 119.87 548.273 119.01C547.913 118.15 547.733 117.19 547.733 116.13C547.733 115.07 547.913 114.11 548.273 113.25C548.653 112.37 549.173 111.62 549.833 111C550.493 110.38 551.273 109.9 552.173 109.56C553.093 109.22 554.083 109.05 555.143 109.05C556.223 109.05 557.213 109.22 558.113 109.56C559.033 109.9 559.823 110.39 560.483 111.03C561.143 111.65 561.653 112.4 562.013 113.28C562.373 114.14 562.553 115.09 562.553 116.13C562.553 117.21 562.363 118.19 561.983 119.07C561.603 119.93 561.083 120.67 560.423 121.29C559.763 121.89 558.983 122.36 558.083 122.7C557.183 123.04 556.203 123.21 555.143 123.21ZM555.143 120.06C556.243 120.06 557.103 119.69 557.723 118.95C558.343 118.21 558.653 117.27 558.653 116.13C558.653 114.99 558.353 114.06 557.753 113.34C557.153 112.6 556.283 112.23 555.143 112.23C554.023 112.23 553.153 112.6 552.533 113.34C551.913 114.08 551.603 115.01 551.603 116.13C551.603 116.67 551.683 117.18 551.843 117.66C552.003 118.14 552.233 118.56 552.533 118.92C552.833 119.28 553.203 119.56 553.643 119.76C554.083 119.96 554.583 120.06 555.143 120.06ZM566.445 109.29H569.625L573.255 117.24L576.675 109.29H579.945L582.225 123H578.745L577.425 114.99L573.885 123H572.295L568.725 115.14L567.435 123H564.135L566.445 109.29ZM585.761 129.75L588.071 123.15L582.461 109.98V109.29H586.181L589.811 118.26L592.991 109.29H596.351L596.321 109.98L589.121 130.2H585.761V129.75ZM618.363 118.02C617.963 118.2 617.493 118.35 616.953 118.47C616.433 118.57 615.843 118.62 615.183 118.62C614.343 118.62 613.583 118.52 612.903 118.32C612.243 118.12 611.673 117.8 611.193 117.36C610.713 116.92 610.343 116.35 610.083 115.65C609.843 114.95 609.723 114.1 609.723 113.1V109.29H613.443V112.95C613.443 113.73 613.623 114.33 613.983 114.75C614.343 115.15 615.063 115.35 616.143 115.35C616.963 115.35 617.703 115.25 618.363 115.05V109.29H622.083V123H618.363V118.02ZM628.595 112.56H624.185V109.29H636.695V112.56H632.285V123H628.595V112.56ZM645.053 123.21C643.973 123.21 642.973 123.04 642.053 122.7C641.153 122.36 640.373 121.88 639.713 121.26C639.073 120.62 638.563 119.87 638.183 119.01C637.823 118.15 637.643 117.19 637.643 116.13C637.643 115.07 637.823 114.11 638.183 113.25C638.563 112.37 639.083 111.62 639.743 111C640.403 110.38 641.183 109.9 642.083 109.56C643.003 109.22 643.993 109.05 645.053 109.05C646.133 109.05 647.123 109.22 648.023 109.56C648.943 109.9 649.733 110.39 650.393 111.03C651.053 111.65 651.563 112.4 651.923 113.28C652.283 114.14 652.463 115.09 652.463 116.13C652.463 117.21 652.273 118.19 651.893 119.07C651.513 119.93 650.993 120.67 650.333 121.29C649.673 121.89 648.893 122.36 647.993 122.7C647.093 123.04 646.113 123.21 645.053 123.21ZM645.053 120.06C646.153 120.06 647.013 119.69 647.633 118.95C648.253 118.21 648.563 117.27 648.563 116.13C648.563 114.99 648.263 114.06 647.663 113.34C647.063 112.6 646.193 112.23 645.053 112.23C643.933 112.23 643.063 112.6 642.443 113.34C641.823 114.08 641.513 115.01 641.513 116.13C641.513 116.67 641.593 117.18 641.753 117.66C641.913 118.14 642.143 118.56 642.443 118.92C642.743 119.28 643.113 119.56 643.553 119.76C643.993 119.96 644.493 120.06 645.053 120.06ZM667.337 109.29H676.847V112.56H671.057V123H667.337V109.29ZM681.645 129.75L683.955 123.15L678.345 109.98V109.29H682.065L685.695 118.26L688.875 109.29H692.235L692.205 109.98L685.005 130.2H681.645V129.75ZM694.791 109.29H697.971L701.601 117.24L705.021 109.29H708.291L710.571 123H707.091L705.771 114.99L702.231 123H700.641L697.071 115.14L695.781 123H692.481L694.791 109.29ZM718.503 123.21C717.683 123.21 716.883 123.04 716.103 122.7C715.343 122.36 714.663 121.88 714.063 121.26C713.483 120.64 713.013 119.9 712.653 119.04C712.293 118.16 712.113 117.19 712.113 116.13C712.113 115.07 712.283 114.11 712.623 113.25C712.983 112.37 713.453 111.62 714.033 111C714.633 110.38 715.313 109.9 716.073 109.56C716.853 109.22 717.663 109.05 718.503 109.05C719.523 109.05 720.423 109.25 721.203 109.65C722.003 110.05 722.633 110.54 723.093 111.12V109.29H726.603V123H723.093V121.14C722.593 121.76 721.943 122.26 721.143 122.64C720.343 123.02 719.463 123.21 718.503 123.21ZM719.493 120.03C720.513 120.03 721.323 119.68 721.923 118.98C722.543 118.26 722.863 117.33 722.883 116.19V115.95C722.883 114.89 722.573 114.02 721.953 113.34C721.333 112.66 720.513 112.32 719.493 112.32C719.033 112.32 718.593 112.4 718.173 112.56C717.753 112.72 717.383 112.96 717.063 113.28C716.743 113.6 716.493 114 716.313 114.48C716.133 114.96 716.043 115.51 716.043 116.13C716.043 117.33 716.363 118.28 717.003 118.98C717.663 119.68 718.493 120.03 719.493 120.03ZM739.57 117.6H733.87V123H730.15V109.29H733.87V114.33H739.57V109.29H743.29V123H739.57V117.6ZM746.82 109.29H750.54V117.18L756.9 109.29H759.81V123H756.09V114.66L749.37 123H746.82V109.29ZM769.733 123.21C768.633 123.21 767.643 123.04 766.763 122.7C765.883 122.36 765.123 121.89 764.483 121.29C763.863 120.67 763.383 119.93 763.043 119.07C762.703 118.21 762.533 117.25 762.533 116.19C762.533 115.07 762.713 114.07 763.073 113.19C763.453 112.29 763.963 111.54 764.603 110.94C765.243 110.32 766.003 109.85 766.883 109.53C767.763 109.21 768.713 109.05 769.733 109.05C770.893 109.05 771.943 109.25 772.883 109.65C773.843 110.05 774.593 110.55 775.133 111.15L773.213 113.67C772.813 113.23 772.343 112.88 771.803 112.62C771.283 112.36 770.693 112.23 770.033 112.23C768.913 112.23 768.023 112.59 767.363 113.31C766.723 114.03 766.403 114.95 766.403 116.07C766.403 117.23 766.733 118.19 767.393 118.95C768.073 119.69 768.983 120.06 770.123 120.06C770.783 120.06 771.373 119.93 771.893 119.67C772.413 119.39 772.873 119.03 773.273 118.59L775.463 120.75C774.863 121.53 774.063 122.14 773.063 122.58C772.083 123 770.973 123.21 769.733 123.21ZM780.848 112.56H776.438V109.29H788.948V112.56H784.538V123H780.848V112.56ZM791.234 109.29H794.954V117.18L801.314 109.29H804.224V123H800.504V114.66L793.784 123H791.234V109.29ZM815.617 118.02C815.217 118.2 814.747 118.35 814.207 118.47C813.687 118.57 813.097 118.62 812.437 118.62C811.597 118.62 810.837 118.52 810.157 118.32C809.497 118.12 808.927 117.8 808.447 117.36C807.967 116.92 807.597 116.35 807.337 115.65C807.097 114.95 806.977 114.1 806.977 113.1V109.29H810.697V112.95C810.697 113.73 810.877 114.33 811.237 114.75C811.597 115.15 812.317 115.35 813.397 115.35C814.217 115.35 814.957 115.25 815.617 115.05V109.29H819.337V123H815.617V118.02ZM829.328 123.21C828.228 123.21 827.218 123.04 826.298 122.7C825.398 122.36 824.618 121.89 823.958 121.29C823.298 120.67 822.788 119.94 822.428 119.1C822.068 118.24 821.888 117.29 821.888 116.25C821.888 115.15 822.078 114.16 822.458 113.28C822.838 112.38 823.358 111.62 824.018 111C824.678 110.38 825.448 109.9 826.328 109.56C827.208 109.22 828.148 109.05 829.148 109.05C830.228 109.05 831.188 109.24 832.028 109.62C832.888 109.98 833.608 110.49 834.188 111.15C834.768 111.79 835.208 112.55 835.508 113.43C835.828 114.29 835.988 115.22 835.988 116.22V117H825.488C825.668 118.06 826.118 118.87 826.838 119.43C827.578 119.99 828.508 120.27 829.628 120.27C830.428 120.27 831.168 120.13 831.848 119.85C832.548 119.55 833.128 119.14 833.588 118.62L835.658 120.51C834.958 121.39 834.058 122.06 832.958 122.52C831.858 122.98 830.648 123.21 829.328 123.21ZM828.998 112.05C828.118 112.05 827.378 112.29 826.778 112.77C826.198 113.23 825.798 113.89 825.578 114.75H832.418C832.298 113.99 831.938 113.35 831.338 112.83C830.738 112.31 829.958 112.05 828.998 112.05ZM845.114 123.21C844.014 123.21 843.024 123.04 842.144 122.7C841.264 122.36 840.504 121.89 839.864 121.29C839.244 120.67 838.764 119.93 838.424 119.07C838.084 118.21 837.914 117.25 837.914 116.19C837.914 115.07 838.094 114.07 838.454 113.19C838.834 112.29 839.344 111.54 839.984 110.94C840.624 110.32 841.384 109.85 842.264 109.53C843.144 109.21 844.094 109.05 845.114 109.05C846.274 109.05 847.324 109.25 848.264 109.65C849.224 110.05 849.974 110.55 850.514 111.15L848.594 113.67C848.194 113.23 847.724 112.88 847.184 112.62C846.664 112.36 846.074 112.23 845.414 112.23C844.294 112.23 843.404 112.59 842.744 113.31C842.104 114.03 841.784 114.95 841.784 116.07C841.784 117.23 842.114 118.19 842.774 118.95C843.454 119.69 844.364 120.06 845.504 120.06C846.164 120.06 846.754 119.93 847.274 119.67C847.794 119.39 848.254 119.03 848.654 118.59L850.844 120.75C850.244 121.53 849.444 122.14 848.444 122.58C847.464 123 846.354 123.21 845.114 123.21ZM853.079 109.29H856.799V114.33H858.239L861.539 109.29H865.409V109.8L861.329 115.53L866.429 122.49V123H862.289L858.149 117.15H856.799V123H853.079V109.29ZM868.167 109.29H871.887V117.18L878.247 109.29H881.157V123H877.437V114.66L870.717 123H868.167V109.29ZM891.321 123.21C890.221 123.21 889.211 123.04 888.291 122.7C887.391 122.36 886.611 121.89 885.951 121.29C885.291 120.67 884.781 119.94 884.421 119.1C884.061 118.24 883.881 117.29 883.881 116.25C883.881 115.15 884.071 114.16 884.451 113.28C884.831 112.38 885.351 111.62 886.011 111C886.671 110.38 887.441 109.9 888.321 109.56C889.201 109.22 890.141 109.05 891.141 109.05C892.221 109.05 893.181 109.24 894.021 109.62C894.881 109.98 895.601 110.49 896.181 111.15C896.761 111.79 897.201 112.55 897.501 113.43C897.821 114.29 897.981 115.22 897.981 116.22V117H887.481C887.661 118.06 888.111 118.87 888.831 119.43C889.571 119.99 890.501 120.27 891.621 120.27C892.421 120.27 893.161 120.13 893.841 119.85C894.541 119.55 895.121 119.14 895.581 118.62L897.651 120.51C896.951 121.39 896.051 122.06 894.951 122.52C893.851 122.98 892.641 123.21 891.321 123.21ZM890.991 112.05C890.111 112.05 889.371 112.29 888.771 112.77C888.191 113.23 887.791 113.89 887.571 114.75H894.411C894.291 113.99 893.931 113.35 893.331 112.83C892.731 112.31 891.951 112.05 890.991 112.05ZM912.901 109.29H916.621V114.33H918.061L921.361 109.29H925.231V109.8L921.151 115.53L926.251 122.49V123H922.111L917.971 117.15H916.621V123H912.901V109.29ZM934.062 123.21C932.982 123.21 931.982 123.04 931.062 122.7C930.162 122.36 929.382 121.88 928.722 121.26C928.082 120.62 927.572 119.87 927.192 119.01C926.832 118.15 926.652 117.19 926.652 116.13C926.652 115.07 926.832 114.11 927.192 113.25C927.572 112.37 928.092 111.62 928.752 111C929.412 110.38 930.192 109.9 931.092 109.56C932.012 109.22 933.002 109.05 934.062 109.05C935.142 109.05 936.132 109.22 937.032 109.56C937.952 109.9 938.742 110.39 939.402 111.03C940.062 111.65 940.572 112.4 940.932 113.28C941.292 114.14 941.472 115.09 941.472 116.13C941.472 117.21 941.282 118.19 940.902 119.07C940.522 119.93 940.002 120.67 939.342 121.29C938.682 121.89 937.902 122.36 937.002 122.7C936.102 123.04 935.122 123.21 934.062 123.21ZM934.062 120.06C935.162 120.06 936.022 119.69 936.642 118.95C937.262 118.21 937.572 117.27 937.572 116.13C937.572 114.99 937.272 114.06 936.672 113.34C936.072 112.6 935.202 112.23 934.062 112.23C932.942 112.23 932.072 112.6 931.452 113.34C930.832 114.08 930.522 115.01 930.522 116.13C930.522 116.67 930.602 117.18 930.762 117.66C930.922 118.14 931.152 118.56 931.452 118.92C931.752 119.28 932.122 119.56 932.562 119.76C933.002 119.96 933.502 120.06 934.062 120.06ZM953.581 117.6H947.881V123H944.161V109.29H947.881V114.33H953.581V109.29H957.301V123H953.581V117.6ZM963.981 112.56H959.571V109.29H972.081V112.56H967.671V123H963.981V112.56ZM980.469 123.21C979.369 123.21 978.359 123.04 977.439 122.7C976.539 122.36 975.759 121.89 975.099 121.29C974.439 120.67 973.929 119.94 973.569 119.1C973.209 118.24 973.029 117.29 973.029 116.25C973.029 115.15 973.219 114.16 973.599 113.28C973.979 112.38 974.499 111.62 975.159 111C975.819 110.38 976.589 109.9 977.469 109.56C978.349 109.22 979.289 109.05 980.289 109.05C981.369 109.05 982.329 109.24 983.169 109.62C984.029 109.98 984.749 110.49 985.329 111.15C985.909 111.79 986.349 112.55 986.649 113.43C986.969 114.29 987.129 115.22 987.129 116.22V117H976.629C976.809 118.06 977.259 118.87 977.979 119.43C978.719 119.99 979.649 120.27 980.769 120.27C981.569 120.27 982.309 120.13 982.989 119.85C983.689 119.55 984.269 119.14 984.729 118.62L986.799 120.51C986.099 121.39 985.199 122.06 984.099 122.52C982.999 122.98 981.789 123.21 980.469 123.21ZM980.139 112.05C979.259 112.05 978.519 112.29 977.919 112.77C977.339 113.23 976.939 113.89 976.719 114.75H983.559C983.439 113.99 983.079 113.35 982.479 112.83C981.879 112.31 981.099 112.05 980.139 112.05ZM989.864 109.29H993.584V114.33H995.024L998.324 109.29H1002.19V109.8L998.114 115.53L1003.21 122.49V123H999.074L994.934 117.15H993.584V123H989.864V109.29ZM1010.81 123.21C1009.71 123.21 1008.72 123.04 1007.84 122.7C1006.96 122.36 1006.2 121.89 1005.56 121.29C1004.94 120.67 1004.46 119.93 1004.12 119.07C1003.78 118.21 1003.61 117.25 1003.61 116.19C1003.61 115.07 1003.79 114.07 1004.15 113.19C1004.53 112.29 1005.04 111.54 1005.68 110.94C1006.32 110.32 1007.08 109.85 1007.96 109.53C1008.84 109.21 1009.79 109.05 1010.81 109.05C1011.97 109.05 1013.02 109.25 1013.96 109.65C1014.92 110.05 1015.67 110.55 1016.21 111.15L1014.29 113.67C1013.89 113.23 1013.42 112.88 1012.88 112.62C1012.36 112.36 1011.77 112.23 1011.11 112.23C1009.99 112.23 1009.1 112.59 1008.44 113.31C1007.8 114.03 1007.48 114.95 1007.48 116.07C1007.48 117.23 1007.81 118.19 1008.47 118.95C1009.15 119.69 1010.06 120.06 1011.2 120.06C1011.86 120.06 1012.45 119.93 1012.97 119.67C1013.49 119.39 1013.95 119.03 1014.35 118.59L1016.54 120.75C1015.94 121.53 1015.14 122.14 1014.14 122.58C1013.16 123 1012.05 123.21 1010.81 123.21ZM1021.93 112.56H1017.52V109.29H1030.03V112.56H1025.62V123H1021.93V112.56ZM1038.11 113.25C1040.05 113.25 1041.52 113.65 1042.52 114.45C1043.54 115.25 1044.05 116.46 1044.05 118.08C1044.05 119.7 1043.52 120.93 1042.46 121.77C1041.42 122.59 1039.87 123 1037.81 123H1032.32V109.29H1036.04V113.25H1038.11ZM1045.37 109.29H1049.09V123H1045.37V109.29ZM1037.42 120.09C1038.32 120.09 1039.01 119.96 1039.49 119.7C1039.99 119.42 1040.24 118.88 1040.24 118.08C1040.24 117.34 1040.01 116.83 1039.55 116.55C1039.11 116.27 1038.44 116.13 1037.54 116.13H1036.04V120.09H1037.42ZM1065.49 102H1069.51V115.71L1080.49 102H1083.04V123H1078.99V109.35L1068.04 123H1065.49V102ZM1087.96 102H1091.98V115.71L1102.96 102H1105.51V123H1101.46V109.35L1090.51 123H1087.96V102ZM1128.56 123.21C1127.46 123.21 1126.45 123.04 1125.53 122.7C1124.63 122.36 1123.85 121.89 1123.19 121.29C1122.53 120.67 1122.02 119.94 1121.66 119.1C1121.3 118.24 1121.12 117.29 1121.12 116.25C1121.12 115.15 1121.31 114.16 1121.69 113.28C1122.07 112.38 1122.59 111.62 1123.25 111C1123.91 110.38 1124.68 109.9 1125.56 109.56C1126.44 109.22 1127.38 109.05 1128.38 109.05C1129.46 109.05 1130.42 109.24 1131.26 109.62C1132.12 109.98 1132.84 110.49 1133.42 111.15C1134 111.79 1134.44 112.55 1134.74 113.43C1135.06 114.29 1135.22 115.22 1135.22 116.22V117H1124.72C1124.9 118.06 1125.35 118.87 1126.07 119.43C1126.81 119.99 1127.74 120.27 1128.86 120.27C1129.66 120.27 1130.4 120.13 1131.08 119.85C1131.78 119.55 1132.36 119.14 1132.82 118.62L1134.89 120.51C1134.19 121.39 1133.29 122.06 1132.19 122.52C1131.09 122.98 1129.88 123.21 1128.56 123.21ZM1128.23 112.05C1127.35 112.05 1126.61 112.29 1126.01 112.77C1125.43 113.23 1125.03 113.89 1124.81 114.75H1131.65C1131.53 113.99 1131.17 113.35 1130.57 112.83C1129.97 112.31 1129.19 112.05 1128.23 112.05ZM1156.89 123H1137.96V109.29H1141.68V119.73H1146.06V109.29H1149.75V119.73H1154.1V109.29H1157.82V119.73H1159.92V126.06H1156.89V123ZM1168.37 123.21C1167.27 123.21 1166.26 123.04 1165.34 122.7C1164.44 122.36 1163.66 121.89 1163 121.29C1162.34 120.67 1161.83 119.94 1161.47 119.1C1161.11 118.24 1160.93 117.29 1160.93 116.25C1160.93 115.15 1161.12 114.16 1161.5 113.28C1161.88 112.38 1162.4 111.62 1163.06 111C1163.72 110.38 1164.49 109.9 1165.37 109.56C1166.25 109.22 1167.19 109.05 1168.19 109.05C1169.27 109.05 1170.23 109.24 1171.07 109.62C1171.93 109.98 1172.65 110.49 1173.23 111.15C1173.81 111.79 1174.25 112.55 1174.55 113.43C1174.87 114.29 1175.03 115.22 1175.03 116.22V117H1164.53C1164.71 118.06 1165.16 118.87 1165.88 119.43C1166.62 119.99 1167.55 120.27 1168.67 120.27C1169.47 120.27 1170.21 120.13 1170.89 119.85C1171.59 119.55 1172.17 119.14 1172.63 118.62L1174.7 120.51C1174 121.39 1173.1 122.06 1172 122.52C1170.9 122.98 1169.69 123.21 1168.37 123.21ZM1168.04 112.05C1167.16 112.05 1166.42 112.29 1165.82 112.77C1165.24 113.23 1164.84 113.89 1164.62 114.75H1171.46C1171.34 113.99 1170.98 113.35 1170.38 112.83C1169.78 112.31 1169 112.05 1168.04 112.05ZM1164.92 106.83C1164.28 106.83 1163.75 106.64 1163.33 106.26C1162.93 105.86 1162.73 105.36 1162.73 104.76C1162.73 104.14 1162.93 103.65 1163.33 103.29C1163.75 102.91 1164.28 102.72 1164.92 102.72C1165.56 102.72 1166.07 102.91 1166.45 103.29C1166.83 103.65 1167.02 104.14 1167.02 104.76C1167.02 105.36 1166.83 105.86 1166.45 106.26C1166.07 106.64 1165.56 106.83 1164.92 106.83ZM1171.16 106.83C1170.52 106.83 1170 106.64 1169.6 106.26C1169.2 105.86 1169 105.36 1169 104.76C1169 104.14 1169.2 103.65 1169.6 103.29C1170 102.91 1170.52 102.72 1171.16 102.72C1171.82 102.72 1172.34 102.91 1172.72 103.29C1173.1 103.65 1173.29 104.14 1173.29 104.76C1173.29 105.36 1173.1 105.86 1172.72 106.26C1172.34 106.64 1171.82 106.83 1171.16 106.83ZM194.19 153.6H188.49V159H184.77V145.29H188.49V150.33H194.19V145.29H197.91V159H194.19V153.6ZM208.07 159.21C206.97 159.21 205.96 159.04 205.04 158.7C204.14 158.36 203.36 157.89 202.7 157.29C202.04 156.67 201.53 155.94 201.17 155.1C200.81 154.24 200.63 153.29 200.63 152.25C200.63 151.15 200.82 150.16 201.2 149.28C201.58 148.38 202.1 147.62 202.76 147C203.42 146.38 204.19 145.9 205.07 145.56C205.95 145.22 206.89 145.05 207.89 145.05C208.97 145.05 209.93 145.24 210.77 145.62C211.63 145.98 212.35 146.49 212.93 147.15C213.51 147.79 213.95 148.55 214.25 149.43C214.57 150.29 214.73 151.22 214.73 152.22V153H204.23C204.41 154.06 204.86 154.87 205.58 155.43C206.32 155.99 207.25 156.27 208.37 156.27C209.17 156.27 209.91 156.13 210.59 155.85C211.29 155.55 211.87 155.14 212.33 154.62L214.4 156.51C213.7 157.39 212.8 158.06 211.7 158.52C210.6 158.98 209.39 159.21 208.07 159.21ZM207.74 148.05C206.86 148.05 206.12 148.29 205.52 148.77C204.94 149.23 204.54 149.89 204.32 150.75H211.16C211.04 149.99 210.68 149.35 210.08 148.83C209.48 148.31 208.7 148.05 207.74 148.05ZM215.582 155.73H217.232C217.752 154.65 218.142 153.45 218.402 152.13C218.662 150.79 218.792 149.21 218.792 147.39V145.29H229.472V155.73H231.572V162.06H228.542V159H218.642V162.06H215.582V155.73ZM222.122 148.65C222.122 151.43 221.712 153.79 220.892 155.73H225.752V148.56H222.122V148.65ZM240.003 159.21C238.923 159.21 237.923 159.04 237.003 158.7C236.103 158.36 235.323 157.88 234.663 157.26C234.023 156.62 233.513 155.87 233.133 155.01C232.773 154.15 232.593 153.19 232.593 152.13C232.593 151.07 232.773 150.11 233.133 149.25C233.513 148.37 234.033 147.62 234.693 147C235.353 146.38 236.133 145.9 237.033 145.56C237.953 145.22 238.943 145.05 240.003 145.05C241.083 145.05 242.073 145.22 242.973 145.56C243.893 145.9 244.683 146.39 245.343 147.03C246.003 147.65 246.513 148.4 246.873 149.28C247.233 150.14 247.413 151.09 247.413 152.13C247.413 153.21 247.223 154.19 246.843 155.07C246.463 155.93 245.943 156.67 245.283 157.29C244.623 157.89 243.843 158.36 242.943 158.7C242.043 159.04 241.063 159.21 240.003 159.21ZM240.003 156.06C241.103 156.06 241.963 155.69 242.583 154.95C243.203 154.21 243.513 153.27 243.513 152.13C243.513 150.99 243.213 150.06 242.613 149.34C242.013 148.6 241.143 148.23 240.003 148.23C238.883 148.23 238.013 148.6 237.393 149.34C236.773 150.08 236.463 151.01 236.463 152.13C236.463 152.67 236.543 153.18 236.703 153.66C236.863 154.14 237.093 154.56 237.393 154.92C237.693 155.28 238.063 155.56 238.503 155.76C238.943 155.96 239.443 156.06 240.003 156.06ZM256.492 159.21C255.392 159.21 254.402 159.04 253.522 158.7C252.642 158.36 251.882 157.89 251.242 157.29C250.622 156.67 250.142 155.93 249.802 155.07C249.462 154.21 249.292 153.25 249.292 152.19C249.292 151.07 249.472 150.07 249.832 149.19C250.212 148.29 250.722 147.54 251.362 146.94C252.002 146.32 252.762 145.85 253.642 145.53C254.522 145.21 255.472 145.05 256.492 145.05C257.652 145.05 258.702 145.25 259.642 145.65C260.602 146.05 261.352 146.55 261.892 147.15L259.972 149.67C259.572 149.23 259.102 148.88 258.562 148.62C258.042 148.36 257.452 148.23 256.792 148.23C255.672 148.23 254.782 148.59 254.122 149.31C253.482 150.03 253.162 150.95 253.162 152.07C253.162 153.23 253.492 154.19 254.152 154.95C254.832 155.69 255.742 156.06 256.882 156.06C257.542 156.06 258.132 155.93 258.652 155.67C259.172 155.39 259.632 155.03 260.032 154.59L262.222 156.75C261.622 157.53 260.822 158.14 259.822 158.58C258.842 159 257.732 159.21 256.492 159.21ZM267.608 148.56H263.198V145.29H275.708V148.56H271.298V159H267.608V148.56ZM280.289 165.75L282.599 159.15L276.989 145.98V145.29H280.709L284.339 154.26L287.519 145.29H290.879L290.849 145.98L283.649 166.2H280.289V165.75ZM292.846 145.29H305.746V159H302.056V148.56H296.566V159H292.846V145.29ZM318.731 153.6H313.031V159H309.311V145.29H313.031V150.33H318.731V145.29H322.451V159H318.731V153.6ZM331.771 149.25C333.711 149.25 335.181 149.65 336.181 150.45C337.201 151.25 337.711 152.46 337.711 154.08C337.711 155.7 337.181 156.93 336.121 157.77C335.081 158.59 333.531 159 331.471 159H325.981V145.29H329.701V149.25H331.771ZM339.031 145.29H342.751V159H339.031V145.29ZM331.081 156.09C331.981 156.09 332.671 155.96 333.151 155.7C333.651 155.42 333.901 154.88 333.901 154.08C333.901 153.34 333.671 152.83 333.211 152.55C332.771 152.27 332.101 152.13 331.201 152.13H329.701V156.09H331.081ZM348.324 159.3C347.624 159.3 347.084 159.1 346.704 158.7C346.344 158.28 346.164 157.78 346.164 157.2C346.164 156.58 346.344 156.06 346.704 155.64C347.064 155.22 347.604 155.01 348.324 155.01C349.044 155.01 349.594 155.22 349.974 155.64C350.354 156.06 350.544 156.58 350.544 157.2C350.544 157.78 350.344 158.28 349.944 158.7C349.564 159.1 349.024 159.3 348.324 159.3Z" fill="black"/>
<defs>
<linearGradient id="paint0_linear_91_5" x1="-7.57401" y1="74.3744" x2="1422.97" y2="74.3744" gradientUnits="userSpaceOnUse">
<stop stop-color="white" stop-opacity="0.64"/>
<stop offset="0.325" stop-color="#2736C1" stop-opacity="0.72"/>
<stop offset="1" stop-color="#091FEA"/>
</linearGradient>
</defs>
</svg>
