<svg width="333" height="82" viewBox="0 0 333 82" fill="none" xmlns="http://www.w3.org/2000/svg">
<path d="M292.183 38.7692C287.897 34.9732 285.443 29.522 285.443 23.7963V20C285.443 8.9543 276.488 0 265.443 0H20C8.95435 0 0 8.9543 0 20V32.8V62C0 73.0457 8.95432 82 20 82L288.249 82C306.657 82 315.29 59.2316 301.508 47.0271L292.183 38.7692Z" fill="url(#paint0_linear_107_21)" fill-opacity="0.76"/>
<circle cx="2.15513" cy="2.15513" r="2.15513" transform="matrix(1 0 0 -1 208 65.3105)" fill="black"/>
<circle cx="2.15513" cy="2.15513" r="2.15513" transform="matrix(1 0 0 -1 220.452 65.3105)" fill="black"/>
<circle cx="2.15513" cy="2.15513" r="2.15513" transform="matrix(1 0 0 -1 232.904 65.3105)" fill="black"/>
<circle cx="2.15513" cy="2.15513" r="2.15513" transform="matrix(1 0 0 -1 245.355 65.3105)" fill="black"/>
<path d="M28.176 15.8H29.92L33.056 23.352L36.048 15.8H37.776L39.376 27H37.296L36.304 19.864L33.408 27.016H32.608L29.648 19.944L28.752 27H26.736L28.176 15.8ZM44.1414 21.8C45.176 21.8 45.96 22.0133 46.4934 22.44C47.0374 22.8667 47.3094 23.512 47.3094 24.376C47.3094 25.24 47.0267 25.896 46.4614 26.344C45.9067 26.7813 45.08 27 43.9814 27H41.0534V19.688H43.0374V21.8H44.1414ZM48.0134 19.688H49.9974V27H48.0134V19.688ZM43.7734 25.448C44.2534 25.448 44.6214 25.3787 44.8774 25.24C45.144 25.0907 45.2774 24.8027 45.2774 24.376C45.2774 23.9813 45.1547 23.7093 44.9094 23.56C44.6747 23.4107 44.3174 23.336 43.8374 23.336H43.0374V25.448H43.7734ZM75.352 27.112C74.7653 27.112 74.2373 27.0213 73.768 26.84C73.2987 26.6587 72.8933 26.408 72.552 26.088C72.2213 25.7573 71.9653 25.3627 71.784 24.904C71.6027 24.4453 71.512 23.9333 71.512 23.368C71.512 22.7707 71.608 22.2373 71.8 21.768C72.0027 21.288 72.2747 20.888 72.616 20.568C72.9573 20.2373 73.3627 19.9867 73.832 19.816C74.3013 19.6453 74.808 19.56 75.352 19.56C75.9707 19.56 76.5307 19.6667 77.032 19.88C77.544 20.0933 77.944 20.36 78.232 20.68L77.208 22.024C76.9947 21.7893 76.744 21.6027 76.456 21.464C76.1787 21.3253 75.864 21.256 75.512 21.256C74.9147 21.256 74.44 21.448 74.088 21.832C73.7467 22.216 73.576 22.7067 73.576 23.304C73.576 23.9227 73.752 24.4347 74.104 24.84C74.4667 25.2347 74.952 25.432 75.56 25.432C75.912 25.432 76.2267 25.3627 76.504 25.224C76.7813 25.0747 77.0267 24.8827 77.24 24.648L78.408 25.8C78.088 26.216 77.6613 26.5413 77.128 26.776C76.6053 27 76.0133 27.112 75.352 27.112ZM78.7523 25.256H79.6323C79.9096 24.68 80.1176 24.04 80.2563 23.336C80.3949 22.6213 80.4643 21.7787 80.4643 20.808V19.688H86.1603V25.256H87.2803V28.632H85.6643V27H80.3843V28.632H78.7523V25.256ZM82.2403 21.48C82.2403 22.9627 82.0216 24.2213 81.5843 25.256H84.1763V21.432H82.2403V21.48ZM91.7925 27.112C91.2058 27.112 90.6672 27.0213 90.1765 26.84C89.6965 26.6587 89.2805 26.408 88.9285 26.088C88.5765 25.7573 88.3045 25.368 88.1125 24.92C87.9205 24.4613 87.8245 23.9547 87.8245 23.4C87.8245 22.8133 87.9258 22.2853 88.1285 21.816C88.3312 21.336 88.6085 20.9307 88.9605 20.6C89.3125 20.2693 89.7232 20.0133 90.1925 19.832C90.6618 19.6507 91.1632 19.56 91.6965 19.56C92.2725 19.56 92.7845 19.6613 93.2325 19.864C93.6912 20.056 94.0752 20.328 94.3845 20.68C94.6938 21.0213 94.9285 21.4267 95.0885 21.896C95.2592 22.3547 95.3445 22.8507 95.3445 23.384V23.8H89.7445C89.8405 24.3653 90.0805 24.7973 90.4645 25.096C90.8592 25.3947 91.3552 25.544 91.9525 25.544C92.3792 25.544 92.7738 25.4693 93.1365 25.32C93.5098 25.16 93.8192 24.9413 94.0645 24.664L95.1685 25.672C94.7952 26.1413 94.3152 26.4987 93.7285 26.744C93.1418 26.9893 92.4965 27.112 91.7925 27.112ZM91.6165 21.16C91.1472 21.16 90.7525 21.288 90.4325 21.544C90.1232 21.7893 89.9098 22.1413 89.7925 22.6H93.4405C93.3765 22.1947 93.1845 21.8533 92.8645 21.576C92.5445 21.2987 92.1285 21.16 91.6165 21.16ZM96.4853 27.16C96.3679 27.16 96.2612 27.1547 96.1653 27.144C96.0799 27.1333 96.0053 27.1227 95.9413 27.112V25.208C96.0479 25.2293 96.1333 25.24 96.1973 25.24C96.3786 25.24 96.5333 25.176 96.6613 25.048C96.7893 24.9093 96.8906 24.6907 96.9653 24.392C97.0506 24.0827 97.1093 23.6827 97.1413 23.192C97.1839 22.7013 97.2053 22.104 97.2053 21.4V19.688H102.757V27H100.789V21.432H99.0293V22.296C99.0293 23.2133 98.9706 23.9813 98.8533 24.6C98.7466 25.2187 98.5813 25.72 98.3573 26.104C98.1439 26.4773 97.8773 26.7493 97.5573 26.92C97.2479 27.08 96.8906 27.16 96.4853 27.16ZM107.639 27.112C107.201 27.112 106.775 27.0213 106.359 26.84C105.953 26.6587 105.591 26.4027 105.271 26.072C104.961 25.7413 104.711 25.3467 104.519 24.888C104.327 24.4187 104.231 23.9013 104.231 23.336C104.231 22.7707 104.321 22.2587 104.503 21.8C104.695 21.3307 104.945 20.9307 105.255 20.6C105.575 20.2693 105.937 20.0133 106.343 19.832C106.759 19.6507 107.191 19.56 107.639 19.56C108.183 19.56 108.663 19.6667 109.079 19.88C109.505 20.0933 109.841 20.3547 110.087 20.664V19.688H111.959V27H110.087V26.008C109.82 26.3387 109.473 26.6053 109.047 26.808C108.62 27.0107 108.151 27.112 107.639 27.112ZM108.167 25.416C108.711 25.416 109.143 25.2293 109.463 24.856C109.793 24.472 109.964 23.976 109.975 23.368V23.24C109.975 22.6747 109.809 22.2107 109.479 21.848C109.148 21.4853 108.711 21.304 108.167 21.304C107.921 21.304 107.687 21.3467 107.463 21.432C107.239 21.5173 107.041 21.6453 106.871 21.816C106.7 21.9867 106.567 22.2 106.471 22.456C106.375 22.712 106.327 23.0053 106.327 23.336C106.327 23.976 106.497 24.4827 106.839 24.856C107.191 25.2293 107.633 25.416 108.167 25.416ZM113.61 27.16C113.493 27.16 113.386 27.1547 113.29 27.144C113.205 27.1333 113.13 27.1227 113.066 27.112V25.208C113.173 25.2293 113.258 25.24 113.322 25.24C113.504 25.24 113.658 25.176 113.786 25.048C113.914 24.9093 114.016 24.6907 114.09 24.392C114.176 24.0827 114.234 23.6827 114.266 23.192C114.309 22.7013 114.33 22.104 114.33 21.4V19.688H119.882V27H117.914V21.432H116.154V22.296C116.154 23.2133 116.096 23.9813 115.978 24.6C115.872 25.2187 115.706 25.72 115.482 26.104C115.269 26.4773 115.002 26.7493 114.682 26.92C114.373 27.08 114.016 27.16 113.61 27.16ZM121.788 19.688H123.772V23.896L127.164 19.688H128.716V27H126.732V22.552L123.148 27H121.788V19.688ZM152.247 22.536H154.823C154.705 22.1093 154.492 21.7893 154.183 21.576C153.884 21.3627 153.511 21.256 153.063 21.256C152.337 21.256 151.793 21.512 151.431 22.024L150.087 21C150.375 20.552 150.796 20.2 151.351 19.944C151.916 19.688 152.519 19.56 153.159 19.56C153.681 19.56 154.172 19.6453 154.631 19.816C155.1 19.9867 155.511 20.232 155.863 20.552C156.215 20.872 156.492 21.2667 156.695 21.736C156.897 22.1947 156.999 22.7227 156.999 23.32C156.999 23.8747 156.903 24.3867 156.711 24.856C156.529 25.3147 156.273 25.7147 155.943 26.056C155.612 26.3867 155.212 26.648 154.743 26.84C154.273 27.0213 153.761 27.112 153.207 27.112C152.513 27.112 151.868 26.9733 151.271 26.696C150.684 26.4187 150.252 26.0187 149.975 25.496L151.415 24.664C151.799 25.208 152.332 25.48 153.015 25.48C153.559 25.48 153.98 25.3253 154.279 25.016C154.577 24.7067 154.769 24.344 154.855 23.928H152.247V22.536ZM159.89 21.432H157.538V19.688H164.21V21.432H161.858V27H159.89V21.432ZM168.667 27.112C168.091 27.112 167.558 27.0213 167.067 26.84C166.587 26.6587 166.171 26.4027 165.819 26.072C165.478 25.7307 165.206 25.3307 165.003 24.872C164.811 24.4133 164.715 23.9013 164.715 23.336C164.715 22.7707 164.811 22.2587 165.003 21.8C165.206 21.3307 165.483 20.9307 165.835 20.6C166.187 20.2693 166.603 20.0133 167.083 19.832C167.574 19.6507 168.102 19.56 168.667 19.56C169.243 19.56 169.771 19.6507 170.251 19.832C170.742 20.0133 171.163 20.2747 171.515 20.616C171.867 20.9467 172.139 21.3467 172.331 21.816C172.523 22.2747 172.619 22.7813 172.619 23.336C172.619 23.912 172.518 24.4347 172.315 24.904C172.112 25.3627 171.835 25.7573 171.483 26.088C171.131 26.408 170.715 26.6587 170.235 26.84C169.755 27.0213 169.232 27.112 168.667 27.112ZM168.667 25.432C169.254 25.432 169.712 25.2347 170.043 24.84C170.374 24.4453 170.539 23.944 170.539 23.336C170.539 22.728 170.379 22.232 170.059 21.848C169.739 21.4533 169.275 21.256 168.667 21.256C168.07 21.256 167.606 21.4533 167.275 21.848C166.944 22.2427 166.779 22.7387 166.779 23.336C166.779 23.624 166.822 23.896 166.907 24.152C166.992 24.408 167.115 24.632 167.275 24.824C167.435 25.016 167.632 25.1653 167.867 25.272C168.102 25.3787 168.368 25.432 168.667 25.432ZM198.308 24.344C198.095 24.44 197.844 24.52 197.556 24.584C197.279 24.6373 196.964 24.664 196.612 24.664C196.164 24.664 195.759 24.6107 195.396 24.504C195.044 24.3973 194.74 24.2267 194.484 23.992C194.228 23.7573 194.031 23.4533 193.892 23.08C193.764 22.7067 193.7 22.2533 193.7 21.72V19.688H195.684V21.64C195.684 22.056 195.78 22.376 195.972 22.6C196.164 22.8133 196.548 22.92 197.124 22.92C197.561 22.92 197.956 22.8667 198.308 22.76V19.688H200.292V27H198.308V24.344ZM203.013 30.6L204.245 27.08L201.253 20.056V19.688H203.237L205.173 24.472L206.869 19.688H208.661L208.645 20.056L204.805 30.84H203.013V30.6ZM211.702 21.432H209.35V19.688H216.022V21.432H213.67V27H211.702V21.432ZM217.241 19.688H219.225V21.8H220.521C221.556 21.8 222.34 22.0133 222.873 22.44C223.417 22.8667 223.689 23.512 223.689 24.376C223.689 25.24 223.406 25.896 222.841 26.344C222.286 26.7813 221.46 27 220.361 27H217.241V19.688ZM220.169 25.448C220.649 25.448 221.017 25.3787 221.273 25.24C221.529 25.0907 221.657 24.8027 221.657 24.376C221.657 23.9813 221.54 23.7093 221.305 23.56C221.07 23.4107 220.713 23.336 220.233 23.336H219.225V25.448H220.169ZM229.232 24.024H224.944V22.408H229.232V24.024ZM235.292 24.344C235.079 24.44 234.828 24.52 234.54 24.584C234.263 24.6373 233.948 24.664 233.596 24.664C233.148 24.664 232.743 24.6107 232.38 24.504C232.028 24.3973 231.724 24.2267 231.468 23.992C231.212 23.7573 231.015 23.4533 230.876 23.08C230.748 22.7067 230.684 22.2533 230.684 21.72V19.688H232.668V21.64C232.668 22.056 232.764 22.376 232.956 22.6C233.148 22.8133 233.532 22.92 234.108 22.92C234.546 22.92 234.94 22.8667 235.292 22.76V19.688H237.276V27H235.292V24.344ZM239.997 30.6L241.229 27.08L238.237 20.056V19.688H240.221L242.157 24.472L243.853 19.688H245.645L245.629 20.056L241.789 30.84H239.997V30.6ZM248.687 21.432H246.335V19.688H253.007V21.432H250.655V27H248.687V21.432ZM254.225 19.688H256.209V21.8H257.505C258.54 21.8 259.324 22.0133 259.857 22.44C260.401 22.8667 260.673 23.512 260.673 24.376C260.673 25.24 260.391 25.896 259.825 26.344C259.271 26.7813 258.444 27 257.345 27H254.225V19.688ZM257.153 25.448C257.633 25.448 258.001 25.3787 258.257 25.24C258.513 25.0907 258.641 24.8027 258.641 24.376C258.641 23.9813 258.524 23.7093 258.289 23.56C258.055 23.4107 257.697 23.336 257.217 23.336H256.209V25.448H257.153ZM26.704 46.16C26.5867 46.16 26.48 46.1547 26.384 46.144C26.2987 46.1333 26.224 46.1227 26.16 46.112V44.208C26.2667 44.2293 26.352 44.24 26.416 44.24C26.5973 44.24 26.752 44.176 26.88 44.048C27.008 43.9093 27.1093 43.6907 27.184 43.392C27.2693 43.0827 27.328 42.6827 27.36 42.192C27.4027 41.7013 27.424 41.104 27.424 40.4V38.688H32.976V46H31.008V40.432H29.248V41.296C29.248 42.2133 29.1893 42.9813 29.072 43.6C28.9653 44.2187 28.8 44.72 28.576 45.104C28.3627 45.4773 28.096 45.7493 27.776 45.92C27.4667 46.08 27.1093 46.16 26.704 46.16ZM35.8095 49.6L37.0415 46.08L34.0495 39.056V38.688H36.0335L37.9695 43.472L39.6655 38.688H41.4575L41.4415 39.056L37.6015 49.84H35.8095V49.6ZM46.6985 43.344C46.4852 43.44 46.2345 43.52 45.9465 43.584C45.6692 43.6373 45.3545 43.664 45.0025 43.664C44.5545 43.664 44.1492 43.6107 43.7865 43.504C43.4345 43.3973 43.1305 43.2267 42.8745 42.992C42.6185 42.7573 42.4212 42.4533 42.2825 42.08C42.1545 41.7067 42.0905 41.2533 42.0905 40.72V38.688H44.0745V40.64C44.0745 41.056 44.1705 41.376 44.3625 41.6C44.5545 41.8133 44.9385 41.92 45.5145 41.92C45.9518 41.92 46.3465 41.8667 46.6985 41.76V38.688H48.6825V46H46.6985V43.344ZM59.0833 38.688H61.0673V46H50.4753V38.688H52.4593V44.256H54.7953V38.688H56.7633V44.256H59.0833V38.688ZM66.4956 46.112C65.909 46.112 65.3703 46.0213 64.8796 45.84C64.3996 45.6587 63.9836 45.408 63.6316 45.088C63.2796 44.7573 63.0076 44.368 62.8156 43.92C62.6236 43.4613 62.5276 42.9547 62.5276 42.4C62.5276 41.8133 62.629 41.2853 62.8316 40.816C63.0343 40.336 63.3116 39.9307 63.6636 39.6C64.0156 39.2693 64.4263 39.0133 64.8956 38.832C65.365 38.6507 65.8663 38.56 66.3996 38.56C66.9756 38.56 67.4876 38.6613 67.9356 38.864C68.3943 39.056 68.7783 39.328 69.0876 39.68C69.397 40.0213 69.6316 40.4267 69.7916 40.896C69.9623 41.3547 70.0476 41.8507 70.0476 42.384V42.8H64.4476C64.5436 43.3653 64.7836 43.7973 65.1676 44.096C65.5623 44.3947 66.0583 44.544 66.6556 44.544C67.0823 44.544 67.477 44.4693 67.8396 44.32C68.213 44.16 68.5223 43.9413 68.7676 43.664L69.8716 44.672C69.4983 45.1413 69.0183 45.4987 68.4316 45.744C67.845 45.9893 67.1996 46.112 66.4956 46.112ZM66.3196 40.16C65.8503 40.16 65.4556 40.288 65.1356 40.544C64.8263 40.7893 64.613 41.1413 64.4956 41.6H68.1436C68.0796 41.1947 67.8876 40.8533 67.5676 40.576C67.2476 40.2987 66.8316 40.16 66.3196 40.16ZM81.7506 43.344C81.5372 43.44 81.2866 43.52 80.9986 43.584C80.7212 43.6373 80.4066 43.664 80.0546 43.664C79.6066 43.664 79.2012 43.6107 78.8386 43.504C78.4866 43.3973 78.1826 43.2267 77.9266 42.992C77.6706 42.7573 77.4732 42.4533 77.3346 42.08C77.2066 41.7067 77.1426 41.2533 77.1426 40.72V38.688H79.1266V40.64C79.1266 41.056 79.2226 41.376 79.4146 41.6C79.6066 41.8133 79.9906 41.92 80.5666 41.92C81.0039 41.92 81.3986 41.8667 81.7506 41.76V38.688H83.7346V46H81.7506V43.344ZM89.0633 46.112C88.4767 46.112 87.938 46.0213 87.4473 45.84C86.9673 45.6587 86.5513 45.408 86.1993 45.088C85.8473 44.7573 85.5753 44.368 85.3833 43.92C85.1913 43.4613 85.0953 42.9547 85.0953 42.4C85.0953 41.8133 85.1967 41.2853 85.3993 40.816C85.602 40.336 85.8793 39.9307 86.2313 39.6C86.5833 39.2693 86.994 39.0133 87.4633 38.832C87.9327 38.6507 88.434 38.56 88.9673 38.56C89.5433 38.56 90.0553 38.6613 90.5033 38.864C90.962 39.056 91.346 39.328 91.6553 39.68C91.9647 40.0213 92.1993 40.4267 92.3593 40.896C92.53 41.3547 92.6153 41.8507 92.6153 42.384V42.8H87.0153C87.1113 43.3653 87.3513 43.7973 87.7353 44.096C88.13 44.3947 88.626 44.544 89.2233 44.544C89.65 44.544 90.0447 44.4693 90.4073 44.32C90.7807 44.16 91.09 43.9413 91.3353 43.664L92.4393 44.672C92.066 45.1413 91.586 45.4987 90.9993 45.744C90.4127 45.9893 89.7673 46.112 89.0633 46.112ZM88.8873 40.16C88.418 40.16 88.0233 40.288 87.7033 40.544C87.394 40.7893 87.1807 41.1413 87.0633 41.6H90.7113C90.6473 41.1947 90.4553 40.8533 90.1353 40.576C89.8153 40.2987 89.3993 40.16 88.8873 40.16ZM93.7561 46.16C93.6388 46.16 93.5321 46.1547 93.4361 46.144C93.3508 46.1333 93.2761 46.1227 93.2121 46.112V44.208C93.3188 44.2293 93.4041 44.24 93.4681 44.24C93.6494 44.24 93.8041 44.176 93.9321 44.048C94.0601 43.9093 94.1614 43.6907 94.2361 43.392C94.3214 43.0827 94.3801 42.6827 94.4121 42.192C94.4548 41.7013 94.4761 41.104 94.4761 40.4V38.688H100.028V46H98.0601V40.432H96.3001V41.296C96.3001 42.2133 96.2414 42.9813 96.1241 43.6C96.0174 44.2187 95.8521 44.72 95.6281 45.104C95.4148 45.4773 95.1481 45.7493 94.8281 45.92C94.5188 46.08 94.1614 46.16 93.7561 46.16ZM105.454 46.112C104.878 46.112 104.344 46.0213 103.854 45.84C103.374 45.6587 102.958 45.4027 102.606 45.072C102.264 44.7307 101.992 44.3307 101.79 43.872C101.598 43.4133 101.502 42.9013 101.502 42.336C101.502 41.7707 101.598 41.2587 101.79 40.8C101.992 40.3307 102.27 39.9307 102.622 39.6C102.974 39.2693 103.39 39.0133 103.87 38.832C104.36 38.6507 104.888 38.56 105.454 38.56C106.03 38.56 106.558 38.6507 107.038 38.832C107.528 39.0133 107.95 39.2747 108.302 39.616C108.654 39.9467 108.926 40.3467 109.118 40.816C109.31 41.2747 109.406 41.7813 109.406 42.336C109.406 42.912 109.304 43.4347 109.102 43.904C108.899 44.3627 108.622 44.7573 108.27 45.088C107.918 45.408 107.502 45.6587 107.022 45.84C106.542 46.0213 106.019 46.112 105.454 46.112ZM105.454 44.432C106.04 44.432 106.499 44.2347 106.83 43.84C107.16 43.4453 107.326 42.944 107.326 42.336C107.326 41.728 107.166 41.232 106.846 40.848C106.526 40.4533 106.062 40.256 105.454 40.256C104.856 40.256 104.392 40.4533 104.062 40.848C103.731 41.2427 103.566 41.7387 103.566 42.336C103.566 42.624 103.608 42.896 103.694 43.152C103.779 43.408 103.902 43.632 104.062 43.824C104.222 44.016 104.419 44.1653 104.654 44.272C104.888 44.3787 105.155 44.432 105.454 44.432ZM110.84 38.688H114.792C115.549 38.688 116.12 38.8533 116.504 39.184C116.888 39.504 117.08 39.9253 117.08 40.448C117.08 40.8427 116.984 41.168 116.792 41.424C116.6 41.68 116.349 41.8613 116.04 41.968C116.563 42.0427 116.989 42.224 117.32 42.512C117.651 42.8 117.816 43.232 117.816 43.808C117.816 44.512 117.555 45.056 117.032 45.44C116.52 45.8133 115.768 46 114.776 46H110.84V38.688ZM112.824 42.704V44.544H114.344C114.845 44.544 115.203 44.4693 115.416 44.32C115.629 44.16 115.736 43.9253 115.736 43.616C115.736 43.296 115.624 43.0667 115.4 42.928C115.176 42.7787 114.84 42.704 114.392 42.704H112.824ZM112.824 40.144V41.552H114.2C114.883 41.552 115.224 41.312 115.224 40.832C115.224 40.3733 114.877 40.144 114.184 40.144H112.824ZM122.595 46.112C122.008 46.112 121.469 46.0213 120.979 45.84C120.499 45.6587 120.083 45.408 119.731 45.088C119.379 44.7573 119.107 44.368 118.915 43.92C118.723 43.4613 118.627 42.9547 118.627 42.4C118.627 41.8133 118.728 41.2853 118.931 40.816C119.133 40.336 119.411 39.9307 119.763 39.6C120.115 39.2693 120.525 39.0133 120.995 38.832C121.464 38.6507 121.965 38.56 122.499 38.56C123.075 38.56 123.587 38.6613 124.035 38.864C124.493 39.056 124.877 39.328 125.187 39.68C125.496 40.0213 125.731 40.4267 125.891 40.896C126.061 41.3547 126.147 41.8507 126.147 42.384V42.8H120.547C120.643 43.3653 120.883 43.7973 121.267 44.096C121.661 44.3947 122.157 44.544 122.755 44.544C123.181 44.544 123.576 44.4693 123.939 44.32C124.312 44.16 124.621 43.9413 124.867 43.664L125.971 44.672C125.597 45.1413 125.117 45.4987 124.531 45.744C123.944 45.9893 123.299 46.112 122.595 46.112ZM122.419 40.16C121.949 40.16 121.555 40.288 121.235 40.544C120.925 40.7893 120.712 41.1413 120.595 41.6H124.243C124.179 41.1947 123.987 40.8533 123.667 40.576C123.347 40.2987 122.931 40.16 122.419 40.16ZM127.605 38.688H129.589V41.376H130.357L132.117 38.688H134.181V38.96L132.005 42.016L134.725 45.728V46H132.517L130.309 42.88H129.589V46H127.605V38.688ZM138.347 46.112C137.91 46.112 137.483 46.0213 137.067 45.84C136.662 45.6587 136.299 45.4027 135.979 45.072C135.67 44.7413 135.419 44.3467 135.227 43.888C135.035 43.4187 134.939 42.9013 134.939 42.336C134.939 41.7707 135.03 41.2587 135.211 40.8C135.403 40.3307 135.654 39.9307 135.963 39.6C136.283 39.2693 136.646 39.0133 137.051 38.832C137.467 38.6507 137.899 38.56 138.347 38.56C138.891 38.56 139.371 38.6667 139.787 38.88C140.214 39.0933 140.55 39.3547 140.795 39.664V38.688H142.667V46H140.795V45.008C140.528 45.3387 140.182 45.6053 139.755 45.808C139.328 46.0107 138.859 46.112 138.347 46.112ZM138.875 44.416C139.419 44.416 139.851 44.2293 140.171 43.856C140.502 43.472 140.672 42.976 140.683 42.368V42.24C140.683 41.6747 140.518 41.2107 140.187 40.848C139.856 40.4853 139.419 40.304 138.875 40.304C138.63 40.304 138.395 40.3467 138.171 40.432C137.947 40.5173 137.75 40.6453 137.579 40.816C137.408 40.9867 137.275 41.2 137.179 41.456C137.083 41.712 137.035 42.0053 137.035 42.336C137.035 42.976 137.206 43.4827 137.547 43.856C137.899 44.2293 138.342 44.416 138.875 44.416ZM145.247 46.08C144.927 46.0267 144.681 45.904 144.511 45.712C144.351 45.5093 144.271 45.2693 144.271 44.992C144.271 44.64 144.383 44.3627 144.607 44.16C144.841 43.9467 145.119 43.84 145.439 43.84C145.78 43.84 146.073 43.952 146.319 44.176C146.575 44.4 146.703 44.72 146.703 45.136C146.703 45.4133 146.628 45.7227 146.479 46.064C146.329 46.4053 146.1 46.848 145.791 47.392L145.151 48.56H143.871L145.247 46.08ZM154.579 38.688H161.459V46H159.491V40.432H156.563V46H154.579V38.688ZM163.361 49.84V38.688H165.233V39.664C165.478 39.3547 165.809 39.0933 166.225 38.88C166.651 38.6667 167.137 38.56 167.681 38.56C168.129 38.56 168.555 38.6507 168.961 38.832C169.377 39.0133 169.739 39.2693 170.049 39.6C170.369 39.9307 170.619 40.3307 170.801 40.8C170.993 41.2587 171.089 41.7707 171.089 42.336C171.089 42.9013 170.993 43.4187 170.801 43.888C170.609 44.3467 170.353 44.7413 170.033 45.072C169.723 45.4027 169.361 45.6587 168.945 45.84C168.539 46.0213 168.118 46.112 167.681 46.112C167.201 46.112 166.758 46.0267 166.353 45.856C165.947 45.6747 165.611 45.4347 165.345 45.136V49.84H163.361ZM167.153 40.304C166.609 40.304 166.177 40.48 165.857 40.832C165.537 41.1733 165.366 41.616 165.345 42.16V42.368C165.355 42.976 165.521 43.472 165.841 43.856C166.171 44.2293 166.609 44.416 167.153 44.416C167.686 44.416 168.123 44.2293 168.465 43.856C168.817 43.4827 168.993 42.976 168.993 42.336C168.993 42.0053 168.939 41.712 168.833 41.456C168.737 41.2 168.603 40.9867 168.433 40.816C168.273 40.6453 168.081 40.5173 167.857 40.432C167.633 40.3467 167.398 40.304 167.153 40.304ZM176.068 46.112C175.492 46.112 174.959 46.0213 174.468 45.84C173.988 45.6587 173.572 45.4027 173.22 45.072C172.879 44.7307 172.607 44.3307 172.404 43.872C172.212 43.4133 172.116 42.9013 172.116 42.336C172.116 41.7707 172.212 41.2587 172.404 40.8C172.607 40.3307 172.884 39.9307 173.236 39.6C173.588 39.2693 174.004 39.0133 174.484 38.832C174.975 38.6507 175.503 38.56 176.068 38.56C176.644 38.56 177.172 38.6507 177.652 38.832C178.143 39.0133 178.564 39.2747 178.916 39.616C179.268 39.9467 179.54 40.3467 179.732 40.816C179.924 41.2747 180.02 41.7813 180.02 42.336C180.02 42.912 179.919 43.4347 179.716 43.904C179.514 44.3627 179.236 44.7573 178.884 45.088C178.532 45.408 178.116 45.6587 177.636 45.84C177.156 46.0213 176.634 46.112 176.068 46.112ZM176.068 44.432C176.655 44.432 177.114 44.2347 177.444 43.84C177.775 43.4453 177.94 42.944 177.94 42.336C177.94 41.728 177.78 41.232 177.46 40.848C177.14 40.4533 176.676 40.256 176.068 40.256C175.471 40.256 175.007 40.4533 174.676 40.848C174.346 41.2427 174.18 41.7387 174.18 42.336C174.18 42.624 174.223 42.896 174.308 43.152C174.394 43.408 174.516 43.632 174.676 43.824C174.836 44.016 175.034 44.1653 175.268 44.272C175.503 44.3787 175.77 44.432 176.068 44.432ZM184.862 46.112C184.276 46.112 183.748 46.0213 183.278 45.84C182.809 45.6587 182.404 45.408 182.062 45.088C181.732 44.7573 181.476 44.3627 181.294 43.904C181.113 43.4453 181.022 42.9333 181.022 42.368C181.022 41.7707 181.118 41.2373 181.31 40.768C181.513 40.288 181.785 39.888 182.126 39.568C182.468 39.2373 182.873 38.9867 183.342 38.816C183.812 38.6453 184.318 38.56 184.862 38.56C185.481 38.56 186.041 38.6667 186.542 38.88C187.054 39.0933 187.454 39.36 187.742 39.68L186.718 41.024C186.505 40.7893 186.254 40.6027 185.966 40.464C185.689 40.3253 185.374 40.256 185.022 40.256C184.425 40.256 183.95 40.448 183.598 40.832C183.257 41.216 183.086 41.7067 183.086 42.304C183.086 42.9227 183.262 43.4347 183.614 43.84C183.977 44.2347 184.462 44.432 185.07 44.432C185.422 44.432 185.737 44.3627 186.014 44.224C186.292 44.0747 186.537 43.8827 186.75 43.648L187.918 44.8C187.598 45.216 187.172 45.5413 186.638 45.776C186.116 46 185.524 46.112 184.862 46.112ZM190.791 40.432H188.439V38.688H195.111V40.432H192.759V46H190.791V40.432ZM199.568 46.112C198.992 46.112 198.459 46.0213 197.968 45.84C197.488 45.6587 197.072 45.4027 196.72 45.072C196.379 44.7307 196.107 44.3307 195.904 43.872C195.712 43.4133 195.616 42.9013 195.616 42.336C195.616 41.7707 195.712 41.2587 195.904 40.8C196.107 40.3307 196.384 39.9307 196.736 39.6C197.088 39.2693 197.504 39.0133 197.984 38.832C198.475 38.6507 199.003 38.56 199.568 38.56C200.144 38.56 200.672 38.6507 201.152 38.832C201.643 39.0133 202.064 39.2747 202.416 39.616C202.768 39.9467 203.04 40.3467 203.232 40.816C203.424 41.2747 203.52 41.7813 203.52 42.336C203.52 42.912 203.419 43.4347 203.216 43.904C203.014 44.3627 202.736 44.7573 202.384 45.088C202.032 45.408 201.616 45.6587 201.136 45.84C200.656 46.0213 200.134 46.112 199.568 46.112ZM199.568 44.432C200.155 44.432 200.614 44.2347 200.944 43.84C201.275 43.4453 201.44 42.944 201.44 42.336C201.44 41.728 201.28 41.232 200.96 40.848C200.64 40.4533 200.176 40.256 199.568 40.256C198.971 40.256 198.507 40.4533 198.176 40.848C197.846 41.2427 197.68 41.7387 197.68 42.336C197.68 42.624 197.723 42.896 197.808 43.152C197.894 43.408 198.016 43.632 198.176 43.824C198.336 44.016 198.534 44.1653 198.768 44.272C199.003 44.3787 199.27 44.432 199.568 44.432ZM211.007 38.688H217.887V46H215.919V40.432H212.991V46H211.007V38.688ZM223.308 46.112C222.732 46.112 222.198 46.0213 221.708 45.84C221.228 45.6587 220.812 45.4027 220.46 45.072C220.118 44.7307 219.846 44.3307 219.644 43.872C219.452 43.4133 219.356 42.9013 219.356 42.336C219.356 41.7707 219.452 41.2587 219.644 40.8C219.846 40.3307 220.124 39.9307 220.476 39.6C220.828 39.2693 221.244 39.0133 221.724 38.832C222.214 38.6507 222.742 38.56 223.308 38.56C223.884 38.56 224.412 38.6507 224.892 38.832C225.382 39.0133 225.804 39.2747 226.156 39.616C226.508 39.9467 226.78 40.3467 226.972 40.816C227.164 41.2747 227.26 41.7813 227.26 42.336C227.26 42.912 227.158 43.4347 226.956 43.904C226.753 44.3627 226.476 44.7573 226.124 45.088C225.772 45.408 225.356 45.6587 224.876 45.84C224.396 46.0213 223.873 46.112 223.308 46.112ZM223.308 44.432C223.894 44.432 224.353 44.2347 224.684 43.84C225.014 43.4453 225.18 42.944 225.18 42.336C225.18 41.728 225.02 41.232 224.7 40.848C224.38 40.4533 223.916 40.256 223.308 40.256C222.71 40.256 222.246 40.4533 221.916 40.848C221.585 41.2427 221.42 41.7387 221.42 42.336C221.42 42.624 221.462 42.896 221.548 43.152C221.633 43.408 221.756 43.632 221.916 43.824C222.076 44.016 222.273 44.1653 222.508 44.272C222.742 44.3787 223.009 44.432 223.308 44.432ZM230.14 40.432H227.788V38.688H234.46V40.432H232.108V46H230.14V40.432ZM238.917 46.112C238.341 46.112 237.808 46.0213 237.317 45.84C236.837 45.6587 236.421 45.4027 236.069 45.072C235.728 44.7307 235.456 44.3307 235.253 43.872C235.061 43.4133 234.965 42.9013 234.965 42.336C234.965 41.7707 235.061 41.2587 235.253 40.8C235.456 40.3307 235.733 39.9307 236.085 39.6C236.437 39.2693 236.853 39.0133 237.333 38.832C237.824 38.6507 238.352 38.56 238.917 38.56C239.493 38.56 240.021 38.6507 240.501 38.832C240.992 39.0133 241.413 39.2747 241.765 39.616C242.117 39.9467 242.389 40.3467 242.581 40.816C242.773 41.2747 242.869 41.7813 242.869 42.336C242.869 42.912 242.768 43.4347 242.565 43.904C242.362 44.3627 242.085 44.7573 241.733 45.088C241.381 45.408 240.965 45.6587 240.485 45.84C240.005 46.0213 239.482 46.112 238.917 46.112ZM238.917 44.432C239.504 44.432 239.962 44.2347 240.293 43.84C240.624 43.4453 240.789 42.944 240.789 42.336C240.789 41.728 240.629 41.232 240.309 40.848C239.989 40.4533 239.525 40.256 238.917 40.256C238.32 40.256 237.856 40.4533 237.525 40.848C237.194 41.2427 237.029 41.7387 237.029 42.336C237.029 42.624 237.072 42.896 237.157 43.152C237.242 43.408 237.365 43.632 237.525 43.824C237.685 44.016 237.882 44.1653 238.117 44.272C238.352 44.3787 238.618 44.432 238.917 44.432ZM244.945 38.688H246.641L248.577 42.928L250.401 38.688H252.145L253.361 46H251.505L250.801 41.728L248.913 46H248.065L246.161 41.808L245.473 46H243.713L244.945 38.688ZM255.247 49.6L256.479 46.08L253.487 39.056V38.688H255.471L257.407 43.472L259.103 38.688H260.895L260.879 39.056L257.039 49.84H255.247V49.6ZM31.136 62.344C30.9227 62.44 30.672 62.52 30.384 62.584C30.1067 62.6373 29.792 62.664 29.44 62.664C28.992 62.664 28.5867 62.6107 28.224 62.504C27.872 62.3973 27.568 62.2267 27.312 61.992C27.056 61.7573 26.8587 61.4533 26.72 61.08C26.592 60.7067 26.528 60.2533 26.528 59.72V57.688H28.512V59.64C28.512 60.056 28.608 60.376 28.8 60.6C28.992 60.8133 29.376 60.92 29.952 60.92C30.3893 60.92 30.784 60.8667 31.136 60.76V57.688H33.12V65H31.136V62.344ZM36.5928 59.432H34.2408V57.688H40.9128V59.432H38.5608V65H36.5928V59.432ZM45.3703 65.112C44.7943 65.112 44.2609 65.0213 43.7703 64.84C43.2903 64.6587 42.8743 64.4027 42.5223 64.072C42.1809 63.7307 41.9089 63.3307 41.7063 62.872C41.5143 62.4133 41.4183 61.9013 41.4183 61.336C41.4183 60.7707 41.5143 60.2587 41.7063 59.8C41.9089 59.3307 42.1863 58.9307 42.5383 58.6C42.8903 58.2693 43.3063 58.0133 43.7863 57.832C44.2769 57.6507 44.8049 57.56 45.3703 57.56C45.9463 57.56 46.4743 57.6507 46.9543 57.832C47.4449 58.0133 47.8663 58.2747 48.2183 58.616C48.5703 58.9467 48.8423 59.3467 49.0343 59.816C49.2263 60.2747 49.3223 60.7813 49.3223 61.336C49.3223 61.912 49.2209 62.4347 49.0183 62.904C48.8156 63.3627 48.5383 63.7573 48.1863 64.088C47.8343 64.408 47.4183 64.6587 46.9383 64.84C46.4583 65.0213 45.9356 65.112 45.3703 65.112ZM45.3703 63.432C45.9569 63.432 46.4156 63.2347 46.7463 62.84C47.0769 62.4453 47.2423 61.944 47.2423 61.336C47.2423 60.728 47.0823 60.232 46.7623 59.848C46.4423 59.4533 45.9783 59.256 45.3703 59.256C44.7729 59.256 44.3089 59.4533 43.9783 59.848C43.6476 60.2427 43.4823 60.7387 43.4823 61.336C43.4823 61.624 43.5249 61.896 43.6103 62.152C43.6956 62.408 43.8183 62.632 43.9783 62.824C44.1383 63.016 44.3356 63.1653 44.5703 63.272C44.8049 63.3787 45.0716 63.432 45.3703 63.432ZM54.9128 57.688H56.8968V61.896L60.2888 57.688H61.8408V65H59.8568V60.552L56.2728 65H54.9128V57.688ZM67.1333 65.112C66.5466 65.112 66.0186 65.0213 65.5493 64.84C65.0799 64.6587 64.6746 64.408 64.3333 64.088C64.0026 63.7573 63.7466 63.3627 63.5653 62.904C63.3839 62.4453 63.2933 61.9333 63.2933 61.368C63.2933 60.7707 63.3893 60.2373 63.5813 59.768C63.7839 59.288 64.0559 58.888 64.3973 58.568C64.7386 58.2373 65.1439 57.9867 65.6133 57.816C66.0826 57.6453 66.5893 57.56 67.1333 57.56C67.7519 57.56 68.3119 57.6667 68.8133 57.88C69.3253 58.0933 69.7253 58.36 70.0133 58.68L68.9893 60.024C68.7759 59.7893 68.5253 59.6027 68.2373 59.464C67.9599 59.3253 67.6453 59.256 67.2933 59.256C66.6959 59.256 66.2213 59.448 65.8693 59.832C65.5279 60.216 65.3573 60.7067 65.3573 61.304C65.3573 61.9227 65.5333 62.4347 65.8853 62.84C66.2479 63.2347 66.7333 63.432 67.3413 63.432C67.6933 63.432 68.0079 63.3627 68.2853 63.224C68.5626 63.0747 68.8079 62.8827 69.0213 62.648L70.1893 63.8C69.8693 64.216 69.4426 64.5413 68.9093 64.776C68.3866 65 67.7946 65.112 67.1333 65.112ZM71.3815 57.688H73.3655V60.376H74.1335L75.8935 57.688H77.9575V57.96L75.7815 61.016L78.5015 64.728V65H76.2935L74.0855 61.88H73.3655V65H71.3815V57.688ZM79.4853 65.16C79.3679 65.16 79.2612 65.1547 79.1653 65.144C79.0799 65.1333 79.0053 65.1227 78.9413 65.112V63.208C79.0479 63.2293 79.1333 63.24 79.1973 63.24C79.3786 63.24 79.5333 63.176 79.6613 63.048C79.7893 62.9093 79.8906 62.6907 79.9653 62.392C80.0506 62.0827 80.1093 61.6827 80.1413 61.192C80.1839 60.7013 80.2053 60.104 80.2053 59.4V57.688H85.7573V65H83.7893V59.432H82.0293V60.296C82.0293 61.2133 81.9706 61.9813 81.8533 62.6C81.7466 63.2187 81.5813 63.72 81.3573 64.104C81.1439 64.4773 80.8773 64.7493 80.5573 64.92C80.2479 65.08 79.8906 65.16 79.4853 65.16ZM87.6628 57.688H89.6468V60.28H90.6548C90.7614 59.8533 90.9321 59.4747 91.1668 59.144C91.4014 58.8027 91.6788 58.5147 91.9988 58.28C92.3294 58.0453 92.6921 57.8693 93.0868 57.752C93.4814 57.624 93.8921 57.56 94.3188 57.56C94.8841 57.56 95.4014 57.6507 95.8708 57.832C96.3401 58.0027 96.7454 58.2533 97.0868 58.584C97.4281 58.904 97.6948 59.2987 97.8868 59.768C98.0788 60.2267 98.1748 60.7493 98.1748 61.336C98.1748 61.944 98.0681 62.4827 97.8548 62.952C97.6521 63.4213 97.3694 63.816 97.0068 64.136C96.6548 64.456 96.2441 64.7013 95.7748 64.872C95.3054 65.032 94.8148 65.112 94.3028 65.112C93.8014 65.112 93.3374 65.0373 92.9108 64.888C92.4841 64.7387 92.1054 64.5307 91.7748 64.264C91.4548 63.9867 91.1881 63.6507 90.9748 63.256C90.7721 62.8613 90.6388 62.4187 90.5748 61.928H89.6468V65H87.6628V57.688ZM94.3188 63.384C94.8948 63.384 95.3321 63.192 95.6308 62.808C95.9401 62.424 96.0948 61.9387 96.0948 61.352C96.0948 60.744 95.9348 60.248 95.6148 59.864C95.3054 59.48 94.8681 59.288 94.3028 59.288C93.7374 59.288 93.2948 59.48 92.9748 59.864C92.6654 60.2373 92.5108 60.712 92.5108 61.288C92.5108 61.896 92.6708 62.3973 92.9908 62.792C93.3214 63.1867 93.7641 63.384 94.3188 63.384ZM103.824 62.344C103.61 62.44 103.36 62.52 103.072 62.584C102.794 62.6373 102.48 62.664 102.128 62.664C101.68 62.664 101.274 62.6107 100.912 62.504C100.56 62.3973 100.256 62.2267 99.9995 61.992C99.7435 61.7573 99.5462 61.4533 99.4075 61.08C99.2795 60.7067 99.2155 60.2533 99.2155 59.72V57.688H101.2V59.64C101.2 60.056 101.296 60.376 101.488 60.6C101.68 60.8133 102.064 60.92 102.64 60.92C103.077 60.92 103.472 60.8667 103.824 60.76V57.688H105.808V65H103.824V62.344ZM107.6 57.688H109.584V61.896L112.976 57.688H114.528V65H112.544V60.552L108.96 65H107.6V57.688ZM116.173 65.16C116.055 65.16 115.949 65.1547 115.853 65.144C115.767 65.1333 115.693 65.1227 115.629 65.112V63.208C115.735 63.2293 115.821 63.24 115.885 63.24C116.066 63.24 116.221 63.176 116.349 63.048C116.477 62.9093 116.578 62.6907 116.653 62.392C116.738 62.0827 116.797 61.6827 116.829 61.192C116.871 60.7013 116.893 60.104 116.893 59.4V57.688H122.445V65H120.477V59.432H118.717V60.296C118.717 61.2133 118.658 61.9813 118.541 62.6C118.434 63.2187 118.269 63.72 118.045 64.104C117.831 64.4773 117.565 64.7493 117.245 64.92C116.935 65.08 116.578 65.16 116.173 65.16ZM124.35 57.688H126.334V61.896L129.726 57.688H131.278V65H129.294V60.552L125.71 65H124.35V57.688ZM140.839 65.112C140.263 65.112 139.73 65.0213 139.239 64.84C138.759 64.6587 138.343 64.4027 137.991 64.072C137.65 63.7307 137.378 63.3307 137.175 62.872C136.983 62.4133 136.887 61.9013 136.887 61.336C136.887 60.7707 136.983 60.2587 137.175 59.8C137.378 59.3307 137.655 58.9307 138.007 58.6C138.359 58.2693 138.775 58.0133 139.255 57.832C139.746 57.6507 140.274 57.56 140.839 57.56C141.415 57.56 141.943 57.6507 142.423 57.832C142.914 58.0133 143.335 58.2747 143.687 58.616C144.039 58.9467 144.311 59.3467 144.503 59.816C144.695 60.2747 144.791 60.7813 144.791 61.336C144.791 61.912 144.69 62.4347 144.487 62.904C144.284 63.3627 144.007 63.7573 143.655 64.088C143.303 64.408 142.887 64.6587 142.407 64.84C141.927 65.0213 141.404 65.112 140.839 65.112ZM140.839 63.432C141.426 63.432 141.884 63.2347 142.215 62.84C142.546 62.4453 142.711 61.944 142.711 61.336C142.711 60.728 142.551 60.232 142.231 59.848C141.911 59.4533 141.447 59.256 140.839 59.256C140.242 59.256 139.778 59.4533 139.447 59.848C139.116 60.2427 138.951 60.7387 138.951 61.336C138.951 61.624 138.994 61.896 139.079 62.152C139.164 62.408 139.287 62.632 139.447 62.824C139.607 63.016 139.804 63.1653 140.039 63.272C140.274 63.3787 140.54 63.432 140.839 63.432ZM154.833 57.688H156.817V65H146.225V57.688H148.209V63.256H150.545V57.688H152.513V63.256H154.833V57.688ZM158.71 57.688H160.694V61.896L164.086 57.688H165.638V65H163.654V60.552L160.07 65H158.71V57.688ZM171.17 65.144C169.751 65.144 168.717 64.7013 168.066 63.816C167.415 62.9307 167.09 61.6027 167.09 59.832C167.09 58.808 167.197 57.9333 167.41 57.208C167.623 56.472 167.927 55.8747 168.322 55.416C168.727 54.9467 169.213 54.6053 169.778 54.392C170.354 54.168 170.994 54.056 171.698 54.056C172.103 54.056 172.413 54.0187 172.626 53.944C172.839 53.8587 172.999 53.6987 173.106 53.464L174.674 53.928C174.589 54.2373 174.482 54.504 174.354 54.728C174.237 54.9413 174.071 55.1227 173.858 55.272C173.645 55.4213 173.373 55.5387 173.042 55.624C172.711 55.6987 172.29 55.752 171.778 55.784C171.287 55.816 170.861 55.88 170.498 55.976C170.146 56.072 169.847 56.2427 169.602 56.488C169.367 56.7227 169.181 57.0533 169.042 57.48C168.914 57.9067 168.829 58.4613 168.786 59.144C169.095 58.568 169.49 58.168 169.97 57.944C170.461 57.7093 170.994 57.592 171.57 57.592C172.103 57.592 172.583 57.6773 173.01 57.848C173.447 58.0187 173.815 58.264 174.114 58.584C174.413 58.904 174.642 59.288 174.802 59.736C174.962 60.1733 175.042 60.664 175.042 61.208C175.042 61.8053 174.946 62.3493 174.754 62.84C174.562 63.32 174.295 63.7307 173.954 64.072C173.613 64.4133 173.202 64.68 172.722 64.872C172.253 65.0533 171.735 65.144 171.17 65.144ZM171.122 63.4C171.666 63.4 172.103 63.2187 172.434 62.856C172.775 62.4827 172.946 61.9707 172.946 61.32C172.946 60.68 172.786 60.1787 172.466 59.816C172.157 59.4427 171.714 59.256 171.138 59.256C170.573 59.256 170.125 59.4373 169.794 59.8C169.463 60.1627 169.298 60.6693 169.298 61.32C169.298 61.96 169.463 62.4667 169.794 62.84C170.125 63.2133 170.567 63.4 171.122 63.4ZM176.491 57.688H178.475V60.376H179.243L181.003 57.688H183.067V57.96L180.891 61.016L183.611 64.728V65H181.403L179.195 61.88H178.475V65H176.491V57.688ZM184.538 57.688H186.522V61.896L189.914 57.688H191.466V65H189.482V60.552L185.898 65H184.538V57.688ZM194.438 65.16C194.065 65.16 193.777 65.0533 193.574 64.84C193.382 64.616 193.286 64.3493 193.286 64.04C193.286 63.7093 193.382 63.432 193.574 63.208C193.766 62.984 194.054 62.872 194.438 62.872C194.822 62.872 195.116 62.984 195.318 63.208C195.521 63.432 195.622 63.7093 195.622 64.04C195.622 64.3493 195.516 64.616 195.302 64.84C195.1 65.0533 194.812 65.16 194.438 65.16Z" fill="black"/>
<defs>
<linearGradient id="paint0_linear_107_21" x1="330.447" y1="48.1183" x2="-52.4536" y2="48.1183" gradientUnits="userSpaceOnUse">
<stop stop-color="white" stop-opacity="0.64"/>
<stop offset="0.325" stop-color="#2736C1" stop-opacity="0.72"/>
<stop offset="1" stop-color="#091FEA"/>
</linearGradient>
</defs>
</svg>
