<svg width="1227" height="163" viewBox="0 0 1227 163" fill="none" xmlns="http://www.w3.org/2000/svg">
<path d="M149.091 70.6069C156.096 67.3062 160.566 60.2583 160.566 52.5146V20C160.566 8.95431 169.52 0 180.566 0H1207C1218.05 0 1227 8.95431 1227 20V65.2V143C1227 154.046 1218.05 163 1207 163L42.37 163C21.0115 163 14.5241 134.011 33.8454 124.908L149.091 70.6069Z" fill="url(#paint0_linear_91_6)" fill-opacity="0.76"/>
<path d="M193.46 42H197.48V55.71L208.46 42H211.01V63H206.96V49.35L196.01 63H193.46V42ZM221.455 63.21C220.355 63.21 219.365 63.04 218.485 62.7C217.605 62.36 216.845 61.89 216.205 61.29C215.585 60.67 215.105 59.93 214.765 59.07C214.425 58.21 214.255 57.25 214.255 56.19C214.255 55.07 214.435 54.07 214.795 53.19C215.175 52.29 215.685 51.54 216.325 50.94C216.965 50.32 217.725 49.85 218.605 49.53C219.485 49.21 220.435 49.05 221.455 49.05C222.615 49.05 223.665 49.25 224.605 49.65C225.565 50.05 226.315 50.55 226.855 51.15L224.935 53.67C224.535 53.23 224.065 52.88 223.525 52.62C223.005 52.36 222.415 52.23 221.755 52.23C220.635 52.23 219.745 52.59 219.085 53.31C218.445 54.03 218.125 54.95 218.125 56.07C218.125 57.23 218.455 58.19 219.115 58.95C219.795 59.69 220.705 60.06 221.845 60.06C222.505 60.06 223.095 59.93 223.615 59.67C224.135 59.39 224.595 59.03 224.995 58.59L227.185 60.75C226.585 61.53 225.785 62.14 224.785 62.58C223.805 63 222.695 63.21 221.455 63.21ZM229.42 49.29H233.14V54.33H234.58L237.88 49.29H241.75V49.8L237.67 55.53L242.77 62.49V63H238.63L234.49 57.15H233.14V63H229.42V49.29ZM246.248 69.75L248.558 63.15L242.948 49.98V49.29H246.668L250.298 58.26L253.478 49.29H256.838L256.808 49.98L249.608 70.2H246.248V69.75ZM264.756 63.21C263.656 63.21 262.666 63.04 261.786 62.7C260.906 62.36 260.146 61.89 259.506 61.29C258.886 60.67 258.406 59.93 258.066 59.07C257.726 58.21 257.556 57.25 257.556 56.19C257.556 55.07 257.736 54.07 258.096 53.19C258.476 52.29 258.986 51.54 259.626 50.94C260.266 50.32 261.026 49.85 261.906 49.53C262.786 49.21 263.736 49.05 264.756 49.05C265.916 49.05 266.966 49.25 267.906 49.65C268.866 50.05 269.616 50.55 270.156 51.15L268.236 53.67C267.836 53.23 267.366 52.88 266.826 52.62C266.306 52.36 265.716 52.23 265.056 52.23C263.936 52.23 263.046 52.59 262.386 53.31C261.746 54.03 261.426 54.95 261.426 56.07C261.426 57.23 261.756 58.19 262.416 58.95C263.096 59.69 264.006 60.06 265.146 60.06C265.806 60.06 266.396 59.93 266.916 59.67C267.436 59.39 267.896 59.03 268.296 58.59L270.486 60.75C269.886 61.53 269.086 62.14 268.086 62.58C267.106 63 265.996 63.21 264.756 63.21ZM278.965 63.21C277.865 63.21 276.875 63.04 275.995 62.7C275.115 62.36 274.355 61.89 273.715 61.29C273.095 60.67 272.615 59.93 272.275 59.07C271.935 58.21 271.765 57.25 271.765 56.19C271.765 55.07 271.945 54.07 272.305 53.19C272.685 52.29 273.195 51.54 273.835 50.94C274.475 50.32 275.235 49.85 276.115 49.53C276.995 49.21 277.945 49.05 278.965 49.05C280.125 49.05 281.175 49.25 282.115 49.65C283.075 50.05 283.825 50.55 284.365 51.15L282.445 53.67C282.045 53.23 281.575 52.88 281.035 52.62C280.515 52.36 279.925 52.23 279.265 52.23C278.145 52.23 277.255 52.59 276.595 53.31C275.955 54.03 275.635 54.95 275.635 56.07C275.635 57.23 275.965 58.19 276.625 58.95C277.305 59.69 278.215 60.06 279.355 60.06C280.015 60.06 280.605 59.93 281.125 59.67C281.645 59.39 282.105 59.03 282.505 58.59L284.695 60.75C284.095 61.53 283.295 62.14 282.295 62.58C281.315 63 280.205 63.21 278.965 63.21ZM290.08 52.56H285.67V49.29H298.18V52.56H293.77V63H290.08V52.56ZM300.465 49.29H307.875C309.295 49.29 310.365 49.6 311.085 50.22C311.805 50.82 312.165 51.61 312.165 52.59C312.165 53.33 311.985 53.94 311.625 54.42C311.265 54.9 310.795 55.24 310.215 55.44C311.195 55.58 311.995 55.92 312.615 56.46C313.235 57 313.545 57.81 313.545 58.89C313.545 60.21 313.055 61.23 312.075 61.95C311.115 62.65 309.705 63 307.845 63H300.465V49.29ZM304.185 56.82V60.27H307.035C307.975 60.27 308.645 60.13 309.045 59.85C309.445 59.55 309.645 59.11 309.645 58.53C309.645 57.93 309.435 57.5 309.015 57.24C308.595 56.96 307.965 56.82 307.125 56.82H304.185ZM304.185 52.02V54.66H306.765C308.045 54.66 308.685 54.21 308.685 53.31C308.685 52.45 308.035 52.02 306.735 52.02H304.185ZM322.505 63.21C321.405 63.21 320.395 63.04 319.475 62.7C318.575 62.36 317.795 61.89 317.135 61.29C316.475 60.67 315.965 59.94 315.605 59.1C315.245 58.24 315.065 57.29 315.065 56.25C315.065 55.15 315.255 54.16 315.635 53.28C316.015 52.38 316.535 51.62 317.195 51C317.855 50.38 318.625 49.9 319.505 49.56C320.385 49.22 321.325 49.05 322.325 49.05C323.405 49.05 324.365 49.24 325.205 49.62C326.065 49.98 326.785 50.49 327.365 51.15C327.945 51.79 328.385 52.55 328.685 53.43C329.005 54.29 329.165 55.22 329.165 56.22V57H318.665C318.845 58.06 319.295 58.87 320.015 59.43C320.755 59.99 321.685 60.27 322.805 60.27C323.605 60.27 324.345 60.13 325.025 59.85C325.725 59.55 326.305 59.14 326.765 58.62L328.835 60.51C328.135 61.39 327.235 62.06 326.135 62.52C325.035 62.98 323.825 63.21 322.505 63.21ZM322.175 52.05C321.295 52.05 320.555 52.29 319.955 52.77C319.375 53.23 318.975 53.89 318.755 54.75H325.595C325.475 53.99 325.115 53.35 324.515 52.83C323.915 52.31 323.135 52.05 322.175 52.05ZM341.321 57.6H335.621V63H331.901V49.29H335.621V54.33H341.321V49.29H345.041V63H341.321V57.6ZM357.991 57.6H352.291V63H348.571V49.29H352.291V54.33H357.991V49.29H361.711V63H357.991V57.6ZM371.031 53.25C372.971 53.25 374.441 53.65 375.441 54.45C376.461 55.25 376.971 56.46 376.971 58.08C376.971 59.7 376.441 60.93 375.381 61.77C374.341 62.59 372.791 63 370.731 63H365.241V49.29H368.961V53.25H371.031ZM378.291 49.29H382.011V63H378.291V49.29ZM370.341 60.09C371.241 60.09 371.931 59.96 372.411 59.7C372.911 59.42 373.161 58.88 373.161 58.08C373.161 57.34 372.931 56.83 372.471 56.55C372.031 56.27 371.361 56.13 370.461 56.13H368.961V60.09H370.341ZM385.543 49.29H389.263V57.18L395.623 49.29H398.533V63H394.813V54.66L388.093 63H385.543V49.29ZM392.023 47.52C391.403 47.52 390.813 47.44 390.253 47.28C389.713 47.1 389.233 46.84 388.813 46.5C388.413 46.16 388.093 45.73 387.853 45.21C387.613 44.67 387.483 44.05 387.463 43.35H390.133C390.173 43.89 390.343 44.33 390.643 44.67C390.943 45.01 391.423 45.18 392.083 45.18C392.723 45.18 393.193 45.02 393.493 44.7C393.813 44.36 393.993 43.91 394.033 43.35H396.673C396.653 44.05 396.513 44.67 396.253 45.21C395.993 45.73 395.653 46.16 395.233 46.5C394.813 46.84 394.323 47.1 393.763 47.28C393.203 47.44 392.623 47.52 392.023 47.52ZM427.536 49.29H431.256V57.18L437.616 49.29H440.526V63H436.806V54.66L430.086 63H427.536V49.29ZM453.479 57.6H447.779V63H444.059V49.29H447.779V54.33H453.479V49.29H457.199V63H453.479V57.6ZM463.879 52.56H459.469V49.29H471.979V52.56H467.569V63H463.879V52.56ZM480.367 63.21C479.267 63.21 478.257 63.04 477.337 62.7C476.437 62.36 475.657 61.89 474.997 61.29C474.337 60.67 473.827 59.94 473.467 59.1C473.107 58.24 472.927 57.29 472.927 56.25C472.927 55.15 473.117 54.16 473.497 53.28C473.877 52.38 474.397 51.62 475.057 51C475.717 50.38 476.487 49.9 477.367 49.56C478.247 49.22 479.187 49.05 480.187 49.05C481.267 49.05 482.227 49.24 483.067 49.62C483.927 49.98 484.647 50.49 485.227 51.15C485.807 51.79 486.247 52.55 486.547 53.43C486.867 54.29 487.027 55.22 487.027 56.22V57H476.527C476.707 58.06 477.157 58.87 477.877 59.43C478.617 59.99 479.547 60.27 480.667 60.27C481.467 60.27 482.207 60.13 482.887 59.85C483.587 59.55 484.167 59.14 484.627 58.62L486.697 60.51C485.997 61.39 485.097 62.06 483.997 62.52C482.897 62.98 481.687 63.21 480.367 63.21ZM480.037 52.05C479.157 52.05 478.417 52.29 477.817 52.77C477.237 53.23 476.837 53.89 476.617 54.75H483.457C483.337 53.99 482.977 53.35 482.377 52.83C481.777 52.31 480.997 52.05 480.037 52.05ZM489.166 63.3C488.946 63.3 488.746 63.29 488.566 63.27C488.406 63.25 488.266 63.23 488.146 63.21V59.64C488.346 59.68 488.506 59.7 488.626 59.7C488.966 59.7 489.256 59.58 489.496 59.34C489.736 59.08 489.926 58.67 490.066 58.11C490.226 57.53 490.336 56.78 490.396 55.86C490.476 54.94 490.516 53.82 490.516 52.5V49.29H500.926V63H497.236V52.56H493.936V54.18C493.936 55.9 493.826 57.34 493.606 58.5C493.406 59.66 493.096 60.6 492.676 61.32C492.276 62.02 491.776 62.53 491.176 62.85C490.596 63.15 489.926 63.3 489.166 63.3ZM504.049 63.3C503.829 63.3 503.629 63.29 503.449 63.27C503.289 63.25 503.149 63.23 503.029 63.21V59.64C503.229 59.68 503.389 59.7 503.509 59.7C503.849 59.7 504.139 59.58 504.379 59.34C504.619 59.08 504.809 58.67 504.949 58.11C505.109 57.53 505.219 56.78 505.279 55.86C505.359 54.94 505.399 53.82 505.399 52.5V49.29H515.809V63H512.119V52.56H508.819V54.18C508.819 55.9 508.709 57.34 508.489 58.5C508.289 59.66 507.979 60.6 507.559 61.32C507.159 62.02 506.659 62.53 506.059 62.85C505.479 63.15 504.809 63.3 504.049 63.3ZM526.012 63.21C524.912 63.21 523.902 63.04 522.982 62.7C522.082 62.36 521.302 61.89 520.642 61.29C519.982 60.67 519.472 59.94 519.112 59.1C518.752 58.24 518.572 57.29 518.572 56.25C518.572 55.15 518.762 54.16 519.142 53.28C519.522 52.38 520.042 51.62 520.702 51C521.362 50.38 522.132 49.9 523.012 49.56C523.892 49.22 524.832 49.05 525.832 49.05C526.912 49.05 527.872 49.24 528.712 49.62C529.572 49.98 530.292 50.49 530.872 51.15C531.452 51.79 531.892 52.55 532.192 53.43C532.512 54.29 532.672 55.22 532.672 56.22V57H522.172C522.352 58.06 522.802 58.87 523.522 59.43C524.262 59.99 525.192 60.27 526.312 60.27C527.112 60.27 527.852 60.13 528.532 59.85C529.232 59.55 529.812 59.14 530.272 58.62L532.342 60.51C531.642 61.39 530.742 62.06 529.642 62.52C528.542 62.98 527.332 63.21 526.012 63.21ZM525.682 52.05C524.802 52.05 524.062 52.29 523.462 52.77C522.882 53.23 522.482 53.89 522.262 54.75H529.102C528.982 53.99 528.622 53.35 528.022 52.83C527.422 52.31 526.642 52.05 525.682 52.05ZM535.407 49.29H539.127V54.33H540.567L543.867 49.29H547.737V49.8L543.657 55.53L548.757 62.49V63H544.617L540.477 57.15H539.127V63H535.407V49.29ZM553.645 52.56H549.235V49.29H561.745V52.56H557.335V63H553.645V52.56ZM589.499 49.29H602.399V63H598.709V52.56H593.219V63H589.499V49.29ZM612.564 63.21C611.484 63.21 610.484 63.04 609.564 62.7C608.664 62.36 607.884 61.88 607.224 61.26C606.584 60.62 606.074 59.87 605.694 59.01C605.334 58.15 605.154 57.19 605.154 56.13C605.154 55.07 605.334 54.11 605.694 53.25C606.074 52.37 606.594 51.62 607.254 51C607.914 50.38 608.694 49.9 609.594 49.56C610.514 49.22 611.504 49.05 612.564 49.05C613.644 49.05 614.634 49.22 615.534 49.56C616.454 49.9 617.244 50.39 617.904 51.03C618.564 51.65 619.074 52.4 619.434 53.28C619.794 54.14 619.974 55.09 619.974 56.13C619.974 57.21 619.784 58.19 619.404 59.07C619.024 59.93 618.504 60.67 617.844 61.29C617.184 61.89 616.404 62.36 615.504 62.7C614.604 63.04 613.624 63.21 612.564 63.21ZM612.564 60.06C613.664 60.06 614.524 59.69 615.144 58.95C615.764 58.21 616.074 57.27 616.074 56.13C616.074 54.99 615.774 54.06 615.174 53.34C614.574 52.6 613.704 52.23 612.564 52.23C611.444 52.23 610.574 52.6 609.954 53.34C609.334 54.08 609.024 55.01 609.024 56.13C609.024 56.67 609.104 57.18 609.264 57.66C609.424 58.14 609.654 58.56 609.954 58.92C610.254 59.28 610.624 59.56 611.064 59.76C611.504 59.96 612.004 60.06 612.564 60.06ZM623.867 49.29H627.047L630.677 57.24L634.097 49.29H637.367L639.647 63H636.167L634.847 54.99L631.307 63H629.717L626.147 55.14L624.857 63H621.557L623.867 49.29ZM648.599 63.21C647.519 63.21 646.519 63.04 645.599 62.7C644.699 62.36 643.919 61.88 643.259 61.26C642.619 60.62 642.109 59.87 641.729 59.01C641.369 58.15 641.189 57.19 641.189 56.13C641.189 55.07 641.369 54.11 641.729 53.25C642.109 52.37 642.629 51.62 643.289 51C643.949 50.38 644.729 49.9 645.629 49.56C646.549 49.22 647.539 49.05 648.599 49.05C649.679 49.05 650.669 49.22 651.569 49.56C652.489 49.9 653.279 50.39 653.939 51.03C654.599 51.65 655.109 52.4 655.469 53.28C655.829 54.14 656.009 55.09 656.009 56.13C656.009 57.21 655.819 58.19 655.439 59.07C655.059 59.93 654.539 60.67 653.879 61.29C653.219 61.89 652.439 62.36 651.539 62.7C650.639 63.04 649.659 63.21 648.599 63.21ZM648.599 60.06C649.699 60.06 650.559 59.69 651.179 58.95C651.799 58.21 652.109 57.27 652.109 56.13C652.109 54.99 651.809 54.06 651.209 53.34C650.609 52.6 649.739 52.23 648.599 52.23C647.479 52.23 646.609 52.6 645.989 53.34C645.369 54.08 645.059 55.01 645.059 56.13C645.059 56.67 645.139 57.18 645.299 57.66C645.459 58.14 645.689 58.56 645.989 58.92C646.289 59.28 646.659 59.56 647.099 59.76C647.539 59.96 648.039 60.06 648.599 60.06ZM658.698 49.29H668.208V52.56H662.418V63H658.698V49.29ZM675.763 63.21C674.943 63.21 674.143 63.04 673.363 62.7C672.603 62.36 671.923 61.88 671.323 61.26C670.743 60.64 670.273 59.9 669.913 59.04C669.553 58.16 669.373 57.19 669.373 56.13C669.373 55.07 669.543 54.11 669.883 53.25C670.243 52.37 670.713 51.62 671.293 51C671.893 50.38 672.573 49.9 673.333 49.56C674.113 49.22 674.923 49.05 675.763 49.05C676.783 49.05 677.683 49.25 678.463 49.65C679.263 50.05 679.893 50.54 680.353 51.12V49.29H683.863V63H680.353V61.14C679.853 61.76 679.203 62.26 678.403 62.64C677.603 63.02 676.723 63.21 675.763 63.21ZM676.753 60.03C677.773 60.03 678.583 59.68 679.183 58.98C679.803 58.26 680.123 57.33 680.143 56.19V55.95C680.143 54.89 679.833 54.02 679.213 53.34C678.593 52.66 677.773 52.32 676.753 52.32C676.293 52.32 675.853 52.4 675.433 52.56C675.013 52.72 674.643 52.96 674.323 53.28C674.003 53.6 673.753 54 673.573 54.48C673.393 54.96 673.303 55.51 673.303 56.13C673.303 57.33 673.623 58.28 674.263 58.98C674.923 59.68 675.753 60.03 676.753 60.03ZM694.039 63.21C692.939 63.21 691.929 63.04 691.009 62.7C690.109 62.36 689.329 61.89 688.669 61.29C688.009 60.67 687.499 59.94 687.139 59.1C686.779 58.24 686.599 57.29 686.599 56.25C686.599 55.15 686.789 54.16 687.169 53.28C687.549 52.38 688.069 51.62 688.729 51C689.389 50.38 690.159 49.9 691.039 49.56C691.919 49.22 692.859 49.05 693.859 49.05C694.939 49.05 695.899 49.24 696.739 49.62C697.599 49.98 698.319 50.49 698.899 51.15C699.479 51.79 699.919 52.55 700.219 53.43C700.539 54.29 700.699 55.22 700.699 56.22V57H690.199C690.379 58.06 690.829 58.87 691.549 59.43C692.289 59.99 693.219 60.27 694.339 60.27C695.139 60.27 695.879 60.13 696.559 59.85C697.259 59.55 697.839 59.14 698.299 58.62L700.369 60.51C699.669 61.39 698.769 62.06 697.669 62.52C696.569 62.98 695.359 63.21 694.039 63.21ZM693.709 52.05C692.829 52.05 692.089 52.29 691.489 52.77C690.909 53.23 690.509 53.89 690.289 54.75H697.129C697.009 53.99 696.649 53.35 696.049 52.83C695.449 52.31 694.669 52.05 693.709 52.05ZM706.145 52.56H701.735V49.29H714.245V52.56H709.835V63H706.145V52.56ZM741.999 49.29H749.409C750.829 49.29 751.899 49.6 752.619 50.22C753.339 50.82 753.699 51.61 753.699 52.59C753.699 53.33 753.519 53.94 753.159 54.42C752.799 54.9 752.329 55.24 751.749 55.44C752.729 55.58 753.529 55.92 754.149 56.46C754.769 57 755.079 57.81 755.079 58.89C755.079 60.21 754.589 61.23 753.609 61.95C752.649 62.65 751.239 63 749.379 63H741.999V49.29ZM745.719 56.82V60.27H748.569C749.509 60.27 750.179 60.13 750.579 59.85C750.979 59.55 751.179 59.11 751.179 58.53C751.179 57.93 750.969 57.5 750.549 57.24C750.129 56.96 749.499 56.82 748.659 56.82H745.719ZM745.719 52.02V54.66H748.299C749.579 54.66 750.219 54.21 750.219 53.31C750.219 52.45 749.569 52.02 748.269 52.02H745.719ZM789.479 63.21C788.399 63.21 787.399 63.04 786.479 62.7C785.579 62.36 784.799 61.88 784.139 61.26C783.499 60.62 782.989 59.87 782.609 59.01C782.249 58.15 782.069 57.19 782.069 56.13C782.069 55.07 782.249 54.11 782.609 53.25C782.989 52.37 783.509 51.62 784.169 51C784.829 50.38 785.609 49.9 786.509 49.56C787.429 49.22 788.419 49.05 789.479 49.05C790.559 49.05 791.549 49.22 792.449 49.56C793.369 49.9 794.159 50.39 794.819 51.03C795.479 51.65 795.989 52.4 796.349 53.28C796.709 54.14 796.889 55.09 796.889 56.13C796.889 57.21 796.699 58.19 796.319 59.07C795.939 59.93 795.419 60.67 794.759 61.29C794.099 61.89 793.319 62.36 792.419 62.7C791.519 63.04 790.539 63.21 789.479 63.21ZM789.479 60.06C790.579 60.06 791.439 59.69 792.059 58.95C792.679 58.21 792.989 57.27 792.989 56.13C792.989 54.99 792.689 54.06 792.089 53.34C791.489 52.6 790.619 52.23 789.479 52.23C788.359 52.23 787.489 52.6 786.869 53.34C786.249 54.08 785.939 55.01 785.939 56.13C785.939 56.67 786.019 57.18 786.179 57.66C786.339 58.14 786.569 58.56 786.869 58.92C787.169 59.28 787.539 59.56 787.979 59.76C788.419 59.96 788.919 60.06 789.479 60.06ZM806.418 63.27C803.758 63.27 801.818 62.44 800.598 60.78C799.378 59.12 798.768 56.63 798.768 53.31C798.768 51.39 798.968 49.75 799.368 48.39C799.768 47.01 800.338 45.89 801.078 45.03C801.838 44.15 802.748 43.51 803.808 43.11C804.888 42.69 806.088 42.48 807.408 42.48C808.168 42.48 808.748 42.41 809.148 42.27C809.548 42.11 809.848 41.81 810.048 41.37L812.988 42.24C812.828 42.82 812.628 43.32 812.388 43.74C812.168 44.14 811.858 44.48 811.458 44.76C811.058 45.04 810.548 45.26 809.928 45.42C809.308 45.56 808.518 45.66 807.558 45.72C806.638 45.78 805.838 45.9 805.158 46.08C804.498 46.26 803.938 46.58 803.478 47.04C803.038 47.48 802.688 48.1 802.428 48.9C802.188 49.7 802.028 50.74 801.948 52.02C802.528 50.94 803.268 50.19 804.168 49.77C805.088 49.33 806.088 49.11 807.168 49.11C808.168 49.11 809.068 49.27 809.868 49.59C810.688 49.91 811.378 50.37 811.938 50.97C812.498 51.57 812.928 52.29 813.228 53.13C813.528 53.95 813.678 54.87 813.678 55.89C813.678 57.01 813.498 58.03 813.138 58.95C812.778 59.85 812.278 60.62 811.638 61.26C810.998 61.9 810.228 62.4 809.328 62.76C808.448 63.1 807.478 63.27 806.418 63.27ZM806.328 60C807.348 60 808.168 59.66 808.788 58.98C809.428 58.28 809.748 57.32 809.748 56.1C809.748 54.9 809.448 53.96 808.848 53.28C808.268 52.58 807.438 52.23 806.358 52.23C805.298 52.23 804.458 52.57 803.838 53.25C803.218 53.93 802.908 54.88 802.908 56.1C802.908 57.3 803.218 58.25 803.838 58.95C804.458 59.65 805.288 60 806.328 60ZM816.394 70.2V49.29H819.904V51.12C820.364 50.54 820.984 50.05 821.764 49.65C822.564 49.25 823.474 49.05 824.494 49.05C825.334 49.05 826.134 49.22 826.894 49.56C827.674 49.9 828.354 50.38 828.934 51C829.534 51.62 830.004 52.37 830.344 53.25C830.704 54.11 830.884 55.07 830.884 56.13C830.884 57.19 830.704 58.16 830.344 59.04C829.984 59.9 829.504 60.64 828.904 61.26C828.324 61.88 827.644 62.36 826.864 62.7C826.104 63.04 825.314 63.21 824.494 63.21C823.594 63.21 822.764 63.05 822.004 62.73C821.244 62.39 820.614 61.94 820.114 61.38V70.2H816.394ZM823.504 52.32C822.484 52.32 821.674 52.65 821.074 53.31C820.474 53.95 820.154 54.78 820.114 55.8V56.19C820.134 57.33 820.444 58.26 821.044 58.98C821.664 59.68 822.484 60.03 823.504 60.03C824.504 60.03 825.324 59.68 825.964 58.98C826.624 58.28 826.954 57.33 826.954 56.13C826.954 55.51 826.854 54.96 826.654 54.48C826.474 54 826.224 53.6 825.904 53.28C825.604 52.96 825.244 52.72 824.824 52.56C824.404 52.4 823.964 52.32 823.504 52.32ZM839.201 63.21C838.381 63.21 837.581 63.04 836.801 62.7C836.041 62.36 835.361 61.88 834.761 61.26C834.181 60.64 833.711 59.9 833.351 59.04C832.991 58.16 832.811 57.19 832.811 56.13C832.811 55.07 832.981 54.11 833.321 53.25C833.681 52.37 834.151 51.62 834.731 51C835.331 50.38 836.011 49.9 836.771 49.56C837.551 49.22 838.361 49.05 839.201 49.05C840.221 49.05 841.121 49.25 841.901 49.65C842.701 50.05 843.331 50.54 843.791 51.12V49.29H847.301V63H843.791V61.14C843.291 61.76 842.641 62.26 841.841 62.64C841.041 63.02 840.161 63.21 839.201 63.21ZM840.191 60.03C841.211 60.03 842.021 59.68 842.621 58.98C843.241 58.26 843.561 57.33 843.581 56.19V55.95C843.581 54.89 843.271 54.02 842.651 53.34C842.031 52.66 841.211 52.32 840.191 52.32C839.731 52.32 839.291 52.4 838.871 52.56C838.451 52.72 838.081 52.96 837.761 53.28C837.441 53.6 837.191 54 837.011 54.48C836.831 54.96 836.741 55.51 836.741 56.13C836.741 57.33 837.061 58.28 837.701 58.98C838.361 59.68 839.191 60.03 840.191 60.03ZM855.347 63.21C854.607 63.21 853.917 63.13 853.277 62.97C852.657 62.81 852.097 62.61 851.597 62.37C851.117 62.13 850.697 61.87 850.337 61.59C849.997 61.31 849.737 61.05 849.557 60.81L851.927 58.59C852.247 58.99 852.697 59.34 853.277 59.64C853.857 59.92 854.527 60.06 855.287 60.06C856.827 60.06 857.597 59.53 857.597 58.47C857.597 58.07 857.427 57.73 857.087 57.45C856.747 57.17 856.157 57.03 855.317 57.03H853.397V54.42H854.897C855.537 54.42 856.037 54.33 856.397 54.15C856.757 53.95 856.937 53.65 856.937 53.25C856.937 52.91 856.757 52.65 856.397 52.47C856.037 52.27 855.567 52.17 854.987 52.17C854.447 52.17 853.917 52.29 853.397 52.53C852.897 52.75 852.467 53.03 852.107 53.37L850.097 51.27C850.317 51.01 850.587 50.75 850.907 50.49C851.247 50.23 851.637 50 852.077 49.8C852.517 49.58 853.017 49.4 853.577 49.26C854.137 49.12 854.747 49.05 855.407 49.05C856.187 49.05 856.897 49.14 857.537 49.32C858.177 49.5 858.727 49.75 859.187 50.07C859.647 50.37 859.997 50.75 860.237 51.21C860.497 51.65 860.627 52.14 860.627 52.68C860.627 53.32 860.457 53.88 860.117 54.36C859.777 54.84 859.307 55.22 858.707 55.5C859.607 55.78 860.277 56.2 860.717 56.76C861.177 57.32 861.407 57.99 861.407 58.77C861.407 59.39 861.267 59.97 860.987 60.51C860.707 61.05 860.307 61.52 859.787 61.92C859.267 62.32 858.627 62.64 857.867 62.88C857.127 63.1 856.287 63.21 855.347 63.21ZM870.514 63.21C869.434 63.21 868.434 63.04 867.514 62.7C866.614 62.36 865.834 61.88 865.174 61.26C864.534 60.62 864.024 59.87 863.644 59.01C863.284 58.15 863.104 57.19 863.104 56.13C863.104 55.07 863.284 54.11 863.644 53.25C864.024 52.37 864.544 51.62 865.204 51C865.864 50.38 866.644 49.9 867.544 49.56C868.464 49.22 869.454 49.05 870.514 49.05C871.594 49.05 872.584 49.22 873.484 49.56C874.404 49.9 875.194 50.39 875.854 51.03C876.514 51.65 877.024 52.4 877.384 53.28C877.744 54.14 877.924 55.09 877.924 56.13C877.924 57.21 877.734 58.19 877.354 59.07C876.974 59.93 876.454 60.67 875.794 61.29C875.134 61.89 874.354 62.36 873.454 62.7C872.554 63.04 871.574 63.21 870.514 63.21ZM870.514 60.06C871.614 60.06 872.474 59.69 873.094 58.95C873.714 58.21 874.024 57.27 874.024 56.13C874.024 54.99 873.724 54.06 873.124 53.34C872.524 52.6 871.654 52.23 870.514 52.23C869.394 52.23 868.524 52.6 867.904 53.34C867.284 54.08 866.974 55.01 866.974 56.13C866.974 56.67 867.054 57.18 867.214 57.66C867.374 58.14 867.604 58.56 867.904 58.92C868.204 59.28 868.574 59.56 869.014 59.76C869.454 59.96 869.954 60.06 870.514 60.06ZM880.613 49.29H888.023C889.443 49.29 890.513 49.6 891.233 50.22C891.953 50.82 892.313 51.61 892.313 52.59C892.313 53.33 892.133 53.94 891.773 54.42C891.413 54.9 890.943 55.24 890.363 55.44C891.343 55.58 892.143 55.92 892.763 56.46C893.383 57 893.693 57.81 893.693 58.89C893.693 60.21 893.203 61.23 892.223 61.95C891.263 62.65 889.853 63 887.993 63H880.613V49.29ZM884.333 56.82V60.27H887.183C888.123 60.27 888.793 60.13 889.193 59.85C889.593 59.55 889.793 59.11 889.793 58.53C889.793 57.93 889.583 57.5 889.163 57.24C888.743 56.96 888.113 56.82 887.273 56.82H884.333ZM884.333 52.02V54.66H886.913C888.193 54.66 888.833 54.21 888.833 53.31C888.833 52.45 888.183 52.02 886.883 52.02H884.333ZM901.603 63.21C900.783 63.21 899.983 63.04 899.203 62.7C898.443 62.36 897.763 61.88 897.163 61.26C896.583 60.64 896.113 59.9 895.753 59.04C895.393 58.16 895.213 57.19 895.213 56.13C895.213 55.07 895.383 54.11 895.723 53.25C896.083 52.37 896.553 51.62 897.133 51C897.733 50.38 898.413 49.9 899.173 49.56C899.953 49.22 900.763 49.05 901.603 49.05C902.623 49.05 903.523 49.25 904.303 49.65C905.103 50.05 905.733 50.54 906.193 51.12V49.29H909.703V63H906.193V61.14C905.693 61.76 905.043 62.26 904.243 62.64C903.443 63.02 902.563 63.21 901.603 63.21ZM902.593 60.03C903.613 60.03 904.423 59.68 905.023 58.98C905.643 58.26 905.963 57.33 905.983 56.19V55.95C905.983 54.89 905.673 54.02 905.053 53.34C904.433 52.66 903.613 52.32 902.593 52.32C902.133 52.32 901.693 52.4 901.273 52.56C900.853 52.72 900.483 52.96 900.163 53.28C899.843 53.6 899.593 54 899.413 54.48C899.233 54.96 899.143 55.51 899.143 56.13C899.143 57.33 899.463 58.28 900.103 58.98C900.763 59.68 901.593 60.03 902.593 60.03ZM922.67 57.6H916.97V63H913.25V49.29H916.97V54.33H922.67V49.29H926.39V63H922.67V57.6ZM929.92 49.29H933.64V57.18L940 49.29H942.91V63H939.19V54.66L932.47 63H929.92V49.29ZM946.443 49.29H950.163V57.18L956.523 49.29H959.433V63H955.713V54.66L948.993 63H946.443V49.29ZM964.256 63.15C963.656 63.05 963.196 62.82 962.876 62.46C962.576 62.08 962.426 61.63 962.426 61.11C962.426 60.45 962.636 59.93 963.056 59.55C963.496 59.15 964.016 58.95 964.616 58.95C965.256 58.95 965.806 59.16 966.266 59.58C966.746 60 966.986 60.6 966.986 61.38C966.986 61.9 966.846 62.48 966.566 63.12C966.286 63.76 965.856 64.59 965.276 65.61L964.076 67.8H961.676L964.256 63.15ZM1005.3 57.6H999.597V63H995.877V49.29H999.597V54.33H1005.3V49.29H1009.02V63H1005.3V57.6ZM1019.15 63.21C1018.07 63.21 1017.07 63.04 1016.15 62.7C1015.25 62.36 1014.47 61.88 1013.81 61.26C1013.17 60.62 1012.66 59.87 1012.28 59.01C1011.92 58.15 1011.74 57.19 1011.74 56.13C1011.74 55.07 1011.92 54.11 1012.28 53.25C1012.66 52.37 1013.18 51.62 1013.84 51C1014.5 50.38 1015.28 49.9 1016.18 49.56C1017.1 49.22 1018.09 49.05 1019.15 49.05C1020.23 49.05 1021.22 49.22 1022.12 49.56C1023.04 49.9 1023.83 50.39 1024.49 51.03C1025.15 51.65 1025.66 52.4 1026.02 53.28C1026.38 54.14 1026.56 55.09 1026.56 56.13C1026.56 57.21 1026.37 58.19 1025.99 59.07C1025.61 59.93 1025.09 60.67 1024.43 61.29C1023.77 61.89 1022.99 62.36 1022.09 62.7C1021.19 63.04 1020.21 63.21 1019.15 63.21ZM1019.15 60.06C1020.25 60.06 1021.11 59.69 1021.73 58.95C1022.35 58.21 1022.66 57.27 1022.66 56.13C1022.66 54.99 1022.36 54.06 1021.76 53.34C1021.16 52.6 1020.29 52.23 1019.15 52.23C1018.03 52.23 1017.16 52.6 1016.54 53.34C1015.92 54.08 1015.61 55.01 1015.61 56.13C1015.61 56.67 1015.69 57.18 1015.85 57.66C1016.01 58.14 1016.24 58.56 1016.54 58.92C1016.84 59.28 1017.21 59.56 1017.65 59.76C1018.09 59.96 1018.59 60.06 1019.15 60.06ZM1057.87 52.56H1053.46V49.29H1065.97V52.56H1061.56V63H1057.87V52.56ZM1074.32 63.21C1073.24 63.21 1072.24 63.04 1071.32 62.7C1070.42 62.36 1069.64 61.88 1068.98 61.26C1068.34 60.62 1067.83 59.87 1067.45 59.01C1067.09 58.15 1066.91 57.19 1066.91 56.13C1066.91 55.07 1067.09 54.11 1067.45 53.25C1067.83 52.37 1068.35 51.62 1069.01 51C1069.67 50.38 1070.45 49.9 1071.35 49.56C1072.27 49.22 1073.26 49.05 1074.32 49.05C1075.4 49.05 1076.39 49.22 1077.29 49.56C1078.21 49.9 1079 50.39 1079.66 51.03C1080.32 51.65 1080.83 52.4 1081.19 53.28C1081.55 54.14 1081.73 55.09 1081.73 56.13C1081.73 57.21 1081.54 58.19 1081.16 59.07C1080.78 59.93 1080.26 60.67 1079.6 61.29C1078.94 61.89 1078.16 62.36 1077.26 62.7C1076.36 63.04 1075.38 63.21 1074.32 63.21ZM1074.32 60.06C1075.42 60.06 1076.28 59.69 1076.9 58.95C1077.52 58.21 1077.83 57.27 1077.83 56.13C1077.83 54.99 1077.53 54.06 1076.93 53.34C1076.33 52.6 1075.46 52.23 1074.32 52.23C1073.2 52.23 1072.33 52.6 1071.71 53.34C1071.09 54.08 1070.78 55.01 1070.78 56.13C1070.78 56.67 1070.86 57.18 1071.02 57.66C1071.18 58.14 1071.41 58.56 1071.71 58.92C1072.01 59.28 1072.38 59.56 1072.82 59.76C1073.26 59.96 1073.76 60.06 1074.32 60.06ZM1083.83 63.3C1083.61 63.3 1083.41 63.29 1083.23 63.27C1083.07 63.25 1082.93 63.23 1082.81 63.21V59.64C1083.01 59.68 1083.17 59.7 1083.29 59.7C1083.63 59.7 1083.92 59.58 1084.16 59.34C1084.4 59.08 1084.59 58.67 1084.73 58.11C1084.89 57.53 1085 56.78 1085.06 55.86C1085.14 54.94 1085.18 53.82 1085.18 52.5V49.29H1095.59V63H1091.9V52.56H1088.6V54.18C1088.6 55.9 1088.49 57.34 1088.27 58.5C1088.07 59.66 1087.76 60.6 1087.34 61.32C1086.94 62.02 1086.44 62.53 1085.84 62.85C1085.26 63.15 1084.59 63.3 1083.83 63.3ZM1099.16 49.29H1102.88V53.25H1105.31C1107.25 53.25 1108.72 53.65 1109.72 54.45C1110.74 55.25 1111.25 56.46 1111.25 58.08C1111.25 59.7 1110.72 60.93 1109.66 61.77C1108.62 62.59 1107.07 63 1105.01 63H1099.16V49.29ZM1104.65 60.09C1105.55 60.09 1106.24 59.96 1106.72 59.7C1107.2 59.42 1107.44 58.88 1107.44 58.08C1107.44 57.34 1107.22 56.83 1106.78 56.55C1106.34 56.27 1105.67 56.13 1104.77 56.13H1102.88V60.09H1104.65ZM1113.63 49.29H1117.35V54.33H1118.79L1122.09 49.29H1125.96V49.8L1121.88 55.53L1126.98 62.49V63H1122.84L1118.7 57.15H1117.35V63H1113.63V49.29ZM1134.79 63.21C1133.71 63.21 1132.71 63.04 1131.79 62.7C1130.89 62.36 1130.11 61.88 1129.45 61.26C1128.81 60.62 1128.3 59.87 1127.92 59.01C1127.56 58.15 1127.38 57.19 1127.38 56.13C1127.38 55.07 1127.56 54.11 1127.92 53.25C1128.3 52.37 1128.82 51.62 1129.48 51C1130.14 50.38 1130.92 49.9 1131.82 49.56C1132.74 49.22 1133.73 49.05 1134.79 49.05C1135.87 49.05 1136.86 49.22 1137.76 49.56C1138.68 49.9 1139.47 50.39 1140.13 51.03C1140.79 51.65 1141.3 52.4 1141.66 53.28C1142.02 54.14 1142.2 55.09 1142.2 56.13C1142.2 57.21 1142.01 58.19 1141.63 59.07C1141.25 59.93 1140.73 60.67 1140.07 61.29C1139.41 61.89 1138.63 62.36 1137.73 62.7C1136.83 63.04 1135.85 63.21 1134.79 63.21ZM1134.79 60.06C1135.89 60.06 1136.75 59.69 1137.37 58.95C1137.99 58.21 1138.3 57.27 1138.3 56.13C1138.3 54.99 1138 54.06 1137.4 53.34C1136.8 52.6 1135.93 52.23 1134.79 52.23C1133.67 52.23 1132.8 52.6 1132.18 53.34C1131.56 54.08 1131.25 55.01 1131.25 56.13C1131.25 56.67 1131.33 57.18 1131.49 57.66C1131.65 58.14 1131.88 58.56 1132.18 58.92C1132.48 59.28 1132.85 59.56 1133.29 59.76C1133.73 59.96 1134.23 60.06 1134.79 60.06ZM1170.36 49.29H1177.77C1179.19 49.29 1180.26 49.6 1180.98 50.22C1181.7 50.82 1182.06 51.61 1182.06 52.59C1182.06 53.33 1181.88 53.94 1181.52 54.42C1181.16 54.9 1180.69 55.24 1180.11 55.44C1181.09 55.58 1181.89 55.92 1182.51 56.46C1183.13 57 1183.44 57.81 1183.44 58.89C1183.44 60.21 1182.95 61.23 1181.97 61.95C1181.01 62.65 1179.6 63 1177.74 63H1170.36V49.29ZM1174.08 56.82V60.27H1176.93C1177.87 60.27 1178.54 60.13 1178.94 59.85C1179.34 59.55 1179.54 59.11 1179.54 58.53C1179.54 57.93 1179.33 57.5 1178.91 57.24C1178.49 56.96 1177.86 56.82 1177.02 56.82H1174.08ZM1174.08 52.02V54.66H1176.66C1177.94 54.66 1178.58 54.21 1178.58 53.31C1178.58 52.45 1177.93 52.02 1176.63 52.02H1174.08ZM192.77 106.2V85.29H196.28V87.12C196.74 86.54 197.36 86.05 198.14 85.65C198.94 85.25 199.85 85.05 200.87 85.05C201.71 85.05 202.51 85.22 203.27 85.56C204.05 85.9 204.73 86.38 205.31 87C205.91 87.62 206.38 88.37 206.72 89.25C207.08 90.11 207.26 91.07 207.26 92.13C207.26 93.19 207.08 94.16 206.72 95.04C206.36 95.9 205.88 96.64 205.28 97.26C204.7 97.88 204.02 98.36 203.24 98.7C202.48 99.04 201.69 99.21 200.87 99.21C199.97 99.21 199.14 99.05 198.38 98.73C197.62 98.39 196.99 97.94 196.49 97.38V106.2H192.77ZM199.88 88.32C198.86 88.32 198.05 88.65 197.45 89.31C196.85 89.95 196.53 90.78 196.49 91.8V92.19C196.51 93.33 196.82 94.26 197.42 94.98C198.04 95.68 198.86 96.03 199.88 96.03C200.88 96.03 201.7 95.68 202.34 94.98C203 94.28 203.33 93.33 203.33 92.13C203.33 91.51 203.23 90.96 203.03 90.48C202.85 90 202.6 89.6 202.28 89.28C201.98 88.96 201.62 88.72 201.2 88.56C200.78 88.4 200.34 88.32 199.88 88.32ZM215.577 99.21C214.757 99.21 213.957 99.04 213.177 98.7C212.417 98.36 211.737 97.88 211.137 97.26C210.557 96.64 210.087 95.9 209.727 95.04C209.367 94.16 209.187 93.19 209.187 92.13C209.187 91.07 209.357 90.11 209.697 89.25C210.057 88.37 210.527 87.62 211.107 87C211.707 86.38 212.387 85.9 213.147 85.56C213.927 85.22 214.737 85.05 215.577 85.05C216.597 85.05 217.497 85.25 218.277 85.65C219.077 86.05 219.707 86.54 220.167 87.12V85.29H223.677V99H220.167V97.14C219.667 97.76 219.017 98.26 218.217 98.64C217.417 99.02 216.537 99.21 215.577 99.21ZM216.567 96.03C217.587 96.03 218.397 95.68 218.997 94.98C219.617 94.26 219.937 93.33 219.957 92.19V91.95C219.957 90.89 219.647 90.02 219.027 89.34C218.407 88.66 217.587 88.32 216.567 88.32C216.107 88.32 215.667 88.4 215.247 88.56C214.827 88.72 214.457 88.96 214.137 89.28C213.817 89.6 213.567 90 213.387 90.48C213.207 90.96 213.117 91.51 213.117 92.13C213.117 93.33 213.437 94.28 214.077 94.98C214.737 95.68 215.567 96.03 216.567 96.03ZM231.723 99.21C230.983 99.21 230.293 99.13 229.653 98.97C229.033 98.81 228.473 98.61 227.973 98.37C227.493 98.13 227.073 97.87 226.713 97.59C226.373 97.31 226.113 97.05 225.933 96.81L228.303 94.59C228.623 94.99 229.073 95.34 229.653 95.64C230.233 95.92 230.903 96.06 231.663 96.06C233.203 96.06 233.973 95.53 233.973 94.47C233.973 94.07 233.803 93.73 233.463 93.45C233.123 93.17 232.533 93.03 231.693 93.03H229.773V90.42H231.273C231.913 90.42 232.413 90.33 232.773 90.15C233.133 89.95 233.313 89.65 233.313 89.25C233.313 88.91 233.133 88.65 232.773 88.47C232.413 88.27 231.943 88.17 231.363 88.17C230.823 88.17 230.293 88.29 229.773 88.53C229.273 88.75 228.843 89.03 228.483 89.37L226.473 87.27C226.693 87.01 226.963 86.75 227.283 86.49C227.623 86.23 228.013 86 228.453 85.8C228.893 85.58 229.393 85.4 229.953 85.26C230.513 85.12 231.123 85.05 231.783 85.05C232.563 85.05 233.273 85.14 233.913 85.32C234.553 85.5 235.103 85.75 235.563 86.07C236.023 86.37 236.373 86.75 236.613 87.21C236.873 87.65 237.003 88.14 237.003 88.68C237.003 89.32 236.833 89.88 236.493 90.36C236.153 90.84 235.683 91.22 235.083 91.5C235.983 91.78 236.653 92.2 237.093 92.76C237.553 93.32 237.783 93.99 237.783 94.77C237.783 95.39 237.643 95.97 237.363 96.51C237.083 97.05 236.683 97.52 236.163 97.92C235.643 98.32 235.003 98.64 234.243 98.88C233.503 99.1 232.663 99.21 231.723 99.21ZM240.29 85.29H247.7C249.12 85.29 250.19 85.6 250.91 86.22C251.63 86.82 251.99 87.61 251.99 88.59C251.99 89.33 251.81 89.94 251.45 90.42C251.09 90.9 250.62 91.24 250.04 91.44C251.02 91.58 251.82 91.92 252.44 92.46C253.06 93 253.37 93.81 253.37 94.89C253.37 96.21 252.88 97.23 251.9 97.95C250.94 98.65 249.53 99 247.67 99H240.29V85.29ZM244.01 92.82V96.27H246.86C247.8 96.27 248.47 96.13 248.87 95.85C249.27 95.55 249.47 95.11 249.47 94.53C249.47 93.93 249.26 93.5 248.84 93.24C248.42 92.96 247.79 92.82 246.95 92.82H244.01ZM244.01 88.02V90.66H246.59C247.87 90.66 248.51 90.21 248.51 89.31C248.51 88.45 247.86 88.02 246.56 88.02H244.01ZM255.718 99.3C255.498 99.3 255.298 99.29 255.118 99.27C254.958 99.25 254.818 99.23 254.698 99.21V95.64C254.898 95.68 255.058 95.7 255.178 95.7C255.518 95.7 255.808 95.58 256.048 95.34C256.288 95.08 256.478 94.67 256.618 94.11C256.778 93.53 256.888 92.78 256.948 91.86C257.028 90.94 257.068 89.82 257.068 88.5V85.29H267.478V99H263.788V88.56H260.488V90.18C260.488 91.9 260.378 93.34 260.158 94.5C259.958 95.66 259.648 96.6 259.228 97.32C258.828 98.02 258.328 98.53 257.728 98.85C257.148 99.15 256.478 99.3 255.718 99.3ZM277.681 99.21C276.581 99.21 275.571 99.04 274.651 98.7C273.751 98.36 272.971 97.89 272.311 97.29C271.651 96.67 271.141 95.94 270.781 95.1C270.421 94.24 270.241 93.29 270.241 92.25C270.241 91.15 270.431 90.16 270.811 89.28C271.191 88.38 271.711 87.62 272.371 87C273.031 86.38 273.801 85.9 274.681 85.56C275.561 85.22 276.501 85.05 277.501 85.05C278.581 85.05 279.541 85.24 280.381 85.62C281.241 85.98 281.961 86.49 282.541 87.15C283.121 87.79 283.561 88.55 283.861 89.43C284.181 90.29 284.341 91.22 284.341 92.22V93H273.841C274.021 94.06 274.471 94.87 275.191 95.43C275.931 95.99 276.861 96.27 277.981 96.27C278.781 96.27 279.521 96.13 280.201 95.85C280.901 95.55 281.481 95.14 281.941 94.62L284.011 96.51C283.311 97.39 282.411 98.06 281.311 98.52C280.211 98.98 279.001 99.21 277.681 99.21ZM277.351 88.05C276.471 88.05 275.731 88.29 275.131 88.77C274.551 89.23 274.151 89.89 273.931 90.75H280.771C280.651 89.99 280.291 89.35 279.691 88.83C279.091 88.31 278.311 88.05 277.351 88.05ZM287.077 85.29H290.797V90.33H292.237L295.537 85.29H299.407V85.8L295.327 91.53L300.427 98.49V99H296.287L292.147 93.15H290.797V99H287.077V85.29ZM307.217 99.21C306.397 99.21 305.597 99.04 304.817 98.7C304.057 98.36 303.377 97.88 302.777 97.26C302.197 96.64 301.727 95.9 301.367 95.04C301.007 94.16 300.827 93.19 300.827 92.13C300.827 91.07 300.997 90.11 301.337 89.25C301.697 88.37 302.167 87.62 302.747 87C303.347 86.38 304.027 85.9 304.787 85.56C305.567 85.22 306.377 85.05 307.217 85.05C308.237 85.05 309.137 85.25 309.917 85.65C310.717 86.05 311.347 86.54 311.807 87.12V85.29H315.317V99H311.807V97.14C311.307 97.76 310.657 98.26 309.857 98.64C309.057 99.02 308.177 99.21 307.217 99.21ZM308.207 96.03C309.227 96.03 310.037 95.68 310.637 94.98C311.257 94.26 311.577 93.33 311.597 92.19V91.95C311.597 90.89 311.287 90.02 310.667 89.34C310.047 88.66 309.227 88.32 308.207 88.32C307.747 88.32 307.307 88.4 306.887 88.56C306.467 88.72 306.097 88.96 305.777 89.28C305.457 89.6 305.207 90 305.027 90.48C304.847 90.96 304.757 91.51 304.757 92.13C304.757 93.33 305.077 94.28 305.717 94.98C306.377 95.68 307.207 96.03 308.207 96.03ZM322.014 88.56H317.604V85.29H330.114V88.56H325.704V99H322.014V88.56ZM338.502 99.21C337.402 99.21 336.392 99.04 335.472 98.7C334.572 98.36 333.792 97.89 333.132 97.29C332.472 96.67 331.962 95.94 331.602 95.1C331.242 94.24 331.062 93.29 331.062 92.25C331.062 91.15 331.252 90.16 331.632 89.28C332.012 88.38 332.532 87.62 333.192 87C333.852 86.38 334.622 85.9 335.502 85.56C336.382 85.22 337.322 85.05 338.322 85.05C339.402 85.05 340.362 85.24 341.202 85.62C342.062 85.98 342.782 86.49 343.362 87.15C343.942 87.79 344.382 88.55 344.682 89.43C345.002 90.29 345.162 91.22 345.162 92.22V93H334.662C334.842 94.06 335.292 94.87 336.012 95.43C336.752 95.99 337.682 96.27 338.802 96.27C339.602 96.27 340.342 96.13 341.022 95.85C341.722 95.55 342.302 95.14 342.762 94.62L344.832 96.51C344.132 97.39 343.232 98.06 342.132 98.52C341.032 98.98 339.822 99.21 338.502 99.21ZM338.172 88.05C337.292 88.05 336.552 88.29 335.952 88.77C335.372 89.23 334.972 89.89 334.752 90.75H341.592C341.472 89.99 341.112 89.35 340.512 88.83C339.912 88.31 339.132 88.05 338.172 88.05ZM347.3 99.3C347.08 99.3 346.88 99.29 346.7 99.27C346.54 99.25 346.4 99.23 346.28 99.21V95.64C346.48 95.68 346.64 95.7 346.76 95.7C347.1 95.7 347.39 95.58 347.63 95.34C347.87 95.08 348.06 94.67 348.2 94.11C348.36 93.53 348.47 92.78 348.53 91.86C348.61 90.94 348.65 89.82 348.65 88.5V85.29H359.06V99H355.37V88.56H352.07V90.18C352.07 91.9 351.96 93.34 351.74 94.5C351.54 95.66 351.23 96.6 350.81 97.32C350.41 98.02 349.91 98.53 349.31 98.85C348.73 99.15 348.06 99.3 347.3 99.3ZM362.633 85.29H366.353V89.25H368.783C370.723 89.25 372.193 89.65 373.193 90.45C374.213 91.25 374.723 92.46 374.723 94.08C374.723 95.7 374.193 96.93 373.133 97.77C372.093 98.59 370.543 99 368.483 99H362.633V85.29ZM368.123 96.09C369.023 96.09 369.713 95.96 370.193 95.7C370.673 95.42 370.913 94.88 370.913 94.08C370.913 93.34 370.693 92.83 370.253 92.55C369.813 92.27 369.143 92.13 368.243 92.13H366.353V96.09H368.123ZM386.526 93.6H380.826V99H377.106V85.29H380.826V90.33H386.526V85.29H390.246V99H386.526V93.6ZM400.376 99.21C399.296 99.21 398.296 99.04 397.376 98.7C396.476 98.36 395.696 97.88 395.036 97.26C394.396 96.62 393.886 95.87 393.506 95.01C393.146 94.15 392.966 93.19 392.966 92.13C392.966 91.07 393.146 90.11 393.506 89.25C393.886 88.37 394.406 87.62 395.066 87C395.726 86.38 396.506 85.9 397.406 85.56C398.326 85.22 399.316 85.05 400.376 85.05C401.456 85.05 402.446 85.22 403.346 85.56C404.266 85.9 405.056 86.39 405.716 87.03C406.376 87.65 406.886 88.4 407.246 89.28C407.606 90.14 407.786 91.09 407.786 92.13C407.786 93.21 407.596 94.19 407.216 95.07C406.836 95.93 406.316 96.67 405.656 97.29C404.996 97.89 404.216 98.36 403.316 98.7C402.416 99.04 401.436 99.21 400.376 99.21ZM400.376 96.06C401.476 96.06 402.336 95.69 402.956 94.95C403.576 94.21 403.886 93.27 403.886 92.13C403.886 90.99 403.586 90.06 402.986 89.34C402.386 88.6 401.516 88.23 400.376 88.23C399.256 88.23 398.386 88.6 397.766 89.34C397.146 90.08 396.836 91.01 396.836 92.13C396.836 92.67 396.916 93.18 397.076 93.66C397.236 94.14 397.466 94.56 397.766 94.92C398.066 95.28 398.436 95.56 398.876 95.76C399.316 95.96 399.816 96.06 400.376 96.06ZM411.679 85.29H414.859L418.489 93.24L421.909 85.29H425.179L427.459 99H423.979L422.659 90.99L419.119 99H417.529L413.959 91.14L412.669 99H409.369L411.679 85.29ZM443.878 85.29H456.778V99H453.088V88.56H447.598V99H443.878V85.29ZM459.893 99.3C459.673 99.3 459.473 99.29 459.293 99.27C459.133 99.25 458.993 99.23 458.873 99.21V95.64C459.073 95.68 459.233 95.7 459.353 95.7C459.693 95.7 459.983 95.58 460.223 95.34C460.463 95.08 460.653 94.67 460.793 94.11C460.953 93.53 461.063 92.78 461.123 91.86C461.203 90.94 461.243 89.82 461.243 88.5V85.29H471.653V99H467.963V88.56H464.663V90.18C464.663 91.9 464.553 93.34 464.333 94.5C464.133 95.66 463.823 96.6 463.403 97.32C463.003 98.02 462.503 98.53 461.903 98.85C461.323 99.15 460.653 99.3 459.893 99.3ZM480.806 99.21C479.986 99.21 479.186 99.04 478.406 98.7C477.646 98.36 476.966 97.88 476.366 97.26C475.786 96.64 475.316 95.9 474.956 95.04C474.596 94.16 474.416 93.19 474.416 92.13C474.416 91.07 474.586 90.11 474.926 89.25C475.286 88.37 475.756 87.62 476.336 87C476.936 86.38 477.616 85.9 478.376 85.56C479.156 85.22 479.966 85.05 480.806 85.05C481.826 85.05 482.726 85.25 483.506 85.65C484.306 86.05 484.936 86.54 485.396 87.12V85.29H488.906V99H485.396V97.14C484.896 97.76 484.246 98.26 483.446 98.64C482.646 99.02 481.766 99.21 480.806 99.21ZM481.796 96.03C482.816 96.03 483.626 95.68 484.226 94.98C484.846 94.26 485.166 93.33 485.186 92.19V91.95C485.186 90.89 484.876 90.02 484.256 89.34C483.636 88.66 482.816 88.32 481.796 88.32C481.336 88.32 480.896 88.4 480.476 88.56C480.056 88.72 479.686 88.96 479.366 89.28C479.046 89.6 478.796 90 478.616 90.48C478.436 90.96 478.346 91.51 478.346 92.13C478.346 93.33 478.666 94.28 479.306 94.98C479.966 95.68 480.796 96.03 481.796 96.03ZM501.872 93.6H496.172V99H492.452V85.29H496.172V90.33H501.872V85.29H505.592V99H501.872V93.6ZM515.752 99.21C514.652 99.21 513.642 99.04 512.722 98.7C511.822 98.36 511.042 97.89 510.382 97.29C509.722 96.67 509.212 95.94 508.852 95.1C508.492 94.24 508.312 93.29 508.312 92.25C508.312 91.15 508.502 90.16 508.882 89.28C509.262 88.38 509.782 87.62 510.442 87C511.102 86.38 511.872 85.9 512.752 85.56C513.632 85.22 514.572 85.05 515.572 85.05C516.652 85.05 517.612 85.24 518.452 85.62C519.312 85.98 520.032 86.49 520.612 87.15C521.192 87.79 521.632 88.55 521.932 89.43C522.252 90.29 522.412 91.22 522.412 92.22V93H511.912C512.092 94.06 512.542 94.87 513.262 95.43C514.002 95.99 514.932 96.27 516.052 96.27C516.852 96.27 517.592 96.13 518.272 95.85C518.972 95.55 519.552 95.14 520.012 94.62L522.082 96.51C521.382 97.39 520.482 98.06 519.382 98.52C518.282 98.98 517.072 99.21 515.752 99.21ZM515.422 88.05C514.542 88.05 513.802 88.29 513.202 88.77C512.622 89.23 512.222 89.89 512.002 90.75H518.842C518.722 89.99 518.362 89.35 517.762 88.83C517.162 88.31 516.382 88.05 515.422 88.05ZM526.602 99.3C525.902 99.3 525.362 99.1 524.982 98.7C524.622 98.28 524.442 97.78 524.442 97.2C524.442 96.58 524.622 96.06 524.982 95.64C525.342 95.22 525.882 95.01 526.602 95.01C527.322 95.01 527.872 95.22 528.252 95.64C528.632 96.06 528.822 96.58 528.822 97.2C528.822 97.78 528.622 98.28 528.222 98.7C527.842 99.1 527.302 99.3 526.602 99.3ZM550.119 99.24C549.879 99.24 549.649 99.23 549.429 99.21C549.229 99.19 549.019 99.16 548.799 99.12V95.52C548.959 95.54 549.109 95.56 549.249 95.58C549.389 95.6 549.539 95.61 549.699 95.61C550.279 95.61 550.779 95.47 551.199 95.19C551.619 94.89 551.989 94.35 552.309 93.57L544.569 78.6V78H548.709L554.229 88.98L558.789 78H562.509V78.6L555.369 95.31C555.029 96.11 554.649 96.77 554.229 97.29C553.829 97.79 553.399 98.19 552.939 98.49C552.479 98.77 552.009 98.96 551.529 99.06C551.049 99.18 550.579 99.24 550.119 99.24ZM580.1 105.75L582.41 99.15L576.8 85.98V85.29H580.52L584.15 94.26L587.33 85.29H590.69L590.66 85.98L583.46 106.2H580.1V105.75ZM600.517 94.02C600.117 94.2 599.647 94.35 599.107 94.47C598.587 94.57 597.997 94.62 597.337 94.62C596.497 94.62 595.737 94.52 595.057 94.32C594.397 94.12 593.827 93.8 593.347 93.36C592.867 92.92 592.497 92.35 592.237 91.65C591.997 90.95 591.877 90.1 591.877 89.1V85.29H595.597V88.95C595.597 89.73 595.777 90.33 596.137 90.75C596.497 91.15 597.217 91.35 598.297 91.35C599.117 91.35 599.857 91.25 600.517 91.05V85.29H604.237V99H600.517V94.02ZM607.598 85.29H611.318V93.18L617.678 85.29H620.588V99H616.868V90.66L610.148 99H607.598V85.29ZM627.272 88.56H622.862V85.29H635.372V88.56H630.962V99H627.272V88.56ZM643.759 99.21C642.659 99.21 641.649 99.04 640.729 98.7C639.829 98.36 639.049 97.89 638.389 97.29C637.729 96.67 637.219 95.94 636.859 95.1C636.499 94.24 636.319 93.29 636.319 92.25C636.319 91.15 636.509 90.16 636.889 89.28C637.269 88.38 637.789 87.62 638.449 87C639.109 86.38 639.879 85.9 640.759 85.56C641.639 85.22 642.579 85.05 643.579 85.05C644.659 85.05 645.619 85.24 646.459 85.62C647.319 85.98 648.039 86.49 648.619 87.15C649.199 87.79 649.639 88.55 649.939 89.43C650.259 90.29 650.419 91.22 650.419 92.22V93H639.919C640.099 94.06 640.549 94.87 641.269 95.43C642.009 95.99 642.939 96.27 644.059 96.27C644.859 96.27 645.599 96.13 646.279 95.85C646.979 95.55 647.559 95.14 648.019 94.62L650.089 96.51C649.389 97.39 648.489 98.06 647.389 98.52C646.289 98.98 645.079 99.21 643.759 99.21ZM643.429 88.05C642.549 88.05 641.809 88.29 641.209 88.77C640.629 89.23 640.229 89.89 640.009 90.75H646.849C646.729 89.99 646.369 89.35 645.769 88.83C645.169 88.31 644.389 88.05 643.429 88.05ZM652.558 99.3C652.338 99.3 652.138 99.29 651.958 99.27C651.798 99.25 651.658 99.23 651.538 99.21V95.64C651.738 95.68 651.898 95.7 652.018 95.7C652.358 95.7 652.648 95.58 652.888 95.34C653.128 95.08 653.318 94.67 653.458 94.11C653.618 93.53 653.728 92.78 653.788 91.86C653.868 90.94 653.908 89.82 653.908 88.5V85.29H664.318V99H660.628V88.56H657.328V90.18C657.328 91.9 657.218 93.34 656.998 94.5C656.798 95.66 656.488 96.6 656.068 97.32C655.668 98.02 655.168 98.53 654.568 98.85C653.988 99.15 653.318 99.3 652.558 99.3ZM667.051 98.49L669.961 94.14C668.361 93.38 667.561 92.03 667.561 90.09C667.561 88.51 668.071 87.32 669.091 86.52C670.131 85.7 671.741 85.29 673.921 85.29H679.861V99H676.141V94.8H673.801L671.101 99H667.051V98.49ZM676.141 92.16V88.17H674.161C673.201 88.17 672.491 88.31 672.031 88.59C671.571 88.85 671.341 89.36 671.341 90.12C671.341 90.88 671.541 91.41 671.941 91.71C672.361 92.01 673.071 92.16 674.071 92.16H676.141ZM703.851 99.21C702.771 99.21 701.771 99.04 700.851 98.7C699.951 98.36 699.171 97.88 698.511 97.26C697.871 96.62 697.361 95.87 696.981 95.01C696.621 94.15 696.441 93.19 696.441 92.13C696.441 91.07 696.621 90.11 696.981 89.25C697.361 88.37 697.881 87.62 698.541 87C699.201 86.38 699.981 85.9 700.881 85.56C701.801 85.22 702.791 85.05 703.851 85.05C704.931 85.05 705.921 85.22 706.821 85.56C707.741 85.9 708.531 86.39 709.191 87.03C709.851 87.65 710.361 88.4 710.721 89.28C711.081 90.14 711.261 91.09 711.261 92.13C711.261 93.21 711.071 94.19 710.691 95.07C710.311 95.93 709.791 96.67 709.131 97.29C708.471 97.89 707.691 98.36 706.791 98.7C705.891 99.04 704.911 99.21 703.851 99.21ZM703.851 96.06C704.951 96.06 705.811 95.69 706.431 94.95C707.051 94.21 707.361 93.27 707.361 92.13C707.361 90.99 707.061 90.06 706.461 89.34C705.861 88.6 704.991 88.23 703.851 88.23C702.731 88.23 701.861 88.6 701.241 89.34C700.621 90.08 700.311 91.01 700.311 92.13C700.311 92.67 700.391 93.18 700.551 93.66C700.711 94.14 700.941 94.56 701.241 94.92C701.541 95.28 701.911 95.56 702.351 95.76C702.791 95.96 703.291 96.06 703.851 96.06ZM723.37 93.6H717.67V99H713.95V85.29H717.67V90.33H723.37V85.29H727.09V99H723.37V93.6ZM744.482 106.2V85.29H747.992V87.12C748.452 86.54 749.072 86.05 749.852 85.65C750.652 85.25 751.562 85.05 752.582 85.05C753.422 85.05 754.222 85.22 754.982 85.56C755.762 85.9 756.442 86.38 757.022 87C757.622 87.62 758.092 88.37 758.432 89.25C758.792 90.11 758.972 91.07 758.972 92.13C758.972 93.19 758.792 94.16 758.432 95.04C758.072 95.9 757.592 96.64 756.992 97.26C756.412 97.88 755.732 98.36 754.952 98.7C754.192 99.04 753.402 99.21 752.582 99.21C751.682 99.21 750.852 99.05 750.092 98.73C749.332 98.39 748.702 97.94 748.202 97.38V106.2H744.482ZM751.592 88.32C750.572 88.32 749.762 88.65 749.162 89.31C748.562 89.95 748.242 90.78 748.202 91.8V92.19C748.222 93.33 748.532 94.26 749.132 94.98C749.752 95.68 750.572 96.03 751.592 96.03C752.592 96.03 753.412 95.68 754.052 94.98C754.712 94.28 755.042 93.33 755.042 92.13C755.042 91.51 754.942 90.96 754.742 90.48C754.562 90 754.312 89.6 753.992 89.28C753.692 88.96 753.332 88.72 752.912 88.56C752.492 88.4 752.052 88.32 751.592 88.32ZM767.289 99.21C766.469 99.21 765.669 99.04 764.889 98.7C764.129 98.36 763.449 97.88 762.849 97.26C762.269 96.64 761.799 95.9 761.439 95.04C761.079 94.16 760.899 93.19 760.899 92.13C760.899 91.07 761.069 90.11 761.409 89.25C761.769 88.37 762.239 87.62 762.819 87C763.419 86.38 764.099 85.9 764.859 85.56C765.639 85.22 766.449 85.05 767.289 85.05C768.309 85.05 769.209 85.25 769.989 85.65C770.789 86.05 771.419 86.54 771.879 87.12V85.29H775.389V99H771.879V97.14C771.379 97.76 770.729 98.26 769.929 98.64C769.129 99.02 768.249 99.21 767.289 99.21ZM768.279 96.03C769.299 96.03 770.109 95.68 770.709 94.98C771.329 94.26 771.649 93.33 771.669 92.19V91.95C771.669 90.89 771.359 90.02 770.739 89.34C770.119 88.66 769.299 88.32 768.279 88.32C767.819 88.32 767.379 88.4 766.959 88.56C766.539 88.72 766.169 88.96 765.849 89.28C765.529 89.6 765.279 90 765.099 90.48C764.919 90.96 764.829 91.51 764.829 92.13C764.829 93.33 765.149 94.28 765.789 94.98C766.449 95.68 767.279 96.03 768.279 96.03ZM785.775 99.27C783.115 99.27 781.175 98.44 779.955 96.78C778.735 95.12 778.125 92.63 778.125 89.31C778.125 87.39 778.325 85.75 778.725 84.39C779.125 83.01 779.695 81.89 780.435 81.03C781.195 80.15 782.105 79.51 783.165 79.11C784.245 78.69 785.445 78.48 786.765 78.48C787.525 78.48 788.105 78.41 788.505 78.27C788.905 78.11 789.205 77.81 789.405 77.37L792.345 78.24C792.185 78.82 791.985 79.32 791.745 79.74C791.525 80.14 791.215 80.48 790.815 80.76C790.415 81.04 789.905 81.26 789.285 81.42C788.665 81.56 787.875 81.66 786.915 81.72C785.995 81.78 785.195 81.9 784.515 82.08C783.855 82.26 783.295 82.58 782.835 83.04C782.395 83.48 782.045 84.1 781.785 84.9C781.545 85.7 781.385 86.74 781.305 88.02C781.885 86.94 782.625 86.19 783.525 85.77C784.445 85.33 785.445 85.11 786.525 85.11C787.525 85.11 788.425 85.27 789.225 85.59C790.045 85.91 790.735 86.37 791.295 86.97C791.855 87.57 792.285 88.29 792.585 89.13C792.885 89.95 793.035 90.87 793.035 91.89C793.035 93.01 792.855 94.03 792.495 94.95C792.135 95.85 791.635 96.62 790.995 97.26C790.355 97.9 789.585 98.4 788.685 98.76C787.805 99.1 786.835 99.27 785.775 99.27ZM785.685 96C786.705 96 787.525 95.66 788.145 94.98C788.785 94.28 789.105 93.32 789.105 92.1C789.105 90.9 788.805 89.96 788.205 89.28C787.625 88.58 786.795 88.23 785.715 88.23C784.655 88.23 783.815 88.57 783.195 89.25C782.575 89.93 782.265 90.88 782.265 92.1C782.265 93.3 782.575 94.25 783.195 94.95C783.815 95.65 784.645 96 785.685 96ZM802.352 99.21C801.272 99.21 800.272 99.04 799.352 98.7C798.452 98.36 797.672 97.88 797.012 97.26C796.372 96.62 795.862 95.87 795.482 95.01C795.122 94.15 794.942 93.19 794.942 92.13C794.942 91.07 795.122 90.11 795.482 89.25C795.862 88.37 796.382 87.62 797.042 87C797.702 86.38 798.482 85.9 799.382 85.56C800.302 85.22 801.292 85.05 802.352 85.05C803.432 85.05 804.422 85.22 805.322 85.56C806.242 85.9 807.032 86.39 807.692 87.03C808.352 87.65 808.862 88.4 809.222 89.28C809.582 90.14 809.762 91.09 809.762 92.13C809.762 93.21 809.572 94.19 809.192 95.07C808.812 95.93 808.292 96.67 807.632 97.29C806.972 97.89 806.192 98.36 805.292 98.7C804.392 99.04 803.412 99.21 802.352 99.21ZM802.352 96.06C803.452 96.06 804.312 95.69 804.932 94.95C805.552 94.21 805.862 93.27 805.862 92.13C805.862 90.99 805.562 90.06 804.962 89.34C804.362 88.6 803.492 88.23 802.352 88.23C801.232 88.23 800.362 88.6 799.742 89.34C799.122 90.08 798.812 91.01 798.812 92.13C798.812 92.67 798.892 93.18 799.052 93.66C799.212 94.14 799.442 94.56 799.742 94.92C800.042 95.28 800.412 95.56 800.852 95.76C801.292 95.96 801.792 96.06 802.352 96.06ZM815.162 88.56H810.752V85.29H823.262V88.56H818.852V99H815.162V88.56ZM827.843 105.75L830.153 99.15L824.543 85.98V85.29H828.263L831.893 94.26L835.073 85.29H838.433L838.403 85.98L831.203 106.2H827.843V105.75ZM863.682 93.6H857.982V99H854.262V85.29H857.982V90.33H863.682V85.29H867.402V99H863.682V93.6ZM877.562 99.21C876.462 99.21 875.452 99.04 874.532 98.7C873.632 98.36 872.852 97.89 872.192 97.29C871.532 96.67 871.022 95.94 870.662 95.1C870.302 94.24 870.122 93.29 870.122 92.25C870.122 91.15 870.312 90.16 870.692 89.28C871.072 88.38 871.592 87.62 872.252 87C872.912 86.38 873.682 85.9 874.562 85.56C875.442 85.22 876.382 85.05 877.382 85.05C878.462 85.05 879.422 85.24 880.262 85.62C881.122 85.98 881.842 86.49 882.422 87.15C883.002 87.79 883.442 88.55 883.742 89.43C884.062 90.29 884.222 91.22 884.222 92.22V93H873.722C873.902 94.06 874.352 94.87 875.072 95.43C875.812 95.99 876.742 96.27 877.862 96.27C878.662 96.27 879.402 96.13 880.082 95.85C880.782 95.55 881.362 95.14 881.822 94.62L883.892 96.51C883.192 97.39 882.292 98.06 881.192 98.52C880.092 98.98 878.882 99.21 877.562 99.21ZM877.232 88.05C876.352 88.05 875.612 88.29 875.012 88.77C874.432 89.23 874.032 89.89 873.812 90.75H880.652C880.532 89.99 880.172 89.35 879.572 88.83C878.972 88.31 878.192 88.05 877.232 88.05ZM907.419 99.21C906.339 99.21 905.339 99.04 904.419 98.7C903.519 98.36 902.739 97.88 902.079 97.26C901.439 96.62 900.929 95.87 900.549 95.01C900.189 94.15 900.009 93.19 900.009 92.13C900.009 91.07 900.189 90.11 900.549 89.25C900.929 88.37 901.449 87.62 902.109 87C902.769 86.38 903.549 85.9 904.449 85.56C905.369 85.22 906.359 85.05 907.419 85.05C908.499 85.05 909.489 85.22 910.39 85.56C911.31 85.9 912.1 86.39 912.76 87.03C913.419 87.65 913.929 88.4 914.289 89.28C914.65 90.14 914.83 91.09 914.83 92.13C914.83 93.21 914.64 94.19 914.26 95.07C913.88 95.93 913.36 96.67 912.699 97.29C912.04 97.89 911.259 98.36 910.359 98.7C909.459 99.04 908.479 99.21 907.419 99.21ZM907.419 96.06C908.52 96.06 909.38 95.69 909.999 94.95C910.62 94.21 910.93 93.27 910.93 92.13C910.93 90.99 910.63 90.06 910.03 89.34C909.43 88.6 908.56 88.23 907.419 88.23C906.299 88.23 905.429 88.6 904.809 89.34C904.189 90.08 903.879 91.01 903.879 92.13C903.879 92.67 903.959 93.18 904.119 93.66C904.279 94.14 904.509 94.56 904.809 94.92C905.109 95.28 905.48 95.56 905.92 95.76C906.36 95.96 906.859 96.06 907.419 96.06ZM920.229 88.56H915.819V85.29H928.329V88.56H923.919V99H920.229V88.56ZM940.034 93.6H934.334V99H930.614V85.29H934.334V90.33H940.034V85.29H943.754V99H940.034V93.6ZM947.284 85.29H951.004V93.18L957.364 85.29H960.274V99H956.554V90.66L949.834 99H947.284V85.29ZM965.158 85.29H968.338L971.968 93.24L975.388 85.29H978.658L980.938 99H977.458L976.138 90.99L972.598 99H971.008L967.438 91.14L966.148 99H962.848L965.158 85.29ZM989.92 99.21C988.82 99.21 987.81 99.04 986.89 98.7C985.99 98.36 985.21 97.89 984.55 97.29C983.89 96.67 983.38 95.94 983.02 95.1C982.66 94.24 982.48 93.29 982.48 92.25C982.48 91.15 982.67 90.16 983.05 89.28C983.43 88.38 983.95 87.62 984.61 87C985.27 86.38 986.04 85.9 986.92 85.56C987.8 85.22 988.74 85.05 989.74 85.05C990.82 85.05 991.78 85.24 992.62 85.62C993.48 85.98 994.2 86.49 994.78 87.15C995.36 87.79 995.8 88.55 996.1 89.43C996.42 90.29 996.58 91.22 996.58 92.22V93H986.08C986.26 94.06 986.71 94.87 987.43 95.43C988.17 95.99 989.1 96.27 990.22 96.27C991.02 96.27 991.76 96.13 992.44 95.85C993.14 95.55 993.72 95.14 994.18 94.62L996.25 96.51C995.55 97.39 994.65 98.06 993.55 98.52C992.45 98.98 991.24 99.21 989.92 99.21ZM989.59 88.05C988.71 88.05 987.97 88.29 987.37 88.77C986.79 89.23 986.39 89.89 986.17 90.75H993.01C992.89 89.99 992.53 89.35 991.93 88.83C991.33 88.31 990.55 88.05 989.59 88.05ZM1002.03 88.56H997.616V85.29H1010.13V88.56H1005.72V99H1002.03V88.56ZM1011.74 99.15C1011.14 99.05 1010.68 98.82 1010.36 98.46C1010.06 98.08 1009.91 97.63 1009.91 97.11C1009.91 96.45 1010.12 95.93 1010.54 95.55C1010.98 95.15 1011.5 94.95 1012.1 94.95C1012.74 94.95 1013.29 95.16 1013.75 95.58C1014.23 96 1014.47 96.6 1014.47 97.38C1014.47 97.9 1014.33 98.48 1014.05 99.12C1013.77 99.76 1013.34 100.59 1012.76 101.61L1011.56 103.8H1009.16L1011.74 99.15ZM1031.75 85.29H1044.65V99H1040.96V88.56H1035.47V99H1031.75V85.29ZM1054.82 99.21C1053.74 99.21 1052.74 99.04 1051.82 98.7C1050.92 98.36 1050.14 97.88 1049.48 97.26C1048.84 96.62 1048.33 95.87 1047.95 95.01C1047.59 94.15 1047.41 93.19 1047.41 92.13C1047.41 91.07 1047.59 90.11 1047.95 89.25C1048.33 88.37 1048.85 87.62 1049.51 87C1050.17 86.38 1050.95 85.9 1051.85 85.56C1052.77 85.22 1053.76 85.05 1054.82 85.05C1055.9 85.05 1056.89 85.22 1057.79 85.56C1058.71 85.9 1059.5 86.39 1060.16 87.03C1060.82 87.65 1061.33 88.4 1061.69 89.28C1062.05 90.14 1062.23 91.09 1062.23 92.13C1062.23 93.21 1062.04 94.19 1061.66 95.07C1061.28 95.93 1060.76 96.67 1060.1 97.29C1059.44 97.89 1058.66 98.36 1057.76 98.7C1056.86 99.04 1055.88 99.21 1054.82 99.21ZM1054.82 96.06C1055.92 96.06 1056.78 95.69 1057.4 94.95C1058.02 94.21 1058.33 93.27 1058.33 92.13C1058.33 90.99 1058.03 90.06 1057.43 89.34C1056.83 88.6 1055.96 88.23 1054.82 88.23C1053.7 88.23 1052.83 88.6 1052.21 89.34C1051.59 90.08 1051.28 91.01 1051.28 92.13C1051.28 92.67 1051.36 93.18 1051.52 93.66C1051.68 94.14 1051.91 94.56 1052.21 94.92C1052.51 95.28 1052.88 95.56 1053.32 95.76C1053.76 95.96 1054.26 96.06 1054.82 96.06ZM1067.63 88.56H1063.22V85.29H1075.73V88.56H1071.32V99H1067.63V88.56ZM1084.08 99.21C1083 99.21 1082 99.04 1081.08 98.7C1080.18 98.36 1079.4 97.88 1078.74 97.26C1078.1 96.62 1077.59 95.87 1077.21 95.01C1076.85 94.15 1076.67 93.19 1076.67 92.13C1076.67 91.07 1076.85 90.11 1077.21 89.25C1077.59 88.37 1078.11 87.62 1078.77 87C1079.43 86.38 1080.21 85.9 1081.11 85.56C1082.03 85.22 1083.02 85.05 1084.08 85.05C1085.16 85.05 1086.15 85.22 1087.05 85.56C1087.97 85.9 1088.76 86.39 1089.42 87.03C1090.08 87.65 1090.59 88.4 1090.95 89.28C1091.31 90.14 1091.49 91.09 1091.49 92.13C1091.49 93.21 1091.3 94.19 1090.92 95.07C1090.54 95.93 1090.02 96.67 1089.36 97.29C1088.7 97.89 1087.92 98.36 1087.02 98.7C1086.12 99.04 1085.14 99.21 1084.08 99.21ZM1084.08 96.06C1085.18 96.06 1086.04 95.69 1086.66 94.95C1087.28 94.21 1087.59 93.27 1087.59 92.13C1087.59 90.99 1087.29 90.06 1086.69 89.34C1086.09 88.6 1085.22 88.23 1084.08 88.23C1082.96 88.23 1082.09 88.6 1081.47 89.34C1080.85 90.08 1080.54 91.01 1080.54 92.13C1080.54 92.67 1080.62 93.18 1080.78 93.66C1080.94 94.14 1081.17 94.56 1081.47 94.92C1081.77 95.28 1082.14 95.56 1082.58 95.76C1083.02 95.96 1083.52 96.06 1084.08 96.06ZM1095.39 85.29H1098.57L1102.2 93.24L1105.62 85.29H1108.89L1111.17 99H1107.69L1106.37 90.99L1102.83 99H1101.24L1097.67 91.14L1096.38 99H1093.08L1095.39 85.29ZM1114.7 105.75L1117.01 99.15L1111.4 85.98V85.29H1115.12L1118.75 94.26L1121.93 85.29H1125.29L1125.26 85.98L1118.06 106.2H1114.7V105.75ZM1148.98 94.02C1148.58 94.2 1148.11 94.35 1147.57 94.47C1147.05 94.57 1146.46 94.62 1145.8 94.62C1144.96 94.62 1144.2 94.52 1143.52 94.32C1142.86 94.12 1142.29 93.8 1141.81 93.36C1141.33 92.92 1140.96 92.35 1140.7 91.65C1140.46 90.95 1140.34 90.1 1140.34 89.1V85.29H1144.06V88.95C1144.06 89.73 1144.24 90.33 1144.6 90.75C1144.96 91.15 1145.68 91.35 1146.76 91.35C1147.58 91.35 1148.32 91.25 1148.98 91.05V85.29H1152.7V99H1148.98V94.02ZM1159.21 88.56H1154.8V85.29H1167.31V88.56H1162.9V99H1159.21V88.56ZM1175.67 99.21C1174.59 99.21 1173.59 99.04 1172.67 98.7C1171.77 98.36 1170.99 97.88 1170.33 97.26C1169.69 96.62 1169.18 95.87 1168.8 95.01C1168.44 94.15 1168.26 93.19 1168.26 92.13C1168.26 91.07 1168.44 90.11 1168.8 89.25C1169.18 88.37 1169.7 87.62 1170.36 87C1171.02 86.38 1171.8 85.9 1172.7 85.56C1173.62 85.22 1174.61 85.05 1175.67 85.05C1176.75 85.05 1177.74 85.22 1178.64 85.56C1179.56 85.9 1180.35 86.39 1181.01 87.03C1181.67 87.65 1182.18 88.4 1182.54 89.28C1182.9 90.14 1183.08 91.09 1183.08 92.13C1183.08 93.21 1182.89 94.19 1182.51 95.07C1182.13 95.93 1181.61 96.67 1180.95 97.29C1180.29 97.89 1179.51 98.36 1178.61 98.7C1177.71 99.04 1176.73 99.21 1175.67 99.21ZM1175.67 96.06C1176.77 96.06 1177.63 95.69 1178.25 94.95C1178.87 94.21 1179.18 93.27 1179.18 92.13C1179.18 90.99 1178.88 90.06 1178.28 89.34C1177.68 88.6 1176.81 88.23 1175.67 88.23C1174.55 88.23 1173.68 88.6 1173.06 89.34C1172.44 90.08 1172.13 91.01 1172.13 92.13C1172.13 92.67 1172.21 93.18 1172.37 93.66C1172.53 94.14 1172.76 94.56 1173.06 94.92C1173.36 95.28 1173.73 95.56 1174.17 95.76C1174.61 95.96 1175.11 96.06 1175.67 96.06ZM191.18 131.73H192.83C193.35 130.65 193.74 129.45 194 128.13C194.26 126.79 194.39 125.21 194.39 123.39V121.29H205.07V131.73H207.17V138.06H204.14V135H194.24V138.06H191.18V131.73ZM197.72 124.65C197.72 127.43 197.31 129.79 196.49 131.73H201.35V124.56H197.72V124.65ZM215.63 135.21C214.53 135.21 213.52 135.04 212.6 134.7C211.7 134.36 210.92 133.89 210.26 133.29C209.6 132.67 209.09 131.94 208.73 131.1C208.37 130.24 208.19 129.29 208.19 128.25C208.19 127.15 208.38 126.16 208.76 125.28C209.14 124.38 209.66 123.62 210.32 123C210.98 122.38 211.75 121.9 212.63 121.56C213.51 121.22 214.45 121.05 215.45 121.05C216.53 121.05 217.49 121.24 218.33 121.62C219.19 121.98 219.91 122.49 220.49 123.15C221.07 123.79 221.51 124.55 221.81 125.43C222.13 126.29 222.29 127.22 222.29 128.22V129H211.79C211.97 130.06 212.42 130.87 213.14 131.43C213.88 131.99 214.81 132.27 215.93 132.27C216.73 132.27 217.47 132.13 218.15 131.85C218.85 131.55 219.43 131.14 219.89 130.62L221.96 132.51C221.26 133.39 220.36 134.06 219.26 134.52C218.16 134.98 216.95 135.21 215.63 135.21ZM215.3 124.05C214.42 124.05 213.68 124.29 213.08 124.77C212.5 125.23 212.1 125.89 211.88 126.75H218.72C218.6 125.99 218.24 125.35 217.64 124.83C217.04 124.31 216.26 124.05 215.3 124.05ZM227.736 124.56H223.326V121.29H235.836V124.56H231.426V135H227.736V124.56ZM244.224 135.21C243.124 135.21 242.114 135.04 241.194 134.7C240.294 134.36 239.514 133.89 238.854 133.29C238.194 132.67 237.684 131.94 237.324 131.1C236.964 130.24 236.784 129.29 236.784 128.25C236.784 127.15 236.974 126.16 237.354 125.28C237.734 124.38 238.254 123.62 238.914 123C239.574 122.38 240.344 121.9 241.224 121.56C242.104 121.22 243.044 121.05 244.044 121.05C245.124 121.05 246.084 121.24 246.924 121.62C247.784 121.98 248.504 122.49 249.084 123.15C249.664 123.79 250.104 124.55 250.404 125.43C250.724 126.29 250.884 127.22 250.884 128.22V129H240.384C240.564 130.06 241.014 130.87 241.734 131.43C242.474 131.99 243.404 132.27 244.524 132.27C245.324 132.27 246.064 132.13 246.744 131.85C247.444 131.55 248.024 131.14 248.484 130.62L250.554 132.51C249.854 133.39 248.954 134.06 247.854 134.52C246.754 134.98 245.544 135.21 244.224 135.21ZM243.894 124.05C243.014 124.05 242.274 124.29 241.674 124.77C241.094 125.23 240.694 125.89 240.474 126.75H247.314C247.194 125.99 246.834 125.35 246.234 124.83C245.634 124.31 244.854 124.05 243.894 124.05ZM253.62 121.29H257.34V129.18L263.7 121.29H266.61V135H262.89V126.66L256.17 135H253.62V121.29ZM260.1 119.52C259.48 119.52 258.89 119.44 258.33 119.28C257.79 119.1 257.31 118.84 256.89 118.5C256.49 118.16 256.17 117.73 255.93 117.21C255.69 116.67 255.56 116.05 255.54 115.35H258.21C258.25 115.89 258.42 116.33 258.72 116.67C259.02 117.01 259.5 117.18 260.16 117.18C260.8 117.18 261.27 117.02 261.57 116.7C261.89 116.36 262.07 115.91 262.11 115.35H264.75C264.73 116.05 264.59 116.67 264.33 117.21C264.07 117.73 263.73 118.16 263.31 118.5C262.89 118.84 262.4 119.1 261.84 119.28C261.28 119.44 260.7 119.52 260.1 119.52ZM276.346 131.73H277.996C278.516 130.65 278.906 129.45 279.166 128.13C279.426 126.79 279.556 125.21 279.556 123.39V121.29H290.236V131.73H292.336V138.06H289.306V135H279.406V138.06H276.346V131.73ZM282.886 124.65C282.886 127.43 282.476 129.79 281.656 131.73H286.516V124.56H282.886V124.65ZM300.766 135.21C299.686 135.21 298.686 135.04 297.766 134.7C296.866 134.36 296.086 133.88 295.426 133.26C294.786 132.62 294.276 131.87 293.896 131.01C293.536 130.15 293.356 129.19 293.356 128.13C293.356 127.07 293.536 126.11 293.896 125.25C294.276 124.37 294.796 123.62 295.456 123C296.116 122.38 296.896 121.9 297.796 121.56C298.716 121.22 299.706 121.05 300.766 121.05C301.846 121.05 302.836 121.22 303.736 121.56C304.656 121.9 305.446 122.39 306.106 123.03C306.766 123.65 307.276 124.4 307.636 125.28C307.996 126.14 308.176 127.09 308.176 128.13C308.176 129.21 307.986 130.19 307.606 131.07C307.226 131.93 306.706 132.67 306.046 133.29C305.386 133.89 304.606 134.36 303.706 134.7C302.806 135.04 301.826 135.21 300.766 135.21ZM300.766 132.06C301.866 132.06 302.726 131.69 303.346 130.95C303.966 130.21 304.276 129.27 304.276 128.13C304.276 126.99 303.976 126.06 303.376 125.34C302.776 124.6 301.906 124.23 300.766 124.23C299.646 124.23 298.776 124.6 298.156 125.34C297.536 126.08 297.226 127.01 297.226 128.13C297.226 128.67 297.306 129.18 297.466 129.66C297.626 130.14 297.856 130.56 298.156 130.92C298.456 131.28 298.826 131.56 299.266 131.76C299.706 131.96 300.206 132.06 300.766 132.06ZM310.269 135.3C310.049 135.3 309.849 135.29 309.669 135.27C309.509 135.25 309.369 135.23 309.249 135.21V131.64C309.449 131.68 309.609 131.7 309.729 131.7C310.069 131.7 310.359 131.58 310.599 131.34C310.839 131.08 311.029 130.67 311.169 130.11C311.329 129.53 311.439 128.78 311.499 127.86C311.579 126.94 311.619 125.82 311.619 124.5V121.29H322.029V135H318.339V124.56H315.039V126.18C315.039 127.9 314.929 129.34 314.709 130.5C314.509 131.66 314.199 132.6 313.779 133.32C313.379 134.02 312.879 134.53 312.279 134.85C311.699 135.15 311.029 135.3 310.269 135.3ZM323.802 134.49L327.762 127.68L324.582 121.8V121.29H328.302L330.912 126.39H332.412V121.29H336.102V126.39H337.572L340.212 121.29H343.812V121.8L340.692 127.62L344.742 134.49V135H340.782L337.512 129.21H336.102V135H332.412V129.21H330.972L327.732 135H323.802V134.49ZM355.911 129.6H350.211V135H346.491V121.29H350.211V126.33H355.911V121.29H359.631V135H355.911V129.6ZM368.951 125.25C370.891 125.25 372.361 125.65 373.361 126.45C374.381 127.25 374.891 128.46 374.891 130.08C374.891 131.7 374.361 132.93 373.301 133.77C372.261 134.59 370.711 135 368.651 135H363.161V121.29H366.881V125.25H368.951ZM376.211 121.29H379.931V135H376.211V121.29ZM368.261 132.09C369.161 132.09 369.851 131.96 370.331 131.7C370.831 131.42 371.081 130.88 371.081 130.08C371.081 129.34 370.851 128.83 370.391 128.55C369.951 128.27 369.281 128.13 368.381 128.13H366.881V132.09H368.261ZM392.996 141.75L395.306 135.15L389.696 121.98V121.29H393.416L397.046 130.26L400.226 121.29H403.586L403.556 121.98L396.356 142.2H392.996V141.75ZM413.413 130.02C413.013 130.2 412.543 130.35 412.003 130.47C411.483 130.57 410.893 130.62 410.233 130.62C409.393 130.62 408.633 130.52 407.953 130.32C407.293 130.12 406.723 129.8 406.243 129.36C405.763 128.92 405.393 128.35 405.133 127.65C404.893 126.95 404.773 126.1 404.773 125.1V121.29H408.493V124.95C408.493 125.73 408.673 126.33 409.033 126.75C409.393 127.15 410.113 127.35 411.193 127.35C412.013 127.35 412.753 127.25 413.413 127.05V121.29H417.133V135H413.413V130.02ZM420.495 121.29H424.215V129.18L430.575 121.29H433.485V135H429.765V126.66L423.045 135H420.495V121.29ZM440.168 124.56H435.758V121.29H448.268V124.56H443.858V135H440.168V124.56ZM450.553 121.29H454.273V125.25H456.703C458.643 125.25 460.113 125.65 461.113 126.45C462.133 127.25 462.643 128.46 462.643 130.08C462.643 131.7 462.113 132.93 461.053 133.77C460.013 134.59 458.463 135 456.403 135H450.553V121.29ZM456.043 132.09C456.943 132.09 457.633 131.96 458.113 131.7C458.593 131.42 458.833 130.88 458.833 130.08C458.833 129.34 458.613 128.83 458.173 128.55C457.733 128.27 457.063 128.13 456.163 128.13H454.273V132.09H456.043ZM472.819 121.29H485.719V135H482.029V124.56H476.539V135H472.819V121.29ZM489.284 142.2V121.29H492.794V123.12C493.254 122.54 493.874 122.05 494.654 121.65C495.454 121.25 496.364 121.05 497.384 121.05C498.224 121.05 499.024 121.22 499.784 121.56C500.564 121.9 501.244 122.38 501.824 123C502.424 123.62 502.894 124.37 503.234 125.25C503.594 126.11 503.774 127.07 503.774 128.13C503.774 129.19 503.594 130.16 503.234 131.04C502.874 131.9 502.394 132.64 501.794 133.26C501.214 133.88 500.534 134.36 499.754 134.7C498.994 135.04 498.204 135.21 497.384 135.21C496.484 135.21 495.654 135.05 494.894 134.73C494.134 134.39 493.504 133.94 493.004 133.38V142.2H489.284ZM496.394 124.32C495.374 124.32 494.564 124.65 493.964 125.31C493.364 125.95 493.044 126.78 493.004 127.8V128.19C493.024 129.33 493.334 130.26 493.934 130.98C494.554 131.68 495.374 132.03 496.394 132.03C497.394 132.03 498.214 131.68 498.854 130.98C499.514 130.28 499.844 129.33 499.844 128.13C499.844 127.51 499.744 126.96 499.544 126.48C499.364 126 499.114 125.6 498.794 125.28C498.494 124.96 498.134 124.72 497.714 124.56C497.294 124.4 496.854 124.32 496.394 124.32ZM513.14 135.21C512.04 135.21 511.03 135.04 510.11 134.7C509.21 134.36 508.43 133.89 507.77 133.29C507.11 132.67 506.6 131.94 506.24 131.1C505.88 130.24 505.7 129.29 505.7 128.25C505.7 127.15 505.89 126.16 506.27 125.28C506.65 124.38 507.17 123.62 507.83 123C508.49 122.38 509.26 121.9 510.14 121.56C511.02 121.22 511.96 121.05 512.96 121.05C514.04 121.05 515 121.24 515.84 121.62C516.7 121.98 517.42 122.49 518 123.15C518.58 123.79 519.02 124.55 519.32 125.43C519.64 126.29 519.8 127.22 519.8 128.22V129H509.3C509.48 130.06 509.93 130.87 510.65 131.43C511.39 131.99 512.32 132.27 513.44 132.27C514.24 132.27 514.98 132.13 515.66 131.85C516.36 131.55 516.94 131.14 517.4 130.62L519.47 132.51C518.77 133.39 517.87 134.06 516.77 134.52C515.67 134.98 514.46 135.21 513.14 135.21ZM512.81 124.05C511.93 124.05 511.19 124.29 510.59 124.77C510.01 125.23 509.61 125.89 509.39 126.75H516.23C516.11 125.99 515.75 125.35 515.15 124.83C514.55 124.31 513.77 124.05 512.81 124.05ZM522.536 121.29H535.436V135H531.746V124.56H526.256V135H522.536V121.29ZM545.6 135.21C544.52 135.21 543.52 135.04 542.6 134.7C541.7 134.36 540.92 133.88 540.26 133.26C539.62 132.62 539.11 131.87 538.73 131.01C538.37 130.15 538.19 129.19 538.19 128.13C538.19 127.07 538.37 126.11 538.73 125.25C539.11 124.37 539.63 123.62 540.29 123C540.95 122.38 541.73 121.9 542.63 121.56C543.55 121.22 544.54 121.05 545.6 121.05C546.68 121.05 547.67 121.22 548.57 121.56C549.49 121.9 550.28 122.39 550.94 123.03C551.6 123.65 552.11 124.4 552.47 125.28C552.83 126.14 553.01 127.09 553.01 128.13C553.01 129.21 552.82 130.19 552.44 131.07C552.06 131.93 551.54 132.67 550.88 133.29C550.22 133.89 549.44 134.36 548.54 134.7C547.64 135.04 546.66 135.21 545.6 135.21ZM545.6 132.06C546.7 132.06 547.56 131.69 548.18 130.95C548.8 130.21 549.11 129.27 549.11 128.13C549.11 126.99 548.81 126.06 548.21 125.34C547.61 124.6 546.74 124.23 545.6 124.23C544.48 124.23 543.61 124.6 542.99 125.34C542.37 126.08 542.06 127.01 542.06 128.13C542.06 128.67 542.14 129.18 542.3 129.66C542.46 130.14 542.69 130.56 542.99 130.92C543.29 131.28 543.66 131.56 544.1 131.76C544.54 131.96 545.04 132.06 545.6 132.06ZM553.817 131.73H555.467C555.987 130.65 556.377 129.45 556.637 128.13C556.897 126.79 557.027 125.21 557.027 123.39V121.29H567.707V131.73H569.807V138.06H566.777V135H556.877V138.06H553.817V131.73ZM560.357 124.65C560.357 127.43 559.947 129.79 559.127 131.73H563.987V124.56H560.357V124.65ZM577.217 135.21C576.397 135.21 575.597 135.04 574.817 134.7C574.057 134.36 573.377 133.88 572.777 133.26C572.197 132.64 571.727 131.9 571.367 131.04C571.007 130.16 570.827 129.19 570.827 128.13C570.827 127.07 570.997 126.11 571.337 125.25C571.697 124.37 572.167 123.62 572.747 123C573.347 122.38 574.027 121.9 574.787 121.56C575.567 121.22 576.377 121.05 577.217 121.05C578.237 121.05 579.137 121.25 579.917 121.65C580.717 122.05 581.347 122.54 581.807 123.12V121.29H585.317V135H581.807V133.14C581.307 133.76 580.657 134.26 579.857 134.64C579.057 135.02 578.177 135.21 577.217 135.21ZM578.207 132.03C579.227 132.03 580.037 131.68 580.637 130.98C581.257 130.26 581.577 129.33 581.597 128.19V127.95C581.597 126.89 581.287 126.02 580.667 125.34C580.047 124.66 579.227 124.32 578.207 124.32C577.747 124.32 577.307 124.4 576.887 124.56C576.467 124.72 576.097 124.96 575.777 125.28C575.457 125.6 575.207 126 575.027 126.48C574.847 126.96 574.757 127.51 574.757 128.13C574.757 129.33 575.077 130.28 575.717 130.98C576.377 131.68 577.207 132.03 578.207 132.03ZM588.864 121.29H596.274C597.694 121.29 598.764 121.6 599.484 122.22C600.204 122.82 600.564 123.61 600.564 124.59C600.564 125.33 600.384 125.94 600.024 126.42C599.664 126.9 599.194 127.24 598.614 127.44C599.594 127.58 600.394 127.92 601.014 128.46C601.634 129 601.944 129.81 601.944 130.89C601.944 132.21 601.454 133.23 600.474 133.95C599.514 134.65 598.104 135 596.244 135H588.864V121.29ZM592.584 128.82V132.27H595.434C596.374 132.27 597.044 132.13 597.444 131.85C597.844 131.55 598.044 131.11 598.044 130.53C598.044 129.93 597.834 129.5 597.414 129.24C596.994 128.96 596.364 128.82 595.524 128.82H592.584ZM592.584 124.02V126.66H595.164C596.444 126.66 597.084 126.21 597.084 125.31C597.084 124.45 596.434 124.02 595.134 124.02H592.584ZM609.854 135.21C609.034 135.21 608.234 135.04 607.454 134.7C606.694 134.36 606.014 133.88 605.414 133.26C604.834 132.64 604.364 131.9 604.004 131.04C603.644 130.16 603.464 129.19 603.464 128.13C603.464 127.07 603.634 126.11 603.974 125.25C604.334 124.37 604.804 123.62 605.384 123C605.984 122.38 606.664 121.9 607.424 121.56C608.204 121.22 609.014 121.05 609.854 121.05C610.874 121.05 611.774 121.25 612.554 121.65C613.354 122.05 613.984 122.54 614.444 123.12V121.29H617.954V135H614.444V133.14C613.944 133.76 613.294 134.26 612.494 134.64C611.694 135.02 610.814 135.21 609.854 135.21ZM610.844 132.03C611.864 132.03 612.674 131.68 613.274 130.98C613.894 130.26 614.214 129.33 614.234 128.19V127.95C614.234 126.89 613.924 126.02 613.304 125.34C612.684 124.66 611.864 124.32 610.844 124.32C610.384 124.32 609.944 124.4 609.524 124.56C609.104 124.72 608.734 124.96 608.414 125.28C608.094 125.6 607.844 126 607.664 126.48C607.484 126.96 607.394 127.51 607.394 128.13C607.394 129.33 607.714 130.28 608.354 130.98C609.014 131.68 609.844 132.03 610.844 132.03ZM624.65 124.56H620.24V121.29H632.75V124.56H628.34V135H624.65V124.56ZM641.138 135.21C640.038 135.21 639.028 135.04 638.108 134.7C637.208 134.36 636.428 133.89 635.768 133.29C635.108 132.67 634.598 131.94 634.238 131.1C633.878 130.24 633.698 129.29 633.698 128.25C633.698 127.15 633.888 126.16 634.268 125.28C634.648 124.38 635.168 123.62 635.828 123C636.488 122.38 637.258 121.9 638.138 121.56C639.018 121.22 639.958 121.05 640.958 121.05C642.038 121.05 642.998 121.24 643.838 121.62C644.698 121.98 645.418 122.49 645.998 123.15C646.578 123.79 647.018 124.55 647.318 125.43C647.638 126.29 647.798 127.22 647.798 128.22V129H637.298C637.478 130.06 637.928 130.87 638.648 131.43C639.388 131.99 640.318 132.27 641.438 132.27C642.238 132.27 642.978 132.13 643.658 131.85C644.358 131.55 644.938 131.14 645.398 130.62L647.468 132.51C646.768 133.39 645.868 134.06 644.768 134.52C643.668 134.98 642.458 135.21 641.138 135.21ZM640.808 124.05C639.928 124.05 639.188 124.29 638.588 124.77C638.008 125.23 637.608 125.89 637.388 126.75H644.228C644.108 125.99 643.748 125.35 643.148 124.83C642.548 124.31 641.768 124.05 640.808 124.05ZM649.937 135.3C649.717 135.3 649.517 135.29 649.337 135.27C649.177 135.25 649.037 135.23 648.917 135.21V131.64C649.117 131.68 649.277 131.7 649.397 131.7C649.737 131.7 650.027 131.58 650.267 131.34C650.507 131.08 650.697 130.67 650.837 130.11C650.997 129.53 651.107 128.78 651.167 127.86C651.247 126.94 651.287 125.82 651.287 124.5V121.29H661.697V135H658.007V124.56H654.707V126.18C654.707 127.9 654.597 129.34 654.377 130.5C654.177 131.66 653.867 132.6 653.447 133.32C653.047 134.02 652.547 134.53 651.947 134.85C651.367 135.15 650.697 135.3 649.937 135.3ZM665.27 121.29H668.99V129.18L675.35 121.29H678.26V135H674.54V126.66L667.82 135H665.27V121.29Z" fill="black"/>
<defs>
<linearGradient id="paint0_linear_91_6" x1="-7.57401" y1="95.6498" x2="1422.97" y2="95.6498" gradientUnits="userSpaceOnUse">
<stop stop-color="white" stop-opacity="0.64"/>
<stop offset="0.325" stop-color="#2736C1" stop-opacity="0.72"/>
<stop offset="1" stop-color="#091FEA"/>
</linearGradient>
</defs>
</svg>
