<svg width="365" height="160" viewBox="0 0 365 160" fill="none" xmlns="http://www.w3.org/2000/svg">
<path d="M44.5693 68.9426C46.6449 65.7157 47.7485 61.9599 47.7485 58.1232V20C47.7485 8.95429 56.7028 0 67.7485 0H345C356.046 0 365 8.9543 365 20V64V140C365 151.046 356.046 160 345 160L22.6443 160C6.8187 160 -2.73771 142.49 5.82346 129.18L44.5693 68.9426Z" fill="url(#paint0_linear_102_6)" fill-opacity="0.76"/>
<path d="M73.304 33.04H68.456V38H66.312V26.8H68.456V31.184H73.304V26.8H75.448V38H73.304V33.04ZM80.5919 38.112C80.1545 38.112 79.7279 38.0213 79.3119 37.84C78.9065 37.6587 78.5439 37.4027 78.2239 37.072C77.9145 36.7413 77.6639 36.3467 77.4719 35.888C77.2799 35.4187 77.1839 34.9013 77.1839 34.336C77.1839 33.7707 77.2745 33.2587 77.4559 32.8C77.6479 32.3307 77.8985 31.9307 78.2079 31.6C78.5279 31.2693 78.8905 31.0133 79.2959 30.832C79.7119 30.6507 80.1439 30.56 80.5919 30.56C81.1359 30.56 81.6159 30.6667 82.0319 30.88C82.4585 31.0933 82.7945 31.3547 83.0399 31.664V30.688H84.9119V38H83.0399V37.008C82.7732 37.3387 82.4265 37.6053 81.9999 37.808C81.5732 38.0107 81.1039 38.112 80.5919 38.112ZM81.1199 36.416C81.6639 36.416 82.0959 36.2293 82.4159 35.856C82.7465 35.472 82.9172 34.976 82.9279 34.368V34.24C82.9279 33.6747 82.7625 33.2107 82.4319 32.848C82.1012 32.4853 81.6639 32.304 81.1199 32.304C80.8745 32.304 80.6399 32.3467 80.4159 32.432C80.1919 32.5173 79.9945 32.6453 79.8239 32.816C79.6532 32.9867 79.5199 33.2 79.4239 33.456C79.3279 33.712 79.2799 34.0053 79.2799 34.336C79.2799 34.976 79.4505 35.4827 79.7919 35.856C80.1439 36.2293 80.5865 36.416 81.1199 36.416ZM97.2999 38.112C96.7132 38.112 96.1852 38.0213 95.7159 37.84C95.2466 37.6587 94.8412 37.408 94.4999 37.088C94.1692 36.7573 93.9132 36.3627 93.7319 35.904C93.5506 35.4453 93.4599 34.9333 93.4599 34.368C93.4599 33.7707 93.5559 33.2373 93.7479 32.768C93.9506 32.288 94.2226 31.888 94.5639 31.568C94.9052 31.2373 95.3106 30.9867 95.7799 30.816C96.2492 30.6453 96.7559 30.56 97.2999 30.56C97.9186 30.56 98.4786 30.6667 98.9799 30.88C99.4919 31.0933 99.8919 31.36 100.18 31.68L99.1559 33.024C98.9426 32.7893 98.6919 32.6027 98.4039 32.464C98.1266 32.3253 97.8119 32.256 97.4599 32.256C96.8626 32.256 96.3879 32.448 96.0359 32.832C95.6946 33.216 95.5239 33.7067 95.5239 34.304C95.5239 34.9227 95.6999 35.4347 96.0519 35.84C96.4146 36.2347 96.8999 36.432 97.5079 36.432C97.8599 36.432 98.1746 36.3627 98.4519 36.224C98.7292 36.0747 98.9746 35.8827 99.1879 35.648L100.356 36.8C100.036 37.216 99.6092 37.5413 99.0759 37.776C98.5532 38 97.9612 38.112 97.2999 38.112ZM104.446 38.112C104.009 38.112 103.582 38.0213 103.166 37.84C102.761 37.6587 102.398 37.4027 102.078 37.072C101.769 36.7413 101.518 36.3467 101.326 35.888C101.134 35.4187 101.038 34.9013 101.038 34.336C101.038 33.7707 101.129 33.2587 101.31 32.8C101.502 32.3307 101.753 31.9307 102.062 31.6C102.382 31.2693 102.745 31.0133 103.15 30.832C103.566 30.6507 103.998 30.56 104.446 30.56C104.99 30.56 105.47 30.6667 105.886 30.88C106.313 31.0933 106.649 31.3547 106.894 31.664V30.688H108.766V38H106.894V37.008C106.627 37.3387 106.281 37.6053 105.854 37.808C105.427 38.0107 104.958 38.112 104.446 38.112ZM104.974 36.416C105.518 36.416 105.95 36.2293 106.27 35.856C106.601 35.472 106.771 34.976 106.782 34.368V34.24C106.782 33.6747 106.617 33.2107 106.286 32.848C105.955 32.4853 105.518 32.304 104.974 32.304C104.729 32.304 104.494 32.3467 104.27 32.432C104.046 32.5173 103.849 32.6453 103.678 32.816C103.507 32.9867 103.374 33.2 103.278 33.456C103.182 33.712 103.134 34.0053 103.134 34.336C103.134 34.976 103.305 35.4827 103.646 35.856C103.998 36.2293 104.441 36.416 104.974 36.416ZM111.378 30.688H113.074L115.01 34.928L116.834 30.688H118.578L119.794 38H117.938L117.234 33.728L115.346 38H114.498L112.594 33.808L111.906 38H110.146L111.378 30.688ZM124.568 38.112C123.992 38.112 123.459 38.0213 122.968 37.84C122.488 37.6587 122.072 37.4027 121.72 37.072C121.379 36.7307 121.107 36.3307 120.904 35.872C120.712 35.4133 120.616 34.9013 120.616 34.336C120.616 33.7707 120.712 33.2587 120.904 32.8C121.107 32.3307 121.384 31.9307 121.736 31.6C122.088 31.2693 122.504 31.0133 122.984 30.832C123.475 30.6507 124.003 30.56 124.568 30.56C125.144 30.56 125.672 30.6507 126.152 30.832C126.643 31.0133 127.064 31.2747 127.416 31.616C127.768 31.9467 128.04 32.3467 128.232 32.816C128.424 33.2747 128.52 33.7813 128.52 34.336C128.52 34.912 128.419 35.4347 128.216 35.904C128.014 36.3627 127.736 36.7573 127.384 37.088C127.032 37.408 126.616 37.6587 126.136 37.84C125.656 38.0213 125.134 38.112 124.568 38.112ZM124.568 36.432C125.155 36.432 125.614 36.2347 125.944 35.84C126.275 35.4453 126.44 34.944 126.44 34.336C126.44 33.728 126.28 33.232 125.96 32.848C125.64 32.4533 125.176 32.256 124.568 32.256C123.971 32.256 123.507 32.4533 123.176 32.848C122.846 33.2427 122.68 33.7387 122.68 34.336C122.68 34.624 122.723 34.896 122.808 35.152C122.894 35.408 123.016 35.632 123.176 35.824C123.336 36.016 123.534 36.1653 123.768 36.272C124.003 36.3787 124.27 36.432 124.568 36.432ZM130.596 30.688H132.292L134.228 34.928L136.052 30.688H137.796L139.012 38H137.156L136.452 33.728L134.564 38H133.716L131.812 33.808L131.124 38H129.364L130.596 30.688ZM146.617 36.256H147.497C147.774 35.68 147.982 35.04 148.121 34.336C148.26 33.6213 148.329 32.7787 148.329 31.808V30.688H154.025V36.256H155.145V39.632H153.529V38H148.249V39.632H146.617V36.256ZM150.105 32.48C150.105 33.9627 149.886 35.2213 149.449 36.256H152.041V32.432H150.105V32.48ZM159.657 38.112C159.07 38.112 158.532 38.0213 158.041 37.84C157.561 37.6587 157.145 37.408 156.793 37.088C156.441 36.7573 156.169 36.368 155.977 35.92C155.785 35.4613 155.689 34.9547 155.689 34.4C155.689 33.8133 155.79 33.2853 155.993 32.816C156.196 32.336 156.473 31.9307 156.825 31.6C157.177 31.2693 157.588 31.0133 158.057 30.832C158.526 30.6507 159.028 30.56 159.561 30.56C160.137 30.56 160.649 30.6613 161.097 30.864C161.556 31.056 161.94 31.328 162.249 31.68C162.558 32.0213 162.793 32.4267 162.953 32.896C163.124 33.3547 163.209 33.8507 163.209 34.384V34.8H157.609C157.705 35.3653 157.945 35.7973 158.329 36.096C158.724 36.3947 159.22 36.544 159.817 36.544C160.244 36.544 160.638 36.4693 161.001 36.32C161.374 36.16 161.684 35.9413 161.929 35.664L163.033 36.672C162.66 37.1413 162.18 37.4987 161.593 37.744C161.006 37.9893 160.361 38.112 159.657 38.112ZM159.481 32.16C159.012 32.16 158.617 32.288 158.297 32.544C157.988 32.7893 157.774 33.1413 157.657 33.6H161.305C161.241 33.1947 161.049 32.8533 160.729 32.576C160.409 32.2987 159.993 32.16 159.481 32.16ZM164.35 38.16C164.233 38.16 164.126 38.1547 164.03 38.144C163.945 38.1333 163.87 38.1227 163.806 38.112V36.208C163.913 36.2293 163.998 36.24 164.062 36.24C164.243 36.24 164.398 36.176 164.526 36.048C164.654 35.9093 164.755 35.6907 164.83 35.392C164.915 35.0827 164.974 34.6827 165.006 34.192C165.049 33.7013 165.07 33.104 165.07 32.4V30.688H170.622V38H168.654V32.432H166.894V33.296C166.894 34.2133 166.835 34.9813 166.718 35.6C166.611 36.2187 166.446 36.72 166.222 37.104C166.009 37.4773 165.742 37.7493 165.422 37.92C165.113 38.08 164.755 38.16 164.35 38.16ZM176.063 38.112C175.477 38.112 174.938 38.0213 174.447 37.84C173.967 37.6587 173.551 37.408 173.199 37.088C172.847 36.7573 172.575 36.368 172.383 35.92C172.191 35.4613 172.095 34.9547 172.095 34.4C172.095 33.8133 172.197 33.2853 172.399 32.816C172.602 32.336 172.879 31.9307 173.231 31.6C173.583 31.2693 173.994 31.0133 174.463 30.832C174.933 30.6507 175.434 30.56 175.967 30.56C176.543 30.56 177.055 30.6613 177.503 30.864C177.962 31.056 178.346 31.328 178.655 31.68C178.965 32.0213 179.199 32.4267 179.359 32.896C179.53 33.3547 179.615 33.8507 179.615 34.384V34.8H174.015C174.111 35.3653 174.351 35.7973 174.735 36.096C175.13 36.3947 175.626 36.544 176.223 36.544C176.65 36.544 177.045 36.4693 177.407 36.32C177.781 36.16 178.09 35.9413 178.335 35.664L179.439 36.672C179.066 37.1413 178.586 37.4987 177.999 37.744C177.413 37.9893 176.767 38.112 176.063 38.112ZM175.887 32.16C175.418 32.16 175.023 32.288 174.703 32.544C174.394 32.7893 174.181 33.1413 174.063 33.6H177.711C177.647 33.1947 177.455 32.8533 177.135 32.576C176.815 32.2987 176.399 32.16 175.887 32.16ZM181.45 38.08C181.13 38.0267 180.884 37.904 180.714 37.712C180.554 37.5093 180.474 37.2693 180.474 36.992C180.474 36.64 180.586 36.3627 180.81 36.16C181.044 35.9467 181.322 35.84 181.642 35.84C181.983 35.84 182.276 35.952 182.522 36.176C182.778 36.4 182.906 36.72 182.906 37.136C182.906 37.4133 182.831 37.7227 182.682 38.064C182.532 38.4053 182.303 38.848 181.994 39.392L181.354 40.56H180.074L181.45 38.08ZM193.499 32.432H191.147V30.688H197.819V32.432H195.467V38H193.499V32.432ZM201.733 38.112C201.295 38.112 200.869 38.0213 200.453 37.84C200.047 37.6587 199.685 37.4027 199.365 37.072C199.055 36.7413 198.805 36.3467 198.613 35.888C198.421 35.4187 198.325 34.9013 198.325 34.336C198.325 33.7707 198.415 33.2587 198.597 32.8C198.789 32.3307 199.039 31.9307 199.349 31.6C199.669 31.2693 200.031 31.0133 200.437 30.832C200.853 30.6507 201.285 30.56 201.733 30.56C202.277 30.56 202.757 30.6667 203.173 30.88C203.599 31.0933 203.935 31.3547 204.181 31.664V30.688H206.053V38H204.181V37.008C203.914 37.3387 203.567 37.6053 203.141 37.808C202.714 38.0107 202.245 38.112 201.733 38.112ZM202.261 36.416C202.805 36.416 203.237 36.2293 203.557 35.856C203.887 35.472 204.058 34.976 204.069 34.368V34.24C204.069 33.6747 203.903 33.2107 203.573 32.848C203.242 32.4853 202.805 32.304 202.261 32.304C202.015 32.304 201.781 32.3467 201.557 32.432C201.333 32.5173 201.135 32.6453 200.965 32.816C200.794 32.9867 200.661 33.2 200.565 33.456C200.469 33.712 200.421 34.0053 200.421 34.336C200.421 34.976 200.591 35.4827 200.933 35.856C201.285 36.2293 201.727 36.416 202.261 36.416ZM207.944 30.688H209.928V33.376H210.696L212.456 30.688H214.52V30.96L212.344 34.016L215.064 37.728V38H212.856L210.648 34.88H209.928V38H207.944V30.688ZM224.007 41.6L225.239 38.08L222.247 31.056V30.688H224.231L226.167 35.472L227.863 30.688H229.655L229.639 31.056L225.799 41.84H224.007V41.6ZM229.744 37.728L231.856 34.096L230.16 30.96V30.688H232.144L233.536 33.408H234.336V30.688H236.304V33.408H237.088L238.496 30.688H240.416V30.96L238.752 34.064L240.912 37.728V38H238.8L237.056 34.912H236.304V38H234.336V34.912H233.568L231.84 38H229.744V37.728ZM245.1 38.112C244.513 38.112 243.974 38.0213 243.484 37.84C243.004 37.6587 242.588 37.408 242.236 37.088C241.884 36.7573 241.612 36.368 241.42 35.92C241.228 35.4613 241.132 34.9547 241.132 34.4C241.132 33.8133 241.233 33.2853 241.436 32.816C241.638 32.336 241.916 31.9307 242.268 31.6C242.62 31.2693 243.03 31.0133 243.5 30.832C243.969 30.6507 244.47 30.56 245.004 30.56C245.58 30.56 246.092 30.6613 246.54 30.864C246.998 31.056 247.382 31.328 247.692 31.68C248.001 32.0213 248.236 32.4267 248.396 32.896C248.566 33.3547 248.652 33.8507 248.652 34.384V34.8H243.052C243.148 35.3653 243.388 35.7973 243.772 36.096C244.166 36.3947 244.662 36.544 245.26 36.544C245.686 36.544 246.081 36.4693 246.444 36.32C246.817 36.16 247.126 35.9413 247.372 35.664L248.476 36.672C248.102 37.1413 247.622 37.4987 247.036 37.744C246.449 37.9893 245.804 38.112 245.1 38.112ZM244.924 32.16C244.454 32.16 244.06 32.288 243.74 32.544C243.43 32.7893 243.217 33.1413 243.1 33.6H246.748C246.684 33.1947 246.492 32.8533 246.172 32.576C245.852 32.2987 245.436 32.16 244.924 32.16ZM256.351 36.256H257.231C257.509 35.68 257.717 35.04 257.855 34.336C257.994 33.6213 258.063 32.7787 258.063 31.808V30.688H263.759V36.256H264.879V39.632H263.263V38H257.983V39.632H256.351V36.256ZM259.839 32.48C259.839 33.9627 259.621 35.2213 259.183 36.256H261.775V32.432H259.839V32.48ZM268.831 38.112C268.394 38.112 267.967 38.0213 267.551 37.84C267.146 37.6587 266.783 37.4027 266.463 37.072C266.154 36.7413 265.903 36.3467 265.711 35.888C265.519 35.4187 265.423 34.9013 265.423 34.336C265.423 33.7707 265.514 33.2587 265.695 32.8C265.887 32.3307 266.138 31.9307 266.447 31.6C266.767 31.2693 267.13 31.0133 267.535 30.832C267.951 30.6507 268.383 30.56 268.831 30.56C269.375 30.56 269.855 30.6667 270.271 30.88C270.698 31.0933 271.034 31.3547 271.279 31.664V30.688H273.151V38H271.279V37.008C271.013 37.3387 270.666 37.6053 270.239 37.808C269.813 38.0107 269.343 38.112 268.831 38.112ZM269.359 36.416C269.903 36.416 270.335 36.2293 270.655 35.856C270.986 35.472 271.157 34.976 271.167 34.368V34.24C271.167 33.6747 271.002 33.2107 270.671 32.848C270.341 32.4853 269.903 32.304 269.359 32.304C269.114 32.304 268.879 32.3467 268.655 32.432C268.431 32.5173 268.234 32.6453 268.063 32.816C267.893 32.9867 267.759 33.2 267.663 33.456C267.567 33.712 267.519 34.0053 267.519 34.336C267.519 34.976 267.69 35.4827 268.031 35.856C268.383 36.2293 268.826 36.416 269.359 36.416ZM275.043 30.688H278.995C279.752 30.688 280.323 30.8533 280.707 31.184C281.091 31.504 281.283 31.9253 281.283 32.448C281.283 32.8427 281.187 33.168 280.995 33.424C280.803 33.68 280.552 33.8613 280.243 33.968C280.766 34.0427 281.192 34.224 281.523 34.512C281.854 34.8 282.019 35.232 282.019 35.808C282.019 36.512 281.758 37.056 281.235 37.44C280.723 37.8133 279.971 38 278.979 38H275.043V30.688ZM277.027 34.704V36.544H278.547C279.048 36.544 279.406 36.4693 279.619 36.32C279.832 36.16 279.939 35.9253 279.939 35.616C279.939 35.296 279.827 35.0667 279.603 34.928C279.379 34.7787 279.043 34.704 278.595 34.704H277.027ZM277.027 32.144V33.552H278.403C279.086 33.552 279.427 33.312 279.427 32.832C279.427 32.3733 279.08 32.144 278.387 32.144H277.027ZM288.286 35.12H285.246V38H283.262V30.688H285.246V33.376H288.286V30.688H290.27V38H288.286V35.12ZM295.672 38.112C295.096 38.112 294.563 38.0213 294.072 37.84C293.592 37.6587 293.176 37.4027 292.824 37.072C292.483 36.7307 292.211 36.3307 292.008 35.872C291.816 35.4133 291.72 34.9013 291.72 34.336C291.72 33.7707 291.816 33.2587 292.008 32.8C292.211 32.3307 292.488 31.9307 292.84 31.6C293.192 31.2693 293.608 31.0133 294.088 30.832C294.579 30.6507 295.107 30.56 295.672 30.56C296.248 30.56 296.776 30.6507 297.256 30.832C297.747 31.0133 298.168 31.2747 298.52 31.616C298.872 31.9467 299.144 32.3467 299.336 32.816C299.528 33.2747 299.624 33.7813 299.624 34.336C299.624 34.912 299.523 35.4347 299.32 35.904C299.118 36.3627 298.84 36.7573 298.488 37.088C298.136 37.408 297.72 37.6587 297.24 37.84C296.76 38.0213 296.238 38.112 295.672 38.112ZM295.672 36.432C296.259 36.432 296.718 36.2347 297.048 35.84C297.379 35.4453 297.544 34.944 297.544 34.336C297.544 33.728 297.384 33.232 297.064 32.848C296.744 32.4533 296.28 32.256 295.672 32.256C295.075 32.256 294.611 32.4533 294.28 32.848C293.95 33.2427 293.784 33.7387 293.784 34.336C293.784 34.624 293.827 34.896 293.912 35.152C293.998 35.408 294.12 35.632 294.28 35.824C294.44 36.016 294.638 36.1653 294.872 36.272C295.107 36.3787 295.374 36.432 295.672 36.432ZM301.434 38.08C301.114 38.0267 300.869 37.904 300.698 37.712C300.538 37.5093 300.458 37.2693 300.458 36.992C300.458 36.64 300.57 36.3627 300.794 36.16C301.029 35.9467 301.306 35.84 301.626 35.84C301.967 35.84 302.261 35.952 302.506 36.176C302.762 36.4 302.89 36.72 302.89 37.136C302.89 37.4133 302.815 37.7227 302.666 38.064C302.517 38.4053 302.287 38.848 301.978 39.392L301.338 40.56H300.058L301.434 38.08ZM311.803 30.688H315.755C316.513 30.688 317.083 30.8533 317.467 31.184C317.851 31.504 318.043 31.9253 318.043 32.448C318.043 32.8427 317.947 33.168 317.755 33.424C317.563 33.68 317.313 33.8613 317.003 33.968C317.526 34.0427 317.953 34.224 318.283 34.512C318.614 34.8 318.779 35.232 318.779 35.808C318.779 36.512 318.518 37.056 317.995 37.44C317.483 37.8133 316.731 38 315.739 38H311.803V30.688ZM313.787 34.704V36.544H315.307C315.809 36.544 316.166 36.4693 316.379 36.32C316.593 36.16 316.699 35.9253 316.699 35.616C316.699 35.296 316.587 35.0667 316.363 34.928C316.139 34.7787 315.803 34.704 315.355 34.704H313.787ZM313.787 32.144V33.552H315.163C315.846 33.552 316.187 33.312 316.187 32.832C316.187 32.3733 315.841 32.144 315.147 32.144H313.787ZM323.558 38.112C322.971 38.112 322.433 38.0213 321.942 37.84C321.462 37.6587 321.046 37.408 320.694 37.088C320.342 36.7573 320.07 36.368 319.878 35.92C319.686 35.4613 319.59 34.9547 319.59 34.4C319.59 33.8133 319.691 33.2853 319.894 32.816C320.097 32.336 320.374 31.9307 320.726 31.6C321.078 31.2693 321.489 31.0133 321.958 30.832C322.427 30.6507 322.929 30.56 323.462 30.56C324.038 30.56 324.55 30.6613 324.998 30.864C325.457 31.056 325.841 31.328 326.15 31.68C326.459 32.0213 326.694 32.4267 326.854 32.896C327.025 33.3547 327.11 33.8507 327.11 34.384V34.8H321.51C321.606 35.3653 321.846 35.7973 322.23 36.096C322.625 36.3947 323.121 36.544 323.718 36.544C324.145 36.544 324.539 36.4693 324.902 36.32C325.275 36.16 325.585 35.9413 325.83 35.664L326.934 36.672C326.561 37.1413 326.081 37.4987 325.494 37.744C324.907 37.9893 324.262 38.112 323.558 38.112ZM323.382 32.16C322.913 32.16 322.518 32.288 322.198 32.544C321.889 32.7893 321.675 33.1413 321.558 33.6H325.206C325.142 33.1947 324.95 32.8533 324.63 32.576C324.31 32.2987 323.894 32.16 323.382 32.16ZM327.565 36.256H328.445C328.722 35.68 328.93 35.04 329.069 34.336C329.207 33.6213 329.277 32.7787 329.277 31.808V30.688H334.973V36.256H336.093V39.632H334.477V38H329.197V39.632H327.565V36.256ZM331.053 32.48C331.053 33.9627 330.834 35.2213 330.397 36.256H332.989V32.432H331.053V32.48ZM337.225 30.688H339.209V32.8H340.505C341.54 32.8 342.324 33.0133 342.857 33.44C343.401 33.8667 343.673 34.512 343.673 35.376C343.673 36.24 343.391 36.896 342.825 37.344C342.271 37.7813 341.444 38 340.345 38H337.225V30.688ZM340.153 36.448C340.633 36.448 341.001 36.3787 341.257 36.24C341.513 36.0907 341.641 35.8027 341.641 35.376C341.641 34.9813 341.524 34.7093 341.289 34.56C341.055 34.4107 340.697 34.336 340.217 34.336H339.209V36.448H340.153ZM68.92 57.112C68.4827 57.112 68.056 57.0213 67.64 56.84C67.2347 56.6587 66.872 56.4027 66.552 56.072C66.2427 55.7413 65.992 55.3467 65.8 54.888C65.608 54.4187 65.512 53.9013 65.512 53.336C65.512 52.7707 65.6027 52.2587 65.784 51.8C65.976 51.3307 66.2267 50.9307 66.536 50.6C66.856 50.2693 67.2187 50.0133 67.624 49.832C68.04 49.6507 68.472 49.56 68.92 49.56C69.464 49.56 69.944 49.6667 70.36 49.88C70.7867 50.0933 71.1227 50.3547 71.368 50.664V49.688H73.24V57H71.368V56.008C71.1013 56.3387 70.7547 56.6053 70.328 56.808C69.9013 57.0107 69.432 57.112 68.92 57.112ZM69.448 55.416C69.992 55.416 70.424 55.2293 70.744 54.856C71.0747 54.472 71.2453 53.976 71.256 53.368V53.24C71.256 52.6747 71.0907 52.2107 70.76 51.848C70.4293 51.4853 69.992 51.304 69.448 51.304C69.2027 51.304 68.968 51.3467 68.744 51.432C68.52 51.5173 68.3227 51.6453 68.152 51.816C67.9813 51.9867 67.848 52.2 67.752 52.456C67.656 52.712 67.608 53.0053 67.608 53.336C67.608 53.976 67.7787 54.4827 68.12 54.856C68.472 55.2293 68.9147 55.416 69.448 55.416ZM75.1315 49.688H79.0835C79.8408 49.688 80.4115 49.8533 80.7955 50.184C81.1795 50.504 81.3715 50.9253 81.3715 51.448C81.3715 51.8427 81.2755 52.168 81.0835 52.424C80.8915 52.68 80.6408 52.8613 80.3315 52.968C80.8542 53.0427 81.2808 53.224 81.6115 53.512C81.9422 53.8 82.1075 54.232 82.1075 54.808C82.1075 55.512 81.8462 56.056 81.3235 56.44C80.8115 56.8133 80.0595 57 79.0675 57H75.1315V49.688ZM77.1155 53.704V55.544H78.6355C79.1368 55.544 79.4942 55.4693 79.7075 55.32C79.9208 55.16 80.0275 54.9253 80.0275 54.616C80.0275 54.296 79.9155 54.0667 79.6915 53.928C79.4675 53.7787 79.1315 53.704 78.6835 53.704H77.1155ZM77.1155 51.144V52.552H78.4915C79.1742 52.552 79.5155 52.312 79.5155 51.832C79.5155 51.3733 79.1688 51.144 78.4755 51.144H77.1155ZM84.9209 51.432H82.5689V49.688H89.2409V51.432H86.8889V57H84.9209V51.432ZM93.6984 57.112C93.1224 57.112 92.589 57.0213 92.0984 56.84C91.6184 56.6587 91.2024 56.4027 90.8504 56.072C90.509 55.7307 90.237 55.3307 90.0344 54.872C89.8424 54.4133 89.7464 53.9013 89.7464 53.336C89.7464 52.7707 89.8424 52.2587 90.0344 51.8C90.237 51.3307 90.5144 50.9307 90.8664 50.6C91.2184 50.2693 91.6344 50.0133 92.1144 49.832C92.605 49.6507 93.133 49.56 93.6984 49.56C94.2744 49.56 94.8024 49.6507 95.2824 49.832C95.773 50.0133 96.1944 50.2747 96.5464 50.616C96.8984 50.9467 97.1704 51.3467 97.3624 51.816C97.5544 52.2747 97.6504 52.7813 97.6504 53.336C97.6504 53.912 97.549 54.4347 97.3464 54.904C97.1437 55.3627 96.8664 55.7573 96.5144 56.088C96.1624 56.408 95.7464 56.6587 95.2664 56.84C94.7864 57.0213 94.2637 57.112 93.6984 57.112ZM93.6984 55.432C94.285 55.432 94.7437 55.2347 95.0744 54.84C95.405 54.4453 95.5704 53.944 95.5704 53.336C95.5704 52.728 95.4104 52.232 95.0904 51.848C94.7704 51.4533 94.3064 51.256 93.6984 51.256C93.101 51.256 92.637 51.4533 92.3064 51.848C91.9757 52.2427 91.8104 52.7387 91.8104 53.336C91.8104 53.624 91.853 53.896 91.9384 54.152C92.0237 54.408 92.1464 54.632 92.3064 54.824C92.4664 55.016 92.6637 55.1653 92.8984 55.272C93.133 55.3787 93.3997 55.432 93.6984 55.432ZM99.0846 60.84V49.688H100.957V50.664C101.202 50.3547 101.533 50.0933 101.949 49.88C102.375 49.6667 102.861 49.56 103.405 49.56C103.853 49.56 104.279 49.6507 104.685 49.832C105.101 50.0133 105.463 50.2693 105.773 50.6C106.093 50.9307 106.343 51.3307 106.525 51.8C106.717 52.2587 106.813 52.7707 106.813 53.336C106.813 53.9013 106.717 54.4187 106.525 54.888C106.333 55.3467 106.077 55.7413 105.757 56.072C105.447 56.4027 105.085 56.6587 104.669 56.84C104.263 57.0213 103.842 57.112 103.405 57.112C102.925 57.112 102.482 57.0267 102.077 56.856C101.671 56.6747 101.335 56.4347 101.069 56.136V60.84H99.0846ZM102.877 51.304C102.333 51.304 101.901 51.48 101.581 51.832C101.261 52.1733 101.09 52.616 101.069 53.16V53.368C101.079 53.976 101.245 54.472 101.565 54.856C101.895 55.2293 102.333 55.416 102.877 55.416C103.41 55.416 103.847 55.2293 104.189 54.856C104.541 54.4827 104.717 53.976 104.717 53.336C104.717 53.0053 104.663 52.712 104.557 52.456C104.461 52.2 104.327 51.9867 104.157 51.816C103.997 51.6453 103.805 51.5173 103.581 51.432C103.357 51.3467 103.122 51.304 102.877 51.304ZM118.878 49.688H122.83C123.587 49.688 124.158 49.8533 124.542 50.184C124.926 50.504 125.118 50.9253 125.118 51.448C125.118 51.8427 125.022 52.168 124.83 52.424C124.638 52.68 124.387 52.8613 124.078 52.968C124.6 53.0427 125.027 53.224 125.358 53.512C125.688 53.8 125.854 54.232 125.854 54.808C125.854 55.512 125.592 56.056 125.07 56.44C124.558 56.8133 123.806 57 122.814 57H118.878V49.688ZM120.862 53.704V55.544H122.382C122.883 55.544 123.24 55.4693 123.454 55.32C123.667 55.16 123.774 54.9253 123.774 54.616C123.774 54.296 123.662 54.0667 123.438 53.928C123.214 53.7787 122.878 53.704 122.43 53.704H120.862ZM120.862 51.144V52.552H122.238C122.92 52.552 123.262 52.312 123.262 51.832C123.262 51.3733 122.915 51.144 122.222 51.144H120.862ZM141.11 57.112C140.523 57.112 139.995 57.0213 139.526 56.84C139.056 56.6587 138.651 56.408 138.31 56.088C137.979 55.7573 137.723 55.3627 137.542 54.904C137.36 54.4453 137.27 53.9333 137.27 53.368C137.27 52.7707 137.366 52.2373 137.558 51.768C137.76 51.288 138.032 50.888 138.374 50.568C138.715 50.2373 139.12 49.9867 139.59 49.816C140.059 49.6453 140.566 49.56 141.11 49.56C141.728 49.56 142.288 49.6667 142.79 49.88C143.302 50.0933 143.702 50.36 143.99 50.68L142.966 52.024C142.752 51.7893 142.502 51.6027 142.214 51.464C141.936 51.3253 141.622 51.256 141.27 51.256C140.672 51.256 140.198 51.448 139.846 51.832C139.504 52.216 139.334 52.7067 139.334 53.304C139.334 53.9227 139.51 54.4347 139.862 54.84C140.224 55.2347 140.71 55.432 141.318 55.432C141.67 55.432 141.984 55.3627 142.262 55.224C142.539 55.0747 142.784 54.8827 142.998 54.648L144.166 55.8C143.846 56.216 143.419 56.5413 142.886 56.776C142.363 57 141.771 57.112 141.11 57.112ZM148.8 57.112C148.224 57.112 147.691 57.0213 147.2 56.84C146.72 56.6587 146.304 56.4027 145.952 56.072C145.611 55.7307 145.339 55.3307 145.136 54.872C144.944 54.4133 144.848 53.9013 144.848 53.336C144.848 52.7707 144.944 52.2587 145.136 51.8C145.339 51.3307 145.616 50.9307 145.968 50.6C146.32 50.2693 146.736 50.0133 147.216 49.832C147.707 49.6507 148.235 49.56 148.8 49.56C149.376 49.56 149.904 49.6507 150.384 49.832C150.875 50.0133 151.296 50.2747 151.648 50.616C152 50.9467 152.272 51.3467 152.464 51.816C152.656 52.2747 152.752 52.7813 152.752 53.336C152.752 53.912 152.651 54.4347 152.448 54.904C152.245 55.3627 151.968 55.7573 151.616 56.088C151.264 56.408 150.848 56.6587 150.368 56.84C149.888 57.0213 149.365 57.112 148.8 57.112ZM148.8 55.432C149.387 55.432 149.845 55.2347 150.176 54.84C150.507 54.4453 150.672 53.944 150.672 53.336C150.672 52.728 150.512 52.232 150.192 51.848C149.872 51.4533 149.408 51.256 148.8 51.256C148.203 51.256 147.739 51.4533 147.408 51.848C147.077 52.2427 146.912 52.7387 146.912 53.336C146.912 53.624 146.955 53.896 147.04 54.152C147.125 54.408 147.248 54.632 147.408 54.824C147.568 55.016 147.765 55.1653 148 55.272C148.235 55.3787 148.501 55.432 148.8 55.432ZM154.186 49.688H158.138C158.896 49.688 159.466 49.8533 159.85 50.184C160.234 50.504 160.426 50.9253 160.426 51.448C160.426 51.8427 160.33 52.168 160.138 52.424C159.946 52.68 159.696 52.8613 159.386 52.968C159.909 53.0427 160.336 53.224 160.666 53.512C160.997 53.8 161.162 54.232 161.162 54.808C161.162 55.512 160.901 56.056 160.378 56.44C159.866 56.8133 159.114 57 158.122 57H154.186V49.688ZM156.17 53.704V55.544H157.69C158.192 55.544 158.549 55.4693 158.762 55.32C158.976 55.16 159.082 54.9253 159.082 54.616C159.082 54.296 158.97 54.0667 158.746 53.928C158.522 53.7787 158.186 53.704 157.738 53.704H156.17ZM156.17 51.144V52.552H157.546C158.229 52.552 158.57 52.312 158.57 51.832C158.57 51.3733 158.224 51.144 157.53 51.144H156.17ZM162.405 60.84V49.688H164.277V50.664C164.522 50.3547 164.853 50.0933 165.269 49.88C165.696 49.6667 166.181 49.56 166.725 49.56C167.173 49.56 167.6 49.6507 168.005 49.832C168.421 50.0133 168.784 50.2693 169.093 50.6C169.413 50.9307 169.664 51.3307 169.845 51.8C170.037 52.2587 170.133 52.7707 170.133 53.336C170.133 53.9013 170.037 54.4187 169.845 54.888C169.653 55.3467 169.397 55.7413 169.077 56.072C168.768 56.4027 168.405 56.6587 167.989 56.84C167.584 57.0213 167.162 57.112 166.725 57.112C166.245 57.112 165.802 57.0267 165.397 56.856C164.992 56.6747 164.656 56.4347 164.389 56.136V60.84H162.405ZM166.197 51.304C165.653 51.304 165.221 51.48 164.901 51.832C164.581 52.1733 164.41 52.616 164.389 53.16V53.368C164.4 53.976 164.565 54.472 164.885 54.856C165.216 55.2293 165.653 55.416 166.197 55.416C166.73 55.416 167.168 55.2293 167.509 54.856C167.861 54.4827 168.037 53.976 168.037 53.336C168.037 53.0053 167.984 52.712 167.877 52.456C167.781 52.2 167.648 51.9867 167.477 51.816C167.317 51.6453 167.125 51.5173 166.901 51.432C166.677 51.3467 166.442 51.304 166.197 51.304ZM175.128 57.112C174.542 57.112 174.003 57.0213 173.512 56.84C173.032 56.6587 172.616 56.408 172.264 56.088C171.912 55.7573 171.64 55.368 171.448 54.92C171.256 54.4613 171.16 53.9547 171.16 53.4C171.16 52.8133 171.262 52.2853 171.464 51.816C171.667 51.336 171.944 50.9307 172.296 50.6C172.648 50.2693 173.059 50.0133 173.528 49.832C173.998 49.6507 174.499 49.56 175.032 49.56C175.608 49.56 176.12 49.6613 176.568 49.864C177.027 50.056 177.411 50.328 177.72 50.68C178.03 51.0213 178.264 51.4267 178.424 51.896C178.595 52.3547 178.68 52.8507 178.68 53.384V53.8H173.08C173.176 54.3653 173.416 54.7973 173.8 55.096C174.195 55.3947 174.691 55.544 175.288 55.544C175.715 55.544 176.11 55.4693 176.472 55.32C176.846 55.16 177.155 54.9413 177.4 54.664L178.504 55.672C178.131 56.1413 177.651 56.4987 177.064 56.744C176.478 56.9893 175.832 57.112 175.128 57.112ZM174.952 51.16C174.483 51.16 174.088 51.288 173.768 51.544C173.459 51.7893 173.246 52.1413 173.128 52.6H176.776C176.712 52.1947 176.52 51.8533 176.2 51.576C175.88 51.2987 175.464 51.16 174.952 51.16ZM180.781 49.688H182.477L184.413 53.928L186.237 49.688H187.981L189.197 57H187.341L186.637 52.728L184.749 57H183.901L181.997 52.808L181.309 57H179.549L180.781 49.688ZM193.988 57.112C193.401 57.112 192.862 57.0213 192.372 56.84C191.892 56.6587 191.476 56.408 191.124 56.088C190.772 55.7573 190.5 55.368 190.308 54.92C190.116 54.4613 190.02 53.9547 190.02 53.4C190.02 52.8133 190.121 52.2853 190.324 51.816C190.526 51.336 190.804 50.9307 191.156 50.6C191.508 50.2693 191.918 50.0133 192.388 49.832C192.857 49.6507 193.358 49.56 193.892 49.56C194.468 49.56 194.98 49.6613 195.428 49.864C195.886 50.056 196.27 50.328 196.58 50.68C196.889 51.0213 197.124 51.4267 197.284 51.896C197.454 52.3547 197.54 52.8507 197.54 53.384V53.8H191.94C192.036 54.3653 192.276 54.7973 192.66 55.096C193.054 55.3947 193.55 55.544 194.148 55.544C194.574 55.544 194.969 55.4693 195.332 55.32C195.705 55.16 196.014 54.9413 196.26 54.664L197.364 55.672C196.99 56.1413 196.51 56.4987 195.924 56.744C195.337 56.9893 194.692 57.112 193.988 57.112ZM193.812 51.16C193.342 51.16 192.948 51.288 192.628 51.544C192.318 51.7893 192.105 52.1413 191.988 52.6H195.636C195.572 52.1947 195.38 51.8533 195.06 51.576C194.74 51.2987 194.324 51.16 193.812 51.16ZM204.023 54.12H200.983V57H198.999V49.688H200.983V52.376H204.023V49.688H206.007V57H204.023V54.12ZM212.913 54.12H209.873V57H207.889V49.688H209.873V52.376H212.913V49.688H214.897V57H212.913V54.12ZM220.3 57.112C219.724 57.112 219.191 57.0213 218.7 56.84C218.22 56.6587 217.804 56.4027 217.452 56.072C217.111 55.7307 216.839 55.3307 216.636 54.872C216.444 54.4133 216.348 53.9013 216.348 53.336C216.348 52.7707 216.444 52.2587 216.636 51.8C216.839 51.3307 217.116 50.9307 217.468 50.6C217.82 50.2693 218.236 50.0133 218.716 49.832C219.207 49.6507 219.735 49.56 220.3 49.56C220.876 49.56 221.404 49.6507 221.884 49.832C222.375 50.0133 222.796 50.2747 223.148 50.616C223.5 50.9467 223.772 51.3467 223.964 51.816C224.156 52.2747 224.252 52.7813 224.252 53.336C224.252 53.912 224.151 54.4347 223.948 54.904C223.745 55.3627 223.468 55.7573 223.116 56.088C222.764 56.408 222.348 56.6587 221.868 56.84C221.388 57.0213 220.865 57.112 220.3 57.112ZM220.3 55.432C220.887 55.432 221.345 55.2347 221.676 54.84C222.007 54.4453 222.172 53.944 222.172 53.336C222.172 52.728 222.012 52.232 221.692 51.848C221.372 51.4533 220.908 51.256 220.3 51.256C219.703 51.256 219.239 51.4533 218.908 51.848C218.577 52.2427 218.412 52.7387 218.412 53.336C218.412 53.624 218.455 53.896 218.54 54.152C218.625 54.408 218.748 54.632 218.908 54.824C219.068 55.016 219.265 55.1653 219.5 55.272C219.735 55.3787 220.001 55.432 220.3 55.432ZM226.328 49.688H228.024L229.96 53.928L231.784 49.688H233.528L234.744 57H232.888L232.184 52.728L230.296 57H229.448L227.544 52.808L226.856 57H225.096L226.328 49.688ZM246.714 49.688H253.594V57H251.626V51.432H248.698V57H246.714V49.688ZM259.015 57.112C258.439 57.112 257.905 57.0213 257.415 56.84C256.935 56.6587 256.519 56.4027 256.167 56.072C255.825 55.7307 255.553 55.3307 255.351 54.872C255.159 54.4133 255.063 53.9013 255.063 53.336C255.063 52.7707 255.159 52.2587 255.351 51.8C255.553 51.3307 255.831 50.9307 256.183 50.6C256.535 50.2693 256.951 50.0133 257.431 49.832C257.921 49.6507 258.449 49.56 259.015 49.56C259.591 49.56 260.119 49.6507 260.599 49.832C261.089 50.0133 261.511 50.2747 261.863 50.616C262.215 50.9467 262.487 51.3467 262.679 51.816C262.871 52.2747 262.967 52.7813 262.967 53.336C262.967 53.912 262.865 54.4347 262.663 54.904C262.46 55.3627 262.183 55.7573 261.831 56.088C261.479 56.408 261.063 56.6587 260.583 56.84C260.103 57.0213 259.58 57.112 259.015 57.112ZM259.015 55.432C259.601 55.432 260.06 55.2347 260.391 54.84C260.721 54.4453 260.887 53.944 260.887 53.336C260.887 52.728 260.727 52.232 260.407 51.848C260.087 51.4533 259.623 51.256 259.015 51.256C258.417 51.256 257.953 51.4533 257.623 51.848C257.292 52.2427 257.127 52.7387 257.127 53.336C257.127 53.624 257.169 53.896 257.255 54.152C257.34 54.408 257.463 54.632 257.623 54.824C257.783 55.016 257.98 55.1653 258.215 55.272C258.449 55.3787 258.716 55.432 259.015 55.432ZM269.425 54.12H266.385V57H264.401V49.688H266.385V52.376H269.425V49.688H271.409V57H269.425V54.12ZM273.292 49.688H275.276V53.896L278.668 49.688H280.22V57H278.236V52.552L274.652 57H273.292V49.688ZM282.824 49.688H284.52L286.456 53.928L288.28 49.688H290.024L291.24 57H289.384L288.68 52.728L286.792 57H285.944L284.04 52.808L283.352 57H281.592L282.824 49.688ZM295.471 57.112C295.033 57.112 294.607 57.0213 294.191 56.84C293.785 56.6587 293.423 56.4027 293.103 56.072C292.793 55.7413 292.543 55.3467 292.351 54.888C292.159 54.4187 292.063 53.9013 292.063 53.336C292.063 52.7707 292.153 52.2587 292.335 51.8C292.527 51.3307 292.777 50.9307 293.087 50.6C293.407 50.2693 293.769 50.0133 294.175 49.832C294.591 49.6507 295.023 49.56 295.471 49.56C296.015 49.56 296.495 49.6667 296.911 49.88C297.337 50.0933 297.673 50.3547 297.919 50.664V49.688H299.791V57H297.919V56.008C297.652 56.3387 297.305 56.6053 296.879 56.808C296.452 57.0107 295.983 57.112 295.471 57.112ZM295.999 55.416C296.543 55.416 296.975 55.2293 297.295 54.856C297.625 54.472 297.796 53.976 297.807 53.368V53.24C297.807 52.6747 297.641 52.2107 297.311 51.848C296.98 51.4853 296.543 51.304 295.999 51.304C295.753 51.304 295.519 51.3467 295.295 51.432C295.071 51.5173 294.873 51.6453 294.703 51.816C294.532 51.9867 294.399 52.2 294.303 52.456C294.207 52.712 294.159 53.0053 294.159 53.336C294.159 53.976 294.329 54.4827 294.671 54.856C295.023 55.2293 295.465 55.416 295.999 55.416ZM306.706 54.12H303.666V57H301.682V49.688H303.666V52.376H306.706V49.688H308.69V57H306.706V54.12ZM310.573 49.688H312.557V53.896L315.949 49.688H317.501V57H315.517V52.552L311.933 57H310.573V49.688ZM319.385 49.688H321.369V53.896L324.761 49.688H326.313V57H324.329V52.552L320.745 57H319.385V49.688ZM343.075 54.024H338.787V52.408H343.075V54.024ZM67.528 71.536H70.104C69.9867 71.1093 69.7733 70.7893 69.464 70.576C69.1653 70.3627 68.792 70.256 68.344 70.256C67.6187 70.256 67.0747 70.512 66.712 71.024L65.368 70C65.656 69.552 66.0773 69.2 66.632 68.944C67.1973 68.688 67.8 68.56 68.44 68.56C68.9627 68.56 69.4533 68.6453 69.912 68.816C70.3813 68.9867 70.792 69.232 71.144 69.552C71.496 69.872 71.7733 70.2667 71.976 70.736C72.1787 71.1947 72.28 71.7227 72.28 72.32C72.28 72.8747 72.184 73.3867 71.992 73.856C71.8107 74.3147 71.5547 74.7147 71.224 75.056C70.8933 75.3867 70.4933 75.648 70.024 75.84C69.5547 76.0213 69.0427 76.112 68.488 76.112C67.7947 76.112 67.1493 75.9733 66.552 75.696C65.9653 75.4187 65.5333 75.0187 65.256 74.496L66.696 73.664C67.08 74.208 67.6133 74.48 68.296 74.48C68.84 74.48 69.2613 74.3253 69.56 74.016C69.8587 73.7067 70.0507 73.344 70.136 72.928H67.528V71.536ZM75.1709 70.432H72.8189V68.688H79.4909V70.432H77.1389V76H75.1709V70.432ZM83.9484 76.112C83.3724 76.112 82.839 76.0213 82.3484 75.84C81.8684 75.6587 81.4524 75.4027 81.1004 75.072C80.759 74.7307 80.487 74.3307 80.2844 73.872C80.0924 73.4133 79.9964 72.9013 79.9964 72.336C79.9964 71.7707 80.0924 71.2587 80.2844 70.8C80.487 70.3307 80.7644 69.9307 81.1164 69.6C81.4684 69.2693 81.8844 69.0133 82.3644 68.832C82.855 68.6507 83.383 68.56 83.9484 68.56C84.5244 68.56 85.0524 68.6507 85.5324 68.832C86.023 69.0133 86.4444 69.2747 86.7964 69.616C87.1484 69.9467 87.4204 70.3467 87.6124 70.816C87.8044 71.2747 87.9004 71.7813 87.9004 72.336C87.9004 72.912 87.799 73.4347 87.5964 73.904C87.3937 74.3627 87.1164 74.7573 86.7644 75.088C86.4124 75.408 85.9964 75.6587 85.5164 75.84C85.0364 76.0213 84.5137 76.112 83.9484 76.112ZM83.9484 74.432C84.535 74.432 84.9937 74.2347 85.3244 73.84C85.655 73.4453 85.8204 72.944 85.8204 72.336C85.8204 71.728 85.6604 71.232 85.3404 70.848C85.0204 70.4533 84.5564 70.256 83.9484 70.256C83.351 70.256 82.887 70.4533 82.5564 70.848C82.2257 71.2427 82.0604 71.7387 82.0604 72.336C82.0604 72.624 82.103 72.896 82.1884 73.152C82.2737 73.408 82.3964 73.632 82.5564 73.824C82.7164 74.016 82.9137 74.1653 83.1484 74.272C83.383 74.3787 83.6497 74.432 83.9484 74.432ZM98.7024 73.12H95.6624V76H93.6784V68.688H95.6624V71.376H98.7024V68.688H100.686V76H98.7024V73.12ZM106.105 76.112C105.518 76.112 104.98 76.0213 104.489 75.84C104.009 75.6587 103.593 75.408 103.241 75.088C102.889 74.7573 102.617 74.368 102.425 73.92C102.233 73.4613 102.137 72.9547 102.137 72.4C102.137 71.8133 102.238 71.2853 102.441 70.816C102.644 70.336 102.921 69.9307 103.273 69.6C103.625 69.2693 104.036 69.0133 104.505 68.832C104.974 68.6507 105.476 68.56 106.009 68.56C106.585 68.56 107.097 68.6613 107.545 68.864C108.004 69.056 108.388 69.328 108.697 69.68C109.006 70.0213 109.241 70.4267 109.401 70.896C109.572 71.3547 109.657 71.8507 109.657 72.384V72.8H104.057C104.153 73.3653 104.393 73.7973 104.777 74.096C105.172 74.3947 105.668 74.544 106.265 74.544C106.692 74.544 107.086 74.4693 107.449 74.32C107.822 74.16 108.132 73.9413 108.377 73.664L109.481 74.672C109.108 75.1413 108.628 75.4987 108.041 75.744C107.454 75.9893 106.809 76.112 106.105 76.112ZM105.929 70.16C105.46 70.16 105.065 70.288 104.745 70.544C104.436 70.7893 104.222 71.1413 104.105 71.6H107.753C107.689 71.1947 107.497 70.8533 107.177 70.576C106.857 70.2987 106.441 70.16 105.929 70.16ZM117.14 70.432H114.788V68.688H121.46V70.432H119.108V76H117.14V70.432ZM125.917 76.112C125.341 76.112 124.808 76.0213 124.317 75.84C123.837 75.6587 123.421 75.4027 123.069 75.072C122.728 74.7307 122.456 74.3307 122.253 73.872C122.061 73.4133 121.965 72.9013 121.965 72.336C121.965 71.7707 122.061 71.2587 122.253 70.8C122.456 70.3307 122.733 69.9307 123.085 69.6C123.437 69.2693 123.853 69.0133 124.333 68.832C124.824 68.6507 125.352 68.56 125.917 68.56C126.493 68.56 127.021 68.6507 127.501 68.832C127.992 69.0133 128.413 69.2747 128.765 69.616C129.117 69.9467 129.389 70.3467 129.581 70.816C129.773 71.2747 129.869 71.7813 129.869 72.336C129.869 72.912 129.768 73.4347 129.565 73.904C129.362 74.3627 129.085 74.7573 128.733 75.088C128.381 75.408 127.965 75.6587 127.485 75.84C127.005 76.0213 126.482 76.112 125.917 76.112ZM125.917 74.432C126.504 74.432 126.962 74.2347 127.293 73.84C127.624 73.4453 127.789 72.944 127.789 72.336C127.789 71.728 127.629 71.232 127.309 70.848C126.989 70.4533 126.525 70.256 125.917 70.256C125.32 70.256 124.856 70.4533 124.525 70.848C124.194 71.2427 124.029 71.7387 124.029 72.336C124.029 72.624 124.072 72.896 124.157 73.152C124.242 73.408 124.365 73.632 124.525 73.824C124.685 74.016 124.882 74.1653 125.117 74.272C125.352 74.3787 125.618 74.432 125.917 74.432ZM132.749 70.432H130.397V68.688H137.069V70.432H134.717V76H132.749V70.432ZM137.929 76.08C137.609 76.0267 137.364 75.904 137.193 75.712C137.033 75.5093 136.953 75.2693 136.953 74.992C136.953 74.64 137.065 74.3627 137.289 74.16C137.524 73.9467 137.801 73.84 138.121 73.84C138.462 73.84 138.756 73.952 139.001 74.176C139.257 74.4 139.385 74.72 139.385 75.136C139.385 75.4133 139.31 75.7227 139.161 76.064C139.012 76.4053 138.782 76.848 138.473 77.392L137.833 78.56H136.553L137.929 76.08ZM145.553 68.688H147.537V71.376H148.305L150.065 68.688H152.129V68.96L149.953 72.016L152.673 75.728V76H150.465L148.257 72.88H147.537V76H145.553V68.688ZM155.28 70.432H152.928V68.688H159.6V70.432H157.248V76H155.28V70.432ZM164.058 76.112C163.482 76.112 162.948 76.0213 162.458 75.84C161.978 75.6587 161.562 75.4027 161.21 75.072C160.868 74.7307 160.596 74.3307 160.394 73.872C160.202 73.4133 160.106 72.9013 160.106 72.336C160.106 71.7707 160.202 71.2587 160.394 70.8C160.596 70.3307 160.874 69.9307 161.226 69.6C161.578 69.2693 161.994 69.0133 162.474 68.832C162.964 68.6507 163.492 68.56 164.058 68.56C164.634 68.56 165.162 68.6507 165.642 68.832C166.132 69.0133 166.554 69.2747 166.906 69.616C167.258 69.9467 167.53 70.3467 167.722 70.816C167.914 71.2747 168.01 71.7813 168.01 72.336C168.01 72.912 167.908 73.4347 167.706 73.904C167.503 74.3627 167.226 74.7573 166.874 75.088C166.522 75.408 166.106 75.6587 165.626 75.84C165.146 76.0213 164.623 76.112 164.058 76.112ZM164.058 74.432C164.644 74.432 165.103 74.2347 165.434 73.84C165.764 73.4453 165.93 72.944 165.93 72.336C165.93 71.728 165.77 71.232 165.45 70.848C165.13 70.4533 164.666 70.256 164.058 70.256C163.46 70.256 162.996 70.4533 162.666 70.848C162.335 71.2427 162.17 71.7387 162.17 72.336C162.17 72.624 162.212 72.896 162.298 73.152C162.383 73.408 162.506 73.632 162.666 73.824C162.826 74.016 163.023 74.1653 163.258 74.272C163.492 74.3787 163.759 74.432 164.058 74.432ZM174.716 79.6L175.948 76.08L172.956 69.056V68.688H174.94L176.876 73.472L178.572 68.688H180.364L180.348 69.056L176.508 79.84H174.716V79.6ZM181.727 68.688H183.423L185.359 72.928L187.183 68.688H188.927L190.143 76H188.286L187.583 71.728L185.695 76H184.847L182.943 71.808L182.255 76H180.495L181.727 68.688ZM194.933 76.112C194.346 76.112 193.808 76.0213 193.317 75.84C192.837 75.6587 192.421 75.408 192.069 75.088C191.717 74.7573 191.445 74.368 191.253 73.92C191.061 73.4613 190.965 72.9547 190.965 72.4C190.965 71.8133 191.066 71.2853 191.269 70.816C191.472 70.336 191.749 69.9307 192.101 69.6C192.453 69.2693 192.864 69.0133 193.333 68.832C193.802 68.6507 194.304 68.56 194.837 68.56C195.413 68.56 195.925 68.6613 196.373 68.864C196.832 69.056 197.216 69.328 197.525 69.68C197.834 70.0213 198.069 70.4267 198.229 70.896C198.4 71.3547 198.485 71.8507 198.485 72.384V72.8H192.885C192.981 73.3653 193.221 73.7973 193.605 74.096C194 74.3947 194.496 74.544 195.093 74.544C195.52 74.544 195.914 74.4693 196.277 74.32C196.65 74.16 196.96 73.9413 197.205 73.664L198.309 74.672C197.936 75.1413 197.456 75.4987 196.869 75.744C196.282 75.9893 195.637 76.112 194.933 76.112ZM194.757 70.16C194.288 70.16 193.893 70.288 193.573 70.544C193.264 70.7893 193.05 71.1413 192.933 71.6H196.581C196.517 71.1947 196.325 70.8533 196.005 70.576C195.685 70.2987 195.269 70.16 194.757 70.16ZM203.48 76.112C202.893 76.112 202.355 76.0213 201.864 75.84C201.384 75.6587 200.968 75.408 200.616 75.088C200.264 74.7573 199.992 74.368 199.8 73.92C199.608 73.4613 199.512 72.9547 199.512 72.4C199.512 71.8133 199.613 71.2853 199.816 70.816C200.019 70.336 200.296 69.9307 200.648 69.6C201 69.2693 201.411 69.0133 201.88 68.832C202.349 68.6507 202.851 68.56 203.384 68.56C203.96 68.56 204.472 68.6613 204.92 68.864C205.379 69.056 205.763 69.328 206.072 69.68C206.381 70.0213 206.616 70.4267 206.776 70.896C206.947 71.3547 207.032 71.8507 207.032 72.384V72.8H201.432C201.528 73.3653 201.768 73.7973 202.152 74.096C202.547 74.3947 203.043 74.544 203.64 74.544C204.067 74.544 204.461 74.4693 204.824 74.32C205.197 74.16 205.507 73.9413 205.752 73.664L206.856 74.672C206.483 75.1413 206.003 75.4987 205.416 75.744C204.829 75.9893 204.184 76.112 203.48 76.112ZM203.304 70.16C202.835 70.16 202.44 70.288 202.12 70.544C201.811 70.7893 201.597 71.1413 201.48 71.6H205.128C205.064 71.1947 204.872 70.8533 204.552 70.576C204.232 70.2987 203.816 70.16 203.304 70.16ZM209.937 70.432H207.585V68.688H214.257V70.432H211.905V76H209.937V70.432ZM219.819 68.688H226.699V76H224.731V70.432H221.803V76H219.819V68.688ZM228.6 68.688H230.584V72.896L233.976 68.688H235.528V76H233.544V71.552L229.96 76H228.6V68.688ZM240.821 76.112C240.234 76.112 239.706 76.0213 239.237 75.84C238.767 75.6587 238.362 75.408 238.021 75.088C237.69 74.7573 237.434 74.3627 237.253 73.904C237.071 73.4453 236.981 72.9333 236.981 72.368C236.981 71.7707 237.077 71.2373 237.269 70.768C237.471 70.288 237.743 69.888 238.085 69.568C238.426 69.2373 238.831 68.9867 239.301 68.816C239.77 68.6453 240.277 68.56 240.821 68.56C241.439 68.56 241.999 68.6667 242.501 68.88C243.013 69.0933 243.413 69.36 243.701 69.68L242.677 71.024C242.463 70.7893 242.213 70.6027 241.925 70.464C241.647 70.3253 241.333 70.256 240.981 70.256C240.383 70.256 239.909 70.448 239.557 70.832C239.215 71.216 239.045 71.7067 239.045 72.304C239.045 72.9227 239.221 73.4347 239.573 73.84C239.935 74.2347 240.421 74.432 241.029 74.432C241.381 74.432 241.695 74.3627 241.973 74.224C242.25 74.0747 242.495 73.8827 242.709 73.648L243.877 74.8C243.557 75.216 243.13 75.5413 242.597 75.776C242.074 76 241.482 76.112 240.821 76.112ZM247.967 76.112C247.53 76.112 247.103 76.0213 246.687 75.84C246.282 75.6587 245.919 75.4027 245.599 75.072C245.29 74.7413 245.039 74.3467 244.847 73.888C244.655 73.4187 244.559 72.9013 244.559 72.336C244.559 71.7707 244.65 71.2587 244.831 70.8C245.023 70.3307 245.274 69.9307 245.583 69.6C245.903 69.2693 246.266 69.0133 246.671 68.832C247.087 68.6507 247.519 68.56 247.967 68.56C248.511 68.56 248.991 68.6667 249.407 68.88C249.834 69.0933 250.17 69.3547 250.415 69.664V68.688H252.287V76H250.415V75.008C250.148 75.3387 249.802 75.6053 249.375 75.808C248.948 76.0107 248.479 76.112 247.967 76.112ZM248.495 74.416C249.039 74.416 249.471 74.2293 249.791 73.856C250.122 73.472 250.292 72.976 250.303 72.368V72.24C250.303 71.6747 250.138 71.2107 249.807 70.848C249.476 70.4853 249.039 70.304 248.495 70.304C248.25 70.304 248.015 70.3467 247.791 70.432C247.567 70.5173 247.37 70.6453 247.199 70.816C247.028 70.9867 246.895 71.2 246.799 71.456C246.703 71.712 246.655 72.0053 246.655 72.336C246.655 72.976 246.826 73.4827 247.167 73.856C247.519 74.2293 247.962 74.416 248.495 74.416ZM255.858 70.432H253.506V68.688H260.178V70.432H257.826V76H255.858V70.432ZM261.397 68.688H263.381V70.8H264.677C265.712 70.8 266.496 71.0133 267.029 71.44C267.573 71.8667 267.845 72.512 267.845 73.376C267.845 74.24 267.562 74.896 266.997 75.344C266.442 75.7813 265.616 76 264.517 76H261.397V68.688ZM264.325 74.448C264.805 74.448 265.173 74.3787 265.429 74.24C265.685 74.0907 265.813 73.8027 265.813 73.376C265.813 72.9813 265.696 72.7093 265.461 72.56C265.226 72.4107 264.869 72.336 264.389 72.336H263.381V74.448H264.325ZM269.804 76.08C269.484 76.0267 269.239 75.904 269.068 75.712C268.908 75.5093 268.828 75.2693 268.828 74.992C268.828 74.64 268.94 74.3627 269.164 74.16C269.399 73.9467 269.676 73.84 269.996 73.84C270.337 73.84 270.631 73.952 270.876 74.176C271.132 74.4 271.26 74.72 271.26 75.136C271.26 75.4133 271.185 75.7227 271.036 76.064C270.887 76.4053 270.657 76.848 270.348 77.392L269.708 78.56H268.428L269.804 76.08ZM280.404 76.112C279.967 76.112 279.54 76.0213 279.124 75.84C278.719 75.6587 278.356 75.4027 278.036 75.072C277.727 74.7413 277.476 74.3467 277.284 73.888C277.092 73.4187 276.996 72.9013 276.996 72.336C276.996 71.7707 277.087 71.2587 277.268 70.8C277.46 70.3307 277.711 69.9307 278.02 69.6C278.34 69.2693 278.703 69.0133 279.108 68.832C279.524 68.6507 279.956 68.56 280.404 68.56C280.948 68.56 281.428 68.6667 281.844 68.88C282.271 69.0933 282.607 69.3547 282.852 69.664V68.688H284.724V76H282.852V75.008C282.586 75.3387 282.239 75.6053 281.812 75.808C281.386 76.0107 280.916 76.112 280.404 76.112ZM280.932 74.416C281.476 74.416 281.908 74.2293 282.228 73.856C282.559 73.472 282.73 72.976 282.74 72.368V72.24C282.74 71.6747 282.575 71.2107 282.244 70.848C281.914 70.4853 281.476 70.304 280.932 70.304C280.687 70.304 280.452 70.3467 280.228 70.432C280.004 70.5173 279.807 70.6453 279.636 70.816C279.466 70.9867 279.332 71.2 279.236 71.456C279.14 71.712 279.092 72.0053 279.092 72.336C279.092 72.976 279.263 73.4827 279.604 73.856C279.956 74.2293 280.399 74.416 280.932 74.416ZM292.64 70.432H290.288V68.688H296.96V70.432H294.608V76H292.64V70.432ZM301.417 76.112C300.841 76.112 300.308 76.0213 299.817 75.84C299.337 75.6587 298.921 75.4027 298.569 75.072C298.228 74.7307 297.956 74.3307 297.753 73.872C297.561 73.4133 297.465 72.9013 297.465 72.336C297.465 71.7707 297.561 71.2587 297.753 70.8C297.956 70.3307 298.233 69.9307 298.585 69.6C298.937 69.2693 299.353 69.0133 299.833 68.832C300.324 68.6507 300.852 68.56 301.417 68.56C301.993 68.56 302.521 68.6507 303.001 68.832C303.492 69.0133 303.913 69.2747 304.265 69.616C304.617 69.9467 304.889 70.3467 305.081 70.816C305.273 71.2747 305.369 71.7813 305.369 72.336C305.369 72.912 305.268 73.4347 305.065 73.904C304.862 74.3627 304.585 74.7573 304.233 75.088C303.881 75.408 303.465 75.6587 302.985 75.84C302.505 76.0213 301.982 76.112 301.417 76.112ZM301.417 74.432C302.004 74.432 302.462 74.2347 302.793 73.84C303.124 73.4453 303.289 72.944 303.289 72.336C303.289 71.728 303.129 71.232 302.809 70.848C302.489 70.4533 302.025 70.256 301.417 70.256C300.82 70.256 300.356 70.4533 300.025 70.848C299.694 71.2427 299.529 71.7387 299.529 72.336C299.529 72.624 299.572 72.896 299.657 73.152C299.742 73.408 299.865 73.632 300.025 73.824C300.185 74.016 300.382 74.1653 300.617 74.272C300.852 74.3787 301.118 74.432 301.417 74.432ZM308.249 70.432H305.897V68.688H312.569V70.432H310.217V76H308.249V70.432ZM313.429 76.08C313.109 76.0267 312.864 75.904 312.693 75.712C312.533 75.5093 312.453 75.2693 312.453 74.992C312.453 74.64 312.565 74.3627 312.789 74.16C313.024 73.9467 313.301 73.84 313.621 73.84C313.962 73.84 314.256 73.952 314.501 74.176C314.757 74.4 314.885 74.72 314.885 75.136C314.885 75.4133 314.81 75.7227 314.661 76.064C314.512 76.4053 314.282 76.848 313.973 77.392L313.333 78.56H312.053L313.429 76.08ZM321.053 68.688H323.037V71.376H323.805L325.565 68.688H327.629V68.96L325.453 72.016L328.173 75.728V76H325.965L323.757 72.88H323.037V76H321.053V68.688ZM330.78 70.432H328.428V68.688H335.1V70.432H332.748V76H330.78V70.432ZM339.558 76.112C338.982 76.112 338.448 76.0213 337.958 75.84C337.478 75.6587 337.062 75.4027 336.71 75.072C336.368 74.7307 336.096 74.3307 335.894 73.872C335.702 73.4133 335.606 72.9013 335.606 72.336C335.606 71.7707 335.702 71.2587 335.894 70.8C336.096 70.3307 336.374 69.9307 336.726 69.6C337.078 69.2693 337.494 69.0133 337.974 68.832C338.464 68.6507 338.992 68.56 339.558 68.56C340.134 68.56 340.662 68.6507 341.142 68.832C341.632 69.0133 342.054 69.2747 342.406 69.616C342.758 69.9467 343.03 70.3467 343.222 70.816C343.414 71.2747 343.51 71.7813 343.51 72.336C343.51 72.912 343.408 73.4347 343.206 73.904C343.003 74.3627 342.726 74.7573 342.374 75.088C342.022 75.408 341.606 75.6587 341.126 75.84C340.646 76.0213 340.123 76.112 339.558 76.112ZM339.558 74.432C340.144 74.432 340.603 74.2347 340.934 73.84C341.264 73.4453 341.43 72.944 341.43 72.336C341.43 71.728 341.27 71.232 340.95 70.848C340.63 70.4533 340.166 70.256 339.558 70.256C338.96 70.256 338.496 70.4533 338.166 70.848C337.835 71.2427 337.67 71.7387 337.67 72.336C337.67 72.624 337.712 72.896 337.798 73.152C337.883 73.408 338.006 73.632 338.166 73.824C338.326 74.016 338.523 74.1653 338.758 74.272C338.992 74.3787 339.259 74.432 339.558 74.432ZM65.944 87.688H72.824V95H70.856V89.432H67.928V95H65.944V87.688ZM74.7253 98.84V87.688H76.5973V88.664C76.8426 88.3547 77.1733 88.0933 77.5893 87.88C78.0159 87.6667 78.5013 87.56 79.0453 87.56C79.4933 87.56 79.9199 87.6507 80.3253 87.832C80.7413 88.0133 81.1039 88.2693 81.4133 88.6C81.7333 88.9307 81.9839 89.3307 82.1653 89.8C82.3573 90.2587 82.4533 90.7707 82.4533 91.336C82.4533 91.9013 82.3573 92.4187 82.1653 92.888C81.9733 93.3467 81.7173 93.7413 81.3973 94.072C81.0879 94.4027 80.7253 94.6587 80.3093 94.84C79.9039 95.0213 79.4826 95.112 79.0453 95.112C78.5653 95.112 78.1226 95.0267 77.7173 94.856C77.3119 94.6747 76.9759 94.4347 76.7093 94.136V98.84H74.7253ZM78.5173 89.304C77.9733 89.304 77.5413 89.48 77.2213 89.832C76.9013 90.1733 76.7306 90.616 76.7093 91.16V91.368C76.7199 91.976 76.8853 92.472 77.2053 92.856C77.5359 93.2293 77.9733 93.416 78.5173 93.416C79.0506 93.416 79.4879 93.2293 79.8293 92.856C80.1813 92.4827 80.3573 91.976 80.3573 91.336C80.3573 91.0053 80.3039 90.712 80.1973 90.456C80.1013 90.2 79.9679 89.9867 79.7973 89.816C79.6373 89.6453 79.4453 89.5173 79.2213 89.432C78.9973 89.3467 78.7626 89.304 78.5173 89.304ZM83.9128 87.688H85.8968V91.896L89.2888 87.688H90.8408V95H88.8568V90.552L85.2728 95H83.9128V87.688ZM91.8773 93.256H92.7573C93.0346 92.68 93.2426 92.04 93.3813 91.336C93.5199 90.6213 93.5893 89.7787 93.5893 88.808V87.688H99.2853V93.256H100.405V96.632H98.7893V95H93.5093V96.632H91.8773V93.256ZM95.3653 89.48C95.3653 90.9627 95.1466 92.2213 94.7093 93.256H97.3013V89.432H95.3653V89.48ZM102.231 98.6L103.463 95.08L100.471 88.056V87.688H102.455L104.391 92.472L106.087 87.688H107.879L107.863 88.056L104.023 98.84H102.231V98.6ZM109.242 87.688H110.938L112.874 91.928L114.698 87.688H116.442L117.658 95H115.802L115.098 90.728L113.21 95H112.362L110.458 90.808L109.77 95H108.01L109.242 87.688ZM122.11 89.8C123.145 89.8 123.929 90.0133 124.462 90.44C125.006 90.8667 125.278 91.512 125.278 92.376C125.278 93.24 124.995 93.896 124.43 94.344C123.875 94.7813 123.049 95 121.95 95H119.022V87.688H121.006V89.8H122.11ZM125.982 87.688H127.966V95H125.982V87.688ZM121.742 93.448C122.222 93.448 122.59 93.3787 122.846 93.24C123.113 93.0907 123.246 92.8027 123.246 92.376C123.246 91.9813 123.123 91.7093 122.878 91.56C122.643 91.4107 122.286 91.336 121.806 91.336H121.006V93.448H121.742ZM129.85 87.688H133.802C134.56 87.688 135.13 87.8533 135.514 88.184C135.898 88.504 136.09 88.9253 136.09 89.448C136.09 89.8427 135.994 90.168 135.802 90.424C135.61 90.68 135.36 90.8613 135.05 90.968C135.573 91.0427 136 91.224 136.33 91.512C136.661 91.8 136.826 92.232 136.826 92.808C136.826 93.512 136.565 94.056 136.042 94.44C135.53 94.8133 134.778 95 133.786 95H129.85V87.688ZM131.834 91.704V93.544H133.354C133.856 93.544 134.213 93.4693 134.426 93.32C134.64 93.16 134.746 92.9253 134.746 92.616C134.746 92.296 134.634 92.0667 134.41 91.928C134.186 91.7787 133.85 91.704 133.402 91.704H131.834ZM131.834 89.144V90.552H133.21C133.893 90.552 134.234 90.312 134.234 89.832C134.234 89.3733 133.888 89.144 133.194 89.144H131.834ZM141.045 95.112C140.608 95.112 140.181 95.0213 139.765 94.84C139.36 94.6587 138.997 94.4027 138.677 94.072C138.368 93.7413 138.117 93.3467 137.925 92.888C137.733 92.4187 137.637 91.9013 137.637 91.336C137.637 90.7707 137.728 90.2587 137.909 89.8C138.101 89.3307 138.352 88.9307 138.661 88.6C138.981 88.2693 139.344 88.0133 139.749 87.832C140.165 87.6507 140.597 87.56 141.045 87.56C141.589 87.56 142.069 87.6667 142.485 87.88C142.912 88.0933 143.248 88.3547 143.493 88.664V87.688H145.365V95H143.493V94.008C143.226 94.3387 142.88 94.6053 142.453 94.808C142.026 95.0107 141.557 95.112 141.045 95.112ZM141.573 93.416C142.117 93.416 142.549 93.2293 142.869 92.856C143.2 92.472 143.37 91.976 143.381 91.368V91.24C143.381 90.6747 143.216 90.2107 142.885 89.848C142.554 89.4853 142.117 89.304 141.573 89.304C141.328 89.304 141.093 89.3467 140.869 89.432C140.645 89.5173 140.448 89.6453 140.277 89.816C140.106 89.9867 139.973 90.2 139.877 90.456C139.781 90.712 139.733 91.0053 139.733 91.336C139.733 91.976 139.904 92.4827 140.245 92.856C140.597 93.2293 141.04 93.416 141.573 93.416ZM150.793 95.112C150.206 95.112 149.667 95.0213 149.177 94.84C148.697 94.6587 148.281 94.408 147.929 94.088C147.577 93.7573 147.305 93.368 147.113 92.92C146.921 92.4613 146.825 91.9547 146.825 91.4C146.825 90.8133 146.926 90.2853 147.129 89.816C147.331 89.336 147.609 88.9307 147.961 88.6C148.313 88.2693 148.723 88.0133 149.193 87.832C149.662 87.6507 150.163 87.56 150.697 87.56C151.273 87.56 151.785 87.6613 152.233 87.864C152.691 88.056 153.075 88.328 153.385 88.68C153.694 89.0213 153.929 89.4267 154.089 89.896C154.259 90.3547 154.345 90.8507 154.345 91.384V91.8H148.745C148.841 92.3653 149.081 92.7973 149.465 93.096C149.859 93.3947 150.355 93.544 150.953 93.544C151.379 93.544 151.774 93.4693 152.137 93.32C152.51 93.16 152.819 92.9413 153.065 92.664L154.169 93.672C153.795 94.1413 153.315 94.4987 152.729 94.744C152.142 94.9893 151.497 95.112 150.793 95.112ZM150.617 89.16C150.147 89.16 149.753 89.288 149.433 89.544C149.123 89.7893 148.91 90.1413 148.793 90.6H152.441C152.377 90.1947 152.185 89.8533 151.865 89.576C151.545 89.2987 151.129 89.16 150.617 89.16ZM157.249 89.432H154.897V87.688H161.569V89.432H159.217V95H157.249V89.432ZM162.429 95.08C162.109 95.0267 161.864 94.904 161.693 94.712C161.533 94.5093 161.453 94.2693 161.453 93.992C161.453 93.64 161.565 93.3627 161.789 93.16C162.024 92.9467 162.301 92.84 162.621 92.84C162.962 92.84 163.256 92.952 163.501 93.176C163.757 93.4 163.885 93.72 163.885 94.136C163.885 94.4133 163.81 94.7227 163.661 95.064C163.512 95.4053 163.282 95.848 162.973 96.392L162.333 97.56H161.053L162.429 95.08ZM178.745 95.112C178.169 95.112 177.636 95.0213 177.145 94.84C176.665 94.6587 176.249 94.4027 175.897 94.072C175.556 93.7307 175.284 93.3307 175.081 92.872C174.889 92.4133 174.793 91.9013 174.793 91.336C174.793 90.7707 174.889 90.2587 175.081 89.8C175.284 89.3307 175.561 88.9307 175.913 88.6C176.265 88.2693 176.681 88.0133 177.161 87.832C177.652 87.6507 178.18 87.56 178.745 87.56C179.321 87.56 179.849 87.6507 180.329 87.832C180.82 88.0133 181.241 88.2747 181.593 88.616C181.945 88.9467 182.217 89.3467 182.409 89.816C182.601 90.2747 182.697 90.7813 182.697 91.336C182.697 91.912 182.596 92.4347 182.393 92.904C182.191 93.3627 181.913 93.7573 181.561 94.088C181.209 94.408 180.793 94.6587 180.313 94.84C179.833 95.0213 179.311 95.112 178.745 95.112ZM178.745 93.432C179.332 93.432 179.791 93.2347 180.121 92.84C180.452 92.4453 180.617 91.944 180.617 91.336C180.617 90.728 180.457 90.232 180.137 89.848C179.817 89.4533 179.353 89.256 178.745 89.256C178.148 89.256 177.684 89.4533 177.353 89.848C177.023 90.2427 176.857 90.7387 176.857 91.336C176.857 91.624 176.9 91.896 176.985 92.152C177.071 92.408 177.193 92.632 177.353 92.824C177.513 93.016 177.711 93.1653 177.945 93.272C178.18 93.3787 178.447 93.432 178.745 93.432ZM185.577 89.432H183.225V87.688H189.897V89.432H187.545V95H185.577V89.432ZM191.116 87.688H195.068C195.825 87.688 196.396 87.8533 196.78 88.184C197.164 88.504 197.356 88.9253 197.356 89.448C197.356 89.8427 197.26 90.168 197.068 90.424C196.876 90.68 196.625 90.8613 196.316 90.968C196.839 91.0427 197.265 91.224 197.596 91.512C197.927 91.8 198.092 92.232 198.092 92.808C198.092 93.512 197.831 94.056 197.308 94.44C196.796 94.8133 196.044 95 195.052 95H191.116V87.688ZM193.1 91.704V93.544H194.62C195.121 93.544 195.479 93.4693 195.692 93.32C195.905 93.16 196.012 92.9253 196.012 92.616C196.012 92.296 195.9 92.0667 195.676 91.928C195.452 91.7787 195.116 91.704 194.668 91.704H193.1ZM193.1 89.144V90.552H194.476C195.159 90.552 195.5 90.312 195.5 89.832C195.5 89.3733 195.153 89.144 194.46 89.144H193.1ZM202.871 95.112C202.284 95.112 201.745 95.0213 201.255 94.84C200.775 94.6587 200.359 94.408 200.007 94.088C199.655 93.7573 199.383 93.368 199.191 92.92C198.999 92.4613 198.903 91.9547 198.903 91.4C198.903 90.8133 199.004 90.2853 199.207 89.816C199.409 89.336 199.687 88.9307 200.039 88.6C200.391 88.2693 200.801 88.0133 201.271 87.832C201.74 87.6507 202.241 87.56 202.775 87.56C203.351 87.56 203.863 87.6613 204.311 87.864C204.769 88.056 205.153 88.328 205.463 88.68C205.772 89.0213 206.007 89.4267 206.167 89.896C206.337 90.3547 206.423 90.8507 206.423 91.384V91.8H200.823C200.919 92.3653 201.159 92.7973 201.543 93.096C201.937 93.3947 202.433 93.544 203.031 93.544C203.457 93.544 203.852 93.4693 204.215 93.32C204.588 93.16 204.897 92.9413 205.143 92.664L206.247 93.672C205.873 94.1413 205.393 94.4987 204.807 94.744C204.22 94.9893 203.575 95.112 202.871 95.112ZM202.695 89.16C202.225 89.16 201.831 89.288 201.511 89.544C201.201 89.7893 200.988 90.1413 200.871 90.6H204.519C204.455 90.1947 204.263 89.8533 203.943 89.576C203.623 89.2987 203.207 89.16 202.695 89.16ZM212.074 92.344C211.86 92.44 211.61 92.52 211.322 92.584C211.044 92.6373 210.73 92.664 210.378 92.664C209.93 92.664 209.524 92.6107 209.162 92.504C208.81 92.3973 208.506 92.2267 208.25 91.992C207.994 91.7573 207.796 91.4533 207.658 91.08C207.53 90.7067 207.465 90.2533 207.465 89.72V87.688H209.45V89.64C209.45 90.056 209.546 90.376 209.738 90.6C209.93 90.8133 210.314 90.92 210.89 90.92C211.327 90.92 211.722 90.8667 212.074 90.76V87.688H214.058V95H212.074V92.344ZM218.826 95.112C218.389 95.112 217.962 95.0213 217.546 94.84C217.141 94.6587 216.778 94.4027 216.458 94.072C216.149 93.7413 215.898 93.3467 215.706 92.888C215.514 92.4187 215.418 91.9013 215.418 91.336C215.418 90.7707 215.509 90.2587 215.69 89.8C215.882 89.3307 216.133 88.9307 216.442 88.6C216.762 88.2693 217.125 88.0133 217.53 87.832C217.946 87.6507 218.378 87.56 218.826 87.56C219.37 87.56 219.85 87.6667 220.266 87.88C220.693 88.0933 221.029 88.3547 221.274 88.664V87.688H223.146V95H221.274V94.008C221.008 94.3387 220.661 94.6053 220.234 94.808C219.808 95.0107 219.338 95.112 218.826 95.112ZM219.354 93.416C219.898 93.416 220.33 93.2293 220.65 92.856C220.981 92.472 221.152 91.976 221.162 91.368V91.24C221.162 90.6747 220.997 90.2107 220.666 89.848C220.336 89.4853 219.898 89.304 219.354 89.304C219.109 89.304 218.874 89.3467 218.65 89.432C218.426 89.5173 218.229 89.6453 218.058 89.816C217.888 89.9867 217.754 90.2 217.658 90.456C217.562 90.712 217.514 91.0053 217.514 91.336C217.514 91.976 217.685 92.4827 218.026 92.856C218.378 93.2293 218.821 93.416 219.354 93.416ZM228.574 95.112C227.987 95.112 227.448 95.0213 226.958 94.84C226.478 94.6587 226.062 94.408 225.71 94.088C225.358 93.7573 225.086 93.368 224.894 92.92C224.702 92.4613 224.606 91.9547 224.606 91.4C224.606 90.8133 224.707 90.2853 224.91 89.816C225.112 89.336 225.39 88.9307 225.742 88.6C226.094 88.2693 226.504 88.0133 226.974 87.832C227.443 87.6507 227.944 87.56 228.478 87.56C229.054 87.56 229.566 87.6613 230.014 87.864C230.472 88.056 230.856 88.328 231.166 88.68C231.475 89.0213 231.71 89.4267 231.87 89.896C232.04 90.3547 232.126 90.8507 232.126 91.384V91.8H226.526C226.622 92.3653 226.862 92.7973 227.246 93.096C227.64 93.3947 228.136 93.544 228.734 93.544C229.16 93.544 229.555 93.4693 229.918 93.32C230.291 93.16 230.6 92.9413 230.846 92.664L231.95 93.672C231.576 94.1413 231.096 94.4987 230.51 94.744C229.923 94.9893 229.278 95.112 228.574 95.112ZM228.398 89.16C227.928 89.16 227.534 89.288 227.214 89.544C226.904 89.7893 226.691 90.1413 226.574 90.6H230.222C230.158 90.1947 229.966 89.8533 229.646 89.576C229.326 89.2987 228.91 89.16 228.398 89.16ZM235.03 89.432H232.678V87.688H239.35V89.432H236.998V95H235.03V89.432ZM252.485 95.112C252.09 95.112 251.722 95.0693 251.381 94.984C251.05 94.8987 250.751 94.792 250.485 94.664C250.229 94.536 250.005 94.3973 249.813 94.248C249.631 94.0987 249.493 93.96 249.397 93.832L250.661 92.648C250.831 92.8613 251.071 93.048 251.381 93.208C251.69 93.3573 252.047 93.432 252.453 93.432C253.274 93.432 253.685 93.1493 253.685 92.584C253.685 92.3707 253.594 92.1893 253.413 92.04C253.231 91.8907 252.917 91.816 252.469 91.816H251.445V90.424H252.245C252.586 90.424 252.853 90.376 253.045 90.28C253.237 90.1733 253.333 90.0133 253.333 89.8C253.333 89.6187 253.237 89.48 253.045 89.384C252.853 89.2773 252.602 89.224 252.293 89.224C252.005 89.224 251.722 89.288 251.445 89.416C251.178 89.5333 250.949 89.6827 250.757 89.864L249.685 88.744C249.802 88.6053 249.946 88.4667 250.117 88.328C250.298 88.1893 250.506 88.0667 250.741 87.96C250.975 87.8427 251.242 87.7467 251.541 87.672C251.839 87.5973 252.165 87.56 252.517 87.56C252.933 87.56 253.311 87.608 253.653 87.704C253.994 87.8 254.287 87.9333 254.533 88.104C254.778 88.264 254.965 88.4667 255.093 88.712C255.231 88.9467 255.301 89.208 255.301 89.496C255.301 89.8373 255.21 90.136 255.029 90.392C254.847 90.648 254.597 90.8507 254.277 91C254.757 91.1493 255.114 91.3733 255.349 91.672C255.594 91.9707 255.717 92.328 255.717 92.744C255.717 93.0747 255.642 93.384 255.493 93.672C255.343 93.96 255.13 94.2107 254.853 94.424C254.575 94.6373 254.234 94.808 253.829 94.936C253.434 95.0533 252.986 95.112 252.485 95.112ZM260.029 95.112C259.592 95.112 259.165 95.0213 258.749 94.84C258.344 94.6587 257.981 94.4027 257.661 94.072C257.352 93.7413 257.101 93.3467 256.909 92.888C256.717 92.4187 256.621 91.9013 256.621 91.336C256.621 90.7707 256.712 90.2587 256.893 89.8C257.085 89.3307 257.336 88.9307 257.645 88.6C257.965 88.2693 258.328 88.0133 258.733 87.832C259.149 87.6507 259.581 87.56 260.029 87.56C260.573 87.56 261.053 87.6667 261.469 87.88C261.896 88.0933 262.232 88.3547 262.477 88.664V87.688H264.349V95H262.477V94.008C262.211 94.3387 261.864 94.6053 261.437 94.808C261.011 95.0107 260.541 95.112 260.029 95.112ZM260.557 93.416C261.101 93.416 261.533 93.2293 261.853 92.856C262.184 92.472 262.355 91.976 262.365 91.368V91.24C262.365 90.6747 262.2 90.2107 261.869 89.848C261.539 89.4853 261.101 89.304 260.557 89.304C260.312 89.304 260.077 89.3467 259.853 89.432C259.629 89.5173 259.432 89.6453 259.261 89.816C259.091 89.9867 258.957 90.2 258.861 90.456C258.765 90.712 258.717 91.0053 258.717 91.336C258.717 91.976 258.888 92.4827 259.229 92.856C259.581 93.2293 260.024 93.416 260.557 93.416ZM279.277 95.112C278.701 95.112 278.167 95.0213 277.677 94.84C277.197 94.6587 276.781 94.4027 276.429 94.072C276.087 93.7307 275.815 93.3307 275.613 92.872C275.421 92.4133 275.325 91.9013 275.325 91.336C275.325 90.7707 275.421 90.2587 275.613 89.8C275.815 89.3307 276.093 88.9307 276.445 88.6C276.797 88.2693 277.213 88.0133 277.693 87.832C278.183 87.6507 278.711 87.56 279.277 87.56C279.853 87.56 280.381 87.6507 280.861 87.832C281.351 88.0133 281.773 88.2747 282.125 88.616C282.477 88.9467 282.749 89.3467 282.941 89.816C283.133 90.2747 283.229 90.7813 283.229 91.336C283.229 91.912 283.127 92.4347 282.925 92.904C282.722 93.3627 282.445 93.7573 282.093 94.088C281.741 94.408 281.325 94.6587 280.845 94.84C280.365 95.0213 279.842 95.112 279.277 95.112ZM279.277 93.432C279.863 93.432 280.322 93.2347 280.653 92.84C280.983 92.4453 281.149 91.944 281.149 91.336C281.149 90.728 280.989 90.232 280.669 89.848C280.349 89.4533 279.885 89.256 279.277 89.256C278.679 89.256 278.215 89.4533 277.885 89.848C277.554 90.2427 277.389 90.7387 277.389 91.336C277.389 91.624 277.431 91.896 277.517 92.152C277.602 92.408 277.725 92.632 277.885 92.824C278.045 93.016 278.242 93.1653 278.477 93.272C278.711 93.3787 278.978 93.432 279.277 93.432ZM288.071 95.112C287.484 95.112 286.956 95.0213 286.487 94.84C286.017 94.6587 285.612 94.408 285.271 94.088C284.94 93.7573 284.684 93.3627 284.503 92.904C284.321 92.4453 284.231 91.9333 284.231 91.368C284.231 90.7707 284.327 90.2373 284.519 89.768C284.721 89.288 284.993 88.888 285.335 88.568C285.676 88.2373 286.081 87.9867 286.551 87.816C287.02 87.6453 287.527 87.56 288.071 87.56C288.689 87.56 289.249 87.6667 289.751 87.88C290.263 88.0933 290.663 88.36 290.951 88.68L289.927 90.024C289.713 89.7893 289.463 89.6027 289.175 89.464C288.897 89.3253 288.583 89.256 288.231 89.256C287.633 89.256 287.159 89.448 286.807 89.832C286.465 90.216 286.295 90.7067 286.295 91.304C286.295 91.9227 286.471 92.4347 286.823 92.84C287.185 93.2347 287.671 93.432 288.279 93.432C288.631 93.432 288.945 93.3627 289.223 93.224C289.5 93.0747 289.745 92.8827 289.959 92.648L291.127 93.8C290.807 94.216 290.38 94.5413 289.847 94.776C289.324 95 288.732 95.112 288.071 95.112ZM297.343 92.12H294.303V95H292.319V87.688H294.303V90.376H297.343V87.688H299.327V95H297.343V92.12ZM304.73 95.112C304.154 95.112 303.62 95.0213 303.13 94.84C302.65 94.6587 302.234 94.4027 301.882 94.072C301.54 93.7307 301.268 93.3307 301.066 92.872C300.874 92.4133 300.778 91.9013 300.778 91.336C300.778 90.7707 300.874 90.2587 301.066 89.8C301.268 89.3307 301.546 88.9307 301.898 88.6C302.25 88.2693 302.666 88.0133 303.146 87.832C303.636 87.6507 304.164 87.56 304.73 87.56C305.306 87.56 305.834 87.6507 306.314 87.832C306.804 88.0133 307.226 88.2747 307.578 88.616C307.93 88.9467 308.202 89.3467 308.394 89.816C308.586 90.2747 308.682 90.7813 308.682 91.336C308.682 91.912 308.58 92.4347 308.378 92.904C308.175 93.3627 307.898 93.7573 307.546 94.088C307.194 94.408 306.778 94.6587 306.298 94.84C305.818 95.0213 305.295 95.112 304.73 95.112ZM304.73 93.432C305.316 93.432 305.775 93.2347 306.106 92.84C306.436 92.4453 306.602 91.944 306.602 91.336C306.602 90.728 306.442 90.232 306.122 89.848C305.802 89.4533 305.338 89.256 304.73 89.256C304.132 89.256 303.668 89.4533 303.338 89.848C303.007 90.2427 302.842 90.7387 302.842 91.336C302.842 91.624 302.884 91.896 302.97 92.152C303.055 92.408 303.178 92.632 303.338 92.824C303.498 93.016 303.695 93.1653 303.93 93.272C304.164 93.3787 304.431 93.432 304.73 93.432ZM310.116 87.688H314.068C314.825 87.688 315.396 87.8533 315.78 88.184C316.164 88.504 316.356 88.9253 316.356 89.448C316.356 89.8427 316.26 90.168 316.068 90.424C315.876 90.68 315.625 90.8613 315.316 90.968C315.839 91.0427 316.265 91.224 316.596 91.512C316.927 91.8 317.092 92.232 317.092 92.808C317.092 93.512 316.831 94.056 316.308 94.44C315.796 94.8133 315.044 95 314.052 95H310.116V87.688ZM312.1 91.704V93.544H313.62C314.121 93.544 314.479 93.4693 314.692 93.32C314.905 93.16 315.012 92.9253 315.012 92.616C315.012 92.296 314.9 92.0667 314.676 91.928C314.452 91.7787 314.116 91.704 313.668 91.704H312.1ZM312.1 89.144V90.552H313.476C314.159 90.552 314.5 90.312 314.5 89.832C314.5 89.3733 314.153 89.144 313.46 89.144H312.1ZM323.359 92.12H320.319V95H318.335V87.688H320.319V90.376H323.359V87.688H325.343V95H323.359V92.12ZM330.745 95.112C330.169 95.112 329.636 95.0213 329.145 94.84C328.665 94.6587 328.249 94.4027 327.897 94.072C327.556 93.7307 327.284 93.3307 327.081 92.872C326.889 92.4133 326.793 91.9013 326.793 91.336C326.793 90.7707 326.889 90.2587 327.081 89.8C327.284 89.3307 327.561 88.9307 327.913 88.6C328.265 88.2693 328.681 88.0133 329.161 87.832C329.652 87.6507 330.18 87.56 330.745 87.56C331.321 87.56 331.849 87.6507 332.329 87.832C332.82 88.0133 333.241 88.2747 333.593 88.616C333.945 88.9467 334.217 89.3467 334.409 89.816C334.601 90.2747 334.697 90.7813 334.697 91.336C334.697 91.912 334.596 92.4347 334.393 92.904C334.191 93.3627 333.913 93.7573 333.561 94.088C333.209 94.408 332.793 94.6587 332.313 94.84C331.833 95.0213 331.311 95.112 330.745 95.112ZM330.745 93.432C331.332 93.432 331.791 93.2347 332.121 92.84C332.452 92.4453 332.617 91.944 332.617 91.336C332.617 90.728 332.457 90.232 332.137 89.848C331.817 89.4533 331.353 89.256 330.745 89.256C330.148 89.256 329.684 89.4533 329.353 89.848C329.023 90.2427 328.857 90.7387 328.857 91.336C328.857 91.624 328.9 91.896 328.985 92.152C329.071 92.408 329.193 92.632 329.353 92.824C329.513 93.016 329.711 93.1653 329.945 93.272C330.18 93.3787 330.447 93.432 330.745 93.432ZM336.132 87.688H338.116V91.896L341.508 87.688H343.06V95H341.076V90.552L337.492 95H336.132V87.688ZM339.588 86.744C339.257 86.744 338.942 86.7013 338.644 86.616C338.356 86.52 338.1 86.3813 337.876 86.2C337.662 86.0187 337.492 85.7893 337.364 85.512C337.236 85.224 337.166 84.8933 337.156 84.52H338.58C338.601 84.808 338.692 85.0427 338.852 85.224C339.012 85.4053 339.268 85.496 339.62 85.496C339.961 85.496 340.212 85.4107 340.372 85.24C340.542 85.0587 340.638 84.8187 340.66 84.52H342.068C342.057 84.8933 341.982 85.224 341.844 85.512C341.705 85.7893 341.524 86.0187 341.3 86.2C341.076 86.3813 340.814 86.52 340.516 86.616C340.217 86.7013 339.908 86.744 339.588 86.744ZM65.944 106.688H67.928V109.376H68.696L70.456 106.688H72.52V106.96L70.344 110.016L73.064 113.728V114H70.856L68.648 110.88H67.928V114H65.944V106.688ZM77.2296 114.112C76.6536 114.112 76.1203 114.021 75.6296 113.84C75.1496 113.659 74.7336 113.403 74.3816 113.072C74.0403 112.731 73.7683 112.331 73.5656 111.872C73.3736 111.413 73.2776 110.901 73.2776 110.336C73.2776 109.771 73.3736 109.259 73.5656 108.8C73.7683 108.331 74.0456 107.931 74.3976 107.6C74.7496 107.269 75.1656 107.013 75.6456 106.832C76.1363 106.651 76.6643 106.56 77.2296 106.56C77.8056 106.56 78.3336 106.651 78.8136 106.832C79.3043 107.013 79.7256 107.275 80.0776 107.616C80.4296 107.947 80.7016 108.347 80.8936 108.816C81.0856 109.275 81.1816 109.781 81.1816 110.336C81.1816 110.912 81.0803 111.435 80.8776 111.904C80.675 112.363 80.3976 112.757 80.0456 113.088C79.6936 113.408 79.2776 113.659 78.7976 113.84C78.3176 114.021 77.795 114.112 77.2296 114.112ZM77.2296 112.432C77.8163 112.432 78.275 112.235 78.6056 111.84C78.9363 111.445 79.1016 110.944 79.1016 110.336C79.1016 109.728 78.9416 109.232 78.6216 108.848C78.3016 108.453 77.8376 108.256 77.2296 108.256C76.6323 108.256 76.1683 108.453 75.8376 108.848C75.507 109.243 75.3416 109.739 75.3416 110.336C75.3416 110.624 75.3843 110.896 75.4696 111.152C75.555 111.408 75.6776 111.632 75.8376 111.824C75.9976 112.016 76.195 112.165 76.4296 112.272C76.6643 112.379 76.931 112.432 77.2296 112.432ZM87.6399 111.12H84.5999V114H82.6159V106.688H84.5999V109.376H87.6399V106.688H89.6239V114H87.6399V111.12ZM97.6025 114H91.5065V106.688H93.4905V112.256H96.1305V106.688H98.0985V112.256H99.2345V115.632H97.6025V114ZM103.746 114.112C103.159 114.112 102.62 114.021 102.13 113.84C101.65 113.659 101.234 113.408 100.882 113.088C100.53 112.757 100.258 112.368 100.066 111.92C99.8736 111.461 99.7776 110.955 99.7776 110.4C99.7776 109.813 99.879 109.285 100.082 108.816C100.284 108.336 100.562 107.931 100.914 107.6C101.266 107.269 101.676 107.013 102.146 106.832C102.615 106.651 103.116 106.56 103.65 106.56C104.226 106.56 104.738 106.661 105.186 106.864C105.644 107.056 106.028 107.328 106.338 107.68C106.647 108.021 106.882 108.427 107.042 108.896C107.212 109.355 107.298 109.851 107.298 110.384V110.8H101.698C101.794 111.365 102.034 111.797 102.418 112.096C102.812 112.395 103.308 112.544 103.906 112.544C104.332 112.544 104.727 112.469 105.09 112.32C105.463 112.16 105.772 111.941 106.018 111.664L107.122 112.672C106.748 113.141 106.268 113.499 105.682 113.744C105.095 113.989 104.45 114.112 103.746 114.112ZM103.57 108.16C103.1 108.16 102.706 108.288 102.386 108.544C102.076 108.789 101.863 109.141 101.746 109.6H105.394C105.33 109.195 105.138 108.853 104.818 108.576C104.498 108.299 104.082 108.16 103.57 108.16ZM108.757 106.688H115.637V114H113.669V108.432H110.741V114H108.757V106.688ZM119.218 108.432H116.866V106.688H123.538V108.432H121.186V114H119.218V108.432ZM124.798 114.16C124.424 114.16 124.136 114.053 123.934 113.84C123.742 113.616 123.646 113.349 123.646 113.04C123.646 112.709 123.742 112.432 123.934 112.208C124.126 111.984 124.414 111.872 124.798 111.872C125.182 111.872 125.475 111.984 125.678 112.208C125.88 112.432 125.982 112.709 125.982 113.04C125.982 113.349 125.875 113.616 125.662 113.84C125.459 114.053 125.171 114.16 124.798 114.16ZM134.809 102.8H143.625V114H141.481V104.64H136.953V114H134.809V102.8ZM149.289 114.112C148.713 114.112 148.18 114.021 147.689 113.84C147.209 113.659 146.793 113.403 146.441 113.072C146.1 112.731 145.828 112.331 145.625 111.872C145.433 111.413 145.337 110.901 145.337 110.336C145.337 109.771 145.433 109.259 145.625 108.8C145.828 108.331 146.105 107.931 146.457 107.6C146.809 107.269 147.225 107.013 147.705 106.832C148.196 106.651 148.724 106.56 149.289 106.56C149.865 106.56 150.393 106.651 150.873 106.832C151.364 107.013 151.785 107.275 152.137 107.616C152.489 107.947 152.761 108.347 152.953 108.816C153.145 109.275 153.241 109.781 153.241 110.336C153.241 110.912 153.14 111.435 152.937 111.904C152.734 112.363 152.457 112.757 152.105 113.088C151.753 113.408 151.337 113.659 150.857 113.84C150.377 114.021 149.854 114.112 149.289 114.112ZM149.289 112.432C149.876 112.432 150.334 112.235 150.665 111.84C150.996 111.445 151.161 110.944 151.161 110.336C151.161 109.728 151.001 109.232 150.681 108.848C150.361 108.453 149.897 108.256 149.289 108.256C148.692 108.256 148.228 108.453 147.897 108.848C147.566 109.243 147.401 109.739 147.401 110.336C147.401 110.624 147.444 110.896 147.529 111.152C147.614 111.408 147.737 111.632 147.897 111.824C148.057 112.016 148.254 112.165 148.489 112.272C148.724 112.379 148.99 112.432 149.289 112.432ZM164.721 114.112C164.134 114.112 163.606 114.021 163.137 113.84C162.667 113.659 162.262 113.408 161.921 113.088C161.59 112.757 161.334 112.363 161.153 111.904C160.971 111.445 160.881 110.933 160.881 110.368C160.881 109.771 160.977 109.237 161.169 108.768C161.371 108.288 161.643 107.888 161.985 107.568C162.326 107.237 162.731 106.987 163.201 106.816C163.67 106.645 164.177 106.56 164.721 106.56C165.339 106.56 165.899 106.667 166.401 106.88C166.913 107.093 167.313 107.36 167.601 107.68L166.577 109.024C166.363 108.789 166.113 108.603 165.825 108.464C165.547 108.325 165.233 108.256 164.881 108.256C164.283 108.256 163.809 108.448 163.457 108.832C163.115 109.216 162.945 109.707 162.945 110.304C162.945 110.923 163.121 111.435 163.473 111.84C163.835 112.235 164.321 112.432 164.929 112.432C165.281 112.432 165.595 112.363 165.873 112.224C166.15 112.075 166.395 111.883 166.609 111.648L167.777 112.8C167.457 113.216 167.03 113.541 166.497 113.776C165.974 114 165.382 114.112 164.721 114.112ZM169.819 117.6L171.051 114.08L168.059 107.056V106.688H170.043L171.979 111.472L173.675 106.688H175.467L175.451 107.056L171.611 117.84H169.819V117.6ZM178.508 108.432H176.156V106.688H182.828V108.432H180.476V114H178.508V108.432ZM184.047 106.688H186.031V110.896L189.423 106.688H190.975V114H188.991V109.552L185.407 114H184.047V106.688ZM193.548 114.08C193.228 114.027 192.982 113.904 192.812 113.712C192.652 113.509 192.572 113.269 192.572 112.992C192.572 112.64 192.684 112.363 192.908 112.16C193.142 111.947 193.42 111.84 193.74 111.84C194.081 111.84 194.374 111.952 194.62 112.176C194.876 112.4 195.004 112.72 195.004 113.136C195.004 113.413 194.929 113.723 194.78 114.064C194.63 114.405 194.401 114.848 194.092 115.392L193.452 116.56H192.172L193.548 114.08ZM202.698 113.632L205.018 110.16L202.89 107.056V106.688H204.97L206.41 108.832L207.786 106.688H209.674V107.056L207.578 110.208L209.898 113.648L209.914 114H207.882L206.25 111.568L204.634 114H202.698V113.632ZM211.941 117.6L213.173 114.08L210.181 107.056V106.688H212.165L214.101 111.472L215.797 106.688H217.589L217.573 107.056L213.733 117.84H211.941V117.6ZM217.477 112.256H218.357C218.635 111.68 218.843 111.04 218.981 110.336C219.12 109.621 219.189 108.779 219.189 107.808V106.688H224.885V112.256H226.005V115.632H224.389V114H219.109V115.632H217.477V112.256ZM220.965 108.48C220.965 109.963 220.747 111.221 220.309 112.256H222.901V108.432H220.965V108.48ZM230.502 114.112C229.926 114.112 229.392 114.021 228.902 113.84C228.422 113.659 228.006 113.403 227.654 113.072C227.312 112.731 227.04 112.331 226.838 111.872C226.646 111.413 226.55 110.901 226.55 110.336C226.55 109.771 226.646 109.259 226.838 108.8C227.04 108.331 227.318 107.931 227.67 107.6C228.022 107.269 228.438 107.013 228.918 106.832C229.408 106.651 229.936 106.56 230.502 106.56C231.078 106.56 231.606 106.651 232.086 106.832C232.576 107.013 232.998 107.275 233.35 107.616C233.702 107.947 233.974 108.347 234.166 108.816C234.358 109.275 234.454 109.781 234.454 110.336C234.454 110.912 234.352 111.435 234.15 111.904C233.947 112.363 233.67 112.757 233.318 113.088C232.966 113.408 232.55 113.659 232.07 113.84C231.59 114.021 231.067 114.112 230.502 114.112ZM230.502 112.432C231.088 112.432 231.547 112.235 231.878 111.84C232.208 111.445 232.374 110.944 232.374 110.336C232.374 109.728 232.214 109.232 231.894 108.848C231.574 108.453 231.11 108.256 230.502 108.256C229.904 108.256 229.44 108.453 229.11 108.848C228.779 109.243 228.614 109.739 228.614 110.336C228.614 110.624 228.656 110.896 228.742 111.152C228.827 111.408 228.95 111.632 229.11 111.824C229.27 112.016 229.467 112.165 229.702 112.272C229.936 112.379 230.203 112.432 230.502 112.432ZM234.709 113.728L236.821 110.096L235.125 106.96V106.688H237.109L238.501 109.408H239.301V106.688H241.269V109.408H242.053L243.461 106.688H245.381V106.96L243.717 110.064L245.877 113.728V114H243.765L242.021 110.912H241.269V114H239.301V110.912H238.533L236.805 114H234.709V113.728ZM251.834 111.12H248.794V114H246.81V106.688H248.794V109.376H251.834V106.688H253.818V114H251.834V111.12ZM255.7 106.688H257.684V110.896L261.076 106.688H262.628V114H260.644V109.552L257.06 114H255.7V106.688ZM264.513 106.688H266.497V109.376H267.265L269.025 106.688H271.089V106.96L268.913 110.016L271.633 113.728V114H269.425L267.217 110.88H266.497V114H264.513V106.688ZM282.845 114.144C281.426 114.144 280.392 113.701 279.741 112.816C279.09 111.931 278.765 110.603 278.765 108.832C278.765 107.808 278.872 106.933 279.085 106.208C279.298 105.472 279.602 104.875 279.997 104.416C280.402 103.947 280.888 103.605 281.453 103.392C282.029 103.168 282.669 103.056 283.373 103.056C283.778 103.056 284.088 103.019 284.301 102.944C284.514 102.859 284.674 102.699 284.781 102.464L286.349 102.928C286.264 103.237 286.157 103.504 286.029 103.728C285.912 103.941 285.746 104.123 285.533 104.272C285.32 104.421 285.048 104.539 284.717 104.624C284.386 104.699 283.965 104.752 283.453 104.784C282.962 104.816 282.536 104.88 282.173 104.976C281.821 105.072 281.522 105.243 281.277 105.488C281.042 105.723 280.856 106.053 280.717 106.48C280.589 106.907 280.504 107.461 280.461 108.144C280.77 107.568 281.165 107.168 281.645 106.944C282.136 106.709 282.669 106.592 283.245 106.592C283.778 106.592 284.258 106.677 284.685 106.848C285.122 107.019 285.49 107.264 285.789 107.584C286.088 107.904 286.317 108.288 286.477 108.736C286.637 109.173 286.717 109.664 286.717 110.208C286.717 110.805 286.621 111.349 286.429 111.84C286.237 112.32 285.97 112.731 285.629 113.072C285.288 113.413 284.877 113.68 284.397 113.872C283.928 114.053 283.41 114.144 282.845 114.144ZM282.797 112.4C283.341 112.4 283.778 112.219 284.109 111.856C284.45 111.483 284.621 110.971 284.621 110.32C284.621 109.68 284.461 109.179 284.141 108.816C283.832 108.443 283.389 108.256 282.813 108.256C282.248 108.256 281.8 108.437 281.469 108.8C281.138 109.163 280.973 109.669 280.973 110.32C280.973 110.96 281.138 111.467 281.469 111.84C281.8 112.213 282.242 112.4 282.797 112.4ZM291.702 114.112C291.115 114.112 290.577 114.021 290.086 113.84C289.606 113.659 289.19 113.408 288.838 113.088C288.486 112.757 288.214 112.368 288.022 111.92C287.83 111.461 287.734 110.955 287.734 110.4C287.734 109.813 287.835 109.285 288.038 108.816C288.241 108.336 288.518 107.931 288.87 107.6C289.222 107.269 289.633 107.013 290.102 106.832C290.571 106.651 291.073 106.56 291.606 106.56C292.182 106.56 292.694 106.661 293.142 106.864C293.601 107.056 293.985 107.328 294.294 107.68C294.603 108.021 294.838 108.427 294.998 108.896C295.169 109.355 295.254 109.851 295.254 110.384V110.8H289.654C289.75 111.365 289.99 111.797 290.374 112.096C290.769 112.395 291.265 112.544 291.862 112.544C292.289 112.544 292.683 112.469 293.046 112.32C293.419 112.16 293.729 111.941 293.974 111.664L295.078 112.672C294.705 113.141 294.225 113.499 293.638 113.744C293.051 113.989 292.406 114.112 291.702 114.112ZM291.526 108.16C291.057 108.16 290.662 108.288 290.342 108.544C290.033 108.789 289.819 109.141 289.702 109.6H293.35C293.286 109.195 293.094 108.853 292.774 108.576C292.454 108.299 292.038 108.16 291.526 108.16ZM298.91 114.112C298.515 114.112 298.147 114.069 297.806 113.984C297.475 113.899 297.176 113.792 296.91 113.664C296.654 113.536 296.43 113.397 296.238 113.248C296.056 113.099 295.918 112.96 295.822 112.832L297.086 111.648C297.256 111.861 297.496 112.048 297.806 112.208C298.115 112.357 298.472 112.432 298.878 112.432C299.699 112.432 300.11 112.149 300.11 111.584C300.11 111.371 300.019 111.189 299.838 111.04C299.656 110.891 299.342 110.816 298.894 110.816H297.87V109.424H298.67C299.011 109.424 299.278 109.376 299.47 109.28C299.662 109.173 299.758 109.013 299.758 108.8C299.758 108.619 299.662 108.48 299.47 108.384C299.278 108.277 299.027 108.224 298.718 108.224C298.43 108.224 298.147 108.288 297.87 108.416C297.603 108.533 297.374 108.683 297.182 108.864L296.11 107.744C296.227 107.605 296.371 107.467 296.542 107.328C296.723 107.189 296.931 107.067 297.166 106.96C297.4 106.843 297.667 106.747 297.966 106.672C298.264 106.597 298.59 106.56 298.942 106.56C299.358 106.56 299.736 106.608 300.078 106.704C300.419 106.8 300.712 106.933 300.958 107.104C301.203 107.264 301.39 107.467 301.518 107.712C301.656 107.947 301.726 108.208 301.726 108.496C301.726 108.837 301.635 109.136 301.454 109.392C301.272 109.648 301.022 109.851 300.702 110C301.182 110.149 301.539 110.373 301.774 110.672C302.019 110.971 302.142 111.328 302.142 111.744C302.142 112.075 302.067 112.384 301.918 112.672C301.768 112.96 301.555 113.211 301.278 113.424C301 113.637 300.659 113.808 300.254 113.936C299.859 114.053 299.411 114.112 298.91 114.112ZM310.116 106.688H312.1V110.896L315.492 106.688H317.044V114H315.06V109.552L311.476 114H310.116V106.688ZM318.08 112.256H318.96C319.238 111.68 319.446 111.04 319.584 110.336C319.723 109.621 319.792 108.779 319.792 107.808V106.688H325.488V112.256H326.608V115.632H324.992V114H319.712V115.632H318.08V112.256ZM321.568 108.48C321.568 109.963 321.35 111.221 320.912 112.256H323.504V108.432H321.568V108.48ZM331.121 114.112C330.534 114.112 329.995 114.021 329.505 113.84C329.025 113.659 328.609 113.408 328.257 113.088C327.905 112.757 327.633 112.368 327.441 111.92C327.249 111.461 327.153 110.955 327.153 110.4C327.153 109.813 327.254 109.285 327.457 108.816C327.659 108.336 327.937 107.931 328.289 107.6C328.641 107.269 329.051 107.013 329.521 106.832C329.99 106.651 330.491 106.56 331.025 106.56C331.601 106.56 332.113 106.661 332.561 106.864C333.019 107.056 333.403 107.328 333.713 107.68C334.022 108.021 334.257 108.427 334.417 108.896C334.587 109.355 334.673 109.851 334.673 110.384V110.8H329.073C329.169 111.365 329.409 111.797 329.793 112.096C330.187 112.395 330.683 112.544 331.281 112.544C331.707 112.544 332.102 112.469 332.465 112.32C332.838 112.16 333.147 111.941 333.393 111.664L334.497 112.672C334.123 113.141 333.643 113.499 333.057 113.744C332.47 113.989 331.825 114.112 331.121 114.112ZM330.945 108.16C330.475 108.16 330.081 108.288 329.761 108.544C329.451 108.789 329.238 109.141 329.121 109.6H332.769C332.705 109.195 332.513 108.853 332.193 108.576C331.873 108.299 331.457 108.16 330.945 108.16ZM336.132 106.688H338.116V110.896L341.508 106.688H343.06V114H341.076V109.552L337.492 114H336.132V106.688ZM73.4 130.024H65.928V128.408H73.4V130.024ZM79.4284 125.688H86.3084V133H84.3404V127.432H81.4124V133H79.4284V125.688ZM88.2096 136.84V125.688H90.0816V126.664C90.327 126.355 90.6576 126.093 91.0736 125.88C91.5003 125.667 91.9856 125.56 92.5296 125.56C92.9776 125.56 93.4043 125.651 93.8096 125.832C94.2256 126.013 94.5883 126.269 94.8976 126.6C95.2176 126.931 95.4683 127.331 95.6496 127.8C95.8416 128.259 95.9376 128.771 95.9376 129.336C95.9376 129.901 95.8416 130.419 95.6496 130.888C95.4576 131.347 95.2016 131.741 94.8816 132.072C94.5723 132.403 94.2096 132.659 93.7936 132.84C93.3883 133.021 92.967 133.112 92.5296 133.112C92.0496 133.112 91.607 133.027 91.2016 132.856C90.7963 132.675 90.4603 132.435 90.1936 132.136V136.84H88.2096ZM92.0016 127.304C91.4576 127.304 91.0256 127.48 90.7056 127.832C90.3856 128.173 90.215 128.616 90.1936 129.16V129.368C90.2043 129.976 90.3696 130.472 90.6896 130.856C91.0203 131.229 91.4576 131.416 92.0016 131.416C92.535 131.416 92.9723 131.229 93.3136 130.856C93.6656 130.483 93.8416 129.976 93.8416 129.336C93.8416 129.005 93.7883 128.712 93.6816 128.456C93.5856 128.2 93.4523 127.987 93.2816 127.816C93.1216 127.645 92.9296 127.517 92.7056 127.432C92.4816 127.347 92.247 127.304 92.0016 127.304ZM100.917 133.112C100.341 133.112 99.8078 133.021 99.3171 132.84C98.8371 132.659 98.4211 132.403 98.0691 132.072C97.7278 131.731 97.4558 131.331 97.2531 130.872C97.0611 130.413 96.9651 129.901 96.9651 129.336C96.9651 128.771 97.0611 128.259 97.2531 127.8C97.4558 127.331 97.7331 126.931 98.0851 126.6C98.4371 126.269 98.8531 126.013 99.3331 125.832C99.8238 125.651 100.352 125.56 100.917 125.56C101.493 125.56 102.021 125.651 102.501 125.832C102.992 126.013 103.413 126.275 103.765 126.616C104.117 126.947 104.389 127.347 104.581 127.816C104.773 128.275 104.869 128.781 104.869 129.336C104.869 129.912 104.768 130.435 104.565 130.904C104.362 131.363 104.085 131.757 103.733 132.088C103.381 132.408 102.965 132.659 102.485 132.84C102.005 133.021 101.482 133.112 100.917 133.112ZM100.917 131.432C101.504 131.432 101.962 131.235 102.293 130.84C102.624 130.445 102.789 129.944 102.789 129.336C102.789 128.728 102.629 128.232 102.309 127.848C101.989 127.453 101.525 127.256 100.917 127.256C100.32 127.256 99.8558 127.453 99.5251 127.848C99.1945 128.243 99.0291 128.739 99.0291 129.336C99.0291 129.624 99.0718 129.896 99.1571 130.152C99.2425 130.408 99.3651 130.632 99.5251 130.824C99.6851 131.016 99.8825 131.165 100.117 131.272C100.352 131.379 100.618 131.432 100.917 131.432ZM109.711 133.112C109.125 133.112 108.597 133.021 108.127 132.84C107.658 132.659 107.253 132.408 106.911 132.088C106.581 131.757 106.325 131.363 106.143 130.904C105.962 130.445 105.871 129.933 105.871 129.368C105.871 128.771 105.967 128.237 106.159 127.768C106.362 127.288 106.634 126.888 106.975 126.568C107.317 126.237 107.722 125.987 108.191 125.816C108.661 125.645 109.167 125.56 109.711 125.56C110.33 125.56 110.89 125.667 111.391 125.88C111.903 126.093 112.303 126.36 112.591 126.68L111.567 128.024C111.354 127.789 111.103 127.603 110.815 127.464C110.538 127.325 110.223 127.256 109.871 127.256C109.274 127.256 108.799 127.448 108.447 127.832C108.106 128.216 107.935 128.707 107.935 129.304C107.935 129.923 108.111 130.435 108.463 130.84C108.826 131.235 109.311 131.432 109.919 131.432C110.271 131.432 110.586 131.363 110.863 131.224C111.141 131.075 111.386 130.883 111.599 130.648L112.767 131.8C112.447 132.216 112.021 132.541 111.487 132.776C110.965 133 110.373 133.112 109.711 133.112ZM115.64 127.432H113.288V125.688H119.96V127.432H117.608V133H115.64V127.432ZM124.417 133.112C123.841 133.112 123.308 133.021 122.817 132.84C122.337 132.659 121.921 132.403 121.569 132.072C121.228 131.731 120.956 131.331 120.753 130.872C120.561 130.413 120.465 129.901 120.465 129.336C120.465 128.771 120.561 128.259 120.753 127.8C120.956 127.331 121.233 126.931 121.585 126.6C121.937 126.269 122.353 126.013 122.833 125.832C123.324 125.651 123.852 125.56 124.417 125.56C124.993 125.56 125.521 125.651 126.001 125.832C126.492 126.013 126.913 126.275 127.265 126.616C127.617 126.947 127.889 127.347 128.081 127.816C128.273 128.275 128.369 128.781 128.369 129.336C128.369 129.912 128.268 130.435 128.065 130.904C127.862 131.363 127.585 131.757 127.233 132.088C126.881 132.408 126.465 132.659 125.985 132.84C125.505 133.021 124.982 133.112 124.417 133.112ZM124.417 131.432C125.004 131.432 125.462 131.235 125.793 130.84C126.124 130.445 126.289 129.944 126.289 129.336C126.289 128.728 126.129 128.232 125.809 127.848C125.489 127.453 125.025 127.256 124.417 127.256C123.82 127.256 123.356 127.453 123.025 127.848C122.694 128.243 122.529 128.739 122.529 129.336C122.529 129.624 122.572 129.896 122.657 130.152C122.742 130.408 122.865 130.632 123.025 130.824C123.185 131.016 123.382 131.165 123.617 131.272C123.852 131.379 124.118 131.432 124.417 131.432ZM133.96 136.84V125.688H135.832V126.664C136.077 126.355 136.408 126.093 136.824 125.88C137.25 125.667 137.736 125.56 138.28 125.56C138.728 125.56 139.154 125.651 139.56 125.832C139.976 126.013 140.338 126.269 140.648 126.6C140.968 126.931 141.218 127.331 141.4 127.8C141.592 128.259 141.688 128.771 141.688 129.336C141.688 129.901 141.592 130.419 141.4 130.888C141.208 131.347 140.952 131.741 140.632 132.072C140.322 132.403 139.96 132.659 139.544 132.84C139.138 133.021 138.717 133.112 138.28 133.112C137.8 133.112 137.357 133.027 136.952 132.856C136.546 132.675 136.21 132.435 135.944 132.136V136.84H133.96ZM137.752 127.304C137.208 127.304 136.776 127.48 136.456 127.832C136.136 128.173 135.965 128.616 135.944 129.16V129.368C135.954 129.976 136.12 130.472 136.44 130.856C136.77 131.229 137.208 131.416 137.752 131.416C138.285 131.416 138.722 131.229 139.064 130.856C139.416 130.483 139.592 129.976 139.592 129.336C139.592 129.005 139.538 128.712 139.432 128.456C139.336 128.2 139.202 127.987 139.032 127.816C138.872 127.645 138.68 127.517 138.456 127.432C138.232 127.347 137.997 127.304 137.752 127.304ZM146.683 133.112C146.096 133.112 145.558 133.021 145.067 132.84C144.587 132.659 144.171 132.408 143.819 132.088C143.467 131.757 143.195 131.368 143.003 130.92C142.811 130.461 142.715 129.955 142.715 129.4C142.715 128.813 142.816 128.285 143.019 127.816C143.222 127.336 143.499 126.931 143.851 126.6C144.203 126.269 144.614 126.013 145.083 125.832C145.552 125.651 146.054 125.56 146.587 125.56C147.163 125.56 147.675 125.661 148.123 125.864C148.582 126.056 148.966 126.328 149.275 126.68C149.584 127.021 149.819 127.427 149.979 127.896C150.15 128.355 150.235 128.851 150.235 129.384V129.8H144.635C144.731 130.365 144.971 130.797 145.355 131.096C145.75 131.395 146.246 131.544 146.843 131.544C147.27 131.544 147.664 131.469 148.027 131.32C148.4 131.16 148.71 130.941 148.955 130.664L150.059 131.672C149.686 132.141 149.206 132.499 148.619 132.744C148.032 132.989 147.387 133.112 146.683 133.112ZM146.507 127.16C146.038 127.16 145.643 127.288 145.323 127.544C145.014 127.789 144.8 128.141 144.683 128.6H148.331C148.267 128.195 148.075 127.853 147.755 127.576C147.435 127.299 147.019 127.16 146.507 127.16ZM152.336 125.688H154.032L155.968 129.928L157.792 125.688H159.536L160.752 133H158.896L158.192 128.728L156.304 133H155.456L153.552 128.808L152.864 133H151.104L152.336 125.688ZM165.543 133.112C164.956 133.112 164.417 133.021 163.927 132.84C163.447 132.659 163.031 132.408 162.679 132.088C162.327 131.757 162.055 131.368 161.863 130.92C161.671 130.461 161.575 129.955 161.575 129.4C161.575 128.813 161.676 128.285 161.879 127.816C162.081 127.336 162.359 126.931 162.711 126.6C163.063 126.269 163.473 126.013 163.943 125.832C164.412 125.651 164.913 125.56 165.447 125.56C166.023 125.56 166.535 125.661 166.983 125.864C167.441 126.056 167.825 126.328 168.135 126.68C168.444 127.021 168.679 127.427 168.839 127.896C169.009 128.355 169.095 128.851 169.095 129.384V129.8H163.495C163.591 130.365 163.831 130.797 164.215 131.096C164.609 131.395 165.105 131.544 165.703 131.544C166.129 131.544 166.524 131.469 166.887 131.32C167.26 131.16 167.569 130.941 167.815 130.664L168.919 131.672C168.545 132.141 168.065 132.499 167.479 132.744C166.892 132.989 166.247 133.112 165.543 133.112ZM165.367 127.16C164.897 127.16 164.503 127.288 164.183 127.544C163.873 127.789 163.66 128.141 163.543 128.6H167.191C167.127 128.195 166.935 127.853 166.615 127.576C166.295 127.299 165.879 127.16 165.367 127.16ZM173.961 133.112C173.375 133.112 172.847 133.021 172.377 132.84C171.908 132.659 171.503 132.408 171.161 132.088C170.831 131.757 170.575 131.363 170.393 130.904C170.212 130.445 170.121 129.933 170.121 129.368C170.121 128.771 170.217 128.237 170.409 127.768C170.612 127.288 170.884 126.888 171.225 126.568C171.567 126.237 171.972 125.987 172.441 125.816C172.911 125.645 173.417 125.56 173.961 125.56C174.58 125.56 175.14 125.667 175.641 125.88C176.153 126.093 176.553 126.36 176.841 126.68L175.817 128.024C175.604 127.789 175.353 127.603 175.065 127.464C174.788 127.325 174.473 127.256 174.121 127.256C173.524 127.256 173.049 127.448 172.697 127.832C172.356 128.216 172.185 128.707 172.185 129.304C172.185 129.923 172.361 130.435 172.713 130.84C173.076 131.235 173.561 131.432 174.169 131.432C174.521 131.432 174.836 131.363 175.113 131.224C175.391 131.075 175.636 130.883 175.849 130.648L177.017 131.8C176.697 132.216 176.271 132.541 175.737 132.776C175.215 133 174.623 133.112 173.961 133.112ZM177.97 133.16C177.852 133.16 177.746 133.155 177.65 133.144C177.564 133.133 177.49 133.123 177.426 133.112V131.208C177.532 131.229 177.618 131.24 177.682 131.24C177.863 131.24 178.018 131.176 178.146 131.048C178.274 130.909 178.375 130.691 178.45 130.392C178.535 130.083 178.594 129.683 178.626 129.192C178.668 128.701 178.69 128.104 178.69 127.4V125.688H184.242V133H182.274V127.432H180.514V128.296C180.514 129.213 180.455 129.981 180.338 130.6C180.231 131.219 180.066 131.72 179.842 132.104C179.628 132.477 179.362 132.749 179.042 132.92C178.732 133.08 178.375 133.16 177.97 133.16ZM189.683 133.112C189.096 133.112 188.558 133.021 188.067 132.84C187.587 132.659 187.171 132.408 186.819 132.088C186.467 131.757 186.195 131.368 186.003 130.92C185.811 130.461 185.715 129.955 185.715 129.4C185.715 128.813 185.816 128.285 186.019 127.816C186.222 127.336 186.499 126.931 186.851 126.6C187.203 126.269 187.614 126.013 188.083 125.832C188.552 125.651 189.054 125.56 189.587 125.56C190.163 125.56 190.675 125.661 191.123 125.864C191.582 126.056 191.966 126.328 192.275 126.68C192.584 127.021 192.819 127.427 192.979 127.896C193.15 128.355 193.235 128.851 193.235 129.384V129.8H187.635C187.731 130.365 187.971 130.797 188.355 131.096C188.75 131.395 189.246 131.544 189.843 131.544C190.27 131.544 190.664 131.469 191.027 131.32C191.4 131.16 191.71 130.941 191.955 130.664L193.059 131.672C192.686 132.141 192.206 132.499 191.619 132.744C191.032 132.989 190.387 133.112 189.683 133.112ZM189.507 127.16C189.038 127.16 188.643 127.288 188.323 127.544C188.014 127.789 187.8 128.141 187.683 128.6H191.331C191.267 128.195 191.075 127.853 190.755 127.576C190.435 127.299 190.019 127.16 189.507 127.16ZM199.718 130.12H196.678V133H194.694V125.688H196.678V128.376H199.718V125.688H201.702V133H199.718V130.12ZM208.609 130.12H205.569V133H203.585V125.688H205.569V128.376H208.609V125.688H210.593V133H208.609V130.12ZM212.475 125.688H214.459V129.896L217.851 125.688H219.403V133H217.419V128.552L213.835 133H212.475V125.688ZM221.288 125.688H223.272V128.376H224.04L225.8 125.688H227.864V125.96L225.688 129.016L228.408 132.728V133H226.2L223.992 129.88H223.272V133H221.288V125.688ZM230.423 133.16C230.049 133.16 229.761 133.053 229.559 132.84C229.367 132.616 229.271 132.349 229.271 132.04C229.271 131.709 229.367 131.432 229.559 131.208C229.751 130.984 230.039 130.872 230.423 130.872C230.807 130.872 231.1 130.984 231.303 131.208C231.505 131.432 231.607 131.709 231.607 132.04C231.607 132.349 231.5 132.616 231.287 132.84C231.084 133.053 230.796 133.16 230.423 133.16Z" fill="black"/>
<circle cx="2.15513" cy="2.15513" r="2.15513" transform="matrix(1 0 0 -1 302 16.3103)" fill="black"/>
<circle cx="2.15513" cy="2.15513" r="2.15513" transform="matrix(1 0 0 -1 314.452 16.3103)" fill="black"/>
<circle cx="2.15513" cy="2.15513" r="2.15513" transform="matrix(1 0 0 -1 326.904 16.3103)" fill="black"/>
<circle cx="2.15513" cy="2.15513" r="2.15513" transform="matrix(1 0 0 -1 339.355 16.3103)" fill="black"/>
<defs>
<linearGradient id="paint0_linear_102_6" x1="-2.27124" y1="93.8894" x2="423.299" y2="93.8894" gradientUnits="userSpaceOnUse">
<stop stop-color="white" stop-opacity="0.64"/>
<stop offset="0.325" stop-color="#2736C1" stop-opacity="0.72"/>
<stop offset="1" stop-color="#091FEA"/>
</linearGradient>
</defs>
</svg>
