<svg width="1622" height="150" viewBox="0 0 1622 150" fill="none" xmlns="http://www.w3.org/2000/svg">
<path d="M215.408 64.5475C223.587 61.8324 229.107 54.1838 229.107 45.5661V20C229.107 8.95429 238.061 0 249.107 0H1602C1613.05 0 1622 8.95431 1622 20V60V130C1622 141.046 1613.05 150 1602 150L81.725 150C59.0228 150 53.8777 118.171 75.4237 111.019L215.408 64.5475Z" fill="url(#paint0_linear_50_19)" fill-opacity="0.76"/>
<circle cx="1515.5" cy="126.5" r="4.5" fill="black"/>
<circle cx="1541.5" cy="126.5" r="4.5" fill="black"/>
<circle cx="1567.5" cy="126.5" r="4.5" fill="black"/>
<circle cx="1593.5" cy="126.5" r="4.5" fill="black"/>
<path d="M277.57 40.7H268.48V50H264.46V29H268.48V37.22H277.57V29H281.59V50H277.57V40.7ZM291.235 50.21C290.415 50.21 289.615 50.04 288.835 49.7C288.075 49.36 287.395 48.88 286.795 48.26C286.215 47.64 285.745 46.9 285.385 46.04C285.025 45.16 284.845 44.19 284.845 43.13C284.845 42.07 285.015 41.11 285.355 40.25C285.715 39.37 286.185 38.62 286.765 38C287.365 37.38 288.045 36.9 288.805 36.56C289.585 36.22 290.395 36.05 291.235 36.05C292.255 36.05 293.155 36.25 293.935 36.65C294.735 37.05 295.365 37.54 295.825 38.12V36.29H299.335V50H295.825V48.14C295.325 48.76 294.675 49.26 293.875 49.64C293.075 50.02 292.195 50.21 291.235 50.21ZM292.225 47.03C293.245 47.03 294.055 46.68 294.655 45.98C295.275 45.26 295.595 44.33 295.615 43.19V42.95C295.615 41.89 295.305 41.02 294.685 40.34C294.065 39.66 293.245 39.32 292.225 39.32C291.765 39.32 291.325 39.4 290.905 39.56C290.485 39.72 290.115 39.96 289.795 40.28C289.475 40.6 289.225 41 289.045 41.48C288.865 41.96 288.775 42.51 288.775 43.13C288.775 44.33 289.095 45.28 289.735 45.98C290.395 46.68 291.225 47.03 292.225 47.03ZM321.849 50.21C320.749 50.21 319.759 50.04 318.879 49.7C317.999 49.36 317.239 48.89 316.599 48.29C315.979 47.67 315.499 46.93 315.159 46.07C314.819 45.21 314.649 44.25 314.649 43.19C314.649 42.07 314.829 41.07 315.189 40.19C315.569 39.29 316.079 38.54 316.719 37.94C317.359 37.32 318.119 36.85 318.999 36.53C319.879 36.21 320.829 36.05 321.849 36.05C323.009 36.05 324.059 36.25 324.999 36.65C325.959 37.05 326.709 37.55 327.249 38.15L325.329 40.67C324.929 40.23 324.459 39.88 323.919 39.62C323.399 39.36 322.809 39.23 322.149 39.23C321.029 39.23 320.139 39.59 319.479 40.31C318.839 41.03 318.519 41.95 318.519 43.07C318.519 44.23 318.849 45.19 319.509 45.95C320.189 46.69 321.099 47.06 322.239 47.06C322.899 47.06 323.489 46.93 324.009 46.67C324.529 46.39 324.989 46.03 325.389 45.59L327.579 47.75C326.979 48.53 326.179 49.14 325.179 49.58C324.199 50 323.089 50.21 321.849 50.21ZM335.248 50.21C334.428 50.21 333.628 50.04 332.848 49.7C332.088 49.36 331.408 48.88 330.808 48.26C330.228 47.64 329.758 46.9 329.398 46.04C329.038 45.16 328.858 44.19 328.858 43.13C328.858 42.07 329.028 41.11 329.368 40.25C329.728 39.37 330.198 38.62 330.778 38C331.378 37.38 332.058 36.9 332.818 36.56C333.598 36.22 334.408 36.05 335.248 36.05C336.268 36.05 337.168 36.25 337.948 36.65C338.748 37.05 339.378 37.54 339.838 38.12V36.29H343.348V50H339.838V48.14C339.338 48.76 338.688 49.26 337.888 49.64C337.088 50.02 336.208 50.21 335.248 50.21ZM336.238 47.03C337.258 47.03 338.068 46.68 338.668 45.98C339.288 45.26 339.608 44.33 339.628 43.19V42.95C339.628 41.89 339.318 41.02 338.698 40.34C338.078 39.66 337.258 39.32 336.238 39.32C335.778 39.32 335.338 39.4 334.918 39.56C334.498 39.72 334.128 39.96 333.808 40.28C333.488 40.6 333.238 41 333.058 41.48C332.878 41.96 332.788 42.51 332.788 43.13C332.788 44.33 333.108 45.28 333.748 45.98C334.408 46.68 335.238 47.03 336.238 47.03ZM348.245 36.29H351.425L355.055 44.24L358.475 36.29H361.745L364.025 50H360.545L359.225 41.99L355.685 50H354.095L350.525 42.14L349.235 50H345.935L348.245 36.29ZM372.977 50.21C371.897 50.21 370.897 50.04 369.977 49.7C369.077 49.36 368.297 48.88 367.637 48.26C366.997 47.62 366.487 46.87 366.107 46.01C365.747 45.15 365.567 44.19 365.567 43.13C365.567 42.07 365.747 41.11 366.107 40.25C366.487 39.37 367.007 38.62 367.667 38C368.327 37.38 369.107 36.9 370.007 36.56C370.927 36.22 371.917 36.05 372.977 36.05C374.057 36.05 375.047 36.22 375.947 36.56C376.867 36.9 377.657 37.39 378.317 38.03C378.977 38.65 379.487 39.4 379.847 40.28C380.207 41.14 380.387 42.09 380.387 43.13C380.387 44.21 380.197 45.19 379.817 46.07C379.437 46.93 378.917 47.67 378.257 48.29C377.597 48.89 376.817 49.36 375.917 49.7C375.017 50.04 374.037 50.21 372.977 50.21ZM372.977 47.06C374.077 47.06 374.937 46.69 375.557 45.95C376.177 45.21 376.487 44.27 376.487 43.13C376.487 41.99 376.187 41.06 375.587 40.34C374.987 39.6 374.117 39.23 372.977 39.23C371.857 39.23 370.987 39.6 370.367 40.34C369.747 41.08 369.437 42.01 369.437 43.13C369.437 43.67 369.517 44.18 369.677 44.66C369.837 45.14 370.067 45.56 370.367 45.92C370.667 46.28 371.037 46.56 371.477 46.76C371.917 46.96 372.417 47.06 372.977 47.06ZM384.28 36.29H387.46L391.09 44.24L394.51 36.29H397.78L400.06 50H396.58L395.26 41.99L391.72 50H390.13L386.56 42.14L385.27 50H381.97L384.28 36.29ZM413.605 46.73H415.255C415.775 45.65 416.165 44.45 416.425 43.13C416.685 41.79 416.815 40.21 416.815 38.39V36.29H427.495V46.73H429.595V53.06H426.565V50H416.665V53.06H413.605V46.73ZM420.145 39.65C420.145 42.43 419.735 44.79 418.915 46.73H423.775V39.56H420.145V39.65ZM438.056 50.21C436.956 50.21 435.946 50.04 435.026 49.7C434.126 49.36 433.346 48.89 432.686 48.29C432.026 47.67 431.516 46.94 431.156 46.1C430.796 45.24 430.616 44.29 430.616 43.25C430.616 42.15 430.806 41.16 431.186 40.28C431.566 39.38 432.086 38.62 432.746 38C433.406 37.38 434.176 36.9 435.056 36.56C435.936 36.22 436.876 36.05 437.876 36.05C438.956 36.05 439.916 36.24 440.756 36.62C441.616 36.98 442.336 37.49 442.916 38.15C443.496 38.79 443.936 39.55 444.236 40.43C444.556 41.29 444.716 42.22 444.716 43.22V44H434.216C434.396 45.06 434.846 45.87 435.566 46.43C436.306 46.99 437.236 47.27 438.356 47.27C439.156 47.27 439.896 47.13 440.576 46.85C441.276 46.55 441.856 46.14 442.316 45.62L444.386 47.51C443.686 48.39 442.786 49.06 441.686 49.52C440.586 49.98 439.376 50.21 438.056 50.21ZM437.726 39.05C436.846 39.05 436.106 39.29 435.506 39.77C434.926 40.23 434.526 40.89 434.306 41.75H441.146C441.026 40.99 440.666 40.35 440.066 39.83C439.466 39.31 438.686 39.05 437.726 39.05ZM446.854 50.3C446.634 50.3 446.434 50.29 446.254 50.27C446.094 50.25 445.954 50.23 445.834 50.21V46.64C446.034 46.68 446.194 46.7 446.314 46.7C446.654 46.7 446.944 46.58 447.184 46.34C447.424 46.08 447.614 45.67 447.754 45.11C447.914 44.53 448.024 43.78 448.084 42.86C448.164 41.94 448.204 40.82 448.204 39.5V36.29H458.614V50H454.924V39.56H451.624V41.18C451.624 42.9 451.514 44.34 451.294 45.5C451.094 46.66 450.784 47.6 450.364 48.32C449.964 49.02 449.464 49.53 448.864 49.85C448.284 50.15 447.614 50.3 446.854 50.3ZM468.817 50.21C467.717 50.21 466.707 50.04 465.787 49.7C464.887 49.36 464.107 48.89 463.447 48.29C462.787 47.67 462.277 46.94 461.917 46.1C461.557 45.24 461.377 44.29 461.377 43.25C461.377 42.15 461.567 41.16 461.947 40.28C462.327 39.38 462.847 38.62 463.507 38C464.167 37.38 464.937 36.9 465.817 36.56C466.697 36.22 467.637 36.05 468.637 36.05C469.717 36.05 470.677 36.24 471.517 36.62C472.377 36.98 473.097 37.49 473.677 38.15C474.257 38.79 474.697 39.55 474.997 40.43C475.317 41.29 475.477 42.22 475.477 43.22V44H464.977C465.157 45.06 465.607 45.87 466.327 46.43C467.067 46.99 467.997 47.27 469.117 47.27C469.917 47.27 470.657 47.13 471.337 46.85C472.037 46.55 472.617 46.14 473.077 45.62L475.147 47.51C474.447 48.39 473.547 49.06 472.447 49.52C471.347 49.98 470.137 50.21 468.817 50.21ZM468.487 39.05C467.607 39.05 466.867 39.29 466.267 39.77C465.687 40.23 465.287 40.89 465.067 41.75H471.907C471.787 40.99 471.427 40.35 470.827 39.83C470.227 39.31 469.447 39.05 468.487 39.05ZM478.917 50.15C478.317 50.05 477.857 49.82 477.537 49.46C477.237 49.08 477.087 48.63 477.087 48.11C477.087 47.45 477.297 46.93 477.717 46.55C478.157 46.15 478.677 45.95 479.277 45.95C479.917 45.95 480.467 46.16 480.927 46.58C481.407 47 481.647 47.6 481.647 48.38C481.647 48.9 481.507 49.48 481.227 50.12C480.947 50.76 480.517 51.59 479.937 52.61L478.737 54.8H476.337L478.917 50.15ZM500.796 39.56H496.386V36.29H508.896V39.56H504.486V50H500.796V39.56ZM516.234 50.21C515.414 50.21 514.614 50.04 513.834 49.7C513.074 49.36 512.394 48.88 511.794 48.26C511.214 47.64 510.744 46.9 510.384 46.04C510.024 45.16 509.844 44.19 509.844 43.13C509.844 42.07 510.014 41.11 510.354 40.25C510.714 39.37 511.184 38.62 511.764 38C512.364 37.38 513.044 36.9 513.804 36.56C514.584 36.22 515.394 36.05 516.234 36.05C517.254 36.05 518.154 36.25 518.934 36.65C519.734 37.05 520.364 37.54 520.824 38.12V36.29H524.334V50H520.824V48.14C520.324 48.76 519.674 49.26 518.874 49.64C518.074 50.02 517.194 50.21 516.234 50.21ZM517.224 47.03C518.244 47.03 519.054 46.68 519.654 45.98C520.274 45.26 520.594 44.33 520.614 43.19V42.95C520.614 41.89 520.304 41.02 519.684 40.34C519.064 39.66 518.244 39.32 517.224 39.32C516.764 39.32 516.324 39.4 515.904 39.56C515.484 39.72 515.114 39.96 514.794 40.28C514.474 40.6 514.224 41 514.044 41.48C513.864 41.96 513.774 42.51 513.774 43.13C513.774 44.33 514.094 45.28 514.734 45.98C515.394 46.68 516.224 47.03 517.224 47.03ZM527.88 36.29H531.6V41.33H533.04L536.34 36.29H540.21V36.8L536.13 42.53L541.23 49.49V50H537.09L532.95 44.15H531.6V50H527.88V36.29ZM557.286 56.75L559.596 50.15L553.986 36.98V36.29H557.706L561.336 45.26L564.516 36.29H567.876L567.846 36.98L560.646 57.2H557.286V56.75ZM568.043 49.49L572.003 42.68L568.823 36.8V36.29H572.543L575.153 41.39H576.653V36.29H580.343V41.39H581.813L584.453 36.29H588.053V36.8L584.933 42.62L588.983 49.49V50H585.023L581.753 44.21H580.343V50H576.653V44.21H575.213L571.973 50H568.043V49.49ZM596.834 50.21C595.734 50.21 594.724 50.04 593.804 49.7C592.904 49.36 592.124 48.89 591.464 48.29C590.804 47.67 590.294 46.94 589.934 46.1C589.574 45.24 589.394 44.29 589.394 43.25C589.394 42.15 589.584 41.16 589.964 40.28C590.344 39.38 590.864 38.62 591.524 38C592.184 37.38 592.954 36.9 593.834 36.56C594.714 36.22 595.654 36.05 596.654 36.05C597.734 36.05 598.694 36.24 599.534 36.62C600.394 36.98 601.114 37.49 601.694 38.15C602.274 38.79 602.714 39.55 603.014 40.43C603.334 41.29 603.494 42.22 603.494 43.22V44H592.994C593.174 45.06 593.624 45.87 594.344 46.43C595.084 46.99 596.014 47.27 597.134 47.27C597.934 47.27 598.674 47.13 599.354 46.85C600.054 46.55 600.634 46.14 601.094 45.62L603.164 47.51C602.464 48.39 601.564 49.06 600.464 49.52C599.364 49.98 598.154 50.21 596.834 50.21ZM596.504 39.05C595.624 39.05 594.884 39.29 594.284 39.77C593.704 40.23 593.304 40.89 593.084 41.75H599.924C599.804 40.99 599.444 40.35 598.844 39.83C598.244 39.31 597.464 39.05 596.504 39.05ZM617.217 46.73H618.867C619.387 45.65 619.777 44.45 620.037 43.13C620.297 41.79 620.427 40.21 620.427 38.39V36.29H631.107V46.73H633.207V53.06H630.177V50H620.277V53.06H617.217V46.73ZM623.757 39.65C623.757 42.43 623.347 44.79 622.527 46.73H627.387V39.56H623.757V39.65ZM640.618 50.21C639.798 50.21 638.998 50.04 638.218 49.7C637.458 49.36 636.778 48.88 636.178 48.26C635.598 47.64 635.128 46.9 634.768 46.04C634.408 45.16 634.228 44.19 634.228 43.13C634.228 42.07 634.398 41.11 634.738 40.25C635.098 39.37 635.568 38.62 636.148 38C636.748 37.38 637.428 36.9 638.188 36.56C638.968 36.22 639.778 36.05 640.618 36.05C641.638 36.05 642.538 36.25 643.318 36.65C644.118 37.05 644.748 37.54 645.208 38.12V36.29H648.718V50H645.208V48.14C644.708 48.76 644.058 49.26 643.258 49.64C642.458 50.02 641.578 50.21 640.618 50.21ZM641.608 47.03C642.628 47.03 643.438 46.68 644.038 45.98C644.658 45.26 644.978 44.33 644.998 43.19V42.95C644.998 41.89 644.688 41.02 644.068 40.34C643.448 39.66 642.628 39.32 641.608 39.32C641.148 39.32 640.708 39.4 640.288 39.56C639.868 39.72 639.498 39.96 639.178 40.28C638.858 40.6 638.608 41 638.428 41.48C638.248 41.96 638.158 42.51 638.158 43.13C638.158 44.33 638.478 45.28 639.118 45.98C639.778 46.68 640.608 47.03 641.608 47.03ZM652.264 36.29H659.674C661.094 36.29 662.164 36.6 662.884 37.22C663.604 37.82 663.964 38.61 663.964 39.59C663.964 40.33 663.784 40.94 663.424 41.42C663.064 41.9 662.594 42.24 662.014 42.44C662.994 42.58 663.794 42.92 664.414 43.46C665.034 44 665.344 44.81 665.344 45.89C665.344 47.21 664.854 48.23 663.874 48.95C662.914 49.65 661.504 50 659.644 50H652.264V36.29ZM655.984 43.82V47.27H658.834C659.774 47.27 660.444 47.13 660.844 46.85C661.244 46.55 661.444 46.11 661.444 45.53C661.444 44.93 661.234 44.5 660.814 44.24C660.394 43.96 659.764 43.82 658.924 43.82H655.984ZM655.984 39.02V41.66H658.564C659.844 41.66 660.484 41.21 660.484 40.31C660.484 39.45 659.834 39.02 658.534 39.02H655.984ZM677.094 44.6H671.394V50H667.674V36.29H671.394V41.33H677.094V36.29H680.814V50H677.094V44.6ZM690.944 50.21C689.864 50.21 688.864 50.04 687.944 49.7C687.044 49.36 686.264 48.88 685.604 48.26C684.964 47.62 684.454 46.87 684.074 46.01C683.714 45.15 683.534 44.19 683.534 43.13C683.534 42.07 683.714 41.11 684.074 40.25C684.454 39.37 684.974 38.62 685.634 38C686.294 37.38 687.074 36.9 687.974 36.56C688.894 36.22 689.884 36.05 690.944 36.05C692.024 36.05 693.014 36.22 693.914 36.56C694.834 36.9 695.624 37.39 696.284 38.03C696.944 38.65 697.454 39.4 697.814 40.28C698.174 41.14 698.354 42.09 698.354 43.13C698.354 44.21 698.164 45.19 697.784 46.07C697.404 46.93 696.884 47.67 696.224 48.29C695.564 48.89 694.784 49.36 693.884 49.7C692.984 50.04 692.004 50.21 690.944 50.21ZM690.944 47.06C692.044 47.06 692.904 46.69 693.524 45.95C694.144 45.21 694.454 44.27 694.454 43.13C694.454 41.99 694.154 41.06 693.554 40.34C692.954 39.6 692.084 39.23 690.944 39.23C689.824 39.23 688.954 39.6 688.334 40.34C687.714 41.08 687.404 42.01 687.404 43.13C687.404 43.67 687.484 44.18 687.644 44.66C687.804 45.14 688.034 45.56 688.334 45.92C688.634 46.28 689.004 46.56 689.444 46.76C689.884 46.96 690.384 47.06 690.944 47.06ZM701.748 50.15C701.148 50.05 700.688 49.82 700.368 49.46C700.068 49.08 699.918 48.63 699.918 48.11C699.918 47.45 700.128 46.93 700.548 46.55C700.988 46.15 701.508 45.95 702.108 45.95C702.748 45.95 703.298 46.16 703.758 46.58C704.238 47 704.478 47.6 704.478 48.38C704.478 48.9 704.338 49.48 704.058 50.12C703.778 50.76 703.348 51.59 702.768 52.61L701.568 54.8H699.168L701.748 50.15ZM720.477 36.29H727.887C729.307 36.29 730.377 36.6 731.097 37.22C731.817 37.82 732.177 38.61 732.177 39.59C732.177 40.33 731.997 40.94 731.637 41.42C731.277 41.9 730.807 42.24 730.227 42.44C731.207 42.58 732.007 42.92 732.627 43.46C733.247 44 733.557 44.81 733.557 45.89C733.557 47.21 733.067 48.23 732.087 48.95C731.127 49.65 729.717 50 727.857 50H720.477V36.29ZM724.197 43.82V47.27H727.047C727.987 47.27 728.657 47.13 729.057 46.85C729.457 46.55 729.657 46.11 729.657 45.53C729.657 44.93 729.447 44.5 729.027 44.24C728.607 43.96 727.977 43.82 727.137 43.82H724.197ZM724.197 39.02V41.66H726.777C728.057 41.66 728.697 41.21 728.697 40.31C728.697 39.45 728.047 39.02 726.747 39.02H724.197ZM742.517 50.21C741.417 50.21 740.407 50.04 739.487 49.7C738.587 49.36 737.807 48.89 737.147 48.29C736.487 47.67 735.977 46.94 735.617 46.1C735.257 45.24 735.077 44.29 735.077 43.25C735.077 42.15 735.267 41.16 735.647 40.28C736.027 39.38 736.547 38.62 737.207 38C737.867 37.38 738.637 36.9 739.517 36.56C740.397 36.22 741.337 36.05 742.337 36.05C743.417 36.05 744.377 36.24 745.217 36.62C746.077 36.98 746.797 37.49 747.377 38.15C747.957 38.79 748.397 39.55 748.697 40.43C749.017 41.29 749.177 42.22 749.177 43.22V44H738.677C738.857 45.06 739.307 45.87 740.027 46.43C740.767 46.99 741.697 47.27 742.817 47.27C743.617 47.27 744.357 47.13 745.037 46.85C745.737 46.55 746.317 46.14 746.777 45.62L748.847 47.51C748.147 48.39 747.247 49.06 746.147 49.52C745.047 49.98 743.837 50.21 742.517 50.21ZM742.187 39.05C741.307 39.05 740.567 39.29 739.967 39.77C739.387 40.23 738.987 40.89 738.767 41.75H745.607C745.487 40.99 745.127 40.35 744.527 39.83C743.927 39.31 743.147 39.05 742.187 39.05ZM750.029 46.73H751.679C752.199 45.65 752.589 44.45 752.849 43.13C753.109 41.79 753.239 40.21 753.239 38.39V36.29H763.919V46.73H766.019V53.06H762.989V50H753.089V53.06H750.029V46.73ZM756.569 39.65C756.569 42.43 756.159 44.79 755.339 46.73H760.199V39.56H756.569V39.65ZM768.143 36.29H771.863V40.25H774.293C776.233 40.25 777.703 40.65 778.703 41.45C779.723 42.25 780.233 43.46 780.233 45.08C780.233 46.7 779.703 47.93 778.643 48.77C777.603 49.59 776.053 50 773.993 50H768.143V36.29ZM773.633 47.09C774.533 47.09 775.223 46.96 775.703 46.7C776.183 46.42 776.423 45.88 776.423 45.08C776.423 44.34 776.203 43.83 775.763 43.55C775.323 43.27 774.653 43.13 773.753 43.13H771.863V47.09H773.633ZM800.773 50.21C799.953 50.21 799.153 50.04 798.373 49.7C797.613 49.36 796.933 48.88 796.333 48.26C795.753 47.64 795.283 46.9 794.923 46.04C794.563 45.16 794.383 44.19 794.383 43.13C794.383 42.07 794.553 41.11 794.893 40.25C795.253 39.37 795.723 38.62 796.303 38C796.903 37.38 797.583 36.9 798.343 36.56C799.123 36.22 799.933 36.05 800.773 36.05C801.793 36.05 802.693 36.25 803.473 36.65C804.273 37.05 804.903 37.54 805.363 38.12V36.29H808.873V50H805.363V48.14C804.863 48.76 804.213 49.26 803.413 49.64C802.613 50.02 801.733 50.21 800.773 50.21ZM801.763 47.03C802.783 47.03 803.593 46.68 804.193 45.98C804.813 45.26 805.133 44.33 805.153 43.19V42.95C805.153 41.89 804.843 41.02 804.223 40.34C803.603 39.66 802.783 39.32 801.763 39.32C801.303 39.32 800.863 39.4 800.443 39.56C800.023 39.72 799.653 39.96 799.333 40.28C799.013 40.6 798.763 41 798.583 41.48C798.403 41.96 798.313 42.51 798.313 43.13C798.313 44.33 798.633 45.28 799.273 45.98C799.933 46.68 800.763 47.03 801.763 47.03ZM812.42 36.29H819.83C821.25 36.29 822.32 36.6 823.04 37.22C823.76 37.82 824.12 38.61 824.12 39.59C824.12 40.33 823.94 40.94 823.58 41.42C823.22 41.9 822.75 42.24 822.17 42.44C823.15 42.58 823.95 42.92 824.57 43.46C825.19 44 825.5 44.81 825.5 45.89C825.5 47.21 825.01 48.23 824.03 48.95C823.07 49.65 821.66 50 819.8 50H812.42V36.29ZM816.14 43.82V47.27H818.99C819.93 47.27 820.6 47.13 821 46.85C821.4 46.55 821.6 46.11 821.6 45.53C821.6 44.93 821.39 44.5 820.97 44.24C820.55 43.96 819.92 43.82 819.08 43.82H816.14ZM816.14 39.02V41.66H818.72C820 41.66 820.64 41.21 820.64 40.31C820.64 39.45 819.99 39.02 818.69 39.02H816.14ZM830.775 39.56H826.365V36.29H838.875V39.56H834.465V50H830.775V39.56ZM847.233 50.21C846.153 50.21 845.153 50.04 844.233 49.7C843.333 49.36 842.553 48.88 841.893 48.26C841.253 47.62 840.743 46.87 840.363 46.01C840.003 45.15 839.823 44.19 839.823 43.13C839.823 42.07 840.003 41.11 840.363 40.25C840.743 39.37 841.263 38.62 841.923 38C842.583 37.38 843.363 36.9 844.263 36.56C845.183 36.22 846.173 36.05 847.233 36.05C848.313 36.05 849.303 36.22 850.203 36.56C851.123 36.9 851.913 37.39 852.573 38.03C853.233 38.65 853.743 39.4 854.103 40.28C854.463 41.14 854.643 42.09 854.643 43.13C854.643 44.21 854.453 45.19 854.073 46.07C853.693 46.93 853.173 47.67 852.513 48.29C851.853 48.89 851.073 49.36 850.173 49.7C849.273 50.04 848.293 50.21 847.233 50.21ZM847.233 47.06C848.333 47.06 849.193 46.69 849.813 45.95C850.433 45.21 850.743 44.27 850.743 43.13C850.743 41.99 850.443 41.06 849.843 40.34C849.243 39.6 848.373 39.23 847.233 39.23C846.113 39.23 845.243 39.6 844.623 40.34C844.003 41.08 843.693 42.01 843.693 43.13C843.693 43.67 843.773 44.18 843.933 44.66C844.093 45.14 844.323 45.56 844.623 45.92C844.923 46.28 845.293 46.56 845.733 46.76C846.173 46.96 846.673 47.06 847.233 47.06ZM857.332 57.2V36.29H860.842V38.12C861.302 37.54 861.922 37.05 862.702 36.65C863.502 36.25 864.412 36.05 865.432 36.05C866.272 36.05 867.072 36.22 867.832 36.56C868.612 36.9 869.292 37.38 869.872 38C870.472 38.62 870.942 39.37 871.282 40.25C871.642 41.11 871.822 42.07 871.822 43.13C871.822 44.19 871.642 45.16 871.282 46.04C870.922 46.9 870.442 47.64 869.842 48.26C869.262 48.88 868.582 49.36 867.802 49.7C867.042 50.04 866.252 50.21 865.432 50.21C864.532 50.21 863.702 50.05 862.942 49.73C862.182 49.39 861.552 48.94 861.052 48.38V57.2H857.332ZM864.442 39.32C863.422 39.32 862.612 39.65 862.012 40.31C861.412 40.95 861.092 41.78 861.052 42.8V43.19C861.072 44.33 861.382 45.26 861.982 45.98C862.602 46.68 863.422 47.03 864.442 47.03C865.442 47.03 866.262 46.68 866.902 45.98C867.562 45.28 867.892 44.33 867.892 43.13C867.892 42.51 867.792 41.96 867.592 41.48C867.412 41 867.162 40.6 866.842 40.28C866.542 39.96 866.182 39.72 865.762 39.56C865.342 39.4 864.902 39.32 864.442 39.32ZM887.136 36.29H894.546C895.966 36.29 897.036 36.6 897.756 37.22C898.476 37.82 898.836 38.61 898.836 39.59C898.836 40.33 898.656 40.94 898.296 41.42C897.936 41.9 897.466 42.24 896.886 42.44C897.866 42.58 898.666 42.92 899.286 43.46C899.906 44 900.216 44.81 900.216 45.89C900.216 47.21 899.726 48.23 898.746 48.95C897.786 49.65 896.376 50 894.516 50H887.136V36.29ZM890.856 43.82V47.27H893.706C894.646 47.27 895.316 47.13 895.716 46.85C896.116 46.55 896.316 46.11 896.316 45.53C896.316 44.93 896.106 44.5 895.686 44.24C895.266 43.96 894.636 43.82 893.796 43.82H890.856ZM890.856 39.02V41.66H893.436C894.716 41.66 895.356 41.21 895.356 40.31C895.356 39.45 894.706 39.02 893.406 39.02H890.856ZM921.514 50.21C920.414 50.21 919.424 50.04 918.544 49.7C917.664 49.36 916.904 48.89 916.264 48.29C915.644 47.67 915.164 46.93 914.824 46.07C914.484 45.21 914.314 44.25 914.314 43.19C914.314 42.07 914.494 41.07 914.854 40.19C915.234 39.29 915.744 38.54 916.384 37.94C917.024 37.32 917.784 36.85 918.664 36.53C919.544 36.21 920.494 36.05 921.514 36.05C922.674 36.05 923.724 36.25 924.664 36.65C925.624 37.05 926.374 37.55 926.914 38.15L924.994 40.67C924.594 40.23 924.124 39.88 923.584 39.62C923.064 39.36 922.474 39.23 921.814 39.23C920.694 39.23 919.804 39.59 919.144 40.31C918.504 41.03 918.184 41.95 918.184 43.07C918.184 44.23 918.514 45.19 919.174 45.95C919.854 46.69 920.764 47.06 921.904 47.06C922.564 47.06 923.154 46.93 923.674 46.67C924.194 46.39 924.654 46.03 925.054 45.59L927.244 47.75C926.644 48.53 925.844 49.14 924.844 49.58C923.864 50 922.754 50.21 921.514 50.21ZM935.933 50.21C934.853 50.21 933.853 50.04 932.933 49.7C932.033 49.36 931.253 48.88 930.593 48.26C929.953 47.62 929.443 46.87 929.063 46.01C928.703 45.15 928.523 44.19 928.523 43.13C928.523 42.07 928.703 41.11 929.063 40.25C929.443 39.37 929.963 38.62 930.623 38C931.283 37.38 932.063 36.9 932.963 36.56C933.883 36.22 934.873 36.05 935.933 36.05C937.013 36.05 938.003 36.22 938.903 36.56C939.823 36.9 940.613 37.39 941.273 38.03C941.933 38.65 942.443 39.4 942.803 40.28C943.163 41.14 943.343 42.09 943.343 43.13C943.343 44.21 943.153 45.19 942.773 46.07C942.393 46.93 941.873 47.67 941.213 48.29C940.553 48.89 939.773 49.36 938.873 49.7C937.973 50.04 936.993 50.21 935.933 50.21ZM935.933 47.06C937.033 47.06 937.893 46.69 938.513 45.95C939.133 45.21 939.443 44.27 939.443 43.13C939.443 41.99 939.143 41.06 938.543 40.34C937.943 39.6 937.073 39.23 935.933 39.23C934.813 39.23 933.943 39.6 933.323 40.34C932.703 41.08 932.393 42.01 932.393 43.13C932.393 43.67 932.473 44.18 932.633 44.66C932.793 45.14 933.023 45.56 933.323 45.92C933.623 46.28 933.993 46.56 934.433 46.76C934.873 46.96 935.373 47.06 935.933 47.06ZM946.032 36.29H953.442C954.862 36.29 955.932 36.6 956.652 37.22C957.372 37.82 957.732 38.61 957.732 39.59C957.732 40.33 957.552 40.94 957.192 41.42C956.832 41.9 956.362 42.24 955.782 42.44C956.762 42.58 957.562 42.92 958.182 43.46C958.802 44 959.112 44.81 959.112 45.89C959.112 47.21 958.622 48.23 957.642 48.95C956.682 49.65 955.272 50 953.412 50H946.032V36.29ZM949.752 43.82V47.27H952.602C953.542 47.27 954.212 47.13 954.612 46.85C955.012 46.55 955.212 46.11 955.212 45.53C955.212 44.93 955.002 44.5 954.582 44.24C954.162 43.96 953.532 43.82 952.692 43.82H949.752ZM949.752 39.02V41.66H952.332C953.612 41.66 954.252 41.21 954.252 40.31C954.252 39.45 953.602 39.02 952.302 39.02H949.752ZM961.442 57.2V36.29H964.952V38.12C965.412 37.54 966.032 37.05 966.812 36.65C967.612 36.25 968.522 36.05 969.542 36.05C970.382 36.05 971.182 36.22 971.942 36.56C972.722 36.9 973.402 37.38 973.982 38C974.582 38.62 975.052 39.37 975.392 40.25C975.752 41.11 975.932 42.07 975.932 43.13C975.932 44.19 975.752 45.16 975.392 46.04C975.032 46.9 974.552 47.64 973.952 48.26C973.372 48.88 972.692 49.36 971.912 49.7C971.152 50.04 970.362 50.21 969.542 50.21C968.642 50.21 967.812 50.05 967.052 49.73C966.292 49.39 965.662 48.94 965.162 48.38V57.2H961.442ZM968.552 39.32C967.532 39.32 966.722 39.65 966.122 40.31C965.522 40.95 965.202 41.78 965.162 42.8V43.19C965.182 44.33 965.492 45.26 966.092 45.98C966.712 46.68 967.532 47.03 968.552 47.03C969.552 47.03 970.372 46.68 971.012 45.98C971.672 45.28 972.002 44.33 972.002 43.13C972.002 42.51 971.902 41.96 971.702 41.48C971.522 41 971.272 40.6 970.952 40.28C970.652 39.96 970.292 39.72 969.872 39.56C969.452 39.4 969.012 39.32 968.552 39.32ZM985.299 50.21C984.199 50.21 983.189 50.04 982.269 49.7C981.369 49.36 980.589 48.89 979.929 48.29C979.269 47.67 978.759 46.94 978.399 46.1C978.039 45.24 977.859 44.29 977.859 43.25C977.859 42.15 978.049 41.16 978.429 40.28C978.809 39.38 979.329 38.62 979.989 38C980.649 37.38 981.419 36.9 982.299 36.56C983.179 36.22 984.119 36.05 985.119 36.05C986.199 36.05 987.159 36.24 987.999 36.62C988.859 36.98 989.579 37.49 990.159 38.15C990.739 38.79 991.179 39.55 991.479 40.43C991.799 41.29 991.959 42.22 991.959 43.22V44H981.459C981.639 45.06 982.089 45.87 982.809 46.43C983.549 46.99 984.479 47.27 985.599 47.27C986.399 47.27 987.139 47.13 987.819 46.85C988.519 46.55 989.099 46.14 989.559 45.62L991.629 47.51C990.929 48.39 990.029 49.06 988.929 49.52C987.829 49.98 986.619 50.21 985.299 50.21ZM984.969 39.05C984.089 39.05 983.349 39.29 982.749 39.77C982.169 40.23 981.769 40.89 981.549 41.75H988.389C988.269 40.99 987.909 40.35 987.309 39.83C986.709 39.31 985.929 39.05 984.969 39.05ZM995.898 36.29H999.078L1002.71 44.24L1006.13 36.29H1009.4L1011.68 50H1008.2L1006.88 41.99L1003.34 50H1001.75L998.178 42.14L996.888 50H993.588L995.898 36.29ZM1020.66 50.21C1019.56 50.21 1018.55 50.04 1017.63 49.7C1016.73 49.36 1015.95 48.89 1015.29 48.29C1014.63 47.67 1014.12 46.94 1013.76 46.1C1013.4 45.24 1013.22 44.29 1013.22 43.25C1013.22 42.15 1013.41 41.16 1013.79 40.28C1014.17 39.38 1014.69 38.62 1015.35 38C1016.01 37.38 1016.78 36.9 1017.66 36.56C1018.54 36.22 1019.48 36.05 1020.48 36.05C1021.56 36.05 1022.52 36.24 1023.36 36.62C1024.22 36.98 1024.94 37.49 1025.52 38.15C1026.1 38.79 1026.54 39.55 1026.84 40.43C1027.16 41.29 1027.32 42.22 1027.32 43.22V44H1016.82C1017 45.06 1017.45 45.87 1018.17 46.43C1018.91 46.99 1019.84 47.27 1020.96 47.27C1021.76 47.27 1022.5 47.13 1023.18 46.85C1023.88 46.55 1024.46 46.14 1024.92 45.62L1026.99 47.51C1026.29 48.39 1025.39 49.06 1024.29 49.52C1023.19 49.98 1021.98 50.21 1020.66 50.21ZM1020.33 39.05C1019.45 39.05 1018.71 39.29 1018.11 39.77C1017.53 40.23 1017.13 40.89 1016.91 41.75H1023.75C1023.63 40.99 1023.27 40.35 1022.67 39.83C1022.07 39.31 1021.29 39.05 1020.33 39.05ZM1039.48 44.6H1033.78V50H1030.06V36.29H1033.78V41.33H1039.48V36.29H1043.2V50H1039.48V44.6ZM1056.15 44.6H1050.45V50H1046.73V36.29H1050.45V41.33H1056.15V36.29H1059.87V50H1056.15V44.6ZM1070 50.21C1068.92 50.21 1067.92 50.04 1067 49.7C1066.1 49.36 1065.32 48.88 1064.66 48.26C1064.02 47.62 1063.51 46.87 1063.13 46.01C1062.77 45.15 1062.59 44.19 1062.59 43.13C1062.59 42.07 1062.77 41.11 1063.13 40.25C1063.51 39.37 1064.03 38.62 1064.69 38C1065.35 37.38 1066.13 36.9 1067.03 36.56C1067.95 36.22 1068.94 36.05 1070 36.05C1071.08 36.05 1072.07 36.22 1072.97 36.56C1073.89 36.9 1074.68 37.39 1075.34 38.03C1076 38.65 1076.51 39.4 1076.87 40.28C1077.23 41.14 1077.41 42.09 1077.41 43.13C1077.41 44.21 1077.22 45.19 1076.84 46.07C1076.46 46.93 1075.94 47.67 1075.28 48.29C1074.62 48.89 1073.84 49.36 1072.94 49.7C1072.04 50.04 1071.06 50.21 1070 50.21ZM1070 47.06C1071.1 47.06 1071.96 46.69 1072.58 45.95C1073.2 45.21 1073.51 44.27 1073.51 43.13C1073.51 41.99 1073.21 41.06 1072.61 40.34C1072.01 39.6 1071.14 39.23 1070 39.23C1068.88 39.23 1068.01 39.6 1067.39 40.34C1066.77 41.08 1066.46 42.01 1066.46 43.13C1066.46 43.67 1066.54 44.18 1066.7 44.66C1066.86 45.14 1067.09 45.56 1067.39 45.92C1067.69 46.28 1068.06 46.56 1068.5 46.76C1068.94 46.96 1069.44 47.06 1070 47.06ZM1081.3 36.29H1084.48L1088.11 44.24L1091.53 36.29H1094.8L1097.08 50H1093.6L1092.28 41.99L1088.74 50H1087.15L1083.58 42.14L1082.29 50H1078.99L1081.3 36.29ZM1112.21 36.29H1125.11V50H1121.42V39.56H1115.93V50H1112.21V36.29ZM1135.28 50.21C1134.2 50.21 1133.2 50.04 1132.28 49.7C1131.38 49.36 1130.6 48.88 1129.94 48.26C1129.3 47.62 1128.79 46.87 1128.41 46.01C1128.05 45.15 1127.87 44.19 1127.87 43.13C1127.87 42.07 1128.05 41.11 1128.41 40.25C1128.79 39.37 1129.31 38.62 1129.97 38C1130.63 37.38 1131.41 36.9 1132.31 36.56C1133.23 36.22 1134.22 36.05 1135.28 36.05C1136.36 36.05 1137.35 36.22 1138.25 36.56C1139.17 36.9 1139.96 37.39 1140.62 38.03C1141.28 38.65 1141.79 39.4 1142.15 40.28C1142.51 41.14 1142.69 42.09 1142.69 43.13C1142.69 44.21 1142.5 45.19 1142.12 46.07C1141.74 46.93 1141.22 47.67 1140.56 48.29C1139.9 48.89 1139.12 49.36 1138.22 49.7C1137.32 50.04 1136.34 50.21 1135.28 50.21ZM1135.28 47.06C1136.38 47.06 1137.24 46.69 1137.86 45.95C1138.48 45.21 1138.79 44.27 1138.79 43.13C1138.79 41.99 1138.49 41.06 1137.89 40.34C1137.29 39.6 1136.42 39.23 1135.28 39.23C1134.16 39.23 1133.29 39.6 1132.67 40.34C1132.05 41.08 1131.74 42.01 1131.74 43.13C1131.74 43.67 1131.82 44.18 1131.98 44.66C1132.14 45.14 1132.37 45.56 1132.67 45.92C1132.97 46.28 1133.34 46.56 1133.78 46.76C1134.22 46.96 1134.72 47.06 1135.28 47.06ZM1154.8 44.6H1149.1V50H1145.38V36.29H1149.1V41.33H1154.8V36.29H1158.52V50H1154.8V44.6ZM1162.05 36.29H1165.77V44.18L1172.13 36.29H1175.04V50H1171.32V41.66L1164.6 50H1162.05V36.29ZM1179.92 36.29H1183.1L1186.73 44.24L1190.15 36.29H1193.42L1195.7 50H1192.22L1190.9 41.99L1187.36 50H1185.77L1182.2 42.14L1180.91 50H1177.61L1179.92 36.29ZM1203.63 50.21C1202.81 50.21 1202.01 50.04 1201.23 49.7C1200.47 49.36 1199.79 48.88 1199.19 48.26C1198.61 47.64 1198.14 46.9 1197.78 46.04C1197.42 45.16 1197.24 44.19 1197.24 43.13C1197.24 42.07 1197.41 41.11 1197.75 40.25C1198.11 39.37 1198.58 38.62 1199.16 38C1199.76 37.38 1200.44 36.9 1201.2 36.56C1201.98 36.22 1202.79 36.05 1203.63 36.05C1204.65 36.05 1205.55 36.25 1206.33 36.65C1207.13 37.05 1207.76 37.54 1208.22 38.12V36.29H1211.73V50H1208.22V48.14C1207.72 48.76 1207.07 49.26 1206.27 49.64C1205.47 50.02 1204.59 50.21 1203.63 50.21ZM1204.62 47.03C1205.64 47.03 1206.45 46.68 1207.05 45.98C1207.67 45.26 1207.99 44.33 1208.01 43.19V42.95C1208.01 41.89 1207.7 41.02 1207.08 40.34C1206.46 39.66 1205.64 39.32 1204.62 39.32C1204.16 39.32 1203.72 39.4 1203.3 39.56C1202.88 39.72 1202.51 39.96 1202.19 40.28C1201.87 40.6 1201.62 41 1201.44 41.48C1201.26 41.96 1201.17 42.51 1201.17 43.13C1201.17 44.33 1201.49 45.28 1202.13 45.98C1202.79 46.68 1203.62 47.03 1204.62 47.03ZM1224.7 44.6H1219V50H1215.28V36.29H1219V41.33H1224.7V36.29H1228.42V50H1224.7V44.6ZM1231.95 36.29H1235.67V44.18L1242.03 36.29H1244.94V50H1241.22V41.66L1234.5 50H1231.95V36.29ZM1248.47 36.29H1252.19V44.18L1258.55 36.29H1261.46V50H1257.74V41.66L1251.02 50H1248.47V36.29ZM1285.58 44.42H1277.54V41.39H1285.58V44.42ZM1304.64 41.63H1309.47C1309.25 40.83 1308.85 40.23 1308.27 39.83C1307.71 39.43 1307.01 39.23 1306.17 39.23C1304.81 39.23 1303.79 39.71 1303.11 40.67L1300.59 38.75C1301.13 37.91 1301.92 37.25 1302.96 36.77C1304.02 36.29 1305.15 36.05 1306.35 36.05C1307.33 36.05 1308.25 36.21 1309.11 36.53C1309.99 36.85 1310.76 37.31 1311.42 37.91C1312.08 38.51 1312.6 39.25 1312.98 40.13C1313.36 40.99 1313.55 41.98 1313.55 43.1C1313.55 44.14 1313.37 45.1 1313.01 45.98C1312.67 46.84 1312.19 47.59 1311.57 48.23C1310.95 48.85 1310.2 49.34 1309.32 49.7C1308.44 50.04 1307.48 50.21 1306.44 50.21C1305.14 50.21 1303.93 49.95 1302.81 49.43C1301.71 48.91 1300.9 48.16 1300.38 47.18L1303.08 45.62C1303.8 46.64 1304.8 47.15 1306.08 47.15C1307.1 47.15 1307.89 46.86 1308.45 46.28C1309.01 45.7 1309.37 45.02 1309.53 44.24H1304.64V41.63ZM1318.97 39.56H1314.56V36.29H1327.07V39.56H1322.66V50H1318.97V39.56ZM1335.42 50.21C1334.34 50.21 1333.34 50.04 1332.42 49.7C1331.52 49.36 1330.74 48.88 1330.08 48.26C1329.44 47.62 1328.93 46.87 1328.55 46.01C1328.19 45.15 1328.01 44.19 1328.01 43.13C1328.01 42.07 1328.19 41.11 1328.55 40.25C1328.93 39.37 1329.45 38.62 1330.11 38C1330.77 37.38 1331.55 36.9 1332.45 36.56C1333.37 36.22 1334.36 36.05 1335.42 36.05C1336.5 36.05 1337.49 36.22 1338.39 36.56C1339.31 36.9 1340.1 37.39 1340.76 38.03C1341.42 38.65 1341.93 39.4 1342.29 40.28C1342.65 41.14 1342.83 42.09 1342.83 43.13C1342.83 44.21 1342.64 45.19 1342.26 46.07C1341.88 46.93 1341.36 47.67 1340.7 48.29C1340.04 48.89 1339.26 49.36 1338.36 49.7C1337.46 50.04 1336.48 50.21 1335.42 50.21ZM1335.42 47.06C1336.52 47.06 1337.38 46.69 1338 45.95C1338.62 45.21 1338.93 44.27 1338.93 43.13C1338.93 41.99 1338.63 41.06 1338.03 40.34C1337.43 39.6 1336.56 39.23 1335.42 39.23C1334.3 39.23 1333.43 39.6 1332.81 40.34C1332.19 41.08 1331.88 42.01 1331.88 43.13C1331.88 43.67 1331.96 44.18 1332.12 44.66C1332.28 45.14 1332.51 45.56 1332.81 45.92C1333.11 46.28 1333.48 46.56 1333.92 46.76C1334.36 46.96 1334.86 47.06 1335.42 47.06ZM1367.52 44.6H1361.82V50H1358.1V36.29H1361.82V41.33H1367.52V36.29H1371.24V50H1367.52V44.6ZM1381.4 50.21C1380.3 50.21 1379.29 50.04 1378.37 49.7C1377.47 49.36 1376.69 48.89 1376.03 48.29C1375.37 47.67 1374.86 46.94 1374.5 46.1C1374.14 45.24 1373.96 44.29 1373.96 43.25C1373.96 42.15 1374.15 41.16 1374.53 40.28C1374.91 39.38 1375.43 38.62 1376.09 38C1376.75 37.38 1377.52 36.9 1378.4 36.56C1379.28 36.22 1380.22 36.05 1381.22 36.05C1382.3 36.05 1383.26 36.24 1384.1 36.62C1384.96 36.98 1385.68 37.49 1386.26 38.15C1386.84 38.79 1387.28 39.55 1387.58 40.43C1387.9 41.29 1388.06 42.22 1388.06 43.22V44H1377.56C1377.74 45.06 1378.19 45.87 1378.91 46.43C1379.65 46.99 1380.58 47.27 1381.7 47.27C1382.5 47.27 1383.24 47.13 1383.92 46.85C1384.62 46.55 1385.2 46.14 1385.66 45.62L1387.73 47.51C1387.03 48.39 1386.13 49.06 1385.03 49.52C1383.93 49.98 1382.72 50.21 1381.4 50.21ZM1381.07 39.05C1380.19 39.05 1379.45 39.29 1378.85 39.77C1378.27 40.23 1377.87 40.89 1377.65 41.75H1384.49C1384.37 40.99 1384.01 40.35 1383.41 39.83C1382.81 39.31 1382.03 39.05 1381.07 39.05ZM1406.52 39.56H1402.11V36.29H1414.62V39.56H1410.21V50H1406.52V39.56ZM1422.98 50.21C1421.9 50.21 1420.9 50.04 1419.98 49.7C1419.08 49.36 1418.3 48.88 1417.64 48.26C1417 47.62 1416.49 46.87 1416.11 46.01C1415.75 45.15 1415.57 44.19 1415.57 43.13C1415.57 42.07 1415.75 41.11 1416.11 40.25C1416.49 39.37 1417.01 38.62 1417.67 38C1418.33 37.38 1419.11 36.9 1420.01 36.56C1420.93 36.22 1421.92 36.05 1422.98 36.05C1424.06 36.05 1425.05 36.22 1425.95 36.56C1426.87 36.9 1427.66 37.39 1428.32 38.03C1428.98 38.65 1429.49 39.4 1429.85 40.28C1430.21 41.14 1430.39 42.09 1430.39 43.13C1430.39 44.21 1430.2 45.19 1429.82 46.07C1429.44 46.93 1428.92 47.67 1428.26 48.29C1427.6 48.89 1426.82 49.36 1425.92 49.7C1425.02 50.04 1424.04 50.21 1422.98 50.21ZM1422.98 47.06C1424.08 47.06 1424.94 46.69 1425.56 45.95C1426.18 45.21 1426.49 44.27 1426.49 43.13C1426.49 41.99 1426.19 41.06 1425.59 40.34C1424.99 39.6 1424.12 39.23 1422.98 39.23C1421.86 39.23 1420.99 39.6 1420.37 40.34C1419.75 41.08 1419.44 42.01 1419.44 43.13C1419.44 43.67 1419.52 44.18 1419.68 44.66C1419.84 45.14 1420.07 45.56 1420.37 45.92C1420.67 46.28 1421.04 46.56 1421.48 46.76C1421.92 46.96 1422.42 47.06 1422.98 47.06ZM1435.79 39.56H1431.38V36.29H1443.89V39.56H1439.48V50H1435.79V39.56ZM1445.5 50.15C1444.9 50.05 1444.44 49.82 1444.12 49.46C1443.82 49.08 1443.67 48.63 1443.67 48.11C1443.67 47.45 1443.88 46.93 1444.3 46.55C1444.74 46.15 1445.26 45.95 1445.86 45.95C1446.5 45.95 1447.05 46.16 1447.51 46.58C1447.99 47 1448.23 47.6 1448.23 48.38C1448.23 48.9 1448.09 49.48 1447.81 50.12C1447.53 50.76 1447.1 51.59 1446.52 52.61L1445.32 54.8H1442.92L1445.5 50.15ZM1464.23 36.29H1467.95V41.33H1469.39L1472.69 36.29H1476.56V36.8L1472.48 42.53L1477.58 49.49V50H1473.44L1469.3 44.15H1467.95V50H1464.23V36.29ZM1482.47 39.56H1478.06V36.29H1490.57V39.56H1486.16V50H1482.47V39.56ZM1498.93 50.21C1497.85 50.21 1496.85 50.04 1495.93 49.7C1495.03 49.36 1494.25 48.88 1493.59 48.26C1492.95 47.62 1492.44 46.87 1492.06 46.01C1491.7 45.15 1491.52 44.19 1491.52 43.13C1491.52 42.07 1491.7 41.11 1492.06 40.25C1492.44 39.37 1492.96 38.62 1493.62 38C1494.28 37.38 1495.06 36.9 1495.96 36.56C1496.88 36.22 1497.87 36.05 1498.93 36.05C1500.01 36.05 1501 36.22 1501.9 36.56C1502.82 36.9 1503.61 37.39 1504.27 38.03C1504.93 38.65 1505.44 39.4 1505.8 40.28C1506.16 41.14 1506.34 42.09 1506.34 43.13C1506.34 44.21 1506.15 45.19 1505.77 46.07C1505.39 46.93 1504.87 47.67 1504.21 48.29C1503.55 48.89 1502.77 49.36 1501.87 49.7C1500.97 50.04 1499.99 50.21 1498.93 50.21ZM1498.93 47.06C1500.03 47.06 1500.89 46.69 1501.51 45.95C1502.13 45.21 1502.44 44.27 1502.44 43.13C1502.44 41.99 1502.14 41.06 1501.54 40.34C1500.94 39.6 1500.07 39.23 1498.93 39.23C1497.81 39.23 1496.94 39.6 1496.32 40.34C1495.7 41.08 1495.39 42.01 1495.39 43.13C1495.39 43.67 1495.47 44.18 1495.63 44.66C1495.79 45.14 1496.02 45.56 1496.32 45.92C1496.62 46.28 1496.99 46.56 1497.43 46.76C1497.87 46.96 1498.37 47.06 1498.93 47.06ZM1523.35 56.75L1525.66 50.15L1520.05 36.98V36.29H1523.77L1527.4 45.26L1530.58 36.29H1533.94L1533.91 36.98L1526.71 57.2H1523.35V56.75ZM1536.49 36.29H1539.67L1543.3 44.24L1546.72 36.29H1549.99L1552.27 50H1548.79L1547.47 41.99L1543.93 50H1542.34L1538.77 42.14L1537.48 50H1534.18L1536.49 36.29ZM1561.25 50.21C1560.15 50.21 1559.14 50.04 1558.22 49.7C1557.32 49.36 1556.54 48.89 1555.88 48.29C1555.22 47.67 1554.71 46.94 1554.35 46.1C1553.99 45.24 1553.81 44.29 1553.81 43.25C1553.81 42.15 1554 41.16 1554.38 40.28C1554.76 39.38 1555.28 38.62 1555.94 38C1556.6 37.38 1557.37 36.9 1558.25 36.56C1559.13 36.22 1560.07 36.05 1561.07 36.05C1562.15 36.05 1563.11 36.24 1563.95 36.62C1564.81 36.98 1565.53 37.49 1566.11 38.15C1566.69 38.79 1567.13 39.55 1567.43 40.43C1567.75 41.29 1567.91 42.22 1567.91 43.22V44H1557.41C1557.59 45.06 1558.04 45.87 1558.76 46.43C1559.5 46.99 1560.43 47.27 1561.55 47.27C1562.35 47.27 1563.09 47.13 1563.77 46.85C1564.47 46.55 1565.05 46.14 1565.51 45.62L1567.58 47.51C1566.88 48.39 1565.98 49.06 1564.88 49.52C1563.78 49.98 1562.57 50.21 1561.25 50.21ZM1560.92 39.05C1560.04 39.05 1559.3 39.29 1558.7 39.77C1558.12 40.23 1557.72 40.89 1557.5 41.75H1564.34C1564.22 40.99 1563.86 40.35 1563.26 39.83C1562.66 39.31 1561.88 39.05 1560.92 39.05ZM1577.28 50.21C1576.18 50.21 1575.17 50.04 1574.25 49.7C1573.35 49.36 1572.57 48.89 1571.91 48.29C1571.25 47.67 1570.74 46.94 1570.38 46.1C1570.02 45.24 1569.84 44.29 1569.84 43.25C1569.84 42.15 1570.03 41.16 1570.41 40.28C1570.79 39.38 1571.31 38.62 1571.97 38C1572.63 37.38 1573.4 36.9 1574.28 36.56C1575.16 36.22 1576.1 36.05 1577.1 36.05C1578.18 36.05 1579.14 36.24 1579.98 36.62C1580.84 36.98 1581.56 37.49 1582.14 38.15C1582.72 38.79 1583.16 39.55 1583.46 40.43C1583.78 41.29 1583.94 42.22 1583.94 43.22V44H1573.44C1573.62 45.06 1574.07 45.87 1574.79 46.43C1575.53 46.99 1576.46 47.27 1577.58 47.27C1578.38 47.27 1579.12 47.13 1579.8 46.85C1580.5 46.55 1581.08 46.14 1581.54 45.62L1583.61 47.51C1582.91 48.39 1582.01 49.06 1580.91 49.52C1579.81 49.98 1578.6 50.21 1577.28 50.21ZM1576.95 39.05C1576.07 39.05 1575.33 39.29 1574.73 39.77C1574.15 40.23 1573.75 40.89 1573.53 41.75H1580.37C1580.25 40.99 1579.89 40.35 1579.29 39.83C1578.69 39.31 1577.91 39.05 1576.95 39.05ZM1589.38 39.56H1584.97V36.29H1597.48V39.56H1593.07V50H1589.38V39.56ZM263.77 72.29H276.67V86H272.98V75.56H267.49V86H263.77V72.29ZM280.235 72.29H283.955V80.18L290.315 72.29H293.225V86H289.505V77.66L282.785 86H280.235V72.29ZM303.148 86.21C302.048 86.21 301.058 86.04 300.178 85.7C299.298 85.36 298.538 84.89 297.898 84.29C297.278 83.67 296.798 82.93 296.458 82.07C296.118 81.21 295.948 80.25 295.948 79.19C295.948 78.07 296.128 77.07 296.488 76.19C296.868 75.29 297.378 74.54 298.018 73.94C298.658 73.32 299.418 72.85 300.298 72.53C301.178 72.21 302.128 72.05 303.148 72.05C304.308 72.05 305.358 72.25 306.298 72.65C307.258 73.05 308.008 73.55 308.548 74.15L306.628 76.67C306.228 76.23 305.758 75.88 305.218 75.62C304.698 75.36 304.108 75.23 303.448 75.23C302.328 75.23 301.438 75.59 300.778 76.31C300.138 77.03 299.818 77.95 299.818 79.07C299.818 80.23 300.148 81.19 300.808 81.95C301.488 82.69 302.398 83.06 303.538 83.06C304.198 83.06 304.788 82.93 305.308 82.67C305.828 82.39 306.288 82.03 306.688 81.59L308.878 83.75C308.278 84.53 307.478 85.14 306.478 85.58C305.498 86 304.388 86.21 303.148 86.21ZM316.547 86.21C315.727 86.21 314.927 86.04 314.147 85.7C313.387 85.36 312.707 84.88 312.107 84.26C311.527 83.64 311.057 82.9 310.697 82.04C310.337 81.16 310.157 80.19 310.157 79.13C310.157 78.07 310.327 77.11 310.667 76.25C311.027 75.37 311.497 74.62 312.077 74C312.677 73.38 313.357 72.9 314.117 72.56C314.897 72.22 315.707 72.05 316.547 72.05C317.567 72.05 318.467 72.25 319.247 72.65C320.047 73.05 320.677 73.54 321.137 74.12V72.29H324.647V86H321.137V84.14C320.637 84.76 319.987 85.26 319.187 85.64C318.387 86.02 317.507 86.21 316.547 86.21ZM317.537 83.03C318.557 83.03 319.367 82.68 319.967 81.98C320.587 81.26 320.907 80.33 320.927 79.19V78.95C320.927 77.89 320.617 77.02 319.997 76.34C319.377 75.66 318.557 75.32 317.537 75.32C317.077 75.32 316.637 75.4 316.217 75.56C315.797 75.72 315.427 75.96 315.107 76.28C314.787 76.6 314.537 77 314.357 77.48C314.177 77.96 314.087 78.51 314.087 79.13C314.087 80.33 314.407 81.28 315.047 81.98C315.707 82.68 316.537 83.03 317.537 83.03ZM331.344 75.56H326.934V72.29H339.444V75.56H335.034V86H331.344V75.56ZM341.729 72.29H345.449V76.25H347.879C349.819 76.25 351.289 76.65 352.289 77.45C353.309 78.25 353.819 79.46 353.819 81.08C353.819 82.7 353.289 83.93 352.229 84.77C351.189 85.59 349.639 86 347.579 86H341.729V72.29ZM347.219 83.09C348.119 83.09 348.809 82.96 349.289 82.7C349.769 82.42 350.009 81.88 350.009 81.08C350.009 80.34 349.789 79.83 349.349 79.55C348.909 79.27 348.239 79.13 347.339 79.13H345.449V83.09H347.219ZM357.492 86.15C356.892 86.05 356.432 85.82 356.112 85.46C355.812 85.08 355.662 84.63 355.662 84.11C355.662 83.45 355.872 82.93 356.292 82.55C356.732 82.15 357.252 81.95 357.852 81.95C358.492 81.95 359.042 82.16 359.502 82.58C359.982 83 360.222 83.6 360.222 84.38C360.222 84.9 360.082 85.48 359.802 86.12C359.522 86.76 359.092 87.59 358.512 88.61L357.312 90.8H354.912L357.492 86.15ZM381.926 86.21C381.106 86.21 380.306 86.04 379.526 85.7C378.766 85.36 378.086 84.88 377.486 84.26C376.906 83.64 376.436 82.9 376.076 82.04C375.716 81.16 375.536 80.19 375.536 79.13C375.536 78.07 375.706 77.11 376.046 76.25C376.406 75.37 376.876 74.62 377.456 74C378.056 73.38 378.736 72.9 379.496 72.56C380.276 72.22 381.086 72.05 381.926 72.05C382.946 72.05 383.846 72.25 384.626 72.65C385.426 73.05 386.056 73.54 386.516 74.12V72.29H390.026V86H386.516V84.14C386.016 84.76 385.366 85.26 384.566 85.64C383.766 86.02 382.886 86.21 381.926 86.21ZM382.916 83.03C383.936 83.03 384.746 82.68 385.346 81.98C385.966 81.26 386.286 80.33 386.306 79.19V78.95C386.306 77.89 385.996 77.02 385.376 76.34C384.756 75.66 383.936 75.32 382.916 75.32C382.456 75.32 382.016 75.4 381.596 75.56C381.176 75.72 380.806 75.96 380.486 76.28C380.166 76.6 379.916 77 379.736 77.48C379.556 77.96 379.466 78.51 379.466 79.13C379.466 80.33 379.786 81.28 380.426 81.98C381.086 82.68 381.916 83.03 382.916 83.03ZM409.425 75.56H405.015V72.29H417.525V75.56H413.115V86H409.425V75.56ZM425.883 86.21C424.803 86.21 423.803 86.04 422.883 85.7C421.983 85.36 421.203 84.88 420.543 84.26C419.903 83.62 419.393 82.87 419.013 82.01C418.653 81.15 418.473 80.19 418.473 79.13C418.473 78.07 418.653 77.11 419.013 76.25C419.393 75.37 419.913 74.62 420.573 74C421.233 73.38 422.013 72.9 422.913 72.56C423.833 72.22 424.823 72.05 425.883 72.05C426.963 72.05 427.953 72.22 428.853 72.56C429.773 72.9 430.563 73.39 431.223 74.03C431.883 74.65 432.393 75.4 432.753 76.28C433.113 77.14 433.293 78.09 433.293 79.13C433.293 80.21 433.103 81.19 432.723 82.07C432.343 82.93 431.823 83.67 431.163 84.29C430.503 84.89 429.723 85.36 428.823 85.7C427.923 86.04 426.943 86.21 425.883 86.21ZM425.883 83.06C426.983 83.06 427.843 82.69 428.463 81.95C429.083 81.21 429.393 80.27 429.393 79.13C429.393 77.99 429.093 77.06 428.493 76.34C427.893 75.6 427.023 75.23 425.883 75.23C424.763 75.23 423.893 75.6 423.273 76.34C422.653 77.08 422.343 78.01 422.343 79.13C422.343 79.67 422.423 80.18 422.583 80.66C422.743 81.14 422.973 81.56 423.273 81.92C423.573 82.28 423.943 82.56 424.383 82.76C424.823 82.96 425.323 83.06 425.883 83.06ZM438.692 75.56H434.282V72.29H446.792V75.56H442.382V86H438.692V75.56ZM448.405 86.15C447.805 86.05 447.345 85.82 447.025 85.46C446.725 85.08 446.575 84.63 446.575 84.11C446.575 83.45 446.785 82.93 447.205 82.55C447.645 82.15 448.165 81.95 448.765 81.95C449.405 81.95 449.955 82.16 450.415 82.58C450.895 83 451.135 83.6 451.135 84.38C451.135 84.9 450.995 85.48 450.715 86.12C450.435 86.76 450.005 87.59 449.425 88.61L448.225 90.8H445.825L448.405 86.15ZM467.259 72.29H470.979V77.33H472.419L475.719 72.29H479.589V72.8L475.509 78.53L480.609 85.49V86H476.469L472.329 80.15H470.979V86H467.259V72.29ZM485.496 75.56H481.086V72.29H493.596V75.56H489.186V86H485.496V75.56ZM501.954 86.21C500.874 86.21 499.874 86.04 498.954 85.7C498.054 85.36 497.274 84.88 496.614 84.26C495.974 83.62 495.464 82.87 495.084 82.01C494.724 81.15 494.544 80.19 494.544 79.13C494.544 78.07 494.724 77.11 495.084 76.25C495.464 75.37 495.984 74.62 496.644 74C497.304 73.38 498.084 72.9 498.984 72.56C499.904 72.22 500.894 72.05 501.954 72.05C503.034 72.05 504.024 72.22 504.924 72.56C505.844 72.9 506.634 73.39 507.294 74.03C507.954 74.65 508.464 75.4 508.824 76.28C509.184 77.14 509.364 78.09 509.364 79.13C509.364 80.21 509.174 81.19 508.794 82.07C508.414 82.93 507.894 83.67 507.234 84.29C506.574 84.89 505.794 85.36 504.894 85.7C503.994 86.04 503.014 86.21 501.954 86.21ZM501.954 83.06C503.054 83.06 503.914 82.69 504.534 81.95C505.154 81.21 505.464 80.27 505.464 79.13C505.464 77.99 505.164 77.06 504.564 76.34C503.964 75.6 503.094 75.23 501.954 75.23C500.834 75.23 499.964 75.6 499.344 76.34C498.724 77.08 498.414 78.01 498.414 79.13C498.414 79.67 498.494 80.18 498.654 80.66C498.814 81.14 499.044 81.56 499.344 81.92C499.644 82.28 500.014 82.56 500.454 82.76C500.894 82.96 501.394 83.06 501.954 83.06ZM524.756 72.29H537.656V86H533.966V75.56H528.476V86H524.756V72.29ZM541.221 93.2V72.29H544.731V74.12C545.191 73.54 545.811 73.05 546.591 72.65C547.391 72.25 548.301 72.05 549.321 72.05C550.161 72.05 550.961 72.22 551.721 72.56C552.501 72.9 553.181 73.38 553.761 74C554.361 74.62 554.831 75.37 555.171 76.25C555.531 77.11 555.711 78.07 555.711 79.13C555.711 80.19 555.531 81.16 555.171 82.04C554.811 82.9 554.331 83.64 553.731 84.26C553.151 84.88 552.471 85.36 551.691 85.7C550.931 86.04 550.141 86.21 549.321 86.21C548.421 86.21 547.591 86.05 546.831 85.73C546.071 85.39 545.441 84.94 544.941 84.38V93.2H541.221ZM548.331 75.32C547.311 75.32 546.501 75.65 545.901 76.31C545.301 76.95 544.981 77.78 544.941 78.8V79.19C544.961 80.33 545.271 81.26 545.871 81.98C546.491 82.68 547.311 83.03 548.331 83.03C549.331 83.03 550.151 82.68 550.791 81.98C551.451 81.28 551.781 80.33 551.781 79.13C551.781 78.51 551.681 77.96 551.481 77.48C551.301 77 551.051 76.6 550.731 76.28C550.431 75.96 550.071 75.72 549.651 75.56C549.231 75.4 548.791 75.32 548.331 75.32ZM558.447 72.29H562.167V80.18L568.527 72.29H571.437V86H567.717V77.66L560.997 86H558.447V72.29ZM573.381 82.73H575.031C575.551 81.65 575.941 80.45 576.201 79.13C576.461 77.79 576.591 76.21 576.591 74.39V72.29H587.271V82.73H589.371V89.06H586.341V86H576.441V89.06H573.381V82.73ZM579.921 75.65C579.921 78.43 579.511 80.79 578.691 82.73H583.551V75.56H579.921V75.65ZM592.795 92.75L595.105 86.15L589.495 72.98V72.29H593.215L596.845 81.26L600.025 72.29H603.385L603.355 72.98L596.155 93.2H592.795V92.75ZM605.94 72.29H609.12L612.75 80.24L616.17 72.29H619.44L621.72 86H618.24L616.92 77.99L613.38 86H611.79L608.22 78.14L606.93 86H603.63L605.94 72.29ZM630.068 76.25C632.008 76.25 633.478 76.65 634.478 77.45C635.498 78.25 636.008 79.46 636.008 81.08C636.008 82.7 635.478 83.93 634.418 84.77C633.378 85.59 631.828 86 629.768 86H624.278V72.29H627.998V76.25H630.068ZM637.328 72.29H641.048V86H637.328V72.29ZM629.378 83.09C630.278 83.09 630.968 82.96 631.448 82.7C631.948 82.42 632.198 81.88 632.198 81.08C632.198 80.34 631.968 79.83 631.508 79.55C631.068 79.27 630.398 79.13 629.498 79.13H627.998V83.09H629.378ZM644.58 72.29H651.99C653.41 72.29 654.48 72.6 655.2 73.22C655.92 73.82 656.28 74.61 656.28 75.59C656.28 76.33 656.1 76.94 655.74 77.42C655.38 77.9 654.91 78.24 654.33 78.44C655.31 78.58 656.11 78.92 656.73 79.46C657.35 80 657.66 80.81 657.66 81.89C657.66 83.21 657.17 84.23 656.19 84.95C655.23 85.65 653.82 86 651.96 86H644.58V72.29ZM648.3 79.82V83.27H651.15C652.09 83.27 652.76 83.13 653.16 82.85C653.56 82.55 653.76 82.11 653.76 81.53C653.76 80.93 653.55 80.5 653.13 80.24C652.71 79.96 652.08 79.82 651.24 79.82H648.3ZM648.3 75.02V77.66H650.88C652.16 77.66 652.8 77.21 652.8 76.31C652.8 75.45 652.15 75.02 650.85 75.02H648.3ZM665.57 86.21C664.75 86.21 663.95 86.04 663.17 85.7C662.41 85.36 661.73 84.88 661.13 84.26C660.55 83.64 660.08 82.9 659.72 82.04C659.36 81.16 659.18 80.19 659.18 79.13C659.18 78.07 659.35 77.11 659.69 76.25C660.05 75.37 660.52 74.62 661.1 74C661.7 73.38 662.38 72.9 663.14 72.56C663.92 72.22 664.73 72.05 665.57 72.05C666.59 72.05 667.49 72.25 668.27 72.65C669.07 73.05 669.7 73.54 670.16 74.12V72.29H673.67V86H670.16V84.14C669.66 84.76 669.01 85.26 668.21 85.64C667.41 86.02 666.53 86.21 665.57 86.21ZM666.56 83.03C667.58 83.03 668.39 82.68 668.99 81.98C669.61 81.26 669.93 80.33 669.95 79.19V78.95C669.95 77.89 669.64 77.02 669.02 76.34C668.4 75.66 667.58 75.32 666.56 75.32C666.1 75.32 665.66 75.4 665.24 75.56C664.82 75.72 664.45 75.96 664.13 76.28C663.81 76.6 663.56 77 663.38 77.48C663.2 77.96 663.11 78.51 663.11 79.13C663.11 80.33 663.43 81.28 664.07 81.98C664.73 82.68 665.56 83.03 666.56 83.03ZM683.847 86.21C682.747 86.21 681.737 86.04 680.817 85.7C679.917 85.36 679.137 84.89 678.477 84.29C677.817 83.67 677.307 82.94 676.947 82.1C676.587 81.24 676.407 80.29 676.407 79.25C676.407 78.15 676.597 77.16 676.977 76.28C677.357 75.38 677.877 74.62 678.537 74C679.197 73.38 679.967 72.9 680.847 72.56C681.727 72.22 682.667 72.05 683.667 72.05C684.747 72.05 685.707 72.24 686.547 72.62C687.407 72.98 688.127 73.49 688.707 74.15C689.287 74.79 689.727 75.55 690.027 76.43C690.347 77.29 690.507 78.22 690.507 79.22V80H680.007C680.187 81.06 680.637 81.87 681.357 82.43C682.097 82.99 683.027 83.27 684.147 83.27C684.947 83.27 685.687 83.13 686.367 82.85C687.067 82.55 687.647 82.14 688.107 81.62L690.177 83.51C689.477 84.39 688.577 85.06 687.477 85.52C686.377 85.98 685.167 86.21 683.847 86.21ZM683.517 75.05C682.637 75.05 681.897 75.29 681.297 75.77C680.717 76.23 680.317 76.89 680.097 77.75H686.937C686.817 76.99 686.457 76.35 685.857 75.83C685.257 75.31 684.477 75.05 683.517 75.05ZM695.953 75.56H691.543V72.29H704.053V75.56H699.643V86H695.953V75.56ZM705.665 86.15C705.065 86.05 704.605 85.82 704.285 85.46C703.985 85.08 703.835 84.63 703.835 84.11C703.835 83.45 704.045 82.93 704.465 82.55C704.905 82.15 705.425 81.95 706.025 81.95C706.665 81.95 707.215 82.16 707.675 82.58C708.155 83 708.395 83.6 708.395 84.38C708.395 84.9 708.255 85.48 707.975 86.12C707.695 86.76 707.265 87.59 706.685 88.61L705.485 90.8H703.085L705.665 86.15ZM731.119 86.21C730.039 86.21 729.039 86.04 728.119 85.7C727.219 85.36 726.439 84.88 725.779 84.26C725.139 83.62 724.629 82.87 724.249 82.01C723.889 81.15 723.709 80.19 723.709 79.13C723.709 78.07 723.889 77.11 724.249 76.25C724.629 75.37 725.149 74.62 725.809 74C726.469 73.38 727.249 72.9 728.149 72.56C729.069 72.22 730.059 72.05 731.119 72.05C732.199 72.05 733.189 72.22 734.089 72.56C735.009 72.9 735.799 73.39 736.459 74.03C737.119 74.65 737.629 75.4 737.989 76.28C738.349 77.14 738.529 78.09 738.529 79.13C738.529 80.21 738.339 81.19 737.959 82.07C737.579 82.93 737.059 83.67 736.399 84.29C735.739 84.89 734.959 85.36 734.059 85.7C733.159 86.04 732.179 86.21 731.119 86.21ZM731.119 83.06C732.219 83.06 733.079 82.69 733.699 81.95C734.319 81.21 734.629 80.27 734.629 79.13C734.629 77.99 734.329 77.06 733.729 76.34C733.129 75.6 732.259 75.23 731.119 75.23C729.999 75.23 729.129 75.6 728.509 76.34C727.889 77.08 727.579 78.01 727.579 79.13C727.579 79.67 727.659 80.18 727.819 80.66C727.979 81.14 728.209 81.56 728.509 81.92C728.809 82.28 729.179 82.56 729.619 82.76C730.059 82.96 730.559 83.06 731.119 83.06ZM743.929 75.56H739.519V72.29H752.029V75.56H747.619V86H743.929V75.56ZM754.314 72.29H761.724C763.144 72.29 764.214 72.6 764.934 73.22C765.654 73.82 766.014 74.61 766.014 75.59C766.014 76.33 765.834 76.94 765.474 77.42C765.114 77.9 764.644 78.24 764.064 78.44C765.044 78.58 765.844 78.92 766.464 79.46C767.084 80 767.394 80.81 767.394 81.89C767.394 83.21 766.904 84.23 765.924 84.95C764.964 85.65 763.554 86 761.694 86H754.314V72.29ZM758.034 79.82V83.27H760.884C761.824 83.27 762.494 83.13 762.894 82.85C763.294 82.55 763.494 82.11 763.494 81.53C763.494 80.93 763.284 80.5 762.864 80.24C762.444 79.96 761.814 79.82 760.974 79.82H758.034ZM758.034 75.02V77.66H760.614C761.894 77.66 762.534 77.21 762.534 76.31C762.534 75.45 761.884 75.02 760.584 75.02H758.034ZM776.354 86.21C775.254 86.21 774.244 86.04 773.324 85.7C772.424 85.36 771.644 84.89 770.984 84.29C770.324 83.67 769.814 82.94 769.454 82.1C769.094 81.24 768.914 80.29 768.914 79.25C768.914 78.15 769.104 77.16 769.484 76.28C769.864 75.38 770.384 74.62 771.044 74C771.704 73.38 772.474 72.9 773.354 72.56C774.234 72.22 775.174 72.05 776.174 72.05C777.254 72.05 778.214 72.24 779.054 72.62C779.914 72.98 780.634 73.49 781.214 74.15C781.794 74.79 782.234 75.55 782.534 76.43C782.854 77.29 783.014 78.22 783.014 79.22V80H772.514C772.694 81.06 773.144 81.87 773.864 82.43C774.604 82.99 775.534 83.27 776.654 83.27C777.454 83.27 778.194 83.13 778.874 82.85C779.574 82.55 780.154 82.14 780.614 81.62L782.684 83.51C781.984 84.39 781.084 85.06 779.984 85.52C778.884 85.98 777.674 86.21 776.354 86.21ZM776.024 75.05C775.144 75.05 774.404 75.29 773.804 75.77C773.224 76.23 772.824 76.89 772.604 77.75H779.444C779.324 76.99 778.964 76.35 778.364 75.83C777.764 75.31 776.984 75.05 776.024 75.05ZM793.61 81.02C793.21 81.2 792.74 81.35 792.2 81.47C791.68 81.57 791.09 81.62 790.43 81.62C789.59 81.62 788.83 81.52 788.15 81.32C787.49 81.12 786.92 80.8 786.44 80.36C785.96 79.92 785.59 79.35 785.33 78.65C785.09 77.95 784.97 77.1 784.97 76.1V72.29H788.69V75.95C788.69 76.73 788.87 77.33 789.23 77.75C789.59 78.15 790.31 78.35 791.39 78.35C792.21 78.35 792.95 78.25 793.61 78.05V72.29H797.33V86H793.61V81.02ZM806.271 86.21C805.451 86.21 804.651 86.04 803.871 85.7C803.111 85.36 802.431 84.88 801.831 84.26C801.251 83.64 800.781 82.9 800.421 82.04C800.061 81.16 799.881 80.19 799.881 79.13C799.881 78.07 800.051 77.11 800.391 76.25C800.751 75.37 801.221 74.62 801.801 74C802.401 73.38 803.081 72.9 803.841 72.56C804.621 72.22 805.431 72.05 806.271 72.05C807.291 72.05 808.191 72.25 808.971 72.65C809.771 73.05 810.401 73.54 810.861 74.12V72.29H814.371V86H810.861V84.14C810.361 84.76 809.711 85.26 808.911 85.64C808.111 86.02 807.231 86.21 806.271 86.21ZM807.261 83.03C808.281 83.03 809.091 82.68 809.691 81.98C810.311 81.26 810.631 80.33 810.651 79.19V78.95C810.651 77.89 810.341 77.02 809.721 76.34C809.101 75.66 808.281 75.32 807.261 75.32C806.801 75.32 806.361 75.4 805.941 75.56C805.521 75.72 805.151 75.96 804.831 76.28C804.511 76.6 804.261 77 804.081 77.48C803.901 77.96 803.811 78.51 803.811 79.13C803.811 80.33 804.131 81.28 804.771 81.98C805.431 82.68 806.261 83.03 807.261 83.03ZM824.548 86.21C823.448 86.21 822.438 86.04 821.518 85.7C820.618 85.36 819.838 84.89 819.178 84.29C818.518 83.67 818.008 82.94 817.648 82.1C817.288 81.24 817.108 80.29 817.108 79.25C817.108 78.15 817.298 77.16 817.678 76.28C818.058 75.38 818.578 74.62 819.238 74C819.898 73.38 820.668 72.9 821.548 72.56C822.428 72.22 823.368 72.05 824.368 72.05C825.448 72.05 826.408 72.24 827.248 72.62C828.108 72.98 828.828 73.49 829.408 74.15C829.988 74.79 830.428 75.55 830.728 76.43C831.048 77.29 831.208 78.22 831.208 79.22V80H820.708C820.888 81.06 821.338 81.87 822.058 82.43C822.798 82.99 823.728 83.27 824.848 83.27C825.648 83.27 826.388 83.13 827.068 82.85C827.768 82.55 828.348 82.14 828.808 81.62L830.878 83.51C830.178 84.39 829.278 85.06 828.178 85.52C827.078 85.98 825.868 86.21 824.548 86.21ZM824.218 75.05C823.338 75.05 822.598 75.29 821.998 75.77C821.418 76.23 821.018 76.89 820.798 77.75H827.638C827.518 76.99 827.158 76.35 826.558 75.83C825.958 75.31 825.178 75.05 824.218 75.05ZM836.654 75.56H832.244V72.29H844.754V75.56H840.344V86H836.654V75.56ZM864.241 86.21C863.501 86.21 862.811 86.13 862.171 85.97C861.551 85.81 860.991 85.61 860.491 85.37C860.011 85.13 859.591 84.87 859.231 84.59C858.891 84.31 858.631 84.05 858.451 83.81L860.821 81.59C861.141 81.99 861.591 82.34 862.171 82.64C862.751 82.92 863.421 83.06 864.181 83.06C865.721 83.06 866.491 82.53 866.491 81.47C866.491 81.07 866.321 80.73 865.981 80.45C865.641 80.17 865.051 80.03 864.211 80.03H862.291V77.42H863.791C864.431 77.42 864.931 77.33 865.291 77.15C865.651 76.95 865.831 76.65 865.831 76.25C865.831 75.91 865.651 75.65 865.291 75.47C864.931 75.27 864.461 75.17 863.881 75.17C863.341 75.17 862.811 75.29 862.291 75.53C861.791 75.75 861.361 76.03 861.001 76.37L858.991 74.27C859.211 74.01 859.481 73.75 859.801 73.49C860.141 73.23 860.531 73 860.971 72.8C861.411 72.58 861.911 72.4 862.471 72.26C863.031 72.12 863.641 72.05 864.301 72.05C865.081 72.05 865.791 72.14 866.431 72.32C867.071 72.5 867.621 72.75 868.081 73.07C868.541 73.37 868.891 73.75 869.131 74.21C869.391 74.65 869.521 75.14 869.521 75.68C869.521 76.32 869.351 76.88 869.011 77.36C868.671 77.84 868.201 78.22 867.601 78.5C868.501 78.78 869.171 79.2 869.611 79.76C870.071 80.32 870.301 80.99 870.301 81.77C870.301 82.39 870.161 82.97 869.881 83.51C869.601 84.05 869.201 84.52 868.681 84.92C868.161 85.32 867.521 85.64 866.761 85.88C866.021 86.1 865.181 86.21 864.241 86.21ZM878.388 86.21C877.568 86.21 876.768 86.04 875.988 85.7C875.228 85.36 874.548 84.88 873.948 84.26C873.368 83.64 872.898 82.9 872.538 82.04C872.178 81.16 871.998 80.19 871.998 79.13C871.998 78.07 872.168 77.11 872.508 76.25C872.868 75.37 873.338 74.62 873.918 74C874.518 73.38 875.198 72.9 875.958 72.56C876.738 72.22 877.548 72.05 878.388 72.05C879.408 72.05 880.308 72.25 881.088 72.65C881.888 73.05 882.518 73.54 882.978 74.12V72.29H886.488V86H882.978V84.14C882.478 84.76 881.828 85.26 881.028 85.64C880.228 86.02 879.348 86.21 878.388 86.21ZM879.378 83.03C880.398 83.03 881.208 82.68 881.808 81.98C882.428 81.26 882.748 80.33 882.768 79.19V78.95C882.768 77.89 882.458 77.02 881.838 76.34C881.218 75.66 880.398 75.32 879.378 75.32C878.918 75.32 878.478 75.4 878.058 75.56C877.638 75.72 877.268 75.96 876.948 76.28C876.628 76.6 876.378 77 876.198 77.48C876.018 77.96 875.928 78.51 875.928 79.13C875.928 80.33 876.248 81.28 876.888 81.98C877.548 82.68 878.378 83.03 879.378 83.03ZM909.337 86.21C908.257 86.21 907.257 86.04 906.337 85.7C905.437 85.36 904.657 84.88 903.997 84.26C903.357 83.62 902.847 82.87 902.467 82.01C902.107 81.15 901.927 80.19 901.927 79.13C901.927 78.07 902.107 77.11 902.467 76.25C902.847 75.37 903.367 74.62 904.027 74C904.687 73.38 905.467 72.9 906.367 72.56C907.287 72.22 908.277 72.05 909.337 72.05C910.417 72.05 911.407 72.22 912.307 72.56C913.227 72.9 914.017 73.39 914.677 74.03C915.337 74.65 915.847 75.4 916.207 76.28C916.567 77.14 916.747 78.09 916.747 79.13C916.747 80.21 916.557 81.19 916.177 82.07C915.797 82.93 915.277 83.67 914.617 84.29C913.957 84.89 913.177 85.36 912.277 85.7C911.377 86.04 910.397 86.21 909.337 86.21ZM909.337 83.06C910.437 83.06 911.297 82.69 911.917 81.95C912.537 81.21 912.847 80.27 912.847 79.13C912.847 77.99 912.547 77.06 911.947 76.34C911.347 75.6 910.477 75.23 909.337 75.23C908.217 75.23 907.347 75.6 906.727 76.34C906.107 77.08 905.797 78.01 905.797 79.13C905.797 79.67 905.877 80.18 906.037 80.66C906.197 81.14 906.427 81.56 906.727 81.92C907.027 82.28 907.397 82.56 907.837 82.76C908.277 82.96 908.777 83.06 909.337 83.06ZM925.826 86.21C924.726 86.21 923.736 86.04 922.856 85.7C921.976 85.36 921.216 84.89 920.576 84.29C919.956 83.67 919.476 82.93 919.136 82.07C918.796 81.21 918.626 80.25 918.626 79.19C918.626 78.07 918.806 77.07 919.166 76.19C919.546 75.29 920.056 74.54 920.696 73.94C921.336 73.32 922.096 72.85 922.976 72.53C923.856 72.21 924.806 72.05 925.826 72.05C926.986 72.05 928.036 72.25 928.976 72.65C929.936 73.05 930.686 73.55 931.226 74.15L929.306 76.67C928.906 76.23 928.436 75.88 927.896 75.62C927.376 75.36 926.786 75.23 926.126 75.23C925.006 75.23 924.116 75.59 923.456 76.31C922.816 77.03 922.496 77.95 922.496 79.07C922.496 80.23 922.826 81.19 923.486 81.95C924.166 82.69 925.076 83.06 926.216 83.06C926.876 83.06 927.466 82.93 927.986 82.67C928.506 82.39 928.966 82.03 929.366 81.59L931.556 83.75C930.956 84.53 930.156 85.14 929.156 85.58C928.176 86 927.066 86.21 925.826 86.21ZM943.211 80.6H937.511V86H933.791V72.29H937.511V77.33H943.211V72.29H946.931V86H943.211V80.6ZM957.061 86.21C955.981 86.21 954.981 86.04 954.061 85.7C953.161 85.36 952.381 84.88 951.721 84.26C951.081 83.62 950.571 82.87 950.191 82.01C949.831 81.15 949.651 80.19 949.651 79.13C949.651 78.07 949.831 77.11 950.191 76.25C950.571 75.37 951.091 74.62 951.751 74C952.411 73.38 953.191 72.9 954.091 72.56C955.011 72.22 956.001 72.05 957.061 72.05C958.141 72.05 959.131 72.22 960.031 72.56C960.951 72.9 961.741 73.39 962.401 74.03C963.061 74.65 963.571 75.4 963.931 76.28C964.291 77.14 964.471 78.09 964.471 79.13C964.471 80.21 964.281 81.19 963.901 82.07C963.521 82.93 963.001 83.67 962.341 84.29C961.681 84.89 960.901 85.36 960.001 85.7C959.101 86.04 958.121 86.21 957.061 86.21ZM957.061 83.06C958.161 83.06 959.021 82.69 959.641 81.95C960.261 81.21 960.571 80.27 960.571 79.13C960.571 77.99 960.271 77.06 959.671 76.34C959.071 75.6 958.201 75.23 957.061 75.23C955.941 75.23 955.071 75.6 954.451 76.34C953.831 77.08 953.521 78.01 953.521 79.13C953.521 79.67 953.601 80.18 953.761 80.66C953.921 81.14 954.151 81.56 954.451 81.92C954.751 82.28 955.121 82.56 955.561 82.76C956.001 82.96 956.501 83.06 957.061 83.06ZM967.161 72.29H974.571C975.991 72.29 977.061 72.6 977.781 73.22C978.501 73.82 978.861 74.61 978.861 75.59C978.861 76.33 978.681 76.94 978.321 77.42C977.961 77.9 977.491 78.24 976.911 78.44C977.891 78.58 978.691 78.92 979.311 79.46C979.931 80 980.241 80.81 980.241 81.89C980.241 83.21 979.751 84.23 978.771 84.95C977.811 85.65 976.401 86 974.541 86H967.161V72.29ZM970.881 79.82V83.27H973.731C974.671 83.27 975.341 83.13 975.741 82.85C976.141 82.55 976.341 82.11 976.341 81.53C976.341 80.93 976.131 80.5 975.711 80.24C975.291 79.96 974.661 79.82 973.821 79.82H970.881ZM970.881 75.02V77.66H973.461C974.741 77.66 975.381 77.21 975.381 76.31C975.381 75.45 974.731 75.02 973.431 75.02H970.881ZM991.991 80.6H986.291V86H982.571V72.29H986.291V77.33H991.991V72.29H995.711V86H991.991V80.6ZM1005.84 86.21C1004.76 86.21 1003.76 86.04 1002.84 85.7C1001.94 85.36 1001.16 84.88 1000.5 84.26C999.861 83.62 999.351 82.87 998.971 82.01C998.611 81.15 998.431 80.19 998.431 79.13C998.431 78.07 998.611 77.11 998.971 76.25C999.351 75.37 999.871 74.62 1000.53 74C1001.19 73.38 1001.97 72.9 1002.87 72.56C1003.79 72.22 1004.78 72.05 1005.84 72.05C1006.92 72.05 1007.91 72.22 1008.81 72.56C1009.73 72.9 1010.52 73.39 1011.18 74.03C1011.84 74.65 1012.35 75.4 1012.71 76.28C1013.07 77.14 1013.25 78.09 1013.25 79.13C1013.25 80.21 1013.06 81.19 1012.68 82.07C1012.3 82.93 1011.78 83.67 1011.12 84.29C1010.46 84.89 1009.68 85.36 1008.78 85.7C1007.88 86.04 1006.9 86.21 1005.84 86.21ZM1005.84 83.06C1006.94 83.06 1007.8 82.69 1008.42 81.95C1009.04 81.21 1009.35 80.27 1009.35 79.13C1009.35 77.99 1009.05 77.06 1008.45 76.34C1007.85 75.6 1006.98 75.23 1005.84 75.23C1004.72 75.23 1003.85 75.6 1003.23 76.34C1002.61 77.08 1002.3 78.01 1002.3 79.13C1002.3 79.67 1002.38 80.18 1002.54 80.66C1002.7 81.14 1002.93 81.56 1003.23 81.92C1003.53 82.28 1003.9 82.56 1004.34 82.76C1004.78 82.96 1005.28 83.06 1005.84 83.06ZM1015.94 72.29H1019.66V80.18L1026.02 72.29H1028.93V86H1025.21V77.66L1018.49 86H1015.94V72.29ZM1022.42 70.52C1021.8 70.52 1021.21 70.44 1020.65 70.28C1020.11 70.1 1019.63 69.84 1019.21 69.5C1018.81 69.16 1018.49 68.73 1018.25 68.21C1018.01 67.67 1017.88 67.05 1017.86 66.35H1020.53C1020.57 66.89 1020.74 67.33 1021.04 67.67C1021.34 68.01 1021.82 68.18 1022.48 68.18C1023.12 68.18 1023.59 68.02 1023.89 67.7C1024.21 67.36 1024.39 66.91 1024.43 66.35H1027.07C1027.05 67.05 1026.91 67.67 1026.65 68.21C1026.39 68.73 1026.05 69.16 1025.63 69.5C1025.21 69.84 1024.72 70.1 1024.16 70.28C1023.6 70.44 1023.02 70.52 1022.42 70.52ZM1045.17 72.29H1048.89V77.33H1050.33L1053.63 72.29H1057.5V72.8L1053.42 78.53L1058.52 85.49V86H1054.38L1050.24 80.15H1048.89V86H1045.17V72.29ZM1066.33 86.21C1065.25 86.21 1064.25 86.04 1063.33 85.7C1062.43 85.36 1061.65 84.88 1060.99 84.26C1060.35 83.62 1059.84 82.87 1059.46 82.01C1059.1 81.15 1058.92 80.19 1058.92 79.13C1058.92 78.07 1059.1 77.11 1059.46 76.25C1059.84 75.37 1060.36 74.62 1061.02 74C1061.68 73.38 1062.46 72.9 1063.36 72.56C1064.28 72.22 1065.27 72.05 1066.33 72.05C1067.41 72.05 1068.4 72.22 1069.3 72.56C1070.22 72.9 1071.01 73.39 1071.67 74.03C1072.33 74.65 1072.84 75.4 1073.2 76.28C1073.56 77.14 1073.74 78.09 1073.74 79.13C1073.74 80.21 1073.55 81.19 1073.17 82.07C1072.79 82.93 1072.27 83.67 1071.61 84.29C1070.95 84.89 1070.17 85.36 1069.27 85.7C1068.37 86.04 1067.39 86.21 1066.33 86.21ZM1066.33 83.06C1067.43 83.06 1068.29 82.69 1068.91 81.95C1069.53 81.21 1069.84 80.27 1069.84 79.13C1069.84 77.99 1069.54 77.06 1068.94 76.34C1068.34 75.6 1067.47 75.23 1066.33 75.23C1065.21 75.23 1064.34 75.6 1063.72 76.34C1063.1 77.08 1062.79 78.01 1062.79 79.13C1062.79 79.67 1062.87 80.18 1063.03 80.66C1063.19 81.14 1063.42 81.56 1063.72 81.92C1064.02 82.28 1064.39 82.56 1064.83 82.76C1065.27 82.96 1065.77 83.06 1066.33 83.06ZM1085.85 80.6H1080.15V86H1076.43V72.29H1080.15V77.33H1085.85V72.29H1089.57V86H1085.85V80.6ZM1104.53 86H1093.1V72.29H1096.82V82.73H1101.77V72.29H1105.46V82.73H1107.59V89.06H1104.53V86ZM1116.04 86.21C1114.94 86.21 1113.93 86.04 1113.01 85.7C1112.11 85.36 1111.33 84.89 1110.67 84.29C1110.01 83.67 1109.5 82.94 1109.14 82.1C1108.78 81.24 1108.6 80.29 1108.6 79.25C1108.6 78.15 1108.79 77.16 1109.17 76.28C1109.55 75.38 1110.07 74.62 1110.73 74C1111.39 73.38 1112.16 72.9 1113.04 72.56C1113.92 72.22 1114.86 72.05 1115.86 72.05C1116.94 72.05 1117.9 72.24 1118.74 72.62C1119.6 72.98 1120.32 73.49 1120.9 74.15C1121.48 74.79 1121.92 75.55 1122.22 76.43C1122.54 77.29 1122.7 78.22 1122.7 79.22V80H1112.2C1112.38 81.06 1112.83 81.87 1113.55 82.43C1114.29 82.99 1115.22 83.27 1116.34 83.27C1117.14 83.27 1117.88 83.13 1118.56 82.85C1119.26 82.55 1119.84 82.14 1120.3 81.62L1122.37 83.51C1121.67 84.39 1120.77 85.06 1119.67 85.52C1118.57 85.98 1117.36 86.21 1116.04 86.21ZM1115.71 75.05C1114.83 75.05 1114.09 75.29 1113.49 75.77C1112.91 76.23 1112.51 76.89 1112.29 77.75H1119.13C1119.01 76.99 1118.65 76.35 1118.05 75.83C1117.45 75.31 1116.67 75.05 1115.71 75.05ZM1125.44 72.29H1138.34V86H1134.65V75.56H1129.16V86H1125.44V72.29ZM1145.05 75.56H1140.64V72.29H1153.15V75.56H1148.74V86H1145.05V75.56ZM1155.52 86.3C1154.82 86.3 1154.28 86.1 1153.9 85.7C1153.54 85.28 1153.36 84.78 1153.36 84.2C1153.36 83.58 1153.54 83.06 1153.9 82.64C1154.26 82.22 1154.8 82.01 1155.52 82.01C1156.24 82.01 1156.79 82.22 1157.17 82.64C1157.55 83.06 1157.74 83.58 1157.74 84.2C1157.74 84.78 1157.54 85.28 1157.14 85.7C1156.76 86.1 1156.22 86.3 1155.52 86.3ZM1174.54 65H1191.07V86H1187.05V68.45H1178.56V86H1174.54V65ZM1201.7 86.21C1200.62 86.21 1199.62 86.04 1198.7 85.7C1197.8 85.36 1197.02 84.88 1196.36 84.26C1195.72 83.62 1195.21 82.87 1194.83 82.01C1194.47 81.15 1194.29 80.19 1194.29 79.13C1194.29 78.07 1194.47 77.11 1194.83 76.25C1195.21 75.37 1195.73 74.62 1196.39 74C1197.05 73.38 1197.83 72.9 1198.73 72.56C1199.65 72.22 1200.64 72.05 1201.7 72.05C1202.78 72.05 1203.77 72.22 1204.67 72.56C1205.59 72.9 1206.38 73.39 1207.04 74.03C1207.7 74.65 1208.21 75.4 1208.57 76.28C1208.93 77.14 1209.11 78.09 1209.11 79.13C1209.11 80.21 1208.92 81.19 1208.54 82.07C1208.16 82.93 1207.64 83.67 1206.98 84.29C1206.32 84.89 1205.54 85.36 1204.64 85.7C1203.74 86.04 1202.76 86.21 1201.7 86.21ZM1201.7 83.06C1202.8 83.06 1203.66 82.69 1204.28 81.95C1204.9 81.21 1205.21 80.27 1205.21 79.13C1205.21 77.99 1204.91 77.06 1204.31 76.34C1203.71 75.6 1202.84 75.23 1201.7 75.23C1200.58 75.23 1199.71 75.6 1199.09 76.34C1198.47 77.08 1198.16 78.01 1198.16 79.13C1198.16 79.67 1198.24 80.18 1198.4 80.66C1198.56 81.14 1198.79 81.56 1199.09 81.92C1199.39 82.28 1199.76 82.56 1200.2 82.76C1200.64 82.96 1201.14 83.06 1201.7 83.06ZM1230.89 86.21C1229.79 86.21 1228.8 86.04 1227.92 85.7C1227.04 85.36 1226.28 84.89 1225.64 84.29C1225.02 83.67 1224.54 82.93 1224.2 82.07C1223.86 81.21 1223.69 80.25 1223.69 79.19C1223.69 78.07 1223.87 77.07 1224.23 76.19C1224.61 75.29 1225.12 74.54 1225.76 73.94C1226.4 73.32 1227.16 72.85 1228.04 72.53C1228.92 72.21 1229.87 72.05 1230.89 72.05C1232.05 72.05 1233.1 72.25 1234.04 72.65C1235 73.05 1235.75 73.55 1236.29 74.15L1234.37 76.67C1233.97 76.23 1233.5 75.88 1232.96 75.62C1232.44 75.36 1231.85 75.23 1231.19 75.23C1230.07 75.23 1229.18 75.59 1228.52 76.31C1227.88 77.03 1227.56 77.95 1227.56 79.07C1227.56 80.23 1227.89 81.19 1228.55 81.95C1229.23 82.69 1230.14 83.06 1231.28 83.06C1231.94 83.06 1232.53 82.93 1233.05 82.67C1233.57 82.39 1234.03 82.03 1234.43 81.59L1236.62 83.75C1236.02 84.53 1235.22 85.14 1234.22 85.58C1233.24 86 1232.13 86.21 1230.89 86.21ZM1240.45 92.75L1242.76 86.15L1237.15 72.98V72.29H1240.87L1244.5 81.26L1247.68 72.29H1251.04L1251.01 72.98L1243.81 93.2H1240.45V92.75ZM1256.74 75.56H1252.33V72.29H1264.84V75.56H1260.43V86H1256.74V75.56ZM1267.12 72.29H1270.84V80.18L1277.2 72.29H1280.11V86H1276.39V77.66L1269.67 86H1267.12V72.29ZM1284.94 86.15C1284.34 86.05 1283.88 85.82 1283.56 85.46C1283.26 85.08 1283.11 84.63 1283.11 84.11C1283.11 83.45 1283.32 82.93 1283.74 82.55C1284.18 82.15 1284.7 81.95 1285.3 81.95C1285.94 81.95 1286.49 82.16 1286.95 82.58C1287.43 83 1287.67 83.6 1287.67 84.38C1287.67 84.9 1287.53 85.48 1287.25 86.12C1286.97 86.76 1286.54 87.59 1285.96 88.61L1284.76 90.8H1282.36L1284.94 86.15ZM1302.35 85.31L1306.7 78.8L1302.71 72.98V72.29H1306.61L1309.31 76.31L1311.89 72.29H1315.43V72.98L1311.5 78.89L1315.85 85.34L1315.88 86H1312.07L1309.01 81.44L1305.98 86H1302.35V85.31ZM1319.68 92.75L1321.99 86.15L1316.38 72.98V72.29H1320.1L1323.73 81.26L1326.91 72.29H1330.27L1330.24 72.98L1323.04 93.2H1319.68V92.75ZM1330.06 82.73H1331.71C1332.23 81.65 1332.62 80.45 1332.88 79.13C1333.14 77.79 1333.27 76.21 1333.27 74.39V72.29H1343.95V82.73H1346.05V89.06H1343.02V86H1333.12V89.06H1330.06V82.73ZM1336.6 75.65C1336.6 78.43 1336.19 80.79 1335.37 82.73H1340.23V75.56H1336.6V75.65ZM1354.48 86.21C1353.4 86.21 1352.4 86.04 1351.48 85.7C1350.58 85.36 1349.8 84.88 1349.14 84.26C1348.5 83.62 1347.99 82.87 1347.61 82.01C1347.25 81.15 1347.07 80.19 1347.07 79.13C1347.07 78.07 1347.25 77.11 1347.61 76.25C1347.99 75.37 1348.51 74.62 1349.17 74C1349.83 73.38 1350.61 72.9 1351.51 72.56C1352.43 72.22 1353.42 72.05 1354.48 72.05C1355.56 72.05 1356.55 72.22 1357.45 72.56C1358.37 72.9 1359.16 73.39 1359.82 74.03C1360.48 74.65 1360.99 75.4 1361.35 76.28C1361.71 77.14 1361.89 78.09 1361.89 79.13C1361.89 80.21 1361.7 81.19 1361.32 82.07C1360.94 82.93 1360.42 83.67 1359.76 84.29C1359.1 84.89 1358.32 85.36 1357.42 85.7C1356.52 86.04 1355.54 86.21 1354.48 86.21ZM1354.48 83.06C1355.58 83.06 1356.44 82.69 1357.06 81.95C1357.68 81.21 1357.99 80.27 1357.99 79.13C1357.99 77.99 1357.69 77.06 1357.09 76.34C1356.49 75.6 1355.62 75.23 1354.48 75.23C1353.36 75.23 1352.49 75.6 1351.87 76.34C1351.25 77.08 1350.94 78.01 1350.94 79.13C1350.94 79.67 1351.02 80.18 1351.18 80.66C1351.34 81.14 1351.57 81.56 1351.87 81.92C1352.17 82.28 1352.54 82.56 1352.98 82.76C1353.42 82.96 1353.92 83.06 1354.48 83.06ZM1362.37 85.49L1366.33 78.68L1363.15 72.8V72.29H1366.87L1369.48 77.39H1370.98V72.29H1374.67V77.39H1376.14L1378.78 72.29H1382.38V72.8L1379.26 78.62L1383.31 85.49V86H1379.35L1376.08 80.21H1374.67V86H1370.98V80.21H1369.54L1366.3 86H1362.37V85.49ZM1394.48 80.6H1388.78V86H1385.06V72.29H1388.78V77.33H1394.48V72.29H1398.2V86H1394.48V80.6ZM1401.73 72.29H1405.45V80.18L1411.81 72.29H1414.72V86H1411V77.66L1404.28 86H1401.73V72.29ZM1418.25 72.29H1421.97V77.33H1423.41L1426.71 72.29H1430.58V72.8L1426.5 78.53L1431.6 85.49V86H1427.46L1423.32 80.15H1421.97V86H1418.25V72.29ZM1452.88 86.27C1450.22 86.27 1448.28 85.44 1447.06 83.78C1445.84 82.12 1445.23 79.63 1445.23 76.31C1445.23 74.39 1445.43 72.75 1445.83 71.39C1446.23 70.01 1446.8 68.89 1447.54 68.03C1448.3 67.15 1449.21 66.51 1450.27 66.11C1451.35 65.69 1452.55 65.48 1453.87 65.48C1454.63 65.48 1455.21 65.41 1455.61 65.27C1456.01 65.11 1456.31 64.81 1456.51 64.37L1459.45 65.24C1459.29 65.82 1459.09 66.32 1458.85 66.74C1458.63 67.14 1458.32 67.48 1457.92 67.76C1457.52 68.04 1457.01 68.26 1456.39 68.42C1455.77 68.56 1454.98 68.66 1454.02 68.72C1453.1 68.78 1452.3 68.9 1451.62 69.08C1450.96 69.26 1450.4 69.58 1449.94 70.04C1449.5 70.48 1449.15 71.1 1448.89 71.9C1448.65 72.7 1448.49 73.74 1448.41 75.02C1448.99 73.94 1449.73 73.19 1450.63 72.77C1451.55 72.33 1452.55 72.11 1453.63 72.11C1454.63 72.11 1455.53 72.27 1456.33 72.59C1457.15 72.91 1457.84 73.37 1458.4 73.97C1458.96 74.57 1459.39 75.29 1459.69 76.13C1459.99 76.95 1460.14 77.87 1460.14 78.89C1460.14 80.01 1459.96 81.03 1459.6 81.95C1459.24 82.85 1458.74 83.62 1458.1 84.26C1457.46 84.9 1456.69 85.4 1455.79 85.76C1454.91 86.1 1453.94 86.27 1452.88 86.27ZM1452.79 83C1453.81 83 1454.63 82.66 1455.25 81.98C1455.89 81.28 1456.21 80.32 1456.21 79.1C1456.21 77.9 1455.91 76.96 1455.31 76.28C1454.73 75.58 1453.9 75.23 1452.82 75.23C1451.76 75.23 1450.92 75.57 1450.3 76.25C1449.68 76.93 1449.37 77.88 1449.37 79.1C1449.37 80.3 1449.68 81.25 1450.3 81.95C1450.92 82.65 1451.75 83 1452.79 83ZM1469.49 86.21C1468.39 86.21 1467.38 86.04 1466.46 85.7C1465.56 85.36 1464.78 84.89 1464.12 84.29C1463.46 83.67 1462.95 82.94 1462.59 82.1C1462.23 81.24 1462.05 80.29 1462.05 79.25C1462.05 78.15 1462.24 77.16 1462.62 76.28C1463 75.38 1463.52 74.62 1464.18 74C1464.84 73.38 1465.61 72.9 1466.49 72.56C1467.37 72.22 1468.31 72.05 1469.31 72.05C1470.39 72.05 1471.35 72.24 1472.19 72.62C1473.05 72.98 1473.77 73.49 1474.35 74.15C1474.93 74.79 1475.37 75.55 1475.67 76.43C1475.99 77.29 1476.15 78.22 1476.15 79.22V80H1465.65C1465.83 81.06 1466.28 81.87 1467 82.43C1467.74 82.99 1468.67 83.27 1469.79 83.27C1470.59 83.27 1471.33 83.13 1472.01 82.85C1472.71 82.55 1473.29 82.14 1473.75 81.62L1475.82 83.51C1475.12 84.39 1474.22 85.06 1473.12 85.52C1472.02 85.98 1470.81 86.21 1469.49 86.21ZM1469.16 75.05C1468.28 75.05 1467.54 75.29 1466.94 75.77C1466.36 76.23 1465.96 76.89 1465.74 77.75H1472.58C1472.46 76.99 1472.1 76.35 1471.5 75.83C1470.9 75.31 1470.12 75.05 1469.16 75.05ZM1483.01 86.21C1482.27 86.21 1481.58 86.13 1480.94 85.97C1480.32 85.81 1479.76 85.61 1479.26 85.37C1478.78 85.13 1478.36 84.87 1478 84.59C1477.66 84.31 1477.4 84.05 1477.22 83.81L1479.59 81.59C1479.91 81.99 1480.36 82.34 1480.94 82.64C1481.52 82.92 1482.19 83.06 1482.95 83.06C1484.49 83.06 1485.26 82.53 1485.26 81.47C1485.26 81.07 1485.09 80.73 1484.75 80.45C1484.41 80.17 1483.82 80.03 1482.98 80.03H1481.06V77.42H1482.56C1483.2 77.42 1483.7 77.33 1484.06 77.15C1484.42 76.95 1484.6 76.65 1484.6 76.25C1484.6 75.91 1484.42 75.65 1484.06 75.47C1483.7 75.27 1483.23 75.17 1482.65 75.17C1482.11 75.17 1481.58 75.29 1481.06 75.53C1480.56 75.75 1480.13 76.03 1479.77 76.37L1477.76 74.27C1477.98 74.01 1478.25 73.75 1478.57 73.49C1478.91 73.23 1479.3 73 1479.74 72.8C1480.18 72.58 1480.68 72.4 1481.24 72.26C1481.8 72.12 1482.41 72.05 1483.07 72.05C1483.85 72.05 1484.56 72.14 1485.2 72.32C1485.84 72.5 1486.39 72.75 1486.85 73.07C1487.31 73.37 1487.66 73.75 1487.9 74.21C1488.16 74.65 1488.29 75.14 1488.29 75.68C1488.29 76.32 1488.12 76.88 1487.78 77.36C1487.44 77.84 1486.97 78.22 1486.37 78.5C1487.27 78.78 1487.94 79.2 1488.38 79.76C1488.84 80.32 1489.07 80.99 1489.07 81.77C1489.07 82.39 1488.93 82.97 1488.65 83.51C1488.37 84.05 1487.97 84.52 1487.45 84.92C1486.93 85.32 1486.29 85.64 1485.53 85.88C1484.79 86.1 1483.95 86.21 1483.01 86.21ZM1504.27 72.29H1507.99V80.18L1514.35 72.29H1517.26V86H1513.54V77.66L1506.82 86H1504.27V72.29ZM1519.21 82.73H1520.86C1521.38 81.65 1521.77 80.45 1522.03 79.13C1522.29 77.79 1522.42 76.21 1522.42 74.39V72.29H1533.1V82.73H1535.2V89.06H1532.17V86H1522.27V89.06H1519.21V82.73ZM1525.75 75.65C1525.75 78.43 1525.34 80.79 1524.52 82.73H1529.38V75.56H1525.75V75.65ZM1543.66 86.21C1542.56 86.21 1541.55 86.04 1540.63 85.7C1539.73 85.36 1538.95 84.89 1538.29 84.29C1537.63 83.67 1537.12 82.94 1536.76 82.1C1536.4 81.24 1536.22 80.29 1536.22 79.25C1536.22 78.15 1536.41 77.16 1536.79 76.28C1537.17 75.38 1537.69 74.62 1538.35 74C1539.01 73.38 1539.78 72.9 1540.66 72.56C1541.54 72.22 1542.48 72.05 1543.48 72.05C1544.56 72.05 1545.52 72.24 1546.36 72.62C1547.22 72.98 1547.94 73.49 1548.52 74.15C1549.1 74.79 1549.54 75.55 1549.84 76.43C1550.16 77.29 1550.32 78.22 1550.32 79.22V80H1539.82C1540 81.06 1540.45 81.87 1541.17 82.43C1541.91 82.99 1542.84 83.27 1543.96 83.27C1544.76 83.27 1545.5 83.13 1546.18 82.85C1546.88 82.55 1547.46 82.14 1547.92 81.62L1549.99 83.51C1549.29 84.39 1548.39 85.06 1547.29 85.52C1546.19 85.98 1544.98 86.21 1543.66 86.21ZM1543.33 75.05C1542.45 75.05 1541.71 75.29 1541.11 75.77C1540.53 76.23 1540.13 76.89 1539.91 77.75H1546.75C1546.63 76.99 1546.27 76.35 1545.67 75.83C1545.07 75.31 1544.29 75.05 1543.33 75.05ZM1553.05 72.29H1556.77V80.18L1563.13 72.29H1566.04V86H1562.32V77.66L1555.6 86H1553.05V72.29ZM1596.26 80.42H1582.25V77.39H1596.26V80.42ZM263.77 108.29H276.67V122H272.98V111.56H267.49V122H263.77V108.29ZM280.235 129.2V108.29H283.745V110.12C284.205 109.54 284.825 109.05 285.605 108.65C286.405 108.25 287.315 108.05 288.335 108.05C289.175 108.05 289.975 108.22 290.735 108.56C291.515 108.9 292.195 109.38 292.775 110C293.375 110.62 293.845 111.37 294.185 112.25C294.545 113.11 294.725 114.07 294.725 115.13C294.725 116.19 294.545 117.16 294.185 118.04C293.825 118.9 293.345 119.64 292.745 120.26C292.165 120.88 291.485 121.36 290.705 121.7C289.945 122.04 289.155 122.21 288.335 122.21C287.435 122.21 286.605 122.05 285.845 121.73C285.085 121.39 284.455 120.94 283.955 120.38V129.2H280.235ZM287.345 111.32C286.325 111.32 285.515 111.65 284.915 112.31C284.315 112.95 283.995 113.78 283.955 114.8V115.19C283.975 116.33 284.285 117.26 284.885 117.98C285.505 118.68 286.325 119.03 287.345 119.03C288.345 119.03 289.165 118.68 289.805 117.98C290.465 117.28 290.795 116.33 290.795 115.13C290.795 114.51 290.695 113.96 290.495 113.48C290.315 113 290.065 112.6 289.745 112.28C289.445 111.96 289.085 111.72 288.665 111.56C288.245 111.4 287.805 111.32 287.345 111.32ZM304.061 122.21C302.981 122.21 301.981 122.04 301.061 121.7C300.161 121.36 299.381 120.88 298.721 120.26C298.081 119.62 297.571 118.87 297.191 118.01C296.831 117.15 296.651 116.19 296.651 115.13C296.651 114.07 296.831 113.11 297.191 112.25C297.571 111.37 298.091 110.62 298.751 110C299.411 109.38 300.191 108.9 301.091 108.56C302.011 108.22 303.001 108.05 304.061 108.05C305.141 108.05 306.131 108.22 307.031 108.56C307.951 108.9 308.741 109.39 309.401 110.03C310.061 110.65 310.571 111.4 310.931 112.28C311.291 113.14 311.471 114.09 311.471 115.13C311.471 116.21 311.281 117.19 310.901 118.07C310.521 118.93 310.001 119.67 309.341 120.29C308.681 120.89 307.901 121.36 307.001 121.7C306.101 122.04 305.121 122.21 304.061 122.21ZM304.061 119.06C305.161 119.06 306.021 118.69 306.641 117.95C307.261 117.21 307.571 116.27 307.571 115.13C307.571 113.99 307.271 113.06 306.671 112.34C306.071 111.6 305.201 111.23 304.061 111.23C302.941 111.23 302.071 111.6 301.451 112.34C300.831 113.08 300.521 114.01 300.521 115.13C300.521 115.67 300.601 116.18 300.761 116.66C300.921 117.14 301.151 117.56 301.451 117.92C301.751 118.28 302.121 118.56 302.561 118.76C303.001 118.96 303.501 119.06 304.061 119.06ZM320.551 122.21C319.451 122.21 318.461 122.04 317.581 121.7C316.701 121.36 315.941 120.89 315.301 120.29C314.681 119.67 314.201 118.93 313.861 118.07C313.521 117.21 313.351 116.25 313.351 115.19C313.351 114.07 313.531 113.07 313.891 112.19C314.271 111.29 314.781 110.54 315.421 109.94C316.061 109.32 316.821 108.85 317.701 108.53C318.581 108.21 319.531 108.05 320.551 108.05C321.711 108.05 322.761 108.25 323.701 108.65C324.661 109.05 325.411 109.55 325.951 110.15L324.031 112.67C323.631 112.23 323.161 111.88 322.621 111.62C322.101 111.36 321.511 111.23 320.851 111.23C319.731 111.23 318.841 111.59 318.181 112.31C317.541 113.03 317.221 113.95 317.221 115.07C317.221 116.23 317.551 117.19 318.211 117.95C318.891 118.69 319.801 119.06 320.941 119.06C321.601 119.06 322.191 118.93 322.711 118.67C323.231 118.39 323.691 118.03 324.091 117.59L326.281 119.75C325.681 120.53 324.881 121.14 323.881 121.58C322.901 122 321.791 122.21 320.551 122.21ZM331.666 111.56H327.256V108.29H339.766V111.56H335.356V122H331.666V111.56ZM348.124 122.21C347.044 122.21 346.044 122.04 345.124 121.7C344.224 121.36 343.444 120.88 342.784 120.26C342.144 119.62 341.634 118.87 341.254 118.01C340.894 117.15 340.714 116.19 340.714 115.13C340.714 114.07 340.894 113.11 341.254 112.25C341.634 111.37 342.154 110.62 342.814 110C343.474 109.38 344.254 108.9 345.154 108.56C346.074 108.22 347.064 108.05 348.124 108.05C349.204 108.05 350.194 108.22 351.094 108.56C352.014 108.9 352.804 109.39 353.464 110.03C354.124 110.65 354.634 111.4 354.994 112.28C355.354 113.14 355.534 114.09 355.534 115.13C355.534 116.21 355.344 117.19 354.964 118.07C354.584 118.93 354.064 119.67 353.404 120.29C352.744 120.89 351.964 121.36 351.064 121.7C350.164 122.04 349.184 122.21 348.124 122.21ZM348.124 119.06C349.224 119.06 350.084 118.69 350.704 117.95C351.324 117.21 351.634 116.27 351.634 115.13C351.634 113.99 351.334 113.06 350.734 112.34C350.134 111.6 349.264 111.23 348.124 111.23C347.004 111.23 346.134 111.6 345.514 112.34C344.894 113.08 344.584 114.01 344.584 115.13C344.584 115.67 344.664 116.18 344.824 116.66C344.984 117.14 345.214 117.56 345.514 117.92C345.814 118.28 346.184 118.56 346.624 118.76C347.064 118.96 347.564 119.06 348.124 119.06ZM366.016 129.2V108.29H369.526V110.12C369.986 109.54 370.606 109.05 371.386 108.65C372.186 108.25 373.096 108.05 374.116 108.05C374.956 108.05 375.756 108.22 376.516 108.56C377.296 108.9 377.976 109.38 378.556 110C379.156 110.62 379.626 111.37 379.966 112.25C380.326 113.11 380.506 114.07 380.506 115.13C380.506 116.19 380.326 117.16 379.966 118.04C379.606 118.9 379.126 119.64 378.526 120.26C377.946 120.88 377.266 121.36 376.486 121.7C375.726 122.04 374.936 122.21 374.116 122.21C373.216 122.21 372.386 122.05 371.626 121.73C370.866 121.39 370.236 120.94 369.736 120.38V129.2H366.016ZM373.126 111.32C372.106 111.32 371.296 111.65 370.696 112.31C370.096 112.95 369.776 113.78 369.736 114.8V115.19C369.756 116.33 370.066 117.26 370.666 117.98C371.286 118.68 372.106 119.03 373.126 119.03C374.126 119.03 374.946 118.68 375.586 117.98C376.246 117.28 376.576 116.33 376.576 115.13C376.576 114.51 376.476 113.96 376.276 113.48C376.096 113 375.846 112.6 375.526 112.28C375.226 111.96 374.866 111.72 374.446 111.56C374.026 111.4 373.586 111.32 373.126 111.32ZM389.873 122.21C388.773 122.21 387.763 122.04 386.843 121.7C385.943 121.36 385.163 120.89 384.503 120.29C383.843 119.67 383.333 118.94 382.973 118.1C382.613 117.24 382.433 116.29 382.433 115.25C382.433 114.15 382.623 113.16 383.003 112.28C383.383 111.38 383.903 110.62 384.563 110C385.223 109.38 385.993 108.9 386.873 108.56C387.753 108.22 388.693 108.05 389.693 108.05C390.773 108.05 391.733 108.24 392.573 108.62C393.433 108.98 394.153 109.49 394.733 110.15C395.313 110.79 395.753 111.55 396.053 112.43C396.373 113.29 396.533 114.22 396.533 115.22V116H386.033C386.213 117.06 386.663 117.87 387.383 118.43C388.123 118.99 389.053 119.27 390.173 119.27C390.973 119.27 391.713 119.13 392.393 118.85C393.093 118.55 393.673 118.14 394.133 117.62L396.203 119.51C395.503 120.39 394.603 121.06 393.503 121.52C392.403 121.98 391.193 122.21 389.873 122.21ZM389.543 111.05C388.663 111.05 387.923 111.29 387.323 111.77C386.743 112.23 386.343 112.89 386.123 113.75H392.963C392.843 112.99 392.483 112.35 391.883 111.83C391.283 111.31 390.503 111.05 389.543 111.05ZM400.472 108.29H403.652L407.282 116.24L410.702 108.29H413.972L416.252 122H412.772L411.452 113.99L407.912 122H406.322L402.752 114.14L401.462 122H398.162L400.472 108.29ZM425.234 122.21C424.134 122.21 423.124 122.04 422.204 121.7C421.304 121.36 420.524 120.89 419.864 120.29C419.204 119.67 418.694 118.94 418.334 118.1C417.974 117.24 417.794 116.29 417.794 115.25C417.794 114.15 417.984 113.16 418.364 112.28C418.744 111.38 419.264 110.62 419.924 110C420.584 109.38 421.354 108.9 422.234 108.56C423.114 108.22 424.054 108.05 425.054 108.05C426.134 108.05 427.094 108.24 427.934 108.62C428.794 108.98 429.514 109.49 430.094 110.15C430.674 110.79 431.114 111.55 431.414 112.43C431.734 113.29 431.894 114.22 431.894 115.22V116H421.394C421.574 117.06 422.024 117.87 422.744 118.43C423.484 118.99 424.414 119.27 425.534 119.27C426.334 119.27 427.074 119.13 427.754 118.85C428.454 118.55 429.034 118.14 429.494 117.62L431.564 119.51C430.864 120.39 429.964 121.06 428.864 121.52C427.764 121.98 426.554 122.21 425.234 122.21ZM424.904 111.05C424.024 111.05 423.284 111.29 422.684 111.77C422.104 112.23 421.704 112.89 421.484 113.75H428.324C428.204 112.99 427.844 112.35 427.244 111.83C426.644 111.31 425.864 111.05 424.904 111.05ZM441.019 122.21C439.919 122.21 438.929 122.04 438.049 121.7C437.169 121.36 436.409 120.89 435.769 120.29C435.149 119.67 434.669 118.93 434.329 118.07C433.989 117.21 433.819 116.25 433.819 115.19C433.819 114.07 433.999 113.07 434.359 112.19C434.739 111.29 435.249 110.54 435.889 109.94C436.529 109.32 437.289 108.85 438.169 108.53C439.049 108.21 439.999 108.05 441.019 108.05C442.179 108.05 443.229 108.25 444.169 108.65C445.129 109.05 445.879 109.55 446.419 110.15L444.499 112.67C444.099 112.23 443.629 111.88 443.089 111.62C442.569 111.36 441.979 111.23 441.319 111.23C440.199 111.23 439.309 111.59 438.649 112.31C438.009 113.03 437.689 113.95 437.689 115.07C437.689 116.23 438.019 117.19 438.679 117.95C439.359 118.69 440.269 119.06 441.409 119.06C442.069 119.06 442.659 118.93 443.179 118.67C443.699 118.39 444.159 118.03 444.559 117.59L446.749 119.75C446.149 120.53 445.349 121.14 444.349 121.58C443.369 122 442.259 122.21 441.019 122.21ZM448.535 122.3C448.315 122.3 448.115 122.29 447.935 122.27C447.775 122.25 447.635 122.23 447.515 122.21V118.64C447.715 118.68 447.875 118.7 447.995 118.7C448.335 118.7 448.625 118.58 448.865 118.34C449.105 118.08 449.295 117.67 449.435 117.11C449.595 116.53 449.705 115.78 449.765 114.86C449.845 113.94 449.885 112.82 449.885 111.5V108.29H460.295V122H456.605V111.56H453.305V113.18C453.305 114.9 453.195 116.34 452.975 117.5C452.775 118.66 452.465 119.6 452.045 120.32C451.645 121.02 451.145 121.53 450.545 121.85C449.965 122.15 449.295 122.3 448.535 122.3ZM470.498 122.21C469.398 122.21 468.388 122.04 467.468 121.7C466.568 121.36 465.788 120.89 465.128 120.29C464.468 119.67 463.958 118.94 463.598 118.1C463.238 117.24 463.058 116.29 463.058 115.25C463.058 114.15 463.248 113.16 463.628 112.28C464.008 111.38 464.528 110.62 465.188 110C465.848 109.38 466.618 108.9 467.498 108.56C468.378 108.22 469.318 108.05 470.318 108.05C471.398 108.05 472.358 108.24 473.198 108.62C474.058 108.98 474.778 109.49 475.358 110.15C475.938 110.79 476.378 111.55 476.678 112.43C476.998 113.29 477.158 114.22 477.158 115.22V116H466.658C466.838 117.06 467.288 117.87 468.008 118.43C468.748 118.99 469.678 119.27 470.798 119.27C471.598 119.27 472.338 119.13 473.018 118.85C473.718 118.55 474.298 118.14 474.758 117.62L476.828 119.51C476.128 120.39 475.228 121.06 474.128 121.52C473.028 121.98 471.818 122.21 470.498 122.21ZM470.168 111.05C469.288 111.05 468.548 111.29 467.948 111.77C467.368 112.23 466.968 112.89 466.748 113.75H473.588C473.468 112.99 473.108 112.35 472.508 111.83C471.908 111.31 471.128 111.05 470.168 111.05ZM489.313 116.6H483.613V122H479.893V108.29H483.613V113.33H489.313V108.29H493.033V122H489.313V116.6ZM505.983 116.6H500.283V122H496.563V108.29H500.283V113.33H505.983V108.29H509.703V122H505.983V116.6ZM513.233 108.29H516.953V116.18L523.313 108.29H526.223V122H522.503V113.66L515.783 122H513.233V108.29ZM529.756 108.29H533.476V113.33H534.916L538.216 108.29H542.086V108.8L538.006 114.53L543.106 121.49V122H538.966L534.826 116.15H533.476V122H529.756V108.29ZM546.884 122.3C546.184 122.3 545.644 122.1 545.264 121.7C544.904 121.28 544.724 120.78 544.724 120.2C544.724 119.58 544.904 119.06 545.264 118.64C545.624 118.22 546.164 118.01 546.884 118.01C547.604 118.01 548.154 118.22 548.534 118.64C548.914 119.06 549.104 119.58 549.104 120.2C549.104 120.78 548.904 121.28 548.504 121.7C548.124 122.1 547.584 122.3 546.884 122.3Z" fill="black"/>
<defs>
<linearGradient id="paint0_linear_50_19" x1="9.49516" y1="88.0213" x2="1877.96" y2="88.0213" gradientUnits="userSpaceOnUse">
<stop stop-color="white" stop-opacity="0.64"/>
<stop offset="0.325" stop-color="#2736C1" stop-opacity="0.72"/>
<stop offset="1" stop-color="#091FEA"/>
</linearGradient>
</defs>
</svg>
