<svg width="714" height="69" viewBox="0 0 714 69" fill="none" xmlns="http://www.w3.org/2000/svg">
<mask id="path-1-outside-1_26_35" maskUnits="userSpaceOnUse" x="-1" y="-1" width="717" height="71" fill="black">
<rect fill="white" x="-1" y="-1" width="717" height="71"/>
<path d="M75.368 0.895994H89.384V68H81.512V8.768H80.168L48.872 68H41.096L9.8 8.768H8.456V68H0.584V0.895994H14.504L44.936 58.496L75.368 0.895994ZM167.815 8.768H112.519V30.56H167.815V38.432H112.519V60.128H167.815V68H104.647V0.895994H167.815V8.768ZM261.224 0.895994V60.128H266.12V68.096H177.32V60.128H182.216V12.032C182.504 5.984 187.304 1.184 193.352 0.895994H261.224ZM190.088 60.128H253.256V8.768H193.736C192.776 8.86399 191.912 9.248 191.24 9.92C190.568 10.592 190.184 11.456 190.088 12.416V60.128ZM343.17 0.895994H357.09V68H349.218V8.768H347.01L292.098 68H278.178V0.895994H286.05V60.128H288.642L343.17 0.895994ZM435.661 60.128H440.557V68.096H372.493V0.895994H380.365V60.128H427.693V0.895994H435.661V60.128ZM517.639 0.895994H531.559V68H523.687V8.768H521.479L466.567 68H452.647V0.895994H460.519V60.128H463.111L517.639 0.895994ZM617.905 0.895994H625.777V68H617.905V38.432H554.737V68H546.865V0.895994H554.737V30.56H617.905V0.895994ZM683.036 0.895994L713.756 68H705.116L698.492 53.6H650.108L643.484 68H634.844L665.564 0.895994H683.036ZM653.756 45.632H694.844L677.948 8.768H670.652L653.756 45.632Z"/>
</mask>
<path d="M75.368 0.895994V-0.104006H74.7654L74.4838 0.428852L75.368 0.895994ZM89.384 0.895994H90.384V-0.104006H89.384V0.895994ZM89.384 68V69H90.384V68H89.384ZM81.512 68H80.512V69H81.512V68ZM81.512 8.768H82.512V7.768H81.512V8.768ZM80.168 8.768V7.768H79.5654L79.2838 8.30083L80.168 8.768ZM48.872 68V69H49.4746L49.7562 68.4672L48.872 68ZM41.096 68L40.2118 68.4672L40.4934 69H41.096V68ZM9.8 8.768L10.6842 8.30083L10.4026 7.768H9.8V8.768ZM8.456 8.768V7.768H7.456V8.768H8.456ZM8.456 68V69H9.456V68H8.456ZM0.584001 68H-0.415999V69H0.584001V68ZM0.584001 0.895994V-0.104006H-0.415999V0.895994H0.584001ZM14.504 0.895994L15.3882 0.428852L15.1067 -0.104006H14.504V0.895994ZM44.936 58.496L44.0518 58.9631L44.936 60.6367L45.8202 58.9631L44.936 58.496ZM75.368 1.89599H89.384V-0.104006H75.368V1.89599ZM88.384 0.895994V68H90.384V0.895994H88.384ZM89.384 67H81.512V69H89.384V67ZM82.512 68V8.768H80.512V68H82.512ZM81.512 7.768H80.168V9.768H81.512V7.768ZM79.2838 8.30083L47.9878 67.5328L49.7562 68.4672L81.0522 9.23516L79.2838 8.30083ZM48.872 67H41.096V69H48.872V67ZM41.9802 67.5328L10.6842 8.30083L8.91583 9.23516L40.2118 68.4672L41.9802 67.5328ZM9.8 7.768H8.456V9.768H9.8V7.768ZM7.456 8.768V68H9.456V8.768H7.456ZM8.456 67H0.584001V69H8.456V67ZM1.584 68V0.895994H-0.415999V68H1.584ZM0.584001 1.89599H14.504V-0.104006H0.584001V1.89599ZM13.6198 1.36314L44.0518 58.9631L45.8202 58.0289L15.3882 0.428852L13.6198 1.36314ZM45.8202 58.9631L76.2522 1.36314L74.4838 0.428852L44.0518 58.0289L45.8202 58.9631ZM167.814 8.768V9.768H168.814V8.768H167.814ZM112.519 8.768V7.768H111.519V8.768H112.519ZM112.519 30.56H111.519V31.56H112.519V30.56ZM167.814 30.56H168.814V29.56H167.814V30.56ZM167.814 38.432V39.432H168.814V38.432H167.814ZM112.519 38.432V37.432H111.519V38.432H112.519ZM112.519 60.128H111.519V61.128H112.519V60.128ZM167.814 60.128H168.814V59.128H167.814V60.128ZM167.814 68V69H168.814V68H167.814ZM104.646 68H103.646V69H104.646V68ZM104.646 0.895994V-0.104006H103.646V0.895994H104.646ZM167.814 0.895994H168.814V-0.104006H167.814V0.895994ZM167.814 7.768H112.519V9.768H167.814V7.768ZM111.519 8.768V30.56H113.519V8.768H111.519ZM112.519 31.56H167.814V29.56H112.519V31.56ZM166.814 30.56V38.432H168.814V30.56H166.814ZM167.814 37.432H112.519V39.432H167.814V37.432ZM111.519 38.432V60.128H113.519V38.432H111.519ZM112.519 61.128H167.814V59.128H112.519V61.128ZM166.814 60.128V68H168.814V60.128H166.814ZM167.814 67H104.646V69H167.814V67ZM105.646 68V0.895994H103.646V68H105.646ZM104.646 1.89599H167.814V-0.104006H104.646V1.89599ZM166.814 0.895994V8.768H168.814V0.895994H166.814ZM261.224 0.895994H262.224V-0.104006H261.224V0.895994ZM261.224 60.128H260.224V61.128H261.224V60.128ZM266.12 60.128H267.12V59.128H266.12V60.128ZM266.12 68.096V69.096H267.12V68.096H266.12ZM177.32 68.096H176.32V69.096H177.32V68.096ZM177.32 60.128V59.128H176.32V60.128H177.32ZM182.216 60.128V61.128H183.216V60.128H182.216ZM182.216 12.032L181.217 11.9844L181.216 12.0082V12.032H182.216ZM193.352 0.895994V-0.104006H193.328L193.304 -0.102874L193.352 0.895994ZM190.088 60.128H189.088V61.128H190.088V60.128ZM253.256 60.128V61.128H254.256V60.128H253.256ZM253.256 8.768H254.256V7.768H253.256V8.768ZM193.736 8.768V7.768H193.686L193.637 7.77296L193.736 8.768ZM191.24 9.92L191.947 10.6271V10.6271L191.24 9.92ZM190.088 12.416L189.093 12.3165L189.088 12.3661V12.416H190.088ZM260.224 0.895994V60.128H262.224V0.895994H260.224ZM261.224 61.128H266.12V59.128H261.224V61.128ZM265.12 60.128V68.096H267.12V60.128H265.12ZM266.12 67.096H177.32V69.096H266.12V67.096ZM178.32 68.096V60.128H176.32V68.096H178.32ZM177.32 61.128H182.216V59.128H177.32V61.128ZM183.216 60.128V12.032H181.216V60.128H183.216ZM183.215 12.0796C183.478 6.54645 187.866 2.15835 193.4 1.89486L193.304 -0.102874C186.742 0.209647 181.53 5.42154 181.217 11.9844L183.215 12.0796ZM193.352 1.89599H261.224V-0.104006H193.352V1.89599ZM190.088 61.128H253.256V59.128H190.088V61.128ZM254.256 60.128V8.768H252.256V60.128H254.256ZM253.256 7.768H193.736V9.768H253.256V7.768ZM193.637 7.77296C192.467 7.88995 191.382 8.36415 190.533 9.21289L191.947 10.6271C192.442 10.1318 193.085 9.83804 193.836 9.76303L193.637 7.77296ZM190.533 9.21289C189.684 10.0616 189.21 11.1465 189.093 12.3165L191.083 12.5155C191.158 11.7654 191.452 11.1224 191.947 10.6271L190.533 9.21289ZM189.088 12.416V60.128H191.088V12.416H189.088ZM343.17 0.895994V-0.104006H342.731L342.434 0.218705L343.17 0.895994ZM357.09 0.895994H358.09V-0.104006H357.09V0.895994ZM357.09 68V69H358.09V68H357.09ZM349.218 68H348.218V69H349.218V68ZM349.218 8.768H350.218V7.768H349.218V8.768ZM347.01 8.768V7.768H346.573L346.276 8.08814L347.01 8.768ZM292.098 68V69H292.534L292.831 68.6799L292.098 68ZM278.178 68H277.178V69H278.178V68ZM278.178 0.895994V-0.104006H277.178V0.895994H278.178ZM286.05 0.895994H287.05V-0.104006H286.05V0.895994ZM286.05 60.128H285.05V61.128H286.05V60.128ZM288.642 60.128V61.128H289.08L289.377 60.8053L288.642 60.128ZM343.17 1.89599H357.09V-0.104006H343.17V1.89599ZM356.09 0.895994V68H358.09V0.895994H356.09ZM357.09 67H349.218V69H357.09V67ZM350.218 68V8.768H348.218V68H350.218ZM349.218 7.768H347.01V9.768H349.218V7.768ZM346.276 8.08814L291.364 67.3201L292.831 68.6799L347.743 9.44785L346.276 8.08814ZM292.098 67H278.178V69H292.098V67ZM279.178 68V0.895994H277.178V68H279.178ZM278.178 1.89599H286.05V-0.104006H278.178V1.89599ZM285.05 0.895994V60.128H287.05V0.895994H285.05ZM286.05 61.128H288.642V59.128H286.05V61.128ZM289.377 60.8053L343.905 1.57328L342.434 0.218705L287.906 59.4507L289.377 60.8053ZM435.66 60.128H434.66V61.128H435.66V60.128ZM440.557 60.128H441.557V59.128H440.557V60.128ZM440.557 68.096V69.096H441.557V68.096H440.557ZM372.492 68.096H371.492V69.096H372.492V68.096ZM372.492 0.895994V-0.104006H371.492V0.895994H372.492ZM380.365 0.895994H381.365V-0.104006H380.365V0.895994ZM380.365 60.128H379.365V61.128H380.365V60.128ZM427.693 60.128V61.128H428.693V60.128H427.693ZM427.693 0.895994V-0.104006H426.693V0.895994H427.693ZM435.66 0.895994H436.66V-0.104006H435.66V0.895994ZM435.66 61.128H440.557V59.128H435.66V61.128ZM439.557 60.128V68.096H441.557V60.128H439.557ZM440.557 67.096H372.492V69.096H440.557V67.096ZM373.492 68.096V0.895994H371.492V68.096H373.492ZM372.492 1.89599H380.365V-0.104006H372.492V1.89599ZM379.365 0.895994V60.128H381.365V0.895994H379.365ZM380.365 61.128H427.693V59.128H380.365V61.128ZM428.693 60.128V0.895994H426.693V60.128H428.693ZM427.693 1.89599H435.66V-0.104006H427.693V1.89599ZM434.66 0.895994V60.128H436.66V0.895994H434.66ZM517.638 0.895994V-0.104006H517.2L516.903 0.218705L517.638 0.895994ZM531.558 0.895994H532.558V-0.104006H531.558V0.895994ZM531.558 68V69H532.558V68H531.558ZM523.687 68H522.687V69H523.687V68ZM523.687 8.768H524.687V7.768H523.687V8.768ZM521.479 8.768V7.768H521.042L520.745 8.08814L521.479 8.768ZM466.566 68V69H467.003L467.3 68.6799L466.566 68ZM452.647 68H451.647V69H452.647V68ZM452.647 0.895994V-0.104006H451.647V0.895994H452.647ZM460.518 0.895994H461.518V-0.104006H460.518V0.895994ZM460.518 60.128H459.518V61.128H460.518V60.128ZM463.111 60.128V61.128H463.549L463.846 60.8053L463.111 60.128ZM517.638 1.89599H531.558V-0.104006H517.638V1.89599ZM530.558 0.895994V68H532.558V0.895994H530.558ZM531.558 67H523.687V69H531.558V67ZM524.687 68V8.768H522.687V68H524.687ZM523.687 7.768H521.479V9.768H523.687V7.768ZM520.745 8.08814L465.833 67.3201L467.3 68.6799L522.212 9.44785L520.745 8.08814ZM466.566 67H452.647V69H466.566V67ZM453.647 68V0.895994H451.647V68H453.647ZM452.647 1.89599H460.518V-0.104006H452.647V1.89599ZM459.518 0.895994V60.128H461.518V0.895994H459.518ZM460.518 61.128H463.111V59.128H460.518V61.128ZM463.846 60.8053L518.374 1.57328L516.903 0.218705L462.375 59.4507L463.846 60.8053ZM617.905 0.895994V-0.104006H616.905V0.895994H617.905ZM625.777 0.895994H626.777V-0.104006H625.777V0.895994ZM625.777 68V69H626.777V68H625.777ZM617.905 68H616.905V69H617.905V68ZM617.905 38.432H618.905V37.432H617.905V38.432ZM554.737 38.432V37.432H553.737V38.432H554.737ZM554.737 68V69H555.737V68H554.737ZM546.865 68H545.865V69H546.865V68ZM546.865 0.895994V-0.104006H545.865V0.895994H546.865ZM554.737 0.895994H555.737V-0.104006H554.737V0.895994ZM554.737 30.56H553.737V31.56H554.737V30.56ZM617.905 30.56V31.56H618.905V30.56H617.905ZM617.905 1.89599H625.777V-0.104006H617.905V1.89599ZM624.777 0.895994V68H626.777V0.895994H624.777ZM625.777 67H617.905V69H625.777V67ZM618.905 68V38.432H616.905V68H618.905ZM617.905 37.432H554.737V39.432H617.905V37.432ZM553.737 38.432V68H555.737V38.432H553.737ZM554.737 67H546.865V69H554.737V67ZM547.865 68V0.895994H545.865V68H547.865ZM546.865 1.89599H554.737V-0.104006H546.865V1.89599ZM553.737 0.895994V30.56H555.737V0.895994H553.737ZM554.737 31.56H617.905V29.56H554.737V31.56ZM618.905 30.56V0.895994H616.905V30.56H618.905ZM683.036 0.895994L683.945 0.479743L683.678 -0.104006H683.036V0.895994ZM713.756 68V69H715.314L714.665 67.5837L713.756 68ZM705.116 68L704.208 68.4179L704.475 69H705.116V68ZM698.492 53.6L699.401 53.1821L699.133 52.6H698.492V53.6ZM650.108 53.6V52.6H649.467L649.2 53.1821L650.108 53.6ZM643.484 68V69H644.125L644.393 68.4179L643.484 68ZM634.844 68L633.935 67.5837L633.286 69H634.844V68ZM665.564 0.895994V-0.104006H664.922L664.655 0.479743L665.564 0.895994ZM653.756 45.632L652.847 45.2153L652.198 46.632H653.756V45.632ZM694.844 45.632V46.632H696.402L695.753 45.2153L694.844 45.632ZM677.948 8.768L678.857 8.35134L678.59 7.768H677.948V8.768ZM670.652 8.768V7.768H670.01L669.743 8.35134L670.652 8.768ZM682.127 1.31225L712.847 68.4163L714.665 67.5837L683.945 0.479743L682.127 1.31225ZM713.756 67H705.116V69H713.756V67ZM706.024 67.5821L699.401 53.1821L697.583 54.0179L704.208 68.4179L706.024 67.5821ZM698.492 52.6H650.108V54.6H698.492V52.6ZM649.2 53.1821L642.576 67.5821L644.393 68.4179L651.016 54.0179L649.2 53.1821ZM643.484 67H634.844V69H643.484V67ZM635.753 68.4163L666.473 1.31225L664.655 0.479743L633.935 67.5837L635.753 68.4163ZM665.564 1.89599H683.036V-0.104006H665.564V1.89599ZM653.756 46.632H694.844V44.632H653.756V46.632ZM695.753 45.2153L678.857 8.35134L677.039 9.18465L693.935 46.0487L695.753 45.2153ZM677.948 7.768H670.652V9.768H677.948V7.768ZM669.743 8.35134L652.847 45.2153L654.665 46.0487L671.561 9.18465L669.743 8.35134Z" fill="black" fill-opacity="0.53" mask="url(#path-1-outside-1_26_35)"/>
</svg>
