<svg width="180" height="18" viewBox="0 0 180 18" fill="none" xmlns="http://www.w3.org/2000/svg">
<mask id="path-1-outside-1_52_12" maskUnits="userSpaceOnUse" x="-1" y="-1" width="182" height="20" fill="black">
<rect fill="white" x="-1" y="-1" width="182" height="20"/>
<path d="M19.592 0.223999H23.096V17H21.128V2.192H20.792L12.968 17H11.024L3.2 2.192H2.864V17H0.896V0.223999H4.376L11.984 14.624L19.592 0.223999ZM42.7036 2.192H28.8796V7.64H42.7036V9.608H28.8796V15.032H42.7036V17H26.9116V0.223999H42.7036V2.192ZM66.056 0.223999V15.032H67.28V17.024H45.08V15.032H46.304V3.008C46.376 1.496 47.576 0.295999 49.088 0.223999H66.056ZM48.272 15.032H64.064V2.192H49.184C48.944 2.216 48.728 2.312 48.56 2.48C48.392 2.648 48.296 2.864 48.272 3.104V15.032ZM86.5424 0.223999H90.0224V17H88.0544V2.192H87.5024L73.7744 17H70.2944V0.223999H72.2624V15.032H72.9104L86.5424 0.223999ZM109.665 15.032H110.889V17.024H93.8731V0.223999H95.8411V15.032H107.673V0.223999H109.665V15.032ZM130.16 0.223999H133.64V17H131.672V2.192H131.12L117.392 17H113.912V0.223999H115.88V15.032H116.528L130.16 0.223999ZM155.226 0.223999H157.194V17H155.226V9.608H139.434V17H137.466V0.223999H139.434V7.64H155.226V0.223999ZM171.509 0.223999L179.189 17H177.029L175.373 13.4H163.277L161.621 17H159.461L167.141 0.223999H171.509ZM164.189 11.408H174.461L170.237 2.192H168.413L164.189 11.408Z"/>
</mask>
<path d="M19.592 0.223999V-0.776001H18.9893L18.7078 -0.243144L19.592 0.223999ZM23.096 0.223999H24.096V-0.776001H23.096V0.223999ZM23.096 17V18H24.096V17H23.096ZM21.128 17H20.128V18H21.128V17ZM21.128 2.192H22.128V1.192H21.128V2.192ZM20.792 2.192V1.192H20.1894L19.9078 1.72484L20.792 2.192ZM12.968 17V18H13.5706L13.8522 17.4672L12.968 17ZM11.024 17L10.1398 17.4672L10.4214 18H11.024V17ZM3.2 2.192L4.08417 1.72484L3.80264 1.192H3.2V2.192ZM2.864 2.192V1.192H1.864V2.192H2.864ZM2.864 17V18H3.864V17H2.864ZM0.896 17H-0.104V18H0.896V17ZM0.896 0.223999V-0.776001H-0.104V0.223999H0.896ZM4.376 0.223999L5.26018 -0.243144L4.97866 -0.776001H4.376V0.223999ZM11.984 14.624L11.0998 15.0911L11.984 16.7647L12.8682 15.0911L11.984 14.624ZM19.592 1.224H23.096V-0.776001H19.592V1.224ZM22.096 0.223999V17H24.096V0.223999H22.096ZM23.096 16H21.128V18H23.096V16ZM22.128 17V2.192H20.128V17H22.128ZM21.128 1.192H20.792V3.192H21.128V1.192ZM19.9078 1.72484L12.0838 16.5328L13.8522 17.4672L21.6762 2.65916L19.9078 1.72484ZM12.968 16H11.024V18H12.968V16ZM11.9082 16.5328L4.08417 1.72484L2.31583 2.65916L10.1398 17.4672L11.9082 16.5328ZM3.2 1.192H2.864V3.192H3.2V1.192ZM1.864 2.192V17H3.864V2.192H1.864ZM2.864 16H0.896V18H2.864V16ZM1.896 17V0.223999H-0.104V17H1.896ZM0.896 1.224H4.376V-0.776001H0.896V1.224ZM3.49182 0.691141L11.0998 15.0911L12.8682 14.1569L5.26018 -0.243144L3.49182 0.691141ZM12.8682 15.0911L20.4762 0.691141L18.7078 -0.243144L11.0998 14.1569L12.8682 15.0911ZM42.7036 2.192V3.192H43.7036V2.192H42.7036ZM28.8796 2.192V1.192H27.8796V2.192H28.8796ZM28.8796 7.64H27.8796V8.64H28.8796V7.64ZM42.7036 7.64H43.7036V6.64H42.7036V7.64ZM42.7036 9.608V10.608H43.7036V9.608H42.7036ZM28.8796 9.608V8.608H27.8796V9.608H28.8796ZM28.8796 15.032H27.8796V16.032H28.8796V15.032ZM42.7036 15.032H43.7036V14.032H42.7036V15.032ZM42.7036 17V18H43.7036V17H42.7036ZM26.9116 17H25.9116V18H26.9116V17ZM26.9116 0.223999V-0.776001H25.9116V0.223999H26.9116ZM42.7036 0.223999H43.7036V-0.776001H42.7036V0.223999ZM42.7036 1.192H28.8796V3.192H42.7036V1.192ZM27.8796 2.192V7.64H29.8796V2.192H27.8796ZM28.8796 8.64H42.7036V6.64H28.8796V8.64ZM41.7036 7.64V9.608H43.7036V7.64H41.7036ZM42.7036 8.608H28.8796V10.608H42.7036V8.608ZM27.8796 9.608V15.032H29.8796V9.608H27.8796ZM28.8796 16.032H42.7036V14.032H28.8796V16.032ZM41.7036 15.032V17H43.7036V15.032H41.7036ZM42.7036 16H26.9116V18H42.7036V16ZM27.9116 17V0.223999H25.9116V17H27.9116ZM26.9116 1.224H42.7036V-0.776001H26.9116V1.224ZM41.7036 0.223999V2.192H43.7036V0.223999H41.7036ZM66.056 0.223999H67.056V-0.776001H66.056V0.223999ZM66.056 15.032H65.056V16.032H66.056V15.032ZM67.28 15.032H68.28V14.032H67.28V15.032ZM67.28 17.024V18.024H68.28V17.024H67.28ZM45.08 17.024H44.08V18.024H45.08V17.024ZM45.08 15.032V14.032H44.08V15.032H45.08ZM46.304 15.032V16.032H47.304V15.032H46.304ZM46.304 3.008L45.3051 2.96043L45.304 2.9842V3.008H46.304ZM49.088 0.223999V-0.776001H49.0642L49.0404 -0.77487L49.088 0.223999ZM48.272 15.032H47.272V16.032H48.272V15.032ZM64.064 15.032V16.032H65.064V15.032H64.064ZM64.064 2.192H65.064V1.192H64.064V2.192ZM49.184 2.192V1.192H49.1341L49.0845 1.19696L49.184 2.192ZM48.56 2.48L49.2671 3.18711L49.2671 3.1871L48.56 2.48ZM48.272 3.104L47.277 3.00449L47.272 3.05412V3.104H48.272ZM65.056 0.223999V15.032H67.056V0.223999H65.056ZM66.056 16.032H67.28V14.032H66.056V16.032ZM66.28 15.032V17.024H68.28V15.032H66.28ZM67.28 16.024H45.08V18.024H67.28V16.024ZM46.08 17.024V15.032H44.08V17.024H46.08ZM45.08 16.032H46.304V14.032H45.08V16.032ZM47.304 15.032V3.008H45.304V15.032H47.304ZM47.3029 3.05557C47.3503 2.05846 48.1385 1.27035 49.1356 1.22287L49.0404 -0.77487C47.0135 -0.67835 45.4016 0.933542 45.3051 2.96043L47.3029 3.05557ZM49.088 1.224H66.056V-0.776001H49.088V1.224ZM48.272 16.032H64.064V14.032H48.272V16.032ZM65.064 15.032V2.192H63.064V15.032H65.064ZM64.064 1.192H49.184V3.192H64.064V1.192ZM49.0845 1.19696C48.6345 1.24196 48.1976 1.42816 47.8529 1.77289L49.2671 3.1871C49.2669 3.18735 49.2658 3.1883 49.2642 3.18946C49.2625 3.1906 49.2612 3.19126 49.2608 3.19147C49.2594 3.1921 49.2657 3.18882 49.2835 3.18704L49.0845 1.19696ZM47.8529 1.77289C47.5082 2.11763 47.322 2.55455 47.277 3.00449L49.267 3.2035C49.2688 3.18571 49.2721 3.17939 49.2715 3.18076C49.2713 3.18123 49.2706 3.18252 49.2695 3.18417C49.2683 3.18584 49.2673 3.18687 49.2671 3.18711L47.8529 1.77289ZM47.272 3.104V15.032H49.272V3.104H47.272ZM86.5424 0.223999V-0.776001H86.1038L85.8067 -0.45329L86.5424 0.223999ZM90.0224 0.223999H91.0224V-0.776001H90.0224V0.223999ZM90.0224 17V18H91.0224V17H90.0224ZM88.0544 17H87.0544V18H88.0544V17ZM88.0544 2.192H89.0544V1.192H88.0544V2.192ZM87.5024 2.192V1.192H87.0659L86.7691 1.51214L87.5024 2.192ZM73.7744 17V18H74.211L74.5078 17.6799L73.7744 17ZM70.2944 17H69.2944V18H70.2944V17ZM70.2944 0.223999V-0.776001H69.2944V0.223999H70.2944ZM72.2624 0.223999H73.2624V-0.776001H72.2624V0.223999ZM72.2624 15.032H71.2624V16.032H72.2624V15.032ZM72.9104 15.032V16.032H73.3491L73.6462 15.7093L72.9104 15.032ZM86.5424 1.224H90.0224V-0.776001H86.5424V1.224ZM89.0224 0.223999V17H91.0224V0.223999H89.0224ZM90.0224 16H88.0544V18H90.0224V16ZM89.0544 17V2.192H87.0544V17H89.0544ZM88.0544 1.192H87.5024V3.192H88.0544V1.192ZM86.7691 1.51214L73.0411 16.3201L74.5078 17.6799L88.2358 2.87186L86.7691 1.51214ZM73.7744 16H70.2944V18H73.7744V16ZM71.2944 17V0.223999H69.2944V17H71.2944ZM70.2944 1.224H72.2624V-0.776001H70.2944V1.224ZM71.2624 0.223999V15.032H73.2624V0.223999H71.2624ZM72.2624 16.032H72.9104V14.032H72.2624V16.032ZM73.6462 15.7093L87.2782 0.901288L85.8067 -0.45329L72.1747 14.3547L73.6462 15.7093ZM109.665 15.032H108.665V16.032H109.665V15.032ZM110.889 15.032H111.889V14.032H110.889V15.032ZM110.889 17.024V18.024H111.889V17.024H110.889ZM93.8731 17.024H92.8731V18.024H93.8731V17.024ZM93.8731 0.223999V-0.776001H92.8731V0.223999H93.8731ZM95.8411 0.223999H96.8411V-0.776001H95.8411V0.223999ZM95.8411 15.032H94.8411V16.032H95.8411V15.032ZM107.673 15.032V16.032H108.673V15.032H107.673ZM107.673 0.223999V-0.776001H106.673V0.223999H107.673ZM109.665 0.223999H110.665V-0.776001H109.665V0.223999ZM109.665 16.032H110.889V14.032H109.665V16.032ZM109.889 15.032V17.024H111.889V15.032H109.889ZM110.889 16.024H93.8731V18.024H110.889V16.024ZM94.8731 17.024V0.223999H92.8731V17.024H94.8731ZM93.8731 1.224H95.8411V-0.776001H93.8731V1.224ZM94.8411 0.223999V15.032H96.8411V0.223999H94.8411ZM95.8411 16.032H107.673V14.032H95.8411V16.032ZM108.673 15.032V0.223999H106.673V15.032H108.673ZM107.673 1.224H109.665V-0.776001H107.673V1.224ZM108.665 0.223999V15.032H110.665V0.223999H108.665ZM130.16 0.223999V-0.776001H129.721L129.424 -0.45329L130.16 0.223999ZM133.64 0.223999H134.64V-0.776001H133.64V0.223999ZM133.64 17V18H134.64V17H133.64ZM131.672 17H130.672V18H131.672V17ZM131.672 2.192H132.672V1.192H131.672V2.192ZM131.12 2.192V1.192H130.683L130.386 1.51214L131.12 2.192ZM117.392 17V18H117.828L118.125 17.6799L117.392 17ZM113.912 17H112.912V18H113.912V17ZM113.912 0.223999V-0.776001H112.912V0.223999H113.912ZM115.88 0.223999H116.88V-0.776001H115.88V0.223999ZM115.88 15.032H114.88V16.032H115.88V15.032ZM116.528 15.032V16.032H116.966L117.263 15.7093L116.528 15.032ZM130.16 1.224H133.64V-0.776001H130.16V1.224ZM132.64 0.223999V17H134.64V0.223999H132.64ZM133.64 16H131.672V18H133.64V16ZM132.672 17V2.192H130.672V17H132.672ZM131.672 1.192H131.12V3.192H131.672V1.192ZM130.386 1.51214L116.658 16.3201L118.125 17.6799L131.853 2.87186L130.386 1.51214ZM117.392 16H113.912V18H117.392V16ZM114.912 17V0.223999H112.912V17H114.912ZM113.912 1.224H115.88V-0.776001H113.912V1.224ZM114.88 0.223999V15.032H116.88V0.223999H114.88ZM115.88 16.032H116.528V14.032H115.88V16.032ZM117.263 15.7093L130.895 0.901288L129.424 -0.45329L115.792 14.3547L117.263 15.7093ZM155.226 0.223999V-0.776001H154.226V0.223999H155.226ZM157.194 0.223999H158.194V-0.776001H157.194V0.223999ZM157.194 17V18H158.194V17H157.194ZM155.226 17H154.226V18H155.226V17ZM155.226 9.608H156.226V8.608H155.226V9.608ZM139.434 9.608V8.608H138.434V9.608H139.434ZM139.434 17V18H140.434V17H139.434ZM137.466 17H136.466V18H137.466V17ZM137.466 0.223999V-0.776001H136.466V0.223999H137.466ZM139.434 0.223999H140.434V-0.776001H139.434V0.223999ZM139.434 7.64H138.434V8.64H139.434V7.64ZM155.226 7.64V8.64H156.226V7.64H155.226ZM155.226 1.224H157.194V-0.776001H155.226V1.224ZM156.194 0.223999V17H158.194V0.223999H156.194ZM157.194 16H155.226V18H157.194V16ZM156.226 17V9.608H154.226V17H156.226ZM155.226 8.608H139.434V10.608H155.226V8.608ZM138.434 9.608V17H140.434V9.608H138.434ZM139.434 16H137.466V18H139.434V16ZM138.466 17V0.223999H136.466V17H138.466ZM137.466 1.224H139.434V-0.776001H137.466V1.224ZM138.434 0.223999V7.64H140.434V0.223999H138.434ZM139.434 8.64H155.226V6.64H139.434V8.64ZM156.226 7.64V0.223999H154.226V7.64H156.226ZM171.509 0.223999L172.418 -0.192253L172.151 -0.776001H171.509V0.223999ZM179.189 17V18H180.747L180.098 16.5837L179.189 17ZM177.029 17L176.121 17.4179L176.388 18H177.029V17ZM175.373 13.4L176.281 12.9821L176.014 12.4H175.373V13.4ZM163.277 13.4V12.4H162.636L162.369 12.9821L163.277 13.4ZM161.621 17V18H162.262L162.529 17.4179L161.621 17ZM159.461 17L158.552 16.5837L157.903 18H159.461V17ZM167.141 0.223999V-0.776001H166.499L166.232 -0.192253L167.141 0.223999ZM164.189 11.408L163.28 10.9913L162.631 12.408H164.189V11.408ZM174.461 11.408V12.408H176.019L175.37 10.9913L174.461 11.408ZM170.237 2.192L171.146 1.77534L170.879 1.192H170.237V2.192ZM168.413 2.192V1.192H167.771L167.504 1.77534L168.413 2.192ZM170.6 0.64025L178.28 17.4163L180.098 16.5837L172.418 -0.192253L170.6 0.64025ZM179.189 16H177.029V18H179.189V16ZM177.937 16.5821L176.281 12.9821L174.465 13.8179L176.121 17.4179L177.937 16.5821ZM175.373 12.4H163.277V14.4H175.373V12.4ZM162.369 12.9821L160.713 16.5821L162.529 17.4179L164.185 13.8179L162.369 12.9821ZM161.621 16H159.461V18H161.621V16ZM160.37 17.4163L168.05 0.64025L166.232 -0.192253L158.552 16.5837L160.37 17.4163ZM167.141 1.224H171.509V-0.776001H167.141V1.224ZM164.189 12.408H174.461V10.408H164.189V12.408ZM175.37 10.9913L171.146 1.77534L169.328 2.60865L173.552 11.8247L175.37 10.9913ZM170.237 1.192H168.413V3.192H170.237V1.192ZM167.504 1.77534L163.28 10.9913L165.098 11.8247L169.322 2.60865L167.504 1.77534Z" fill="black" fill-opacity="0.23" mask="url(#path-1-outside-1_52_12)"/>
</svg>
