<svg width="243" height="19" viewBox="0 0 243 19" fill="none" xmlns="http://www.w3.org/2000/svg">
<mask id="path-1-outside-1_52_42" maskUnits="userSpaceOnUse" x="-1" y="-1" width="245" height="21" fill="black">
<rect fill="white" x="-1" y="-1" width="245" height="21"/>
<path d="M20.96 3.864C21.152 7.704 21.152 11.544 20.96 15.384C20.888 16.872 19.688 18.096 18.176 18.144C15.752 18.264 13.328 18.312 10.928 18.312C8.504 18.312 6.08 18.264 3.68 18.144C2.168 18.096 0.968 16.872 0.896 15.384C0.68 11.544 0.68 7.704 0.896 3.864C0.968 2.352 2.168 1.152 3.68 1.08C6.08 0.959999 8.504 0.912 10.928 0.912C13.328 0.912 15.752 0.959999 18.176 1.08C19.688 1.152 20.888 2.352 20.96 3.864ZM18.992 15.288C19.184 11.52 19.184 7.704 18.992 3.96C18.968 3.72 18.872 3.504 18.704 3.336C18.536 3.168 18.32 3.072 18.08 3.048C15.704 2.952 13.304 2.88 10.928 2.88C8.552 2.88 6.128 2.952 3.752 3.048C3.536 3.072 3.296 3.168 3.128 3.336C2.96 3.504 2.864 3.72 2.864 3.96C2.672 7.704 2.672 11.52 2.864 15.288C2.864 15.504 2.96 15.744 3.128 15.912C3.296 16.08 3.536 16.176 3.752 16.176C6.128 16.296 8.552 16.344 10.928 16.344C13.304 16.344 15.704 16.296 18.08 16.176C18.32 16.176 18.536 16.08 18.704 15.912C18.872 15.744 18.968 15.504 18.992 15.288ZM41.6056 7.608C43.1176 7.68 44.3176 8.88 44.3896 10.392V15.216C44.3176 16.728 43.1176 17.928 41.6296 18H24.6616V1.224H43.1416V3.192H26.6296V7.608H41.6056ZM42.4216 15.144V10.488C42.4216 10.248 42.3256 10.032 42.1576 9.864C41.9896 9.696 41.7496 9.6 41.5096 9.6L26.6296 9.624V16.032H41.5336C41.7496 16.032 41.9896 15.936 42.1576 15.768C42.3256 15.6 42.4216 15.36 42.4216 15.144ZM67.3818 4.008V8.832C67.3098 10.344 66.1098 11.544 64.5978 11.616H49.6218V18H47.6538V1.224H64.6218C66.1098 1.296 67.3098 2.496 67.3818 4.008ZM65.1498 9.36C65.3178 9.192 65.4138 8.976 65.4138 8.736V4.104C65.4138 3.864 65.3178 3.648 65.1498 3.48C64.9818 3.312 64.7418 3.216 64.5258 3.192H49.6218V9.624L64.5018 9.648C64.7418 9.624 64.9818 9.528 65.1498 9.36ZM79.1184 1.224L86.7984 18H84.6384L82.9824 14.4H70.8864L69.2304 18H67.0704L74.7504 1.224H79.1184ZM71.7984 12.408H82.0704L77.8464 3.192H76.0224L71.7984 12.408ZM108.316 6.816C108.292 7.488 108.028 8.112 107.596 8.592C108.028 9.072 108.292 9.696 108.316 10.392V15.384C108.244 16.872 107.044 18.096 105.532 18.144C103.108 18.264 100.78 18.312 98.3804 18.312C95.9564 18.312 93.5324 18.264 91.1084 18.144C89.6204 18.096 88.3964 16.872 88.3244 15.384C88.3004 14.856 88.2764 14.328 88.2764 13.824H90.2444C90.2684 14.304 90.2684 14.784 90.3164 15.288C90.3164 15.504 90.4124 15.744 90.5804 15.912C90.7484 16.08 90.9644 16.176 91.2044 16.176C93.5804 16.296 96.0044 16.344 98.3804 16.344C100.756 16.344 103.06 16.296 105.436 16.176C105.676 16.176 105.916 16.08 106.084 15.912C106.252 15.744 106.348 15.504 106.348 15.288V10.488C106.348 10.248 106.252 10.032 106.084 9.864C105.916 9.696 105.676 9.6 105.436 9.6L94.7324 9.624V7.608H105.436C105.676 7.608 105.892 7.512 106.06 7.344C106.228 7.176 106.348 6.96 106.348 6.72V3.96C106.348 3.72 106.252 3.504 106.084 3.336C105.916 3.168 105.676 3.072 105.436 3.048C103.06 2.952 100.756 2.88 98.3804 2.88C96.0044 2.88 93.5804 2.952 91.2044 3.048C90.9644 3.072 90.7484 3.168 90.5804 3.336C90.4124 3.504 90.3164 3.72 90.3164 3.96C90.2684 4.44 90.2684 4.92 90.2444 5.424H88.2764C88.2764 4.896 88.3004 4.368 88.3244 3.864C88.3964 2.352 89.6204 1.152 91.1084 1.08C93.5324 0.959999 95.9564 0.912 98.3804 0.912C100.78 0.912 103.108 0.959999 105.532 1.08C107.044 1.152 108.244 2.352 108.316 3.864V6.816ZM132.077 3.864C132.269 7.704 132.269 11.544 132.077 15.384C132.005 16.872 130.805 18.096 129.293 18.144C126.869 18.264 124.445 18.312 122.045 18.312C119.621 18.312 117.197 18.264 114.797 18.144C113.285 18.096 112.085 16.872 112.013 15.384C111.797 11.544 111.797 7.704 112.013 3.864C112.085 2.352 113.285 1.152 114.797 1.08C117.197 0.959999 119.621 0.912 122.045 0.912C124.445 0.912 126.869 0.959999 129.293 1.08C130.805 1.152 132.005 2.352 132.077 3.864ZM130.109 15.288C130.301 11.52 130.301 7.704 130.109 3.96C130.085 3.72 129.989 3.504 129.821 3.336C129.653 3.168 129.437 3.072 129.197 3.048C126.821 2.952 124.421 2.88 122.045 2.88C119.669 2.88 117.245 2.952 114.869 3.048C114.653 3.072 114.413 3.168 114.245 3.336C114.077 3.504 113.981 3.72 113.981 3.96C113.789 7.704 113.789 11.52 113.981 15.288C113.981 15.504 114.077 15.744 114.245 15.912C114.413 16.08 114.653 16.176 114.869 16.176C117.245 16.296 119.669 16.344 122.045 16.344C124.421 16.344 126.821 16.296 129.197 16.176C129.437 16.176 129.653 16.08 129.821 15.912C129.989 15.744 130.085 15.504 130.109 15.288ZM153.971 7.968C154.859 8.424 155.459 9.336 155.507 10.392V15.216C155.435 16.728 154.235 17.928 152.747 18H135.779V1.224H151.499C153.011 1.296 154.211 2.496 154.283 4.008V6.816C154.259 7.224 154.163 7.608 153.971 7.968ZM137.747 3.192V7.608H151.403C151.643 7.608 151.859 7.512 152.027 7.344C152.195 7.176 152.291 6.96 152.315 6.72V4.104C152.291 3.864 152.195 3.648 152.027 3.48C151.859 3.312 151.643 3.216 151.403 3.192H137.747ZM153.539 15.144V10.488C153.539 10.248 153.443 10.032 153.275 9.864C153.107 9.696 152.867 9.6 152.627 9.6L137.747 9.624V16.032H152.651C152.867 16.032 153.107 15.936 153.275 15.768C153.443 15.6 153.539 15.36 153.539 15.144ZM169.306 1.224L176.986 18H174.826L173.17 14.4H161.074L159.418 18H157.258L164.938 1.224H169.306ZM161.986 12.408H172.258L168.034 3.192H166.21L161.986 12.408ZM196.992 1.224H198.96V18H196.992V10.608H181.2V18H179.232V1.224H181.2V8.64H196.992V1.224ZM219.035 1.224H222.515V18H220.547V3.192H219.995L206.267 18H202.787V1.224H204.755V16.032H205.403L219.035 1.224ZM242.133 3.192H228.309V8.64H242.133V10.608H228.309V16.032H242.133V18H226.341V1.224H242.133V3.192Z"/>
</mask>
<path d="M20.96 3.864L19.9611 3.91156L19.9612 3.91394L20.96 3.864ZM20.96 15.384L19.9612 15.3341L19.9612 15.3357L20.96 15.384ZM18.176 18.144L18.1443 17.1445L18.1354 17.1448L18.1266 17.1452L18.176 18.144ZM3.68 18.144L3.72994 17.1452L3.72084 17.1448L3.71173 17.1445L3.68 18.144ZM0.896 15.384L1.89486 15.3357L1.89442 15.3278L0.896 15.384ZM0.896 3.864L1.89446 3.92016L1.89487 3.91156L0.896 3.864ZM3.68 1.08L3.72757 2.07887L3.72994 2.07875L3.68 1.08ZM18.176 1.08L18.1266 2.07878L18.1284 2.07887L18.176 1.08ZM18.992 15.288L19.9859 15.3984L19.9892 15.3687L19.9907 15.3389L18.992 15.288ZM18.992 3.96L19.9907 3.90878L19.9894 3.88459L19.987 3.86049L18.992 3.96ZM18.704 3.336L17.9969 4.04311L17.9969 4.04311L18.704 3.336ZM18.08 3.048L18.1795 2.05296L18.15 2.05001L18.1204 2.04881L18.08 3.048ZM3.752 3.048L3.71163 2.04881L3.67651 2.05023L3.64157 2.05412L3.752 3.048ZM3.128 3.336L3.83511 4.04311L3.83511 4.04311L3.128 3.336ZM2.864 3.96L3.86269 4.01121L3.864 3.98562V3.96H2.864ZM2.864 15.288H3.864V15.2625L3.8627 15.2371L2.864 15.288ZM3.752 16.176L3.80244 15.1773L3.77724 15.176H3.752V16.176ZM18.08 16.176V15.176H18.0548L18.0296 15.1773L18.08 16.176ZM19.9612 3.91394C20.1516 7.72067 20.1516 11.5273 19.9612 15.3341L21.9588 15.4339C22.1524 11.5607 22.1524 7.68733 21.9588 3.81406L19.9612 3.91394ZM19.9612 15.3357C19.9136 16.3181 19.1203 17.1135 18.1443 17.1445L18.2077 19.1435C20.2557 19.0785 21.8624 17.4259 21.9588 15.4323L19.9612 15.3357ZM18.1266 17.1452C15.7221 17.2643 13.3149 17.312 10.928 17.312V19.312C13.3411 19.312 15.7819 19.2637 18.2254 19.1428L18.1266 17.1452ZM10.928 17.312C8.51693 17.312 6.10996 17.2642 3.72994 17.1452L3.63006 19.1428C6.05004 19.2638 8.49107 19.312 10.928 19.312V17.312ZM3.71173 17.1445C2.73573 17.1135 1.94237 16.3181 1.89483 15.3357L-0.102831 15.4323C-0.00637019 17.4259 1.60027 19.0785 3.64827 19.1435L3.71173 17.1445ZM1.89442 15.3278C1.68053 11.5252 1.68053 7.72275 1.89442 3.92016L-0.102422 3.80784C-0.320526 7.68525 -0.320526 11.5627 -0.102422 15.4402L1.89442 15.3278ZM1.89487 3.91156C1.94235 2.91446 2.73046 2.12635 3.72757 2.07887L3.63243 0.0811308C1.60554 0.17765 -0.00634938 1.78954 -0.102868 3.81643L1.89487 3.91156ZM3.72994 2.07875C6.10996 1.95975 8.51693 1.912 10.928 1.912V-0.0880003C8.49107 -0.0880003 6.05004 -0.0397521 3.63006 0.0812466L3.72994 2.07875ZM10.928 1.912C13.3149 1.912 15.7221 1.95974 18.1266 2.07878L18.2254 0.0812221C15.7819 -0.0397439 13.3411 -0.0880003 10.928 -0.0880003V1.912ZM18.1284 2.07887C19.1255 2.12635 19.9137 2.91446 19.9611 3.91156L21.9589 3.81643C21.8624 1.78954 20.2505 0.17765 18.2236 0.0811308L18.1284 2.07887ZM19.9907 15.3389C20.1844 11.5371 20.1844 7.68701 19.9907 3.90878L17.9933 4.01121C18.1836 7.72098 18.1836 11.5029 17.9933 15.2371L19.9907 15.3389ZM19.987 3.86049C19.942 3.41055 19.7558 2.97363 19.4111 2.62889L17.9969 4.04311C17.9967 4.04287 17.9957 4.04184 17.9945 4.04017C17.9934 4.03852 17.9927 4.03723 17.9925 4.03676C17.9919 4.03539 17.9952 4.04171 17.997 4.05951L19.987 3.86049ZM19.4111 2.62889C19.0664 2.28416 18.6295 2.09796 18.1795 2.05296L17.9805 4.04304C17.9983 4.04482 18.0046 4.0481 18.0032 4.04747C18.0028 4.04726 18.0015 4.0466 17.9998 4.04546C17.9982 4.0443 17.9971 4.04335 17.9969 4.04311L19.4111 2.62889ZM18.1204 2.04881C15.7383 1.95257 13.3232 1.88 10.928 1.88V3.88C13.2848 3.88 15.6697 3.95143 18.0396 4.04718L18.1204 2.04881ZM10.928 1.88C8.5329 1.88 6.09392 1.95256 3.71163 2.04881L3.79237 4.04718C6.16208 3.95144 8.57111 3.88 10.928 3.88V1.88ZM3.64157 2.05412C3.24351 2.09834 2.77796 2.27182 2.42089 2.62889L3.83511 4.04311C3.82676 4.05145 3.82135 4.05511 3.8207 4.05555C3.82006 4.05597 3.82246 4.05434 3.82814 4.05181C3.8338 4.04929 3.84066 4.04682 3.84791 4.04486C3.85524 4.04288 3.86045 4.0421 3.86243 4.04188L3.64157 2.05412ZM2.42089 2.62889C2.07798 2.9718 1.864 3.43745 1.864 3.96H3.864C3.864 3.97548 3.86047 3.99549 3.85215 4.01492C3.84415 4.03358 3.83574 4.04248 3.83511 4.04311L2.42089 2.62889ZM1.86531 3.90878C1.67156 7.68701 1.67157 11.5371 1.8653 15.3389L3.8627 15.2371C3.67243 11.5029 3.67244 7.72099 3.86269 4.01121L1.86531 3.90878ZM1.864 15.288C1.864 15.7722 2.0675 16.2657 2.42089 16.6191L3.83511 15.2049C3.85041 15.2202 3.85476 15.2302 3.85608 15.2334C3.85717 15.236 3.85883 15.2406 3.86038 15.248C3.8619 15.2552 3.864 15.2685 3.864 15.288H1.864ZM2.42089 16.6191C2.77429 16.9725 3.26777 17.176 3.752 17.176V15.176C3.7715 15.176 3.78476 15.1781 3.79201 15.1796C3.79942 15.1812 3.80398 15.1828 3.80662 15.1839C3.80979 15.1852 3.81981 15.1896 3.83511 15.2049L2.42089 16.6191ZM3.70156 17.1747C6.09781 17.2957 8.53902 17.344 10.928 17.344V15.344C8.56498 15.344 6.1582 15.2963 3.80244 15.1773L3.70156 17.1747ZM10.928 17.344C13.3171 17.344 15.7343 17.2957 18.1304 17.1747L18.0296 15.1773C15.6737 15.2963 13.2909 15.344 10.928 15.344V17.344ZM18.08 17.176C18.6026 17.176 19.0682 16.962 19.4111 16.6191L17.9969 15.2049C17.9975 15.2043 18.0064 15.1959 18.0251 15.1879C18.0445 15.1795 18.0645 15.176 18.08 15.176V17.176ZM19.4111 16.6191C19.7682 16.262 19.9417 15.7965 19.9859 15.3984L17.9981 15.1776C17.9979 15.1795 17.9971 15.1848 17.9951 15.1921C17.9932 15.1993 17.9907 15.2062 17.9882 15.2119C17.9857 15.2175 17.984 15.2199 17.9845 15.2193C17.9849 15.2186 17.9885 15.2132 17.9969 15.2049L19.4111 16.6191ZM41.6056 7.608L41.6532 6.60913L41.6294 6.608H41.6056V7.608ZM44.3896 10.392H45.3896V10.3682L45.3885 10.3444L44.3896 10.392ZM44.3896 15.216L45.3885 15.2636L45.3896 15.2398V15.216H44.3896ZM41.6296 18V19H41.6538L41.678 18.9988L41.6296 18ZM24.6616 18H23.6616V19H24.6616V18ZM24.6616 1.224V0.223999H23.6616V1.224H24.6616ZM43.1416 1.224H44.1416V0.223999H43.1416V1.224ZM43.1416 3.192V4.192H44.1416V3.192H43.1416ZM26.6296 3.192V2.192H25.6296V3.192H26.6296ZM26.6296 7.608H25.6296V8.608H26.6296V7.608ZM42.1576 9.864L41.4505 10.5711L41.4505 10.5711L42.1576 9.864ZM41.5096 9.6V8.6L41.508 8.6L41.5096 9.6ZM26.6296 9.624L26.628 8.624L25.6296 8.62561V9.624H26.6296ZM26.6296 16.032H25.6296V17.032H26.6296V16.032ZM42.1576 15.768L41.4505 15.0609L41.4505 15.0609L42.1576 15.768ZM41.5581 8.60687C42.5552 8.65435 43.3433 9.44246 43.3908 10.4396L45.3885 10.3444C45.292 8.31754 43.6801 6.70565 41.6532 6.60913L41.5581 8.60687ZM43.3896 10.392V15.216H45.3896V10.392H43.3896ZM43.3908 15.1684C43.343 16.1706 42.55 16.9543 41.5813 17.0012L41.678 18.9988C43.6853 18.9017 45.2922 17.2854 45.3885 15.2636L43.3908 15.1684ZM41.6296 17H24.6616V19H41.6296V17ZM25.6616 18V1.224H23.6616V18H25.6616ZM24.6616 2.224H43.1416V0.223999H24.6616V2.224ZM42.1416 1.224V3.192H44.1416V1.224H42.1416ZM43.1416 2.192H26.6296V4.192H43.1416V2.192ZM25.6296 3.192V7.608H27.6296V3.192H25.6296ZM26.6296 8.608H41.6056V6.608H26.6296V8.608ZM43.4216 15.144V10.488H41.4216V15.144H43.4216ZM43.4216 10.488C43.4216 9.96545 43.2076 9.4998 42.8647 9.15689L41.4505 10.5711C41.4499 10.5705 41.4415 10.5616 41.4335 10.5429C41.4252 10.5235 41.4216 10.5035 41.4216 10.488H43.4216ZM42.8647 9.15689C42.5016 8.79373 42.0039 8.6 41.5096 8.6V10.6C41.4976 10.6 41.4903 10.5979 41.4849 10.5957C41.4795 10.5936 41.4669 10.5874 41.4505 10.5711L42.8647 9.15689ZM41.508 8.6L26.628 8.624L26.6312 10.624L41.5112 10.6L41.508 8.6ZM25.6296 9.624V16.032H27.6296V9.624H25.6296ZM26.6296 17.032H41.5336V15.032H26.6296V17.032ZM41.5336 17.032C42.0179 17.032 42.5113 16.8285 42.8647 16.4751L41.4505 15.0609C41.4658 15.0456 41.4758 15.0412 41.479 15.0399C41.4816 15.0388 41.4862 15.0372 41.4936 15.0356C41.5009 15.0341 41.5141 15.032 41.5336 15.032V17.032ZM42.8647 16.4751C43.2181 16.1217 43.4216 15.6282 43.4216 15.144H41.4216C41.4216 15.1245 41.4237 15.1112 41.4252 15.104C41.4268 15.0966 41.4285 15.092 41.4296 15.0894C41.4309 15.0862 41.4352 15.0762 41.4505 15.0609L42.8647 16.4751ZM67.3818 4.008H68.3818V3.9842L68.3807 3.96044L67.3818 4.008ZM67.3818 8.832L68.3807 8.87956L68.3818 8.85579V8.832H67.3818ZM64.5978 11.616V12.616H64.6216L64.6454 12.6149L64.5978 11.616ZM49.6218 11.616V10.616H48.6218V11.616H49.6218ZM49.6218 18V19H50.6218V18H49.6218ZM47.6538 18H46.6538V19H47.6538V18ZM47.6538 1.224V0.223999H46.6538V1.224H47.6538ZM64.6218 1.224L64.6701 0.225167L64.646 0.223999H64.6218V1.224ZM65.1498 9.36L64.4427 8.65289L64.4427 8.65289L65.1498 9.36ZM65.1498 3.48L64.4427 4.1871L64.4427 4.18711L65.1498 3.48ZM64.5258 3.192L64.6362 2.19812L64.5812 2.192H64.5258V3.192ZM49.6218 3.192V2.192H48.6218V3.192H49.6218ZM49.6218 9.624H48.6218V10.6224L49.6202 10.624L49.6218 9.624ZM64.5018 9.648L64.5002 10.648L64.5509 10.6481L64.6013 10.643L64.5018 9.648ZM66.3818 4.008V8.832H68.3818V4.008H66.3818ZM66.3829 8.78443C66.3355 9.78154 65.5474 10.5696 64.5502 10.6171L64.6454 12.6149C66.6723 12.5183 68.2842 10.9065 68.3807 8.87956L66.3829 8.78443ZM64.5978 10.616H49.6218V12.616H64.5978V10.616ZM48.6218 11.616V18H50.6218V11.616H48.6218ZM49.6218 17H47.6538V19H49.6218V17ZM48.6538 18V1.224H46.6538V18H48.6538ZM47.6538 2.224H64.6218V0.223999H47.6538V2.224ZM64.5735 2.22283C65.5422 2.2697 66.3352 3.05341 66.3829 4.05556L68.3807 3.96044C68.2844 1.93859 66.6775 0.322296 64.6701 0.225167L64.5735 2.22283ZM65.8569 10.0671C66.1998 9.7242 66.4138 9.25855 66.4138 8.736H64.4138C64.4138 8.72052 64.4173 8.70051 64.4257 8.68108C64.4337 8.66242 64.4421 8.65352 64.4427 8.65289L65.8569 10.0671ZM66.4138 8.736V4.104H64.4138V8.736H66.4138ZM66.4138 4.104C66.4138 3.58144 66.1998 3.1158 65.8569 2.77289L64.4427 4.18711C64.4421 4.18648 64.4337 4.17758 64.4257 4.15892C64.4173 4.13949 64.4138 4.11948 64.4138 4.104H66.4138ZM65.8569 2.7729C65.4998 2.41582 65.0343 2.24234 64.6362 2.19812L64.4154 4.18588C64.4174 4.1861 64.4226 4.18688 64.4299 4.18886C64.4372 4.19082 64.444 4.19329 64.4497 4.19581C64.4554 4.19834 64.4577 4.19997 64.4571 4.19955C64.4565 4.19911 64.451 4.19545 64.4427 4.1871L65.8569 2.7729ZM64.5258 2.192H49.6218V4.192H64.5258V2.192ZM48.6218 3.192V9.624H50.6218V3.192H48.6218ZM49.6202 10.624L64.5002 10.648L64.5034 8.648L49.6234 8.624L49.6202 10.624ZM64.6013 10.643C65.0202 10.6011 65.4929 10.4311 65.8569 10.0671L64.4427 8.65289C64.4593 8.63633 64.4669 8.63539 64.4559 8.64014C64.451 8.64225 64.4436 8.64496 64.4338 8.64746C64.424 8.64995 64.4133 8.65186 64.4023 8.65296L64.6013 10.643ZM79.1184 1.224L80.0276 0.807747L79.7604 0.223999H79.1184V1.224ZM86.7984 18V19H88.356L87.7076 17.5837L86.7984 18ZM84.6384 18L83.7299 18.4179L83.9977 19H84.6384V18ZM82.9824 14.4L83.8909 13.9821L83.6231 13.4H82.9824V14.4ZM70.8864 14.4V13.4H70.2457L69.9779 13.9821L70.8864 14.4ZM69.2304 18V19H69.8711L70.1389 18.4179L69.2304 18ZM67.0704 18L66.1611 17.5837L65.5128 19H67.0704V18ZM74.7504 1.224V0.223999H74.1084L73.8411 0.807747L74.7504 1.224ZM71.7984 12.408L70.8893 11.9913L70.24 13.408H71.7984V12.408ZM82.0704 12.408V13.408H83.6287L82.9794 11.9913L82.0704 12.408ZM77.8464 3.192L78.7554 2.77534L78.4881 2.192H77.8464V3.192ZM76.0224 3.192V2.192H75.3807L75.1133 2.77534L76.0224 3.192ZM78.2091 1.64025L85.8891 18.4163L87.7076 17.5837L80.0276 0.807747L78.2091 1.64025ZM86.7984 17H84.6384V19H86.7984V17ZM85.5469 17.5821L83.8909 13.9821L82.0739 14.8179L83.7299 18.4179L85.5469 17.5821ZM82.9824 13.4H70.8864V15.4H82.9824V13.4ZM69.9779 13.9821L68.3219 17.5821L70.1389 18.4179L71.7949 14.8179L69.9779 13.9821ZM69.2304 17H67.0704V19H69.2304V17ZM67.9796 18.4163L75.6596 1.64025L73.8411 0.807747L66.1611 17.5837L67.9796 18.4163ZM74.7504 2.224H79.1184V0.223999H74.7504V2.224ZM71.7984 13.408H82.0704V11.408H71.7984V13.408ZM82.9794 11.9913L78.7554 2.77534L76.9373 3.60865L81.1613 12.8247L82.9794 11.9913ZM77.8464 2.192H76.0224V4.192H77.8464V2.192ZM75.1133 2.77534L70.8893 11.9913L72.7074 12.8247L76.9314 3.60865L75.1133 2.77534ZM108.316 6.816L109.316 6.85169L109.316 6.83385V6.816H108.316ZM107.596 8.592L106.853 7.92303L106.251 8.592L106.853 9.26096L107.596 8.592ZM108.316 10.392H109.316V10.3748L109.316 10.3575L108.316 10.392ZM108.316 15.384L109.315 15.4323L109.316 15.4082V15.384H108.316ZM105.532 18.144L105.501 17.1445L105.492 17.1448L105.483 17.1452L105.532 18.144ZM91.1084 18.144L91.1579 17.1452L91.1493 17.1448L91.1407 17.1445L91.1084 18.144ZM88.3244 15.384L87.3255 15.4294L87.3256 15.4323L88.3244 15.384ZM88.2764 13.824V12.824H87.2764V13.824H88.2764ZM90.2444 13.824L91.2432 13.7741L91.1957 12.824H90.2444V13.824ZM90.3164 15.288H91.3164V15.2405L91.3119 15.1932L90.3164 15.288ZM91.2044 16.176L91.2549 15.1773L91.2297 15.176H91.2044V16.176ZM105.436 16.176V15.176H105.411L105.386 15.1773L105.436 16.176ZM106.084 15.912L105.377 15.2049L105.377 15.2049L106.084 15.912ZM106.084 9.864L105.377 10.5711L105.377 10.5711L106.084 9.864ZM105.436 9.6V8.6L105.434 8.6L105.436 9.6ZM94.7324 9.624H93.7324V10.6262L94.7347 10.624L94.7324 9.624ZM94.7324 7.608V6.608H93.7324V7.608H94.7324ZM106.06 7.344L106.768 8.05111V8.0511L106.06 7.344ZM106.084 3.336L105.377 4.0431L105.377 4.04311L106.084 3.336ZM105.436 3.048L105.536 2.05296L105.506 2.05001L105.477 2.04881L105.436 3.048ZM91.2044 3.048L91.1641 2.04881L91.1344 2.05001L91.1049 2.05296L91.2044 3.048ZM90.5804 3.336L91.2875 4.04311V4.04311L90.5804 3.336ZM90.3164 3.96L91.3115 4.0595L91.3164 4.00987V3.96H90.3164ZM90.2444 5.424V6.424H91.198L91.2433 5.47156L90.2444 5.424ZM88.2764 5.424H87.2764V6.424H88.2764V5.424ZM88.3244 3.864L89.3233 3.91156L88.3244 3.864ZM91.1084 1.08L91.1568 2.07883L91.1579 2.07878L91.1084 1.08ZM105.532 1.08L105.483 2.07878L105.485 2.07887L105.532 1.08ZM108.316 3.864H109.316V3.8402L109.315 3.81643L108.316 3.864ZM107.317 6.78031C107.302 7.21089 107.133 7.61239 106.853 7.92303L108.34 9.26096C108.924 8.61161 109.283 7.76511 109.316 6.85169L107.317 6.78031ZM106.853 9.26096C107.13 9.56825 107.301 9.96829 107.317 10.4265L109.316 10.3575C109.284 9.42371 108.927 8.57575 108.34 7.92303L106.853 9.26096ZM107.316 10.392V15.384H109.316V10.392H107.316ZM107.318 15.3357C107.27 16.3181 106.477 17.1135 105.501 17.1445L105.564 19.1435C107.612 19.0785 109.219 17.4259 109.315 15.4323L107.318 15.3357ZM105.483 17.1452C103.078 17.2643 100.767 17.312 98.3804 17.312V19.312C100.794 19.312 103.139 19.2637 105.582 19.1428L105.483 17.1452ZM98.3804 17.312C95.9695 17.312 93.5623 17.2643 91.1579 17.1452L91.059 19.1428C93.5026 19.2637 95.9434 19.312 98.3804 19.312V17.312ZM91.1407 17.1445C90.1826 17.1136 89.3705 16.3124 89.3233 15.3357L87.3256 15.4323C87.4223 17.4316 89.0583 19.0784 91.0762 19.1435L91.1407 17.1445ZM89.3234 15.3386C89.2992 14.806 89.2764 14.3012 89.2764 13.824H87.2764C87.2764 14.3548 87.3017 14.906 87.3255 15.4294L89.3234 15.3386ZM88.2764 14.824H90.2444V12.824H88.2764V14.824ZM89.2457 13.8739C89.2662 14.2846 89.2706 14.8539 89.3209 15.3828L91.3119 15.1932C91.2663 14.7141 91.2707 14.3234 91.2432 13.7741L89.2457 13.8739ZM89.3164 15.288C89.3164 15.7722 89.5199 16.2657 89.8733 16.6191L91.2875 15.2049C91.3028 15.2202 91.3072 15.2302 91.3085 15.2334C91.3096 15.236 91.3113 15.2406 91.3128 15.248C91.3143 15.2552 91.3164 15.2685 91.3164 15.288H89.3164ZM89.8733 16.6191C90.2162 16.962 90.6819 17.176 91.2044 17.176V15.176C91.2199 15.176 91.2399 15.1795 91.2594 15.1879C91.278 15.1959 91.2869 15.2043 91.2875 15.2049L89.8733 16.6191ZM91.154 17.1747C93.5502 17.2957 95.9915 17.344 98.3804 17.344V15.344C96.0174 15.344 93.6106 15.2963 91.2549 15.1773L91.154 17.1747ZM98.3804 17.344C100.77 17.344 103.091 17.2957 105.487 17.1747L105.386 15.1773C103.03 15.2963 100.743 15.344 98.3804 15.344V17.344ZM105.436 17.176C105.931 17.176 106.428 16.9823 106.792 16.6191L105.377 15.2049C105.394 15.1886 105.406 15.1824 105.412 15.1803C105.417 15.1781 105.424 15.176 105.436 15.176V17.176ZM106.792 16.6191C107.145 16.2657 107.348 15.7722 107.348 15.288H105.348C105.348 15.2685 105.351 15.2552 105.352 15.248C105.354 15.2406 105.355 15.236 105.356 15.2334C105.358 15.2302 105.362 15.2202 105.377 15.2049L106.792 16.6191ZM107.348 15.288V10.488H105.348V15.288H107.348ZM107.348 10.488C107.348 9.96545 107.134 9.49981 106.792 9.15689L105.377 10.5711C105.377 10.5705 105.368 10.5616 105.36 10.5429C105.352 10.5235 105.348 10.5035 105.348 10.488H107.348ZM106.792 9.15689C106.428 8.79373 105.931 8.6 105.436 8.6V10.6C105.424 10.6 105.417 10.5979 105.412 10.5957C105.406 10.5936 105.394 10.5874 105.377 10.5711L106.792 9.15689ZM105.434 8.6L94.7302 8.624L94.7347 10.624L105.439 10.6L105.434 8.6ZM95.7324 9.624V7.608H93.7324V9.624H95.7324ZM94.7324 8.608H105.436V6.608H94.7324V8.608ZM105.436 8.608C105.959 8.608 106.425 8.39402 106.768 8.05111L105.353 6.63689C105.354 6.63626 105.363 6.62785 105.382 6.61985C105.401 6.61153 105.421 6.608 105.436 6.608V8.608ZM106.768 8.0511C107.058 7.76056 107.348 7.30481 107.348 6.72H105.348C105.348 6.66978 105.362 6.63521 105.368 6.6221C105.373 6.61142 105.372 6.61841 105.353 6.63689L106.768 8.0511ZM107.348 6.72V3.96H105.348V6.72H107.348ZM107.348 3.96C107.348 3.43745 107.134 2.9718 106.792 2.62889L105.377 4.04311C105.377 4.04248 105.368 4.03358 105.36 4.01492C105.352 3.99549 105.348 3.97548 105.348 3.96H107.348ZM106.792 2.6289C106.428 2.2649 105.955 2.09486 105.536 2.05296L105.337 4.04304C105.348 4.04414 105.359 4.04605 105.368 4.04854C105.378 4.05104 105.386 4.05375 105.391 4.05586C105.402 4.06061 105.394 4.05967 105.377 4.0431L106.792 2.6289ZM105.477 2.04881C103.096 1.9526 100.776 1.88 98.3804 1.88V3.88C100.737 3.88 103.025 3.95139 105.396 4.04718L105.477 2.04881ZM98.3804 1.88C95.9853 1.88 93.5464 1.95256 91.1641 2.04881L91.2448 4.04718C93.6145 3.95144 96.0235 3.88 98.3804 3.88V1.88ZM91.1049 2.05296C90.655 2.09796 90.2181 2.28416 89.8733 2.62889L91.2875 4.04311C91.2873 4.04335 91.2863 4.0443 91.2846 4.04546C91.283 4.0466 91.2817 4.04726 91.2812 4.04747C91.2798 4.0481 91.2861 4.04482 91.3039 4.04304L91.1049 2.05296ZM89.8733 2.62889C89.5304 2.9718 89.3164 3.43745 89.3164 3.96H91.3164C91.3164 3.97548 91.3129 3.99549 91.3046 4.01492C91.2966 4.03358 91.2882 4.04248 91.2875 4.04311L89.8733 2.62889ZM89.3214 3.8605C89.2702 4.37221 89.2664 4.93811 89.2456 5.37643L91.2433 5.47156C91.2704 4.90189 91.2666 4.50779 91.3115 4.0595L89.3214 3.8605ZM90.2444 4.424H88.2764V6.424H90.2444V4.424ZM89.2764 5.424C89.2764 4.92291 89.2992 4.41714 89.3233 3.91156L87.3256 3.81643C87.3016 4.31886 87.2764 4.86909 87.2764 5.424H89.2764ZM89.3233 3.91156C89.3705 2.92025 90.1772 2.12623 91.1568 2.07883L91.0601 0.0811676C89.0636 0.177772 87.4224 1.78375 87.3256 3.81643L89.3233 3.91156ZM91.1579 2.07878C93.5623 1.95975 95.9695 1.912 98.3804 1.912V-0.0880003C95.9434 -0.0880003 93.5026 -0.0397472 91.059 0.0812221L91.1579 2.07878ZM98.3804 1.912C100.767 1.912 103.078 1.95971 105.483 2.07878L105.582 0.0812221C103.139 -0.0397167 100.794 -0.0880003 98.3804 -0.0880003V1.912ZM105.485 2.07887C106.482 2.12635 107.27 2.91446 107.318 3.91156L109.315 3.81643C109.219 1.78954 107.607 0.17765 105.58 0.0811308L105.485 2.07887ZM107.316 3.864V6.816H109.316V3.864H107.316ZM132.077 3.864L131.078 3.91156L131.078 3.91394L132.077 3.864ZM132.077 15.384L131.078 15.3341L131.078 15.3357L132.077 15.384ZM129.293 18.144L129.261 17.1445L129.253 17.1448L129.244 17.1452L129.293 18.144ZM114.797 18.144L114.847 17.1452L114.838 17.1448L114.829 17.1445L114.797 18.144ZM112.013 15.384L113.012 15.3357L113.012 15.3278L112.013 15.384ZM112.013 3.864L113.012 3.92016L113.012 3.91156L112.013 3.864ZM114.797 1.08L114.845 2.07887L114.847 2.07875L114.797 1.08ZM129.293 1.08L129.244 2.07878L129.246 2.07887L129.293 1.08ZM130.109 15.288L131.103 15.3984L131.106 15.3687L131.108 15.3389L130.109 15.288ZM130.109 3.96L131.108 3.90878L131.107 3.88459L131.104 3.86049L130.109 3.96ZM129.821 3.336L129.114 4.04311L129.114 4.04311L129.821 3.336ZM129.197 3.048L129.297 2.05296L129.267 2.05001L129.238 2.04881L129.197 3.048ZM114.869 3.048L114.829 2.04881L114.794 2.05023L114.759 2.05412L114.869 3.048ZM114.245 3.336L114.952 4.04311V4.04311L114.245 3.336ZM113.981 3.96L114.98 4.01121L114.981 3.98562V3.96H113.981ZM113.981 15.288H114.981V15.2625L114.98 15.2371L113.981 15.288ZM114.869 16.176L114.92 15.1773L114.894 15.176H114.869V16.176ZM129.197 16.176V15.176H129.172L129.147 15.1773L129.197 16.176ZM131.078 3.91394C131.269 7.72067 131.269 11.5273 131.078 15.3341L133.076 15.4339C133.27 11.5607 133.27 7.68733 133.076 3.81406L131.078 3.91394ZM131.078 15.3357C131.031 16.3181 130.237 17.1135 129.261 17.1445L129.325 19.1435C131.373 19.0785 132.98 17.4259 133.076 15.4323L131.078 15.3357ZM129.244 17.1452C126.839 17.2643 124.432 17.312 122.045 17.312V19.312C124.458 19.312 126.899 19.2637 129.343 19.1428L129.244 17.1452ZM122.045 17.312C119.634 17.312 117.227 17.2642 114.847 17.1452L114.747 19.1428C117.167 19.2638 119.608 19.312 122.045 19.312V17.312ZM114.829 17.1445C113.853 17.1135 113.06 16.3181 113.012 15.3357L111.014 15.4323C111.111 17.4259 112.717 19.0785 114.765 19.1435L114.829 17.1445ZM113.012 15.3278C112.798 11.5252 112.798 7.72275 113.012 3.92016L111.015 3.80784C110.797 7.68525 110.797 11.5627 111.015 15.4402L113.012 15.3278ZM113.012 3.91156C113.06 2.91446 113.848 2.12635 114.845 2.07887L114.75 0.0811308C112.723 0.17765 111.111 1.78954 111.014 3.81643L113.012 3.91156ZM114.847 2.07875C117.227 1.95975 119.634 1.912 122.045 1.912V-0.0880003C119.608 -0.0880003 117.167 -0.0397521 114.747 0.0812466L114.847 2.07875ZM122.045 1.912C124.432 1.912 126.839 1.95974 129.244 2.07878L129.343 0.0812221C126.899 -0.0397439 124.458 -0.0880003 122.045 -0.0880003V1.912ZM129.246 2.07887C130.243 2.12635 131.031 2.91446 131.078 3.91156L133.076 3.81643C132.98 1.78954 131.368 0.17765 129.341 0.0811308L129.246 2.07887ZM131.108 15.3389C131.302 11.5371 131.302 7.68701 131.108 3.90878L129.111 4.01121C129.301 7.72098 129.301 11.5029 129.11 15.2371L131.108 15.3389ZM131.104 3.86049C131.059 3.41055 130.873 2.97363 130.528 2.62889L129.114 4.04311C129.114 4.04287 129.113 4.04184 129.112 4.04017C129.111 4.03852 129.11 4.03723 129.11 4.03676C129.109 4.03539 129.112 4.04171 129.114 4.05951L131.104 3.86049ZM130.528 2.62889C130.184 2.28416 129.747 2.09796 129.297 2.05296L129.098 4.04304C129.115 4.04482 129.122 4.0481 129.12 4.04747C129.12 4.04726 129.119 4.0466 129.117 4.04546C129.115 4.0443 129.114 4.04335 129.114 4.04311L130.528 2.62889ZM129.238 2.04881C126.855 1.95257 124.44 1.88 122.045 1.88V3.88C124.402 3.88 126.787 3.95143 129.157 4.04718L129.238 2.04881ZM122.045 1.88C119.65 1.88 117.211 1.95256 114.829 2.04881L114.91 4.04718C117.279 3.95144 119.688 3.88 122.045 3.88V1.88ZM114.759 2.05412C114.361 2.09834 113.895 2.27182 113.538 2.62889L114.952 4.04311C114.944 4.05145 114.939 4.05511 114.938 4.05555C114.937 4.05597 114.94 4.05434 114.945 4.05181C114.951 4.04929 114.958 4.04682 114.965 4.04486C114.972 4.04288 114.978 4.0421 114.98 4.04188L114.759 2.05412ZM113.538 2.62889C113.195 2.9718 112.981 3.43745 112.981 3.96H114.981C114.981 3.97548 114.978 3.99549 114.969 4.01492C114.961 4.03358 114.953 4.04248 114.952 4.04311L113.538 2.62889ZM112.982 3.90878C112.789 7.68701 112.789 11.5371 112.982 15.3389L114.98 15.2371C114.79 11.5029 114.79 7.72099 114.98 4.01121L112.982 3.90878ZM112.981 15.288C112.981 15.7722 113.185 16.2657 113.538 16.6191L114.952 15.2049C114.968 15.2202 114.972 15.2302 114.973 15.2334C114.974 15.236 114.976 15.2406 114.978 15.248C114.979 15.2552 114.981 15.2685 114.981 15.288H112.981ZM113.538 16.6191C113.891 16.9725 114.385 17.176 114.869 17.176V15.176C114.889 15.176 114.902 15.1781 114.909 15.1796C114.917 15.1812 114.921 15.1828 114.924 15.1839C114.927 15.1852 114.937 15.1896 114.952 15.2049L113.538 16.6191ZM114.819 17.1747C117.215 17.2957 119.656 17.344 122.045 17.344V15.344C119.682 15.344 117.275 15.2963 114.92 15.1773L114.819 17.1747ZM122.045 17.344C124.434 17.344 126.852 17.2957 129.248 17.1747L129.147 15.1773C126.791 15.2963 124.408 15.344 122.045 15.344V17.344ZM129.197 17.176C129.72 17.176 130.185 16.962 130.528 16.6191L129.114 15.2049C129.115 15.2043 129.124 15.1959 129.142 15.1879C129.162 15.1795 129.182 15.176 129.197 15.176V17.176ZM130.528 16.6191C130.885 16.262 131.059 15.7965 131.103 15.3984L129.115 15.1776C129.115 15.1795 129.114 15.1848 129.112 15.1921C129.11 15.1993 129.108 15.2062 129.105 15.2119C129.103 15.2175 129.101 15.2199 129.102 15.2193C129.102 15.2186 129.106 15.2132 129.114 15.2049L130.528 16.6191ZM153.971 7.968L153.088 7.49741L152.61 8.3936L153.514 8.85757L153.971 7.968ZM155.507 10.392H156.507V10.3693L156.506 10.3466L155.507 10.392ZM155.507 15.216L156.506 15.2636L156.507 15.2398V15.216H155.507ZM152.747 18V19H152.771L152.795 18.9988L152.747 18ZM135.779 18H134.779V19H135.779V18ZM135.779 1.224V0.223999H134.779V1.224H135.779ZM151.499 1.224L151.546 0.22513L151.523 0.223999H151.499V1.224ZM154.283 4.008H155.283V3.9842L155.282 3.96044L154.283 4.008ZM154.283 6.816L155.281 6.87472L155.283 6.84539V6.816H154.283ZM137.747 3.192V2.192H136.747V3.192H137.747ZM137.747 7.608H136.747V8.608H137.747V7.608ZM152.027 7.344L152.734 8.05111V8.0511L152.027 7.344ZM152.315 6.72L153.31 6.8195L153.315 6.76987V6.72H152.315ZM152.315 4.104H153.315V4.05412L153.31 4.0045L152.315 4.104ZM151.403 3.192L151.502 2.19696L151.453 2.192H151.403V3.192ZM153.275 9.864L152.568 10.5711V10.5711L153.275 9.864ZM152.627 9.6V8.6L152.625 8.6L152.627 9.6ZM137.747 9.624L137.745 8.624L136.747 8.62561V9.624H137.747ZM137.747 16.032H136.747V17.032H137.747V16.032ZM153.275 15.768L152.568 15.0609V15.0609L153.275 15.768ZM153.514 8.85757C154.081 9.14877 154.476 9.73751 154.508 10.4374L156.506 10.3466C156.442 8.93449 155.637 7.69923 154.428 7.07843L153.514 8.85757ZM154.507 10.392V15.216H156.507V10.392H154.507ZM154.508 15.1684C154.46 16.1706 153.667 16.9543 152.698 17.0012L152.795 18.9988C154.802 18.9017 156.409 17.2854 156.506 15.2636L154.508 15.1684ZM152.747 17H135.779V19H152.747V17ZM136.779 18V1.224H134.779V18H136.779ZM135.779 2.224H151.499V0.223999H135.779V2.224ZM151.451 2.22287C152.448 2.27035 153.236 3.05846 153.284 4.05556L155.282 3.96044C155.185 1.93354 153.573 0.32165 151.546 0.22513L151.451 2.22287ZM153.283 4.008V6.816H155.283V4.008H153.283ZM153.285 6.75728C153.268 7.04197 153.203 7.28187 153.088 7.49741L154.853 8.43859C155.122 7.93413 155.25 7.40602 155.281 6.87472L153.285 6.75728ZM136.747 3.192V7.608H138.747V3.192H136.747ZM137.747 8.608H151.403V6.608H137.747V8.608ZM151.403 8.608C151.925 8.608 152.391 8.39402 152.734 8.05111L151.32 6.63689C151.32 6.63626 151.329 6.62785 151.348 6.61985C151.367 6.61153 151.387 6.608 151.403 6.608V8.608ZM152.734 8.0511C153.079 7.70637 153.265 7.26945 153.31 6.8195L151.32 6.6205C151.318 6.63829 151.315 6.64461 151.315 6.64324C151.316 6.64277 151.316 6.64148 151.317 6.63983C151.319 6.63816 151.319 6.63713 151.32 6.63689L152.734 8.0511ZM153.315 6.72V4.104H151.315V6.72H153.315ZM153.31 4.0045C153.265 3.55455 153.079 3.11763 152.734 2.77289L151.32 4.18711C151.319 4.18687 151.319 4.18584 151.317 4.18417C151.316 4.18252 151.316 4.18123 151.315 4.18076C151.315 4.17938 151.318 4.18571 151.32 4.2035L153.31 4.0045ZM152.734 2.77289C152.389 2.42816 151.952 2.24196 151.502 2.19696L151.303 4.18704C151.321 4.18882 151.327 4.1921 151.326 4.19147C151.326 4.19126 151.324 4.1906 151.323 4.18946C151.321 4.1883 151.32 4.18735 151.32 4.18711L152.734 2.77289ZM151.403 2.192H137.747V4.192H151.403V2.192ZM154.539 15.144V10.488H152.539V15.144H154.539ZM154.539 10.488C154.539 9.96545 154.325 9.4998 153.982 9.15689L152.568 10.5711C152.567 10.5705 152.559 10.5616 152.551 10.5429C152.542 10.5235 152.539 10.5035 152.539 10.488H154.539ZM153.982 9.15689C153.619 8.79373 153.121 8.6 152.627 8.6V10.6C152.615 10.6 152.607 10.5979 152.602 10.5957C152.597 10.5936 152.584 10.5874 152.568 10.5711L153.982 9.15689ZM152.625 8.6L137.745 8.624L137.748 10.624L152.628 10.6L152.625 8.6ZM136.747 9.624V16.032H138.747V9.624H136.747ZM137.747 17.032H152.651V15.032H137.747V17.032ZM152.651 17.032C153.135 17.032 153.629 16.8285 153.982 16.4751L152.568 15.0609C152.583 15.0456 152.593 15.0412 152.596 15.0399C152.599 15.0388 152.603 15.0372 152.611 15.0356C152.618 15.0341 152.631 15.032 152.651 15.032V17.032ZM153.982 16.4751C154.335 16.1217 154.539 15.6282 154.539 15.144H152.539C152.539 15.1245 152.541 15.1112 152.542 15.104C152.544 15.0966 152.546 15.092 152.547 15.0894C152.548 15.0862 152.552 15.0762 152.568 15.0609L153.982 16.4751ZM169.306 1.224L170.215 0.807747L169.948 0.223999H169.306V1.224ZM176.986 18V19H178.543L177.895 17.5837L176.986 18ZM174.826 18L173.917 18.4179L174.185 19H174.826V18ZM173.17 14.4L174.078 13.9821L173.811 13.4H173.17V14.4ZM161.074 14.4V13.4H160.433L160.165 13.9821L161.074 14.4ZM159.418 18V19H160.059L160.326 18.4179L159.418 18ZM157.258 18L156.349 17.5837L155.7 19H157.258V18ZM164.938 1.224V0.223999H164.296L164.029 0.807747L164.938 1.224ZM161.986 12.408L161.077 11.9913L160.428 13.408H161.986V12.408ZM172.258 12.408V13.408H173.816L173.167 11.9913L172.258 12.408ZM168.034 3.192L168.943 2.77534L168.676 2.192H168.034V3.192ZM166.21 3.192V2.192H165.568L165.301 2.77534L166.21 3.192ZM168.397 1.64025L176.077 18.4163L177.895 17.5837L170.215 0.807747L168.397 1.64025ZM176.986 17H174.826V19H176.986V17ZM175.734 17.5821L174.078 13.9821L172.261 14.8179L173.917 18.4179L175.734 17.5821ZM173.17 13.4H161.074V15.4H173.17V13.4ZM160.165 13.9821L158.509 17.5821L160.326 18.4179L161.982 14.8179L160.165 13.9821ZM159.418 17H157.258V19H159.418V17ZM158.167 18.4163L165.847 1.64025L164.029 0.807747L156.349 17.5837L158.167 18.4163ZM164.938 2.224H169.306V0.223999H164.938V2.224ZM161.986 13.408H172.258V11.408H161.986V13.408ZM173.167 11.9913L168.943 2.77534L167.125 3.60865L171.349 12.8247L173.167 11.9913ZM168.034 2.192H166.21V4.192H168.034V2.192ZM165.301 2.77534L161.077 11.9913L162.895 12.8247L167.119 3.60865L165.301 2.77534ZM196.992 1.224V0.223999H195.992V1.224H196.992ZM198.96 1.224H199.96V0.223999H198.96V1.224ZM198.96 18V19H199.96V18H198.96ZM196.992 18H195.992V19H196.992V18ZM196.992 10.608H197.992V9.608H196.992V10.608ZM181.2 10.608V9.608H180.2V10.608H181.2ZM181.2 18V19H182.2V18H181.2ZM179.232 18H178.232V19H179.232V18ZM179.232 1.224V0.223999H178.232V1.224H179.232ZM181.2 1.224H182.2V0.223999H181.2V1.224ZM181.2 8.64H180.2V9.64H181.2V8.64ZM196.992 8.64V9.64H197.992V8.64H196.992ZM196.992 2.224H198.96V0.223999H196.992V2.224ZM197.96 1.224V18H199.96V1.224H197.96ZM198.96 17H196.992V19H198.96V17ZM197.992 18V10.608H195.992V18H197.992ZM196.992 9.608H181.2V11.608H196.992V9.608ZM180.2 10.608V18H182.2V10.608H180.2ZM181.2 17H179.232V19H181.2V17ZM180.232 18V1.224H178.232V18H180.232ZM179.232 2.224H181.2V0.223999H179.232V2.224ZM180.2 1.224V8.64H182.2V1.224H180.2ZM181.2 9.64H196.992V7.64H181.2V9.64ZM197.992 8.64V1.224H195.992V8.64H197.992ZM219.035 1.224V0.223999H218.596L218.299 0.54671L219.035 1.224ZM222.515 1.224H223.515V0.223999H222.515V1.224ZM222.515 18V19H223.515V18H222.515ZM220.547 18H219.547V19H220.547V18ZM220.547 3.192H221.547V2.192H220.547V3.192ZM219.995 3.192V2.192H219.558L219.261 2.51214L219.995 3.192ZM206.267 18V19H206.703L207 18.6799L206.267 18ZM202.787 18H201.787V19H202.787V18ZM202.787 1.224V0.223999H201.787V1.224H202.787ZM204.755 1.224H205.755V0.223999H204.755V1.224ZM204.755 16.032H203.755V17.032H204.755V16.032ZM205.403 16.032V17.032H205.841L206.138 16.7093L205.403 16.032ZM219.035 2.224H222.515V0.223999H219.035V2.224ZM221.515 1.224V18H223.515V1.224H221.515ZM222.515 17H220.547V19H222.515V17ZM221.547 18V3.192H219.547V18H221.547ZM220.547 2.192H219.995V4.192H220.547V2.192ZM219.261 2.51214L205.533 17.3201L207 18.6799L220.728 3.87186L219.261 2.51214ZM206.267 17H202.787V19H206.267V17ZM203.787 18V1.224H201.787V18H203.787ZM202.787 2.224H204.755V0.223999H202.787V2.224ZM203.755 1.224V16.032H205.755V1.224H203.755ZM204.755 17.032H205.403V15.032H204.755V17.032ZM206.138 16.7093L219.77 1.90129L218.299 0.54671L204.667 15.3547L206.138 16.7093ZM242.133 3.192V4.192H243.133V3.192H242.133ZM228.309 3.192V2.192H227.309V3.192H228.309ZM228.309 8.64H227.309V9.64H228.309V8.64ZM242.133 8.64H243.133V7.64H242.133V8.64ZM242.133 10.608V11.608H243.133V10.608H242.133ZM228.309 10.608V9.608H227.309V10.608H228.309ZM228.309 16.032H227.309V17.032H228.309V16.032ZM242.133 16.032H243.133V15.032H242.133V16.032ZM242.133 18V19H243.133V18H242.133ZM226.341 18H225.341V19H226.341V18ZM226.341 1.224V0.223999H225.341V1.224H226.341ZM242.133 1.224H243.133V0.223999H242.133V1.224ZM242.133 2.192H228.309V4.192H242.133V2.192ZM227.309 3.192V8.64H229.309V3.192H227.309ZM228.309 9.64H242.133V7.64H228.309V9.64ZM241.133 8.64V10.608H243.133V8.64H241.133ZM242.133 9.608H228.309V11.608H242.133V9.608ZM227.309 10.608V16.032H229.309V10.608H227.309ZM228.309 17.032H242.133V15.032H228.309V17.032ZM241.133 16.032V18H243.133V16.032H241.133ZM242.133 17H226.341V19H242.133V17ZM227.341 18V1.224H225.341V18H227.341ZM226.341 2.224H242.133V0.223999H226.341V2.224ZM241.133 1.224V3.192H243.133V1.224H241.133Z" fill="black" fill-opacity="0.09" mask="url(#path-1-outside-1_52_42)"/>
</svg>
