<svg width="375" height="539" viewBox="0 0 375 539" fill="none" xmlns="http://www.w3.org/2000/svg">
<g filter="url(#filter0_d_52_91)">
<path d="M27 118C27 109.716 33.7157 103 42 103H173.389H256.599C259.181 103 261.719 103.666 263.968 104.935L336.369 145.771C341.084 148.43 344 153.423 344 158.836V421C344 429.284 337.284 436 329 436H42C33.7157 436 27 429.284 27 421V118Z" fill="white"/>
</g>
<g filter="url(#filter1_d_52_91)">
<path d="M44.8948 135.686C44.8948 127.402 51.6105 120.686 59.8948 120.686H175.881H249.941C252.511 120.686 255.038 121.346 257.28 122.604L320.881 158.286C325.613 160.94 328.542 165.943 328.542 171.368V402.065C328.542 410.35 321.826 417.065 313.542 417.065H59.8948C51.6105 417.065 44.8948 410.35 44.8948 402.065V135.686Z" fill="white"/>
</g>
<path d="M336.994 172.455C336.994 163.603 332.219 155.44 324.504 151.101L257.902 113.645C254.235 111.583 250.099 110.5 245.892 110.5H60C46.469 110.5 35.5 121.469 35.5 135V405C35.5 418.531 46.4691 429.5 60 429.5H312.494C326.025 429.5 336.994 418.531 336.994 405V172.455Z" stroke="#2736C1" stroke-opacity="0.2"/>
<defs>
<filter id="filter0_d_52_91" x="-76" y="0" width="523" height="539" filterUnits="userSpaceOnUse" color-interpolation-filters="sRGB">
<feFlood flood-opacity="0" result="BackgroundImageFix"/>
<feColorMatrix in="SourceAlpha" type="matrix" values="0 0 0 0 0 0 0 0 0 0 0 0 0 0 0 0 0 0 127 0" result="hardAlpha"/>
<feOffset/>
<feGaussianBlur stdDeviation="51.5"/>
<feComposite in2="hardAlpha" operator="out"/>
<feColorMatrix type="matrix" values="0 0 0 0 0 0 0 0 0 0 0 0 0 0 0 0 0 0 0.1 0"/>
<feBlend mode="normal" in2="BackgroundImageFix" result="effect1_dropShadow_52_91"/>
<feBlend mode="normal" in="SourceGraphic" in2="effect1_dropShadow_52_91" result="shape"/>
</filter>
<filter id="filter1_d_52_91" x="-58.1052" y="17.6858" width="489.647" height="502.38" filterUnits="userSpaceOnUse" color-interpolation-filters="sRGB">
<feFlood flood-opacity="0" result="BackgroundImageFix"/>
<feColorMatrix in="SourceAlpha" type="matrix" values="0 0 0 0 0 0 0 0 0 0 0 0 0 0 0 0 0 0 127 0" result="hardAlpha"/>
<feOffset/>
<feGaussianBlur stdDeviation="51.5"/>
<feComposite in2="hardAlpha" operator="out"/>
<feColorMatrix type="matrix" values="0 0 0 0 0 0 0 0 0 0 0 0 0 0 0 0 0 0 0.1 0"/>
<feBlend mode="normal" in2="BackgroundImageFix" result="effect1_dropShadow_52_91"/>
<feBlend mode="normal" in="SourceGraphic" in2="effect1_dropShadow_52_91" result="shape"/>
</filter>
</defs>
</svg>
