<svg width="967" height="71" viewBox="0 0 967 71" fill="none" xmlns="http://www.w3.org/2000/svg">
<mask id="path-1-outside-1_26_48" maskUnits="userSpaceOnUse" x="-1" y="-1" width="969" height="73" fill="black">
<rect fill="white" x="-1" y="-1" width="969" height="73"/>
<path d="M81.84 12.456C82.608 27.816 82.608 43.176 81.84 58.536C81.552 64.488 76.752 69.384 70.704 69.576C61.008 70.056 51.312 70.248 41.712 70.248C32.016 70.248 22.32 70.056 12.72 69.576C6.672 69.384 1.872 64.488 1.584 58.536C0.72 43.176 0.72 27.816 1.584 12.456C1.872 6.408 6.672 1.608 12.72 1.32C22.32 0.839996 32.016 0.647999 41.712 0.647999C51.312 0.647999 61.008 0.839996 70.704 1.32C76.752 1.608 81.552 6.408 81.84 12.456ZM73.968 58.152C74.736 43.08 74.736 27.816 73.968 12.84C73.872 11.88 73.488 11.016 72.816 10.344C72.144 9.672 71.28 9.288 70.32 9.192C60.816 8.808 51.216 8.51999 41.712 8.51999C32.208 8.51999 22.512 8.808 13.008 9.192C12.144 9.288 11.184 9.672 10.512 10.344C9.84 11.016 9.456 11.88 9.456 12.84C8.688 27.816 8.688 43.08 9.456 58.152C9.456 59.016 9.84 59.976 10.512 60.648C11.184 61.32 12.144 61.704 13.008 61.704C22.512 62.184 32.208 62.376 41.712 62.376C51.216 62.376 60.816 62.184 70.32 61.704C71.28 61.704 72.144 61.32 72.816 60.648C73.488 59.976 73.872 59.016 73.968 58.152ZM164.423 27.432C170.471 27.72 175.271 32.52 175.559 38.568V57.864C175.271 63.912 170.471 68.712 164.519 69H96.6465V1.89599H170.567V9.768H104.519V27.432H164.423ZM167.687 57.576V38.952C167.687 37.992 167.303 37.128 166.631 36.456C165.959 35.784 164.999 35.4 164.039 35.4L104.519 35.496V61.128H164.135C164.999 61.128 165.959 60.744 166.631 60.072C167.303 59.4 167.687 58.44 167.687 57.576ZM267.527 13.032V32.328C267.239 38.376 262.439 43.176 256.391 43.464H196.487V69H188.615V1.89599H256.487C262.439 2.184 267.239 6.984 267.527 13.032ZM258.599 34.44C259.271 33.768 259.655 32.904 259.655 31.944V13.416C259.655 12.456 259.271 11.592 258.599 10.92C257.927 10.248 256.967 9.86399 256.103 9.768H196.487V35.496L256.007 35.592C256.967 35.496 257.927 35.112 258.599 34.44ZM314.474 1.89599L345.194 69H336.554L329.93 54.6H281.546L274.922 69H266.282L297.002 1.89599H314.474ZM285.194 46.632H326.282L309.386 9.768H302.09L285.194 46.632ZM431.266 24.264C431.17 26.952 430.114 29.448 428.386 31.368C430.114 33.288 431.17 35.784 431.266 38.568V58.536C430.978 64.488 426.178 69.384 420.13 69.576C410.434 70.056 401.122 70.248 391.522 70.248C381.826 70.248 372.13 70.056 362.434 69.576C356.482 69.384 351.586 64.488 351.298 58.536C351.202 56.424 351.106 54.312 351.106 52.296H358.978C359.074 54.216 359.074 56.136 359.266 58.152C359.266 59.016 359.65 59.976 360.322 60.648C360.994 61.32 361.858 61.704 362.818 61.704C372.322 62.184 382.018 62.376 391.522 62.376C401.026 62.376 410.242 62.184 419.746 61.704C420.706 61.704 421.666 61.32 422.338 60.648C423.01 59.976 423.394 59.016 423.394 58.152V38.952C423.394 37.992 423.01 37.128 422.338 36.456C421.666 35.784 420.706 35.4 419.746 35.4L376.93 35.496V27.432H419.746C420.706 27.432 421.57 27.048 422.242 26.376C422.914 25.704 423.394 24.84 423.394 23.88V12.84C423.394 11.88 423.01 11.016 422.338 10.344C421.666 9.672 420.706 9.288 419.746 9.192C410.242 8.808 401.026 8.51999 391.522 8.51999C382.018 8.51999 372.322 8.808 362.818 9.192C361.858 9.288 360.994 9.672 360.322 10.344C359.65 11.016 359.266 11.88 359.266 12.84C359.074 14.76 359.074 16.68 358.978 18.696H351.106C351.106 16.584 351.202 14.472 351.298 12.456C351.586 6.408 356.482 1.608 362.434 1.32C372.13 0.839996 381.826 0.647999 391.522 0.647999C401.122 0.647999 410.434 0.839996 420.13 1.32C426.178 1.608 430.978 6.408 431.266 12.456V24.264ZM526.309 12.456C527.077 27.816 527.077 43.176 526.309 58.536C526.021 64.488 521.221 69.384 515.173 69.576C505.477 70.056 495.781 70.248 486.181 70.248C476.485 70.248 466.789 70.056 457.189 69.576C451.141 69.384 446.341 64.488 446.053 58.536C445.189 43.176 445.189 27.816 446.053 12.456C446.341 6.408 451.141 1.608 457.189 1.32C466.789 0.839996 476.485 0.647999 486.181 0.647999C495.781 0.647999 505.477 0.839996 515.173 1.32C521.221 1.608 526.021 6.408 526.309 12.456ZM518.437 58.152C519.205 43.08 519.205 27.816 518.437 12.84C518.341 11.88 517.957 11.016 517.285 10.344C516.613 9.672 515.749 9.288 514.789 9.192C505.285 8.808 495.685 8.51999 486.181 8.51999C476.677 8.51999 466.981 8.808 457.477 9.192C456.613 9.288 455.653 9.672 454.981 10.344C454.309 11.016 453.925 11.88 453.925 12.84C453.157 27.816 453.157 43.08 453.925 58.152C453.925 59.016 454.309 59.976 454.981 60.648C455.653 61.32 456.613 61.704 457.477 61.704C466.981 62.184 476.677 62.376 486.181 62.376C495.685 62.376 505.285 62.184 514.789 61.704C515.749 61.704 516.613 61.32 517.285 60.648C517.957 59.976 518.341 59.016 518.437 58.152ZM613.883 28.872C617.435 30.696 619.835 34.344 620.027 38.568V57.864C619.739 63.912 614.939 68.712 608.987 69H541.115V1.89599H603.995C610.043 2.184 614.843 6.984 615.131 13.032V24.264C615.035 25.896 614.651 27.432 613.883 28.872ZM548.987 9.768V27.432H603.611C604.571 27.432 605.435 27.048 606.107 26.376C606.779 25.704 607.163 24.84 607.259 23.88V13.416C607.163 12.456 606.779 11.592 606.107 10.92C605.435 10.248 604.571 9.86399 603.611 9.768H548.987ZM612.155 57.576V38.952C612.155 37.992 611.771 37.128 611.099 36.456C610.427 35.784 609.467 35.4 608.507 35.4L548.987 35.496V61.128H608.603C609.467 61.128 610.427 60.744 611.099 60.072C611.771 59.4 612.155 58.44 612.155 57.576ZM675.224 1.89599L705.944 69H697.304L690.68 54.6H642.296L635.672 69H627.032L657.752 1.89599H675.224ZM645.944 46.632H687.032L670.136 9.768H662.84L645.944 46.632ZM785.968 1.89599H793.84V69H785.968V39.432H722.8V69H714.928V1.89599H722.8V31.56H785.968V1.89599ZM874.139 1.89599H888.059V69H880.187V9.768H877.979L823.067 69H809.147V1.89599H817.019V61.128H819.611L874.139 1.89599ZM966.533 9.768H911.237V31.56H966.533V39.432H911.237V61.128H966.533V69H903.365V1.89599H966.533V9.768Z"/>
</mask>
<path d="M81.84 12.456L80.8411 12.5036L80.8412 12.5059L81.84 12.456ZM81.84 58.536L80.8412 58.4861L80.8412 58.4877L81.84 58.536ZM70.704 69.576L70.6723 68.5765L70.6634 68.5768L70.6546 68.5772L70.704 69.576ZM12.72 69.576L12.7699 68.5772L12.7608 68.5768L12.7517 68.5765L12.72 69.576ZM1.584 58.536L2.58286 58.4877L2.58242 58.4798L1.584 58.536ZM1.584 12.456L2.58246 12.5122L2.58287 12.5036L1.584 12.456ZM12.72 1.32L12.7676 2.31887L12.7699 2.31875L12.72 1.32ZM70.704 1.32L70.6546 2.31877L70.6564 2.31886L70.704 1.32ZM73.968 58.152L74.9619 58.2624L74.9652 58.2327L74.9667 58.2029L73.968 58.152ZM73.968 12.84L74.9667 12.7888L74.9655 12.7646L74.963 12.7405L73.968 12.84ZM72.816 10.344L72.1089 11.0511L72.1089 11.0511L72.816 10.344ZM70.32 9.192L70.4195 8.19696L70.39 8.19401L70.3604 8.19281L70.32 9.192ZM13.008 9.192L12.9676 8.19281L12.9325 8.19423L12.8976 8.19811L13.008 9.192ZM10.512 10.344L11.2191 11.0511L11.2191 11.0511L10.512 10.344ZM9.456 12.84L10.4547 12.8912L10.456 12.8656V12.84H9.456ZM9.456 58.152H10.456V58.1265L10.4547 58.1011L9.456 58.152ZM13.008 61.704L13.0584 60.7053L13.0332 60.704H13.008V61.704ZM70.32 61.704V60.704H70.2948L70.2696 60.7053L70.32 61.704ZM80.8412 12.5059C81.6076 27.8327 81.6076 43.1593 80.8412 58.4861L82.8388 58.5859C83.6084 43.1927 83.6084 27.7993 82.8388 12.4061L80.8412 12.5059ZM80.8412 58.4877C80.5776 63.9341 76.1843 68.4015 70.6723 68.5765L70.7357 70.5755C77.3197 70.3665 82.5264 65.0419 82.8388 58.5843L80.8412 58.4877ZM70.6546 68.5772C60.9781 69.0563 51.2989 69.248 41.712 69.248V71.248C51.3251 71.248 61.0379 71.0557 70.7534 70.5748L70.6546 68.5772ZM41.712 69.248C32.0289 69.248 22.35 69.0563 12.7699 68.5772L12.6701 70.5748C22.29 71.0557 32.0031 71.248 41.712 71.248V69.248ZM12.7517 68.5765C7.23973 68.4015 2.84637 63.9341 2.58283 58.4877L0.585169 58.5843C0.89763 65.0419 6.10427 70.3665 12.6883 70.5755L12.7517 68.5765ZM2.58242 58.4798C1.72053 43.1572 1.72053 27.8347 2.58242 12.5122L0.585578 12.3998C-0.280526 27.7972 -0.280526 43.1947 0.585578 58.5922L2.58242 58.4798ZM2.58287 12.5036C2.84635 6.97046 7.23446 2.58235 12.7676 2.31886L12.6724 0.321128C6.10954 0.633648 0.897651 5.84554 0.585132 12.4084L2.58287 12.5036ZM12.7699 2.31875C22.35 1.83975 32.0289 1.648 41.712 1.648V-0.352001C32.0031 -0.352001 22.29 -0.159755 12.6701 0.321244L12.7699 2.31875ZM41.712 1.648C51.2989 1.648 60.9781 1.83974 70.6546 2.31877L70.7534 0.321219C61.0379 -0.159747 51.3251 -0.352001 41.712 -0.352001V1.648ZM70.6564 2.31886C76.1895 2.58235 80.5777 6.97046 80.8411 12.5036L82.8389 12.4084C82.5264 5.84554 77.3145 0.633648 70.7516 0.321128L70.6564 2.31886ZM74.9667 58.2029C75.7364 43.0971 75.7364 27.799 74.9667 12.7888L72.9693 12.8912C73.7356 27.833 73.7356 43.0629 72.9693 58.1011L74.9667 58.2029ZM74.963 12.7405C74.846 11.5705 74.3718 10.4856 73.5231 9.63689L72.1089 11.0511C72.6042 11.5464 72.898 12.1894 72.973 12.9395L74.963 12.7405ZM73.5231 9.63689C72.6744 8.78816 71.5895 8.31395 70.4195 8.19696L70.2205 10.187C70.9706 10.262 71.6136 10.5558 72.1089 11.0511L73.5231 9.63689ZM70.3604 8.19281C60.8503 7.80857 51.2352 7.51999 41.712 7.51999V9.51999C51.1968 9.51999 60.7817 9.80743 70.2796 10.1912L70.3604 8.19281ZM41.712 7.51999C32.1889 7.51999 22.4779 7.80856 12.9676 8.19281L13.0484 10.1912C22.5461 9.80744 32.2271 9.51999 41.712 9.51999V7.51999ZM12.8976 8.19811C11.8515 8.31434 10.666 8.77582 9.80489 9.63689L11.2191 11.0511C11.702 10.5682 12.4365 10.2617 13.1184 10.1859L12.8976 8.19811ZM9.8049 9.63689C8.95798 10.4838 8.456 11.5974 8.456 12.84H10.456C10.456 12.1625 10.722 11.5482 11.2191 11.0511L9.8049 9.63689ZM8.45731 12.7888C7.68756 27.799 7.68757 43.0971 8.4573 58.2029L10.4547 58.1011C9.68843 43.0629 9.68844 27.833 10.4547 12.8912L8.45731 12.7888ZM8.456 58.152C8.456 59.2842 8.9475 60.4977 9.80489 61.3551L11.2191 59.9409C10.7325 59.4543 10.456 58.7478 10.456 58.152H8.456ZM9.80489 61.3551C10.6623 62.2125 11.8758 62.704 13.008 62.704V60.704C12.4122 60.704 11.7057 60.4275 11.2191 59.9409L9.80489 61.3551ZM12.9576 62.7027C22.4818 63.1837 32.195 63.376 41.712 63.376V61.376C32.221 61.376 22.5422 61.1842 13.0584 60.7053L12.9576 62.7027ZM41.712 63.376C51.2291 63.376 60.8463 63.1837 70.3704 62.7027L70.2696 60.7053C60.7857 61.1843 51.2029 61.376 41.712 61.376V63.376ZM70.32 62.704C71.5626 62.704 72.6762 62.202 73.5231 61.3551L72.1089 59.9409C71.6118 60.438 70.9975 60.704 70.32 60.704V62.704ZM73.5231 61.3551C74.3842 60.494 74.8457 59.3085 74.9619 58.2624L72.9741 58.0416C72.8983 58.7235 72.5918 59.458 72.1089 59.9409L73.5231 61.3551ZM164.423 27.432L164.47 26.4331L164.446 26.432H164.423V27.432ZM175.559 38.568H176.559V38.5442L176.557 38.5204L175.559 38.568ZM175.559 57.864L176.557 57.9116L176.559 57.8878V57.864H175.559ZM164.518 69V70H164.543L164.567 69.9988L164.518 69ZM96.6465 69H95.6465V70H96.6465V69ZM96.6465 1.89599V0.895994H95.6465V1.89599H96.6465ZM170.566 1.89599H171.566V0.895994H170.566V1.89599ZM170.566 9.768V10.768H171.566V9.768H170.566ZM104.519 9.768V8.768H103.519V9.768H104.519ZM104.519 27.432H103.519V28.432H104.519V27.432ZM166.631 36.456L165.923 37.1631L166.631 36.456ZM164.038 35.4V34.4H164.037L164.038 35.4ZM104.519 35.496L104.517 34.496L103.519 34.4976V35.496H104.519ZM104.519 61.128H103.519V62.128H104.519V61.128ZM166.631 60.072L165.923 59.3649V59.3649L166.631 60.072ZM164.375 28.4309C169.908 28.6943 174.296 33.0825 174.56 38.6156L176.557 38.5204C176.245 31.9575 171.033 26.7456 164.47 26.4331L164.375 28.4309ZM174.559 38.568V57.864H176.559V38.568H174.559ZM174.56 57.8164C174.296 63.3546 169.903 67.7383 164.47 68.0012L164.567 69.9988C171.038 69.6857 176.245 64.4694 176.557 57.9116L174.56 57.8164ZM164.518 68H96.6465V70H164.518V68ZM97.6465 69V1.89599H95.6465V69H97.6465ZM96.6465 2.89599H170.566V0.895994H96.6465V2.89599ZM169.566 1.89599V9.768H171.566V1.89599H169.566ZM170.566 8.768H104.519V10.768H170.566V8.768ZM103.519 9.768V27.432H105.519V9.768H103.519ZM104.519 28.432H164.423V26.432H104.519V28.432ZM168.687 57.576V38.952H166.687V57.576H168.687ZM168.687 38.952C168.687 37.7094 168.185 36.5958 167.338 35.7489L165.923 37.1631C166.42 37.6602 166.687 38.2746 166.687 38.952H168.687ZM167.338 35.7489C166.47 34.8817 165.253 34.4 164.038 34.4V36.4C164.744 36.4 165.447 36.6863 165.923 37.1631L167.338 35.7489ZM164.037 34.4L104.517 34.496L104.52 36.496L164.04 36.4L164.037 34.4ZM103.519 35.496V61.128H105.519V35.496H103.519ZM104.519 62.128H164.135V60.128H104.519V62.128ZM164.135 62.128C165.267 62.128 166.48 61.6365 167.338 60.7791L165.923 59.3649C165.437 59.8515 164.73 60.128 164.135 60.128V62.128ZM167.338 60.7791C168.195 59.9217 168.687 58.7082 168.687 57.576H166.687C166.687 58.1718 166.41 58.8783 165.923 59.3649L167.338 60.7791ZM267.527 13.032H268.527V13.0082L268.526 12.9844L267.527 13.032ZM267.527 32.328L268.526 32.3756L268.527 32.3518V32.328H267.527ZM256.391 43.464V44.464H256.415L256.439 44.4629L256.391 43.464ZM196.487 43.464V42.464H195.487V43.464H196.487ZM196.487 69V70H197.487V69H196.487ZM188.615 69H187.615V70H188.615V69ZM188.615 1.89599V0.895994H187.615V1.89599H188.615ZM256.487 1.89599L256.536 0.897163L256.511 0.895994H256.487V1.89599ZM258.599 34.44L257.892 33.7329V33.7329L258.599 34.44ZM258.599 10.92L257.892 11.6271V11.6271L258.599 10.92ZM256.103 9.768L256.214 8.77411L256.159 8.768H256.103V9.768ZM196.487 9.768V8.768H195.487V9.768H196.487ZM196.487 35.496H195.487V36.4944L196.486 36.496L196.487 35.496ZM256.007 35.592L256.006 36.592L256.056 36.5921L256.107 36.587L256.007 35.592ZM266.527 13.032V32.328H268.527V13.032H266.527ZM266.528 32.2804C266.265 37.8135 261.877 42.2016 256.344 42.4651L256.439 44.4629C263.002 44.1503 268.214 38.9385 268.526 32.3756L266.528 32.2804ZM256.391 42.464H196.487V44.464H256.391V42.464ZM195.487 43.464V69H197.487V43.464H195.487ZM196.487 68H188.615V70H196.487V68ZM189.615 69V1.89599H187.615V69H189.615ZM188.615 2.89599H256.487V0.895994H188.615V2.89599ZM256.439 2.89483C261.872 3.1577 266.265 7.54141 266.528 13.0796L268.526 12.9844C268.214 6.42659 263.007 1.21029 256.536 0.897163L256.439 2.89483ZM259.306 35.1471C260.153 34.3002 260.655 33.1866 260.655 31.944H258.655C258.655 32.6214 258.389 33.2358 257.892 33.7329L259.306 35.1471ZM260.655 31.944V13.416H258.655V31.944H260.655ZM260.655 13.416C260.655 12.1734 260.153 11.0598 259.306 10.2129L257.892 11.6271C258.389 12.1242 258.655 12.7386 258.655 13.416H260.655ZM259.306 10.2129C258.445 9.35182 257.26 8.89034 256.214 8.77411L255.993 10.7619C256.675 10.8377 257.409 11.1442 257.892 11.6271L259.306 10.2129ZM256.103 8.768H196.487V10.768H256.103V8.768ZM195.487 9.768V35.496H197.487V9.768H195.487ZM196.486 36.496L256.006 36.592L256.009 34.592L196.489 34.496L196.486 36.496ZM256.107 36.587C257.246 36.4731 258.438 36.0151 259.306 35.1471L257.892 33.7329C257.416 34.2089 256.689 34.5189 255.908 34.597L256.107 36.587ZM314.474 1.89599L315.383 1.47974L315.116 0.895994H314.474V1.89599ZM345.194 69V70H346.751L346.103 68.5837L345.194 69ZM336.553 69L335.645 69.4179L335.913 70H336.553V69ZM329.93 54.6L330.838 54.1821L330.57 53.6H329.93V54.6ZM281.546 54.6V53.6H280.905L280.637 54.1821L281.546 54.6ZM274.922 69V70H275.562L275.83 69.4179L274.922 69ZM266.281 69L265.372 68.5837L264.724 70H266.281V69ZM297.001 1.89599V0.895994H296.359L296.092 1.47974L297.001 1.89599ZM285.194 46.632L284.284 46.2153L283.635 47.632H285.194V46.632ZM326.281 46.632V47.632H327.84L327.191 46.2153L326.281 46.632ZM309.385 9.768L310.295 9.35134L310.027 8.768H309.385V9.768ZM302.09 9.768V8.768H301.448L301.18 9.35134L302.09 9.768ZM313.564 2.31225L344.284 69.4163L346.103 68.5837L315.383 1.47974L313.564 2.31225ZM345.194 68H336.553V70H345.194V68ZM337.462 68.5821L330.838 54.1821L329.021 55.0179L335.645 69.4179L337.462 68.5821ZM329.93 53.6H281.546V55.6H329.93V53.6ZM280.637 54.1821L274.013 68.5821L275.83 69.4179L282.454 55.0179L280.637 54.1821ZM274.922 68H266.281V70H274.922V68ZM267.191 69.4163L297.911 2.31225L296.092 1.47974L265.372 68.5837L267.191 69.4163ZM297.001 2.89599H314.474V0.895994H297.001V2.89599ZM285.194 47.632H326.281V45.632H285.194V47.632ZM327.191 46.2153L310.295 9.35134L308.476 10.1847L325.372 47.0487L327.191 46.2153ZM309.385 8.768H302.09V10.768H309.385V8.768ZM301.18 9.35134L284.284 46.2153L286.103 47.0487L302.999 10.1847L301.18 9.35134ZM431.266 24.264L432.265 24.2997L432.266 24.2818V24.264H431.266ZM428.386 31.368L427.642 30.699L427.04 31.368L427.642 32.037L428.386 31.368ZM431.266 38.568H432.266V38.5508L432.265 38.5335L431.266 38.568ZM431.266 58.536L432.265 58.5843L432.266 58.5602V58.536H431.266ZM420.13 69.576L420.098 68.5765L420.089 68.5768L420.08 68.5772L420.13 69.576ZM362.434 69.576L362.483 68.5772L362.475 68.5768L362.466 68.5765L362.434 69.576ZM351.298 58.536L350.299 58.5814L350.299 58.5843L351.298 58.536ZM351.106 52.296V51.296H350.106V52.296H351.106ZM358.978 52.296L359.977 52.2461L359.929 51.296H358.978V52.296ZM359.266 58.152H360.266V58.1045L360.261 58.0572L359.266 58.152ZM362.818 61.704L362.868 60.7053L362.843 60.704H362.818V61.704ZM419.746 61.704V60.704H419.721L419.695 60.7053L419.746 61.704ZM422.338 60.648L421.631 59.9409V59.9409L422.338 60.648ZM422.338 36.456L421.631 37.1631L422.338 36.456ZM419.746 35.4V34.4L419.743 34.4L419.746 35.4ZM376.93 35.496H375.93V36.4982L376.932 36.496L376.93 35.496ZM376.93 27.432V26.432H375.93V27.432H376.93ZM422.242 26.376L422.949 27.0831V27.0831L422.242 26.376ZM422.338 10.344L421.631 11.0511V11.0511L422.338 10.344ZM419.746 9.192L419.845 8.19696L419.816 8.19401L419.786 8.19281L419.746 9.192ZM362.818 9.192L362.777 8.19281L362.748 8.19401L362.718 8.19696L362.818 9.192ZM360.322 10.344L361.029 11.0511V11.0511L360.322 10.344ZM359.266 12.84L360.261 12.9395L360.266 12.8899V12.84H359.266ZM358.978 18.696V19.696H359.931L359.977 18.7436L358.978 18.696ZM351.106 18.696H350.106V19.696H351.106V18.696ZM351.298 12.456L352.297 12.5036L351.298 12.456ZM362.434 1.32L362.482 2.31883L362.483 2.31877L362.434 1.32ZM420.13 1.32L420.08 2.31877L420.082 2.31886L420.13 1.32ZM431.266 12.456H432.266V12.4322L432.265 12.4084L431.266 12.456ZM430.266 24.2283C430.179 26.6749 429.218 28.9484 427.642 30.699L429.129 32.037C431.009 29.9476 432.16 27.2291 432.265 24.2997L430.266 24.2283ZM427.642 32.037C429.215 33.7842 430.179 36.0563 430.266 38.6025L432.265 38.5335C432.161 35.5117 431.012 32.7918 429.129 30.699L427.642 32.037ZM430.266 38.568V58.536H432.266V38.568H430.266ZM430.267 58.4877C430.003 63.9341 425.61 68.4015 420.098 68.5765L420.161 70.5755C426.745 70.3665 431.952 65.0419 432.265 58.5843L430.267 58.4877ZM420.08 68.5772C410.403 69.0563 401.108 69.248 391.522 69.248V71.248C401.136 71.248 410.464 71.0557 420.179 70.5748L420.08 68.5772ZM391.522 69.248C381.839 69.248 372.16 69.0563 362.483 68.5772L362.384 70.5748C372.1 71.0557 381.813 71.248 391.522 71.248V69.248ZM362.466 68.5765C357.044 68.4016 352.56 63.9284 352.297 58.4877L350.299 58.5843C350.612 65.0476 355.92 70.3664 362.402 70.5755L362.466 68.5765ZM352.297 58.4906C352.201 56.374 352.106 54.2852 352.106 52.296H350.106C350.106 54.3388 350.203 56.474 350.299 58.5814L352.297 58.4906ZM351.106 53.296H358.978V51.296H351.106V53.296ZM357.979 52.3459C358.072 54.1966 358.076 56.2059 358.27 58.2468L360.261 58.0572C360.072 56.0661 360.076 54.2354 359.977 52.2461L357.979 52.3459ZM358.266 58.152C358.266 59.2842 358.757 60.4977 359.615 61.3551L361.029 59.9409C360.542 59.4543 360.266 58.7478 360.266 58.152H358.266ZM359.615 61.3551C360.462 62.202 361.575 62.704 362.818 62.704V60.704C362.14 60.704 361.526 60.438 361.029 59.9409L359.615 61.3551ZM362.767 62.7027C372.292 63.1837 382.005 63.376 391.522 63.376V61.376C382.031 61.376 372.352 61.1842 362.868 60.7053L362.767 62.7027ZM391.522 63.376C401.04 63.376 410.273 63.1837 419.796 62.7027L419.695 60.7053C410.211 61.1843 401.012 61.376 391.522 61.376V63.376ZM419.746 62.704C420.96 62.704 422.178 62.2223 423.045 61.3551L421.631 59.9409C421.154 60.4177 420.452 60.704 419.746 60.704V62.704ZM423.045 61.3551C423.902 60.4977 424.394 59.2842 424.394 58.152H422.394C422.394 58.7478 422.117 59.4543 421.631 59.9409L423.045 61.3551ZM424.394 58.152V38.952H422.394V58.152H424.394ZM424.394 38.952C424.394 37.7094 423.892 36.5958 423.045 35.7489L421.631 37.1631C422.128 37.6602 422.394 38.2745 422.394 38.952H424.394ZM423.045 35.7489C422.178 34.8817 420.96 34.4 419.746 34.4V36.4C420.452 36.4 421.154 36.6863 421.631 37.1631L423.045 35.7489ZM419.743 34.4L376.928 34.496L376.932 36.496L419.748 36.4L419.743 34.4ZM377.93 35.496V27.432H375.93V35.496H377.93ZM376.93 28.432H419.746V26.432H376.93V28.432ZM419.746 28.432C420.988 28.432 422.102 27.93 422.949 27.0831L421.535 25.6689C421.038 26.166 420.423 26.432 419.746 26.432V28.432ZM422.949 27.0831C423.743 26.2886 424.394 25.1848 424.394 23.88H422.394C422.394 24.4952 422.084 25.1194 421.535 25.6689L422.949 27.0831ZM424.394 23.88V12.84H422.394V23.88H424.394ZM424.394 12.84C424.394 11.5974 423.892 10.4838 423.045 9.63689L421.631 11.0511C422.128 11.5482 422.394 12.1625 422.394 12.84H424.394ZM423.045 9.6369C422.177 8.7689 420.984 8.31085 419.845 8.19696L419.646 10.187C420.427 10.2651 421.155 10.5751 421.631 11.0511L423.045 9.6369ZM419.786 8.19281C410.277 7.8086 401.046 7.51999 391.522 7.51999V9.51999C401.006 9.51999 410.207 9.80739 419.705 10.1912L419.786 8.19281ZM391.522 7.51999C381.999 7.51999 372.288 7.80856 362.777 8.19281L362.858 10.1912C372.356 9.80744 382.037 9.51999 391.522 9.51999V7.51999ZM362.718 8.19696C361.548 8.31395 360.463 8.78816 359.615 9.63689L361.029 11.0511C361.524 10.5558 362.167 10.262 362.917 10.187L362.718 8.19696ZM359.615 9.63689C358.768 10.4838 358.266 11.5974 358.266 12.84H360.266C360.266 12.1626 360.532 11.5482 361.029 11.0511L359.615 9.63689ZM358.271 12.7405C358.076 14.6922 358.072 16.6981 357.979 18.6484L359.977 18.7436C360.076 16.6619 360.072 14.8278 360.261 12.9395L358.271 12.7405ZM358.978 17.696H351.106V19.696H358.978V17.696ZM352.106 18.696C352.106 16.6109 352.201 14.5211 352.297 12.5036L350.299 12.4084C350.203 14.4229 350.106 16.5571 350.106 18.696H352.106ZM352.297 12.5036C352.56 6.97624 357.039 2.58223 362.482 2.31883L362.385 0.321165C355.925 0.63377 350.612 5.83975 350.299 12.4084L352.297 12.5036ZM362.483 2.31877C372.16 1.83974 381.839 1.648 391.522 1.648V-0.352001C381.813 -0.352001 372.1 -0.15975 362.384 0.321219L362.483 2.31877ZM391.522 1.648C401.108 1.648 410.403 1.83971 420.08 2.31877L420.179 0.321219C410.464 -0.159719 401.136 -0.352001 391.522 -0.352001V1.648ZM420.082 2.31886C425.615 2.58235 430.003 6.97046 430.267 12.5036L432.265 12.4084C431.952 5.84554 426.74 0.633648 420.177 0.321128L420.082 2.31886ZM430.266 12.456V24.264H432.266V12.456H430.266ZM526.309 12.456L525.31 12.5036L525.31 12.5059L526.309 12.456ZM526.309 58.536L525.31 58.4861L525.31 58.4877L526.309 58.536ZM515.173 69.576L515.141 68.5765L515.132 68.5768L515.123 68.5772L515.173 69.576ZM457.189 69.576L457.239 68.5772L457.23 68.5768L457.22 68.5765L457.189 69.576ZM446.053 58.536L447.052 58.4877L447.051 58.4798L446.053 58.536ZM446.053 12.456L447.051 12.5122L447.052 12.5036L446.053 12.456ZM457.189 1.32L457.236 2.31887L457.239 2.31875L457.189 1.32ZM515.173 1.32L515.123 2.31877L515.125 2.31886L515.173 1.32ZM518.437 58.152L519.431 58.2624L519.434 58.2327L519.435 58.2029L518.437 58.152ZM518.437 12.84L519.435 12.7888L519.434 12.7646L519.432 12.7405L518.437 12.84ZM517.285 10.344L516.578 11.0511V11.0511L517.285 10.344ZM514.789 9.192L514.888 8.19696L514.859 8.19401L514.829 8.19281L514.789 9.192ZM457.477 9.192L457.436 8.19281L457.401 8.19423L457.366 8.19811L457.477 9.192ZM454.981 10.344L455.688 11.0511V11.0511L454.981 10.344ZM453.925 12.84L454.923 12.8912L454.925 12.8656V12.84H453.925ZM453.925 58.152H454.925V58.1265L454.923 58.1011L453.925 58.152ZM457.477 61.704L457.527 60.7053L457.502 60.704H457.477V61.704ZM514.789 61.704V60.704H514.763L514.738 60.7053L514.789 61.704ZM525.31 12.5059C526.076 27.8327 526.076 43.1593 525.31 58.4861L527.307 58.5859C528.077 43.1927 528.077 27.7993 527.307 12.4061L525.31 12.5059ZM525.31 58.4877C525.046 63.9341 520.653 68.4015 515.141 68.5765L515.204 70.5755C521.788 70.3665 526.995 65.0419 527.308 58.5843L525.31 58.4877ZM515.123 68.5772C505.447 69.0563 495.768 69.248 486.181 69.248V71.248C495.794 71.248 505.507 71.0557 515.222 70.5748L515.123 68.5772ZM486.181 69.248C476.498 69.248 466.819 69.0563 457.239 68.5772L457.139 70.5748C466.759 71.0557 476.472 71.248 486.181 71.248V69.248ZM457.22 68.5765C451.708 68.4015 447.315 63.9341 447.052 58.4877L445.054 58.5843C445.366 65.0419 450.573 70.3665 457.157 70.5755L457.22 68.5765ZM447.051 58.4798C446.189 43.1572 446.189 27.8347 447.051 12.5122L445.054 12.3998C444.188 27.7972 444.188 43.1947 445.054 58.5922L447.051 58.4798ZM447.052 12.5036C447.315 6.97046 451.703 2.58235 457.236 2.31886L457.141 0.321128C450.578 0.633648 445.366 5.84554 445.054 12.4084L447.052 12.5036ZM457.239 2.31875C466.819 1.83975 476.498 1.648 486.181 1.648V-0.352001C476.472 -0.352001 466.759 -0.159755 457.139 0.321244L457.239 2.31875ZM486.181 1.648C495.768 1.648 505.447 1.83974 515.123 2.31877L515.222 0.321219C505.507 -0.159747 495.794 -0.352001 486.181 -0.352001V1.648ZM515.125 2.31886C520.658 2.58235 525.046 6.97046 525.31 12.5036L527.308 12.4084C526.995 5.84554 521.783 0.633648 515.22 0.321128L515.125 2.31886ZM519.435 58.2029C520.205 43.0971 520.205 27.799 519.435 12.7888L517.438 12.8912C518.204 27.833 518.204 43.0629 517.438 58.1011L519.435 58.2029ZM519.432 12.7405C519.315 11.5705 518.841 10.4856 517.992 9.63689L516.578 11.0511C517.073 11.5464 517.367 12.1894 517.442 12.9395L519.432 12.7405ZM517.992 9.63689C517.143 8.78816 516.058 8.31395 514.888 8.19696L514.689 10.187C515.439 10.262 516.082 10.5558 516.578 11.0511L517.992 9.63689ZM514.829 8.19281C505.319 7.80857 495.704 7.51999 486.181 7.51999V9.51999C495.666 9.51999 505.25 9.80743 514.748 10.1912L514.829 8.19281ZM486.181 7.51999C476.658 7.51999 466.947 7.80856 457.436 8.19281L457.517 10.1912C467.015 9.80744 476.696 9.51999 486.181 9.51999V7.51999ZM457.366 8.19811C456.32 8.31434 455.135 8.77582 454.274 9.63689L455.688 11.0511C456.171 10.5682 456.905 10.2617 457.587 10.1859L457.366 8.19811ZM454.274 9.63689C453.427 10.4838 452.925 11.5974 452.925 12.84H454.925C454.925 12.1625 455.191 11.5482 455.688 11.0511L454.274 9.63689ZM452.926 12.7888C452.156 27.799 452.156 43.0971 452.926 58.2029L454.923 58.1011C454.157 43.0629 454.157 27.833 454.923 12.8912L452.926 12.7888ZM452.925 58.152C452.925 59.2842 453.416 60.4977 454.274 61.3551L455.688 59.9409C455.201 59.4543 454.925 58.7478 454.925 58.152H452.925ZM454.274 61.3551C455.131 62.2125 456.345 62.704 457.477 62.704V60.704C456.881 60.704 456.174 60.4275 455.688 59.9409L454.274 61.3551ZM457.426 62.7027C466.951 63.1837 476.664 63.376 486.181 63.376V61.376C476.69 61.376 467.011 61.1842 457.527 60.7053L457.426 62.7027ZM486.181 63.376C495.698 63.376 505.315 63.1837 514.839 62.7027L514.738 60.7053C505.254 61.1843 495.672 61.376 486.181 61.376V63.376ZM514.789 62.704C516.031 62.704 517.145 62.202 517.992 61.3551L516.578 59.9409C516.081 60.438 515.466 60.704 514.789 60.704V62.704ZM517.992 61.3551C518.853 60.494 519.314 59.3085 519.431 58.2624L517.443 58.0416C517.367 58.7235 517.061 59.458 516.578 59.9409L517.992 61.3551ZM613.883 28.872L613.001 28.4014L612.523 29.2976L613.426 29.7616L613.883 28.872ZM620.027 38.568H621.027V38.5453L621.026 38.5226L620.027 38.568ZM620.027 57.864L621.026 57.9116L621.027 57.8878V57.864H620.027ZM608.987 69V70H609.011L609.036 69.9988L608.987 69ZM541.115 69H540.115V70H541.115V69ZM541.115 1.89599V0.895994H540.115V1.89599H541.115ZM603.995 1.89599L604.043 0.897126L604.019 0.895994H603.995V1.89599ZM615.131 13.032H616.131V13.0082L616.13 12.9844L615.131 13.032ZM615.131 24.264L616.13 24.3227L616.131 24.2934V24.264H615.131ZM548.987 9.768V8.768H547.987V9.768H548.987ZM548.987 27.432H547.987V28.432H548.987V27.432ZM606.107 26.376L606.814 27.0831L606.814 27.0831L606.107 26.376ZM607.259 23.88L608.254 23.9795L608.259 23.9299V23.88H607.259ZM607.259 13.416H608.259V13.3661L608.254 13.3165L607.259 13.416ZM603.611 9.768L603.711 8.77296L603.661 8.768H603.611V9.768ZM611.099 36.456L610.392 37.1631L611.099 36.456ZM608.507 35.4V34.4H608.506L608.507 35.4ZM548.987 35.496L548.986 34.496L547.987 34.4976V35.496H548.987ZM548.987 61.128H547.987V62.128H548.987V61.128ZM611.099 60.072L610.392 59.3649V59.3649L611.099 60.072ZM613.426 29.7616C616.658 31.4208 618.852 34.7455 619.028 38.6134L621.026 38.5226C620.818 33.9425 618.213 29.9712 614.34 27.9824L613.426 29.7616ZM619.027 38.568V57.864H621.027V38.568H619.027ZM619.028 57.8164C618.765 63.3546 614.372 67.7383 608.939 68.0012L609.036 69.9988C615.507 69.6857 620.714 64.4694 621.026 57.9116L619.028 57.8164ZM608.987 68H541.115V70H608.987V68ZM542.115 69V1.89599H540.115V69H542.115ZM541.115 2.89599H603.995V0.895994H541.115V2.89599ZM603.948 2.89486C609.481 3.15835 613.869 7.54646 614.132 13.0796L616.13 12.9844C615.818 6.42154 610.606 1.20965 604.043 0.897126L603.948 2.89486ZM614.131 13.032V24.264H616.131V13.032H614.131ZM614.133 24.2053C614.044 25.714 613.692 27.1059 613.001 28.4014L614.766 29.3426C615.611 27.7581 616.026 26.078 616.13 24.3227L614.133 24.2053ZM547.987 9.768V27.432H549.987V9.768H547.987ZM548.987 28.432H603.611V26.432H548.987V28.432ZM603.611 28.432C604.854 28.432 605.967 27.93 606.814 27.0831L605.4 25.6689C604.903 26.166 604.289 26.432 603.611 26.432V28.432ZM606.814 27.0831C607.663 26.2344 608.137 25.1495 608.254 23.9795L606.264 23.7805C606.189 24.5305 605.895 25.1736 605.4 25.6689L606.814 27.0831ZM608.259 23.88V13.416H606.259V23.88H608.259ZM608.254 13.3165C608.137 12.1465 607.663 11.0616 606.814 10.2129L605.4 11.6271C605.895 12.1224 606.189 12.7654 606.264 13.5155L608.254 13.3165ZM606.814 10.2129C605.966 9.36415 604.881 8.88995 603.711 8.77296L603.512 10.763C604.262 10.838 604.905 11.1318 605.4 11.6271L606.814 10.2129ZM603.611 8.768H548.987V10.768H603.611V8.768ZM613.155 57.576V38.952H611.155V57.576H613.155ZM613.155 38.952C613.155 37.7094 612.653 36.5958 611.806 35.7489L610.392 37.1631C610.889 37.6602 611.155 38.2746 611.155 38.952H613.155ZM611.806 35.7489C610.939 34.8817 609.721 34.4 608.507 34.4V36.4C609.213 36.4 609.915 36.6863 610.392 37.1631L611.806 35.7489ZM608.506 34.4L548.986 34.496L548.989 36.496L608.509 36.4L608.506 34.4ZM547.987 35.496V61.128H549.987V35.496H547.987ZM548.987 62.128H608.603V60.128H548.987V62.128ZM608.603 62.128C609.735 62.128 610.949 61.6365 611.806 60.7791L610.392 59.3649C609.906 59.8515 609.199 60.128 608.603 60.128V62.128ZM611.806 60.7791C612.664 59.9217 613.155 58.7082 613.155 57.576H611.155C611.155 58.1718 610.879 58.8783 610.392 59.3649L611.806 60.7791ZM675.224 1.89599L676.133 1.47974L675.866 0.895994H675.224V1.89599ZM705.943 69V70H707.501L706.853 68.5837L705.943 69ZM697.304 69L696.395 69.4179L696.663 70H697.304V69ZM690.68 54.6L691.588 54.1821L691.32 53.6H690.68V54.6ZM642.295 54.6V53.6H641.655L641.387 54.1821L642.295 54.6ZM635.672 69V70H636.312L636.58 69.4179L635.672 69ZM627.031 69L626.122 68.5837L625.474 70H627.031V69ZM657.752 1.89599V0.895994H657.109L656.842 1.47974L657.752 1.89599ZM645.943 46.632L645.034 46.2153L644.385 47.632H645.943V46.632ZM687.031 46.632V47.632H688.59L687.941 46.2153L687.031 46.632ZM670.135 9.768L671.045 9.35134L670.777 8.768H670.135V9.768ZM662.839 9.768V8.768H662.198L661.93 9.35134L662.839 9.768ZM674.314 2.31225L705.034 69.4163L706.853 68.5837L676.133 1.47974L674.314 2.31225ZM705.943 68H697.304V70H705.943V68ZM698.212 68.5821L691.588 54.1821L689.771 55.0179L696.395 69.4179L698.212 68.5821ZM690.68 53.6H642.295V55.6H690.68V53.6ZM641.387 54.1821L634.763 68.5821L636.58 69.4179L643.204 55.0179L641.387 54.1821ZM635.672 68H627.031V70H635.672V68ZM627.941 69.4163L658.661 2.31225L656.842 1.47974L626.122 68.5837L627.941 69.4163ZM657.752 2.89599H675.224V0.895994H657.752V2.89599ZM645.943 47.632H687.031V45.632H645.943V47.632ZM687.941 46.2153L671.045 9.35134L669.226 10.1847L686.122 47.0487L687.941 46.2153ZM670.135 8.768H662.839V10.768H670.135V8.768ZM661.93 9.35134L645.034 46.2153L646.853 47.0487L663.749 10.1847L661.93 9.35134ZM785.968 1.89599V0.895994H784.968V1.89599H785.968ZM793.84 1.89599H794.84V0.895994H793.84V1.89599ZM793.84 69V70H794.84V69H793.84ZM785.968 69H784.968V70H785.968V69ZM785.968 39.432H786.968V38.432H785.968V39.432ZM722.8 39.432V38.432H721.8V39.432H722.8ZM722.8 69V70H723.8V69H722.8ZM714.928 69H713.928V70H714.928V69ZM714.928 1.89599V0.895994H713.928V1.89599H714.928ZM722.8 1.89599H723.8V0.895994H722.8V1.89599ZM722.8 31.56H721.8V32.56H722.8V31.56ZM785.968 31.56V32.56H786.968V31.56H785.968ZM785.968 2.89599H793.84V0.895994H785.968V2.89599ZM792.84 1.89599V69H794.84V1.89599H792.84ZM793.84 68H785.968V70H793.84V68ZM786.968 69V39.432H784.968V69H786.968ZM785.968 38.432H722.8V40.432H785.968V38.432ZM721.8 39.432V69H723.8V39.432H721.8ZM722.8 68H714.928V70H722.8V68ZM715.928 69V1.89599H713.928V69H715.928ZM714.928 2.89599H722.8V0.895994H714.928V2.89599ZM721.8 1.89599V31.56H723.8V1.89599H721.8ZM722.8 32.56H785.968V30.56H722.8V32.56ZM786.968 31.56V1.89599H784.968V31.56H786.968ZM874.138 1.89599V0.895994H873.7L873.403 1.21871L874.138 1.89599ZM888.058 1.89599H889.058V0.895994H888.058V1.89599ZM888.058 69V70H889.058V69H888.058ZM880.187 69H879.187V70H880.187V69ZM880.187 9.768H881.187V8.768H880.187V9.768ZM877.979 9.768V8.768H877.542L877.245 9.08814L877.979 9.768ZM823.067 69V70H823.503L823.8 69.6799L823.067 69ZM809.146 69H808.146V70H809.146V69ZM809.146 1.89599V0.895994H808.146V1.89599H809.146ZM817.018 1.89599H818.018V0.895994H817.018V1.89599ZM817.018 61.128H816.018V62.128H817.018V61.128ZM819.61 61.128V62.128H820.049L820.346 61.8053L819.61 61.128ZM874.138 2.89599H888.058V0.895994H874.138V2.89599ZM887.058 1.89599V69H889.058V1.89599H887.058ZM888.058 68H880.187V70H888.058V68ZM881.187 69V9.768H879.187V69H881.187ZM880.187 8.768H877.979V10.768H880.187V8.768ZM877.245 9.08814L822.333 68.3201L823.8 69.6799L878.712 10.4479L877.245 9.08814ZM823.067 68H809.146V70H823.067V68ZM810.146 69V1.89599H808.146V69H810.146ZM809.146 2.89599H817.018V0.895994H809.146V2.89599ZM816.018 1.89599V61.128H818.018V1.89599H816.018ZM817.018 62.128H819.61V60.128H817.018V62.128ZM820.346 61.8053L874.874 2.57328L873.403 1.21871L818.875 60.4507L820.346 61.8053ZM966.533 9.768V10.768H967.533V9.768H966.533ZM911.237 9.768V8.768H910.237V9.768H911.237ZM911.237 31.56H910.237V32.56H911.237V31.56ZM966.533 31.56H967.533V30.56H966.533V31.56ZM966.533 39.432V40.432H967.533V39.432H966.533ZM911.237 39.432V38.432H910.237V39.432H911.237ZM911.237 61.128H910.237V62.128H911.237V61.128ZM966.533 61.128H967.533V60.128H966.533V61.128ZM966.533 69V70H967.533V69H966.533ZM903.365 69H902.365V70H903.365V69ZM903.365 1.89599V0.895994H902.365V1.89599H903.365ZM966.533 1.89599H967.533V0.895994H966.533V1.89599ZM966.533 8.768H911.237V10.768H966.533V8.768ZM910.237 9.768V31.56H912.237V9.768H910.237ZM911.237 32.56H966.533V30.56H911.237V32.56ZM965.533 31.56V39.432H967.533V31.56H965.533ZM966.533 38.432H911.237V40.432H966.533V38.432ZM910.237 39.432V61.128H912.237V39.432H910.237ZM911.237 62.128H966.533V60.128H911.237V62.128ZM965.533 61.128V69H967.533V61.128H965.533ZM966.533 68H903.365V70H966.533V68ZM904.365 69V1.89599H902.365V69H904.365ZM903.365 2.89599H966.533V0.895994H903.365V2.89599ZM965.533 1.89599V9.768H967.533V1.89599H965.533Z" fill="black" fill-opacity="0.12" mask="url(#path-1-outside-1_26_48)"/>
</svg>
