<svg width="757" height="733" viewBox="0 0 757 733" fill="none" xmlns="http://www.w3.org/2000/svg">
<g filter="url(#filter0_d_26_86)">
<path d="M52 118C52 109.716 58.7157 103 67 103H330H492.151C494.356 103 496.535 103.486 498.531 104.425L645.381 173.449C650.642 175.921 654 181.211 654 187.024V615C654 623.284 647.284 630 639 630H67C58.7157 630 52 623.284 52 615V118Z" fill="white"/>
</g>
<path d="M668.5 184.909C668.5 176.972 663.918 169.748 656.738 166.365L495.627 90.4553C492.894 89.1677 489.91 88.5 486.889 88.5H55.9999C44.6782 88.5 35.5 97.6782 35.5 109V628C35.5 639.322 44.6782 648.5 56 648.5H648C659.322 648.5 668.5 639.322 668.5 628V184.909Z" stroke="#2736C1" stroke-opacity="0.2" stroke-width="9"/>
<defs>
<filter id="filter0_d_26_86" x="-51" y="0" width="808" height="733" filterUnits="userSpaceOnUse" color-interpolation-filters="sRGB">
<feFlood flood-opacity="0" result="BackgroundImageFix"/>
<feColorMatrix in="SourceAlpha" type="matrix" values="0 0 0 0 0 0 0 0 0 0 0 0 0 0 0 0 0 0 127 0" result="hardAlpha"/>
<feOffset/>
<feGaussianBlur stdDeviation="51.5"/>
<feComposite in2="hardAlpha" operator="out"/>
<feColorMatrix type="matrix" values="0 0 0 0 0 0 0 0 0 0 0 0 0 0 0 0 0 0 0.1 0"/>
<feBlend mode="normal" in2="BackgroundImageFix" result="effect1_dropShadow_26_86"/>
<feBlend mode="normal" in="SourceGraphic" in2="effect1_dropShadow_26_86" result="shape"/>
</filter>
</defs>
</svg>
