<svg width="351" height="369" viewBox="0 0 351 369" fill="none" xmlns="http://www.w3.org/2000/svg">
<path d="M0 41C0 18.3563 18.3563 0 41 0H270.5C277.821 0 285.009 1.9603 291.316 5.67725L330.816 28.9548C343.323 36.3253 351 49.7603 351 64.2776V328C351 350.644 332.644 369 310 369H41C18.3563 369 0 350.644 0 328V41Z" fill="#2736C1"/>
<path d="M343.112 64.1654C343.112 55.541 338.484 47.5798 330.99 43.3112L276.311 12.1648C272.691 10.1031 268.597 9.01895 264.432 9.01894L33.3511 9.0186C20.0962 9.01858 9.35105 19.7637 9.35102 33.0186L9.35093 332.587C9.3509 345.842 20.0961 356.587 33.3509 356.587L319.112 356.587C332.367 356.587 343.112 345.842 343.112 332.587L343.112 64.1654Z" stroke="white" stroke-opacity="0.1" stroke-width="2"/>
</svg>
