<svg width="363" height="105" viewBox="0 0 363 105" fill="none" xmlns="http://www.w3.org/2000/svg">
<path d="M327.246 47.8493C323.525 44.1026 321.437 39.0367 321.437 33.7564V20C321.437 8.95429 312.483 0 301.437 0H20C8.95432 0 0 8.9543 0 20V42V85C0 96.0457 8.95432 105 20 105L335.952 105C353.737 105 362.675 83.5264 350.144 70.9071L327.246 47.8493Z" fill="url(#paint0_linear_102_7)" fill-opacity="0.76"/>
<circle cx="2.15513" cy="2.15513" r="2.15513" transform="matrix(1 0 0 -1 264 86.3103)" fill="black"/>
<circle cx="2.15513" cy="2.15513" r="2.15513" transform="matrix(1 0 0 -1 276.452 86.3103)" fill="black"/>
<circle cx="2.15513" cy="2.15513" r="2.15513" transform="matrix(1 0 0 -1 288.904 86.3103)" fill="black"/>
<circle cx="2.15513" cy="2.15513" r="2.15513" transform="matrix(1 0 0 -1 301.355 86.3103)" fill="black"/>
<path d="M22.312 17.8H24.456V25.112L30.312 17.8H31.672V29H29.512V21.72L23.672 29H22.312V17.8ZM37.2426 29.112C36.656 29.112 36.128 29.0213 35.6586 28.84C35.1893 28.6587 34.784 28.408 34.4426 28.088C34.112 27.7573 33.856 27.3627 33.6746 26.904C33.4933 26.4453 33.4026 25.9333 33.4026 25.368C33.4026 24.7707 33.4986 24.2373 33.6906 23.768C33.8933 23.288 34.1653 22.888 34.5066 22.568C34.848 22.2373 35.2533 21.9867 35.7226 21.816C36.192 21.6453 36.6986 21.56 37.2426 21.56C37.8613 21.56 38.4213 21.6667 38.9226 21.88C39.4346 22.0933 39.8346 22.36 40.1226 22.68L39.0986 24.024C38.8853 23.7893 38.6346 23.6027 38.3466 23.464C38.0693 23.3253 37.7546 23.256 37.4026 23.256C36.8053 23.256 36.3306 23.448 35.9786 23.832C35.6373 24.216 35.4666 24.7067 35.4666 25.304C35.4666 25.9227 35.6426 26.4347 35.9946 26.84C36.3573 27.2347 36.8426 27.432 37.4506 27.432C37.8026 27.432 38.1173 27.3627 38.3946 27.224C38.672 27.0747 38.9173 26.8827 39.1306 26.648L40.2986 27.8C39.9786 28.216 39.552 28.5413 39.0186 28.776C38.496 29 37.904 29.112 37.2426 29.112ZM41.4909 21.688H43.4749V24.376H44.2429L46.0029 21.688H48.0669V21.96L45.8909 25.016L48.6109 28.728V29H46.4029L44.1949 25.88H43.4749V29H41.4909V21.688ZM50.4658 32.6L51.6978 29.08L48.7058 22.056V21.688H50.6898L52.6258 26.472L54.3218 21.688H56.1138L56.0978 22.056L52.2578 32.84H50.4658V32.6ZM60.3364 29.112C59.7497 29.112 59.2217 29.0213 58.7524 28.84C58.283 28.6587 57.8777 28.408 57.5364 28.088C57.2057 27.7573 56.9497 27.3627 56.7684 26.904C56.587 26.4453 56.4964 25.9333 56.4964 25.368C56.4964 24.7707 56.5924 24.2373 56.7844 23.768C56.987 23.288 57.259 22.888 57.6004 22.568C57.9417 22.2373 58.347 21.9867 58.8164 21.816C59.2857 21.6453 59.7924 21.56 60.3364 21.56C60.955 21.56 61.515 21.6667 62.0164 21.88C62.5284 22.0933 62.9284 22.36 63.2164 22.68L62.1924 24.024C61.979 23.7893 61.7284 23.6027 61.4404 23.464C61.163 23.3253 60.8484 23.256 60.4964 23.256C59.899 23.256 59.4244 23.448 59.0724 23.832C58.731 24.216 58.5604 24.7067 58.5604 25.304C58.5604 25.9227 58.7364 26.4347 59.0884 26.84C59.451 27.2347 59.9364 27.432 60.5444 27.432C60.8964 27.432 61.211 27.3627 61.4884 27.224C61.7657 27.0747 62.011 26.8827 62.2244 26.648L63.3924 27.8C63.0724 28.216 62.6457 28.5413 62.1124 28.776C61.5897 29 60.9977 29.112 60.3364 29.112ZM67.9145 29.112C67.3278 29.112 66.7998 29.0213 66.3305 28.84C65.8612 28.6587 65.4558 28.408 65.1145 28.088C64.7838 27.7573 64.5278 27.3627 64.3465 26.904C64.1652 26.4453 64.0745 25.9333 64.0745 25.368C64.0745 24.7707 64.1705 24.2373 64.3625 23.768C64.5652 23.288 64.8372 22.888 65.1785 22.568C65.5198 22.2373 65.9252 21.9867 66.3945 21.816C66.8638 21.6453 67.3705 21.56 67.9145 21.56C68.5332 21.56 69.0932 21.6667 69.5945 21.88C70.1065 22.0933 70.5065 22.36 70.7945 22.68L69.7705 24.024C69.5572 23.7893 69.3065 23.6027 69.0185 23.464C68.7412 23.3253 68.4265 23.256 68.0745 23.256C67.4772 23.256 67.0025 23.448 66.6505 23.832C66.3092 24.216 66.1385 24.7067 66.1385 25.304C66.1385 25.9227 66.3145 26.4347 66.6665 26.84C67.0292 27.2347 67.5145 27.432 68.1225 27.432C68.4745 27.432 68.7892 27.3627 69.0665 27.224C69.3438 27.0747 69.5892 26.8827 69.8025 26.648L70.9705 27.8C70.6505 28.216 70.2238 28.5413 69.6905 28.776C69.1678 29 68.5758 29.112 67.9145 29.112ZM73.8428 23.432H71.4908V21.688H78.1628V23.432H75.8108V29H73.8428V23.432ZM79.3815 21.688H83.3335C84.0908 21.688 84.6615 21.8533 85.0455 22.184C85.4295 22.504 85.6215 22.9253 85.6215 23.448C85.6215 23.8427 85.5255 24.168 85.3335 24.424C85.1415 24.68 84.8908 24.8613 84.5815 24.968C85.1042 25.0427 85.5308 25.224 85.8615 25.512C86.1922 25.8 86.3575 26.232 86.3575 26.808C86.3575 27.512 86.0962 28.056 85.5735 28.44C85.0615 28.8133 84.3095 29 83.3175 29H79.3815V21.688ZM81.3655 25.704V27.544H82.8855C83.3868 27.544 83.7442 27.4693 83.9575 27.32C84.1708 27.16 84.2775 26.9253 84.2775 26.616C84.2775 26.296 84.1655 26.0667 83.9415 25.928C83.7175 25.7787 83.3815 25.704 82.9335 25.704H81.3655ZM81.3655 23.144V24.552H82.7415C83.4242 24.552 83.7655 24.312 83.7655 23.832C83.7655 23.3733 83.4188 23.144 82.7255 23.144H81.3655ZM91.1363 29.112C90.5496 29.112 90.0109 29.0213 89.5203 28.84C89.0403 28.6587 88.6243 28.408 88.2723 28.088C87.9203 27.7573 87.6483 27.368 87.4563 26.92C87.2643 26.4613 87.1683 25.9547 87.1683 25.4C87.1683 24.8133 87.2696 24.2853 87.4723 23.816C87.6749 23.336 87.9523 22.9307 88.3043 22.6C88.6563 22.2693 89.0669 22.0133 89.5363 21.832C90.0056 21.6507 90.5069 21.56 91.0403 21.56C91.6163 21.56 92.1283 21.6613 92.5763 21.864C93.0349 22.056 93.4189 22.328 93.7283 22.68C94.0376 23.0213 94.2723 23.4267 94.4323 23.896C94.6029 24.3547 94.6883 24.8507 94.6883 25.384V25.8H89.0883C89.1843 26.3653 89.4243 26.7973 89.8083 27.096C90.2029 27.3947 90.6989 27.544 91.2963 27.544C91.7229 27.544 92.1176 27.4693 92.4803 27.32C92.8536 27.16 93.1629 26.9413 93.4083 26.664L94.5123 27.672C94.1389 28.1413 93.6589 28.4987 93.0723 28.744C92.4856 28.9893 91.8403 29.112 91.1363 29.112ZM90.9603 23.16C90.4909 23.16 90.0963 23.288 89.7763 23.544C89.4669 23.7893 89.2536 24.1413 89.1363 24.6H92.7843C92.7203 24.1947 92.5283 23.8533 92.2083 23.576C91.8883 23.2987 91.4723 23.16 90.9603 23.16ZM101.171 26.12H98.1311V29H96.1471V21.688H98.1311V24.376H101.171V21.688H103.155V29H101.171V26.12ZM110.062 26.12H107.022V29H105.038V21.688H107.022V24.376H110.062V21.688H112.046V29H110.062V26.12ZM117.016 23.8C118.051 23.8 118.835 24.0133 119.368 24.44C119.912 24.8667 120.184 25.512 120.184 26.376C120.184 27.24 119.902 27.896 119.336 28.344C118.782 28.7813 117.955 29 116.856 29H113.928V21.688H115.912V23.8H117.016ZM120.888 21.688H122.872V29H120.888V21.688ZM116.648 27.448C117.128 27.448 117.496 27.3787 117.752 27.24C118.019 27.0907 118.152 26.8027 118.152 26.376C118.152 25.9813 118.03 25.7093 117.784 25.56C117.55 25.4107 117.192 25.336 116.712 25.336H115.912V27.448H116.648ZM124.757 21.688H126.741V25.896L130.133 21.688H131.685V29H129.701V24.552L126.117 29H124.757V21.688ZM128.213 20.744C127.882 20.744 127.567 20.7013 127.269 20.616C126.981 20.52 126.725 20.3813 126.501 20.2C126.287 20.0187 126.117 19.7893 125.989 19.512C125.861 19.224 125.791 18.8933 125.781 18.52H127.205C127.226 18.808 127.317 19.0427 127.477 19.224C127.637 19.4053 127.893 19.496 128.245 19.496C128.586 19.496 128.837 19.4107 128.997 19.24C129.167 19.0587 129.263 18.8187 129.285 18.52H130.693C130.682 18.8933 130.607 19.224 130.469 19.512C130.33 19.7893 130.149 20.0187 129.925 20.2C129.701 20.3813 129.439 20.52 129.141 20.616C128.842 20.7013 128.533 20.744 128.213 20.744ZM161.124 21.688H163.108V25.896L166.5 21.688H168.052V29H166.068V24.552L162.484 29H161.124V21.688ZM174.96 26.12H171.92V29H169.936V21.688H171.92V24.376H174.96V21.688H176.944V29H174.96V26.12ZM180.507 23.432H178.155V21.688H184.827V23.432H182.475V29H180.507V23.432ZM189.3 29.112C188.714 29.112 188.175 29.0213 187.684 28.84C187.204 28.6587 186.788 28.408 186.436 28.088C186.084 27.7573 185.812 27.368 185.62 26.92C185.428 26.4613 185.332 25.9547 185.332 25.4C185.332 24.8133 185.434 24.2853 185.636 23.816C185.839 23.336 186.116 22.9307 186.468 22.6C186.82 22.2693 187.231 22.0133 187.7 21.832C188.17 21.6507 188.671 21.56 189.204 21.56C189.78 21.56 190.292 21.6613 190.74 21.864C191.199 22.056 191.583 22.328 191.892 22.68C192.202 23.0213 192.436 23.4267 192.596 23.896C192.767 24.3547 192.852 24.8507 192.852 25.384V25.8H187.252C187.348 26.3653 187.588 26.7973 187.972 27.096C188.367 27.3947 188.863 27.544 189.46 27.544C189.887 27.544 190.282 27.4693 190.644 27.32C191.018 27.16 191.327 26.9413 191.572 26.664L192.676 27.672C192.303 28.1413 191.823 28.4987 191.236 28.744C190.65 28.9893 190.004 29.112 189.3 29.112ZM189.124 23.16C188.655 23.16 188.26 23.288 187.94 23.544C187.631 23.7893 187.418 24.1413 187.3 24.6H190.948C190.884 24.1947 190.692 23.8533 190.372 23.576C190.052 23.2987 189.636 23.16 189.124 23.16ZM193.993 29.16C193.876 29.16 193.769 29.1547 193.673 29.144C193.588 29.1333 193.513 29.1227 193.449 29.112V27.208C193.556 27.2293 193.641 27.24 193.705 27.24C193.886 27.24 194.041 27.176 194.169 27.048C194.297 26.9093 194.398 26.6907 194.473 26.392C194.558 26.0827 194.617 25.6827 194.649 25.192C194.692 24.7013 194.713 24.104 194.713 23.4V21.688H200.265V29H198.297V23.432H196.537V24.296C196.537 25.2133 196.478 25.9813 196.361 26.6C196.254 27.2187 196.089 27.72 195.865 28.104C195.652 28.4773 195.385 28.7493 195.065 28.92C194.756 29.08 194.398 29.16 193.993 29.16ZM201.931 29.16C201.813 29.16 201.707 29.1547 201.611 29.144C201.525 29.1333 201.451 29.1227 201.387 29.112V27.208C201.493 27.2293 201.579 27.24 201.643 27.24C201.824 27.24 201.979 27.176 202.107 27.048C202.235 26.9093 202.336 26.6907 202.411 26.392C202.496 26.0827 202.555 25.6827 202.587 25.192C202.629 24.7013 202.651 24.104 202.651 23.4V21.688H208.203V29H206.235V23.432H204.475V24.296C204.475 25.2133 204.416 25.9813 204.299 26.6C204.192 27.2187 204.027 27.72 203.803 28.104C203.589 28.4773 203.323 28.7493 203.003 28.92C202.693 29.08 202.336 29.16 201.931 29.16ZM213.644 29.112C213.057 29.112 212.519 29.0213 212.028 28.84C211.548 28.6587 211.132 28.408 210.78 28.088C210.428 27.7573 210.156 27.368 209.964 26.92C209.772 26.4613 209.676 25.9547 209.676 25.4C209.676 24.8133 209.777 24.2853 209.98 23.816C210.183 23.336 210.46 22.9307 210.812 22.6C211.164 22.2693 211.575 22.0133 212.044 21.832C212.513 21.6507 213.015 21.56 213.548 21.56C214.124 21.56 214.636 21.6613 215.084 21.864C215.543 22.056 215.927 22.328 216.236 22.68C216.545 23.0213 216.78 23.4267 216.94 23.896C217.111 24.3547 217.196 24.8507 217.196 25.384V25.8H211.596C211.692 26.3653 211.932 26.7973 212.316 27.096C212.711 27.3947 213.207 27.544 213.804 27.544C214.231 27.544 214.625 27.4693 214.988 27.32C215.361 27.16 215.671 26.9413 215.916 26.664L217.02 27.672C216.647 28.1413 216.167 28.4987 215.58 28.744C214.993 28.9893 214.348 29.112 213.644 29.112ZM213.468 23.16C212.999 23.16 212.604 23.288 212.284 23.544C211.975 23.7893 211.761 24.1413 211.644 24.6H215.292C215.228 24.1947 215.036 23.8533 214.716 23.576C214.396 23.2987 213.98 23.16 213.468 23.16ZM218.655 21.688H220.639V24.376H221.407L223.167 21.688H225.231V21.96L223.055 25.016L225.775 28.728V29H223.567L221.359 25.88H220.639V29H218.655V21.688ZM228.382 23.432H226.03V21.688H232.702V23.432H230.35V29H228.382V23.432ZM262.195 21.688H263.891L265.827 25.928L267.651 21.688H269.395L270.611 29H268.755L268.051 24.728L266.163 29H265.315L263.411 24.808L262.723 29H260.963L262.195 21.688ZM275.386 29.112C274.81 29.112 274.277 29.0213 273.786 28.84C273.306 28.6587 272.89 28.4027 272.538 28.072C272.197 27.7307 271.925 27.3307 271.722 26.872C271.53 26.4133 271.434 25.9013 271.434 25.336C271.434 24.7707 271.53 24.2587 271.722 23.8C271.925 23.3307 272.202 22.9307 272.554 22.6C272.906 22.2693 273.322 22.0133 273.802 21.832C274.293 21.6507 274.821 21.56 275.386 21.56C275.962 21.56 276.49 21.6507 276.97 21.832C277.461 22.0133 277.882 22.2747 278.234 22.616C278.586 22.9467 278.858 23.3467 279.05 23.816C279.242 24.2747 279.338 24.7813 279.338 25.336C279.338 25.912 279.237 26.4347 279.034 26.904C278.831 27.3627 278.554 27.7573 278.202 28.088C277.85 28.408 277.434 28.6587 276.954 28.84C276.474 29.0213 275.951 29.112 275.386 29.112ZM275.386 27.432C275.973 27.432 276.431 27.2347 276.762 26.84C277.093 26.4453 277.258 25.944 277.258 25.336C277.258 24.728 277.098 24.232 276.778 23.848C276.458 23.4533 275.994 23.256 275.386 23.256C274.789 23.256 274.325 23.4533 273.994 23.848C273.663 24.2427 273.498 24.7387 273.498 25.336C273.498 25.624 273.541 25.896 273.626 26.152C273.711 26.408 273.834 26.632 273.994 26.824C274.154 27.016 274.351 27.1653 274.586 27.272C274.821 27.3787 275.087 27.432 275.386 27.432ZM279.593 28.728L281.705 25.096L280.009 21.96V21.688H281.993L283.385 24.408H284.185V21.688H286.153V24.408H286.937L288.345 21.688H290.265V21.96L288.601 25.064L290.761 28.728V29H288.649L286.905 25.912H286.153V29H284.185V25.912H283.417L281.689 29H279.593V28.728ZM294.949 29.112C294.362 29.112 293.823 29.0213 293.333 28.84C292.853 28.6587 292.437 28.408 292.085 28.088C291.733 27.7573 291.461 27.368 291.269 26.92C291.077 26.4613 290.981 25.9547 290.981 25.4C290.981 24.8133 291.082 24.2853 291.285 23.816C291.487 23.336 291.765 22.9307 292.117 22.6C292.469 22.2693 292.879 22.0133 293.349 21.832C293.818 21.6507 294.319 21.56 294.853 21.56C295.429 21.56 295.941 21.6613 296.389 21.864C296.847 22.056 297.231 22.328 297.541 22.68C297.85 23.0213 298.085 23.4267 298.245 23.896C298.415 24.3547 298.501 24.8507 298.501 25.384V25.8H292.901C292.997 26.3653 293.237 26.7973 293.621 27.096C294.015 27.3947 294.511 27.544 295.109 27.544C295.535 27.544 295.93 27.4693 296.293 27.32C296.666 27.16 296.975 26.9413 297.221 26.664L298.325 27.672C297.951 28.1413 297.471 28.4987 296.885 28.744C296.298 28.9893 295.653 29.112 294.949 29.112ZM294.773 23.16C294.303 23.16 293.909 23.288 293.589 23.544C293.279 23.7893 293.066 24.1413 292.949 24.6H296.597C296.533 24.1947 296.341 23.8533 296.021 23.576C295.701 23.2987 295.285 23.16 294.773 23.16ZM301.405 23.432H299.053V21.688H305.725V23.432H303.373V29H301.405V23.432ZM25.352 48.112C24.7653 48.112 24.2373 48.0213 23.768 47.84C23.2987 47.6587 22.8933 47.408 22.552 47.088C22.2213 46.7573 21.9653 46.3627 21.784 45.904C21.6027 45.4453 21.512 44.9333 21.512 44.368C21.512 43.7707 21.608 43.2373 21.8 42.768C22.0027 42.288 22.2747 41.888 22.616 41.568C22.9573 41.2373 23.3627 40.9867 23.832 40.816C24.3013 40.6453 24.808 40.56 25.352 40.56C25.9707 40.56 26.5307 40.6667 27.032 40.88C27.544 41.0933 27.944 41.36 28.232 41.68L27.208 43.024C26.9947 42.7893 26.744 42.6027 26.456 42.464C26.1787 42.3253 25.864 42.256 25.512 42.256C24.9147 42.256 24.44 42.448 24.088 42.832C23.7467 43.216 23.576 43.7067 23.576 44.304C23.576 44.9227 23.752 45.4347 24.104 45.84C24.4667 46.2347 24.952 46.432 25.56 46.432C25.912 46.432 26.2267 46.3627 26.504 46.224C26.7813 46.0747 27.0267 45.8827 27.24 45.648L28.408 46.8C28.088 47.216 27.6613 47.5413 27.128 47.776C26.6053 48 26.0133 48.112 25.352 48.112ZM29.3603 48.16C29.2429 48.16 29.1362 48.1547 29.0403 48.144C28.9549 48.1333 28.8803 48.1227 28.8163 48.112V46.208C28.9229 46.2293 29.0083 46.24 29.0723 46.24C29.2536 46.24 29.4083 46.176 29.5363 46.048C29.6643 45.9093 29.7656 45.6907 29.8403 45.392C29.9256 45.0827 29.9843 44.6827 30.0163 44.192C30.0589 43.7013 30.0803 43.104 30.0803 42.4V40.688H35.6323V48H33.6643V42.432H31.9043V43.296C31.9043 44.2133 31.8456 44.9813 31.7283 45.6C31.6216 46.2187 31.4563 46.72 31.2323 47.104C31.0189 47.4773 30.7523 47.7493 30.4323 47.92C30.1229 48.08 29.7656 48.16 29.3603 48.16ZM38.4658 51.6L39.6978 48.08L36.7058 41.056V40.688H38.6898L40.6258 45.472L42.3218 40.688H44.1138L44.0978 41.056L40.2578 51.84H38.4658V51.6ZM44.2027 47.728L46.3148 44.096L44.6188 40.96V40.688H46.6028L47.9948 43.408H48.7948V40.688H50.7628V43.408H51.5468L52.9548 40.688H54.8748V40.96L53.2108 44.064L55.3708 47.728V48H53.2587L51.5148 44.912H50.7628V48H48.7948V44.912H48.0268L46.2988 48H44.2027V47.728ZM56.3034 40.688H58.2874V44.896L61.6794 40.688H63.2314V48H61.2474V43.552L57.6634 48H56.3034V40.688ZM66.7959 42.432H64.4439V40.688H71.1159V42.432H68.7639V48H66.7959V42.432ZM72.3346 40.688H74.3186V42.8H75.6146C76.6493 42.8 77.4333 43.0133 77.9666 43.44C78.5106 43.8667 78.7826 44.512 78.7826 45.376C78.7826 46.24 78.5 46.896 77.9346 47.344C77.38 47.7813 76.5533 48 75.4546 48H72.3346V40.688ZM75.2626 46.448C75.7426 46.448 76.1106 46.3787 76.3666 46.24C76.6226 46.0907 76.7506 45.8027 76.7506 45.376C76.7506 44.9813 76.6333 44.7093 76.3986 44.56C76.164 44.4107 75.8066 44.336 75.3266 44.336H74.3186V46.448H75.2626ZM86.9332 48.16C86.8158 48.16 86.7092 48.1547 86.6132 48.144C86.5278 48.1333 86.4532 48.1227 86.3892 48.112V46.208C86.4958 46.2293 86.5812 46.24 86.6452 46.24C86.8265 46.24 86.9812 46.176 87.1092 46.048C87.2372 45.9093 87.3385 45.6907 87.4132 45.392C87.4985 45.0827 87.5572 44.6827 87.5892 44.192C87.6318 43.7013 87.6532 43.104 87.6532 42.4V40.688H93.2052V48H91.2372V42.432H89.4772V43.296C89.4772 44.2133 89.4185 44.9813 89.3012 45.6C89.1945 46.2187 89.0292 46.72 88.8052 47.104C88.5918 47.4773 88.3252 47.7493 88.0052 47.92C87.6958 48.08 87.3385 48.16 86.9332 48.16ZM95.1107 40.688H97.0947V44.896L100.487 40.688H102.039V48H100.055V43.552L96.4707 48H95.1107V40.688ZM112.531 40.688H114.515V48H103.923V40.688H105.907V46.256H108.243V40.688H110.211V46.256H112.531V40.688ZM116.408 40.688H118.392V42.8H119.688C120.722 42.8 121.506 43.0133 122.04 43.44C122.584 43.8667 122.856 44.512 122.856 45.376C122.856 46.24 122.573 46.896 122.008 47.344C121.453 47.7813 120.626 48 119.528 48H116.408V40.688ZM119.336 46.448C119.816 46.448 120.184 46.3787 120.44 46.24C120.696 46.0907 120.824 45.8027 120.824 45.376C120.824 44.9813 120.706 44.7093 120.472 44.56C120.237 44.4107 119.88 44.336 119.4 44.336H118.392V46.448H119.336ZM134.766 48.112C134.19 48.112 133.657 48.0213 133.166 47.84C132.686 47.6587 132.27 47.4027 131.918 47.072C131.577 46.7307 131.305 46.3307 131.102 45.872C130.91 45.4133 130.814 44.9013 130.814 44.336C130.814 43.7707 130.91 43.2587 131.102 42.8C131.305 42.3307 131.582 41.9307 131.934 41.6C132.286 41.2693 132.702 41.0133 133.182 40.832C133.673 40.6507 134.201 40.56 134.766 40.56C135.342 40.56 135.87 40.6507 136.35 40.832C136.841 41.0133 137.262 41.2747 137.614 41.616C137.966 41.9467 138.238 42.3467 138.43 42.816C138.622 43.2747 138.718 43.7813 138.718 44.336C138.718 44.912 138.617 45.4347 138.414 45.904C138.211 46.3627 137.934 46.7573 137.582 47.088C137.23 47.408 136.814 47.6587 136.334 47.84C135.854 48.0213 135.331 48.112 134.766 48.112ZM134.766 46.432C135.353 46.432 135.811 46.2347 136.142 45.84C136.473 45.4453 136.638 44.944 136.638 44.336C136.638 43.728 136.478 43.232 136.158 42.848C135.838 42.4533 135.374 42.256 134.766 42.256C134.169 42.256 133.705 42.4533 133.374 42.848C133.043 43.2427 132.878 43.7387 132.878 44.336C132.878 44.624 132.921 44.896 133.006 45.152C133.091 45.408 133.214 45.632 133.374 45.824C133.534 46.016 133.731 46.1653 133.966 46.272C134.201 46.3787 134.467 46.432 134.766 46.432ZM140.152 51.84V40.688H142.024V41.664C142.27 41.3547 142.6 41.0933 143.016 40.88C143.443 40.6667 143.928 40.56 144.472 40.56C144.92 40.56 145.347 40.6507 145.752 40.832C146.168 41.0133 146.531 41.2693 146.84 41.6C147.16 41.9307 147.411 42.3307 147.592 42.8C147.784 43.2587 147.88 43.7707 147.88 44.336C147.88 44.9013 147.784 45.4187 147.592 45.888C147.4 46.3467 147.144 46.7413 146.824 47.072C146.515 47.4027 146.152 47.6587 145.736 47.84C145.331 48.0213 144.91 48.112 144.472 48.112C143.992 48.112 143.55 48.0267 143.144 47.856C142.739 47.6747 142.403 47.4347 142.136 47.136V51.84H140.152ZM143.944 42.304C143.4 42.304 142.968 42.48 142.648 42.832C142.328 43.1733 142.158 43.616 142.136 44.16V44.368C142.147 44.976 142.312 45.472 142.632 45.856C142.963 46.2293 143.4 46.416 143.944 46.416C144.478 46.416 144.915 46.2293 145.256 45.856C145.608 45.4827 145.784 44.976 145.784 44.336C145.784 44.0053 145.731 43.712 145.624 43.456C145.528 43.2 145.395 42.9867 145.224 42.816C145.064 42.6453 144.872 42.5173 144.648 42.432C144.424 42.3467 144.19 42.304 143.944 42.304ZM150.033 51.6L151.265 48.08L148.273 41.056V40.688H150.257L152.193 45.472L153.889 40.688H155.681L155.665 41.056L151.825 51.84H150.033V51.6ZM155.57 46.256H156.45C156.727 45.68 156.935 45.04 157.074 44.336C157.213 43.6213 157.282 42.7787 157.282 41.808V40.688H162.978V46.256H164.098V49.632H162.482V48H157.202V49.632H155.57V46.256ZM159.058 42.48C159.058 43.9627 158.839 45.2213 158.402 46.256H160.994V42.432H159.058V42.48ZM165.23 40.688H167.214V44.896L170.606 40.688H172.158V48H170.174V43.552L166.59 48H165.23V40.688ZM177.579 48.112C176.992 48.112 176.454 48.0213 175.963 47.84C175.483 47.6587 175.067 47.408 174.715 47.088C174.363 46.7573 174.091 46.368 173.899 45.92C173.707 45.4613 173.611 44.9547 173.611 44.4C173.611 43.8133 173.712 43.2853 173.915 42.816C174.118 42.336 174.395 41.9307 174.747 41.6C175.099 41.2693 175.51 41.0133 175.979 40.832C176.448 40.6507 176.95 40.56 177.483 40.56C178.059 40.56 178.571 40.6613 179.019 40.864C179.478 41.056 179.862 41.328 180.171 41.68C180.48 42.0213 180.715 42.4267 180.875 42.896C181.046 43.3547 181.131 43.8507 181.131 44.384V44.8H175.531C175.627 45.3653 175.867 45.7973 176.251 46.096C176.646 46.3947 177.142 46.544 177.739 46.544C178.166 46.544 178.56 46.4693 178.923 46.32C179.296 46.16 179.606 45.9413 179.851 45.664L180.955 46.672C180.582 47.1413 180.102 47.4987 179.515 47.744C178.928 47.9893 178.283 48.112 177.579 48.112ZM177.403 42.16C176.934 42.16 176.539 42.288 176.219 42.544C175.91 42.7893 175.696 43.1413 175.579 43.6H179.227C179.163 43.1947 178.971 42.8533 178.651 42.576C178.331 42.2987 177.915 42.16 177.403 42.16ZM183.232 40.688H184.928L186.864 44.928L188.688 40.688H190.432L191.648 48H189.792L189.088 43.728L187.2 48H186.352L184.448 43.808L183.76 48H182L183.232 40.688ZM193.7 48.08C193.38 48.0267 193.134 47.904 192.964 47.712C192.804 47.5093 192.724 47.2693 192.724 46.992C192.724 46.64 192.836 46.3627 193.06 46.16C193.294 45.9467 193.572 45.84 193.892 45.84C194.233 45.84 194.526 45.952 194.772 46.176C195.028 46.4 195.156 46.72 195.156 47.136C195.156 47.4133 195.081 47.7227 194.932 48.064C194.782 48.4053 194.553 48.848 194.244 49.392L193.604 50.56H192.324L193.7 48.08ZM204.1 40.688H206.084V44.896L209.476 40.688H211.028V48H209.044V43.552L205.46 48H204.1V40.688ZM217.937 45.12H214.897V48H212.913V40.688H214.897V43.376H217.937V40.688H219.921V48H217.937V45.12ZM225.211 48.112C224.625 48.112 224.097 48.0213 223.627 47.84C223.158 47.6587 222.753 47.408 222.411 47.088C222.081 46.7573 221.825 46.3627 221.643 45.904C221.462 45.4453 221.371 44.9333 221.371 44.368C221.371 43.7707 221.467 43.2373 221.659 42.768C221.862 42.288 222.134 41.888 222.475 41.568C222.817 41.2373 223.222 40.9867 223.691 40.816C224.161 40.6453 224.667 40.56 225.211 40.56C225.83 40.56 226.39 40.6667 226.891 40.88C227.403 41.0933 227.803 41.36 228.091 41.68L227.067 43.024C226.854 42.7893 226.603 42.6027 226.315 42.464C226.038 42.3253 225.723 42.256 225.371 42.256C224.774 42.256 224.299 42.448 223.947 42.832C223.606 43.216 223.435 43.7067 223.435 44.304C223.435 44.9227 223.611 45.4347 223.963 45.84C224.326 46.2347 224.811 46.432 225.419 46.432C225.771 46.432 226.086 46.3627 226.363 46.224C226.641 46.0747 226.886 45.8827 227.099 45.648L228.267 46.8C227.947 47.216 227.521 47.5413 226.987 47.776C226.465 48 225.873 48.112 225.211 48.112ZM231.14 42.432H228.788V40.688H235.46V42.432H233.108V48H231.14V42.432ZM236.678 51.84V40.688H238.55V41.664C238.796 41.3547 239.126 41.0933 239.542 40.88C239.969 40.6667 240.454 40.56 240.998 40.56C241.446 40.56 241.873 40.6507 242.278 40.832C242.694 41.0133 243.057 41.2693 243.366 41.6C243.686 41.9307 243.937 42.3307 244.118 42.8C244.31 43.2587 244.406 43.7707 244.406 44.336C244.406 44.9013 244.31 45.4187 244.118 45.888C243.926 46.3467 243.67 46.7413 243.35 47.072C243.041 47.4027 242.678 47.6587 242.262 47.84C241.857 48.0213 241.436 48.112 240.998 48.112C240.518 48.112 240.076 48.0267 239.67 47.856C239.265 47.6747 238.929 47.4347 238.662 47.136V51.84H236.678ZM240.47 42.304C239.926 42.304 239.494 42.48 239.174 42.832C238.854 43.1733 238.684 43.616 238.662 44.16V44.368C238.673 44.976 238.838 45.472 239.158 45.856C239.489 46.2293 239.926 46.416 240.47 46.416C241.004 46.416 241.441 46.2293 241.782 45.856C242.134 45.4827 242.31 44.976 242.31 44.336C242.31 44.0053 242.257 43.712 242.15 43.456C242.054 43.2 241.921 42.9867 241.75 42.816C241.59 42.6453 241.398 42.5173 241.174 42.432C240.95 42.3467 240.716 42.304 240.47 42.304ZM246.56 51.6L247.792 48.08L244.8 41.056V40.688H246.784L248.72 45.472L250.416 40.688H252.208L252.192 41.056L248.352 51.84H246.56V51.6ZM253.57 40.688H255.266L257.202 44.928L259.026 40.688H260.77L261.986 48H260.13L259.426 43.728L257.538 48H256.69L254.786 43.808L254.098 48H252.338L253.57 40.688ZM266.777 48.112C266.19 48.112 265.652 48.0213 265.161 47.84C264.681 47.6587 264.265 47.408 263.913 47.088C263.561 46.7573 263.289 46.368 263.097 45.92C262.905 45.4613 262.809 44.9547 262.809 44.4C262.809 43.8133 262.91 43.2853 263.113 42.816C263.316 42.336 263.593 41.9307 263.945 41.6C264.297 41.2693 264.708 41.0133 265.177 40.832C265.646 40.6507 266.148 40.56 266.681 40.56C267.257 40.56 267.769 40.6613 268.217 40.864C268.676 41.056 269.06 41.328 269.369 41.68C269.678 42.0213 269.913 42.4267 270.073 42.896C270.244 43.3547 270.329 43.8507 270.329 44.384V44.8H264.729C264.825 45.3653 265.065 45.7973 265.449 46.096C265.844 46.3947 266.34 46.544 266.937 46.544C267.364 46.544 267.758 46.4693 268.121 46.32C268.494 46.16 268.804 45.9413 269.049 45.664L270.153 46.672C269.78 47.1413 269.3 47.4987 268.713 47.744C268.126 47.9893 267.481 48.112 266.777 48.112ZM266.601 42.16C266.132 42.16 265.737 42.288 265.417 42.544C265.108 42.7893 264.894 43.1413 264.777 43.6H268.425C268.361 43.1947 268.169 42.8533 267.849 42.576C267.529 42.2987 267.113 42.16 266.601 42.16ZM276.812 45.12H273.772V48H271.788V40.688H273.772V43.376H276.812V40.688H278.796V48H276.812V45.12ZM282.358 42.432H280.006V40.688H286.678V42.432H284.326V48H282.358V42.432ZM291.136 48.112C290.56 48.112 290.027 48.0213 289.536 47.84C289.056 47.6587 288.64 47.4027 288.288 47.072C287.947 46.7307 287.675 46.3307 287.472 45.872C287.28 45.4133 287.184 44.9013 287.184 44.336C287.184 43.7707 287.28 43.2587 287.472 42.8C287.675 42.3307 287.952 41.9307 288.304 41.6C288.656 41.2693 289.072 41.0133 289.552 40.832C290.043 40.6507 290.571 40.56 291.136 40.56C291.712 40.56 292.24 40.6507 292.72 40.832C293.211 41.0133 293.632 41.2747 293.984 41.616C294.336 41.9467 294.608 42.3467 294.8 42.816C294.992 43.2747 295.088 43.7813 295.088 44.336C295.088 44.912 294.987 45.4347 294.784 45.904C294.581 46.3627 294.304 46.7573 293.952 47.088C293.6 47.408 293.184 47.6587 292.704 47.84C292.224 48.0213 291.701 48.112 291.136 48.112ZM291.136 46.432C291.723 46.432 292.181 46.2347 292.512 45.84C292.843 45.4453 293.008 44.944 293.008 44.336C293.008 43.728 292.848 43.232 292.528 42.848C292.208 42.4533 291.744 42.256 291.136 42.256C290.539 42.256 290.075 42.4533 289.744 42.848C289.413 43.2427 289.248 43.7387 289.248 44.336C289.248 44.624 289.291 44.896 289.376 45.152C289.461 45.408 289.584 45.632 289.744 45.824C289.904 46.016 290.101 46.1653 290.336 46.272C290.571 46.3787 290.837 46.432 291.136 46.432ZM297.164 40.688H298.86L300.796 44.928L302.62 40.688H304.364L305.58 48H303.724L303.02 43.728L301.132 48H300.284L298.38 43.808L297.692 48H295.932L297.164 40.688ZM21.944 59.688H25.896C26.6533 59.688 27.224 59.8533 27.608 60.184C27.992 60.504 28.184 60.9253 28.184 61.448C28.184 61.8427 28.088 62.168 27.896 62.424C27.704 62.68 27.4533 62.8613 27.144 62.968C27.6667 63.0427 28.0933 63.224 28.424 63.512C28.7547 63.8 28.92 64.232 28.92 64.808C28.92 65.512 28.6587 66.056 28.136 66.44C27.624 66.8133 26.872 67 25.88 67H21.944V59.688ZM23.928 63.704V65.544H25.448C25.9493 65.544 26.3067 65.4693 26.52 65.32C26.7333 65.16 26.84 64.9253 26.84 64.616C26.84 64.296 26.728 64.0667 26.504 63.928C26.28 63.7787 25.944 63.704 25.496 63.704H23.928ZM23.928 61.144V62.552H25.304C25.9867 62.552 26.328 62.312 26.328 61.832C26.328 61.3733 25.9813 61.144 25.288 61.144H23.928ZM44.3815 70.84V59.688H46.2535V60.664C46.4988 60.3547 46.8295 60.0933 47.2455 59.88C47.6722 59.6667 48.1575 59.56 48.7015 59.56C49.1495 59.56 49.5762 59.6507 49.9815 59.832C50.3975 60.0133 50.7602 60.2693 51.0695 60.6C51.3895 60.9307 51.6402 61.3307 51.8215 61.8C52.0135 62.2587 52.1095 62.7707 52.1095 63.336C52.1095 63.9013 52.0135 64.4187 51.8215 64.888C51.6295 65.3467 51.3735 65.7413 51.0535 66.072C50.7442 66.4027 50.3815 66.6587 49.9655 66.84C49.5602 67.0213 49.1388 67.112 48.7015 67.112C48.2215 67.112 47.7788 67.0267 47.3735 66.856C46.9682 66.6747 46.6322 66.4347 46.3655 66.136V70.84H44.3815ZM48.1735 61.304C47.6295 61.304 47.1975 61.48 46.8775 61.832C46.5575 62.1733 46.3868 62.616 46.3655 63.16V63.368C46.3762 63.976 46.5415 64.472 46.8615 64.856C47.1922 65.2293 47.6295 65.416 48.1735 65.416C48.7068 65.416 49.1442 65.2293 49.4855 64.856C49.8375 64.4827 50.0135 63.976 50.0135 63.336C50.0135 63.0053 49.9602 62.712 49.8535 62.456C49.7575 62.2 49.6242 61.9867 49.4535 61.816C49.2935 61.6453 49.1015 61.5173 48.8775 61.432C48.6535 61.3467 48.4188 61.304 48.1735 61.304ZM54.2626 70.6L55.4946 67.08L52.5026 60.056V59.688H54.4866L56.4226 64.472L58.1186 59.688H59.9106L59.8946 60.056L56.0546 70.84H54.2626V70.6ZM60.9596 59.688H62.9436V62.376H63.7116L65.4716 59.688H67.5356V59.96L65.3596 63.016L68.0796 66.728V67H65.8716L63.6636 63.88H62.9436V67H60.9596V59.688ZM71.7013 67.112C71.2639 67.112 70.8373 67.0213 70.4213 66.84C70.0159 66.6587 69.6533 66.4027 69.3333 66.072C69.0239 65.7413 68.7733 65.3467 68.5813 64.888C68.3893 64.4187 68.2933 63.9013 68.2933 63.336C68.2933 62.7707 68.3839 62.2587 68.5653 61.8C68.7573 61.3307 69.0079 60.9307 69.3173 60.6C69.6373 60.2693 69.9999 60.0133 70.4053 59.832C70.8213 59.6507 71.2533 59.56 71.7013 59.56C72.2453 59.56 72.7253 59.6667 73.1413 59.88C73.5679 60.0933 73.9039 60.3547 74.1493 60.664V59.688H76.0213V67H74.1493V66.008C73.8826 66.3387 73.5359 66.6053 73.1093 66.808C72.6826 67.0107 72.2133 67.112 71.7013 67.112ZM72.2293 65.416C72.7733 65.416 73.2053 65.2293 73.5253 64.856C73.8559 64.472 74.0266 63.976 74.0373 63.368V63.24C74.0373 62.6747 73.8719 62.2107 73.5413 61.848C73.2106 61.4853 72.7733 61.304 72.2293 61.304C71.9839 61.304 71.7493 61.3467 71.5253 61.432C71.3013 61.5173 71.1039 61.6453 70.9333 61.816C70.7626 61.9867 70.6293 62.2 70.5333 62.456C70.4373 62.712 70.3893 63.0053 70.3893 63.336C70.3893 63.976 70.5599 64.4827 70.9013 64.856C71.2533 65.2293 71.6959 65.416 72.2293 65.416ZM77.1448 66.632L79.4648 63.16L77.3368 60.056V59.688H79.4168L80.8568 61.832L82.2328 59.688H84.1208V60.056L82.0248 63.208L84.3448 66.648L84.3608 67H82.3288L80.6968 64.568L79.0807 67H77.1448V66.632ZM103.87 64.344C103.657 64.44 103.406 64.52 103.118 64.584C102.841 64.6373 102.526 64.664 102.174 64.664C101.726 64.664 101.321 64.6107 100.958 64.504C100.606 64.3973 100.302 64.2267 100.046 63.992C99.7904 63.7573 99.593 63.4533 99.4544 63.08C99.3264 62.7067 99.2624 62.2533 99.2624 61.72V59.688H101.246V61.64C101.246 62.056 101.342 62.376 101.534 62.6C101.726 62.8133 102.11 62.92 102.686 62.92C103.124 62.92 103.518 62.8667 103.87 62.76V59.688H105.854V67H103.87V64.344ZM111.183 67.112C110.596 67.112 110.058 67.0213 109.567 66.84C109.087 66.6587 108.671 66.408 108.319 66.088C107.967 65.7573 107.695 65.368 107.503 64.92C107.311 64.4613 107.215 63.9547 107.215 63.4C107.215 62.8133 107.316 62.2853 107.519 61.816C107.722 61.336 107.999 60.9307 108.351 60.6C108.703 60.2693 109.114 60.0133 109.583 59.832C110.052 59.6507 110.554 59.56 111.087 59.56C111.663 59.56 112.175 59.6613 112.623 59.864C113.082 60.056 113.466 60.328 113.775 60.68C114.084 61.0213 114.319 61.4267 114.479 61.896C114.65 62.3547 114.735 62.8507 114.735 63.384V63.8H109.135C109.231 64.3653 109.471 64.7973 109.855 65.096C110.25 65.3947 110.746 65.544 111.343 65.544C111.77 65.544 112.164 65.4693 112.527 65.32C112.9 65.16 113.21 64.9413 113.455 64.664L114.559 65.672C114.186 66.1413 113.706 66.4987 113.119 66.744C112.532 66.9893 111.887 67.112 111.183 67.112ZM111.007 61.16C110.538 61.16 110.143 61.288 109.823 61.544C109.514 61.7893 109.3 62.1413 109.183 62.6H112.831C112.767 62.1947 112.575 61.8533 112.255 61.576C111.935 61.2987 111.519 61.16 111.007 61.16ZM115.876 67.16C115.759 67.16 115.652 67.1547 115.556 67.144C115.471 67.1333 115.396 67.1227 115.332 67.112V65.208C115.439 65.2293 115.524 65.24 115.588 65.24C115.769 65.24 115.924 65.176 116.052 65.048C116.18 64.9093 116.281 64.6907 116.356 64.392C116.441 64.0827 116.5 63.6827 116.532 63.192C116.575 62.7013 116.596 62.104 116.596 61.4V59.688H122.148V67H120.18V61.432H118.42V62.296C118.42 63.2133 118.361 63.9813 118.244 64.6C118.137 65.2187 117.972 65.72 117.748 66.104C117.535 66.4773 117.268 66.7493 116.948 66.92C116.639 67.08 116.281 67.16 115.876 67.16ZM127.573 67.112C126.997 67.112 126.464 67.0213 125.973 66.84C125.493 66.6587 125.077 66.4027 124.725 66.072C124.384 65.7307 124.112 65.3307 123.909 64.872C123.717 64.4133 123.621 63.9013 123.621 63.336C123.621 62.7707 123.717 62.2587 123.909 61.8C124.112 61.3307 124.389 60.9307 124.741 60.6C125.093 60.2693 125.509 60.0133 125.989 59.832C126.48 59.6507 127.008 59.56 127.573 59.56C128.149 59.56 128.677 59.6507 129.157 59.832C129.648 60.0133 130.069 60.2747 130.421 60.616C130.773 60.9467 131.045 61.3467 131.237 61.816C131.429 62.2747 131.525 62.7813 131.525 63.336C131.525 63.912 131.424 64.4347 131.221 64.904C131.019 65.3627 130.741 65.7573 130.389 66.088C130.037 66.408 129.621 66.6587 129.141 66.84C128.661 67.0213 128.139 67.112 127.573 67.112ZM127.573 65.432C128.16 65.432 128.619 65.2347 128.949 64.84C129.28 64.4453 129.445 63.944 129.445 63.336C129.445 62.728 129.285 62.232 128.965 61.848C128.645 61.4533 128.181 61.256 127.573 61.256C126.976 61.256 126.512 61.4533 126.181 61.848C125.851 62.2427 125.685 62.7387 125.685 63.336C125.685 63.624 125.728 63.896 125.813 64.152C125.899 64.408 126.021 64.632 126.181 64.824C126.341 65.016 126.539 65.1653 126.773 65.272C127.008 65.3787 127.275 65.432 127.573 65.432ZM132.96 59.688H136.912C137.669 59.688 138.24 59.8533 138.624 60.184C139.008 60.504 139.2 60.9253 139.2 61.448C139.2 61.8427 139.104 62.168 138.912 62.424C138.72 62.68 138.469 62.8613 138.16 62.968C138.682 63.0427 139.109 63.224 139.44 63.512C139.77 63.8 139.936 64.232 139.936 64.808C139.936 65.512 139.674 66.056 139.152 66.44C138.64 66.8133 137.888 67 136.896 67H132.96V59.688ZM134.944 63.704V65.544H136.464C136.965 65.544 137.322 65.4693 137.536 65.32C137.749 65.16 137.856 64.9253 137.856 64.616C137.856 64.296 137.744 64.0667 137.52 63.928C137.296 63.7787 136.96 63.704 136.512 63.704H134.944ZM134.944 61.144V62.552H136.32C137.002 62.552 137.344 62.312 137.344 61.832C137.344 61.3733 136.997 61.144 136.304 61.144H134.944ZM144.714 67.112C144.128 67.112 143.589 67.0213 143.098 66.84C142.618 66.6587 142.202 66.408 141.85 66.088C141.498 65.7573 141.226 65.368 141.034 64.92C140.842 64.4613 140.746 63.9547 140.746 63.4C140.746 62.8133 140.848 62.2853 141.05 61.816C141.253 61.336 141.53 60.9307 141.882 60.6C142.234 60.2693 142.645 60.0133 143.114 59.832C143.584 59.6507 144.085 59.56 144.618 59.56C145.194 59.56 145.706 59.6613 146.154 59.864C146.613 60.056 146.997 60.328 147.306 60.68C147.616 61.0213 147.85 61.4267 148.01 61.896C148.181 62.3547 148.266 62.8507 148.266 63.384V63.8H142.666C142.762 64.3653 143.002 64.7973 143.386 65.096C143.781 65.3947 144.277 65.544 144.874 65.544C145.301 65.544 145.696 65.4693 146.058 65.32C146.432 65.16 146.741 64.9413 146.986 64.664L148.09 65.672C147.717 66.1413 147.237 66.4987 146.65 66.744C146.064 66.9893 145.418 67.112 144.714 67.112ZM144.538 61.16C144.069 61.16 143.674 61.288 143.354 61.544C143.045 61.7893 142.832 62.1413 142.714 62.6H146.362C146.298 62.1947 146.106 61.8533 145.786 61.576C145.466 61.2987 145.05 61.16 144.538 61.16ZM149.725 59.688H151.709V62.376H152.477L154.237 59.688H156.301V59.96L154.125 63.016L156.845 66.728V67H154.637L152.429 63.88H151.709V67H149.725V59.688ZM160.467 67.112C160.03 67.112 159.603 67.0213 159.187 66.84C158.782 66.6587 158.419 66.4027 158.099 66.072C157.79 65.7413 157.539 65.3467 157.347 64.888C157.155 64.4187 157.059 63.9013 157.059 63.336C157.059 62.7707 157.15 62.2587 157.331 61.8C157.523 61.3307 157.774 60.9307 158.083 60.6C158.403 60.2693 158.766 60.0133 159.171 59.832C159.587 59.6507 160.019 59.56 160.467 59.56C161.011 59.56 161.491 59.6667 161.907 59.88C162.334 60.0933 162.67 60.3547 162.915 60.664V59.688H164.787V67H162.915V66.008C162.648 66.3387 162.302 66.6053 161.875 66.808C161.448 67.0107 160.979 67.112 160.467 67.112ZM160.995 65.416C161.539 65.416 161.971 65.2293 162.291 64.856C162.622 64.472 162.792 63.976 162.803 63.368V63.24C162.803 62.6747 162.638 62.2107 162.307 61.848C161.976 61.4853 161.539 61.304 160.995 61.304C160.75 61.304 160.515 61.3467 160.291 61.432C160.067 61.5173 159.87 61.6453 159.699 61.816C159.528 61.9867 159.395 62.2 159.299 62.456C159.203 62.712 159.155 63.0053 159.155 63.336C159.155 63.976 159.326 64.4827 159.667 64.856C160.019 65.2293 160.462 65.416 160.995 65.416ZM180.049 65.256H180.929C181.206 64.68 181.414 64.04 181.553 63.336C181.692 62.6213 181.761 61.7787 181.761 60.808V59.688H187.457V65.256H188.577V68.632H186.961V67H181.681V68.632H180.049V65.256ZM183.537 61.48C183.537 62.9627 183.318 64.2213 182.881 65.256H185.473V61.432H183.537V61.48ZM189.657 67.16C189.54 67.16 189.433 67.1547 189.337 67.144C189.252 67.1333 189.177 67.1227 189.113 67.112V65.208C189.22 65.2293 189.305 65.24 189.369 65.24C189.55 65.24 189.705 65.176 189.833 65.048C189.961 64.9093 190.062 64.6907 190.137 64.392C190.222 64.0827 190.281 63.6827 190.313 63.192C190.356 62.7013 190.377 62.104 190.377 61.4V59.688H195.929V67H193.961V61.432H192.201V62.296C192.201 63.2133 192.142 63.9813 192.025 64.6C191.918 65.2187 191.753 65.72 191.529 66.104C191.316 66.4773 191.049 66.7493 190.729 66.92C190.42 67.08 190.062 67.16 189.657 67.16ZM197.387 66.728L198.939 64.408C198.085 64.0027 197.659 63.2827 197.659 62.248C197.659 61.4053 197.931 60.7707 198.475 60.344C199.029 59.9067 199.888 59.688 201.051 59.688H204.219V67H202.235V64.76H200.987L199.547 67H197.387V66.728ZM202.235 63.352V61.224H201.179C200.667 61.224 200.288 61.2987 200.043 61.448C199.797 61.5867 199.675 61.8587 199.675 62.264C199.675 62.6693 199.781 62.952 199.995 63.112C200.219 63.272 200.597 63.352 201.131 63.352H202.235ZM219.471 65.256H220.351C220.628 64.68 220.836 64.04 220.975 63.336C221.114 62.6213 221.183 61.7787 221.183 60.808V59.688H226.879V65.256H227.999V68.632H226.383V67H221.103V68.632H219.471V65.256ZM222.959 61.48C222.959 62.9627 222.74 64.2213 222.303 65.256H224.895V61.432H222.959V61.48ZM232.495 67.112C231.919 67.112 231.386 67.0213 230.895 66.84C230.415 66.6587 229.999 66.4027 229.647 66.072C229.306 65.7307 229.034 65.3307 228.831 64.872C228.639 64.4133 228.543 63.9013 228.543 63.336C228.543 62.7707 228.639 62.2587 228.831 61.8C229.034 61.3307 229.311 60.9307 229.663 60.6C230.015 60.2693 230.431 60.0133 230.911 59.832C231.402 59.6507 231.93 59.56 232.495 59.56C233.071 59.56 233.599 59.6507 234.079 59.832C234.57 60.0133 234.991 60.2747 235.343 60.616C235.695 60.9467 235.967 61.3467 236.159 61.816C236.351 62.2747 236.447 62.7813 236.447 63.336C236.447 63.912 236.346 64.4347 236.143 64.904C235.941 65.3627 235.663 65.7573 235.311 66.088C234.959 66.408 234.543 66.6587 234.063 66.84C233.583 67.0213 233.061 67.112 232.495 67.112ZM232.495 65.432C233.082 65.432 233.541 65.2347 233.871 64.84C234.202 64.4453 234.367 63.944 234.367 63.336C234.367 62.728 234.207 62.232 233.887 61.848C233.567 61.4533 233.103 61.256 232.495 61.256C231.898 61.256 231.434 61.4533 231.103 61.848C230.773 62.2427 230.607 62.7387 230.607 63.336C230.607 63.624 230.65 63.896 230.735 64.152C230.821 64.408 230.943 64.632 231.103 64.824C231.263 65.016 231.461 65.1653 231.695 65.272C231.93 65.3787 232.197 65.432 232.495 65.432ZM241.29 67.112C240.703 67.112 240.175 67.0213 239.706 66.84C239.236 66.6587 238.831 66.408 238.49 66.088C238.159 65.7573 237.903 65.3627 237.722 64.904C237.54 64.4453 237.45 63.9333 237.45 63.368C237.45 62.7707 237.546 62.2373 237.738 61.768C237.94 61.288 238.212 60.888 238.554 60.568C238.895 60.2373 239.3 59.9867 239.77 59.816C240.239 59.6453 240.746 59.56 241.29 59.56C241.908 59.56 242.468 59.6667 242.97 59.88C243.482 60.0933 243.882 60.36 244.17 60.68L243.146 62.024C242.932 61.7893 242.682 61.6027 242.394 61.464C242.116 61.3253 241.802 61.256 241.45 61.256C240.852 61.256 240.378 61.448 240.026 61.832C239.684 62.216 239.514 62.7067 239.514 63.304C239.514 63.9227 239.69 64.4347 240.042 64.84C240.404 65.2347 240.89 65.432 241.498 65.432C241.85 65.432 242.164 65.3627 242.442 65.224C242.719 65.0747 242.964 64.8827 243.178 64.648L244.346 65.8C244.026 66.216 243.599 66.5413 243.066 66.776C242.543 67 241.951 67.112 241.29 67.112ZM247.218 61.432H244.866V59.688H251.538V61.432H249.186V67H247.218V61.432ZM252.757 59.688H254.741V63.896L258.133 59.688H259.685V67H257.701V62.552L254.117 67H252.757V59.688ZM260.609 66.728L262.721 63.096L261.025 59.96V59.688H263.009L264.401 62.408H265.201V59.688H267.169V62.408H267.953L269.361 59.688H271.281V59.96L269.617 63.064L271.777 66.728V67H269.665L267.921 63.912H267.169V67H265.201V63.912H264.433L262.705 67H260.609V66.728ZM275.964 67.112C275.378 67.112 274.839 67.0213 274.348 66.84C273.868 66.6587 273.452 66.408 273.1 66.088C272.748 65.7573 272.476 65.368 272.284 64.92C272.092 64.4613 271.996 63.9547 271.996 63.4C271.996 62.8133 272.098 62.2853 272.3 61.816C272.503 61.336 272.78 60.9307 273.132 60.6C273.484 60.2693 273.895 60.0133 274.364 59.832C274.834 59.6507 275.335 59.56 275.868 59.56C276.444 59.56 276.956 59.6613 277.404 59.864C277.863 60.056 278.247 60.328 278.556 60.68C278.866 61.0213 279.1 61.4267 279.26 61.896C279.431 62.3547 279.516 62.8507 279.516 63.384V63.8H273.916C274.012 64.3653 274.252 64.7973 274.636 65.096C275.031 65.3947 275.527 65.544 276.124 65.544C276.551 65.544 276.946 65.4693 277.308 65.32C277.682 65.16 277.991 64.9413 278.236 64.664L279.34 65.672C278.967 66.1413 278.487 66.4987 277.9 66.744C277.314 66.9893 276.668 67.112 275.964 67.112ZM275.788 61.16C275.319 61.16 274.924 61.288 274.604 61.544C274.295 61.7893 274.082 62.1413 273.964 62.6H277.612C277.548 62.1947 277.356 61.8533 277.036 61.576C276.716 61.2987 276.3 61.16 275.788 61.16ZM285.999 64.12H282.959V67H280.975V59.688H282.959V62.376H285.999V59.688H287.983V67H285.999V64.12ZM289.866 59.688H291.85V63.896L295.242 59.688H296.794V67H294.81V62.552L291.226 67H289.866V59.688ZM298.23 66.728L299.782 64.408C298.929 64.0027 298.502 63.2827 298.502 62.248C298.502 61.4053 298.774 60.7707 299.318 60.344C299.873 59.9067 300.732 59.688 301.894 59.688H305.062V67H303.078V64.76H301.83L300.39 67H298.23V66.728ZM303.078 63.352V61.224H302.022C301.51 61.224 301.132 61.2987 300.886 61.448C300.641 61.5867 300.518 61.8587 300.518 62.264C300.518 62.6693 300.625 62.952 300.838 63.112C301.062 63.272 301.441 63.352 301.974 63.352H303.078ZM21.944 78.688H23.928V81.376H24.696L26.456 78.688H28.52V78.96L26.344 82.016L29.064 85.728V86H26.856L24.648 82.88H23.928V86H21.944V78.688ZM32.6856 86.112C32.2483 86.112 31.8216 86.0213 31.4056 85.84C31.0003 85.6587 30.6376 85.4027 30.3176 85.072C30.0083 84.7413 29.7576 84.3467 29.5656 83.888C29.3736 83.4187 29.2776 82.9013 29.2776 82.336C29.2776 81.7707 29.3683 81.2587 29.5496 80.8C29.7416 80.3307 29.9923 79.9307 30.3016 79.6C30.6216 79.2693 30.9843 79.0133 31.3896 78.832C31.8056 78.6507 32.2376 78.56 32.6856 78.56C33.2296 78.56 33.7096 78.6667 34.1256 78.88C34.5523 79.0933 34.8883 79.3547 35.1336 79.664V78.688H37.0056V86H35.1336V85.008C34.867 85.3387 34.5203 85.6053 34.0936 85.808C33.667 86.0107 33.1976 86.112 32.6856 86.112ZM33.2136 84.416C33.7576 84.416 34.1896 84.2293 34.5096 83.856C34.8403 83.472 35.011 82.976 35.0216 82.368V82.24C35.0216 81.6747 34.8563 81.2107 34.5256 80.848C34.195 80.4853 33.7576 80.304 33.2136 80.304C32.9683 80.304 32.7336 80.3467 32.5096 80.432C32.2856 80.5173 32.0883 80.6453 31.9176 80.816C31.747 80.9867 31.6136 81.2 31.5176 81.456C31.4216 81.712 31.3736 82.0053 31.3736 82.336C31.3736 82.976 31.5443 83.4827 31.8856 83.856C32.2376 84.2293 32.6803 84.416 33.2136 84.416ZM38.8971 78.688H40.8811V81.376H41.6491L43.4091 78.688H45.4731V78.96L43.2971 82.016L46.0171 85.728V86H43.8091L41.6011 82.88H40.8811V86H38.8971V78.688ZM50.1828 86.112C49.6068 86.112 49.0734 86.0213 48.5828 85.84C48.1028 85.6587 47.6868 85.4027 47.3348 85.072C46.9934 84.7307 46.7214 84.3307 46.5188 83.872C46.3268 83.4133 46.2308 82.9013 46.2308 82.336C46.2308 81.7707 46.3268 81.2587 46.5188 80.8C46.7214 80.3307 46.9988 79.9307 47.3508 79.6C47.7028 79.2693 48.1188 79.0133 48.5988 78.832C49.0894 78.6507 49.6174 78.56 50.1828 78.56C50.7588 78.56 51.2868 78.6507 51.7668 78.832C52.2574 79.0133 52.6788 79.2747 53.0308 79.616C53.3828 79.9467 53.6548 80.3467 53.8468 80.816C54.0388 81.2747 54.1348 81.7813 54.1348 82.336C54.1348 82.912 54.0334 83.4347 53.8308 83.904C53.6281 84.3627 53.3508 84.7573 52.9988 85.088C52.6468 85.408 52.2308 85.6587 51.7508 85.84C51.2708 86.0213 50.7481 86.112 50.1828 86.112ZM50.1828 84.432C50.7694 84.432 51.2281 84.2347 51.5588 83.84C51.8894 83.4453 52.0548 82.944 52.0548 82.336C52.0548 81.728 51.8948 81.232 51.5748 80.848C51.2548 80.4533 50.7908 80.256 50.1828 80.256C49.5854 80.256 49.1214 80.4533 48.7908 80.848C48.4601 81.2427 48.2948 81.7387 48.2948 82.336C48.2948 82.624 48.3374 82.896 48.4228 83.152C48.5081 83.408 48.6308 83.632 48.7908 83.824C48.9508 84.016 49.1481 84.1653 49.3828 84.272C49.6174 84.3787 49.8841 84.432 50.1828 84.432ZM55.569 78.688H57.553V82.896L60.945 78.688H62.497V86H60.513V81.552L56.929 86H55.569V78.688ZM59.025 77.744C58.6943 77.744 58.3797 77.7013 58.081 77.616C57.793 77.52 57.537 77.3813 57.313 77.2C57.0997 77.0187 56.929 76.7893 56.801 76.512C56.673 76.224 56.6037 75.8933 56.593 75.52H58.017C58.0383 75.808 58.129 76.0427 58.289 76.224C58.449 76.4053 58.705 76.496 59.057 76.496C59.3983 76.496 59.649 76.4107 59.809 76.24C59.9797 76.0587 60.0757 75.8187 60.097 75.52H61.505C61.4943 75.8933 61.4197 76.224 61.281 76.512C61.1423 76.7893 60.961 77.0187 60.737 77.2C60.513 77.3813 60.2517 77.52 59.953 77.616C59.6543 77.7013 59.345 77.744 59.025 77.744ZM68.6535 83.024H64.3655V81.408H68.6535V83.024ZM72.2021 80.432H69.8501V78.688H76.5221V80.432H74.1701V86H72.2021V80.432ZM80.9796 86.112C80.4036 86.112 79.8703 86.0213 79.3796 85.84C78.8996 85.6587 78.4836 85.4027 78.1316 85.072C77.7903 84.7307 77.5183 84.3307 77.3156 83.872C77.1236 83.4133 77.0276 82.9013 77.0276 82.336C77.0276 81.7707 77.1236 81.2587 77.3156 80.8C77.5183 80.3307 77.7956 79.9307 78.1476 79.6C78.4996 79.2693 78.9156 79.0133 79.3956 78.832C79.8863 78.6507 80.4143 78.56 80.9796 78.56C81.5556 78.56 82.0836 78.6507 82.5636 78.832C83.0543 79.0133 83.4756 79.2747 83.8276 79.616C84.1796 79.9467 84.4516 80.3467 84.6436 80.816C84.8356 81.2747 84.9316 81.7813 84.9316 82.336C84.9316 82.912 84.8303 83.4347 84.6276 83.904C84.425 84.3627 84.1476 84.7573 83.7956 85.088C83.4436 85.408 83.0276 85.6587 82.5476 85.84C82.0676 86.0213 81.545 86.112 80.9796 86.112ZM80.9796 84.432C81.5663 84.432 82.025 84.2347 82.3556 83.84C82.6863 83.4453 82.8516 82.944 82.8516 82.336C82.8516 81.728 82.6916 81.232 82.3716 80.848C82.0516 80.4533 81.5876 80.256 80.9796 80.256C80.3823 80.256 79.9183 80.4533 79.5876 80.848C79.257 81.2427 79.0916 81.7387 79.0916 82.336C79.0916 82.624 79.1343 82.896 79.2196 83.152C79.305 83.408 79.4276 83.632 79.5876 83.824C79.7476 84.016 79.945 84.1653 80.1796 84.272C80.4143 84.3787 80.681 84.432 80.9796 84.432ZM90.5221 78.688H97.4021V86H95.4341V80.432H92.5061V86H90.5221V78.688ZM102.823 86.112C102.247 86.112 101.714 86.0213 101.223 85.84C100.743 85.6587 100.327 85.4027 99.9754 85.072C99.634 84.7307 99.362 84.3307 99.1594 83.872C98.9674 83.4133 98.8714 82.9013 98.8714 82.336C98.8714 81.7707 98.9674 81.2587 99.1594 80.8C99.362 80.3307 99.6394 79.9307 99.9914 79.6C100.343 79.2693 100.759 79.0133 101.239 78.832C101.73 78.6507 102.258 78.56 102.823 78.56C103.399 78.56 103.927 78.6507 104.407 78.832C104.898 79.0133 105.319 79.2747 105.671 79.616C106.023 79.9467 106.295 80.3467 106.487 80.816C106.679 81.2747 106.775 81.7813 106.775 82.336C106.775 82.912 106.674 83.4347 106.471 83.904C106.269 84.3627 105.991 84.7573 105.639 85.088C105.287 85.408 104.871 85.6587 104.391 85.84C103.911 86.0213 103.389 86.112 102.823 86.112ZM102.823 84.432C103.41 84.432 103.869 84.2347 104.199 83.84C104.53 83.4453 104.695 82.944 104.695 82.336C104.695 81.728 104.535 81.232 104.215 80.848C103.895 80.4533 103.431 80.256 102.823 80.256C102.226 80.256 101.762 80.4533 101.431 80.848C101.101 81.2427 100.935 81.7387 100.935 82.336C100.935 82.624 100.978 82.896 101.063 83.152C101.149 83.408 101.271 83.632 101.431 83.824C101.591 84.016 101.789 84.1653 102.023 84.272C102.258 84.3787 102.525 84.432 102.823 84.432ZM111.618 86.112C111.031 86.112 110.503 86.0213 110.034 85.84C109.564 85.6587 109.159 85.408 108.818 85.088C108.487 84.7573 108.231 84.3627 108.05 83.904C107.868 83.4453 107.778 82.9333 107.778 82.368C107.778 81.7707 107.874 81.2373 108.066 80.768C108.268 80.288 108.54 79.888 108.882 79.568C109.223 79.2373 109.628 78.9867 110.098 78.816C110.567 78.6453 111.074 78.56 111.618 78.56C112.236 78.56 112.796 78.6667 113.298 78.88C113.81 79.0933 114.21 79.36 114.498 79.68L113.474 81.024C113.26 80.7893 113.01 80.6027 112.722 80.464C112.444 80.3253 112.13 80.256 111.778 80.256C111.18 80.256 110.706 80.448 110.354 80.832C110.012 81.216 109.842 81.7067 109.842 82.304C109.842 82.9227 110.018 83.4347 110.37 83.84C110.732 84.2347 111.218 84.432 111.826 84.432C112.178 84.432 112.492 84.3627 112.77 84.224C113.047 84.0747 113.292 83.8827 113.506 83.648L114.674 84.8C114.354 85.216 113.927 85.5413 113.394 85.776C112.871 86 112.279 86.112 111.618 86.112ZM117.546 80.432H115.194V78.688H121.866V80.432H119.514V86H117.546V80.432ZM125.779 86.112C125.342 86.112 124.915 86.0213 124.499 85.84C124.094 85.6587 123.731 85.4027 123.411 85.072C123.102 84.7413 122.851 84.3467 122.659 83.888C122.467 83.4187 122.371 82.9013 122.371 82.336C122.371 81.7707 122.462 81.2587 122.643 80.8C122.835 80.3307 123.086 79.9307 123.395 79.6C123.715 79.2693 124.078 79.0133 124.483 78.832C124.899 78.6507 125.331 78.56 125.779 78.56C126.323 78.56 126.803 78.6667 127.219 78.88C127.646 79.0933 127.982 79.3547 128.227 79.664V78.688H130.099V86H128.227V85.008C127.961 85.3387 127.614 85.6053 127.187 85.808C126.761 86.0107 126.291 86.112 125.779 86.112ZM126.307 84.416C126.851 84.416 127.283 84.2293 127.603 83.856C127.934 83.472 128.105 82.976 128.115 82.368V82.24C128.115 81.6747 127.95 81.2107 127.619 80.848C127.289 80.4853 126.851 80.304 126.307 80.304C126.062 80.304 125.827 80.3467 125.603 80.432C125.379 80.5173 125.182 80.6453 125.011 80.816C124.841 80.9867 124.707 81.2 124.611 81.456C124.515 81.712 124.467 82.0053 124.467 82.336C124.467 82.976 124.638 83.4827 124.979 83.856C125.331 84.2293 125.774 84.416 126.307 84.416ZM131.991 78.688H135.943C136.7 78.688 137.271 78.8533 137.655 79.184C138.039 79.504 138.231 79.9253 138.231 80.448C138.231 80.8427 138.135 81.168 137.943 81.424C137.751 81.68 137.5 81.8613 137.191 81.968C137.714 82.0427 138.14 82.224 138.471 82.512C138.802 82.8 138.967 83.232 138.967 83.808C138.967 84.512 138.706 85.056 138.183 85.44C137.671 85.8133 136.919 86 135.927 86H131.991V78.688ZM133.975 82.704V84.544H135.495C135.996 84.544 136.354 84.4693 136.567 84.32C136.78 84.16 136.887 83.9253 136.887 83.616C136.887 83.296 136.775 83.0667 136.551 82.928C136.327 82.7787 135.991 82.704 135.543 82.704H133.975ZM133.975 80.144V81.552H135.351C136.034 81.552 136.375 81.312 136.375 80.832C136.375 80.3733 136.028 80.144 135.335 80.144H133.975ZM140.22 86.16C140.102 86.16 139.996 86.1547 139.9 86.144C139.814 86.1333 139.74 86.1227 139.676 86.112V84.208C139.782 84.2293 139.868 84.24 139.932 84.24C140.113 84.24 140.268 84.176 140.396 84.048C140.524 83.9093 140.625 83.6907 140.7 83.392C140.785 83.0827 140.844 82.6827 140.876 82.192C140.918 81.7013 140.94 81.104 140.94 80.4V78.688H146.492V86H144.524V80.432H142.764V81.296C142.764 82.2133 142.705 82.9813 142.588 83.6C142.481 84.2187 142.316 84.72 142.092 85.104C141.878 85.4773 141.612 85.7493 141.292 85.92C140.982 86.08 140.625 86.16 140.22 86.16ZM151.933 86.112C151.346 86.112 150.808 86.0213 150.317 85.84C149.837 85.6587 149.421 85.408 149.069 85.088C148.717 84.7573 148.445 84.368 148.253 83.92C148.061 83.4613 147.965 82.9547 147.965 82.4C147.965 81.8133 148.066 81.2853 148.269 80.816C148.472 80.336 148.749 79.9307 149.101 79.6C149.453 79.2693 149.864 79.0133 150.333 78.832C150.802 78.6507 151.304 78.56 151.837 78.56C152.413 78.56 152.925 78.6613 153.373 78.864C153.832 79.056 154.216 79.328 154.525 79.68C154.834 80.0213 155.069 80.4267 155.229 80.896C155.4 81.3547 155.485 81.8507 155.485 82.384V82.8H149.885C149.981 83.3653 150.221 83.7973 150.605 84.096C151 84.3947 151.496 84.544 152.093 84.544C152.52 84.544 152.914 84.4693 153.277 84.32C153.65 84.16 153.96 83.9413 154.205 83.664L155.309 84.672C154.936 85.1413 154.456 85.4987 153.869 85.744C153.282 85.9893 152.637 86.112 151.933 86.112ZM151.757 80.16C151.288 80.16 150.893 80.288 150.573 80.544C150.264 80.7893 150.05 81.1413 149.933 81.6H153.581C153.517 81.1947 153.325 80.8533 153.005 80.576C152.685 80.2987 152.269 80.16 151.757 80.16ZM161.968 83.12H158.928V86H156.944V78.688H158.928V81.376H161.968V78.688H163.952V86H161.968V83.12ZM170.859 83.12H167.819V86H165.835V78.688H167.819V81.376H170.859V78.688H172.843V86H170.859V83.12ZM178.245 86.112C177.669 86.112 177.136 86.0213 176.645 85.84C176.165 85.6587 175.749 85.4027 175.397 85.072C175.056 84.7307 174.784 84.3307 174.581 83.872C174.389 83.4133 174.293 82.9013 174.293 82.336C174.293 81.7707 174.389 81.2587 174.581 80.8C174.784 80.3307 175.061 79.9307 175.413 79.6C175.765 79.2693 176.181 79.0133 176.661 78.832C177.152 78.6507 177.68 78.56 178.245 78.56C178.821 78.56 179.349 78.6507 179.829 78.832C180.32 79.0133 180.741 79.2747 181.093 79.616C181.445 79.9467 181.717 80.3467 181.909 80.816C182.101 81.2747 182.197 81.7813 182.197 82.336C182.197 82.912 182.096 83.4347 181.893 83.904C181.691 84.3627 181.413 84.7573 181.061 85.088C180.709 85.408 180.293 85.6587 179.813 85.84C179.333 86.0213 178.811 86.112 178.245 86.112ZM178.245 84.432C178.832 84.432 179.291 84.2347 179.621 83.84C179.952 83.4453 180.117 82.944 180.117 82.336C180.117 81.728 179.957 81.232 179.637 80.848C179.317 80.4533 178.853 80.256 178.245 80.256C177.648 80.256 177.184 80.4533 176.853 80.848C176.523 81.2427 176.357 81.7387 176.357 82.336C176.357 82.624 176.4 82.896 176.485 83.152C176.571 83.408 176.693 83.632 176.853 83.824C177.013 84.016 177.211 84.1653 177.445 84.272C177.68 84.3787 177.947 84.432 178.245 84.432ZM183.632 78.688H185.616V82.896L189.008 78.688H190.56V86H188.576V81.552L184.992 86H183.632V78.688ZM187.088 77.744C186.757 77.744 186.442 77.7013 186.144 77.616C185.856 77.52 185.6 77.3813 185.376 77.2C185.162 77.0187 184.992 76.7893 184.864 76.512C184.736 76.224 184.666 75.8933 184.656 75.52H186.08C186.101 75.808 186.192 76.0427 186.352 76.224C186.512 76.4053 186.768 76.496 187.12 76.496C187.461 76.496 187.712 76.4107 187.872 76.24C188.042 76.0587 188.138 75.8187 188.16 75.52H189.568C189.557 75.8933 189.482 76.224 189.344 76.512C189.205 76.7893 189.024 77.0187 188.8 77.2C188.576 77.3813 188.314 77.52 188.016 77.616C187.717 77.7013 187.408 77.744 187.088 77.744ZM202.696 86H196.6V78.688H198.584V84.256H201.224V78.688H203.192V84.256H204.328V87.632H202.696V86ZM208.839 86.112C208.253 86.112 207.714 86.0213 207.223 85.84C206.743 85.6587 206.327 85.408 205.975 85.088C205.623 84.7573 205.351 84.368 205.159 83.92C204.967 83.4613 204.871 82.9547 204.871 82.4C204.871 81.8133 204.973 81.2853 205.175 80.816C205.378 80.336 205.655 79.9307 206.007 79.6C206.359 79.2693 206.77 79.0133 207.239 78.832C207.709 78.6507 208.21 78.56 208.743 78.56C209.319 78.56 209.831 78.6613 210.279 78.864C210.738 79.056 211.122 79.328 211.431 79.68C211.741 80.0213 211.975 80.4267 212.135 80.896C212.306 81.3547 212.391 81.8507 212.391 82.384V82.8H206.791C206.887 83.3653 207.127 83.7973 207.511 84.096C207.906 84.3947 208.402 84.544 208.999 84.544C209.426 84.544 209.821 84.4693 210.183 84.32C210.557 84.16 210.866 83.9413 211.111 83.664L212.215 84.672C211.842 85.1413 211.362 85.4987 210.775 85.744C210.189 85.9893 209.543 86.112 208.839 86.112ZM208.663 80.16C208.194 80.16 207.799 80.288 207.479 80.544C207.17 80.7893 206.957 81.1413 206.839 81.6H210.487C210.423 81.1947 210.231 80.8533 209.911 80.576C209.591 80.2987 209.175 80.16 208.663 80.16ZM213.532 86.16C213.415 86.16 213.308 86.1547 213.212 86.144C213.127 86.1333 213.052 86.1227 212.988 86.112V84.208C213.095 84.2293 213.18 84.24 213.244 84.24C213.425 84.24 213.58 84.176 213.708 84.048C213.836 83.9093 213.937 83.6907 214.012 83.392C214.097 83.0827 214.156 82.6827 214.188 82.192C214.231 81.7013 214.252 81.104 214.252 80.4V78.688H219.804V86H217.836V80.432H216.076V81.296C216.076 82.2133 216.017 82.9813 215.9 83.6C215.793 84.2187 215.628 84.72 215.404 85.104C215.191 85.4773 214.924 85.7493 214.604 85.92C214.295 86.08 213.937 86.16 213.532 86.16ZM221.71 78.688H223.694V82.896L227.086 78.688H228.638V86H226.654V81.552L223.07 86H221.71V78.688ZM231.61 86.16C231.237 86.16 230.949 86.0533 230.746 85.84C230.554 85.616 230.458 85.3493 230.458 85.04C230.458 84.7093 230.554 84.432 230.746 84.208C230.938 83.984 231.226 83.872 231.61 83.872C231.994 83.872 232.287 83.984 232.49 84.208C232.693 84.432 232.794 84.7093 232.794 85.04C232.794 85.3493 232.687 85.616 232.474 85.84C232.271 86.0533 231.983 86.16 231.61 86.16Z" fill="black"/>
<defs>
<linearGradient id="paint0_linear_102_7" x1="372.117" y1="61.6149" x2="-59.068" y2="61.6149" gradientUnits="userSpaceOnUse">
<stop stop-color="white" stop-opacity="0.64"/>
<stop offset="0.325" stop-color="#2736C1" stop-opacity="0.72"/>
<stop offset="1" stop-color="#091FEA"/>
</linearGradient>
</defs>
</svg>
