<svg width="25" height="25" viewBox="0 0 25 25" fill="none" xmlns="http://www.w3.org/2000/svg">
<path d="M10.2137 15.4957C7.8918 14.275 2.43711 15.2784 0 15.9326C2.35002 15.1275 7.38122 12.8874 8.70581 10.3678C10.0304 7.84827 9.03791 2.40628 8.3761 0.000228047C9.24658 2.37586 11.5886 7.44311 13.9929 8.7071C16.3972 9.97109 21.8944 8.92008 24.2977 8.39691C21.9044 9.28437 16.8104 11.6439 15.581 13.9823C14.3517 16.3207 15.3102 21.8272 15.9432 24.2881C15.0009 21.866 12.5357 16.7164 10.2137 15.4957Z" fill="#2736C1"/>
<path d="M2.28424 19.9276C2.28424 18.7618 0.761413 16.8234 0 16C0.802756 16.758 2.72455 18.2739 3.98966 18.2739C5.25478 18.2739 7.19035 16.758 8 16C7.24548 16.8338 5.73643 18.8031 5.73643 20.0103C5.73643 21.2176 7.28682 23.1628 7.98966 24C7.14556 23.242 5.16382 21.7261 3.98966 21.7261C2.8155 21.7261 0.847545 23.242 0.0103359 24C0.768303 23.1283 2.28424 21.0935 2.28424 19.9276Z" fill="#2736C1"/>
</svg>
