<svg width="48" height="43" viewBox="0 0 48 43" fill="none" xmlns="http://www.w3.org/2000/svg">
<path d="M22.2813 24.1744C22.2813 18.9279 15.4286 10.2054 12.0022 6.5C15.6146 9.91085 24.2627 16.7326 29.9557 16.7326C35.6487 16.7326 44.3588 9.91085 48.0022 6.5C44.6068 10.2519 37.8162 19.114 37.8162 24.5465C37.8162 29.9791 44.7929 38.7326 47.9557 42.5C44.1572 39.0891 35.2394 32.2674 29.9557 32.2674C24.672 32.2674 15.8162 39.0891 12.0487 42.5C15.4596 38.5775 22.2813 29.4209 22.2813 24.1744Z" fill="#2736C1"/>
<path d="M3.42855 6.39147C3.42855 4.64264 1.14432 1.73514 0.00219727 0.5C1.20633 1.63695 4.08902 3.91085 5.98669 3.91085C7.88437 3.91085 10.7877 1.63695 12.0022 0.5C10.8704 1.75065 8.60685 4.70465 8.60685 6.5155C8.60685 8.32636 10.9324 11.2442 11.9867 12.5C10.7205 11.363 7.74793 9.08915 5.98669 9.08915C4.22545 9.08915 1.27352 11.363 0.0177011 12.5C1.15465 11.1925 3.42855 8.14031 3.42855 6.39147Z" fill="#2736C1"/>
</svg>
