<svg width="952" height="82" viewBox="0 0 952 82" fill="none" xmlns="http://www.w3.org/2000/svg">
<mask id="path-1-outside-1_21_339" maskUnits="userSpaceOnUse" x="-1" y="-1" width="954" height="84" fill="black">
<rect fill="white" x="-1" y="-1" width="954" height="84"/>
<path d="M38.184 1.448H45.192V35H41.256V5.384H40.584L24.936 35H21.048L5.4 5.384H4.728V35H0.792V1.448H7.752L22.968 30.248L38.184 1.448ZM86.7113 14.216C89.7353 14.36 92.1353 16.76 92.2793 19.784V29.432C92.1353 32.456 89.7353 34.856 86.7593 35H52.8233V1.448H56.7593V14.216H86.7113ZM88.3433 29.288V19.976C88.3433 19.496 88.1513 19.064 87.8153 18.728C87.4793 18.392 86.9993 18.2 86.5193 18.2L56.7593 18.248V31.064H86.5673C86.9993 31.064 87.4793 30.872 87.8153 30.536C88.1513 30.2 88.3433 29.72 88.3433 29.288ZM100.199 35H96.2633V1.448H100.199V35ZM165.473 14.936C167.249 15.848 168.449 17.672 168.545 19.784V29.432C168.401 32.456 166.001 34.856 163.025 35H129.089V1.448H160.529C163.553 1.592 165.953 3.992 166.097 7.016V12.632C166.049 13.448 165.857 14.216 165.473 14.936ZM133.025 5.384V14.216H160.337C160.817 14.216 161.249 14.024 161.585 13.688C161.921 13.352 162.113 12.92 162.161 12.44V7.208C162.113 6.728 161.921 6.296 161.585 5.96C161.249 5.624 160.817 5.432 160.337 5.384H133.025ZM164.609 29.288V19.976C164.609 19.496 164.417 19.064 164.081 18.728C163.745 18.392 163.265 18.2 162.785 18.2L133.025 18.248V31.064H162.833C163.265 31.064 163.745 30.872 164.081 30.536C164.417 30.2 164.609 29.72 164.609 29.288ZM236.529 6.728C236.913 14.408 236.913 22.088 236.529 29.768C236.385 32.744 233.985 35.192 230.961 35.288C226.113 35.528 221.265 35.624 216.465 35.624C211.617 35.624 206.769 35.528 201.969 35.288C198.945 35.192 196.545 32.744 196.401 29.768C195.969 22.088 195.969 14.408 196.401 6.728C196.545 3.704 198.945 1.304 201.969 1.16C206.769 0.919998 211.617 0.823999 216.465 0.823999C221.265 0.823999 226.113 0.919998 230.961 1.16C233.985 1.304 236.385 3.704 236.529 6.728ZM232.593 29.576C232.977 22.04 232.977 14.408 232.593 6.92C232.545 6.44 232.353 6.008 232.017 5.672C231.681 5.336 231.249 5.144 230.769 5.096C226.017 4.904 221.217 4.76 216.465 4.76C211.713 4.76 206.865 4.904 202.113 5.096C201.681 5.144 201.201 5.336 200.865 5.672C200.529 6.008 200.337 6.44 200.337 6.92C199.953 14.408 199.953 22.04 200.337 29.576C200.337 30.008 200.529 30.488 200.865 30.824C201.201 31.16 201.681 31.352 202.113 31.352C206.865 31.592 211.713 31.688 216.465 31.688C221.217 31.688 226.017 31.592 230.769 31.352C231.249 31.352 231.681 31.16 232.017 30.824C232.353 30.488 232.545 30.008 232.593 29.576ZM241.095 1.448H272.679V5.384H258.855V35H254.871V5.384H241.095V1.448ZM313.645 14.936C315.421 15.848 316.621 17.672 316.717 19.784V29.432C316.573 32.456 314.173 34.856 311.197 35H277.261V1.448H308.701C311.725 1.592 314.125 3.992 314.269 7.016V12.632C314.221 13.448 314.029 14.216 313.645 14.936ZM281.197 5.384V14.216H308.509C308.989 14.216 309.421 14.024 309.757 13.688C310.093 13.352 310.285 12.92 310.333 12.44V7.208C310.285 6.728 310.093 6.296 309.757 5.96C309.421 5.624 308.989 5.432 308.509 5.384H281.197ZM312.781 29.288V19.976C312.781 19.496 312.589 19.064 312.253 18.728C311.917 18.392 311.437 18.2 310.957 18.2L281.197 18.248V31.064H311.005C311.437 31.064 311.917 30.872 312.253 30.536C312.589 30.2 312.781 29.72 312.781 29.288ZM354.923 5.384H327.275V16.28H354.923V20.216H327.275V31.064H354.923V35H323.339V1.448H354.923V5.384ZM358.236 1.448H389.82V5.384H375.996V35H372.012V5.384H358.236V1.448ZM425.985 5.384H398.337V16.28H425.985V20.216H398.337V31.064H425.985V35H394.401V1.448H425.985V5.384ZM492.149 12.632C492.101 13.976 491.573 15.224 490.709 16.184C491.573 17.144 492.101 18.392 492.149 19.784V29.768C492.005 32.744 489.605 35.192 486.581 35.288C481.733 35.528 477.077 35.624 472.277 35.624C467.429 35.624 462.581 35.528 457.733 35.288C454.757 35.192 452.309 32.744 452.165 29.768C452.117 28.712 452.069 27.656 452.069 26.648H456.005C456.053 27.608 456.053 28.568 456.148 29.576C456.148 30.008 456.341 30.488 456.677 30.824C457.013 31.16 457.445 31.352 457.925 31.352C462.677 31.592 467.525 31.688 472.277 31.688C477.029 31.688 481.637 31.592 486.389 31.352C486.869 31.352 487.349 31.16 487.685 30.824C488.021 30.488 488.213 30.008 488.213 29.576V19.976C488.213 19.496 488.021 19.064 487.685 18.728C487.349 18.392 486.869 18.2 486.389 18.2L464.981 18.248V14.216H486.389C486.869 14.216 487.301 14.024 487.637 13.688C487.973 13.352 488.213 12.92 488.213 12.44V6.92C488.213 6.44 488.021 6.008 487.685 5.672C487.349 5.336 486.869 5.144 486.389 5.096C481.637 4.904 477.029 4.76 472.277 4.76C467.525 4.76 462.677 4.904 457.925 5.096C457.445 5.144 457.013 5.336 456.677 5.672C456.341 6.008 456.148 6.44 456.148 6.92C456.053 7.88 456.053 8.84 456.005 9.848H452.069C452.069 8.792 452.117 7.736 452.165 6.728C452.309 3.704 454.757 1.304 457.733 1.16C462.581 0.919998 467.429 0.823999 472.277 0.823999C477.077 0.823999 481.733 0.919998 486.581 1.16C489.605 1.304 492.005 3.704 492.149 6.728V12.632ZM519.862 1.448L535.222 35H530.902L527.59 27.8H503.398L500.086 35H495.766L511.126 1.448H519.862ZM505.222 23.816H525.766L517.318 5.384H513.67L505.222 23.816ZM557.876 1.448H589.46V5.384H575.636V35H571.652V5.384H557.876V1.448ZM625.626 5.384H597.978V16.28H625.626V20.216H597.978V31.064H625.626V35H594.042V1.448H625.626V5.384ZM673.243 1.448L654.043 18.248L673.243 35H667.243L651.019 20.84L634.843 35H628.843L648.043 18.248L628.843 1.448H634.843L651.019 15.608L667.243 1.448H673.243ZM675.218 31.112H679.154V35.048L675.218 38.984V31.112ZM40.296 47.448L15.624 64.248L40.296 81L33.288 81.048L11.544 66.216H4.776V81.048H0.84V47.448H4.776V62.28H11.496L33.24 47.496L40.296 47.448ZM83.5294 52.728C83.9134 60.408 83.9134 68.088 83.5294 75.768C83.3854 78.744 80.9854 81.192 77.9614 81.288C73.1134 81.528 68.2654 81.624 63.4654 81.624C58.6174 81.624 53.7694 81.528 48.9694 81.288C45.9454 81.192 43.5454 78.744 43.4014 75.768C42.9694 68.088 42.9694 60.408 43.4014 52.728C43.5454 49.704 45.9454 47.304 48.9694 47.16C53.7694 46.92 58.6174 46.824 63.4654 46.824C68.2654 46.824 73.1134 46.92 77.9614 47.16C80.9854 47.304 83.3854 49.704 83.5294 52.728ZM79.5934 75.576C79.9774 68.04 79.9774 60.408 79.5934 52.92C79.5454 52.44 79.3534 52.008 79.0174 51.672C78.6814 51.336 78.2494 51.144 77.7694 51.096C73.0174 50.904 68.2174 50.76 63.4654 50.76C58.7134 50.76 53.8654 50.904 49.1134 51.096C48.6814 51.144 48.2014 51.336 47.8654 51.672C47.5294 52.008 47.3374 52.44 47.3374 52.92C46.9534 60.408 46.9534 68.04 47.3374 75.576C47.3374 76.008 47.5294 76.488 47.8654 76.824C48.2014 77.16 48.6814 77.352 49.1134 77.352C53.8654 77.592 58.7134 77.688 63.4654 77.688C68.2174 77.688 73.0174 77.592 77.7694 77.352C78.2494 77.352 78.6814 77.16 79.0174 76.824C79.3534 76.488 79.5454 76.008 79.5934 75.576ZM90.9326 47.448H118.533V51.384H94.8686V81H90.9326V47.448ZM163.217 52.728C163.601 60.408 163.601 68.088 163.217 75.768C163.073 78.744 160.673 81.192 157.649 81.288C152.801 81.528 147.953 81.624 143.153 81.624C138.305 81.624 133.457 81.528 128.657 81.288C125.633 81.192 123.233 78.744 123.089 75.768C122.657 68.088 122.657 60.408 123.089 52.728C123.233 49.704 125.633 47.304 128.657 47.16C133.457 46.92 138.305 46.824 143.153 46.824C147.953 46.824 152.801 46.92 157.649 47.16C160.673 47.304 163.073 49.704 163.217 52.728ZM159.281 75.576C159.665 68.04 159.665 60.408 159.281 52.92C159.233 52.44 159.041 52.008 158.705 51.672C158.369 51.336 157.937 51.144 157.457 51.096C152.705 50.904 147.905 50.76 143.153 50.76C138.401 50.76 133.553 50.904 128.801 51.096C128.369 51.144 127.889 51.336 127.553 51.672C127.217 52.008 127.025 52.44 127.025 52.92C126.641 60.408 126.641 68.04 127.025 75.576C127.025 76.008 127.217 76.488 127.553 76.824C127.889 77.16 128.369 77.352 128.801 77.352C133.553 77.592 138.401 77.688 143.153 77.688C147.905 77.688 152.705 77.592 157.457 77.352C157.937 77.352 158.369 77.16 158.705 76.824C159.041 76.488 159.233 76.008 159.281 75.576ZM230.633 58.632C230.585 59.976 230.057 61.224 229.193 62.184C230.057 63.144 230.585 64.392 230.633 65.784V75.768C230.489 78.744 228.089 81.192 225.065 81.288C220.217 81.528 215.561 81.624 210.761 81.624C205.913 81.624 201.065 81.528 196.217 81.288C193.241 81.192 190.793 78.744 190.649 75.768C190.601 74.712 190.553 73.656 190.553 72.648H194.489C194.537 73.608 194.537 74.568 194.633 75.576C194.633 76.008 194.825 76.488 195.161 76.824C195.497 77.16 195.929 77.352 196.409 77.352C201.161 77.592 206.009 77.688 210.761 77.688C215.513 77.688 220.121 77.592 224.873 77.352C225.353 77.352 225.833 77.16 226.169 76.824C226.505 76.488 226.697 76.008 226.697 75.576V65.976C226.697 65.496 226.505 65.064 226.169 64.728C225.833 64.392 225.353 64.2 224.873 64.2L203.465 64.248V60.216H224.873C225.353 60.216 225.785 60.024 226.121 59.688C226.457 59.352 226.697 58.92 226.697 58.44V52.92C226.697 52.44 226.505 52.008 226.169 51.672C225.833 51.336 225.353 51.144 224.873 51.096C220.121 50.904 215.513 50.76 210.761 50.76C206.009 50.76 201.161 50.904 196.409 51.096C195.929 51.144 195.497 51.336 195.161 51.672C194.825 52.008 194.633 52.44 194.633 52.92C194.537 53.88 194.537 54.84 194.489 55.848H190.553C190.553 54.792 190.601 53.736 190.649 52.728C190.793 49.704 193.241 47.304 196.217 47.16C201.065 46.92 205.913 46.824 210.761 46.824C215.561 46.824 220.217 46.92 225.065 47.16C228.089 47.304 230.489 49.704 230.633 52.728V58.632ZM258.346 47.448L273.706 81H269.386L266.074 73.8H241.882L238.57 81H234.25L249.61 47.448H258.346ZM243.706 69.816H264.25L255.802 51.384H252.154L243.706 69.816ZM278.198 47.448H317.654V81H313.718V51.384H282.134V81H278.198V51.384V47.448ZM364.764 53.016V62.664C364.62 65.688 362.22 68.088 359.196 68.232H329.244V81H325.308V47.448H359.244C362.22 47.592 364.62 49.992 364.764 53.016ZM360.3 63.72C360.636 63.384 360.828 62.952 360.828 62.472V53.208C360.828 52.728 360.636 52.296 360.3 51.96C359.964 51.624 359.484 51.432 359.052 51.384H329.244V64.248L359.004 64.296C359.484 64.248 359.964 64.056 360.3 63.72ZM410.998 52.728C411.382 60.408 411.382 68.088 410.998 75.768C410.854 78.744 408.454 81.192 405.43 81.288C400.582 81.528 395.734 81.624 390.934 81.624C386.086 81.624 381.238 81.528 376.438 81.288C373.414 81.192 371.014 78.744 370.87 75.768C370.438 68.088 370.438 60.408 370.87 52.728C371.014 49.704 373.414 47.304 376.438 47.16C381.238 46.92 386.086 46.824 390.934 46.824C395.734 46.824 400.582 46.92 405.43 47.16C408.454 47.304 410.854 49.704 410.998 52.728ZM407.062 75.576C407.446 68.04 407.446 60.408 407.062 52.92C407.014 52.44 406.822 52.008 406.486 51.672C406.15 51.336 405.718 51.144 405.238 51.096C400.486 50.904 395.686 50.76 390.934 50.76C386.182 50.76 381.334 50.904 376.582 51.096C376.15 51.144 375.67 51.336 375.334 51.672C374.998 52.008 374.806 52.44 374.806 52.92C374.422 60.408 374.422 68.04 374.806 75.576C374.806 76.008 374.998 76.488 375.334 76.824C375.67 77.16 376.15 77.352 376.582 77.352C381.334 77.592 386.182 77.688 390.934 77.688C395.686 77.688 400.486 77.592 405.238 77.352C405.718 77.352 406.15 77.16 406.486 76.824C406.822 76.488 407.014 76.008 407.062 75.576ZM418.401 47.448H446.001V51.384H422.337V81H418.401V47.448ZM490.014 53.016V62.664C489.87 65.688 487.47 68.088 484.446 68.232H454.494V81H450.558V47.448H484.494C487.47 47.592 489.87 49.992 490.014 53.016ZM485.55 63.72C485.886 63.384 486.078 62.952 486.078 62.472V53.208C486.078 52.728 485.886 52.296 485.55 51.96C485.214 51.624 484.734 51.432 484.302 51.384H454.494V64.248L484.254 64.296C484.734 64.248 485.214 64.056 485.55 63.72ZM513.487 47.448L528.847 81H524.527L521.215 73.8H497.023L493.711 81H489.391L504.751 47.448H513.487ZM498.847 69.816H519.391L510.943 51.384H507.295L498.847 69.816ZM570.731 47.448H577.739V81H573.803V51.384H573.131L557.483 81H553.595L537.947 51.384H537.275V81H533.339V47.448H540.299L555.515 76.248L570.731 47.448ZM622.762 47.448H629.77V81H625.834V51.384H625.162L609.514 81H605.626L589.978 51.384H589.306V81H585.37V47.448H592.33L607.546 76.248L622.762 47.448ZM669.897 47.448H676.857V81H672.921V51.384H671.817L644.361 81H637.401V47.448H641.337V77.064H642.633L669.897 47.448ZM723.967 53.016V62.664C723.823 65.688 721.423 68.088 718.399 68.232H688.447V81H684.511V47.448H718.447C721.423 47.592 723.823 49.992 723.967 53.016ZM719.503 63.72C719.839 63.384 720.031 62.952 720.031 62.472V53.208C720.031 52.728 719.839 52.296 719.503 51.96C719.167 51.624 718.687 51.432 718.255 51.384H688.447V64.248L718.207 64.296C718.687 64.248 719.167 64.056 719.503 63.72ZM770.201 52.728C770.585 60.408 770.585 68.088 770.201 75.768C770.057 78.744 767.657 81.192 764.633 81.288C759.785 81.528 754.937 81.624 750.137 81.624C745.289 81.624 740.441 81.528 735.641 81.288C732.617 81.192 730.217 78.744 730.073 75.768C729.641 68.088 729.641 60.408 730.073 52.728C730.217 49.704 732.617 47.304 735.641 47.16C740.441 46.92 745.289 46.824 750.137 46.824C754.937 46.824 759.785 46.92 764.633 47.16C767.657 47.304 770.057 49.704 770.201 52.728ZM766.265 75.576C766.649 68.04 766.649 60.408 766.265 52.92C766.217 52.44 766.025 52.008 765.689 51.672C765.353 51.336 764.921 51.144 764.441 51.096C759.689 50.904 754.889 50.76 750.137 50.76C745.385 50.76 740.537 50.904 735.785 51.096C735.353 51.144 734.873 51.336 734.537 51.672C734.201 52.008 734.009 52.44 734.009 52.92C733.625 60.408 733.625 68.04 734.009 75.576C734.009 76.008 734.201 76.488 734.537 76.824C734.873 77.16 735.353 77.352 735.785 77.352C740.537 77.592 745.385 77.688 750.137 77.688C754.889 77.688 759.689 77.592 764.441 77.352C764.921 77.352 765.353 77.16 765.689 76.824C766.025 76.488 766.217 76.008 766.265 75.576ZM813.989 60.936C815.765 61.848 816.965 63.672 817.061 65.784V75.432C816.917 78.456 814.517 80.856 811.541 81H777.605V47.448H809.045C812.069 47.592 814.469 49.992 814.613 53.016V58.632C814.565 59.448 814.373 60.216 813.989 60.936ZM781.541 51.384V60.216H808.853C809.333 60.216 809.765 60.024 810.101 59.688C810.437 59.352 810.629 58.92 810.677 58.44V53.208C810.629 52.728 810.437 52.296 810.101 51.96C809.765 51.624 809.333 51.432 808.853 51.384H781.541ZM813.125 75.288V65.976C813.125 65.496 812.933 65.064 812.597 64.728C812.261 64.392 811.781 64.2 811.301 64.2L781.541 64.248V77.064H811.349C811.781 77.064 812.261 76.872 812.597 76.536C812.933 76.2 813.125 75.72 813.125 75.288ZM844.659 47.448L860.019 81H855.699L852.387 73.8H828.195L824.883 81H820.563L835.923 47.448H844.659ZM830.019 69.816H850.563L842.115 51.384H838.467L830.019 69.816ZM870.895 47.448H904.831V81H900.847V51.384H873.007H871.087C870.607 51.432 870.175 51.624 869.839 51.96C869.503 52.296 869.263 52.728 869.263 53.208V58.248V61.56V75.48C869.119 78.456 866.719 80.904 863.695 81H862.879V77.064H863.503C863.983 77.064 864.415 76.872 864.751 76.536C865.087 76.2 865.279 75.768 865.327 75.288V64.68V53.016C865.471 49.992 867.871 47.592 870.895 47.448ZM944.96 47.448H951.92V81H947.984V51.384H946.88L919.424 81H912.464V47.448H916.4V77.064H917.696L944.96 47.448Z"/>
</mask>
<path d="M38.184 1.448V0.447997H37.5813L37.2998 0.980854L38.184 1.448ZM45.192 1.448H46.192V0.447997H45.192V1.448ZM45.192 35V36H46.192V35H45.192ZM41.256 35H40.256V36H41.256V35ZM41.256 5.384H42.256V4.384H41.256V5.384ZM40.584 5.384V4.384H39.9814L39.6998 4.91683L40.584 5.384ZM24.936 35V36H25.5386L25.8202 35.4672L24.936 35ZM21.048 35L20.1638 35.4672L20.4454 36H21.048V35ZM5.4 5.384L6.28417 4.91683L6.00264 4.384H5.4V5.384ZM4.728 5.384V4.384H3.728V5.384H4.728ZM4.728 35V36H5.728V35H4.728ZM0.792 35H-0.208V36H0.792V35ZM0.792 1.448V0.447997H-0.208V1.448H0.792ZM7.752 1.448L8.63618 0.980854L8.35466 0.447997H7.752V1.448ZM22.968 30.248L22.0838 30.7151L22.968 32.3887L23.8522 30.7151L22.968 30.248ZM38.184 2.448H45.192V0.447997H38.184V2.448ZM44.192 1.448V35H46.192V1.448H44.192ZM45.192 34H41.256V36H45.192V34ZM42.256 35V5.384H40.256V35H42.256ZM41.256 4.384H40.584V6.384H41.256V4.384ZM39.6998 4.91683L24.0518 34.5328L25.8202 35.4672L41.4682 5.85116L39.6998 4.91683ZM24.936 34H21.048V36H24.936V34ZM21.9322 34.5328L6.28417 4.91683L4.51583 5.85116L20.1638 35.4672L21.9322 34.5328ZM5.4 4.384H4.728V6.384H5.4V4.384ZM3.728 5.384V35H5.728V5.384H3.728ZM4.728 34H0.792V36H4.728V34ZM1.792 35V1.448H-0.208V35H1.792ZM0.792 2.448H7.752V0.447997H0.792V2.448ZM6.86782 1.91514L22.0838 30.7151L23.8522 29.7809L8.63618 0.980854L6.86782 1.91514ZM23.8522 30.7151L39.0682 1.91514L37.2998 0.980854L22.0838 29.7809L23.8522 30.7151ZM86.7113 14.216L86.7588 13.2171L86.735 13.216H86.7113V14.216ZM92.2793 19.784H93.2793V19.7602L93.2781 19.7364L92.2793 19.784ZM92.2793 29.432L93.2781 29.4796L93.2793 29.4558V29.432H92.2793ZM86.7593 35V36H86.7834L86.8076 35.9988L86.7593 35ZM52.8233 35H51.8233V36H52.8233V35ZM52.8233 1.448V0.447997H51.8233V1.448H52.8233ZM56.7593 1.448H57.7593V0.447997H56.7593V1.448ZM56.7593 14.216H55.7593V15.216H56.7593V14.216ZM87.8153 18.728L87.1081 19.4351L87.1081 19.4351L87.8153 18.728ZM86.5193 18.2L86.5193 17.2L86.5176 17.2L86.5193 18.2ZM56.7593 18.248L56.7576 17.248L55.7593 17.2496V18.248H56.7593ZM56.7593 31.064H55.7593V32.064H56.7593V31.064ZM87.8153 30.536L87.1081 29.8289L87.1081 29.8289L87.8153 30.536ZM100.199 35V36H101.199V35H100.199ZM96.2633 35H95.2633V36H96.2633V35ZM96.2633 1.448V0.447997H95.2633V1.448H96.2633ZM100.199 1.448H101.199V0.447997H100.199V1.448ZM86.6637 15.2149C89.1728 15.3343 91.1609 17.3225 91.2804 19.8316L93.2781 19.7364C93.1096 16.1975 90.2977 13.3857 86.7588 13.2171L86.6637 15.2149ZM91.2793 19.784V29.432H93.2793V19.784H91.2793ZM91.2804 29.3844C91.1607 31.8986 89.1676 33.8823 86.7109 34.0012L86.8076 35.9988C90.3029 35.8297 93.1098 33.0134 93.2781 29.4796L91.2804 29.3844ZM86.7593 34H52.8233V36H86.7593V34ZM53.8233 35V1.448H51.8233V35H53.8233ZM52.8233 2.448H56.7593V0.447997H52.8233V2.448ZM55.7593 1.448V14.216H57.7593V1.448H55.7593ZM56.7593 15.216H86.7113V13.216H56.7593V15.216ZM89.3433 29.288V19.976H87.3433V29.288H89.3433ZM89.3433 19.976C89.3433 19.2134 89.0333 18.5318 88.5224 18.0209L87.1081 19.4351C87.2692 19.5962 87.3433 19.7786 87.3433 19.976H89.3433ZM88.5224 18.0209C87.9912 17.4897 87.2535 17.2 86.5193 17.2V19.2C86.745 19.2 86.9673 19.2943 87.1081 19.4351L88.5224 18.0209ZM86.5176 17.2L56.7576 17.248L56.7609 19.248L86.5209 19.2L86.5176 17.2ZM55.7593 18.248V31.064H57.7593V18.248H55.7593ZM56.7593 32.064H86.5673V30.064H56.7593V32.064ZM86.5673 32.064C87.2675 32.064 88.001 31.7645 88.5224 31.2431L87.1081 29.8289C86.9575 29.9795 86.731 30.064 86.5673 30.064V32.064ZM88.5224 31.2431C89.0438 30.7217 89.3433 29.9882 89.3433 29.288H87.3433C87.3433 29.4518 87.2588 29.6783 87.1081 29.8289L88.5224 31.2431ZM100.199 34H96.2633V36H100.199V34ZM97.2633 35V1.448H95.2633V35H97.2633ZM96.2633 2.448H100.199V0.447997H96.2633V2.448ZM99.1993 1.448V35H101.199V1.448H99.1993ZM165.473 14.936L164.591 14.4654L164.113 15.3616L165.016 15.8256L165.473 14.936ZM168.545 19.784H169.545V19.7613L169.544 19.7386L168.545 19.784ZM168.545 29.432L169.544 29.4796L169.545 29.4558V29.432H168.545ZM163.025 35V36H163.049L163.073 35.9988L163.025 35ZM129.089 35H128.089V36H129.089V35ZM129.089 1.448V0.447997H128.089V1.448H129.089ZM160.529 1.448L160.576 0.449129L160.553 0.447997H160.529V1.448ZM166.097 7.016H167.097V6.9922L167.096 6.96844L166.097 7.016ZM166.097 12.632L167.095 12.6907L167.097 12.6614V12.632H166.097ZM133.025 5.384V4.384H132.025V5.384H133.025ZM133.025 14.216H132.025V15.216H133.025V14.216ZM161.585 13.688L162.292 14.3951L162.292 14.3951L161.585 13.688ZM162.161 12.44L163.156 12.5395L163.161 12.4899V12.44H162.161ZM162.161 7.208H163.161V7.15812L163.156 7.10849L162.161 7.208ZM160.337 5.384L160.436 4.38896L160.387 4.384H160.337V5.384ZM164.081 18.728L163.374 19.4351L163.374 19.4351L164.081 18.728ZM162.785 18.2L162.785 17.2L162.783 17.2L162.785 18.2ZM133.025 18.248L133.023 17.248L132.025 17.2496V18.248H133.025ZM133.025 31.064H132.025V32.064H133.025V31.064ZM164.081 30.536L163.374 29.8289L163.374 29.8289L164.081 30.536ZM165.016 15.8256C166.471 16.5728 167.466 18.0735 167.546 19.8294L169.544 19.7386C169.432 17.2705 168.027 15.1232 165.93 14.0464L165.016 15.8256ZM167.545 19.784V29.432H169.545V19.784H167.545ZM167.546 29.3844C167.426 31.8986 165.433 33.8823 162.977 34.0012L163.073 35.9988C166.569 35.8297 169.375 33.0134 169.544 29.4796L167.546 29.3844ZM163.025 34H129.089V36H163.025V34ZM130.089 35V1.448H128.089V35H130.089ZM129.089 2.448H160.529V0.447997H129.089V2.448ZM160.481 2.44687C162.99 2.56635 164.979 4.55446 165.098 7.06356L167.096 6.96844C166.927 3.42954 164.115 0.617649 160.576 0.449129L160.481 2.44687ZM165.097 7.016V12.632H167.097V7.016H165.097ZM165.099 12.5733C165.058 13.266 164.897 13.8899 164.591 14.4654L166.355 15.4066C166.816 14.5421 167.04 13.63 167.095 12.6907L165.099 12.5733ZM132.025 5.384V14.216H134.025V5.384H132.025ZM133.025 15.216H160.337V13.216H133.025V15.216ZM160.337 15.216C161.099 15.216 161.781 14.906 162.292 14.3951L160.878 12.9809C160.717 13.142 160.534 13.216 160.337 13.216V15.216ZM162.292 14.3951C162.805 13.8824 163.087 13.2295 163.156 12.5395L161.166 12.3405C161.139 12.6105 161.037 12.8216 160.878 12.9809L162.292 14.3951ZM163.161 12.44V7.208H161.161V12.44H163.161ZM163.156 7.10849C163.087 6.41855 162.805 5.76563 162.292 5.25289L160.878 6.66711C161.037 6.82637 161.139 7.03745 161.166 7.3075L163.156 7.10849ZM162.292 5.25289C161.779 4.74016 161.126 4.45795 160.436 4.38896L160.237 6.37904C160.507 6.40604 160.719 6.50784 160.878 6.66711L162.292 5.25289ZM160.337 4.384H133.025V6.384H160.337V4.384ZM165.609 29.288V19.976H163.609V29.288H165.609ZM165.609 19.976C165.609 19.2134 165.299 18.5318 164.788 18.0209L163.374 19.4351C163.535 19.5962 163.609 19.7786 163.609 19.976H165.609ZM164.788 18.0209C164.257 17.4897 163.519 17.2 162.785 17.2V19.2C163.011 19.2 163.233 19.2943 163.374 19.4351L164.788 18.0209ZM162.783 17.2L133.023 17.248L133.026 19.248L162.786 19.2L162.783 17.2ZM132.025 18.248V31.064H134.025V18.248H132.025ZM133.025 32.064H162.833V30.064H133.025V32.064ZM162.833 32.064C163.533 32.064 164.267 31.7645 164.788 31.2431L163.374 29.8289C163.223 29.9795 162.997 30.064 162.833 30.064V32.064ZM164.788 31.2431C165.309 30.7217 165.609 29.9882 165.609 29.288H163.609C163.609 29.4518 163.524 29.6783 163.374 29.8289L164.788 31.2431ZM236.529 6.728L235.531 6.77556L235.531 6.77794L236.529 6.728ZM236.529 29.768L235.531 29.7181L235.531 29.7197L236.529 29.768ZM230.961 35.288L230.93 34.2885L230.921 34.2888L230.912 34.2892L230.961 35.288ZM201.969 35.288L202.019 34.2892L202.01 34.2888L202.001 34.2885L201.969 35.288ZM196.401 29.768L197.4 29.7197L197.4 29.7118L196.401 29.768ZM196.401 6.728L197.4 6.78416L197.4 6.77556L196.401 6.728ZM201.969 1.16L202.017 2.15887L202.019 2.15875L201.969 1.16ZM230.961 1.16L230.912 2.15878L230.914 2.15887L230.961 1.16ZM232.593 29.576L233.587 29.6864L233.591 29.6567L233.592 29.6269L232.593 29.576ZM232.593 6.92L233.592 6.86878L233.591 6.84459L233.588 6.82049L232.593 6.92ZM232.017 5.672L231.31 6.37911L231.31 6.37911L232.017 5.672ZM230.769 5.096L230.869 4.10096L230.839 4.09801L230.81 4.09681L230.769 5.096ZM202.113 5.096L202.073 4.09681L202.038 4.09823L202.003 4.10211L202.113 5.096ZM200.865 5.672L201.572 6.37911L201.572 6.37911L200.865 5.672ZM200.337 6.92L201.336 6.97121L201.337 6.94562V6.92H200.337ZM200.337 29.576H201.337V29.5505L201.336 29.5251L200.337 29.576ZM202.113 31.352L202.164 30.3533L202.139 30.352H202.113V31.352ZM230.769 31.352V30.352H230.744L230.719 30.3533L230.769 31.352ZM235.531 6.77794C235.913 14.4247 235.913 22.0713 235.531 29.7181L237.528 29.8179C237.914 22.1047 237.914 14.3913 237.528 6.67806L235.531 6.77794ZM235.531 29.7197C235.411 32.1901 233.418 34.2095 230.93 34.2885L230.993 36.2875C234.553 36.1745 237.36 33.2979 237.528 29.8163L235.531 29.7197ZM230.912 34.2892C226.083 34.5283 221.252 34.624 216.465 34.624V36.624C221.279 36.624 226.143 36.5277 231.011 36.2868L230.912 34.2892ZM216.465 34.624C211.63 34.624 206.799 34.5282 202.019 34.2892L201.919 36.2868C206.739 36.5278 211.604 36.624 216.465 36.624V34.624ZM202.001 34.2885C199.513 34.2095 197.52 32.1901 197.4 29.7197L195.403 29.8163C195.571 33.2979 198.378 36.1745 201.938 36.2875L202.001 34.2885ZM197.4 29.7118C196.97 22.0692 196.97 14.4267 197.4 6.78416L195.403 6.67184C194.969 14.3892 194.969 22.1067 195.403 29.8242L197.4 29.7118ZM197.4 6.77556C197.52 4.26646 199.508 2.27835 202.017 2.15887L201.922 0.16113C198.383 0.32965 195.571 3.14154 195.403 6.68043L197.4 6.77556ZM202.019 2.15875C206.799 1.91975 211.63 1.824 216.465 1.824V-0.176001C211.604 -0.176001 206.739 -0.079753 201.919 0.161246L202.019 2.15875ZM216.465 1.824C221.252 1.824 226.083 1.91974 230.912 2.15877L231.011 0.161221C226.143 -0.0797448 221.279 -0.176001 216.465 -0.176001V1.824ZM230.914 2.15887C233.423 2.27835 235.411 4.26646 235.531 6.77556L237.528 6.68043C237.36 3.14154 234.548 0.32965 231.009 0.16113L230.914 2.15887ZM233.592 29.6269C233.978 22.0571 233.978 14.391 233.592 6.86878L231.595 6.97121C231.977 14.425 231.977 22.0229 231.595 29.5251L233.592 29.6269ZM233.588 6.82049C233.519 6.13055 233.237 5.47763 232.724 4.96489L231.31 6.37911C231.47 6.53837 231.571 6.74945 231.598 7.01951L233.588 6.82049ZM232.724 4.96489C232.212 4.45216 231.559 4.16996 230.869 4.10096L230.67 6.09104C230.94 6.11804 231.151 6.21984 231.31 6.37911L232.724 4.96489ZM230.81 4.09681C226.052 3.90457 221.237 3.76 216.465 3.76V5.76C221.198 5.76 225.983 5.90343 230.729 6.09518L230.81 4.09681ZM216.465 3.76C211.694 3.76 206.831 3.90456 202.073 4.09681L202.154 6.09518C206.899 5.90344 211.732 5.76 216.465 5.76V3.76ZM202.003 4.10211C201.389 4.17034 200.683 4.43982 200.158 4.96489L201.572 6.37911C201.719 6.23218 201.974 6.11765 202.224 6.08988L202.003 4.10211ZM200.158 4.96489C199.647 5.4758 199.337 6.15745 199.337 6.92H201.337C201.337 6.72255 201.411 6.54019 201.572 6.37911L200.158 4.96489ZM199.339 6.86878C198.953 14.391 198.953 22.0571 199.339 29.6269L201.336 29.5251C200.954 22.0229 200.954 14.425 201.336 6.97121L199.339 6.86878ZM199.337 29.576C199.337 30.2762 199.637 31.0097 200.158 31.5311L201.572 30.1169C201.422 29.9663 201.337 29.7398 201.337 29.576H199.337ZM200.158 31.5311C200.68 32.0525 201.413 32.352 202.113 32.352V30.352C201.95 30.352 201.723 30.2675 201.572 30.1169L200.158 31.5311ZM202.063 32.3507C206.835 32.5917 211.7 32.688 216.465 32.688V30.688C211.726 30.688 206.896 30.5923 202.164 30.3533L202.063 32.3507ZM216.465 32.688C221.231 32.688 226.048 32.5917 230.82 32.3507L230.719 30.3533C225.987 30.5923 221.204 30.688 216.465 30.688V32.688ZM230.769 32.352C231.532 32.352 232.214 32.042 232.724 31.5311L231.31 30.1169C231.149 30.278 230.967 30.352 230.769 30.352V32.352ZM232.724 31.5311C233.25 31.006 233.519 30.3005 233.587 29.6864L231.599 29.4656C231.572 29.7155 231.457 29.97 231.31 30.1169L232.724 31.5311ZM241.095 1.448V0.447997H240.095V1.448H241.095ZM272.679 1.448H273.679V0.447997H272.679V1.448ZM272.679 5.384V6.384H273.679V5.384H272.679ZM258.855 5.384V4.384H257.855V5.384H258.855ZM258.855 35V36H259.855V35H258.855ZM254.871 35H253.871V36H254.871V35ZM254.871 5.384H255.871V4.384H254.871V5.384ZM241.095 5.384H240.095V6.384H241.095V5.384ZM241.095 2.448H272.679V0.447997H241.095V2.448ZM271.679 1.448V5.384H273.679V1.448H271.679ZM272.679 4.384H258.855V6.384H272.679V4.384ZM257.855 5.384V35H259.855V5.384H257.855ZM258.855 34H254.871V36H258.855V34ZM255.871 35V5.384H253.871V35H255.871ZM254.871 4.384H241.095V6.384H254.871V4.384ZM242.095 5.384V1.448H240.095V5.384H242.095ZM313.645 14.936L312.762 14.4654L312.284 15.3616L313.188 15.8256L313.645 14.936ZM316.717 19.784H317.717V19.7613L317.716 19.7386L316.717 19.784ZM316.717 29.432L317.716 29.4796L317.717 29.4558V29.432H316.717ZM311.197 35V36H311.221L311.245 35.9988L311.197 35ZM277.261 35H276.261V36H277.261V35ZM277.261 1.448V0.447997H276.261V1.448H277.261ZM308.701 1.448L308.748 0.449129L308.725 0.447997H308.701V1.448ZM314.269 7.016H315.269V6.9922L315.268 6.96844L314.269 7.016ZM314.269 12.632L315.267 12.6907L315.269 12.6614V12.632H314.269ZM281.197 5.384V4.384H280.197V5.384H281.197ZM281.197 14.216H280.197V15.216H281.197V14.216ZM309.757 13.688L310.464 14.3951L310.464 14.3951L309.757 13.688ZM310.333 12.44L311.328 12.5395L311.333 12.4899V12.44H310.333ZM310.333 7.208H311.333V7.15812L311.328 7.10849L310.333 7.208ZM308.509 5.384L308.608 4.38896L308.559 4.384H308.509V5.384ZM312.253 18.728L311.546 19.4351L311.546 19.4351L312.253 18.728ZM310.957 18.2L310.957 17.2L310.955 17.2L310.957 18.2ZM281.197 18.248L281.195 17.248L280.197 17.2496V18.248H281.197ZM281.197 31.064H280.197V32.064H281.197V31.064ZM312.253 30.536L311.546 29.8289L311.546 29.8289L312.253 30.536ZM313.188 15.8256C314.643 16.5728 315.638 18.0735 315.718 19.8294L317.716 19.7386C317.604 17.2705 316.198 15.1232 314.102 14.0464L313.188 15.8256ZM315.717 19.784V29.432H317.717V19.784H315.717ZM315.718 29.3844C315.598 31.8986 313.605 33.8823 311.148 34.0012L311.245 35.9988C314.74 35.8297 317.547 33.0134 317.716 29.4796L315.718 29.3844ZM311.197 34H277.261V36H311.197V34ZM278.261 35V1.448H276.261V35H278.261ZM277.261 2.448H308.701V0.447997H277.261V2.448ZM308.653 2.44687C311.162 2.56635 313.15 4.55446 313.27 7.06356L315.268 6.96844C315.099 3.42954 312.287 0.617649 308.748 0.449129L308.653 2.44687ZM313.269 7.016V12.632H315.269V7.016H313.269ZM313.27 12.5733C313.23 13.266 313.069 13.8899 312.762 14.4654L314.527 15.4066C314.988 14.5421 315.212 13.63 315.267 12.6907L313.27 12.5733ZM280.197 5.384V14.216H282.197V5.384H280.197ZM281.197 15.216H308.509V13.216H281.197V15.216ZM308.509 15.216C309.271 15.216 309.953 14.906 310.464 14.3951L309.05 12.9809C308.889 13.142 308.706 13.216 308.509 13.216V15.216ZM310.464 14.3951C310.977 13.8824 311.259 13.2295 311.328 12.5395L309.338 12.3405C309.311 12.6105 309.209 12.8216 309.05 12.9809L310.464 14.3951ZM311.333 12.44V7.208H309.333V12.44H311.333ZM311.328 7.10849C311.259 6.41855 310.977 5.76563 310.464 5.25289L309.05 6.66711C309.209 6.82637 309.311 7.03745 309.338 7.3075L311.328 7.10849ZM310.464 5.25289C309.951 4.74016 309.298 4.45795 308.608 4.38896L308.409 6.37904C308.679 6.40604 308.89 6.50784 309.05 6.66711L310.464 5.25289ZM308.509 4.384H281.197V6.384H308.509V4.384ZM313.781 29.288V19.976H311.781V29.288H313.781ZM313.781 19.976C313.781 19.2134 313.471 18.5318 312.96 18.0209L311.546 19.4351C311.707 19.5962 311.781 19.7786 311.781 19.976H313.781ZM312.96 18.0209C312.429 17.4897 311.691 17.2 310.957 17.2V19.2C311.183 19.2 311.405 19.2943 311.546 19.4351L312.96 18.0209ZM310.955 17.2L281.195 17.248L281.198 19.248L310.958 19.2L310.955 17.2ZM280.197 18.248V31.064H282.197V18.248H280.197ZM281.197 32.064H311.005V30.064H281.197V32.064ZM311.005 32.064C311.705 32.064 312.438 31.7645 312.96 31.2431L311.546 29.8289C311.395 29.9795 311.169 30.064 311.005 30.064V32.064ZM312.96 31.2431C313.481 30.7217 313.781 29.9882 313.781 29.288H311.781C311.781 29.4518 311.696 29.6783 311.546 29.8289L312.96 31.2431ZM354.923 5.384V6.384H355.923V5.384H354.923ZM327.275 5.384V4.384H326.275V5.384H327.275ZM327.275 16.28H326.275V17.28H327.275V16.28ZM354.923 16.28H355.923V15.28H354.923V16.28ZM354.923 20.216V21.216H355.923V20.216H354.923ZM327.275 20.216V19.216H326.275V20.216H327.275ZM327.275 31.064H326.275V32.064H327.275V31.064ZM354.923 31.064H355.923V30.064H354.923V31.064ZM354.923 35V36H355.923V35H354.923ZM323.339 35H322.339V36H323.339V35ZM323.339 1.448V0.447997H322.339V1.448H323.339ZM354.923 1.448H355.923V0.447997H354.923V1.448ZM354.923 4.384H327.275V6.384H354.923V4.384ZM326.275 5.384V16.28H328.275V5.384H326.275ZM327.275 17.28H354.923V15.28H327.275V17.28ZM353.923 16.28V20.216H355.923V16.28H353.923ZM354.923 19.216H327.275V21.216H354.923V19.216ZM326.275 20.216V31.064H328.275V20.216H326.275ZM327.275 32.064H354.923V30.064H327.275V32.064ZM353.923 31.064V35H355.923V31.064H353.923ZM354.923 34H323.339V36H354.923V34ZM324.339 35V1.448H322.339V35H324.339ZM323.339 2.448H354.923V0.447997H323.339V2.448ZM353.923 1.448V5.384H355.923V1.448H353.923ZM358.236 1.448V0.447997H357.236V1.448H358.236ZM389.82 1.448H390.82V0.447997H389.82V1.448ZM389.82 5.384V6.384H390.82V5.384H389.82ZM375.996 5.384V4.384H374.996V5.384H375.996ZM375.996 35V36H376.996V35H375.996ZM372.012 35H371.012V36H372.012V35ZM372.012 5.384H373.012V4.384H372.012V5.384ZM358.236 5.384H357.236V6.384H358.236V5.384ZM358.236 2.448H389.82V0.447997H358.236V2.448ZM388.82 1.448V5.384H390.82V1.448H388.82ZM389.82 4.384H375.996V6.384H389.82V4.384ZM374.996 5.384V35H376.996V5.384H374.996ZM375.996 34H372.012V36H375.996V34ZM373.012 35V5.384H371.012V35H373.012ZM372.012 4.384H358.236V6.384H372.012V4.384ZM359.236 5.384V1.448H357.236V5.384H359.236ZM425.985 5.384V6.384H426.985V5.384H425.985ZM398.337 5.384V4.384H397.337V5.384H398.337ZM398.337 16.28H397.337V17.28H398.337V16.28ZM425.985 16.28H426.985V15.28H425.985V16.28ZM425.985 20.216V21.216H426.985V20.216H425.985ZM398.337 20.216V19.216H397.337V20.216H398.337ZM398.337 31.064H397.337V32.064H398.337V31.064ZM425.985 31.064H426.985V30.064H425.985V31.064ZM425.985 35V36H426.985V35H425.985ZM394.401 35H393.401V36H394.401V35ZM394.401 1.448V0.447997H393.401V1.448H394.401ZM425.985 1.448H426.985V0.447997H425.985V1.448ZM425.985 4.384H398.337V6.384H425.985V4.384ZM397.337 5.384V16.28H399.337V5.384H397.337ZM398.337 17.28H425.985V15.28H398.337V17.28ZM424.985 16.28V20.216H426.985V16.28H424.985ZM425.985 19.216H398.337V21.216H425.985V19.216ZM397.337 20.216V31.064H399.337V20.216H397.337ZM398.337 32.064H425.985V30.064H398.337V32.064ZM424.985 31.064V35H426.985V31.064H424.985ZM425.985 34H394.401V36H425.985V34ZM395.401 35V1.448H393.401V35H395.401ZM394.401 2.448H425.985V0.447997H394.401V2.448ZM424.985 1.448V5.384H426.985V1.448H424.985ZM492.149 12.632L493.148 12.6677L493.149 12.6499V12.632H492.149ZM490.709 16.184L489.965 15.515L489.363 16.184L489.965 16.853L490.709 16.184ZM492.149 19.784H493.149V19.7668L493.148 19.7495L492.149 19.784ZM492.149 29.768L493.147 29.8163L493.149 29.7922V29.768H492.149ZM486.581 35.288L486.549 34.2885L486.54 34.2888L486.531 34.2892L486.581 35.288ZM457.733 35.288L457.782 34.2892L457.773 34.2888L457.765 34.2885L457.733 35.288ZM452.165 29.768L451.166 29.8134L451.166 29.8163L452.165 29.768ZM452.069 26.648V25.648H451.069V26.648H452.069ZM456.005 26.648L457.003 26.5981L456.956 25.648H456.005V26.648ZM456.148 29.576H457.148V29.5285L457.144 29.4812L456.148 29.576ZM457.925 31.352L457.975 30.3533L457.95 30.352H457.925V31.352ZM486.389 31.352V30.352H486.363L486.338 30.3533L486.389 31.352ZM487.685 30.824L486.977 30.1169L486.977 30.1169L487.685 30.824ZM487.685 18.728L486.977 19.4351L486.977 19.4351L487.685 18.728ZM486.389 18.2V17.2L486.386 17.2L486.389 18.2ZM464.981 18.248H463.981V19.2502L464.983 19.248L464.981 18.248ZM464.981 14.216V13.216H463.981V14.216H464.981ZM487.637 13.688L488.344 14.3951L488.344 14.3951L487.637 13.688ZM487.685 5.672L486.977 6.3791L486.977 6.37911L487.685 5.672ZM486.389 5.096L486.488 4.10096L486.458 4.09801L486.429 4.09681L486.389 5.096ZM457.925 5.096L457.884 4.09681L457.855 4.09801L457.825 4.10096L457.925 5.096ZM456.677 5.672L457.384 6.37911L457.384 6.37911L456.677 5.672ZM456.148 6.92L457.144 7.0195L457.148 6.96987V6.92H456.148ZM456.005 9.848V10.848H456.958L457.003 9.89556L456.005 9.848ZM452.069 9.848H451.069V10.848H452.069V9.848ZM452.165 6.728L453.163 6.77556L453.163 6.77556L452.165 6.728ZM457.733 1.16L457.781 2.15883L457.782 2.15877L457.733 1.16ZM486.581 1.16L486.531 2.15878L486.533 2.15887L486.581 1.16ZM492.149 6.728H493.149V6.7042L493.147 6.68043L492.149 6.728ZM491.149 12.5963C491.11 13.6989 490.677 14.7244 489.965 15.515L491.452 16.853C492.468 15.7236 493.091 14.2531 493.148 12.6677L491.149 12.5963ZM489.965 16.853C490.674 17.6402 491.109 18.6643 491.149 19.8185L493.148 19.7495C493.092 18.1197 492.471 16.6478 491.452 15.515L489.965 16.853ZM491.149 19.784V29.768H493.149V19.784H491.149ZM491.15 29.7197C491.03 32.1901 489.037 34.2095 486.549 34.2885L486.612 36.2875C490.172 36.1745 492.979 33.2979 493.147 29.8163L491.15 29.7197ZM486.531 34.2892C481.702 34.5283 477.063 34.624 472.277 34.624V36.624C477.09 36.624 481.763 36.5277 486.63 36.2868L486.531 34.2892ZM472.277 34.624C467.442 34.624 462.61 34.5283 457.782 34.2892L457.683 36.2868C462.551 36.5277 467.415 36.624 472.277 36.624V34.624ZM457.765 34.2885C455.319 34.2096 453.283 32.1844 453.163 29.7197L451.166 29.8163C451.334 33.3036 454.194 36.1744 457.7 36.2875L457.765 34.2885ZM453.163 29.7226C453.115 28.662 453.069 27.6292 453.069 26.648H451.069C451.069 27.6828 451.118 28.762 451.166 29.8134L453.163 29.7226ZM452.069 27.648H456.005V25.648H452.069V27.648ZM455.006 26.6979C455.05 27.5886 455.055 28.6379 455.153 29.6708L457.144 29.4812C457.05 28.4981 457.055 27.6274 457.003 26.5981L455.006 26.6979ZM455.148 29.576C455.148 30.2762 455.448 31.0097 455.969 31.5311L457.384 30.1169C457.233 29.9663 457.148 29.7398 457.148 29.576H455.148ZM455.969 31.5311C456.48 32.042 457.162 32.352 457.925 32.352V30.352C457.727 30.352 457.545 30.278 457.384 30.1169L455.969 31.5311ZM457.874 32.3507C462.646 32.5917 467.512 32.688 472.277 32.688V30.688C467.537 30.688 462.707 30.5923 457.975 30.3533L457.874 32.3507ZM472.277 32.688C477.042 32.688 481.667 32.5917 486.439 32.3507L486.338 30.3533C481.606 30.5923 477.015 30.688 472.277 30.688V32.688ZM486.389 32.352C487.123 32.352 487.86 32.0623 488.392 31.5311L486.977 30.1169C486.837 30.2577 486.614 30.352 486.389 30.352V32.352ZM488.392 31.5311C488.913 31.0097 489.213 30.2762 489.213 29.576H487.213C487.213 29.7398 487.128 29.9663 486.977 30.1169L488.392 31.5311ZM489.213 29.576V19.976H487.213V29.576H489.213ZM489.213 19.976C489.213 19.2134 488.903 18.5318 488.392 18.0209L486.977 19.4351C487.138 19.5962 487.213 19.7785 487.213 19.976H489.213ZM488.392 18.0209C487.86 17.4897 487.123 17.2 486.389 17.2V19.2C486.614 19.2 486.837 19.2943 486.977 19.4351L488.392 18.0209ZM486.386 17.2L464.978 17.248L464.983 19.248L486.391 19.2L486.386 17.2ZM465.981 18.248V14.216H463.981V18.248H465.981ZM464.981 15.216H486.389V13.216H464.981V15.216ZM486.389 15.216C487.151 15.216 487.833 14.906 488.344 14.3951L486.929 12.9809C486.768 13.142 486.586 13.216 486.389 13.216V15.216ZM488.344 14.3951C488.802 13.9366 489.213 13.2648 489.213 12.44H487.213C487.213 12.5752 487.143 12.7674 486.929 12.9809L488.344 14.3951ZM489.213 12.44V6.92H487.213V12.44H489.213ZM489.213 6.92C489.213 6.15745 488.903 5.4758 488.392 4.96489L486.977 6.37911C487.138 6.54019 487.213 6.72255 487.213 6.92H489.213ZM488.392 4.9649C487.86 4.4329 487.147 4.16685 486.488 4.10096L486.289 6.09104C486.59 6.12114 486.837 6.23909 486.977 6.3791L488.392 4.9649ZM486.429 4.09681C481.672 3.9046 477.048 3.76 472.277 3.76V5.76C477.009 5.76 481.601 5.90339 486.348 6.09518L486.429 4.09681ZM472.277 3.76C467.505 3.76 462.642 3.90456 457.884 4.09681L457.965 6.09518C462.711 5.90344 467.544 5.76 472.277 5.76V3.76ZM457.825 4.10096C457.135 4.16996 456.482 4.45216 455.969 4.96489L457.384 6.37911C457.543 6.21984 457.754 6.11804 458.024 6.09104L457.825 4.10096ZM455.969 4.96489C455.458 5.4758 455.148 6.15744 455.148 6.92H457.148C457.148 6.72255 457.223 6.5402 457.384 6.37911L455.969 4.96489ZM455.153 6.8205C455.054 7.81221 455.051 8.85811 455.006 9.80043L457.003 9.89556C457.054 8.82189 457.051 7.94779 457.144 7.0195L455.153 6.8205ZM456.005 8.848H452.069V10.848H456.005V8.848ZM453.069 9.848C453.069 8.81891 453.115 7.78514 453.163 6.77556L451.166 6.68043C451.118 7.68686 451.069 8.76509 451.069 9.848H453.069ZM453.163 6.77556C453.283 4.27225 455.313 2.27823 457.781 2.15883L457.684 0.161167C454.2 0.329771 451.334 3.13575 451.166 6.68043L453.163 6.77556ZM457.782 2.15877C462.61 1.91974 467.442 1.824 472.277 1.824V-0.176001C467.415 -0.176001 462.551 -0.0797481 457.683 0.161221L457.782 2.15877ZM472.277 1.824C477.063 1.824 481.702 1.91971 486.531 2.15877L486.63 0.161221C481.763 -0.0797176 477.09 -0.176001 472.277 -0.176001V1.824ZM486.533 2.15887C489.042 2.27835 491.03 4.26646 491.15 6.77556L493.147 6.68043C492.979 3.14154 490.167 0.32965 486.628 0.16113L486.533 2.15887ZM491.149 6.728V12.632H493.149V6.728H491.149ZM519.862 1.448L520.771 1.03175L520.504 0.447997H519.862V1.448ZM535.222 35V36H536.779L536.131 34.5837L535.222 35ZM530.902 35L529.993 35.4179L530.261 36H530.902V35ZM527.59 27.8L528.498 27.3821L528.23 26.8H527.59V27.8ZM503.398 27.8V26.8H502.757L502.489 27.3821L503.398 27.8ZM500.086 35V36H500.726L500.994 35.4179L500.086 35ZM495.766 35L494.857 34.5837L494.208 36H495.766V35ZM511.126 1.448V0.447997H510.484L510.217 1.03175L511.126 1.448ZM505.222 23.816L504.313 23.3993L503.663 24.816H505.222V23.816ZM525.766 23.816V24.816H527.324L526.675 23.3993L525.766 23.816ZM517.318 5.384L518.227 4.96734L517.959 4.384H517.318V5.384ZM513.67 5.384V4.384H513.028L512.761 4.96734L513.67 5.384ZM518.953 1.86425L534.313 35.4163L536.131 34.5837L520.771 1.03175L518.953 1.86425ZM535.222 34H530.902V36H535.222V34ZM531.81 34.5821L528.498 27.3821L526.681 28.2179L529.993 35.4179L531.81 34.5821ZM527.59 26.8H503.398V28.8H527.59V26.8ZM502.489 27.3821L499.177 34.5821L500.994 35.4179L504.306 28.2179L502.489 27.3821ZM500.086 34H495.766V36H500.086V34ZM496.675 35.4163L512.035 1.86425L510.217 1.03175L494.857 34.5837L496.675 35.4163ZM511.126 2.448H519.862V0.447997H511.126V2.448ZM505.222 24.816H525.766V22.816H505.222V24.816ZM526.675 23.3993L518.227 4.96734L516.409 5.80065L524.857 24.2327L526.675 23.3993ZM517.318 4.384H513.67V6.384H517.318V4.384ZM512.761 4.96734L504.313 23.3993L506.131 24.2327L514.579 5.80065L512.761 4.96734ZM557.876 1.448V0.447997H556.876V1.448H557.876ZM589.46 1.448H590.46V0.447997H589.46V1.448ZM589.46 5.384V6.384H590.46V5.384H589.46ZM575.636 5.384V4.384H574.636V5.384H575.636ZM575.636 35V36H576.636V35H575.636ZM571.652 35H570.652V36H571.652V35ZM571.652 5.384H572.652V4.384H571.652V5.384ZM557.876 5.384H556.876V6.384H557.876V5.384ZM557.876 2.448H589.46V0.447997H557.876V2.448ZM588.46 1.448V5.384H590.46V1.448H588.46ZM589.46 4.384H575.636V6.384H589.46V4.384ZM574.636 5.384V35H576.636V5.384H574.636ZM575.636 34H571.652V36H575.636V34ZM572.652 35V5.384H570.652V35H572.652ZM571.652 4.384H557.876V6.384H571.652V4.384ZM558.876 5.384V1.448H556.876V5.384H558.876ZM625.626 5.384V6.384H626.626V5.384H625.626ZM597.978 5.384V4.384H596.978V5.384H597.978ZM597.978 16.28H596.978V17.28H597.978V16.28ZM625.626 16.28H626.626V15.28H625.626V16.28ZM625.626 20.216V21.216H626.626V20.216H625.626ZM597.978 20.216V19.216H596.978V20.216H597.978ZM597.978 31.064H596.978V32.064H597.978V31.064ZM625.626 31.064H626.626V30.064H625.626V31.064ZM625.626 35V36H626.626V35H625.626ZM594.042 35H593.042V36H594.042V35ZM594.042 1.448V0.447997H593.042V1.448H594.042ZM625.626 1.448H626.626V0.447997H625.626V1.448ZM625.626 4.384H597.978V6.384H625.626V4.384ZM596.978 5.384V16.28H598.978V5.384H596.978ZM597.978 17.28H625.626V15.28H597.978V17.28ZM624.626 16.28V20.216H626.626V16.28H624.626ZM625.626 19.216H597.978V21.216H625.626V19.216ZM596.978 20.216V31.064H598.978V20.216H596.978ZM597.978 32.064H625.626V30.064H597.978V32.064ZM624.626 31.064V35H626.626V31.064H624.626ZM625.626 34H594.042V36H625.626V34ZM595.042 35V1.448H593.042V35H595.042ZM594.042 2.448H625.626V0.447997H594.042V2.448ZM624.626 1.448V5.384H626.626V1.448H624.626ZM673.243 1.448L673.901 2.20057L675.904 0.447997H673.243V1.448ZM654.043 18.248L653.384 17.4954L652.523 18.2491L653.385 19.0015L654.043 18.248ZM673.243 35V36H675.91L673.9 34.2465L673.243 35ZM667.243 35L666.585 35.7534L666.868 36H667.243V35ZM651.019 20.84L651.676 20.0866L651.018 19.5118L650.36 20.0876L651.019 20.84ZM634.843 35V36H635.219L635.501 35.7524L634.843 35ZM628.843 35L628.185 34.2465L626.176 36H628.843V35ZM648.043 18.248L648.7 19.0015L649.563 18.2491L648.701 17.4954L648.043 18.248ZM628.843 1.448V0.447997H626.181L628.184 2.20057L628.843 1.448ZM634.843 1.448L635.501 0.695559L635.219 0.447997H634.843V1.448ZM651.019 15.608L650.36 16.3604L651.018 16.9362L651.676 16.3614L651.019 15.608ZM667.243 1.448V0.447997H666.868L666.585 0.694593L667.243 1.448ZM672.584 0.69542L653.384 17.4954L654.701 19.0006L673.901 2.20057L672.584 0.69542ZM653.385 19.0015L672.585 35.7535L673.9 34.2465L654.7 17.4945L653.385 19.0015ZM673.243 34H667.243V36H673.243V34ZM667.9 34.2466L651.676 20.0866L650.361 21.5934L666.585 35.7534L667.9 34.2466ZM650.36 20.0876L634.184 34.2476L635.501 35.7524L651.677 21.5924L650.36 20.0876ZM634.843 34H628.843V36H634.843V34ZM629.5 35.7535L648.7 19.0015L647.385 17.4945L628.185 34.2465L629.5 35.7535ZM648.701 17.4954L629.501 0.69542L628.184 2.20057L647.384 19.0006L648.701 17.4954ZM628.843 2.448H634.843V0.447997H628.843V2.448ZM634.184 2.20044L650.36 16.3604L651.677 14.8556L635.501 0.695559L634.184 2.20044ZM651.676 16.3614L667.9 2.2014L666.585 0.694593L650.361 14.8546L651.676 16.3614ZM667.243 2.448H673.243V0.447997H667.243V2.448ZM675.218 31.112V30.112H674.218V31.112H675.218ZM679.154 31.112H680.154V30.112H679.154V31.112ZM679.154 35.048L679.861 35.7551L680.154 35.4622V35.048H679.154ZM675.218 38.984H674.218V41.3982L675.925 39.6911L675.218 38.984ZM675.218 32.112H679.154V30.112H675.218V32.112ZM678.154 31.112V35.048H680.154V31.112H678.154ZM678.447 34.3409L674.511 38.2769L675.925 39.6911L679.861 35.7551L678.447 34.3409ZM676.218 38.984V31.112H674.218V38.984H676.218ZM40.296 47.448L40.8588 48.2746L43.5741 46.4257L40.2892 46.448L40.296 47.448ZM15.624 64.248L15.0612 63.4214L13.8456 64.2492L15.0623 65.0753L15.624 64.248ZM40.296 81L40.3029 82L43.5165 81.978L40.8577 80.1727L40.296 81ZM33.288 81.048L32.7245 81.8741L32.9825 82.0501L33.2949 82.048L33.288 81.048ZM11.544 66.216L12.1075 65.3899L11.8526 65.216H11.544V66.216ZM4.776 66.216V65.216H3.776V66.216H4.776ZM4.776 81.048V82.048H5.776V81.048H4.776ZM0.84 81.048H-0.16V82.048H0.84V81.048ZM0.84 47.448V46.448H-0.16V47.448H0.84ZM4.776 47.448H5.776V46.448H4.776V47.448ZM4.776 62.28H3.776V63.28H4.776V62.28ZM11.496 62.28V63.28H11.8038L12.0583 63.107L11.496 62.28ZM33.24 47.496L33.2332 46.496L32.9292 46.4981L32.6777 46.669L33.24 47.496ZM39.7332 46.6214L15.0612 63.4214L16.1868 65.0746L40.8588 48.2746L39.7332 46.6214ZM15.0623 65.0753L39.7343 81.8273L40.8577 80.1727L16.1857 63.4207L15.0623 65.0753ZM40.2892 80L33.2812 80.048L33.2949 82.048L40.3029 82L40.2892 80ZM33.8515 80.2219L12.1075 65.3899L10.9805 67.0421L32.7245 81.8741L33.8515 80.2219ZM11.544 65.216H4.776V67.216H11.544V65.216ZM3.776 66.216V81.048H5.776V66.216H3.776ZM4.776 80.048H0.84V82.048H4.776V80.048ZM1.84 81.048V47.448H-0.16V81.048H1.84ZM0.84 48.448H4.776V46.448H0.84V48.448ZM3.776 47.448V62.28H5.776V47.448H3.776ZM4.776 63.28H11.496V61.28H4.776V63.28ZM12.0583 63.107L33.8023 48.323L32.6777 46.669L10.9337 61.453L12.0583 63.107ZM33.2468 48.496L40.3028 48.448L40.2892 46.448L33.2332 46.496L33.2468 48.496ZM83.5294 52.728L82.5305 52.7756L82.5306 52.7779L83.5294 52.728ZM83.5294 75.768L82.5306 75.7181L82.5305 75.7197L83.5294 75.768ZM77.9614 81.288L77.9296 80.2885L77.9208 80.2888L77.9119 80.2892L77.9614 81.288ZM48.9694 81.288L49.0193 80.2892L49.0102 80.2888L49.0011 80.2885L48.9694 81.288ZM43.4014 75.768L44.4002 75.7197L44.3998 75.7118L43.4014 75.768ZM43.4014 52.728L44.3998 52.7842L44.4002 52.7756L43.4014 52.728ZM48.9694 47.16L49.0169 48.1589L49.0193 48.1588L48.9694 47.16ZM77.9614 47.16L77.9119 48.1588L77.9138 48.1589L77.9614 47.16ZM79.5934 75.576L80.5873 75.6864L80.5906 75.6567L80.5921 75.6269L79.5934 75.576ZM79.5934 52.92L80.5921 52.8688L80.5908 52.8446L80.5884 52.8205L79.5934 52.92ZM79.0174 51.672L78.3103 52.3791L78.3103 52.3791L79.0174 51.672ZM77.7694 51.096L77.8689 50.101L77.8394 50.098L77.8097 50.0968L77.7694 51.096ZM49.1134 51.096L49.073 50.0968L49.0379 50.0982L49.0029 50.1021L49.1134 51.096ZM47.8654 51.672L48.5725 52.3791L48.5725 52.3791L47.8654 51.672ZM47.3374 52.92L48.3361 52.9712L48.3374 52.9456V52.92H47.3374ZM47.3374 75.576H48.3374V75.5505L48.3361 75.5251L47.3374 75.576ZM49.1134 77.352L49.1638 76.3533L49.1386 76.352H49.1134V77.352ZM77.7694 77.352V76.352H77.7441L77.7189 76.3533L77.7694 77.352ZM82.5306 52.7779C82.913 60.4247 82.913 68.0713 82.5306 75.7181L84.5281 75.8179C84.9138 68.1047 84.9138 60.3913 84.5281 52.6781L82.5306 52.7779ZM82.5305 75.7197C82.411 78.1901 80.4177 80.2095 77.9296 80.2885L77.9931 82.2875C81.5531 82.1745 84.3597 79.2979 84.5282 75.8163L82.5305 75.7197ZM77.9119 80.2892C73.0834 80.5283 68.2522 80.624 63.4654 80.624V82.624C68.2785 82.624 73.1433 82.5277 78.0108 82.2868L77.9119 80.2892ZM63.4654 80.624C58.6303 80.624 53.7993 80.5282 49.0193 80.2892L48.9194 82.2868C53.7394 82.5278 58.6044 82.624 63.4654 82.624V80.624ZM49.0011 80.2885C46.5131 80.2095 44.5197 78.1901 44.4002 75.7197L42.4025 75.8163C42.571 79.2979 45.3776 82.1745 48.9376 82.2875L49.0011 80.2885ZM44.3998 75.7118C43.9699 68.0692 43.9699 60.4267 44.3998 52.7842L42.403 52.6718C41.9688 60.3892 41.9688 68.1067 42.403 75.8242L44.3998 75.7118ZM44.4002 52.7756C44.5197 50.2665 46.5078 48.2783 49.0169 48.1589L48.9218 46.1611C45.3829 46.3296 42.571 49.1415 42.4025 52.6804L44.4002 52.7756ZM49.0193 48.1588C53.7993 47.9197 58.6303 47.824 63.4654 47.824V45.824C58.6044 45.824 53.7394 45.9202 48.9194 46.1612L49.0193 48.1588ZM63.4654 47.824C68.2522 47.824 73.0834 47.9197 77.9119 48.1588L78.0108 46.1612C73.1433 45.9203 68.2785 45.824 63.4654 45.824V47.824ZM77.9138 48.1589C80.4229 48.2783 82.411 50.2665 82.5305 52.7756L84.5282 52.6804C84.3597 49.1415 81.5478 46.3296 78.0089 46.1611L77.9138 48.1589ZM80.5921 75.6269C80.9778 68.0571 80.9778 60.391 80.5921 52.8688L78.5947 52.9712C78.9769 60.425 78.9769 68.0229 78.5947 75.5251L80.5921 75.6269ZM80.5884 52.8205C80.5194 52.1306 80.2372 51.4776 79.7245 50.9649L78.3103 52.3791C78.4695 52.5384 78.5713 52.7494 78.5983 53.0195L80.5884 52.8205ZM79.7245 50.9649C79.2117 50.4522 78.5588 50.17 77.8689 50.101L77.6699 52.091C77.9399 52.118 78.151 52.2198 78.3103 52.3791L79.7245 50.9649ZM77.8097 50.0968C73.0517 49.9046 68.2366 49.76 63.4654 49.76V51.76C68.1981 51.76 72.9831 51.9034 77.729 52.0952L77.8097 50.0968ZM63.4654 49.76C58.6943 49.76 53.8313 49.9046 49.073 50.0968L49.1537 52.0952C53.8995 51.9034 58.7325 51.76 63.4654 51.76V49.76ZM49.0029 50.1021C48.3889 50.1703 47.6833 50.4398 47.1583 50.9649L48.5725 52.3791C48.7194 52.2322 48.9739 52.1177 49.2238 52.0899L49.0029 50.1021ZM47.1583 50.9649C46.6474 51.4758 46.3374 52.1574 46.3374 52.92H48.3374C48.3374 52.7226 48.4114 52.5402 48.5725 52.3791L47.1583 50.9649ZM46.3387 52.8688C45.9529 60.391 45.9529 68.0571 46.3387 75.6269L48.3361 75.5251C47.9538 68.0229 47.9538 60.425 48.3361 52.9712L46.3387 52.8688ZM46.3374 75.576C46.3374 76.2762 46.6369 77.0097 47.1583 77.5311L48.5725 76.1169C48.4219 75.9663 48.3374 75.7398 48.3374 75.576H46.3374ZM47.1583 77.5311C47.6797 78.0525 48.4131 78.352 49.1134 78.352V76.352C48.9496 76.352 48.7231 76.2675 48.5725 76.1169L47.1583 77.5311ZM49.0629 78.3507C53.8352 78.5917 58.7004 78.688 63.4654 78.688V76.688C58.7264 76.688 53.8956 76.5923 49.1638 76.3533L49.0629 78.3507ZM63.4654 78.688C68.2305 78.688 73.0477 78.5917 77.8198 78.3507L77.7189 76.3533C72.987 76.5923 68.2042 76.688 63.4654 76.688V78.688ZM77.7694 78.352C78.5319 78.352 79.2136 78.042 79.7245 77.5311L78.3103 76.1169C78.1492 76.278 77.9668 76.352 77.7694 76.352V78.352ZM79.7245 77.5311C80.2496 77.006 80.519 76.3005 80.5873 75.6864L78.5995 75.4656C78.5717 75.7155 78.4572 75.97 78.3103 76.1169L79.7245 77.5311ZM90.9326 47.448V46.448H89.9326V47.448H90.9326ZM118.533 47.448H119.533V46.448H118.533V47.448ZM118.533 51.384V52.384H119.533V51.384H118.533ZM94.8686 51.384V50.384H93.8686V51.384H94.8686ZM94.8686 81V82H95.8686V81H94.8686ZM90.9326 81H89.9326V82H90.9326V81ZM90.9326 48.448H118.533V46.448H90.9326V48.448ZM117.533 47.448V51.384H119.533V47.448H117.533ZM118.533 50.384H94.8686V52.384H118.533V50.384ZM93.8686 51.384V81H95.8686V51.384H93.8686ZM94.8686 80H90.9326V82H94.8686V80ZM91.9326 81V47.448H89.9326V81H91.9326ZM163.217 52.728L162.218 52.7756L162.218 52.7779L163.217 52.728ZM163.217 75.768L162.218 75.7181L162.218 75.7197L163.217 75.768ZM157.649 81.288L157.617 80.2885L157.608 80.2888L157.599 80.2892L157.649 81.288ZM128.657 81.288L128.707 80.2892L128.698 80.2888L128.689 80.2885L128.657 81.288ZM123.089 75.768L124.088 75.7197L124.087 75.7118L123.089 75.768ZM123.089 52.728L124.087 52.7842L124.088 52.7756L123.089 52.728ZM128.657 47.16L128.704 48.1589L128.707 48.1588L128.657 47.16ZM157.649 47.16L157.599 48.1588L157.601 48.1589L157.649 47.16ZM159.281 75.576L160.275 75.6864L160.278 75.6567L160.28 75.6269L159.281 75.576ZM159.281 52.92L160.28 52.8688L160.278 52.8446L160.276 52.8205L159.281 52.92ZM158.705 51.672L157.998 52.3791L157.998 52.3791L158.705 51.672ZM157.457 51.096L157.556 50.101L157.527 50.098L157.497 50.0968L157.457 51.096ZM128.801 51.096L128.761 50.0968L128.725 50.0982L128.69 50.1021L128.801 51.096ZM127.553 51.672L128.26 52.3791L128.26 52.3791L127.553 51.672ZM127.025 52.92L128.024 52.9712L128.025 52.9456V52.92H127.025ZM127.025 75.576H128.025V75.5505L128.024 75.5251L127.025 75.576ZM128.801 77.352L128.851 76.3533L128.826 76.352H128.801V77.352ZM157.457 77.352V76.352H157.432L157.406 76.3533L157.457 77.352ZM162.218 52.7779C162.6 60.4247 162.6 68.0713 162.218 75.7181L164.216 75.8179C164.601 68.1047 164.601 60.3913 164.216 52.6781L162.218 52.7779ZM162.218 75.7197C162.099 78.1901 160.105 80.2095 157.617 80.2885L157.681 82.2875C161.241 82.1745 164.047 79.2979 164.216 75.8163L162.218 75.7197ZM157.599 80.2892C152.771 80.5283 147.94 80.624 143.153 80.624V82.624C147.966 82.624 152.831 82.5277 157.698 82.2868L157.599 80.2892ZM143.153 80.624C138.318 80.624 133.487 80.5282 128.707 80.2892L128.607 82.2868C133.427 82.5278 138.292 82.624 143.153 82.624V80.624ZM128.689 80.2885C126.201 80.2095 124.207 78.1901 124.088 75.7197L122.09 75.8163C122.259 79.2979 125.065 82.1745 128.625 82.2875L128.689 80.2885ZM124.087 75.7118C123.657 68.0692 123.657 60.4267 124.087 52.7842L122.09 52.6718C121.656 60.3892 121.656 68.1067 122.09 75.8242L124.087 75.7118ZM124.088 52.7756C124.207 50.2665 126.195 48.2783 128.704 48.1589L128.609 46.1611C125.07 46.3296 122.259 49.1415 122.09 52.6804L124.088 52.7756ZM128.707 48.1588C133.487 47.9197 138.318 47.824 143.153 47.824V45.824C138.292 45.824 133.427 45.9202 128.607 46.1612L128.707 48.1588ZM143.153 47.824C147.94 47.824 152.771 47.9197 157.599 48.1588L157.698 46.1612C152.831 45.9203 147.966 45.824 143.153 45.824V47.824ZM157.601 48.1589C160.11 48.2783 162.099 50.2665 162.218 52.7756L164.216 52.6804C164.047 49.1415 161.235 46.3296 157.696 46.1611L157.601 48.1589ZM160.28 75.6269C160.665 68.0571 160.665 60.391 160.28 52.8688L158.282 52.9712C158.664 60.425 158.664 68.0229 158.282 75.5251L160.28 75.6269ZM160.276 52.8205C160.207 52.1306 159.925 51.4776 159.412 50.9649L157.998 52.3791C158.157 52.5384 158.259 52.7494 158.286 53.0195L160.276 52.8205ZM159.412 50.9649C158.899 50.4522 158.246 50.17 157.556 50.101L157.357 52.091C157.627 52.118 157.839 52.2198 157.998 52.3791L159.412 50.9649ZM157.497 50.0968C152.739 49.9046 147.924 49.76 143.153 49.76V51.76C147.886 51.76 152.671 51.9034 157.417 52.0952L157.497 50.0968ZM143.153 49.76C138.382 49.76 133.519 49.9046 128.761 50.0968L128.841 52.0952C133.587 51.9034 138.42 51.76 143.153 51.76V49.76ZM128.69 50.1021C128.076 50.1703 127.371 50.4398 126.846 50.9649L128.26 52.3791C128.407 52.2322 128.661 52.1177 128.911 52.0899L128.69 50.1021ZM126.846 50.9649C126.335 51.4758 126.025 52.1574 126.025 52.92H128.025C128.025 52.7226 128.099 52.5402 128.26 52.3791L126.846 50.9649ZM126.026 52.8688C125.64 60.391 125.64 68.0571 126.026 75.6269L128.024 75.5251C127.641 68.0229 127.641 60.425 128.024 52.9712L126.026 52.8688ZM126.025 75.576C126.025 76.2762 126.324 77.0097 126.846 77.5311L128.26 76.1169C128.109 75.9663 128.025 75.7398 128.025 75.576H126.025ZM126.846 77.5311C127.367 78.0525 128.101 78.352 128.801 78.352V76.352C128.637 76.352 128.411 76.2675 128.26 76.1169L126.846 77.5311ZM128.75 78.3507C133.523 78.5917 138.388 78.688 143.153 78.688V76.688C138.414 76.688 133.583 76.5923 128.851 76.3533L128.75 78.3507ZM143.153 78.688C147.918 78.688 152.735 78.5917 157.507 78.3507L157.406 76.3533C152.675 76.5923 147.892 76.688 143.153 76.688V78.688ZM157.457 78.352C158.219 78.352 158.901 78.042 159.412 77.5311L157.998 76.1169C157.837 76.278 157.654 76.352 157.457 76.352V78.352ZM159.412 77.5311C159.937 77.006 160.207 76.3005 160.275 75.6864L158.287 75.4656C158.259 75.7155 158.145 75.97 157.998 76.1169L159.412 77.5311ZM230.633 58.632L231.632 58.6677L231.633 58.6499V58.632H230.633ZM229.193 62.184L228.45 61.515L227.848 62.184L228.45 62.853L229.193 62.184ZM230.633 65.784H231.633V65.7668L231.632 65.7495L230.633 65.784ZM230.633 75.768L231.632 75.8163L231.633 75.7922V75.768H230.633ZM225.065 81.288L225.033 80.2885L225.024 80.2888L225.015 80.2892L225.065 81.288ZM196.217 81.288L196.266 80.2892L196.258 80.2888L196.249 80.2885L196.217 81.288ZM190.649 75.768L189.65 75.8134L189.65 75.8163L190.649 75.768ZM190.553 72.648V71.648H189.553V72.648H190.553ZM194.489 72.648L195.488 72.5981L195.44 71.648H194.489V72.648ZM194.633 75.576H195.633V75.5285L195.628 75.4812L194.633 75.576ZM196.409 77.352L196.459 76.3533L196.434 76.352H196.409V77.352ZM224.873 77.352V76.352H224.848L224.822 76.3533L224.873 77.352ZM226.169 76.824L225.462 76.1169L225.462 76.1169L226.169 76.824ZM226.169 64.728L225.462 65.4351L225.462 65.4351L226.169 64.728ZM224.873 64.2V63.2L224.871 63.2L224.873 64.2ZM203.465 64.248H202.465V65.2502L203.467 65.248L203.465 64.248ZM203.465 60.216V59.216H202.465V60.216H203.465ZM226.121 59.688L226.828 60.3951L226.828 60.3951L226.121 59.688ZM226.169 51.672L225.462 52.3791L225.462 52.3791L226.169 51.672ZM224.873 51.096L224.972 50.101L224.943 50.098L224.913 50.0968L224.873 51.096ZM196.409 51.096L196.369 50.0968L196.339 50.098L196.309 50.101L196.409 51.096ZM195.161 51.672L195.868 52.3791L195.868 52.3791L195.161 51.672ZM194.633 52.92L195.628 53.0195L195.633 52.9699V52.92H194.633ZM194.489 55.848V56.848H195.442L195.488 55.8956L194.489 55.848ZM190.553 55.848H189.553V56.848H190.553V55.848ZM190.649 52.728L191.648 52.7756L191.648 52.7756L190.649 52.728ZM196.217 47.16L196.265 48.1588L196.266 48.1588L196.217 47.16ZM225.065 47.16L225.015 48.1588L225.017 48.1589L225.065 47.16ZM230.633 52.728H231.633V52.7042L231.632 52.6804L230.633 52.728ZM229.634 58.5963C229.594 59.6989 229.161 60.7244 228.45 61.515L229.936 62.853C230.953 61.7236 231.576 60.2531 231.632 58.6677L229.634 58.5963ZM228.45 62.853C229.158 63.6402 229.594 64.6643 229.633 65.8185L231.632 65.7495C231.576 64.1197 230.956 62.6478 229.936 61.515L228.45 62.853ZM229.633 65.784V75.768H231.633V65.784H229.633ZM229.634 75.7197C229.515 78.1901 227.521 80.2095 225.033 80.2885L225.097 82.2875C228.657 82.1745 231.463 79.2979 231.632 75.8163L229.634 75.7197ZM225.015 80.2892C220.186 80.5283 215.547 80.624 210.761 80.624V82.624C215.575 82.624 220.247 82.5277 225.114 82.2868L225.015 80.2892ZM210.761 80.624C205.926 80.624 201.095 80.5283 196.266 80.2892L196.167 82.2868C201.035 82.5277 205.9 82.624 210.761 82.624V80.624ZM196.249 80.2885C193.803 80.2096 191.767 78.1844 191.648 75.7197L189.65 75.8163C189.819 79.3036 192.679 82.1744 196.185 82.2875L196.249 80.2885ZM191.648 75.7226C191.6 74.662 191.553 73.6292 191.553 72.648H189.553C189.553 73.6828 189.602 74.762 189.65 75.8134L191.648 75.7226ZM190.553 73.648H194.489V71.648H190.553V73.648ZM193.49 72.6979C193.535 73.5886 193.539 74.6379 193.637 75.6708L195.628 75.4812C195.535 74.4981 195.539 73.6274 195.488 72.5981L193.49 72.6979ZM193.633 75.576C193.633 76.2762 193.932 77.0097 194.454 77.5311L195.868 76.1169C195.717 75.9663 195.633 75.7398 195.633 75.576H193.633ZM194.454 77.5311C194.965 78.042 195.646 78.352 196.409 78.352V76.352C196.211 76.352 196.029 76.278 195.868 76.1169L194.454 77.5311ZM196.358 78.3507C201.131 78.5917 205.996 78.688 210.761 78.688V76.688C206.022 76.688 201.191 76.5923 196.459 76.3533L196.358 78.3507ZM210.761 78.688C215.527 78.688 220.152 78.5917 224.923 78.3507L224.822 76.3533C220.09 76.5923 215.499 76.688 210.761 76.688V78.688ZM224.873 78.352C225.607 78.352 226.345 78.0623 226.876 77.5311L225.462 76.1169C225.321 76.2577 225.099 76.352 224.873 76.352V78.352ZM226.876 77.5311C227.397 77.0097 227.697 76.2762 227.697 75.576H225.697C225.697 75.7398 225.612 75.9663 225.462 76.1169L226.876 77.5311ZM227.697 75.576V65.976H225.697V75.576H227.697ZM227.697 65.976C227.697 65.2134 227.387 64.5318 226.876 64.0209L225.462 65.4351C225.623 65.5962 225.697 65.7785 225.697 65.976H227.697ZM226.876 64.0209C226.345 63.4897 225.607 63.2 224.873 63.2V65.2C225.099 65.2 225.321 65.2943 225.462 65.4351L226.876 64.0209ZM224.871 63.2L203.463 63.248L203.467 65.248L224.875 65.2L224.871 63.2ZM204.465 64.248V60.216H202.465V64.248H204.465ZM203.465 61.216H224.873V59.216H203.465V61.216ZM224.873 61.216C225.635 61.216 226.317 60.906 226.828 60.3951L225.414 58.9809C225.253 59.142 225.07 59.216 224.873 59.216V61.216ZM226.828 60.3951C227.287 59.9366 227.697 59.2648 227.697 58.44H225.697C225.697 58.5752 225.627 58.7674 225.414 58.9809L226.828 60.3951ZM227.697 58.44V52.92H225.697V58.44H227.697ZM227.697 52.92C227.697 52.1574 227.387 51.4758 226.876 50.9649L225.462 52.3791C225.623 52.5402 225.697 52.7225 225.697 52.92H227.697ZM226.876 50.9649C226.344 50.4329 225.631 50.1669 224.972 50.101L224.773 52.091C225.074 52.1211 225.322 52.2391 225.462 52.3791L226.876 50.9649ZM224.913 50.0968C220.156 49.9046 215.533 49.76 210.761 49.76V51.76C215.493 51.76 220.086 51.9034 224.833 52.0952L224.913 50.0968ZM210.761 49.76C205.99 49.76 201.127 49.9046 196.369 50.0968L196.449 52.0952C201.195 51.9034 206.028 51.76 210.761 51.76V49.76ZM196.309 50.101C195.619 50.17 194.967 50.4522 194.454 50.9649L195.868 52.3791C196.027 52.2198 196.238 52.118 196.508 52.091L196.309 50.101ZM194.454 50.9649C193.943 51.4758 193.633 52.1574 193.633 52.92H195.633C195.633 52.7226 195.707 52.5402 195.868 52.3791L194.454 50.9649ZM193.638 52.8205C193.539 53.8122 193.535 54.8581 193.49 55.8004L195.488 55.8956C195.539 54.8219 195.535 53.9478 195.628 53.0195L193.638 52.8205ZM194.489 54.848H190.553V56.848H194.489V54.848ZM191.553 55.848C191.553 54.8189 191.6 53.7851 191.648 52.7756L189.65 52.6804C189.602 53.6869 189.553 54.7651 189.553 55.848H191.553ZM191.648 52.7756C191.767 50.2722 193.798 48.2782 196.265 48.1588L196.169 46.1612C192.684 46.3298 189.819 49.1358 189.65 52.6804L191.648 52.7756ZM196.266 48.1588C201.095 47.9197 205.926 47.824 210.761 47.824V45.824C205.9 45.824 201.035 45.9203 196.167 46.1612L196.266 48.1588ZM210.761 47.824C215.547 47.824 220.186 47.9197 225.015 48.1588L225.114 46.1612C220.247 45.9203 215.575 45.824 210.761 45.824V47.824ZM225.017 48.1589C227.526 48.2783 229.515 50.2665 229.634 52.7756L231.632 52.6804C231.463 49.1415 228.651 46.3296 225.112 46.1611L225.017 48.1589ZM229.633 52.728V58.632H231.633V52.728H229.633ZM258.346 47.448L259.255 47.0317L258.988 46.448H258.346V47.448ZM273.706 81V82H275.264L274.615 80.5837L273.706 81ZM269.386 81L268.478 81.4179L268.745 82H269.386V81ZM266.074 73.8L266.983 73.3821L266.715 72.8H266.074V73.8ZM241.882 73.8V72.8H241.241L240.974 73.3821L241.882 73.8ZM238.57 81V82H239.211L239.479 81.4179L238.57 81ZM234.25 81L233.341 80.5837L232.693 82H234.25V81ZM249.61 47.448V46.448H248.968L248.701 47.0317L249.61 47.448ZM243.706 69.816L242.797 69.3993L242.148 70.816H243.706V69.816ZM264.25 69.816V70.816H265.808L265.159 69.3993L264.25 69.816ZM255.802 51.384L256.711 50.9673L256.444 50.384H255.802V51.384ZM252.154 51.384V50.384H251.512L251.245 50.9673L252.154 51.384ZM257.437 47.8642L272.797 81.4163L274.615 80.5837L259.255 47.0317L257.437 47.8642ZM273.706 80H269.386V82H273.706V80ZM270.295 80.5821L266.983 73.3821L265.166 74.2179L268.478 81.4179L270.295 80.5821ZM266.074 72.8H241.882V74.8H266.074V72.8ZM240.974 73.3821L237.662 80.5821L239.479 81.4179L242.791 74.2179L240.974 73.3821ZM238.57 80H234.25V82H238.57V80ZM235.159 81.4163L250.519 47.8642L248.701 47.0317L233.341 80.5837L235.159 81.4163ZM249.61 48.448H258.346V46.448H249.61V48.448ZM243.706 70.816H264.25V68.816H243.706V70.816ZM265.159 69.3993L256.711 50.9673L254.893 51.8007L263.341 70.2327L265.159 69.3993ZM255.802 50.384H252.154V52.384H255.802V50.384ZM251.245 50.9673L242.797 69.3993L244.615 70.2327L253.063 51.8007L251.245 50.9673ZM278.198 47.448V46.448H277.198V47.448H278.198ZM317.654 47.448H318.654V46.448H317.654V47.448ZM317.654 81V82H318.654V81H317.654ZM313.718 81H312.718V82H313.718V81ZM313.718 51.384H314.718V50.384H313.718V51.384ZM282.134 51.384V50.384H281.134V51.384H282.134ZM282.134 81V82H283.134V81H282.134ZM278.198 81H277.198V82H278.198V81ZM278.198 48.448H317.654V46.448H278.198V48.448ZM316.654 47.448V81H318.654V47.448H316.654ZM317.654 80H313.718V82H317.654V80ZM314.718 81V51.384H312.718V81H314.718ZM313.718 50.384H282.134V52.384H313.718V50.384ZM281.134 51.384V81H283.134V51.384H281.134ZM282.134 80H278.198V82H282.134V80ZM279.198 81V51.384H277.198V81H279.198ZM279.198 51.384V47.448H277.198V51.384H279.198ZM364.764 53.016H365.764V52.9922L365.762 52.9684L364.764 53.016ZM364.764 62.664L365.762 62.7116L365.764 62.6878V62.664H364.764ZM359.196 68.232V69.232H359.219L359.243 69.2309L359.196 68.232ZM329.244 68.232V67.232H328.244V68.232H329.244ZM329.244 81V82H330.244V81H329.244ZM325.308 81H324.308V82H325.308V81ZM325.308 47.448V46.448H324.308V47.448H325.308ZM359.244 47.448L359.292 46.4492L359.268 46.448H359.244V47.448ZM360.3 63.72L359.593 63.0129L359.593 63.0129L360.3 63.72ZM360.3 51.96L359.593 52.6671L359.593 52.6671L360.3 51.96ZM359.052 51.384L359.162 50.3901L359.107 50.384H359.052V51.384ZM329.244 51.384V50.384H328.244V51.384H329.244ZM329.244 64.248H328.244V65.2464L329.242 65.248L329.244 64.248ZM359.004 64.296L359.002 65.296L359.053 65.2961L359.103 65.291L359.004 64.296ZM363.764 53.016V62.664H365.764V53.016H363.764ZM363.765 62.6164C363.645 65.1255 361.657 67.1136 359.148 67.2331L359.243 69.2309C362.782 69.0623 365.594 66.2505 365.762 62.7116L363.765 62.6164ZM359.196 67.232H329.244V69.232H359.196V67.232ZM328.244 68.232V81H330.244V68.232H328.244ZM329.244 80H325.308V82H329.244V80ZM326.308 81V47.448H324.308V81H326.308ZM325.308 48.448H359.244V46.448H325.308V48.448ZM359.195 48.4468C361.652 48.5657 363.645 50.5494 363.765 53.0636L365.762 52.9684C365.594 49.4346 362.787 46.6183 359.292 46.4492L359.195 48.4468ZM361.007 64.4271C361.518 63.9162 361.828 63.2346 361.828 62.472H359.828C359.828 62.6694 359.754 62.8518 359.593 63.0129L361.007 64.4271ZM361.828 62.472V53.208H359.828V62.472H361.828ZM361.828 53.208C361.828 52.4454 361.518 51.7638 361.007 51.2529L359.593 52.6671C359.754 52.8282 359.828 53.0106 359.828 53.208H361.828ZM361.007 51.2529C360.482 50.7278 359.776 50.4583 359.162 50.3901L358.941 52.3779C359.191 52.4057 359.446 52.5202 359.593 52.6671L361.007 51.2529ZM359.052 50.384H329.244V52.384H359.052V50.384ZM328.244 51.384V64.248H330.244V51.384H328.244ZM329.242 65.248L359.002 65.296L359.005 63.296L329.245 63.248L329.242 65.248ZM359.103 65.291C359.762 65.2251 360.475 64.9591 361.007 64.4271L359.593 63.0129C359.453 63.1529 359.205 63.2709 358.904 63.301L359.103 65.291ZM410.998 52.728L409.999 52.7756L409.999 52.7779L410.998 52.728ZM410.998 75.768L409.999 75.7181L409.999 75.7197L410.998 75.768ZM405.43 81.288L405.398 80.2885L405.39 80.2888L405.381 80.2892L405.43 81.288ZM376.438 81.288L376.488 80.2892L376.479 80.2888L376.47 80.2885L376.438 81.288ZM370.87 75.768L371.869 75.7197L371.869 75.7118L370.87 75.768ZM370.87 52.728L371.869 52.7842L371.869 52.7756L370.87 52.728ZM376.438 47.16L376.486 48.1589L376.488 48.1588L376.438 47.16ZM405.43 47.16L405.381 48.1588L405.383 48.1589L405.43 47.16ZM407.062 75.576L408.056 75.6864L408.059 75.6567L408.061 75.6269L407.062 75.576ZM407.062 52.92L408.061 52.8688L408.06 52.8446L408.057 52.8205L407.062 52.92ZM406.486 51.672L405.779 52.3791L405.779 52.3791L406.486 51.672ZM405.238 51.096L405.338 50.101L405.308 50.098L405.278 50.0968L405.238 51.096ZM376.582 51.096L376.542 50.0968L376.507 50.0982L376.472 50.1021L376.582 51.096ZM375.334 51.672L376.041 52.3791L376.041 52.3791L375.334 51.672ZM374.806 52.92L375.805 52.9712L375.806 52.9456V52.92H374.806ZM374.806 75.576H375.806V75.5505L375.805 75.5251L374.806 75.576ZM376.582 77.352L376.633 76.3533L376.607 76.352H376.582V77.352ZM405.238 77.352V76.352H405.213L405.188 76.3533L405.238 77.352ZM409.999 52.7779C410.382 60.4247 410.382 68.0713 409.999 75.7181L411.997 75.8179C412.383 68.1047 412.383 60.3913 411.997 52.6781L409.999 52.7779ZM409.999 75.7197C409.88 78.1901 407.886 80.2095 405.398 80.2885L405.462 82.2875C409.022 82.1745 411.828 79.2979 411.997 75.8163L409.999 75.7197ZM405.381 80.2892C400.552 80.5283 395.721 80.624 390.934 80.624V82.624C395.747 82.624 400.612 82.5277 405.48 82.2868L405.381 80.2892ZM390.934 80.624C386.099 80.624 381.268 80.5282 376.488 80.2892L376.388 82.2868C381.208 82.5278 386.073 82.624 390.934 82.624V80.624ZM376.47 80.2885C373.982 80.2095 371.988 78.1901 371.869 75.7197L369.871 75.8163C370.04 79.2979 372.846 82.1745 376.406 82.2875L376.47 80.2885ZM371.869 75.7118C371.439 68.0692 371.439 60.4267 371.869 52.7842L369.872 52.6718C369.438 60.3892 369.438 68.1067 369.872 75.8242L371.869 75.7118ZM371.869 52.7756C371.988 50.2665 373.977 48.2783 376.486 48.1589L376.391 46.1611C372.852 46.3296 370.04 49.1415 369.871 52.6804L371.869 52.7756ZM376.488 48.1588C381.268 47.9197 386.099 47.824 390.934 47.824V45.824C386.073 45.824 381.208 45.9202 376.388 46.1612L376.488 48.1588ZM390.934 47.824C395.721 47.824 400.552 47.9197 405.381 48.1588L405.48 46.1612C400.612 45.9203 395.747 45.824 390.934 45.824V47.824ZM405.383 48.1589C407.892 48.2783 409.88 50.2665 409.999 52.7756L411.997 52.6804C411.828 49.1415 409.017 46.3296 405.478 46.1611L405.383 48.1589ZM408.061 75.6269C408.447 68.0571 408.447 60.391 408.061 52.8688L406.063 52.9712C406.446 60.425 406.446 68.0229 406.063 75.5251L408.061 75.6269ZM408.057 52.8205C407.988 52.1306 407.706 51.4776 407.193 50.9649L405.779 52.3791C405.938 52.5384 406.04 52.7494 406.067 53.0195L408.057 52.8205ZM407.193 50.9649C406.68 50.4522 406.028 50.17 405.338 50.101L405.139 52.091C405.409 52.118 405.62 52.2198 405.779 52.3791L407.193 50.9649ZM405.278 50.0968C400.52 49.9046 395.705 49.76 390.934 49.76V51.76C395.667 51.76 400.452 51.9034 405.198 52.0952L405.278 50.0968ZM390.934 49.76C386.163 49.76 381.3 49.9046 376.542 50.0968L376.622 52.0952C381.368 51.9034 386.201 51.76 390.934 51.76V49.76ZM376.472 50.1021C375.858 50.1703 375.152 50.4398 374.627 50.9649L376.041 52.3791C376.188 52.2322 376.443 52.1177 376.693 52.0899L376.472 50.1021ZM374.627 50.9649C374.116 51.4758 373.806 52.1574 373.806 52.92H375.806C375.806 52.7226 375.88 52.5402 376.041 52.3791L374.627 50.9649ZM373.807 52.8688C373.422 60.391 373.422 68.0571 373.807 75.6269L375.805 75.5251C375.423 68.0229 375.423 60.425 375.805 52.9712L373.807 52.8688ZM373.806 75.576C373.806 76.2762 374.106 77.0097 374.627 77.5311L376.041 76.1169C375.891 75.9663 375.806 75.7398 375.806 75.576H373.806ZM374.627 77.5311C375.148 78.0525 375.882 78.352 376.582 78.352V76.352C376.418 76.352 376.192 76.2675 376.041 76.1169L374.627 77.5311ZM376.532 78.3507C381.304 78.5917 386.169 78.688 390.934 78.688V76.688C386.195 76.688 381.364 76.5923 376.633 76.3533L376.532 78.3507ZM390.934 78.688C395.699 78.688 400.516 78.5917 405.289 78.3507L405.188 76.3533C400.456 76.5923 395.673 76.688 390.934 76.688V78.688ZM405.238 78.352C406.001 78.352 406.682 78.042 407.193 77.5311L405.779 76.1169C405.618 76.278 405.436 76.352 405.238 76.352V78.352ZM407.193 77.5311C407.718 77.006 407.988 76.3005 408.056 75.6864L406.068 75.4656C406.04 75.7155 405.926 75.97 405.779 76.1169L407.193 77.5311ZM418.401 47.448V46.448H417.401V47.448H418.401ZM446.001 47.448H447.001V46.448H446.001V47.448ZM446.001 51.384V52.384H447.001V51.384H446.001ZM422.337 51.384V50.384H421.337V51.384H422.337ZM422.337 81V82H423.337V81H422.337ZM418.401 81H417.401V82H418.401V81ZM418.401 48.448H446.001V46.448H418.401V48.448ZM445.001 47.448V51.384H447.001V47.448H445.001ZM446.001 50.384H422.337V52.384H446.001V50.384ZM421.337 51.384V81H423.337V51.384H421.337ZM422.337 80H418.401V82H422.337V80ZM419.401 81V47.448H417.401V81H419.401ZM490.014 53.016H491.014V52.9922L491.012 52.9684L490.014 53.016ZM490.014 62.664L491.012 62.7116L491.014 62.6878V62.664H490.014ZM484.446 68.232V69.232H484.469L484.493 69.2309L484.446 68.232ZM454.494 68.232V67.232H453.494V68.232H454.494ZM454.494 81V82H455.494V81H454.494ZM450.558 81H449.558V82H450.558V81ZM450.558 47.448V46.448H449.558V47.448H450.558ZM484.494 47.448L484.542 46.4492L484.518 46.448H484.494V47.448ZM485.55 63.72L484.843 63.0129L484.843 63.0129L485.55 63.72ZM485.55 51.96L484.843 52.6671L484.843 52.6671L485.55 51.96ZM484.302 51.384L484.412 50.3901L484.357 50.384H484.302V51.384ZM454.494 51.384V50.384H453.494V51.384H454.494ZM454.494 64.248H453.494V65.2464L454.492 65.248L454.494 64.248ZM484.254 64.296L484.252 65.296L484.303 65.2961L484.353 65.291L484.254 64.296ZM489.014 53.016V62.664H491.014V53.016H489.014ZM489.015 62.6164C488.895 65.1255 486.907 67.1136 484.398 67.2331L484.493 69.2309C488.032 69.0623 490.844 66.2505 491.012 62.7116L489.015 62.6164ZM484.446 67.232H454.494V69.232H484.446V67.232ZM453.494 68.232V81H455.494V68.232H453.494ZM454.494 80H450.558V82H454.494V80ZM451.558 81V47.448H449.558V81H451.558ZM450.558 48.448H484.494V46.448H450.558V48.448ZM484.445 48.4468C486.902 48.5657 488.895 50.5494 489.015 53.0636L491.012 52.9684C490.844 49.4346 488.037 46.6183 484.542 46.4492L484.445 48.4468ZM486.257 64.4271C486.768 63.9162 487.078 63.2346 487.078 62.472H485.078C485.078 62.6694 485.004 62.8518 484.843 63.0129L486.257 64.4271ZM487.078 62.472V53.208H485.078V62.472H487.078ZM487.078 53.208C487.078 52.4454 486.768 51.7638 486.257 51.2529L484.843 52.6671C485.004 52.8282 485.078 53.0106 485.078 53.208H487.078ZM486.257 51.2529C485.732 50.7278 485.026 50.4583 484.412 50.3901L484.191 52.3779C484.441 52.4057 484.696 52.5202 484.843 52.6671L486.257 51.2529ZM484.302 50.384H454.494V52.384H484.302V50.384ZM453.494 51.384V64.248H455.494V51.384H453.494ZM454.492 65.248L484.252 65.296L484.255 63.296L454.495 63.248L454.492 65.248ZM484.353 65.291C485.012 65.2251 485.725 64.9591 486.257 64.4271L484.843 63.0129C484.703 63.1529 484.455 63.2709 484.154 63.301L484.353 65.291ZM513.487 47.448L514.396 47.0317L514.129 46.448H513.487V47.448ZM528.847 81V82H530.404L529.756 80.5837L528.847 81ZM524.527 81L523.618 81.4179L523.886 82H524.527V81ZM521.215 73.8L522.123 73.3821L521.855 72.8H521.215V73.8ZM497.023 73.8V72.8H496.382L496.114 73.3821L497.023 73.8ZM493.711 81V82H494.351L494.619 81.4179L493.711 81ZM489.391 81L488.482 80.5837L487.833 82H489.391V81ZM504.751 47.448V46.448H504.109L503.842 47.0317L504.751 47.448ZM498.847 69.816L497.938 69.3993L497.288 70.816H498.847V69.816ZM519.391 69.816V70.816H520.949L520.3 69.3993L519.391 69.816ZM510.943 51.384L511.852 50.9673L511.584 50.384H510.943V51.384ZM507.295 51.384V50.384H506.653L506.386 50.9673L507.295 51.384ZM512.578 47.8642L527.938 81.4163L529.756 80.5837L514.396 47.0317L512.578 47.8642ZM528.847 80H524.527V82H528.847V80ZM525.435 80.5821L522.123 73.3821L520.306 74.2179L523.618 81.4179L525.435 80.5821ZM521.215 72.8H497.023V74.8H521.215V72.8ZM496.114 73.3821L492.802 80.5821L494.619 81.4179L497.931 74.2179L496.114 73.3821ZM493.711 80H489.391V82H493.711V80ZM490.3 81.4163L505.66 47.8642L503.842 47.0317L488.482 80.5837L490.3 81.4163ZM504.751 48.448H513.487V46.448H504.751V48.448ZM498.847 70.816H519.391V68.816H498.847V70.816ZM520.3 69.3993L511.852 50.9673L510.034 51.8007L518.482 70.2327L520.3 69.3993ZM510.943 50.384H507.295V52.384H510.943V50.384ZM506.386 50.9673L497.938 69.3993L499.756 70.2327L508.204 51.8007L506.386 50.9673ZM570.731 47.448V46.448H570.128L569.847 46.9809L570.731 47.448ZM577.739 47.448H578.739V46.448H577.739V47.448ZM577.739 81V82H578.739V81H577.739ZM573.803 81H572.803V82H573.803V81ZM573.803 51.384H574.803V50.384H573.803V51.384ZM573.131 51.384V50.384H572.528L572.247 50.9168L573.131 51.384ZM557.483 81V82H558.086L558.367 81.4672L557.483 81ZM553.595 81L552.711 81.4672L552.992 82H553.595V81ZM537.947 51.384L538.831 50.9168L538.55 50.384H537.947V51.384ZM537.275 51.384V50.384H536.275V51.384H537.275ZM537.275 81V82H538.275V81H537.275ZM533.339 81H532.339V82H533.339V81ZM533.339 47.448V46.448H532.339V47.448H533.339ZM540.299 47.448L541.183 46.9809L540.902 46.448H540.299V47.448ZM555.515 76.248L554.631 76.7151L555.515 78.3887L556.399 76.7151L555.515 76.248ZM570.731 48.448H577.739V46.448H570.731V48.448ZM576.739 47.448V81H578.739V47.448H576.739ZM577.739 80H573.803V82H577.739V80ZM574.803 81V51.384H572.803V81H574.803ZM573.803 50.384H573.131V52.384H573.803V50.384ZM572.247 50.9168L556.599 80.5328L558.367 81.4672L574.015 51.8512L572.247 50.9168ZM557.483 80H553.595V82H557.483V80ZM554.479 80.5328L538.831 50.9168L537.063 51.8512L552.711 81.4672L554.479 80.5328ZM537.947 50.384H537.275V52.384H537.947V50.384ZM536.275 51.384V81H538.275V51.384H536.275ZM537.275 80H533.339V82H537.275V80ZM534.339 81V47.448H532.339V81H534.339ZM533.339 48.448H540.299V46.448H533.339V48.448ZM539.415 47.9151L554.631 76.7151L556.399 75.7809L541.183 46.9809L539.415 47.9151ZM556.399 76.7151L571.615 47.9151L569.847 46.9809L554.631 75.7809L556.399 76.7151ZM622.762 47.448V46.448H622.159L621.878 46.9809L622.762 47.448ZM629.77 47.448H630.77V46.448H629.77V47.448ZM629.77 81V82H630.77V81H629.77ZM625.834 81H624.834V82H625.834V81ZM625.834 51.384H626.834V50.384H625.834V51.384ZM625.162 51.384V50.384H624.559L624.278 50.9168L625.162 51.384ZM609.514 81V82H610.117L610.398 81.4672L609.514 81ZM605.626 81L604.742 81.4672L605.023 82H605.626V81ZM589.978 51.384L590.862 50.9168L590.581 50.384H589.978V51.384ZM589.306 51.384V50.384H588.306V51.384H589.306ZM589.306 81V82H590.306V81H589.306ZM585.37 81H584.37V82H585.37V81ZM585.37 47.448V46.448H584.37V47.448H585.37ZM592.33 47.448L593.214 46.9809L592.933 46.448H592.33V47.448ZM607.546 76.248L606.662 76.7151L607.546 78.3887L608.43 76.7151L607.546 76.248ZM622.762 48.448H629.77V46.448H622.762V48.448ZM628.77 47.448V81H630.77V47.448H628.77ZM629.77 80H625.834V82H629.77V80ZM626.834 81V51.384H624.834V81H626.834ZM625.834 50.384H625.162V52.384H625.834V50.384ZM624.278 50.9168L608.63 80.5328L610.398 81.4672L626.046 51.8512L624.278 50.9168ZM609.514 80H605.626V82H609.514V80ZM606.51 80.5328L590.862 50.9168L589.094 51.8512L604.742 81.4672L606.51 80.5328ZM589.978 50.384H589.306V52.384H589.978V50.384ZM588.306 51.384V81H590.306V51.384H588.306ZM589.306 80H585.37V82H589.306V80ZM586.37 81V47.448H584.37V81H586.37ZM585.37 48.448H592.33V46.448H585.37V48.448ZM591.446 47.9151L606.662 76.7151L608.43 75.7809L593.214 46.9809L591.446 47.9151ZM608.43 76.7151L623.646 47.9151L621.878 46.9809L606.662 75.7809L608.43 76.7151ZM669.897 47.448V46.448H669.459L669.162 46.7707L669.897 47.448ZM676.857 47.448H677.857V46.448H676.857V47.448ZM676.857 81V82H677.857V81H676.857ZM672.921 81H671.921V82H672.921V81ZM672.921 51.384H673.921V50.384H672.921V51.384ZM671.817 51.384V50.384H671.381L671.084 50.7041L671.817 51.384ZM644.361 81V82H644.798L645.095 81.6799L644.361 81ZM637.401 81H636.401V82H637.401V81ZM637.401 47.448V46.448H636.401V47.448H637.401ZM641.337 47.448H642.337V46.448H641.337V47.448ZM641.337 77.064H640.337V78.064H641.337V77.064ZM642.633 77.064V78.064H643.072L643.369 77.7413L642.633 77.064ZM669.897 48.448H676.857V46.448H669.897V48.448ZM675.857 47.448V81H677.857V47.448H675.857ZM676.857 80H672.921V82H676.857V80ZM673.921 81V51.384H671.921V81H673.921ZM672.921 50.384H671.817V52.384H672.921V50.384ZM671.084 50.7041L643.628 80.3201L645.095 81.6799L672.551 52.0639L671.084 50.7041ZM644.361 80H637.401V82H644.361V80ZM638.401 81V47.448H636.401V81H638.401ZM637.401 48.448H641.337V46.448H637.401V48.448ZM640.337 47.448V77.064H642.337V47.448H640.337ZM641.337 78.064H642.633V76.064H641.337V78.064ZM643.369 77.7413L670.633 48.1253L669.162 46.7707L641.898 76.3867L643.369 77.7413ZM723.967 53.016H724.967V52.9922L724.966 52.9684L723.967 53.016ZM723.967 62.664L724.966 62.7116L724.967 62.6878V62.664H723.967ZM718.399 68.232V69.232H718.423L718.446 69.2309L718.399 68.232ZM688.447 68.232V67.232H687.447V68.232H688.447ZM688.447 81V82H689.447V81H688.447ZM684.511 81H683.511V82H684.511V81ZM684.511 47.448V46.448H683.511V47.448H684.511ZM718.447 47.448L718.495 46.4492L718.471 46.448H718.447V47.448ZM719.503 63.72L718.796 63.0129L718.796 63.0129L719.503 63.72ZM719.503 51.96L718.796 52.6671L718.796 52.6671L719.503 51.96ZM718.255 51.384L718.365 50.3901L718.31 50.384H718.255V51.384ZM688.447 51.384V50.384H687.447V51.384H688.447ZM688.447 64.248H687.447V65.2464L688.445 65.248L688.447 64.248ZM718.207 64.296L718.205 65.296L718.256 65.2961L718.306 65.291L718.207 64.296ZM722.967 53.016V62.664H724.967V53.016H722.967ZM722.968 62.6164C722.848 65.1255 720.86 67.1136 718.351 67.2331L718.446 69.2309C721.985 69.0623 724.797 66.2505 724.966 62.7116L722.968 62.6164ZM718.399 67.232H688.447V69.232H718.399V67.232ZM687.447 68.232V81H689.447V68.232H687.447ZM688.447 80H684.511V82H688.447V80ZM685.511 81V47.448H683.511V81H685.511ZM684.511 48.448H718.447V46.448H684.511V48.448ZM718.398 48.4468C720.855 48.5657 722.848 50.5494 722.968 53.0636L724.966 52.9684C724.797 49.4346 721.99 46.6183 718.495 46.4492L718.398 48.4468ZM720.21 64.4271C720.721 63.9162 721.031 63.2346 721.031 62.472H719.031C719.031 62.6694 718.957 62.8518 718.796 63.0129L720.21 64.4271ZM721.031 62.472V53.208H719.031V62.472H721.031ZM721.031 53.208C721.031 52.4454 720.721 51.7638 720.21 51.2529L718.796 52.6671C718.957 52.8282 719.031 53.0106 719.031 53.208H721.031ZM720.21 51.2529C719.685 50.7278 718.979 50.4583 718.365 50.3901L718.144 52.3779C718.394 52.4057 718.649 52.5202 718.796 52.6671L720.21 51.2529ZM718.255 50.384H688.447V52.384H718.255V50.384ZM687.447 51.384V64.248H689.447V51.384H687.447ZM688.445 65.248L718.205 65.296L718.208 63.296L688.448 63.248L688.445 65.248ZM718.306 65.291C718.965 65.2251 719.678 64.9591 720.21 64.4271L718.796 63.0129C718.656 63.1529 718.408 63.2709 718.107 63.301L718.306 65.291ZM770.201 52.728L769.202 52.7756L769.202 52.7779L770.201 52.728ZM770.201 75.768L769.202 75.7181L769.202 75.7197L770.201 75.768ZM764.633 81.288L764.602 80.2885L764.593 80.2888L764.584 80.2892L764.633 81.288ZM735.641 81.288L735.691 80.2892L735.682 80.2888L735.673 80.2885L735.641 81.288ZM730.073 75.768L731.072 75.7197L731.072 75.7118L730.073 75.768ZM730.073 52.728L731.072 52.7842L731.072 52.7756L730.073 52.728ZM735.641 47.16L735.689 48.1589L735.691 48.1588L735.641 47.16ZM764.633 47.16L764.584 48.1588L764.586 48.1589L764.633 47.16ZM766.265 75.576L767.259 75.6864L767.262 75.6567L767.264 75.6269L766.265 75.576ZM766.265 52.92L767.264 52.8688L767.263 52.8446L767.26 52.8205L766.265 52.92ZM765.689 51.672L764.982 52.3791L764.982 52.3791L765.689 51.672ZM764.441 51.096L764.541 50.101L764.511 50.098L764.482 50.0968L764.441 51.096ZM735.785 51.096L735.745 50.0968L735.71 50.0982L735.675 50.1021L735.785 51.096ZM734.537 51.672L735.244 52.3791L735.244 52.3791L734.537 51.672ZM734.009 52.92L735.008 52.9712L735.009 52.9456V52.92H734.009ZM734.009 75.576H735.009V75.5505L735.008 75.5251L734.009 75.576ZM735.785 77.352L735.836 76.3533L735.81 76.352H735.785V77.352ZM764.441 77.352V76.352H764.416L764.391 76.3533L764.441 77.352ZM769.202 52.7779C769.585 60.4247 769.585 68.0713 769.202 75.7181L771.2 75.8179C771.586 68.1047 771.586 60.3913 771.2 52.6781L769.202 52.7779ZM769.202 75.7197C769.083 78.1901 767.09 80.2095 764.602 80.2885L764.665 82.2875C768.225 82.1745 771.032 79.2979 771.2 75.8163L769.202 75.7197ZM764.584 80.2892C759.755 80.5283 754.924 80.624 750.137 80.624V82.624C754.95 82.624 759.815 82.5277 764.683 82.2868L764.584 80.2892ZM750.137 80.624C745.302 80.624 740.471 80.5282 735.691 80.2892L735.591 82.2868C740.411 82.5278 745.276 82.624 750.137 82.624V80.624ZM735.673 80.2885C733.185 80.2095 731.192 78.1901 731.072 75.7197L729.074 75.8163C729.243 79.2979 732.05 82.1745 735.61 82.2875L735.673 80.2885ZM731.072 75.7118C730.642 68.0692 730.642 60.4267 731.072 52.7842L729.075 52.6718C728.641 60.3892 728.641 68.1067 729.075 75.8242L731.072 75.7118ZM731.072 52.7756C731.192 50.2665 733.18 48.2783 735.689 48.1589L735.594 46.1611C732.055 46.3296 729.243 49.1415 729.074 52.6804L731.072 52.7756ZM735.691 48.1588C740.471 47.9197 745.302 47.824 750.137 47.824V45.824C745.276 45.824 740.411 45.9202 735.591 46.1612L735.691 48.1588ZM750.137 47.824C754.924 47.824 759.755 47.9197 764.584 48.1588L764.683 46.1612C759.815 45.9203 754.95 45.824 750.137 45.824V47.824ZM764.586 48.1589C767.095 48.2783 769.083 50.2665 769.202 52.7756L771.2 52.6804C771.032 49.1415 768.22 46.3296 764.681 46.1611L764.586 48.1589ZM767.264 75.6269C767.65 68.0571 767.65 60.391 767.264 52.8688L765.267 52.9712C765.649 60.425 765.649 68.0229 765.267 75.5251L767.264 75.6269ZM767.26 52.8205C767.191 52.1306 766.909 51.4776 766.396 50.9649L764.982 52.3791C765.141 52.5384 765.243 52.7494 765.27 53.0195L767.26 52.8205ZM766.396 50.9649C765.884 50.4522 765.231 50.17 764.541 50.101L764.342 52.091C764.612 52.118 764.823 52.2198 764.982 52.3791L766.396 50.9649ZM764.482 50.0968C759.724 49.9046 754.908 49.76 750.137 49.76V51.76C754.87 51.76 759.655 51.9034 764.401 52.0952L764.482 50.0968ZM750.137 49.76C745.366 49.76 740.503 49.9046 735.745 50.0968L735.826 52.0952C740.571 51.9034 745.404 51.76 750.137 51.76V49.76ZM735.675 50.1021C735.061 50.1703 734.355 50.4398 733.83 50.9649L735.244 52.3791C735.391 52.2322 735.646 52.1177 735.896 52.0899L735.675 50.1021ZM733.83 50.9649C733.319 51.4758 733.009 52.1574 733.009 52.92H735.009C735.009 52.7226 735.083 52.5402 735.244 52.3791L733.83 50.9649ZM733.011 52.8688C732.625 60.391 732.625 68.0571 733.011 75.6269L735.008 75.5251C734.626 68.0229 734.626 60.425 735.008 52.9712L733.011 52.8688ZM733.009 75.576C733.009 76.2762 733.309 77.0097 733.83 77.5311L735.244 76.1169C735.094 75.9663 735.009 75.7398 735.009 75.576H733.009ZM733.83 77.5311C734.352 78.0525 735.085 78.352 735.785 78.352V76.352C735.621 76.352 735.395 76.2675 735.244 76.1169L733.83 77.5311ZM735.735 78.3507C740.507 78.5917 745.372 78.688 750.137 78.688V76.688C745.398 76.688 740.567 76.5923 735.836 76.3533L735.735 78.3507ZM750.137 78.688C754.902 78.688 759.72 78.5917 764.492 78.3507L764.391 76.3533C759.659 76.5923 754.876 76.688 750.137 76.688V78.688ZM764.441 78.352C765.204 78.352 765.885 78.042 766.396 77.5311L764.982 76.1169C764.821 76.278 764.639 76.352 764.441 76.352V78.352ZM766.396 77.5311C766.921 77.006 767.191 76.3005 767.259 75.6864L765.271 75.4656C765.244 75.7155 765.129 75.97 764.982 76.1169L766.396 77.5311ZM813.989 60.936L813.106 60.4654L812.628 61.3616L813.532 61.8256L813.989 60.936ZM817.061 65.784H818.061V65.7613L818.059 65.7386L817.061 65.784ZM817.061 75.432L818.059 75.4796L818.061 75.4558V75.432H817.061ZM811.541 81V82H811.565L811.589 81.9988L811.541 81ZM777.605 81H776.605V82H777.605V81ZM777.605 47.448V46.448H776.605V47.448H777.605ZM809.045 47.448L809.092 46.4491L809.068 46.448H809.045V47.448ZM814.613 53.016H815.613V52.9922L815.611 52.9684L814.613 53.016ZM814.613 58.632L815.611 58.6907L815.613 58.6614V58.632H814.613ZM781.541 51.384V50.384H780.541V51.384H781.541ZM781.541 60.216H780.541V61.216H781.541V60.216ZM810.101 59.688L810.808 60.3951L810.808 60.3951L810.101 59.688ZM810.677 58.44L811.672 58.5395L811.677 58.4899V58.44H810.677ZM810.677 53.208H811.677V53.1581L811.672 53.1085L810.677 53.208ZM808.853 51.384L808.952 50.389L808.902 50.384H808.853V51.384ZM812.597 64.728L811.889 65.4351L811.889 65.4351L812.597 64.728ZM811.301 64.2L811.301 63.2L811.299 63.2L811.301 64.2ZM781.541 64.248L781.539 63.248L780.541 63.2496V64.248H781.541ZM781.541 77.064H780.541V78.064H781.541V77.064ZM812.597 76.536L811.889 75.8289L811.889 75.8289L812.597 76.536ZM813.532 61.8256C814.987 62.5728 815.982 64.0735 816.062 65.8294L818.059 65.7386C817.947 63.2705 816.542 61.1232 814.445 60.0464L813.532 61.8256ZM816.061 65.784V75.432H818.061V65.784H816.061ZM816.062 75.3844C815.942 77.8986 813.949 79.8823 811.492 80.0012L811.589 81.9988C815.084 81.8297 817.891 79.0134 818.059 75.4796L816.062 75.3844ZM811.541 80H777.605V82H811.541V80ZM778.605 81V47.448H776.605V81H778.605ZM777.605 48.448H809.045V46.448H777.605V48.448ZM808.997 48.4469C811.506 48.5663 813.494 50.5545 813.614 53.0636L815.611 52.9684C815.443 49.4295 812.631 46.6176 809.092 46.4491L808.997 48.4469ZM813.613 53.016V58.632H815.613V53.016H813.613ZM813.614 58.5733C813.573 59.266 813.413 59.8899 813.106 60.4654L814.871 61.4066C815.332 60.5421 815.556 59.63 815.611 58.6907L813.614 58.5733ZM780.541 51.384V60.216H782.541V51.384H780.541ZM781.541 61.216H808.853V59.216H781.541V61.216ZM808.853 61.216C809.615 61.216 810.297 60.906 810.808 60.3951L809.393 58.9809C809.232 59.142 809.05 59.216 808.853 59.216V61.216ZM810.808 60.3951C811.32 59.8824 811.603 59.2295 811.672 58.5395L809.681 58.3405C809.654 58.6105 809.553 58.8216 809.393 58.9809L810.808 60.3951ZM811.677 58.44V53.208H809.677V58.44H811.677ZM811.672 53.1085C811.603 52.4185 811.32 51.7656 810.808 51.2529L809.393 52.6671C809.553 52.8264 809.654 53.0374 809.681 53.3075L811.672 53.1085ZM810.808 51.2529C810.295 50.7402 809.642 50.458 808.952 50.389L808.753 52.379C809.023 52.406 809.234 52.5078 809.393 52.6671L810.808 51.2529ZM808.853 50.384H781.541V52.384H808.853V50.384ZM814.125 75.288V65.976H812.125V75.288H814.125ZM814.125 65.976C814.125 65.2134 813.815 64.5318 813.304 64.0209L811.889 65.4351C812.05 65.5962 812.125 65.7786 812.125 65.976H814.125ZM813.304 64.0209C812.772 63.4897 812.035 63.2 811.301 63.2V65.2C811.526 65.2 811.749 65.2943 811.889 65.4351L813.304 64.0209ZM811.299 63.2L781.539 63.248L781.542 65.248L811.302 65.2L811.299 63.2ZM780.541 64.248V77.064H782.541V64.248H780.541ZM781.541 78.064H811.349V76.064H781.541V78.064ZM811.349 78.064C812.049 78.064 812.782 77.7645 813.304 77.2431L811.889 75.8289C811.739 75.9795 811.512 76.064 811.349 76.064V78.064ZM813.304 77.2431C813.825 76.7217 814.125 75.9882 814.125 75.288H812.125C812.125 75.4518 812.04 75.6783 811.889 75.8289L813.304 77.2431ZM844.659 47.448L845.568 47.0317L845.301 46.448H844.659V47.448ZM860.019 81V82H861.576L860.928 80.5837L860.019 81ZM855.699 81L854.79 81.4179L855.058 82H855.699V81ZM852.387 73.8L853.295 73.3821L853.027 72.8H852.387V73.8ZM828.195 73.8V72.8H827.554L827.286 73.3821L828.195 73.8ZM824.883 81V82H825.523L825.791 81.4179L824.883 81ZM820.563 81L819.653 80.5837L819.005 82H820.563V81ZM835.923 47.448V46.448H835.281L835.013 47.0317L835.923 47.448ZM830.019 69.816L829.11 69.3993L828.46 70.816H830.019V69.816ZM850.563 69.816V70.816H852.121L851.472 69.3993L850.563 69.816ZM842.115 51.384L843.024 50.9673L842.756 50.384H842.115V51.384ZM838.467 51.384V50.384H837.825L837.558 50.9673L838.467 51.384ZM843.749 47.8642L859.109 81.4163L860.928 80.5837L845.568 47.0317L843.749 47.8642ZM860.019 80H855.699V82H860.019V80ZM856.607 80.5821L853.295 73.3821L851.478 74.2179L854.79 81.4179L856.607 80.5821ZM852.387 72.8H828.195V74.8H852.387V72.8ZM827.286 73.3821L823.974 80.5821L825.791 81.4179L829.103 74.2179L827.286 73.3821ZM824.883 80H820.563V82H824.883V80ZM821.472 81.4163L836.832 47.8642L835.013 47.0317L819.653 80.5837L821.472 81.4163ZM835.923 48.448H844.659V46.448H835.923V48.448ZM830.019 70.816H850.563V68.816H830.019V70.816ZM851.472 69.3993L843.024 50.9673L841.206 51.8007L849.654 70.2327L851.472 69.3993ZM842.115 50.384H838.467V52.384H842.115V50.384ZM837.558 50.9673L829.11 69.3993L830.928 70.2327L839.376 51.8007L837.558 50.9673ZM870.895 47.448V46.448H870.871L870.847 46.4491L870.895 47.448ZM904.831 47.448H905.831V46.448H904.831V47.448ZM904.831 81V82H905.831V81H904.831ZM900.847 81H899.847V82H900.847V81ZM900.847 51.384H901.847V50.384H900.847V51.384ZM871.087 51.384V50.384H871.037L870.987 50.389L871.087 51.384ZM869.839 51.96L870.546 52.6671L870.546 52.6671L869.839 51.96ZM869.263 75.48L870.262 75.5283L870.263 75.5042V75.48H869.263ZM863.695 81V82H863.711L863.726 81.9995L863.695 81ZM862.879 81H861.879V82H862.879V81ZM862.879 77.064V76.064H861.879V77.064H862.879ZM865.327 75.288L866.322 75.3875L866.327 75.3379V75.288H865.327ZM865.327 53.016L864.328 52.9684L864.327 52.9922V53.016H865.327ZM870.895 48.448H904.831V46.448H870.895V48.448ZM903.831 47.448V81H905.831V47.448H903.831ZM904.831 80H900.847V82H904.831V80ZM901.847 81V51.384H899.847V81H901.847ZM900.847 50.384H873.007V52.384H900.847V50.384ZM873.007 50.384H871.087V52.384H873.007V50.384ZM870.987 50.389C870.297 50.458 869.644 50.7402 869.132 51.2529L870.546 52.6671C870.705 52.5078 870.916 52.406 871.186 52.379L870.987 50.389ZM869.132 51.2529C868.673 51.7114 868.263 52.3832 868.263 53.208H870.263C870.263 53.0728 870.332 52.8806 870.546 52.6671L869.132 51.2529ZM868.263 53.208V58.248H870.263V53.208H868.263ZM868.263 58.248V61.56H870.263V58.248H868.263ZM868.263 61.56V75.48H870.263V61.56H868.263ZM868.264 75.4317C868.144 77.9021 866.151 79.9215 863.663 80.0005L863.726 81.9995C867.286 81.8865 870.093 79.0099 870.262 75.5283L868.264 75.4317ZM863.695 80H862.879V82H863.695V80ZM863.879 81V77.064H861.879V81H863.879ZM862.879 78.064H863.503V76.064H862.879V78.064ZM863.503 78.064C864.265 78.064 864.947 77.754 865.458 77.2431L864.044 75.8289C863.883 75.99 863.7 76.064 863.503 76.064V78.064ZM865.458 77.2431C865.971 76.7304 866.253 76.0774 866.322 75.3875L864.332 75.1885C864.305 75.4585 864.203 75.6696 864.044 75.8289L865.458 77.2431ZM866.327 75.288V64.68H864.327V75.288H866.327ZM866.327 64.68V53.016H864.327V64.68H866.327ZM866.326 53.0636C866.445 50.5545 868.433 48.5663 870.942 48.4469L870.847 46.4491C867.308 46.6176 864.496 49.4295 864.328 52.9684L866.326 53.0636ZM944.96 47.448V46.448H944.521L944.224 46.7707L944.96 47.448ZM951.92 47.448H952.92V46.448H951.92V47.448ZM951.92 81V82H952.92V81H951.92ZM947.984 81H946.984V82H947.984V81ZM947.984 51.384H948.984V50.384H947.984V51.384ZM946.88 51.384V50.384H946.443L946.147 50.7041L946.88 51.384ZM919.424 81V82H919.86L920.157 81.6799L919.424 81ZM912.464 81H911.464V82H912.464V81ZM912.464 47.448V46.448H911.464V47.448H912.464ZM916.4 47.448H917.4V46.448H916.4V47.448ZM916.4 77.064H915.4V78.064H916.4V77.064ZM917.696 77.064V78.064H918.135L918.432 77.7413L917.696 77.064ZM944.96 48.448H951.92V46.448H944.96V48.448ZM950.92 47.448V81H952.92V47.448H950.92ZM951.92 80H947.984V82H951.92V80ZM948.984 81V51.384H946.984V81H948.984ZM947.984 50.384H946.88V52.384H947.984V50.384ZM946.147 50.7041L918.691 80.3201L920.157 81.6799L947.613 52.0639L946.147 50.7041ZM919.424 80H912.464V82H919.424V80ZM913.464 81V47.448H911.464V81H913.464ZM912.464 48.448H916.4V46.448H912.464V48.448ZM915.4 47.448V77.064H917.4V47.448H915.4ZM916.4 78.064H917.696V76.064H916.4V78.064ZM918.432 77.7413L945.696 48.1253L944.224 46.7707L916.96 76.3867L918.432 77.7413Z" fill="black" fill-opacity="0.1" mask="url(#path-1-outside-1_21_339)"/>
</svg>
